<?xml version="1.0" encoding="UTF-8"?>
<svg id="_レイヤー_2" data-name="レイヤー 2" xmlns="http://www.w3.org/2000/svg" viewBox="0 0 363.42 390">
  <defs>
    <style>
      .cls-1 {
        fill: #fff;
      }

      .cls-2 {
        stroke: #fff;
        stroke-miterlimit: 10;
        stroke-width: 20px;
      }

      .cls-2, .cls-3, .cls-4 {
        fill: none;
        stroke-linecap: round;
      }

      .cls-3 {
        stroke: #5a5b5b;
      }

      .cls-3, .cls-4 {
        stroke-linejoin: round;
        stroke-width: 19.84px;
      }

      .cls-4 {
        stroke: #231815;
      }

      .cls-5 {
        fill: #231815;
      }
    </style>
  </defs>
  <g id="_レイヤー_1-2" data-name="レイヤー 1">
    <g>
      <path class="cls-2" d="M168.42,380c102.01,0,185-82.99,185-185S270.43,10,168.42,10C101.31,10,42.43,45.92,10,99.54"/>
      <path class="cls-1" d="M108.41,84.6c3.18-1.65,3.76-6.51,1.28-10.79l-.68-1.18c-2.47-4.29-8.01-5.77-12.29-3.3l-1.28,.74c-4.29,2.47-5.77,8.01-3.29,12.29l.64,1.1c2.48,4.29,12.44,2.78,15.62,1.13Z"/>
      <path class="cls-1" d="M171.71,69.18c3.55,.27,6.45-3.55,6.45-8.5v-1.37c0-4.95-4.05-9-9-9h-1.47c-4.95,0-9,4.05-9,9v1.37c0,4.95,2.9,8.78,6.45,8.5h6.57Z"/>
      <path class="cls-1" d="M42.76,123.3c-2.47,4.29-.99,9.82,3.3,12.29l1.18,.68c4.29,2.47,9.14,1.89,10.79-1.29s3.16-13.14-1.13-15.62l-1.11-.64c-4.29-2.47-9.82-.99-12.29,3.29l-.74,1.28Z"/>
      <path class="cls-5" d="M42.61,195v-3.29c.27-3.55-3.56-6.45-8.51-6.45h-1.36c-4.95,0-9,4.05-9,9v1.47c0,4.95,4.05,9,9,9h1.36c4.95,0,8.78-2.9,8.51-6.45v-3.28Z"/>
      <path class="cls-1" d="M227.15,73.81c-2.48,4.29-1.9,9.14,1.28,10.79s13.15,3.15,15.62-1.13l.64-1.1c2.48-4.29,.99-9.82-3.29-12.29l-1.27-.73c-4.29-2.48-9.82-.99-12.29,3.29l-.68,1.18Z"/>
      <path class="cls-1" d="M290.79,135.59c4.29-2.47,5.77-8,3.3-12.29l-.74-1.28c-2.47-4.29-8.01-5.77-12.29-3.3l-1.11,.64c-4.29,2.47-6.26,6.98-4.37,10.01s9.75,9.37,14.04,6.9l1.18-.68Z"/>
      <path class="cls-1" d="M275.56,260.62c-1.88,3.03,.09,7.53,4.37,10.01l1.11,.64c4.29,2.47,9.82,.99,12.29-3.3l.74-1.28c2.47-4.29,.99-9.82-3.3-12.29l-1.18-.68c-4.29-2.47-12.16,3.87-14.04,6.9Z"/>
      <path class="cls-5" d="M46.05,254.4c-4.29,2.48-5.77,8.01-3.29,12.3l.74,1.28c2.47,4.29,8.01,5.77,12.29,3.29l1.11-.64c4.29-2.48,6.25-6.98,4.37-10.01s-9.75-9.37-14.04-6.89l-1.19,.68Z"/>
      <path class="cls-1" d="M302.74,185.26c-4.95,0-8.78,2.9-8.51,6.44v6.58c-.27,3.54,3.56,6.44,8.51,6.44h1.36c4.95,0,9-4.05,9-9v-1.47c0-4.95-4.05-9-9-9h-1.36Z"/>
      <path class="cls-1" d="M228.43,305.39c-3.18,1.65-3.76,6.51-1.29,10.79l.69,1.19c2.47,4.29,8.01,5.77,12.29,3.3l1.28-.74c4.29-2.47,5.77-8.01,3.29-12.29l-.64-1.11c-2.48-4.29-12.44-2.78-15.62-1.13Z"/>
      <path class="cls-1" d="M165.13,320.81c-3.55-.27-6.45,3.55-6.45,8.5v1.37c0,4.95,4.05,9,9,9h1.47c4.95,0,9-4.05,9-9v-1.37c0-4.95-2.9-8.78-6.45-8.5h-6.57Z"/>
      <path class="cls-5" d="M92.15,307.63c-2.48,4.29-.99,9.82,3.29,12.29l1.27,.73c4.29,2.48,9.82,.99,12.3-3.29l.68-1.18c2.48-4.29,1.9-9.14-1.28-10.79s-13.15-3.15-15.62,1.13l-.64,1.1Z"/>
    </g>
    <line class="cls-3" x1="167.86" y1="193.18" x2="167.86" y2="91.26"/>
    <line class="cls-4" x1="167.92" y1="193.99" x2="104.69" y2="156.76"/>
  </g>
</svg>