<?xml version="1.0" encoding="UTF-8"?>
<svg id="_レイヤー_2" data-name="レイヤー 2" xmlns="http://www.w3.org/2000/svg" viewBox="0 0 468.81 235.9">
  <defs>
    <style>
      .cls-1 {
        fill: #f4b467;
      }

      .cls-2 {
        fill: #fff;
      }

      .cls-3 {
        fill: #957f6e;
      }

      .cls-4 {
        fill: #201614;
      }

      .cls-5 {
        fill: #5394cf;
      }

      .cls-6 {
        fill: #87cce3;
      }
    </style>
  </defs>
  <g id="layer">
    <g id="group">
      <path class="cls-2" d="M91.9,208.57c81,0,201.58-.01,255.6-.02,0-5.69,0-12.12,.01-19.1-98.24,0-336.16,.01-345.42,.01,0,5.39-.08,.91-.08,9.94,1.33,0,4.84,0,10.15,0-.02,1.46-.04,4.36-.04,9.16,4.37,0,36.4,0,79.79,0Z"/>
      <path class="cls-2" d="M14.9,2.14c-.11,0-.23,0-.34,0-1.05,0-1.9,.85-1.9,1.89,0,17.91,0,146.9,0,185.39v.05c53.01,0,283.31,0,334.84,0,.03-59.37,.08-172.35,.09-185.45,0-1.05-.84-1.89-1.89-1.89-43.74,0-291.15,.02-330.8,.03Z"/>
      <path class="cls-4" d="M14.67,189.42c0-9.63,0-19.26,0-28.89,0-13.21,0-26.42,0-39.63,0-14.27,0-28.54,0-42.81,0-13.02,0-26.05,0-39.07,0-9.26,0-18.52,0-27.78,0-1.45,0-2.89,0-4.34,0-.55,0-1.11,0-1.66,0-.24,.01-.47,0-.71-.02-.32,.06-.45-.05-.38,.56-.34,2.45,0,3.12,0,1.27,0,2.53,0,3.8,0,7.06,0,14.12,0,21.19,0,9.72,0,19.43,0,29.15,0,11.76,0,23.53,0,35.29,0,13.06,0,26.13,0,39.19,0s27.32,0,40.98,0c13.55,0,27.1,0,40.65,0,12.68,0,25.35,0,38.03,0,11.22,0,22.45,0,33.67,0,9,0,18.01,0,27.01,0,6.08,0,12.15,0,18.23,0,.73,0,.74-.24,.68,.44-.05,.51,0,1.06,0,1.57,0,1.47,0,2.94,0,4.4,0,4.32,0,8.63,0,12.95,0,12.9-.02,25.8-.02,38.71,0,15.83-.02,31.65-.03,47.48,0,15.48-.02,30.96-.03,46.44,0,6.39,0,12.78-.01,19.17,0,2.57,4,2.58,4,0,.01-14.29,.02-28.58,.03-42.87,.01-16.22,.02-32.44,.03-48.66,0-14.79,.02-29.58,.03-44.37,0-10.02,.01-20.04,.02-30.07,0-3.49,.89-8.98-4.07-9.19-2.58-.11-5.19,0-7.77,0-7.59,0-15.19,0-22.78,0-10.24,0-20.48,0-30.72,0-12.16,0-24.32,0-36.48,0-13.35,0-26.71,0-40.06,0s-27.64,0-41.47,0-27.13,0-40.7,0c-12.64,0-25.28,0-37.92,0-10.87,0-21.74,0-32.61,0-8.43,0-16.87,0-25.3,0-3.06,0-6.13,0-9.19,0-2.49,0-6.85-.72-8.72,1.15s-1.15,6.65-1.15,9.21c0,3.92,0,7.84,0,11.76,0,11.44,0,22.87,0,34.31,0,14.09,0,28.18,0,42.27,0,14.28,0,28.57,0,42.85,0,11.81,0,23.62,0,35.43,0,4.1,0,8.2,0,12.3,0,2.57,4,2.58,4,0h0Z"/>
      <path class="cls-4" d="M318.66,187.46c-21.86,0-43.72,0-65.59,0-26.35,0-52.69,0-79.04,0-25.94,0-51.87,0-77.81,0-20.59,0-41.17,0-61.76,0-10.45,0-20.89,0-31.34,0-.35,0-.7,0-1.05,0-1.08,0-2,.92-2,2C.08,192.79,0,196.1,0,199.41c0,1.08,.92,2,2,2,3.38,0,6.77,0,10.15,0l-2-2c-.04,3.05-.04,6.11-.04,9.16,0,1.08,.92,2,2,2,3.18,0,6.36,0,9.54,0,6.54,0,13.08,0,19.61,0,9.28,0,18.56,0,27.85,0,11.27,0,22.53,0,33.8,0,12.68,0,25.37,0,38.05,0,13.37,0,26.74,0,40.11,0s26.63,0,39.95,0c12.72,0,25.44,0,38.15,0,11.37,0,22.75,0,34.12,0,9.31,0,18.62,0,27.94,0,1.91,0,3.82,0,5.73,0,2.57,0,2.58-4,0-4-8.76,0-17.53,0-26.29,0-10.89,0-21.78,0-32.68,0-12.45,0-24.9,0-37.35,0-13.22,0-26.43,0-39.65,0s-26.87,0-40.31,0-25.83,0-38.74,0c-11.66,0-23.32,0-34.98,0-9.85,0-19.69,0-29.54,0-7.29,0-14.58,0-21.87,0-4.05,0-8.1,0-12.14,0-.43,0-.86,0-1.29,0l2,2c0-3.05,0-6.11,.04-9.16,.02-1.08-.93-2-2-2-3.38,0-6.77,0-10.15,0l2,2c0-3.32,.08-6.63,.08-9.94l-2,2c8.89,0,17.78,0,26.67,0,19.67,0,39.35,0,59.02,0,25.56,0,51.12,0,76.69,0s52.98,0,79.47,0c22.62,0,45.23,0,67.85,0,2.3,0,4.59,0,6.89,0,2.57,0,2.58-4,0-4h0Z"/>
      <path class="cls-2" d="M83.47,188.75c0-4.98,.04-5.28,.04-8.25,6.37,0,16.85,0,25.68,0,0,3.85,.03,5.54,.03,8.24-5.25,0-17.57,.01-25.76,.01Z"/>
      <path class="cls-2" d="M118.79,188.75c0-4.98,.04-5.28,.04-8.25,6.37,0,16.85,0,25.68,0,0,3.85,.03,5.54,.03,8.24-5.25,0-17.57,.01-25.76,.01Z"/>
      <path class="cls-4" d="M232.36,197.6c-2.54,0-5.08,0-7.62,0-5.29,0-10.57,0-15.86,.01-7.33,0-14.67,.01-22,.02-8.75,0-17.5,.01-26.25,.02-9.52,0-19.03,.01-28.55,.02s-19.35,.01-29.02,.02c-9.09,0-18.19,.01-27.28,.02-7.91,0-15.81,.01-23.72,.02-6.07,0-12.14,0-18.21,.01-3.58,0-7.17,0-10.75,0-.43,0-.85,0-1.28,0-2.57,0-2.58,4,0,4,2.87,0,5.74,0,8.61,0,5.55,0,11.1,0,16.64-.01,7.52,0,15.04-.01,22.57-.02,8.87,0,17.73-.01,26.6-.02,9.56,0,19.12-.01,28.68-.02s19.3-.01,28.94-.02c8.99,0,17.99-.01,26.98-.02,7.74,0,15.47-.01,23.21-.02,5.83,0,11.66,0,17.48-.01,3.27,0,6.54,0,9.81,0,.34,0,.68,0,1.02,0,2.57,0,2.58-4,0-4h0Z"/>
      <path class="cls-4" d="M312.37,197.6c-7.7,0-15.4,.03-23.1,.05-10.33,.03-20.67,.06-31,.08-4.24,0-8.48,.02-12.72,.02-2.57,0-2.58,4,0,4,8.6,0,17.19-.03,25.79-.05,10.09-.03,20.17-.06,30.26-.08,3.59,0,7.19-.02,10.78-.02,2.57,0,2.58-4,0-4h0Z"/>
      <path class="cls-4" d="M85.47,188.75c0-2.75,.04-5.5,.04-8.25l-2,2c8.56,0,17.12,0,25.68,0l-2-2c0,2.75,.03,5.5,.03,8.24l2-2c-8.59,0-17.17,.01-25.76,.01-2.57,0-2.58,4,0,4,8.59,0,17.17-.01,25.76-.01,1.08,0,2-.92,2-2,0-2.75-.03-5.5-.03-8.24,0-1.08-.92-2-2-2-8.56,0-17.12,0-25.68,0-1.08,0-2,.92-2,2,0,2.75-.04,5.5-.04,8.25,0,2.57,4,2.58,4,0Z"/>
      <path class="cls-4" d="M120.79,188.75c0-2.75,.04-5.5,.04-8.25l-2,2c8.56,0,17.12,0,25.68,0l-2-2c0,2.75,.03,5.5,.03,8.24l2-2c-8.59,0-17.17,.01-25.76,.01-2.57,0-2.58,4,0,4,8.59,0,17.17-.01,25.76-.01,1.08,0,2-.92,2-2,0-2.75-.03-5.5-.03-8.24,0-1.08-.92-2-2-2-8.56,0-17.12,0-25.68,0-1.08,0-2,.92-2,2,0,2.75-.04,5.5-.04,8.25,0,2.57,4,2.58,4,0Z"/>
      <path class="cls-1" d="M28.7,188.75c0-12.75,.07-10.62,.07-18.23,10.87,0,28.77-.02,43.85-.02,0,9.86,.05,11.29,.05,18.22-8.96,0-29.99,.03-43.97,.03Z"/>
      <path class="cls-4" d="M30.7,188.75c0-6.08,.07-12.15,.07-18.23l-2,2c14.62,0,29.23-.02,43.85-.02l-2-2c0,6.07,.05,12.15,.05,18.22l2-2c-14.66,0-29.31,.03-43.97,.03-2.57,0-2.58,4,0,4,14.66,0,29.31-.03,43.97-.03,1.08,0,2-.92,2-2,0-6.07-.05-12.15-.05-18.22,0-1.08-.92-2-2-2-14.62,0-29.23,.02-43.85,.02-1.08,0-2,.92-2,2,0,6.08-.07,12.15-.07,18.23,0,2.57,4,2.58,4,0Z"/>
      <path class="cls-2" d="M45.42,189.28c0-14.79,.02-12.31,.02-21.14,2.6,0,6.89-.02,10.5-.02,0,11.43,.01,13.09,.01,21.12-2.15,0-7.18,.04-10.53,.04Z"/>
      <path class="cls-4" d="M47.42,189.28c0-7.05,.02-14.09,.02-21.14l-2,2c3.5,0,7-.02,10.5-.02l-2-2c0,7.04,.01,14.08,.01,21.12l2-2c-3.51,0-7.02,.04-10.53,.04-2.57,0-2.58,4,0,4,3.51,0,7.02-.04,10.53-.04,1.08,0,2-.92,2-2,0-7.04-.01-14.08-.01-21.12,0-1.08-.92-2-2-2-3.5,0-7,.02-10.5,.02-1.08,0-2,.92-2,2,0,7.05-.02,14.09-.02,21.14,0,2.57,4,2.58,4,0Z"/>
      <g id="woman">
        <path class="cls-3" d="M425.64,140.6c7.55,2.91,13.67-3.85,13.62-9.53-.03-3.47-.55-6.15-1.63-9.51-1.34-4.18-3.94-12.67-4.13-27.85,.37-4.27-.01-10.44-.18-12.81-.59-8.22-4.26-17.4-9.55-22.5-2.29-2.21-5.94-5.48-11.41-7.5-3.68-1.42-7.1-2.1-13.55-2.1-10.58,0-19.99,5.45-24.17,9.45-6.93,6.64-11.33,18.76-10.77,35.47,0,12.18-.93,20.96-2.23,25.96-.89,3.42-1.64,9.1-1.67,12.58-.05,5.68,5.67,11.91,14.11,9.98l51.56-1.63Z"/>
        <path class="cls-2" d="M390.28,149.4c-2.54-.4-5.04-1-7.1-1.82l-8.46-6.44c.4-.18,11.37-5.73,12.45-8.4,.77-1.91,.55-4.58,.59-6.6-3.11-1.33-5.96-3.61-8.49-6.63-2.76-3.3-4.32-6.98-5.23-10.21-.64-.1-1.03-.16-1.03-.16-1.17-.18-2.27-.71-3.16-1.43-1.17-.94-2.01-2.19-2.65-3.48-1.32-2.66-1.9-5.64-1.65-8.56,.07-.74,.19-1.5,.56-2.17,.53-.95,1.58-1.65,2.74-1.82s2.39,.19,3.23,.94h1.12c4.9-7.25,17.99-13.31,30.06-17.54,0,0,.19-.06,.54-.17,4.47-1.34,9.34,.03,12.4,3.55,4.18,4.8,6.79,10.45,8.37,15.64,.95-.86,1.65-1.49,1.65-1.49,.83-.75,2.07-1.12,3.23-.94s2.21,.87,2.74,1.82c.37,.67,.49,1.43,.56,2.17,.25,2.92-.32,5.9-1.65,8.56-.64,1.3-1.48,2.54-2.65,3.48-.9,.72-2,1.25-3.16,1.43,0,0-.2,.03-.54,.08-.26,.97-.55,1.79-.69,2.22-.95,2.58-6.39,11.68-13.16,14.58,.06,2.04-.19,4.77,.6,6.72,1.08,2.67,11.03,8.22,11.43,8.4l-9.89,6.86c-4.14,1.11-9.97,2.05-14.33,2.06-2.46,0-5.48-.2-8.43-.67Z"/>
        <path class="cls-4" d="M427.65,94.04c.81-.67,2.2-.48,2.76,.36,.4,.61,.39,1.51,.41,2.2,.02,.92-.02,1.84-.18,2.75-.6,3.26-2.23,7.19-5.86,7.85-1.06,.19-1.66,1.49-1.4,2.46,.31,1.12,1.39,1.59,2.46,1.4,5.75-1.03,8.5-7.51,8.93-12.73,.23-2.72-.03-5.77-2.38-7.53s-5.41-1.4-7.57,.41c-.83,.69-.72,2.11,0,2.83,.82,.82,2,.7,2.83,0h0Z"/>
        <path class="cls-4" d="M423.26,106.13c-.06,1.39-.45,2.74-.88,4.05-.08,.24-.17,.48-.24,.73-.04,.13-.2,.46,.05-.09-.13,.29-.26,.57-.4,.85-.85,1.68-1.88,3.28-2.98,4.79-2.57,3.52-6.1,7.26-10.45,8.29-2.51,.59-1.44,4.45,1.06,3.86,5.37-1.26,9.53-5.65,12.69-9.92,2.72-3.69,4.96-7.87,5.15-12.56,.1-2.57-3.9-2.57-4,0h0Z"/>
        <path class="cls-4" d="M373.5,91.21c-2.16-1.81-5.24-2.14-7.57-.41s-2.6,4.81-2.38,7.53c.43,5.21,3.18,11.7,8.93,12.73,1.06,.19,2.16-.29,2.46-1.4,.27-.97-.33-2.27-1.4-2.46-3.63-.65-5.27-4.58-5.86-7.85-.16-.85-.2-1.73-.19-2.59,.01-.71,0-1.61,.35-2.25,.51-.94,1.99-1.17,2.83-.47s2.02,.81,2.83,0c.71-.71,.83-2.13,0-2.83h0Z"/>
        <path class="cls-4" d="M371.25,105.95c.97,5.53,3.09,10.8,6.74,15.11s8.83,7.73,14.75,8.37c1.08,.12,2-1,2-2,0-1.18-.92-1.88-2-2-4.96-.54-9.1-3.74-12.17-7.49s-4.65-8.38-5.46-13.05c-.19-1.06-1.49-1.66-2.46-1.4-1.12,.31-1.58,1.39-1.4,2.46h0Z"/>
        <path class="cls-4" d="M373.54,140.3c-3.53,.76-7.17-.1-9.59-2.88-2.28-2.61-2.08-5.73-1.77-8.97,.34-3.57,1.19-6.98,1.88-10.48s1.07-7.04,1.33-10.58c.36-4.84,.55-9.73,.43-14.59-.1-4.6,.14-9.23,.97-13.76,1.24-6.72,3.68-13.6,8.49-18.62,5.26-5.49,13.4-8.88,20.89-9.51,8.12-.68,16.29,.91,22.83,5.97,2.89,2.24,5.4,4.87,7.27,8.02,2.23,3.76,3.72,7.95,4.53,12.24,.7,3.65,.78,7.47,.83,11.18,.03,2.21-.18,4.41-.13,6.61,.05,2.43,.17,4.85,.37,7.28,.52,6.34,1.56,12.64,3.45,18.72,1.08,3.49,2.36,7.32,1.89,11.03-.39,3.09-2.8,6.07-5.78,7-1.8,.56-3.53,.36-5.28-.28-2.42-.89-3.47,2.98-1.06,3.86,4.18,1.53,8.67,.6,11.96-2.37s4.4-6.78,4.13-10.92c-.25-3.81-1.43-7.32-2.48-10.95-.86-2.97-1.51-6-2-9.05-.75-4.65-1.08-9.37-1.19-14.08-.05-2.35,.16-4.69,.12-7.04-.03-1.99-.12-3.98-.25-5.97-.57-8.96-3.55-18.6-10.1-25.05-5.97-5.88-13.42-9.52-21.79-10.15-9.63-.73-19.25,1.59-27.13,7.3-6.06,4.39-9.85,10.84-12.02,17.91-1.36,4.42-2.07,9.04-2.38,13.65-.36,5.38-.06,10.79-.27,16.18-.16,4.15-.43,8.31-1.06,12.42-.55,3.57-1.55,7.03-2.04,10.61-.56,4.04-1.27,8.31,.48,12.15,1.59,3.49,4.89,6.13,8.61,7.03,2.29,.55,4.62,.46,6.92-.03,2.52-.54,1.45-4.4-1.06-3.86h0Z"/>
        <path class="cls-4" d="M408.92,126.3c.03,2.3-.19,4.78,.66,6.97,.48,1.25,1.42,2.21,2.42,3.06,2.36,2.01,5.02,3.69,7.69,5.26,.73,.43,1.46,.91,2.24,1.27,.98,.45,2.15,.28,2.74-.72,.5-.86,.27-2.28-.72-2.74-1.73-.8-3.38-1.93-4.98-2.95-.63-.4-1.25-.81-1.86-1.24-.29-.2-.58-.41-.87-.62-.15-.11-.3-.22-.45-.33-.06-.05-.13-.1-.19-.14-.24-.18,.37,.29-.02-.02-.5-.4-.98-.8-1.44-1.24-.19-.18-.37-.36-.54-.56-.02-.02-.22-.23-.21-.25,.02-.04,.28,.45,.14,.17-.03-.05-.07-.1-.1-.15-.05-.1-.11-.19-.16-.29,.22,.42-.02-.14-.07-.32-.16-.61-.18-.82-.23-1.42-.09-1.25-.04-2.5-.05-3.76-.03-2.57-4.03-2.58-4,0h0Z"/>
        <path class="cls-4" d="M385.77,126.3c-.01,1.13,.03,2.26-.03,3.4-.03,.56-.07,.95-.15,1.34-.05,.26-.14,.51-.19,.76-.1,.44,.15-.15-.04,.13-.05,.08-.11,.16-.15,.24-.18,.33,.29-.3,.06-.08-.19,.19-.37,.4-.56,.58-.21,.2-.43,.39-.66,.58-.12,.1-.25,.2-.37,.3,.35-.28-.02,.01-.17,.12-2.4,1.76-5.02,3.23-7.64,4.64-.71,.38-1.42,.78-2.15,1.11-.98,.45-1.22,1.87-.72,2.74,.59,1.01,1.75,1.16,2.74,.72,1.98-.9,3.89-2.03,5.76-3.14,1.42-.84,2.82-1.71,4.15-2.69,1.13-.84,2.33-1.74,3.09-2.95,.67-1.07,.84-2.44,.96-3.67,.13-1.37,.07-2.74,.08-4.11,.03-2.57-3.97-2.58-4,0h0Z"/>
        <path class="cls-4" d="M402.74,73.16c-6.37,1.72-12.59,4.26-18.32,7.55-4.87,2.79-9.71,6.23-12.94,10.91-1.46,2.12,2,4.13,3.45,2.02,2.89-4.2,7.5-7.21,11.86-9.67,5.35-3.02,11.08-5.34,17.01-6.94,2.48-.67,1.43-4.53-1.06-3.86h0Z"/>
        <path class="cls-4" d="M402.23,71.09c10.57,3.97,17.36,13.34,20.53,23.87,.74,2.46,4.6,1.41,3.86-1.06-1.66-5.51-4.16-10.74-7.71-15.28-4.06-5.21-9.44-9.06-15.61-11.38-1.01-.38-2.19,.42-2.46,1.4-.31,1.12,.38,2.08,1.4,2.46h0Z"/>
        <path class="cls-2" d="M381.62,223.77c.23-1.55,.45-3.15,.66-4.81,1.63,0,2.69,0,2.69,0,4,0,22.07-.44,27.11-.44,0,0,.68,0,1.73,0,.39,3.22,.84,6.19,1.29,9,.23,1.1,.51,2.31,.87,3.57l.65,2.65c-10.85,.02-26.42,.05-37.24,.07,.44-1.49,.74-2.54,.74-2.54,.38-1.33,.68-2.61,.92-3.76,.2-1.21,.39-2.46,.58-3.74Z"/>
        <path class="cls-2" d="M434.82,191.72c.74-3.14,1.48-7.04,2.19-11.28h18.28c-.07-.18-.13-.35-.2-.52-3.63-9.6-4.34-15.27-8.07-25.02-.71-1.87-1.61-3.4-2.98-4.86-.76-.82-1.78-1.28-2.83-1.7,0,0,0,0,0,0-.03-.01-.05-.02-.08-.03-.21-.08-.42-.17-.64-.25-.03-.01-.06-.02-.09-.03-.12-.05-.24-.1-.36-.14-.33-.13-.65-.26-.96-.41-3.05-1.47-7.31-2.96-11.41-4.48-2.59-.96-5.11-1.94-7.23-2.93-1.15-1.41-2.37-2.83-3.71-4.33l-3.22-.74c1.2,10.49,.59,21.08-.01,31.62-.31,5.29-1.03,17.42-1.03,29.77,0,13.2,1.29,22.86,2.62,31.14,.23,1.1,.51,2.31,.87,3.57,0,0,.29,1.13,.68,2.62,6.04-.02,19.51-.07,19.51-.07-1.45-10.86-3.23-25.57-3.23-27.9,0-4.36,.71-8.98,1.89-14Z"/>
        <path class="cls-2" d="M339.63,178.18c-1.73-4.13-3.34-8.12-5.13-12.51-5.47,2.88-14.18,6.87-19.65,8.06,2.73,8.72,5.46,18.11,9.3,26.84,2.67,6.07,5.53,12.29,12.07,13.35,4.2,.67,9.19-1.04,12.38-3.83,3.2-2.8,8.21-8.72,10.61-11.75l.88-1.15,1.89-2.47c.79,3.88,1.24,7.52,1.24,11,0,2.36-1.73,17.25-3.21,28.2,0,0,13.27-.05,19.35-.08,.44-1.47,.76-2.57,.76-2.57,.38-1.33,.68-2.61,.92-3.76,1.34-8.28,2.63-17.94,2.63-31.14,0-12.35-.72-24.48-1.03-29.77-.61-10.54-1.21-21.13-.02-31.62l-2.46,.74c-1.16,1.29-2.22,2.52-3.23,3.75-5.41,2.78-14.48,5.41-19.84,8-1.69,.82-3.67,1.2-4.95,2.57-1.36,1.46-2.26,2.99-2.98,4.86-3.85,10.05-4.49,15.76-8.42,25.93-.38-.89-.75-1.77-1.12-2.64Z"/>
        <path class="cls-2" d="M326.63,144.23c-.79-.94-1.43-1.93-1.73-3.28-.46-2.11-1.58-4.88-3.82-5.01-1.49-.09-1.94,1.05-2.14,1.71,0,0-.14,.49-.38,1.28-.47-.18-1.02-.33-1.62-.44-3.89-.71-8.13,.15-8.27,2.16-.18,1,.08,1.89,.87,3.46-.69,.69-1.19,2.67-.66,3.1,0,0,.16,.47,.34,1.02-1.09-.22-1.95,.14-2.54,.78-.8,.87-1.41,2.76-.44,3.45,.42,.3,.8,.61,1.16,.9-.03,0-.06,0-.06,0-1.62-.56-3.86,.86-3.72,2.34,.1,1.13,1,2.19,1.93,2.92,.04,.04,.09,.07,.13,.11,.42,.69,.66,1.1,.66,1.1,1.61,2.67,3.71,5.05,6.16,6.97,.7,.55,1.42,1.06,2.1,1.63,1.11,.95,2.07,2.07,2.85,3.3l.46,.8c3.03-1.12,10.48-3.92,14.33-5.79-.07-.61-.12-1.05-.12-1.05-.59-7.84-.88-15.47-2.27-17.63-1.01-1.56-2.21-2.64-3.19-3.8Z"/>
        <path class="cls-4" d="M309.88,157.55c.06,.08,.21,.4,.06,.05-.19-.43,.01,.32-.05-.16-.05-.4,0,.02-.01,.11,0,.05,0,.1,0,.15,0,.24,.11-.51,.02-.18-.02,.1-.04,.2-.07,.3-.02,.08-.18,.49-.04,.14s-.03,.04-.07,.11c-.02,.04-.06,.08-.07,.12-.05,.16,.27-.29,.15-.19-.29,.24,.05,.09,.12-.05-.03,.08-.26,.15-.32,.19-.17,.11,.22-.09,.22-.09-.05,.01-.11,.04-.16,.06-.15,.05-.3,.09-.46,.12-.45,.09,.34,0,0,0-.12,0-.24,0-.36,0-.07,0-.16-.02-.23-.02,0,0,.44,.09,.25,.03-.15-.05-.31-.09-.47-.14-.21-.06,.14,.05,.15,.07-.03-.04-.15-.07-.19-.09-.15-.07-.29-.15-.43-.23-.28-.17-.56-.35-.82-.55-.07-.05-.16-.14-.23-.17,0,0,.3,.24,.13,.1-.12-.1-.24-.19-.35-.29-.23-.2-.44-.43-.65-.65-.25-.26,.19,.29-.01,0-.08-.13-.17-.25-.24-.38-.03-.06-.06-.11-.09-.17-.17-.3,.05,.08,.05,.13,0-.09-.09-.4-.13-.47,0,.01,.01,.39,.04,.25,0-.04,0-.09,0-.13-.02-.3-.08,.56,0,.15,0,0,.04-.13,.04-.13,.05,0-.23,.42-.11,.27,.05-.06,.31-.45,.07-.15-.22,.29,.07-.04,.14-.12,.03-.03,.09-.06,.11-.1-.06,.09-.4,.27-.12,.1,.1-.06,.2-.13,.31-.19,.05-.03,.15-.06,.19-.09-.04,.04-.44,.16-.19,.08,.13-.04,.27-.09,.4-.12,.05-.01,.1-.02,.15-.03,.19-.05-.53,.02-.17,.03,.12,0,.24,0,.36,0,.24,0-.45-.13-.23-.03,.07,.03,.17,.04,.24,.07,1,.32,2.23-.37,2.46-1.4,.25-1.09-.33-2.12-1.4-2.46-1.73-.55-3.71,.1-4.99,1.33-.73,.7-1.16,1.6-1.26,2.6-.09,.94,.28,1.96,.77,2.75s1.12,1.45,1.84,2.02,1.49,1.17,2.36,1.56c1.01,.45,2,.66,3.11,.51,1.01-.14,1.98-.48,2.76-1.17,1.36-1.21,2.01-3.92,.88-5.47-.31-.43-.66-.77-1.2-.92-.48-.13-1.12-.07-1.54,.2-.84,.54-1.37,1.83-.72,2.74h0Z"/>
        <path class="cls-4" d="M311.4,146.93c-1.24-.64-2.58-.97-3.97-.64-1.17,.28-2.11,1.08-2.77,2.06-.6,.89-.98,2.08-.92,3.15,.03,.62,.19,1.22,.53,1.74,.29,.43,.53,.62,.94,.93,.1,.07,.2,.14,.3,.22-.33-.24,.16,.13,.22,.18,1.35,1.09,2.77,2.08,4.17,3.1,.56,.42,1.14,.84,1.77,1.14,1.08,.51,2.28,.55,3.42,.22,1.44-.41,2.49-1.36,3.05-2.75s.29-3.09-.58-4.32c-.6-.85-1.77-1.34-2.74-.72-.84,.54-1.37,1.82-.72,2.74,.13,.18,.3,.4,.36,.61-.03-.09-.09-.35-.04-.03,.05,.3-.04-.02,0-.1-.02,.03,0,.17,0,.21v.07c-.01,.18,0,.18,.01,0l.02-.13c-.01,.06-.03,.13-.04,.19-.01,.04-.11,.28-.1,.3-.03-.06,.24-.42,.05-.15-.03,.04-.08,.11-.09,.15-.07,.23,.28-.31,.11-.14-.13,.13-.2,.08-.01,.05l.11-.08c-.05,.04-.1,.07-.16,.1-.06,.03-.11,.06-.17,.09-.29,.18,.06-.05,.12-.04-.06,0-.25,.08-.32,.1-.09,.02-.18,.04-.26,.06-.26,.07,.41-.02,.14-.02-.15,0-.3,0-.45,0-.4,.01,.42,.05,.06,0-.04,0-.09-.04-.13-.05,.07,0,.51,.25,.22,.09-.48-.28-.94-.57-1.39-.89-.9-.65-1.8-1.29-2.7-1.94-.05-.03-.33-.24-.13-.09s-.07-.06-.12-.1c-.15-.12-.3-.25-.45-.37-.18-.15-.36-.29-.54-.43s-.36-.28-.55-.42c-.07-.05-.38-.38-.2-.15,.23,.3-.19-.27,.1,.12,.18,.25,.08,.1,.04,.03,.22,.39,.14,.35,.09,.19-.09-.31,.04,.18,.02,.21,.01-.02,0-.23,0-.23,0-.25,.12,.02-.03,.17,.07-.08,.09-.38,.12-.48,0,.01,.09-.23,.09-.24,.07,.09-.19,.38-.02,.08,.06-.11,.27-.35,.29-.46,0,.05-.32,.35-.1,.14,.07-.06,.15-.13,.21-.2,.15-.18-.35,.18-.13,.1,.08-.03,.18-.11,.25-.15,.24-.15-.04,.13-.15,.06,.02,.01,.21-.06,.23-.07,.31-.1-.1,.03-.16,.01,.08,.02,.24-.01,.33,0s.35,.07,.08,0c-.32-.09,.1,.04,.17,.05,.1,.03,.2,.06,.3,.1-.34-.11,.03,.02,.16,.09,.93,.48,2.21,.27,2.74-.72,.48-.91,.28-2.23-.72-2.74h0Z"/>
        <path class="cls-4" d="M315.95,150.54c-1.51-1.23-2.99-2.51-4.48-3.77-.28-.24-.56-.47-.84-.7-.08-.07-.16-.15-.25-.2-.17-.12-.14-.26,.12,.22,.28,.51,.15,.42,.11,.26,.13,.59,.03,.34,.03,.15,0-.04,.03-.18,.01-.22,.1,.29-.08,.4,0,.11,.05-.19,.09-.38,.15-.56,.01-.03,.09-.24,.09-.24,.08,.06-.2,.39-.04,.13,.04-.07,.12-.18,.15-.26,.09-.13,.03-.07-.15,.18,.04-.04,.08-.09,.12-.13,.07-.06,.3-.19,.07-.07-.31,.16,.17-.06,.16-.07,.01,0-.48,.15-.08,.04,.09-.02,.19-.05,.28-.07,.41-.11-.11,.02-.1,.01,.02-.04,.31,0,.36,0,.37,.02,.08-.09-.02,0,.03-.03,.41,.1,.42,.12,0-.01-.48-.25-.04,0,.11,.06,.22,.11,.32,.17,.23,.13,.46,.26,.69,.39,.45,.27,.88,.57,1.3,.88-.36-.27,.12,.1,.21,.18,.2,.17,.4,.34,.59,.52,.35,.33,.69,.67,1.01,1.03,.09,.1,.17,.2,.26,.3,.1,.12,.33,.26,.01,0,.13,.1,.24,.34,.32,.48,.11,.19,.22,.38,.31,.58,.03,.06,.16,.36,.06,.11-.11-.27,.08,.23,.1,.28,.15,.39-.1-.05,.01-.09-.02,0,.03,.4,0,.4-.06,0,.14-.51,0-.13l-.04,.13c-.07,.21-.06,.18,.05-.09,0,.04-.12,.24-.13,.25-.03,.06-.07,.12-.11,.18-.08,.12-.05,.08,.1-.12,0,.04-.18,.19-.19,.2-.05,.05-.1,.09-.15,.14-.11,.1-.07,.06,.14-.11,0-.03-.2,.15-.23,.13,.27-.1,.29-.12,.07-.06l.24-.04c-.44,.06,.13,0,.1,.03-.1-.02-.19-.05-.29-.08l.2,.09c-.21-.02-.55-.31-.71-.43-.06-.04-.32-.23-.09-.06,.25,.19-.16-.13-.2-.17-.81-.66-2.05-.85-2.83,0-.67,.73-.87,2.12,0,2.83,1.14,.93,2.4,1.88,3.97,1.78s2.98-1.25,3.62-2.67c.31-.69,.52-1.43,.49-2.2-.04-.85-.37-1.63-.74-2.39-.57-1.15-1.47-2.15-2.4-3.03-2.01-1.92-4.8-4.02-7.74-3.39-1.58,.33-2.64,1.49-3.23,2.92-.46,1.14-.69,2.61-.04,3.71,.33,.55,.92,.92,1.4,1.33,.45,.37,.89,.75,1.33,1.13,1.1,.95,2.21,1.88,3.34,2.8,.81,.66,2.05,.85,2.83,0,.67-.73,.87-2.12,0-2.83Z"/>
        <path class="cls-4" d="M320.87,138.18c.03-.09,.06-.27,.08-.27,.3,0,.55,.27,.74,.47,.77,.82,1.02,2.05,1.29,3.1,.77,3,3.02,4.67,4.77,7.06,1.13,1.56,1.29,4.03,1.51,6.18,.37,3.64,.56,7.3,.84,10.95,.19,2.55,4.19,2.57,4,0-.32-4.27-.5-8.57-1.05-12.82-.19-1.5-.37-3.06-.89-4.49-.56-1.55-1.63-2.8-2.73-4.01s-2.16-2.29-2.59-3.93-.93-3.13-1.96-4.43c-2.33-2.95-6.68-2.61-7.86,1.13-.78,2.46,3.08,3.51,3.86,1.06h0Z"/>
        <path class="cls-4" d="M316.04,144.08c.25,2.1,.95,4.01,1.6,6.01,.3,.91,.59,1.86,.7,2.81-.04-.33,.01,.25,.02,.31,.02,.28,.02,.56,0,.84,0,0-.07,.64-.02,.3-.04,.28-.12,.56-.2,.83-.29,1,.35,2.22,1.4,2.46s2.15-.32,2.46-1.4c.64-2.18,.33-4.47-.32-6.61-.29-.97-.64-1.91-.96-2.87-.16-.48-.3-.96-.43-1.44-.06-.24-.12-.48-.17-.73-.03-.14-.05-.28-.08-.42-.04-.25-.04-.28-.02-.1-.12-1.04-.83-2.05-2-2-.98,.04-2.13,.89-2,2h0Z"/>
        <path class="cls-4" d="M315.01,145.53c2.13,.34,4.82,.56,6.58-.96,1.85-1.59,1.76-4.55-.04-6.15s-4.49-2.1-6.89-2.17c-2.03-.06-4.46,.17-6.17,1.37-.52,.36-.97,.77-1.3,1.31-.16,.26-.29,.55-.38,.84-.07,.26-.18,1.17-.09,.49-.21,1.61,.19,2.91,.85,4.37,.44,.95,1.89,1.26,2.74,.72,.98-.63,1.19-1.72,.72-2.74,0,.02-.15-.33-.08-.17,.06,.15-.06-.15-.06-.14-.07-.2-.14-.4-.2-.6-.02-.08-.11-.56-.07-.28s0-.24,0-.33c0-.05,0-.31,0-.03,0,.52,0-.87,.03-.25,.02,.39,.1-.23-.03,.12-.15,.42,.21-.25-.04,.09s.35-.23,.04-.03c-.28,.17,.09-.05,.15-.09,.11-.07,.24-.12,.35-.19,.18-.11-.14,.06-.15,.06,.09-.03,.19-.07,.28-.1,.17-.06,.35-.11,.52-.16,.33-.09,.66-.14,.99-.2,.31-.05-.32,.02,0,0,.09,0,.18-.02,.27-.03,.22-.02,.44-.03,.66-.04,.42-.02,.84-.01,1.26,0,.2,0,.4,.02,.59,.04,.1,0,.2,.02,.3,.03,.34,.03-.27-.04,.07,0,.44,.06,.89,.15,1.32,.27,.19,.05,.38,.11,.56,.17,.09,.03,.17,.07,.26,.09,.23,.08-.25-.14,.08,.04,.14,.08,.28,.15,.42,.23,.19,.11,.32,.25,.07,.02,.11,.1,.22,.23,.33,.31,.18,.13-.17-.16-.12-.17,.02,0,.11,.18,.12,.19,.23,.21-.21-.33,0-.01,.03,.05,.16,.23,.02,0-.13-.2-.04-.04,0,.01v.14c.01-.09,.03-.17,.04-.26,0,0-.04,.19-.05,.2-.12,.18,.08-.15,.08-.15-.05,.07-.1,.16-.14,.24,0,0,.21-.32,.09-.13-.06,.09-.36,.27,0,.02-.03,.02-.26,.16-.05,.04,.2-.11-.05,.01-.1,.03-.08,.02-.16,.04-.24,.06-.05,0-.09,.02-.14,.03-.39,.08,.1-.05,.13-.01-.03-.05-1,.06-1.11,.06-.26,0-.53,0-.79-.03-.11,0-.22-.02-.32-.03-.12-.01-.15-.02-.07,0,.12,.02,.05,0-.2-.03-1.03-.16-2.2,.26-2.46,1.4-.22,.96,.29,2.29,1.4,2.46h0Z"/>
        <path class="cls-4" d="M304.59,160.82c1.44,2.37,3.22,4.56,5.3,6.4,.56,.5,1.15,.97,1.75,1.43s1.01,.75,1.52,1.18,1.02,.94,1.48,1.46c.09,.1,.18,.21,.27,.32,.43,.51-.09-.13,.14,.17s.44,.62,.65,.95c.56,.88,1.81,1.32,2.74,.72s1.32-1.79,.72-2.74c-.8-1.25-1.74-2.43-2.85-3.43s-2.25-1.74-3.27-2.62c-2.12-1.82-3.61-3.59-4.98-5.86-.54-.89-1.82-1.31-2.74-.72s-1.3,1.78-.72,2.74h0Z"/>
        <path class="cls-4" d="M298.36,94.67c4.06,11.03,8.02,22.1,12.16,33.11,1.24,3.28,2.49,6.56,3.77,9.82,.39,1,1.34,1.7,2.46,1.4,.96-.26,1.79-1.45,1.4-2.46-4.62-11.76-8.91-23.66-13.23-35.54-.9-2.47-1.79-4.93-2.7-7.39s-4.75-1.36-3.86,1.06h0Z"/>
        <path class="cls-2" d="M294.94,90.57c.1,.25,.63,1.54,1.49,3.67,.46,1.12,1.74,1.67,2.86,1.22,.82-.33,1.67-.67,2.49-1,1.13-.45,1.67-1.73,1.23-2.86-.84-2.13-1.12-2.82-1.46-3.67-.77-1.9-3.02-2.8-4.66-2.26-1.41,.47-2.84,2.68-1.95,4.89Z"/>
        <path class="cls-4" d="M293.01,91.1c.27,.65,.53,1.31,.8,1.96,.6,1.46,1.02,2.99,2.41,3.9,.65,.42,1.42,.63,2.19,.66,.84,.03,1.55-.28,2.31-.58,1.48-.59,3.11-1.05,3.92-2.57,.36-.68,.57-1.45,.53-2.23-.05-.82-.35-1.51-.65-2.26s-.59-1.49-.89-2.23c-.21-.52-.4-1.06-.71-1.52-.45-.66-.95-1.16-1.6-1.63-1.01-.73-2.39-1.16-3.64-1.08-1.72,.11-3.07,.96-4.03,2.38s-1.26,3.52-.62,5.19c.37,.97,1.36,1.75,2.46,1.4,.95-.31,1.8-1.41,1.4-2.46-.06-.17-.29-.61-.23-.81l.03,.21c0-.08-.01-.16-.01-.24,0-.09-.04-.31,.01-.39-.01,.02-.11,.48,0,.08,.03-.12,.06-.24,.09-.36,.11-.34,.13-.06-.02,0,.03-.01,.18-.34,.2-.38,.06-.1,.13-.19,.19-.29,.15-.23-.33,.33-.02,.04,.06-.06,.12-.13,.18-.19l.09-.09c.13-.11,.13-.11,0,0l-.1,.08c.07-.05,.13-.09,.2-.13,.25-.18-.1,.05-.17,.05,.09,0,.23-.08,.32-.1l.11-.03c.21-.04,.15-.03-.19,.02,.15,.03,.37,0,.53-.01,.27,0,.19,.14-.12-.03,.05,.03,.18,.03,.24,.05,.1,.02,.49,.21,.58,.18-.14,.05-.37-.18-.14-.05,.13,.07,.26,.14,.38,.21,.04,.02,.24,.19,.26,.18-.12,.04-.31-.28-.11-.07,.09,.09,.18,.18,.27,.27,.23,.21-.13-.08-.07-.11,.04-.02,.32,.53,.34,.56,.07,.13,.1,.36-.06-.16,.02,.07,.06,.14,.08,.21,.22,.56,.45,1.12,.67,1.68,.17,.43,.34,.86,.51,1.29,.09,.22,.16,.45,.25,.68,.15,.38,.04-.42,0-.02v.13c-.02,.22,0,.17,.02-.16-.02,0-.04,.26-.07,.24-.08-.06,.25-.41,.02-.08s.05-.05,.06-.05c.03,.02-.19,.17-.18,.18,0,.01,.38-.28-.02-.01-.07,.05-.31,.14,.06-.02-.32,.13-.65,.26-.98,.39-.53,.21-1.05,.43-1.59,.62-.35,.12,.12-.05,.15,0,0,0-.38,0-.38,0,.02-.02,.51,.09,.16,0-.39-.09,.32,.22,.01,.02-.39-.25,0,.02,0,.03l-.09-.09c-.14-.16-.12-.12,.06,.11,0,0-.15-.24-.14-.22-.2-.31,.11,.29-.05-.11-.22-.54-.44-1.08-.66-1.62-.23-.57-.46-1.14-.69-1.7-.39-.97-1.35-1.76-2.46-1.4-.93,.3-1.82,1.42-1.4,2.46Z"/>
        <path class="cls-6" d="M404.31,149.67c3.06-.38,6.21-.99,8.74-1.67l1.17-.31c.02,6.3-.34,12.61-.71,18.9-.31,5.29-1.03,17.43-1.03,29.77,0,8.72,.56,15.9,1.33,22.15-1.11,0-1.73,0-1.73,0-5.04,0-23.11,.44-27.11,.44,0,0-1.1,0-2.68,0,.79-6.36,1.38-13.67,1.38-22.59,0-12.34-.72-24.48-1.03-29.77-.38-6.51-.75-13.05-.7-19.57,4.42,2.18,11.76,3.05,16.78,3.04,1.7,0,3.63-.15,5.59-.39Z"/>
        <path class="cls-4" d="M412.51,146.08c-9.23,2.43-19.73,3.09-28.8-.43-1.01-.39-2.19,.43-2.46,1.4-.31,1.13,.39,2.07,1.4,2.46,4.76,1.85,10.13,2.47,15.21,2.55s10.64-.79,15.72-2.12c2.49-.65,1.43-4.51-1.06-3.86h0Z"/>
        <path class="cls-4" d="M345.81,172.14c1.19-3.99,2.26-8.02,3.58-11.97,.69-2.06,1.33-4.23,2.35-6.16s2.15-3.13,4.13-3.9c3.57-1.4,7.06-2.97,10.67-4.29,3.83-1.41,7.71-2.77,11.36-4.61,2.3-1.16,.28-4.61-2.02-3.45-5.82,2.94-12.18,4.64-18.16,7.22-1.36,.59-2.73,1.17-4.1,1.75-1.69,.73-2.92,1.77-4.03,3.23-2.22,2.93-3.28,6.68-4.4,10.14-1.18,3.63-2.16,7.31-3.25,10.97-.74,2.47,3.12,3.53,3.86,1.06h0Z"/>
        <path class="cls-4" d="M345.87,187.54c-3.33-7.39-6.39-14.89-9.44-22.4-.5-1.22-1.69-1.85-2.94-1.2-6.04,3.17-12.48,6.36-19.17,7.86-1.03,.23-1.71,1.47-1.4,2.46,1.94,6.2,3.79,12.42,6,18.53,1.93,5.34,3.96,10.98,7.02,15.8,2.74,4.33,6.82,7.45,12.12,7.47s10.3-2.75,14.08-6.59c3.47-3.53,6.67-7.35,9.68-11.27,.66-.86,.13-2.24-.72-2.74-1.03-.6-2.08-.14-2.74,.72l-.51,.67c-.09,.11-.17,.22-.26,.33-.28,.36,.25-.31-.04,.04-.64,.79-1.28,1.58-1.93,2.36-1.53,1.83-3.1,3.64-4.72,5.39-3.12,3.36-6.37,6.33-11.11,6.99s-8.04-1.64-10.41-5.38c-2.71-4.28-4.55-9.23-6.29-13.96-2.35-6.39-4.29-12.92-6.32-19.42l-1.4,2.46c3.49-.78,6.84-2.13,10.12-3.52s6.74-3.03,10.01-4.74l-2.94-1.2c3.18,7.83,6.37,15.65,9.84,23.36,.44,.98,1.87,1.22,2.74,.72,1.01-.59,1.16-1.75,.72-2.74h0Z"/>
        <path class="cls-4" d="M353,149.06c1.09,11.53,2.62,23.06,4.65,34.47,1.03,5.82,2.71,11.57,3.32,17.45,.44,4.26,.02,8.31-.45,12.54-.73,6.63-1.54,13.26-2.44,19.87-.14,1.07,.26,2.15,1.4,2.46,.93,.26,2.31-.32,2.46-1.4,.83-6.18,1.61-12.37,2.31-18.56,.45-3.92,1.09-7.91,.94-11.87-.26-6.41-1.99-12.57-3.18-18.84-1.09-5.74-1.97-11.51-2.78-17.3-.87-6.26-1.63-12.53-2.23-18.82-.1-1.08-.85-2-2-2-1,0-2.1,.92-2,2h0Z"/>
        <path class="cls-4" d="M419.46,141.79c3.31,1.53,6.75,2.78,10.17,4.03s6.53,2.62,9.79,3.95c1.59,.64,2.88,1.15,3.96,2.55,1.22,1.59,1.88,3.49,2.55,5.36,1.27,3.52,2.32,7.11,3.35,10.7,1.22,4.25,2.51,8.46,4.08,12.59,.38,1.01,1.35,1.7,2.46,1.4,.97-.27,1.78-1.45,1.4-2.46-2.82-7.42-4.57-15.17-7.2-22.65-1.31-3.72-2.83-8.21-6.61-10.13-1.55-.79-3.23-1.39-4.82-2.09s-3.34-1.38-5.03-2.02c-4.04-1.52-8.16-2.87-12.07-4.69-.98-.45-2.15-.28-2.74,.72-.51,.86-.27,2.28,.72,2.74h0Z"/>
        <path class="cls-4" d="M415.33,137.13c2,2.24,3.94,4.54,5.79,6.92,.86,1.1,1.69,2.23,2.51,3.35,.44,.6,.87,1.2,1.3,1.81,.4,.56,1.1,1.27,1.2,1.95v-1.06c-.18,.8-1.18,1.68-1.71,2.28-.72,.82-1.49,1.6-2.28,2.36s-.74,2.07,0,2.83c.98,1,1.99,1.99,2.86,3.09,.57,.73,1.16,1.53,1.14,2.48-.04,1.99-.78,4.09-1.41,5.95-2.18,6.42-4.36,12.84-6.54,19.27-.83,2.44,3.03,3.49,3.86,1.06,2.34-6.89,4.92-13.74,7.02-20.7,.62-2.05,1.37-4.64,.98-6.79-.52-2.89-3.14-5.18-5.09-7.18v2.83c1.66-1.58,3.55-3.4,4.66-5.43,1.32-2.42-1.08-4.74-2.42-6.57-2.84-3.9-5.84-7.66-9.05-11.26-1.72-1.92-4.54,.91-2.83,2.83h0Z"/>
        <path class="cls-4" d="M378.74,134.3c-3.21,3.59-6.22,7.36-9.05,11.26-1.29,1.77-3.66,4.06-2.5,6.42,1.03,2.09,3.06,4,4.74,5.58v-2.83c-1.95,2-4.57,4.29-5.09,7.18-.38,2.14,.36,4.74,.98,6.79,2.12,6.96,4.68,13.81,7.02,20.7,.82,2.42,4.69,1.38,3.86-1.06-2.18-6.42-4.36-12.84-6.54-19.27-.63-1.86-1.37-3.96-1.41-5.95-.02-.91,.52-1.67,1.06-2.37,.88-1.15,1.94-2.16,2.95-3.19,.74-.76,.79-2.08,0-2.83s-1.56-1.53-2.28-2.36c-.53-.6-1.53-1.48-1.71-2.28v1.06c.1-.65,.69-1.24,1.07-1.77,.43-.61,.87-1.21,1.31-1.81,.87-1.19,1.74-2.37,2.64-3.53,1.84-2.38,3.78-4.67,5.79-6.92,1.71-1.91-1.11-4.75-2.83-2.83h0Z"/>
        <path class="cls-4" d="M384.97,220.95c9.04,0,18.07-.44,27.11-.44,2.57,0,2.58-4,0-4-9.04,0-18.07,.44-27.11,.44-2.57,0-2.58,4,0,4h0Z"/>
        <path class="cls-4" d="M382.05,231.8c1.46-5.23,2.04-10.75,2.62-16.13,.68-6.33,.99-12.69,1-19.05,.02-12.34-.8-24.63-1.41-36.94-.41-8.23-.55-16.49,.36-24.7,.12-1.08-1-2-2-2-1.18,0-1.88,.92-2,2-1.44,12.96-.23,25.98,.42,38.94,.65,13.01,1.07,26.1-.12,39.09-.54,5.91-1.13,12-2.74,17.72-.7,2.48,3.16,3.54,3.86,1.06h0Z"/>
        <path class="cls-4" d="M438.16,233.62c-.81-6.06-1.58-12.13-2.28-18.21-.47-4.06-1.11-8.16-.87-12.25,.36-6.08,2.08-11.95,3.18-17.92s1.95-11.62,2.75-17.45c.85-6.23,1.62-12.47,2.21-18.73,.1-1.08-.99-2-2-2-1.17,0-1.9,.92-2,2-1.08,11.41-2.59,22.82-4.63,34.1-1.07,5.95-2.71,11.8-3.33,17.82-.44,4.27,0,8.33,.48,12.58,.76,6.7,1.6,13.39,2.49,20.07,.14,1.07,.82,2,2,2,.97,0,2.14-.92,2-2h0Z"/>
        <path class="cls-4" d="M411.52,134.98c1.45,12.96,.24,25.98-.41,38.94s-1.08,26.36,.15,39.48c.57,6.05,1.15,12.34,2.79,18.21,.69,2.48,4.55,1.42,3.86-1.06-1.41-5.06-1.96-10.41-2.49-15.63-.65-6.33-.93-12.69-.92-19.05,.02-12.09,.81-24.13,1.41-36.2,.4-8.23,.55-16.49-.37-24.7-.12-1.07-.83-2-2-2-.99,0-2.12,.92-2,2h0Z"/>
        <g id="book">
          <path class="cls-2" d="M393.51,184.25c-.74,.71-1.43,1.45-1.99,2.19,.33,.44,2.73,2.64,3.41,3.15l.33,.25c1.93-2.74,4.47-4.39,7.5-5.6,4.5-1.8,9.3-2.69,14.11-2.53,4.77,.16,10.03,1.66,13.59,5.05,2.91-3.33,8.33-5.92,12.52-6.96s8.43-1.07,12.66-.67c2.76,.26,5.26,1.05,7.31,2.08,.06-.06,.1-.09,.1-.09,.74-.7,2.22-2.19,3.48-3.52-4.56-3.44-7.11-3.96-12.48-4.48-4.09-.4-8.73-.53-12.73,.47s-9.12,2.67-11.96,5.82c-3.2-2.25-7.67-3.53-12.48-3.69-4.81-.16-9.61,.73-14.11,2.53-1.98,.79-4.1,1.8-5.8,3.09-1.08,.82-2.33,1.84-3.46,2.93Z"/>
          <path class="cls-5" d="M451.37,198.48c3.09-2.75,12.84-11.91,15.46-14.53-2.15-2.22-6.25-4.38-11.18-4.84-4.23-.39-8.53-.36-12.66,.67s-9.61,3.63-12.52,6.96c-3.55-3.39-8.82-4.89-13.59-5.05-4.81-.16-9.61,.73-14.11,2.53-3.64,1.46-6.59,3.55-8.61,7.42,2.79,2.44,13.15,10.4,16.06,12.71l41.15-5.89Z"/>
          <path class="cls-2" d="M437.99,190.96c-.19-.15-.38-.3-.57-.45-2.45-1.89-4.23-2.19-6.75-.78,0,0-.66,.57-1.35,1.17-1.03-1.09-1.9-2-2.28-2.32-1.17-1.01-2.81-1.37-4.04-.91-1.59,.59-2.26,1.46-2.26,2.8,0,0-.06,.48-.15,1.13-.84-.89-1.6-1.66-2.18-2.18-.49-.44-2.88-1.62-4.48-.42-1.4,1.06-1.62,2.47-.81,3.71,.09,.14,.16,.3,.23,.44l-.36-.19c-2.75-1.44-4.86,.8-5.13,1.85-.2,.79-.21,2.22,.41,3.4,1.03,1.99,5.54,7,7.97,9.57,5.58,3.94,14.47,1.2,21.6-.46,.75-.17,2.1-.69,2.82-1.21,2.67-1.85,4.04-4.12,6.21-6.53,.75-.83,1.93-1.97,2.44-2.96,.71-1.38,1.29-2.89,.9-4.4-.2-.77-.58-1.54-1.25-1.98-1.06-.7-2.48-.37-3.65,.11-1.75,.72-3.4,1.71-4.84,2.93-.77-.84-1.62-1.61-2.5-2.33Z"/>
          <path class="cls-4" d="M439.67,204.38c-1.44,.97-3.22,1.22-4.88,1.62-2.08,.5-4.16,1-6.26,1.36-3.56,.61-7.6,.93-10.82-1.01-2.21-1.33-4.22,2.13-2.02,3.45,3.97,2.39,8.72,2.22,13.14,1.54,2.3-.36,4.58-.89,6.84-1.44,2.05-.5,4.23-.86,6.02-2.07,2.12-1.43,.12-4.9-2.02-3.45h0Z"/>
          <path class="cls-4" d="M443.27,193.54c-1.63-2.16-3.7-4.19-6.04-5.59-1.11-.66-2.37-1.1-3.67-1.11-1.39,0-2.7,.5-3.9,1.15-.92,.5-1.29,1.85-.72,2.74s1.75,1.26,2.74,.72c.11-.06,.22-.12,.34-.18,.04-.02,.49-.24,.25-.13-.2,.09,.12-.05,.16-.06,.1-.04,.21-.07,.31-.1s.63-.08,.68-.16c-.04,.07-.4,.03-.09,.03,.1,0,.2,0,.29,0,.07,0,.49,.01,.17,0-.28-.01,.03,0,.1,.02,.2,.04,.39,.1,.58,.17s.27,.13,.04,0c.1,.05,.2,.1,.3,.15,.24,.12,.47,.26,.69,.41s.43,.3,.64,.45c.28,.19-.18-.15,.06,.05,.12,.1,.24,.19,.37,.29,.41,.33,.81,.68,1.21,1.03s.77,.73,1.13,1.11c.17,.18,.34,.37,.5,.55,.1,.12,.2,.24,.3,.36,.22,.25-.27-.36,.09,.11,.63,.83,1.76,1.35,2.74,.72,.82-.53,1.39-1.84,.72-2.74h0Z"/>
          <path class="cls-4" d="M436.02,195.1c-1.71-1.61-3.23-3.43-4.84-5.13-.79-.85-1.58-1.71-2.42-2.51-1.51-1.46-3.54-2.22-5.64-1.87-2.46,.41-4.32,2.38-4.37,4.89-.02,1.08,.94,2,2,2s1.98-.92,2-2c0-.11,0-.23,.02-.34-.04,.26-.04,.29,.01,.06,.07-.21,.06-.2-.05,.05,.04-.09,.09-.18,.15-.26-.21,.4,.07-.06,.21-.17-.35,.28,.27-.13,.36-.17,.21-.1,.24-.11,.1-.04,.12-.04,.24-.08,.36-.11,.24-.05,.25-.05,.04-.01,.13,0,.27,0,.4,0,.24,.02,.27,.02,.08,0,.14,.03,.27,.06,.4,.1,.23,.09,.27,.09,.12,.02l.19,.09c.5,.26,.7,.47,1.16,.93s.9,.93,1.34,1.4c1.85,1.95,3.6,4.05,5.56,5.9,.79,.74,2.05,.78,2.83,0s.79-2.09,0-2.83h0Z"/>
          <path class="cls-4" d="M411.63,202.95c-5.34-4.23-10.91-8.24-16.06-12.71l.31,2.42c3.04-5.67,9.46-7.84,15.5-8.69s13.03-.12,17.66,4.19c.76,.7,2.08,.83,2.83,0,3.91-4.36,10.26-6.7,15.99-7.16s13.1-.11,17.55,4.37v-2.83c-5,4.99-10.19,9.83-15.46,14.53-1.92,1.72,.91,4.54,2.83,2.83,5.27-4.7,10.46-9.54,15.46-14.53,.77-.76,.76-2.06,0-2.83-5.21-5.24-13.36-6.11-20.37-5.54s-14.19,3.17-18.81,8.33h2.83c-5.63-5.23-13.74-6.3-21.09-5.28s-14.73,3.85-18.35,10.59c-.4,.74-.37,1.83,.31,2.42,5.15,4.48,10.72,8.48,16.06,12.71,.85,.67,2,.83,2.83,0,.7-.7,.85-2.15,0-2.83h0Z"/>
          <path class="cls-4" d="M395.94,187.85c.36,.27-.35-.31-.47-.42-.36-.32-.72-.64-1.07-.97-.5-.46-1.03-.92-1.47-1.45v2.83c4.16-5.3,10.33-8.33,16.84-9.6,6.16-1.2,13.26-.77,18.56,2.87,.7,.48,1.85,.3,2.42-.31,2.04-2.19,4.86-3.42,7.66-4.34,3.24-1.06,6.48-1.66,9.89-1.66s6.62,.19,9.8,.85c2.8,.59,5.12,1.95,7.39,3.65l-.4-3.14c-1.14,1.2-2.29,2.38-3.48,3.52-1.86,1.78,.97,4.61,2.83,2.83,1.19-1.14,2.35-2.32,3.48-3.52,.97-1.02,.63-2.37-.4-3.14-2.62-1.96-5.43-3.49-8.66-4.12-3.58-.7-7.36-.98-11-.93s-7.33,.74-10.86,1.92c-3.32,1.11-6.65,2.65-9.07,5.25l2.42-.31c-6.07-4.17-14.15-4.63-21.19-3.36s-14.45,4.82-19.06,10.71c-.72,.92-.76,1.9,0,2.83,1.06,1.3,2.48,2.44,3.81,3.46,.86,.66,2.24,.13,2.74-.72,.6-1.03,.14-2.08-.72-2.74h0Z"/>
          <path class="cls-4" d="M414.01,191.24c-2.04-1-4.3-.98-6.14,.43-1.45,1.11-2.2,2.63-2.11,4.48s.82,3.29,1.88,4.71,2.21,2.79,3.38,4.13c1.24,1.42,2.51,2.82,3.81,4.19,.74,.79,2.08,.75,2.83,0s.74-2.04,0-2.83c-1.2-1.27-2.38-2.56-3.53-3.87-.65-.73-1.28-1.48-1.91-2.23-.29-.35-.57-.7-.85-1.05-.27-.33,.15,.2-.12-.16-.12-.15-.23-.31-.34-.46-.3-.41-.7-.95-.88-1.34-.24-.51-.26-.88-.26-1.31,0-.09,.04-.68-.02-.25,0-.07,.15-.65,.03-.27-.11,.36,.08-.1,.12-.17,.15-.34-.26,.24,.03-.04,.15-.15,.29-.3,.45-.43-.28,.22,.03,.02,.15-.07,.33-.23-.2,.01,.17-.09,.12-.04,.23-.07,.35-.1-.22,.02-.21,.02,.04,0,.45,0,.48-.02,.91,.19,.97,.47,2.16,.26,2.74-.72,.51-.88,.26-2.26-.72-2.74h0Z"/>
          <path class="cls-4" d="M428.44,197.24c-1.6-1.74-3.17-3.51-4.76-5.26-.79-.86-1.58-1.72-2.4-2.56-.65-.67-1.32-1.41-2.11-1.92-2.57-1.63-6.17-1.33-7.84,1.41-.84,1.37-.85,3.04-.12,4.45s1.79,2.53,2.77,3.74c1.98,2.43,4.02,4.79,6.25,6.99,1.83,1.81,4.67-1.02,2.83-2.83-1.74-1.71-3.37-3.51-4.93-5.39-.79-.95-1.57-1.92-2.36-2.88-.41-.5-.61-.79-.91-1.31-.05-.09-.1-.17-.15-.26-.16-.28,.07,.25-.01-.04-.02-.06-.12-.43-.05-.18,.05,.2,.06-.26-.01,.09,.02-.11,.05-.24,.1-.35-.13,.33,0,.01,.05-.03-.18,.18,.32-.33,.39-.38-.1,.08-.1,.05,.12-.05-.09,.04-.3,.08,.06,0,.08-.02,.37-.04,.03-.02,.16-.01,.31,0,.47,0,.32,0-.28-.07,.02,0,.09,.02,.18,.04,.27,.06,.23,.06,.44,.13,.66,.21-.43-.16,.07,.05,.19,.11,.06,.04,.13,.09,.2,.12,.3,.15-.32-.31-.15-.12,.52,.62,1.2,1.16,1.77,1.75,.71,.74,1.41,1.5,2.1,2.26,1.57,1.72,3.11,3.47,4.69,5.18,.73,.79,2.09,.74,2.83,0,.79-.79,.73-2.03,0-2.83h0Z"/>
          <path class="cls-4" d="M442.67,194.12c.92-.65,1.89-1.22,2.91-1.69,.65-.3,1.65-.74,2.24-.56,.11,.03,.18,.11,.31,.36,.09,.18,.21,.54,.24,.84,.09,.92-.4,1.95-.85,2.73-.42,.73-1.05,1.33-1.65,1.96-.69,.74-1.34,1.51-1.98,2.29-1.28,1.56-2.55,3.17-4.21,4.34-.88,.62-1.3,1.75-.72,2.74,.51,.87,1.85,1.35,2.74,.72,2.28-1.61,3.92-3.68,5.7-5.79,.77-.91,1.62-1.76,2.4-2.66,.99-1.15,1.69-2.4,2.18-3.84,.94-2.79,.06-6.66-3.12-7.53-2.8-.77-6,1.1-8.21,2.65-.88,.62-1.29,1.75-.72,2.74,.51,.87,1.85,1.34,2.74,.72h0Z"/>
        </g>
        <g id="face">
          <path class="cls-4" d="M393.91,114.97c1.73,.91,3.58,1.31,5.54,1.29,2.07-.01,4.07-.46,5.72-1.74,.38-.29,.59-.96,.59-1.41,0-.49-.22-1.08-.59-1.41s-.88-.61-1.41-.59c-.57,.03-.97,.24-1.41,.59,.7-.54,.01-.04-.21,.08-.17,.09-.61,.23,.04,0-.15,.05-.29,.11-.44,.16-.41,.13-.84,.17-1.24,.28,.2-.06,.36-.04,.05-.01-.12,.01-.24,.02-.37,.03-.29,.02-.59,.03-.88,.02-.26,0-.53-.01-.79-.03-.12,0-.24-.02-.36-.03-.07,0-.14-.01-.21-.02-.16-.02-.09-.01,.2,.03-.1-.08-.46-.08-.6-.11-.19-.04-.38-.09-.57-.15-.16-.05-.32-.11-.48-.16-.44-.15,.44,.21,.04,.02-.2-.09-.4-.19-.59-.29-.92-.49-2.22-.27-2.74,.72-.49,.92-.27,2.21,.72,2.74h0Z"/>
          <path class="cls-4" d="M398.13,102.31c.23,.87,.45,1.75,.58,2.63l-.07-.53c.02,.12,.02,.24,0,.36l.07-.53c0,.06-.02,.11-.04,.16l.2-.48s-.03,.07-.06,.11l.31-.4s-.05,.06-.09,.08l.4-.31c-.07,.04-.14,.08-.21,.11l.48-.2c-.11,.05-.23,.08-.35,.1l.53-.07c-.11,.01-.22,.01-.33,0l.53,.07c-.12-.02-.25-.05-.37-.06-.27-.08-.53-.1-.8-.04-.27,.01-.51,.09-.74,.24-.41,.24-.81,.72-.92,1.2-.12,.51-.09,1.09,.2,1.54l.31,.4c.25,.25,.54,.42,.88,.51,.34,.05,.67,.13,1.02,.15,.56,.02,1.08-.15,1.57-.39,.63-.29,1.13-.9,1.3-1.57,.14-.58,.09-1.04-.01-1.62-.14-.85-.34-1.69-.56-2.52-.13-.48-.49-.94-.92-1.2s-1.06-.36-1.54-.2-.95,.46-1.2,.92-.34,1.01-.2,1.54h0Z"/>
          <path class="cls-4" d="M384.84,94.68c-.44,1.43-.15,4.72,2.55,5,3.58-.02,3.77-4,2.56-5.86-.99-1.53-3.89-2.17-5.12,.87Z"/>
          <path class="cls-4" d="M413.49,94.68c.44,1.43,.15,4.72-2.55,5-3.58-.02-3.77-4-2.56-5.86,.99-1.53,3.89-2.17,5.12,.87Z"/>
        </g>
      </g>
    </g>
  </g>
</svg>