<?xml version="1.0" encoding="UTF-8"?>
<svg id="_レイヤー_2" data-name="レイヤー 2" xmlns="http://www.w3.org/2000/svg" xmlns:xlink="http://www.w3.org/1999/xlink" viewBox="0 0 765.81 515.89">
  <defs>
    <style>
      .cls-1, .cls-2, .cls-3 {
        fill: #fff;
      }

      .cls-4 {
        fill: #003c96;
      }

      .cls-5 {
        fill: #f4d159;
      }

      .cls-6 {
        fill: #898989;
      }

      .cls-7 {
        fill: #ff0800;
        stroke: #ff0800;
      }

      .cls-7, .cls-8, .cls-9, .cls-2, .cls-10, .cls-3 {
        stroke-miterlimit: 10;
      }

      .cls-7, .cls-8, .cls-9, .cls-10, .cls-3 {
        stroke-width: 2.02px;
      }

      .cls-11 {
        clip-path: url(#clippath);
      }

      .cls-8 {
        fill: #efea3a;
        stroke: #efea3a;
      }

      .cls-12 {
        fill: none;
      }

      .cls-13 {
        fill: #b1b1b1;
      }

      .cls-9 {
        fill: #360eef;
        stroke: #360eef;
      }

      .cls-14 {
        fill: #010326;
      }

      .cls-2 {
        stroke: #000090;
      }

      .cls-10 {
        stroke: #000;
      }

      .cls-3 {
        stroke: #5e5e5e;
      }
    </style>
    <clipPath id="clippath">
      <rect class="cls-12" x="425.86" y="28.99" width="301.43" height="482.01"/>
    </clipPath>
  </defs>
  <g id="_ホワイトボード" data-name="ホワイトボード">
    <g>
      <g id="_繝_繧_繝_繝__5" data-name="_繝ｬ繧､繝､繝ｼ_5">
        <rect class="cls-1" x="40.52" y="14.01" width="684.77" height="447.15"/>
      </g>
      <g id="_繝_繧_繝_繝__6" data-name="_繝ｬ繧､繝､繝ｼ_6">
        <rect class="cls-6" x="31.19" y="439.94" width="703.42" height="32.63"/>
      </g>
      <polygon class="cls-6" points="40.52 0 40.52 6.21 40.52 15.5 40.52 447.79 56.02 447.79 56.02 15.5 709.8 15.5 709.8 446.84 725.29 446.84 725.29 15.5 725.29 5.26 725.29 0 40.52 0"/>
    </g>
    <g>
      <rect class="cls-6" x="745.07" y="213.11" width="20.75" height="302.78"/>
      <rect class="cls-6" y="213.11" width="20.75" height="302.78"/>
    </g>
    <rect class="cls-6" x="721.99" y="232.68" width="38.32" height="26.66"/>
    <rect class="cls-6" x="15.62" y="232.68" width="38.32" height="26.66"/>
    <g>
      <path class="cls-2" d="M100.32,413.39h32.62c5.48,0,9.93,5.68,9.93,12.68v1.36c0,7-4.44,12.68-9.93,12.68h-32.62c-5.48,0-9.93-5.68-9.93-12.68v-1.36c0-7,4.44-12.68,9.93-12.68Z"/>
      <rect class="cls-4" x="88.74" y="411.51" width="55.77" height="10.31"/>
    </g>
    <g>
      <path class="cls-3" d="M351.18,439.29c2.34,0,4.23-2.33,4.23-5.2v-3.47c0-2.87-1.89-5.2-4.23-5.2h-66.75v13.87h66.75Z"/>
      <path class="cls-10" d="M301.03,425.42h-34.96c-2.34,0-4.23,2.33-4.23,5.2v3.47c0,2.87,1.89,5.2,4.23,5.2h34.96v-13.87Z"/>
    </g>
    <g>
      <path class="cls-3" d="M245.24,439.29c2.34,0,4.23-2.33,4.23-5.2v-3.47c0-2.87-1.89-5.2-4.23-5.2h-66.75v13.87h66.75Z"/>
      <path class="cls-7" d="M195.09,425.42h-34.96c-2.34,0-4.23,2.33-4.23,5.2v3.47c0,2.87,1.89,5.2,4.23,5.2h34.96v-13.87Z"/>
    </g>
    <g>
      <path class="cls-3" d="M457.12,439.29c2.34,0,4.23-2.33,4.23-5.2v-3.47c0-2.87-1.89-5.2-4.23-5.2h-66.75v13.87h66.75Z"/>
      <path class="cls-8" d="M406.97,425.42h-34.96c-2.34,0-4.23,2.33-4.23,5.2v3.47c0,2.87,1.89,5.2,4.23,5.2h34.96v-13.87Z"/>
    </g>
    <g>
      <path class="cls-3" d="M563.06,439.29c2.34,0,4.23-2.33,4.23-5.2v-3.47c0-2.87-1.89-5.2-4.23-5.2h-66.75v13.87h66.75Z"/>
      <path class="cls-9" d="M512.92,425.42h-34.96c-2.34,0-4.23,2.33-4.23,5.2v3.47c0,2.87,1.89,5.2,4.23,5.2h34.96v-13.87Z"/>
    </g>
  </g>
  <g id="_レイヤー_4" data-name="レイヤー 4">
    <g class="cls-11">
      <path class="cls-1" d="M499.53,269.87c-.13,.91-.19,1.83-.14,2.76,.1-.92,.09-1.84,.14-2.76Z"/>
      <path class="cls-1" d="M718.59,325c-14.7,5.68-27.9,12.94-41.11,20.21-1.23,.67-2.52,1.37-3.92,1.37-2.18,0-3.99-1.68-5.29-3.44-5.94-8.03-5.89-18.85-8.74-28.42-6.73-22.65-29.58-38.01-35.21-60.96-1.07-4.37-1.5-8.98-3.54-12.99-2.04-4.01-6.35-7.38-10.76-6.48-2.16-2.89-3.09-5-3.25-7.04-.15-2.04,.35-4.06,.76-6.07,1.26-6.15,1.71-12.46,1.32-18.72-.3-4.81-1.25-9.93-4.66-13.33-4.49-4.47-11.6-4.52-17.93-4.27-4.87,.19-10.18,.54-13.8,3.8-4.75,4.28-4.64,11.69-3.64,18,1,6.32,2.44,13.19-.65,18.79-6.87,12.44-23.78,17.49-37.89,22.37-6.75,2.34-13.86,3.93-19.99,7.6-5.33,3.19-9.9,8.46-10.77,14.47-.05,.92-.04,1.84-.14,2.76-.05-.94,0-1.86,.14-2.76,.88-15.6-4.63-31.49-15.16-43.05-1.66-1.82-3.78-3.68-6.24-3.46-2.46,.21-4.19,3.91-2.09,5.21-10.06-6.09-21.44-9.97-33.12-11.31-.09,1.12-.18,2.25-.27,3.37-2.02,1.56-3.93,3.27-5.7,5.11-5.94,14.06,4.12,32.39,19.17,34.93-.94,4.03,2.59,7.71,6.17,9.77,3.59,2.06,7.8,3.62,9.94,7.16s-.1,9.65-4.17,8.92c-6.58,21.95-7.46,45.58-2.54,67.96,1.44,6.54,4.33,13.97,10.8,15.68,6.16,1.63,12.13-2.84,16.82-7.14,10.8-9.91,20.92-20.56,30.27-31.84,16.13,29.11,20.58,65.14,43.71,89.07,19.1,19.77,48.8,23.53,75.92,19.07,6.86-1.13,8.89,.89,14.61-3.64,17.16-13.59,32.32-42.12,29.23-39.33,2.11-2.3-1.29-10.1,.82-12.39,10.29-19.8,20.58-39.38,30.86-58.96Z"/>
      <path class="cls-5" d="M664.28,343.17c-18.22-10.83-38.39-19.9-56.07-31.59-7.14,15.56-14.27,31.11-21.41,46.67-4.4,9.58-8.86,21.74-13.58,33.78-.42,1.08-.85,2.31-.37,3.38,.35,.78,1.12,1.28,1.85,1.74,9.77,6.1,19.54,12.2,29.32,18.31,1.24-5.15,3.12-10.14,5.58-14.82,1.61-5.23,5.38-9.43,5.38-9.43,0,0,3.34-8.49,5.01-8.67,1.5-.16,2.85,.84,4.03,1.79,11.25,9.11,22.49,18.21,33.74,27.31,3.47-7.43,12.3-10.44,18.29-16.04,3.71-3.47,6.3-7.93,8.85-12.32,11.17-19.3,22.35-38.6,33.52-57.9-9.93,4.24-23.34,12.3-36.01,18.4-2.47,1.19-5.01,4.59-7.74,4.81-4.49,.35-6.5-3.11-10.37-5.41Z"/>
      <path class="cls-14" d="M579.12,317.33c10.7-13.09,19.33-27.86,25.46-43.61-12.01,6.82-27.77,6.45-39.45-.92,5.46,14.18,10.32,29.21,13.99,44.54Z"/>
      <path class="cls-1" d="M623.93,76.12c-22.56-17.35-56.38-18.86-79.78-2.67-23.4,16.19-33.84,49.25-22.97,75.55-1.56,1.62-2.81,7.29-1.21,12.12,1.6,4.83,6,8.62,11.01,9.5-9.04-.52-18.65,1.47-25.31,7.61-6.65,6.14-9.27,17.06-4.23,24.58,2.58,3.85,6.69,6.37,9.89,9.72,3.2,3.35,5.5,8.46,3.35,12.57-1.67,3.18-5.36,4.59-8.58,6.2-3.21,1.61-6.57,4.32-6.39,7.91,.13,2.47,1.97,4.53,3.98,5.96,2.01,1.44,4.31,2.49,6.13,4.17,4.8,4.43,4.62,13.1-.35,17.34,5.5,2.48,12.32,.5,16.07-4.19,3.75-4.7,4.17-11.78,1-16.88,6.98,.93,12.57-7.07,11.71-14.07-.85-6.99-5.99-12.65-11.29-17.28,9.93-1.97,18.63-9.31,22.25-18.76,12.96,13.07,32.2,20.46,49.85,15.21,17.64-5.25,32.93-22.93,36.63-40.96,4.55,.36,9.21-1.94,11.7-5.77,2.48-3.83,2.68-9.03,.49-13.03,8.82-25.98-1.38-57.46-23.94-74.81Z"/>
      <path d="M630.59,175.55c-.39,1.43-10.06,35.15-43.16,35.15s-45.3-34.1-45.77-35.55c-.49-1.5-2.1-2.33-3.59-1.85-1.5,.48-2.34,2.08-1.86,3.59,.12,.4,13.01,39.53,51.21,39.53s48.57-38.96,48.67-39.36c.42-1.52-.48-3.09-2-3.51-1.53-.41-3.1,.48-3.51,2Z"/>
      <path d="M533.61,147c1.37,.79,3.12,.32,3.9-1.05,.79-1.37,.32-3.12-1.04-3.91-5.63-3.25-12.47-.46-16.06,3.82-4.33,5.17-5.24,12.72-2.29,18.78,2.88,5.88,9.11,9.74,15.63,9.74,.2,0,.4,0,.59-.01,1.58-.06,2.81-1.38,2.75-2.96-.06-1.58-1.37-2.84-2.96-2.75-4.21,.2-8.92-2.52-10.88-6.53-1.95-4-1.32-9.18,1.53-12.6,2.07-2.47,6.03-4.15,8.81-2.54Z"/>
      <path d="M635.64,168.66c-1.52-.08-2.9,1.18-2.96,2.75-.06,1.58,1.18,2.9,2.75,2.96,.2,0,.39,.01,.59,.01,6.53,0,12.76-3.86,15.63-9.74,2.96-6.06,2.04-13.61-2.29-18.78-3.57-4.28-10.42-7.07-16.05-3.82-1.37,.79-1.83,2.54-1.04,3.91,.79,1.37,2.53,1.83,3.9,1.05,2.77-1.61,6.74,.06,8.81,2.54,2.86,3.42,3.49,8.6,1.53,12.6-1.95,4-6.48,6.65-10.88,6.53Z"/>
      <path d="M570.44,86.43c-1.53-.39-3.09,.52-3.49,2.04-2.31,8.83-.77,18.71,4.12,26.41,4.89,7.71,13.17,13.31,22.14,14.98,.18,.03,.35,.05,.53,.05,1.35,0,2.55-.96,2.81-2.34,.29-1.55-.73-3.04-2.29-3.33-7.44-1.38-14.3-6.03-18.36-12.42-4.06-6.39-5.33-14.58-3.42-21.9,.4-1.53-.52-3.09-2.04-3.49Z"/>
      <path d="M596.1,96.96c-.07-1.58-1.43-2.79-2.99-2.73-1.58,.07-2.8,1.41-2.73,2.98,.68,15.35,10.65,29.69,24.8,35.67,.36,.15,.74,.23,1.11,.23,1.11,0,2.17-.66,2.63-1.75,.61-1.45-.06-3.13-1.52-3.75-11.97-5.06-20.74-17.67-21.31-30.66Z"/>
      <path d="M615.92,101.58c-.24-1.56-1.73-2.62-3.26-2.39-1.56,.24-2.63,1.7-2.39,3.26,2.25,14.65,11.79,28.05,24.92,34.95,.43,.22,.88,.33,1.33,.33,1.03,0,2.02-.55,2.53-1.53,.73-1.4,.2-3.13-1.2-3.86-11.55-6.08-19.95-17.86-21.93-30.76Z"/>
      <path d="M566.49,106.22c-6,15.36-18.12,27.93-33.26,34.48-1.45,.63-2.12,2.31-1.49,3.76,.47,1.08,1.52,1.72,2.62,1.72,.38,0,.76-.08,1.13-.24,16.53-7.15,29.77-20.88,36.32-37.65,.58-1.47-.15-3.13-1.62-3.7-1.46-.57-3.13,.15-3.7,1.62Z"/>
      <path d="M585.37,59.33c-1.68,.01-2.99,1.24-2.99,2.87,0,1.58,1.28,2.85,2.86,2.85h.13c19.05,0,38.17,9.3,49.93,24.28,11.79,15.02,16.27,35.86,11.69,54.39-.38,1.53,.56,3.08,2.09,3.46,.23,.06,.46,.09,.69,.09,1.28,0,2.45-.87,2.77-2.18,4.99-20.2,.1-42.92-12.74-59.3-12.83-16.33-33.67-26.47-54.44-26.47"/>
      <path d="M575.3,59.68c-21.72,2.46-41.43,13.52-52.73,29.57-12.68,18.01-14.28,41.98-3.98,59.64,.53,.91,1.49,1.42,2.47,1.42,.49,0,.98-.12,1.43-.39,1.37-.79,1.83-2.55,1.03-3.91-9.05-15.51-7.52-37.5,3.72-53.46,10.38-14.74,28.58-24.9,48.7-27.18,1.57-.18,2.7-1.59,2.52-3.16-.18-1.57-1.62-2.67-3.16-2.52"/>
      <path d="M506.39,181.06c4.97-4.08,12.28-6.16,21.73-6.18,1.58,0,2.86-1.29,2.85-2.87,0-1.58-1.28-2.85-2.86-2.85h0c-10.8,.03-19.32,2.55-25.34,7.48-7.11,5.83-11.3,17.14-6,25.98,2.2,3.66,5.49,6.08,8.68,8.43,1.4,1.03,2.81,2.06,4.1,3.2,3.36,2.98,5.61,7.81,3.56,10.74-1.22,1.74-3.71,2.58-6.35,3.47l-1.61,.55c-5.67,2.03-8.94,5.64-8.99,9.91-.03,3.36,2.09,6.6,5.81,8.91,.91,.56,1.86,1.06,2.82,1.56,1.43,.74,2.79,1.44,3.84,2.35,2.35,2.04,3.33,5.67,2.34,8.63-1,2.96-3.99,5.24-7.1,5.43-1.58,.1-2.78,1.46-2.68,3.03,.09,1.51,1.35,2.68,2.85,2.68,.06,0,.12,0,.18,0,5.42-.34,10.42-4.16,12.16-9.31,1.74-5.14,.1-11.22-4-14.78-1.57-1.36-3.3-2.25-4.97-3.11-.82-.43-1.65-.85-2.44-1.34-1.51-.93-3.11-2.47-3.1-3.99,.02-2.01,2.81-3.73,5.19-4.58l1.51-.52c3.24-1.09,6.91-2.33,9.21-5.6,4.08-5.81,.85-13.6-4.45-18.3-1.42-1.26-2.96-2.4-4.51-3.53-2.86-2.1-5.55-4.08-7.16-6.76-3.66-6.1-.4-14.41,4.72-18.61Z"/>
      <path d="M539.33,211.04c2.83-1.09,6.03-2.33,8.41-4.67,2.58-2.53,3.8-6.37,3.26-10.29-.53-3.92-2.74-7.3-5.9-9.05-1.39-.77-3.12-.26-3.88,1.12-.76,1.38-.27,3.12,1.12,3.89,1.59,.88,2.71,2.68,3,4.82,.29,2.13-.31,4.17-1.6,5.44-1.54,1.51-3.93,2.44-6.47,3.42-4.15,1.6-8.85,3.42-10.35,8.49-1.71,5.77,2.48,10.83,5.6,14.6,2.4,2.9,4.14,6.69,2.6,8.62-.73,.93-2.24,1.51-3.83,2.13-2.36,.91-5.29,2.05-6.83,4.97-1.63,3.08-.76,6.31-.06,8.9,.23,.83,.46,1.67,.59,2.49,.4,2.52-.63,5.29-2.76,7.41-2.13,2.12-4.91,3.13-7.42,2.73-1.53-.26-3.03,.8-3.28,2.36-.25,1.56,.8,3.03,2.36,3.28,.67,.11,1.34,.16,2.03,.16,3.7,0,7.46-1.6,10.35-4.48,3.42-3.41,5.06-8.03,4.37-12.36-.16-1.01-.43-2.05-.71-3.08-.53-1.96-.98-3.65-.41-4.74,.55-1.03,2.07-1.62,3.84-2.31,2.13-.82,4.55-1.76,6.25-3.91,3.19-4.03,2.19-9.95-2.74-15.9-2.49-3-5.31-6.41-4.46-9.26,.66-2.22,3.05-3.29,6.93-4.78Z"/>
      <path class="cls-13" d="M650.36,335.72c3.64,3.14,17.77,8.93,22.33,10.45,4.56,1.52,10.57,.12,12.31-4.36,.99-2.55,.39-5.4-.21-8.07-5.14-22.58-10.27-45.17-15.41-67.75-1.48-6.52-3.55-13.82-9.46-16.93-4.71-2.47-10.39-1.46-15.69-.98-5.3,.48-11.47-.06-14.6-4.36-1.84-2.53-2.19-5.84-3.61-8.62-1.75-3.42-4.97-5.81-8.11-8.01-1.74-1.22-3.53-2.44-5.58-2.98-2.05-.54-4.44-.26-5.96,1.22-1.52,1.48-1.7,4.31-.03,5.62,1.03,.81,2.44,.89,3.62,1.45,2.61,1.25,3.54,4.48,3.83,7.36,1.42,13.84-5,27.19-11.75,39.36-7.33,13.22-15.25,26.1-23.74,38.6-7.35-20.89-13.34-42.26-17.89-63.93-1.96-8.48-1.28-15.56,1.95-21.25,1.13-1.99,2.41-4.85,.56-6.19-1.46-1.06-3.5,.07-4.78,1.34-4.02,3.99-6.32,9.68-11.02,12.84-5.02,3.37-11.53,3.07-17.51,3.98-10.97,1.68-21.15,8.04-27.46,17.18-4.67,6.77-4.01,18.68,1.88,27.04,1.93,2.73,4.52,5.76,3.58,8.96-1.02,3.47-5.37,4.47-8.97,4.86-6.77,.74-13.72,1.48-20.31-.25-6.59-1.73-12.83-6.49-14.29-13.14-5.54,19.26-7.61,39.52-6.08,59.5,.58,7.63,1.77,15.44,5.65,22.03,3.89,6.59,11.02,11.74,18.66,11.29,5.32-.31,10.15-3.22,14.3-6.56,12.31-9.92,20.47-24.03,27.34-38.27,7.19,15.33,9.93,32.72,7.79,49.52-2.82,22.15-13.71,42.37-25,61.63,4.28,2.23,8.55,4.46,12.83,6.69-.53,25.7,1.42,51.46,5.83,76.79,1.81,.01,122.56,2.73,122.56,2.73,.64-31.79,3.62-63.53,8.93-94.88-18.37,.28-36.71-7.61-49.13-21.14-12.75-6.22-23.74-12.24-34.74-18.26,10.75-30.03,23.17-59.46,37.18-88.11,18.24,6.54,25.82,11.2,40.21,23.59Z"/>
      <path class="cls-13" d="M674.08,411.01c-2.83,3.06-5.44,6.64-5.86,10.79,12.94-9.07,21.37-24.27,22.22-40.05-3.54,2.29-5.86,5.09-8.18,7.88,2.44,3.38,1.84,8.19-.17,11.84-2.01,3.65-5.19,6.48-8.01,9.54Z"/>
      <path d="M499.45,248.37c-.43-.92-.84-1.83-1.21-2.71l-.67-1.62c-3.35-8.09-6.81-16.46-13.76-22.27-3.86-3.22-6.7-2.42-8.06-1.65-2.76,1.56-3.56,5.09-2.02,8.98,1.4,3.58,3.62,6.73,5.81,9.57-3.11,3.69-3.75,9.29-1.18,13.52,.82,1.34,2.57,1.78,3.93,.96,1.35-.82,1.78-2.58,.96-3.93-1.49-2.45-.64-6.27,1.76-7.85,.67-.44,1.12-1.14,1.24-1.94,.13-.79-.09-1.6-.58-2.23-2.54-3.2-5.17-6.52-6.62-10.21-.39-1-.4-1.82-.63-1.86,.18,.02,.79,.23,1.72,1.01,5.87,4.91,8.92,12.28,12.15,20.08l.68,1.63c.39,.94,.84,1.91,1.3,2.9,1.78,3.86,3.63,7.86,2.03,10.22-.53,.79-.64,1.79-.28,2.67,1.22,3.01,.79,8.51,.37,13.82-.24,3.05-.49,6.21-.49,9.28,0,1.58,1.28,2.86,2.86,2.86s2.86-1.28,2.86-2.86c0-2.84,.24-5.89,.47-8.83,.44-5.61,.87-10.95-.3-15.07,2.18-4.74-.3-10.11-2.33-14.5Z"/>
      <path d="M477.25,234.66c1.28,.95,3.06,.68,4-.58,.95-1.26,.69-3.05-.58-4-9.25-6.92-19.49-12.33-30.42-16.08-5.3-1.82-7.75,.18-8.75,1.54-.81,1.1-1.14,2.48-1,3.86-1.17,.1-2.39,.47-3.46,1.37-2.49,2.07-2.55,5.57-1.33,8.03-1.21,.41-2.02,1.12-2.53,1.72-1.4,1.65-1.75,4.08-.92,6.33,.37,1,.92,1.87,1.53,2.64-.89,.72-1.53,1.7-1.78,2.81-.57,2.6,1.07,4.66,1.78,5.54,5.54,6.94,12.43,12.59,20.5,16.81,4.33,7.33,11.68,12.66,20.06,14.6,.06,1.1-.18,2.42-.52,4.25-.35,1.84-.74,3.92-.87,6.42-.08,1.58,1.13,2.92,2.71,3,.05,0,.1,0,.15,0,1.51,0,2.78-1.19,2.85-2.71,.11-2.12,.45-3.91,.78-5.65,.57-2.99,1.1-5.82-.04-8.79-.37-.94-1.2-1.63-2.2-1.79-7.63-1.27-14.66-6.2-18.34-12.87-.28-.5-.7-.91-1.21-1.17-7.77-3.95-14.12-9.07-19.39-15.68-.09-.11-.17-.22-.24-.3,.08,.02,.17,.05,.26,.09,5.52,4.93,11.93,8.76,18.14,12.19,1.29,.71,2.92,.32,3.75-.9s.59-2.88-.55-3.81c-5.34-4.39-11.09-8.34-17.08-11.73-.35-.2-.7-.39-1.07-.57-.81-.75-1.59-1.52-2.35-2.32-.59-.63-1.25-1.35-1.49-2.03-.12-.32-.1-.62-.1-.66,.15-.07,1.1-.16,2.97,.7,2.36,1.08,4.69,2.24,6.98,3.48,4.65,3.06,9.43,6.02,14.3,9.01,1.3,.81,3.02,.43,3.87-.84,.85-1.28,.55-3-.69-3.9-4.63-3.37-9.5-6.45-14.54-9.18-2.33-1.54-4.63-3.09-6.87-4.69-1.2-.85-2.23-1.63-2.7-2.52-.26-.49-.21-1.02-.14-1.12,.01,0,.47-.31,2.53,.38,8.49,2.85,16.6,7.37,23.51,13.1,.28,.23,.56,.47,.84,.71,1.19,1.02,3,.89,4.03-.32,1.03-1.2,.88-3-.31-4.03-.29-.25-.59-.5-.89-.75-6.14-5.11-13.31-9.58-21.41-13.34-1.05-.49-2.04-.95-2.56-1.55-.12-.14-.19-.3-.28-.36,.29-.03,.97-.02,2.23,.41,10.37,3.56,20.08,8.69,28.85,15.25Z"/>
      <path d="M471.47,232.76l-15.18,20.5c-.94,1.27-.67,3.06,.6,4,.51,.38,1.11,.56,1.7,.56,.88,0,1.74-.4,2.3-1.16l15.18-20.5c.94-1.27,.67-3.06-.6-4-1.27-.94-3.05-.67-4,.6Z"/>
      <path d="M476.27,283.53c1.46-.61,2.14-2.28,1.53-3.74-.61-1.46-2.29-2.14-3.74-1.54-4.7,1.96-7.01,4.65-6.88,7.98,.06,1.64,.84,4.06,4.13,6.27,4.69,3.16,9.98,4.02,14.37,4.02,1.23,0,2.4-.07,3.45-.17,5.86-.58,11.38-2.46,16.71-4.27,1.29-.44,2.09-1.73,1.91-3.08-.51-3.87-2.08-7.5-4.56-10.52-1-1.22-2.81-1.39-4.02-.4-1.22,1-1.4,2.8-.4,4.03,1.28,1.56,2.25,3.41,2.82,5.36-4.27,1.43-8.65,2.75-13.03,3.19-5.49,.53-10.49-.49-14.06-2.9-1.1-.73-1.6-1.41-1.61-1.76,0-.11,.06-1.09,3.37-2.47Z"/>
      <path d="M470.02,283.71c-1.53-.35-3.08,.57-3.45,2.11-.83,3.46-.92,7.15-.25,10.65,.26,1.37,1.46,2.32,2.81,2.32,.18,0,.36-.01,.54-.05,1.55-.3,2.57-1.79,2.27-3.34-.52-2.72-.46-5.56,.19-8.24,.37-1.54-.58-3.08-2.11-3.45Z"/>
      <path d="M503.05,290.36l-.99,6.08c-.25,1.56,.8,3.03,2.36,3.28,.15,.03,.31,.04,.46,.04,1.37,0,2.59-1,2.82-2.4l.99-6.08c.25-1.56-.8-3.03-2.36-3.28-1.54-.25-3.03,.8-3.28,2.36Z"/>
      <path d="M505.6,294.26c-.67,2.21-3.4,3.63-5.58,4.44-11.6,4.3-25.97,.68-34.17-8.58-1.04-1.18-2.85-1.29-4.03-.25-1.18,1.05-1.29,2.85-.24,4.04,7.03,7.95,17.5,12.35,27.99,12.35,4.22,0,8.44-.71,12.44-2.19,4.94-1.83,7.99-4.57,9.07-8.15,.46-1.51-.4-3.11-1.91-3.56-1.52-.44-3.11,.41-3.56,1.91Z"/>
      <path d="M463.01,301.41c.14-2.26,.29-4.6,.98-6.61,.64-1.89,1.78-3.34,3.11-3.97,1.43-.67,2.04-2.38,1.36-3.81-.68-1.43-2.38-2.03-3.81-1.36-2.76,1.31-4.91,3.89-6.07,7.29-.94,2.74-1.11,5.59-1.27,8.1l-3.21,51.02c-.21,3.33-.45,7.1,.6,10.78,1.58,5.52,5.74,9.69,9.08,13.04,4.93,4.95,10.77,10.17,18.03,10.17,.42,0,.83-.02,1.26-.05,5.09-.42,9.33-3.47,12.81-6.4,10.5-8.85,19.33-20.01,25.51-32.27,.71-1.41,.15-3.13-1.26-3.84-1.43-.72-3.13-.14-3.84,1.26-5.85,11.58-14.18,22.11-24.09,30.48-2.93,2.47-6.11,4.79-9.6,5.08-5.36,.48-10.46-4.13-14.77-8.45-3.03-3.03-6.46-6.47-7.63-10.57-.78-2.73-.58-5.84-.4-8.85l3.21-51.02Z"/>
      <path d="M506.83,311.31c-3.41,12.21-5.74,24.79-6.91,37.4-.15,1.57,1.01,2.96,2.58,3.11,.09,0,.18,.01,.27,.01,1.46,0,2.71-1.11,2.84-2.59,1.14-12.27,3.4-24.51,6.72-36.39l.22-.8c.94-3.31,1.9-6.74,1.96-10.41,.07-4.89-1.65-9.22-4.73-11.89-1.19-1.03-2.99-.91-4.03,.29-1.04,1.19-.91,3,.29,4.03,1.77,1.54,2.8,4.33,2.75,7.48-.05,2.92-.87,5.85-1.74,8.95l-.23,.81Z"/>
      <path d="M567.33,239.23c.15,.03,.31,.04,.46,.04,1.37,0,2.59-1,2.82-2.4,1.36-8.36,1.62-16.89,.77-25.34-.16-1.57-1.61-2.71-3.13-2.56-1.57,.16-2.72,1.56-2.56,3.13,.79,7.95,.55,15.98-.73,23.85-.25,1.56,.8,3.03,2.36,3.28Z"/>
      <path d="M607.48,208.82c-1.57-.23-3.01,.87-3.23,2.43-1.13,8.02-1.24,16.15-.34,24.18,.16,1.46,1.4,2.54,2.84,2.54,.11,0,.22,0,.32-.02,1.57-.18,2.7-1.59,2.52-3.16-.84-7.55-.73-15.2,.33-22.75,.22-1.56-.87-3.01-2.43-3.23Z"/>
      <path d="M568.94,231.82c1.38-.77,1.88-2.51,1.12-3.89-.76-1.38-2.51-1.89-3.88-1.12-3.15,1.74-7.46,4.13-9.39,8.55-1.5,3.43-1.13,7.12-.62,10.61,4.54,31.04,13.84,61.06,27.64,89.23,.5,1.01,1.51,1.6,2.57,1.6,.43,0,.85-.09,1.26-.29,1.42-.69,2-2.41,1.31-3.83-13.55-27.63-22.67-57.09-27.12-87.54-.41-2.78-.7-5.45,.2-7.5,1.07-2.44,3.76-4.08,6.92-5.83Z"/>
      <path d="M576.87,315.37c-.97,1.25-.74,3.04,.51,4.01,.52,.41,1.14,.6,1.75,.6,.85,0,1.69-.38,2.26-1.1,14.8-19.05,25.94-40.39,33.1-63.43,1.23-3.96,2.53-8.59,2.37-13.34-.18-5.56-2.42-10.42-6.14-13.34-1.23-.97-3.04-.76-4.01,.49-.98,1.24-.76,3.04,.49,4.01,2.35,1.84,3.82,5.21,3.95,9.02,.12,3.86-.98,7.78-2.12,11.46-6.95,22.38-17.77,43.11-32.15,61.61Z"/>
      <path d="M535.5,280.74c10.89,20.97,26.15,40.14,44.13,55.45,.54,.46,1.19,.68,1.85,.68,.81,0,1.61-.34,2.18-1.01,1.02-1.2,.88-3.01-.33-4.03-16.82-14.32-31.19-32.12-41.65-51.62,5.06-3.7,11.33-6.47,16.92-8.71,1.19-.48,1.92-1.69,1.78-2.96-.14-1.27-1.1-2.3-2.37-2.51-5.45-.92-10.85-1.23-16.13-.96,3.21-9.93,7.69-19.38,13.35-28.17,4.03-6.26,7.72-9.25,11.6-9.39,1.58-.06,2.81-1.38,2.75-2.96-.06-1.58-1.32-2.84-2.96-2.75-7.79,.29-12.98,6.99-16.21,12.01-6.71,10.43-11.84,21.76-15.25,33.68-.26,.92-.05,1.91,.57,2.64,.62,.73,1.59,1.1,2.51,.99,2.71-.32,5.38-.46,8.16-.43-3.61,1.85-7.13,3.99-10.2,6.54-1.03,.86-1.33,2.32-.71,3.52Z"/>
      <path d="M634.94,266.9c-.88-10.3-2.39-17.45-3.75-23.09-.98-4.06-2.14-8.34-4.63-12.11-3.55-5.4-9.51-9.04-15.94-9.73-1.57-.16-2.98,.97-3.15,2.54-.17,1.57,.97,2.98,2.54,3.15,4.68,.5,9.19,3.26,11.77,7.19,1.98,3,2.99,6.74,3.85,10.31,1.28,5.3,2.58,11.42,3.43,20.19-4.3,1.79-9.12,3.28-14.66,4.53-1.32,.3-2.26,1.49-2.23,2.85,.03,1.36,1,2.51,2.34,2.75,5.09,.94,9.09,2.62,12.12,5.09-11.35,16.68-25.23,31.35-41.28,43.63-1.25,.96-1.49,2.75-.54,4.01,.56,.73,1.41,1.12,2.27,1.12,.61,0,1.22-.19,1.74-.59,17.2-13.16,31.98-28.98,43.93-47.03,.74-1.12,.61-2.59-.32-3.56-2.05-2.14-4.47-3.89-7.31-5.27,2.9-.94,5.6-1.98,8.15-3.13,1.1-.5,1.77-1.64,1.67-2.85Z"/>
      <path d="M546.97,238.69l-1.84,.44c-13.89,3.32-30.47,7.74-35.43,12.5-5.47,5.25-9.49,12.61-11.63,21.3-.38,1.53,.56,3.08,2.09,3.46,.23,.06,.46,.08,.69,.08,1.28,0,2.45-.87,2.77-2.18,1.88-7.63,5.35-14.04,10.04-18.54,2.97-2.85,14-6.57,32.8-11.06l1.88-.45c1.53-.38,2.47-1.93,2.09-3.46-.37-1.53-1.95-2.47-3.46-2.09Z"/>
      <path d="M504.68,449.19c-.48,1.28,0,2.71,1.16,3.43,11.61,7.23,24.15,13.25,37.27,17.88,2.71,.96,5.55,1.78,8.36,1.78,1.3,0,2.6-.18,3.88-.6,4.01-1.32,6.47-4.59,8.27-6.98l22.41-29.79c.95-1.26,.7-3.05-.57-4-1.27-.95-3.05-.69-4,.57l-22.41,29.79c-1.74,2.31-3.36,4.28-5.49,4.99-2.53,.83-5.74-.16-8.55-1.14-11.98-4.23-23.45-9.64-34.15-16.11,5.86-15.12,13.23-29.85,21.92-43.82,.26-.42,.41-.91,.43-1.4,.65-17.41,.83-35.34,1.01-52.69,0-.54-.15-1.07-.43-1.54-6.73-10.84-12.58-22.38-9.83-33.22,.54-2.12,1.4-4.19,2.31-6.4,1.22-2.97,2.49-6.04,3.02-9.39,1.06-6.74-2.24-14.74-9.58-16.47-1.5-.34-3.08,.59-3.44,2.13-.36,1.54,.59,3.08,2.13,3.44,4.06,.95,5.88,5.94,5.24,10.01-.42,2.68-1.5,5.31-2.65,8.09-.95,2.29-1.92,4.65-2.56,7.17-3.21,12.66,2.87,25.22,10.08,36.93-.17,16.8-.35,34.13-.97,50.94-9.13,14.77-16.82,30.37-22.86,46.38Z"/>
      <path d="M653.88,442.35l-34.92,22.03c-3.24,2.04-7.32,4.2-10.06,2.7-1.58-.86-2.61-2.87-3.7-5.22l-14.76-31.69c-.66-1.43-2.37-2.04-3.8-1.39-1.43,.67-2.05,2.37-1.38,3.8l14.76,31.69c1.18,2.53,2.78,5.99,6.14,7.82,1.58,.87,3.22,1.21,4.83,1.21,4.54,0,8.85-2.72,11.02-4.09l34.92-22.03c1.34-.84,1.74-2.61,.89-3.94-.85-1.34-2.61-1.73-3.94-.89Z"/>
      <path d="M653.12,436.96c-1.44,.64-2.1,2.33-1.45,3.77l2.13,4.78c.47,1.07,1.52,1.7,2.61,1.7,.39,0,.79-.08,1.16-.25,1.44-.64,2.1-2.33,1.45-3.77l-2.13-4.78c-.64-1.45-2.35-2.09-3.77-1.45Z"/>
      <path d="M649.18,275.34c-1.3-.9-3.08-.55-3.97,.75-5.76,8.44-8.08,19.06-6.37,29.13,.39,2.27,.97,4.55,1.56,6.83,1.39,5.37,2.69,10.44,1.14,15.01-.51,1.49,.29,3.12,1.79,3.63,.3,.11,.61,.15,.92,.15,1.19,0,2.3-.75,2.71-1.94,2.11-6.19,.52-12.34-1.01-18.29-.55-2.12-1.1-4.25-1.46-6.36-1.46-8.63,.52-17.72,5.46-24.94,.89-1.31,.55-3.08-.75-3.97Z"/>
      <path d="M666.58,248.51c-2.84-2.57-6.76-2.68-9.35-2.75l-25.75-.7c-1.58-.02-2.9,1.2-2.93,2.78-.04,1.58,1.2,2.89,2.78,2.94l25.75,.7c2.31,.06,4.49,.21,5.67,1.28,1.02,.92,1.48,2.67,1.94,4.7l18.44,81.95c.3,1.33,1.48,2.23,2.78,2.23,.21,0,.42-.02,.63-.07,1.54-.35,2.51-1.88,2.16-3.42l-18.44-81.95c-.52-2.31-1.23-5.47-3.68-7.69Z"/>
      <path d="M668.19,420.7c-1.3,.9-1.63,2.68-.73,3.98,.56,.8,1.45,1.23,2.36,1.23,.56,0,1.13-.16,1.62-.51,16.01-11.06,24.46-29.01,21.55-45.73-.28-1.56-1.79-2.6-3.31-2.32-1.56,.27-2.6,1.75-2.33,3.31,2.53,14.53-4.99,30.25-19.16,40.04Z"/>
      <path d="M650.91,446.38c-.8,28.96-3.15,58.09-6.97,86.58-.21,1.57,.89,3,2.45,3.21,.13,.02,.26,.03,.39,.03,1.41,0,2.64-1.04,2.83-2.48,3.85-28.69,6.21-58.02,7.02-87.18,.05-1.58-1.2-2.89-2.78-2.94-1.42,0-2.89,1.2-2.93,2.78Z"/>
      <path d="M519.62,459h-.02c-1.58,.01-2.85,1.3-2.84,2.88,.23,27.88,1.89,42.47,4.9,68.94l.32,2.84c.16,1.46,1.4,2.54,2.84,2.54,.11,0,.22,0,.33-.02,1.57-.18,2.7-1.6,2.52-3.16l-.32-2.84c-2.99-26.29-4.63-40.77-4.85-68.35-.01-1.57-1.29-2.84-2.86-2.84Z"/>
      <path d="M603.45,268.75c-6.26,5.67-13.31,8.83-19.84,8.91h-.21c-7.35,0-14.14-4.32-16.2-10.33-.52-1.49-2.14-2.29-3.63-1.78-1.49,.51-2.29,2.14-1.78,3.63,2.84,8.26,11.9,14.2,21.62,14.2,.09,0,.18,0,.27,0,10.16-.11,18.45-5.71,23.61-10.38,1.17-1.06,1.26-2.87,.2-4.04-1.06-1.17-2.86-1.27-4.04-.2Z"/>
      <path d="M571.63,394.6c-1.38-.78-3.12-.28-3.9,1.1-.77,1.38-.28,3.12,1.1,3.89l32.99,18.51c.44,.25,.92,.37,1.4,.37,1,0,1.97-.52,2.5-1.46,.77-1.38,.28-3.12-1.09-3.89l-32.99-18.51Z"/>
      <path d="M672.41,406.47c-2.6,2.42-5.3,4.92-6.92,8.42-.92,1.98-1.36,3.99-1.78,5.94-.24,1.1-.47,2.19-.81,3.26-1.37,4.35-4.65,8.12-8.76,10.09-4.11,1.97-9.11,2.17-13.35,.52-1.46-.57-3.13,.16-3.7,1.63-.58,1.47,.15,3.13,1.63,3.7,2.57,1,5.34,1.49,8.12,1.49,3.37,0,6.75-.73,9.78-2.18,5.51-2.64,9.9-7.7,11.74-13.52,.39-1.23,.67-2.49,.95-3.76,.37-1.72,.73-3.35,1.38-4.76,1.15-2.48,3.32-4.5,5.63-6.63,1.04-.97,2.09-1.94,3.06-2.96,3.8-4.01,6.88-10.26,4.09-15.81-.63-1.26-2.1-1.86-3.42-1.44-8.7,2.76-16.69,8.49-23.23,16.66l-31.56-23.69c-1.09-.82-3.38-2.53-6.12-1.8-1.36,.36-2.5,1.27-3.22,2.56-.83,1.48-1.02,3.35-.52,4.99,.73,2.36,2.54,3.98,3.75,5.05,6.9,6.14,14.15,12.07,21.56,17.62,1.26,.96,3.06,.68,4-.57,.95-1.26,.69-3.05-.58-4-7.28-5.46-14.41-11.29-21.19-17.32-1-.89-1.84-1.69-2.08-2.46-.02-.05-.03-.11-.03-.16,.21,.12,.53,.32,.99,.67l33.82,25.39c.61,.46,1.41,.65,2.14,.54,.76-.11,1.44-.53,1.89-1.14,5.39-7.39,11.95-12.8,19.12-15.79-.2,2.39-1.86,4.97-3.57,6.77-.89,.94-1.84,1.82-2.8,2.71Z"/>
      <path d="M619.18,396.44c1.37,.77,3.12,.28,3.89-1.09,.77-1.38,.29-3.12-1.09-3.89-1.56-.88-3.51-1.98-5.85-2.17-3.21-.26-6.07,1.43-7.05,4.1-1.06,2.89,.12,5.89,3.52,8.91,6.89,6.13,14.41,11.6,21.73,16.91l3.33-4.65c-7.17-5.21-14.58-10.59-21.25-16.53-1.83-1.63-2.01-2.52-1.95-2.67,.06-.14,.55-.43,1.22-.37,1.08,.09,2.31,.78,3.5,1.45Z"/>
      <path d="M610.71,404.73c.37,.16,.73,.35,1.1,.54,1.11,.58,2.38,1.24,3.96,1.42,1.53,.17,2.99-.94,3.17-2.51,.18-1.57-.95-2.99-2.51-3.17-.54-.06-1.23-.43-1.98-.81-.48-.25-.96-.5-1.45-.71-2.9-1.26-5.78-.89-7.53,.96-1.46,1.54-1.87,3.96-1.05,6.18,.59,1.57,1.64,2.75,2.58,3.73,5.76,6.01,12.54,10.81,19.1,15.46,.5,.36,1.08,.53,1.65,.53,.9,0,1.78-.42,2.34-1.2,.92-1.29,.61-3.07-.68-3.99-6.34-4.5-12.9-9.14-18.28-14.76-.57-.6-1.15-1.22-1.66-1.91,.12-.05,.61-.03,1.25,.24Z"/>
      <path d="M610.53,415.15c1.27,.93,3.07,.66,4-.62,.93-1.27,.66-3.06-.62-4-1.2-.88-2.84-2.08-4.92-2.46-2.87-.51-5.73,.87-6.75,3.33-.73,1.77-.85,4.6,2.8,8,9.36,8.71,20.61,15.78,32.51,20.45,.34,.14,.7,.2,1.04,.2,1.14,0,2.22-.69,2.66-1.82,.58-1.47-.15-3.13-1.62-3.71-11.24-4.41-21.86-11.09-30.7-19.31-.89-.83-1.21-1.36-1.37-1.5,.11-.03,.26-.04,.41-.01,.79,.14,1.73,.84,2.57,1.45Z"/>
      <path d="M679.14,394.72c1.38,.79,3.12,.31,3.9-1.05l39.74-69.12c.64-1.1,.37-2.44-.51-3.36-.88-.92-2.35-1.09-3.48-.5-15.14,7.93-30.8,16.12-46.4,24.84-.56,.31-1,.81-1.25,1.4l-23.42,56.38c-.61,1.46,.09,3.13,1.55,3.74,.36,.15,.73,.22,1.1,.22,1.12,0,2.18-.66,2.64-1.76l23.04-55.47c12.31-6.86,24.67-13.42,36.88-19.83l-34.84,60.6c-.79,1.37-.31,3.12,1.05,3.9Z"/>
      <path d="M610.13,308.8c-.68-.39-1.51-.47-2.26-.24-.76,.24-1.38,.78-1.73,1.49-13.48,27.98-25.96,56.84-37.09,85.78-.57,1.47,.17,3.13,1.64,3.7,.34,.13,.68,.19,1.03,.19,1.15,0,2.23-.7,2.67-1.83,10.71-27.85,22.68-55.62,35.59-82.59l61.79,35.15c1.37,.78,3.12,.3,3.9-1.07,.78-1.37,.3-3.12-1.07-3.9l-64.46-36.67Z"/>
      <g>
        <path d="M566.99,144.26c-2.43,0-4.39,1.97-4.4,4.39v11c0,2.43,1.96,4.4,4.39,4.4s4.4-1.97,4.4-4.4v-10.99c0-2.43-1.96-4.4-4.39-4.4h0Z"/>
        <path d="M604.96,148.66v10.99c0,2.43,1.96,4.4,4.39,4.4h0c2.43,0,4.39-1.97,4.4-4.39v-11c0-2.43-1.96-4.4-4.39-4.4s-4.4,1.97-4.4,4.4Z"/>
        <path d="M586.47,169.19c-.18,1.28,.52,2.56,1.77,3.06,.35,.14,.7,.21,1.06,.21,1.13,0,2.21-.68,2.65-1.8,.13-.34,.21-.73,.21-1.1,0-1.58-1.28-2.86-2.86-2.86-1.45,0-2.65,1.08-2.84,2.49Z"/>
        <path d="M575.45,178.17c-1.23,.28-2.13,1.33-2.22,2.58-.4,5.43,1.65,12.72,6.33,16.12,2.83,2.06,6.33,3.13,9.83,3.13,2.1,0,4.19-.38,6.13-1.17,6.09-2.47,9.33-8.26,9.91-17.7,.04-.68-.16-1.35-.57-1.89-2-2.66-29.17-1.11-29.41-1.06Zm17.92,15.36c-3.39,1.38-7.48,.87-10.44-1.28-2.23-1.62-3.6-5.28-3.94-8.58,4.88-.14,15.49-.2,20.46-.08-1.01,7.05-3.89,9.06-6.07,9.94Z"/>
        <path d="M602.15,133.99c-1.22,1.01-1.39,2.81-.39,4.03,1.01,1.22,2.81,1.39,4.03,.39,1.29-1.07,3.06-1.62,4.73-1.48,1.67,.13,3.33,.96,4.44,2.22,.56,.64,1.35,.97,2.14,.97,.67,0,1.35-.23,1.89-.72,1.19-1.04,1.3-2.85,.25-4.04-2.1-2.38-5.11-3.89-8.26-4.14-3.19-.24-6.38,.76-8.83,2.77Z"/>
        <path d="M556.05,135.36c-1.04,1.19-.93,2.99,.26,4.03,.55,.48,1.22,.71,1.89,.71,.79,0,1.58-.33,2.15-.97,1.1-1.26,2.76-2.09,4.43-2.22,1.64-.13,3.44,.42,4.73,1.48,1.22,1,3.02,.83,4.03-.39,1-1.22,.83-3.02-.39-4.03-2.45-2.01-5.66-3.01-8.82-2.77-3.16,.25-6.17,1.76-8.27,4.14Z"/>
      </g>
    </g>
  </g>
</svg>