<?xml version="1.0" encoding="UTF-8"?>
<svg id="_レイヤー_2" data-name="レイヤー 2" xmlns="http://www.w3.org/2000/svg" viewBox="0 0 238 314.41">
  <defs>
    <style>
      .cls-1 {
        fill: #fff;
      }

      .cls-2 {
        fill: #645d5c;
      }

      .cls-3 {
        fill: none;
      }

      .cls-4 {
        fill: #b3b3b3;
      }

      .cls-5 {
        fill: #211715;
      }

      .cls-6 {
        fill: #a18d7d;
      }
    </style>
  </defs>
  <g id="layer">
    <g id="woman">
      <path class="cls-6" d="M57.29,117c1.07-8.76,1.72-20.09,1.72-33.84-1-30.04,6.9-51.82,19.36-63.75,7.51-7.19,24.43-16.98,43.44-16.98,11.6,0,17.74,1.22,24.35,3.77l3.73,1.44c3.5,1.9,7,3.8,7,3.8,4.47,2.43,5.67,4.28,9.78,8.24,9.51,9.17,16.11,25.67,17.16,40.45,.3,4.26,1,15.35,.33,23.03,.34,27.27,5.01,42.54,7.43,50.05,1.94,6.03,2.88,10.84,2.93,17.08,.09,10.21-10.92,22.37-24.49,17.14l-92.67,2.93c-15.17,3.46-25.45-7.73-25.36-17.94,.05-6.24,1.41-16.47,3-22.61,.87-3.34,1.65-7.62,2.28-12.81Z"/>
      <path class="cls-1" d="M182.85,86.6c-.12-1.33-.34-2.7-1.01-3.89-.95-1.71-2.84-2.96-4.92-3.27-1.46-.22-2.99,.04-4.3,.68-.08-.05-.31-.21-.42-.28-1.85-.32-5.15-7.9-5.15-7.9-1.88-6.35-4.32-11.34-6.42-15.49-2.21-4.37-7.14-9.12-12.72-9.26,0,0-5.86-.48-11.93-.79-6.07,5.52-17.35,12.63-26.62,17.41,0,0-4.78,1.35-10.39,2.63-7.26,6.85-15.56,12.42-27.28,13.42-1.16-.45-2.45-.61-3.7-.42-2.08,.31-3.97,1.56-4.92,3.27-.67,1.2-.89,2.56-1.01,3.89-.46,5.25,.58,10.6,2.96,15.38,1.16,2.33,2.67,4.56,4.77,6.26,1.61,1.29,3.59,2.24,5.68,2.56,0,0,.69,.11,1.85,.29,1.64,5.81,4.44,12.42,9.4,18.35,4.5,5.38,9.55,9.43,15.06,11.84,.08,1.32,.14,2.43,.17,2.92-.04,2.44-.24,4.91-1.05,6.92-1.94,4.8-21.67,14.78-22.39,15.1,0,0,6.82,33.5,43.26,33.5s43.4-33.5,43.4-33.5c-.72-.32-18.6-10.3-20.54-15.1-1.15-2.83-1.08-6.6-1.06-9.88h-.06s0-.04,0-.07c12.18-5.18,21.99-21.59,23.69-26.22,.26-.78,.78-2.25,1.25-4,.62-.1,.97-.15,.97-.15,2.1-.32,4.07-1.28,5.68-2.56,2.1-1.7,3.61-3.93,4.77-6.26,2.38-4.78,3.41-10.13,2.96-15.38Z"/>
      <path class="cls-1" d="M117.6,233.1c-6.19-16.01-14.62-37.93-20.68-55.1,1.44,.39,2.33,.62,2.33,.62,6.7,1.79,16.13,3.31,23.18,3.33,7.39,.02,17.91-1.15,25.13-4.02l.84-.33c-7.99,26.64-21.23,64.05-24.43,71.98-1.47-3.84-3.71-9.62-6.37-16.49Z"/>
      <path class="cls-4" d="M60.5,311.42c1.46-15.48,2.79-30.49,3.2-37.78,0-3.35-1.46-13.52-3.28-25.3-12.15,15.16-29.24,22.8-44.51,18.1-.25-.08-.5-.16-.75-.25-4.85-.94-8.13-4.73-9.67-7.3-3.76-6.3-3.37-11.27-2.7-17.8,2.26-22.06,6.08-35.3,11.46-53,9.25,.91,21.95,2.91,31.89,4.46v-12.7c2.78-2.09,5.87-3.61,9.29-5.3,5.4-2.69,14.89-7.05,23.04-10.94,3.5-3.22,7.51-6.23,11.3-8.06,3.92,16.89,27.39,76.22,34.19,94.04,4.3-10.67,26.86-74.92,30.22-94.18,2.39,1.15,5.19,2.88,7.99,4.85,6.7,3.08,15.11,6.78,22.01,9.94l13.62,6.01c5.62,1.66,12.15,6.25,15.23,11.64s6,12.83,7.26,18.91c4.69,22.63,11.06,39.75,14.7,64.16,1.1,7.39,.8,15.32-2.17,22.17-1.24,2.85-4.19,5.68-7.09,6.77-3.58,1.35-8.79,1.71-12.27,.13-2.97-1.35-5.83-2.92-8.54-4.69l1.06,4.37c.67,2.77,1.43,7.16,2.19,12.34"/>
      <path class="cls-1" d="M181.09,259.53c3.34,4.35,7.89,5.67,13.36,5.24,3.87-.31,5.77-2.3,8.23-5.31,1.85-2.25,3.01-4.41,3.61-7.26,.77-3.68-.34-7.79-1.51-11.36-2.5-7.62-3.65-12.85-8.61-19.15-4.51-5.73-11.8-7.74-19.12-8.07-1.01,0-3.08-.03-3.08-.03-3.56-.04-6.42,.79-8.03,3.45-1.61,2.66-1.14,5.72,.86,8.1-3.36-.14-5.71,1.35-6.21,4.33-.5,2.97,.65,6.34,3.29,7.24-1.94,.58-3.28,3.33-3.11,5.27,.17,1.94,1.52,5.25,3.81,5.74-2.38,.6-2.72,4.37-1.31,6.81,1.41,2.44,4.48,3.17,7.27,3.53s7.84,.43,9.79,1.32l.75,.16Z"/>
      <path class="cls-2" d="M208.18,312.01c-.76-5.18-1.52-9.57-2.19-12.34l-1.06-4.37c-4.24-2.76-8.13-6.01-11.56-9.71-3.01-3.24-5.84-6.7-8.14-10.48-1.33-2.18-1.99-2.8-.37-4.67,1.83-2.12,5.17-3.64,7.17-5.58-4.28-.1-7.9-1.53-10.7-5-.54-.26-.99-.47-.99-.47-1.19-.55-3.54-.79-5.83-.97l-.29,1.35c-2.16,9.95-4.4,31.41-6.03,52.13l39.99,.13Z"/>
      <path class="cls-1" d="M57.47,140.71c.52-2.02-.14-3.97-1.68-5.36-.92-.83-2.23-.72-3.14-.53,.31-.89,.4-1.78,.26-2.64,0,0,0,0,0,0,1.14-1.81,1.54-3.3,1.26-4.71-.33-1.74-1.19-3.11-2.71-4.02-4.33-2.59-8.45-3.16-13.48-3.64,0,0-1.35,.31-2.7,1.24-.2-1.83-1.38-3.52-3.15-4.08-2.13-.67-4.73,.45-6.43,1.9-1.01,.86-1.79,1.96-2.56,3.05-1.88,2.65-3.77,5.31-5.65,7.96-3.37,4.74-6.9,10.15-5.98,15.9,.63,3.9,3.23,8.91,4.59,12.62,2.29,6.26,5.81,11.25,6.05,18.24l25.38,3.4c.37-2.14,.26-2.4,1.68-4,1.42-1.6,2.53-3.98,3.83-5.68,2.12-2.76,2.68-6.09,1.63-9.41-1.02-3.25-2.97-5.54-2.79-8.94,.11-2.08,1.19-4.03,2.38-5.74,1.19-1.71,2.67-3.55,3.2-5.56Z"/>
      <path class="cls-1" d="M50.66,182.46c.13-.89,.24-1.57,.3-1.91-1.23-.23-23.41-3.28-31.77-4.29-.74,3.22-1.63,7.89-2.65,12.08,9.91,1.09,22.87,3.18,32.37,4.65,.07,1.46,1.17-6.54,1.76-10.53Z"/>
      <path class="cls-5" d="M181.77,83.16c.17,13.13,1.31,26.34,4.28,39.15,.82,3.56,1.81,7.07,2.91,10.55,.97,3.05,1.88,6.1,2.45,9.25s1.1,6.96,.58,10.21c-1.03,6.52-6.17,12.18-12.6,13.66-3.01,.69-1.74,5.32,1.28,4.63,6.66-1.53,12.08-6.59,14.69-12.81,2.84-6.77,1.47-14.87-.41-21.74-1.1-4.02-2.49-7.95-3.53-11.99-1.31-5.07-2.3-10.23-3.04-15.41-1.21-8.44-1.7-16.98-1.81-25.5-.04-3.09-4.84-3.09-4.8,0h0Z"/>
      <path class="cls-5" d="M172.81,82.91c1.97-1.68,5.28-1.35,6.78,.79,.84,1.2,.89,2.88,.95,4.29,.07,1.75,0,3.53-.3,5.26-1.07,6.35-4.37,14.08-11.43,15.31-1.28,.22-2,1.79-1.68,2.95,.37,1.35,1.67,1.9,2.95,1.68,9.71-1.69,14.35-12.71,15.16-21.47,.39-4.24,.28-9.55-3.3-12.47s-8.91-2.79-12.52,.27c-.99,.84-.86,2.53,0,3.39,.98,.98,2.4,.84,3.39,0h0Z"/>
      <path class="cls-5" d="M166.97,105.49c-.07,2.06-.54,4.06-1.13,6.02-.23,.77-.48,1.53-.74,2.3-.08,.23-.16,.46-.24,.7-.16,.47-.1,.23-.03,.1-.94,2.05-2.04,4.01-3.24,5.92-3.46,5.51-7.69,10.77-12.84,14.8-2.83,2.21-5.98,3.98-9.47,4.79-3.01,.69-1.74,5.32,1.28,4.63,7.31-1.69,13.43-6.94,18.24-12.46,3.89-4.46,7.56-9.5,10.01-14.91,1.66-3.67,2.8-7.85,2.94-11.88,.11-3.09-4.69-3.09-4.8,0h0Z"/>
      <path class="cls-5" d="M75.5,79.52c-3.61-3.06-8.8-3.31-12.52-.27s-3.69,8.23-3.3,12.47c.81,8.77,5.45,19.78,15.16,21.47,1.28,.22,2.59-.34,2.95-1.68,.32-1.16-.39-2.73-1.68-2.95-7.06-1.23-10.36-8.96-11.43-15.31-.29-1.73-.37-3.51-.3-5.26,.06-1.42,.12-3.07,.95-4.29,1.46-2.17,4.83-2.45,6.78-.79,.99,.84,2.42,.97,3.39,0,.86-.86,.99-2.55,0-3.39h0Z"/>
      <path class="cls-5" d="M73.45,104.85c2.65,15.29,10.96,30.28,25.14,37.64,3.87,2.01,8,3.23,12.33,3.68,1.29,.13,2.4-1.2,2.4-2.4,0-1.41-1.11-2.26-2.4-2.4-14.44-1.51-25.7-14.5-30.23-27.51-1.17-3.35-2-6.8-2.61-10.29-.22-1.28-1.79-2-2.95-1.68-1.35,.37-1.9,1.67-1.68,2.95h0Z"/>
      <path class="cls-5" d="M169.37,71.39c-1.74-5.8-4.09-11.7-7.14-16.94s-8.25-9.3-14.32-9.57c-3.09-.14-3.08,4.66,0,4.8,4.7,.21,8.6,4.11,10.65,8.07,2.48,4.8,4.63,9.74,6.18,14.92,.89,2.95,5.52,1.69,4.63-1.28h0Z"/>
      <path class="cls-5" d="M146.79,3.9C138.05,.55,128.49-.33,119.17,.1c-10.77,.5-21.35,3.86-30.72,9.13-6.91,3.89-12.93,8.85-17.62,15.26-4.95,6.76-8.28,14.67-10.49,22.72-3.2,11.66-4.11,23.91-3.73,35.96,.1,3.08,4.9,3.09,4.8,0-.58-18.2,1.66-37.86,11.7-53.53,3.8-5.92,8.81-10.73,14.8-14.5,8.22-5.18,17.69-8.81,27.37-9.92,5.91-.68,12.03-.51,17.94,.18,4.23,.5,8.34,1.6,12.31,3.12,1.21,.46,2.63-.51,2.95-1.68,.37-1.35-.46-2.49-1.68-2.95h0Z"/>
      <path class="cls-5" d="M186.56,83.17c.46-5.47,.31-10.99,.06-16.47-.23-4.9-.54-9.79-1.44-14.63-2.08-11.13-6.63-22.25-13.94-30.98-1.92-2.3-4.13-4.35-6.25-6.46s-4.32-3.84-6.9-5.26c-2.71-1.49-5.13,2.65-2.42,4.14,2.03,1.12,3.8,2.42,5.46,4.04,1.87,1.83,3.78,3.65,5.54,5.58,3.52,3.86,6.25,8.42,8.46,13.13s3.99,10.17,5.11,15.5c.95,4.53,1.28,9.11,1.52,13.73,.3,5.87,.49,11.79,0,17.66-.11,1.29,1.18,2.4,2.4,2.4,1.39,0,2.29-1.1,2.4-2.4h0Z"/>
      <path class="cls-5" d="M135.43,43.7c-3.6,3.53-7.8,6.43-12,9.19-4.94,3.24-10.04,6.22-15.29,8.93-2.74,1.42-.32,5.56,2.42,4.14,5.36-2.78,10.59-5.84,15.63-9.16,4.41-2.91,8.84-6,12.63-9.71,2.21-2.17-1.19-5.56-3.39-3.39h0Z"/>
      <path class="cls-5" d="M111.66,49.82c-9.09,9.23-17.31,20.47-29.78,25.34-1.21,.47-2.05,1.61-1.68,2.95,.32,1.15,1.74,2.15,2.95,1.68,13.42-5.24,22.1-16.62,31.89-26.57,2.17-2.2-1.22-5.6-3.39-3.39h0Z"/>
      <path class="cls-5" d="M53.25,163.73c-.54-.54-.27-.33-.12-.11,.07,.1,.14,.2,.21,.31,.16,.22,.32,.44,.49,.66,.43,.56,.87,1.11,1.34,1.64,.74,.81,1.55,1.56,2.41,2.24,2.09,1.65,4.37,2.9,6.9,3.76,1.19,.41,2.68-.46,2.95-1.68,.3-1.33-.4-2.52-1.68-2.95-.26-.09-.52-.18-.78-.28-.15-.06-.31-.14-.46-.18,.24,.06,.36,.16,.05,.02-.52-.23-1.02-.48-1.52-.76-.46-.26-.91-.53-1.35-.82-.22-.14-.43-.29-.64-.45-.12-.09-.25-.19-.38-.28,.2,.13,.33,.26,.06,.04-.81-.66-1.57-1.38-2.27-2.16-.17-.19-.33-.38-.49-.57-.08-.1-.16-.2-.24-.29-.19-.23,.31,.42,.05,.07-.38-.51-.71-1.15-1.15-1.59-.89-.89-2.52-.96-3.39,0s-.95,2.45,0,3.39h0Z"/>
      <path class="cls-5" d="M56.61,83.16c0,13.77-.31,27.92-2.88,41.38-.61,3.19-1.48,6.31-2.1,9.5-.25,1.27,.36,2.59,1.68,2.95,1.18,.32,2.71-.4,2.95-1.68,.56-2.9,1.35-5.75,1.93-8.64,.54-2.69,.95-5.41,1.31-8.13,.9-6.85,1.37-13.75,1.64-20.65,.19-4.91,.27-9.82,.27-14.73,0-3.09-4.8-3.09-4.8,0h0Z"/>
      <path class="cls-5" d="M141.19,141.23c-.01,2.11-.04,4.23,.21,6.34,.23,1.92,.56,4.04,1.69,5.67,2.37,3.42,6.2,5.89,9.59,8.19,1.07,.73,2.66,.2,3.28-.86,.69-1.18,.21-2.55-.86-3.28-1.61-1.09-3.22-2.21-4.73-3.45-.66-.54-1.31-1.1-1.92-1.7-.27-.26-.53-.53-.78-.8-.13-.14-.25-.28-.37-.43-.24-.29,.26,.43-.07-.09-.14-.23-.29-.45-.41-.69-.13-.26,.13,.39,0-.04-.07-.23-.15-.45-.22-.68-.22-.76-.38-1.6-.45-2.29-.2-1.95-.17-3.92-.16-5.88,.02-3.09-4.78-3.09-4.8,0h0Z"/>
      <path class="cls-5" d="M99.57,141.44c.01,1.92,.04,3.85-.16,5.76-.07,.66-.25,1.59-.48,2.36-.07,.22-.14,.44-.22,.66,.05-.15,.14-.23,.02-.04-.08,.13-.55,.82-.21,.39-2.19,2.77-5.51,4.65-8.48,6.5-1.1,.68-1.53,2.14-.86,3.28s2.18,1.55,3.28,.86c1.94-1.21,3.85-2.46,5.67-3.85,1.57-1.2,3.1-2.44,4.28-4.04,1.1-1.49,1.46-3.42,1.7-5.21,.3-2.21,.29-4.44,.28-6.67-.02-3.09-4.82-3.09-4.8,0h0Z"/>
      <path class="cls-5" d="M98.61,180.94c8.14,2.15,16.76,3.54,25.2,3.41s16.76-1.11,24.39-4.1c1.21-.47,2.05-1.61,1.68-2.95-.32-1.15-1.74-2.15-2.95-1.68-7.27,2.84-15.36,3.8-23.12,3.93s-16.17-1.18-23.92-3.23c-2.99-.79-4.26,3.84-1.28,4.63h0Z"/>
      <path class="cls-5" d="M47.36,181.93c4.43-3.28,9.62-5.5,14.58-7.86,5.56-2.65,11.14-5.24,16.69-7.88,1.17-.56,1.48-2.23,.86-3.28-.7-1.2-2.11-1.42-3.28-.86-5.56,2.64-11.14,5.23-16.69,7.88-4.95,2.36-10.15,4.58-14.58,7.86-1.04,.77-1.57,2.08-.86,3.28,.6,1.03,2.24,1.64,3.28,.86h0Z"/>
      <path class="cls-5" d="M199.23,173.99c-1.11-.39-2.22-.75-3.33-1.13-.32-.1-.64-.11-.96-.04-.32,.01-.62,.11-.89,.28-.28,.15-.5,.36-.67,.62-.21,.23-.36,.5-.43,.82-.14,.61-.11,1.3,.24,1.85l.38,.49c.3,.3,.65,.5,1.06,.62,1.11,.38,2.22,.74,3.33,1.13,.32,.1,.64,.11,.96,.04,.32-.01,.62-.11,.89-.28,.28-.15,.5-.36,.67-.62,.21-.23,.36-.5,.43-.82,.14-.61,.11-1.3-.24-1.85l-.38-.49c-.3-.3-.65-.5-1.06-.62h0Z"/>
      <path class="cls-5" d="M161.12,162.4c7.27,3.34,14.59,6.55,21.87,9.87,1.18,.54,2.58,.34,3.28-.86,.6-1.03,.32-2.74-.86-3.28-7.28-3.32-14.6-6.53-21.87-9.87-1.18-.54-2.58-.33-3.28,.86-.6,1.03-.32,2.74,.86,3.28h0Z"/>
      <path class="cls-3" d="M199.12,179.9c-.99,12.32-3.65,36.57-7.19,60.09-1.8,11.93-4.11,21.29-5.96,33.65"/>
      <path class="cls-5" d="M62.9,311.42c1.19-12.58,2.48-25.17,3.2-37.78,.18-3.09-4.62-3.08-4.8,0-.72,12.61-2.01,25.2-3.2,37.78-.12,1.29,1.19,2.4,2.4,2.4,1.4,0,2.28-1.1,2.4-2.4h0Z"/>
      <path class="cls-5" d="M51.79,207.97c2.87,19.04,6.27,38.54,8.71,57.35,.36,2.75,.79,5.55,.8,8.32,.01,3.09,4.81,3.09,4.8,0-.01-2.4-.36-4.81-.66-7.18-.51-4.07-1.1-8.13-1.71-12.19-1.44-9.65-3-19.28-4.49-28.92-.97-6.22-1.89-12.44-2.83-18.66-.19-1.28-1.81-1.99-2.95-1.68-1.37,.38-1.87,1.67-1.68,2.95h0Z"/>
      <path class="cls-5" d="M110.32,264.3c-.81,.35,.11-.03,.31-.09,.14-.04,.28-.07,.42-.11,.46-.13-.57-.03-.14,.02,.09,0,.2,0,.29,0,.52,.01-.57-.14-.07-.01,.14,.03,.28,.06,.42,.1,.09,.03,.18,.06,.27,.09,.24,.09,.18,.06-.18-.08,.12,.13,.47,.24,.63,.34l.12,.08c.21,.15,.16,.11-.14-.12,.07,.1,.23,.19,.32,.28,.16,.15,.3,.39,.48,.52l-.21-.26c.05,.08,.11,.15,.15,.23,.08,.13,.16,.38,.26,.48l-.13-.32c.03,.08,.06,.17,.09,.26,.04,.11,.07,.23,.09,.35,.02,.08,.02,.31,.07,.37l-.05-.33c.01,.1,.02,.21,.02,.31,0,.15,0,.3,0,.46,0,.51,.16-.54,.01-.08-.06,.18-.11,.37-.16,.55-.11,.39,.29-.58,.1-.22-.05,.08-.08,.17-.13,.25-.08,.14-.16,.27-.25,.4-.12,.2-.34,.3,.15-.18-.07,.06-.12,.15-.18,.22-.13,.14-.26,.28-.4,.41-.07,.06-.15,.12-.21,.19-.29,.28,.52-.36,.19-.14-.16,.11-.31,.22-.48,.32-.14,.08-.28,.16-.42,.23-.09,.04-.17,.08-.26,.12-.35,.17,.66-.24,.13-.06-.33,.11-.66,.2-1,.27-.55,.12,.63-.04,.08,0-.21,.01-.43,.03-.64,.02-.13,0-.76-.07-.22,0s-.08-.03-.21-.06c-.17-.04-.33-.12-.5-.16,.65,.15,.51,.23,.33,.14-.1-.06-.21-.1-.31-.16-.08-.04-.15-.1-.22-.14-.33-.19,.48,.43,.2,.16-.11-.1-.22-.2-.33-.31-.06-.06-.11-.15-.18-.21,.47,.42,.29,.41,.15,.18-.1-.17-.2-.34-.29-.52-.19-.38,.21,.6,.08,.19-.04-.14-.09-.28-.13-.42-.02-.07-.14-.4-.1-.45,.04,.36,.05,.41,.02,.15v-.16s.02-.45,0-.46c-.06,.38-.07,.44-.02,.18,.02-.1,.04-.2,.07-.3,.02-.09,.08-.41,.15-.46-.14,.31-.15,.34-.04,.1l.06-.13c.15-.3,.31-.6,.5-.88,.07-.11,.19-.23,.24-.34-.24,.3-.28,.36-.12,.16,.04-.05,.09-.1,.14-.15,.08-.08,.16-.16,.24-.24,.07-.06,.13-.12,.2-.18-.31,.23-.36,.27-.16,.12,.28-.18,.56-.35,.87-.49,1.15-.52,1.51-2.27,.86-3.28-.76-1.19-2.06-1.42-3.28-.86-1.48,.67-2.65,1.92-3.43,3.33-.98,1.77-1.36,3.65-.84,5.64,.63,2.39,2.58,4.33,5.06,4.7s4.94-.36,6.9-1.97c2.17-1.79,3.16-4.86,2.2-7.55-.64-1.81-1.97-3.4-3.73-4.22-.99-.46-2.05-.78-3.16-.76s-2.04,.42-3.01,.83c-.51,.22-.96,.92-1.1,1.43-.16,.57-.09,1.34,.24,1.85s.82,.96,1.43,1.1c.67,.15,1.22,.03,1.85-.24Z"/>
      <path class="cls-5" d="M126.65,311.67c1.03-9.56,1.76-19.16,2.43-28.75,.28-4.02,.55-8.05,.76-12.07s.26-7.91-.44-11.91c-.49-2.83-1.26-5.61-2.19-8.32-.44-1.28-.92-2.55-1.43-3.8-.29-.72-.6-1.44-.9-2.16-.08-.19-.16-.38-.25-.57-.05-.11-.4-.93-.16-.37-.5-1.19-1.59-2.05-2.95-1.68-1.13,.31-2.18,1.75-1.68,2.95,1.79,4.24,3.47,8.49,4.48,13,.89,3.95,.96,7.82,.76,11.83-.39,7.9-.97,15.8-1.59,23.69-.47,6.06-1,12.12-1.65,18.16-.14,1.29,1.2,2.4,2.4,2.4,1.41,0,2.26-1.11,2.4-2.4h0Z"/>
      <path class="cls-5" d="M151.88,154.77c-.87,4.93-2.22,9.79-3.58,14.61-1.87,6.63-3.9,13.21-5.99,19.77-4.44,13.97-9.14,27.85-14.02,41.67-1.84,5.21-3.69,10.43-5.65,15.6-.46,1.21,.51,2.63,1.68,2.95,1.35,.37,2.49-.46,2.95-1.68,4.11-10.83,7.87-21.79,11.6-32.76,4.74-13.95,9.37-27.96,13.45-42.13,1.59-5.52,3.2-11.1,4.19-16.77,.22-1.28-.34-2.59-1.68-2.95-1.16-.32-2.73,.39-2.95,1.68h0Z"/>
      <path class="cls-5" d="M125.35,246.5c-4.53-11.76-9.11-23.51-13.59-35.29-5.16-13.54-10.28-27.11-14.94-40.83-1.73-5.1-3.49-10.23-4.72-15.47-.7-3.01-5.33-1.73-4.63,1.28,1.06,4.53,2.54,8.97,4.02,13.38,2.13,6.37,4.39,12.69,6.7,19,5.09,13.94,10.4,27.8,15.75,41.65,2.26,5.85,4.54,11.7,6.79,17.56,.47,1.21,1.61,2.04,2.95,1.68,1.16-.32,2.14-1.74,1.68-2.95h0Z"/>
      <path class="cls-5" d="M170.59,311.88c1.14-14.49,2.36-29.03,4.52-43.42,.41-2.7,.85-5.4,1.42-8.07,.65-3.01-3.98-4.3-4.63-1.28-1.17,5.45-1.88,11-2.57,16.53-.93,7.45-1.68,14.92-2.37,22.4-.42,4.61-.81,9.23-1.17,13.84-.1,1.29,1.18,2.4,2.4,2.4,1.38,0,2.3-1.1,2.4-2.4h0Z"/>
      <path class="cls-5" d="M203.68,300.31c.97,4.06,1.58,8.21,2.19,12.34,.18,1.25,1.82,2.04,2.95,1.68,1.36-.44,1.87-1.62,1.68-2.95-.61-4.13-1.22-8.28-2.19-12.34-.29-1.22-1.75-2.07-2.95-1.68-1.27,.41-1.99,1.64-1.68,2.95h0Z"/>
      <path class="cls-5" d="M179.4,261.23c2.39,3.04,5.79,5.09,9.61,5.72s8.1,.54,11.3-1.75,5.77-5.62,7.24-9.07c1.89-4.43,1.55-9.04,.26-13.6-2.19-7.77-4.65-15.75-9.68-22.2s-13.52-9-21.47-9.12c-3.81-.06-7.81-.17-10.92,2.41-1.8,1.49-2.89,3.74-3.12,6.04-.27,2.69,.84,5.12,2.48,7.18l1.7-4.1c-3.97-.1-7.74,1.94-8.52,6.09s.86,8.61,4.97,10.19v-4.63c-3.4,1.21-5.29,4.96-4.76,8.46,.46,3.01,2.33,6.35,5.46,7.17v-4.63c-2.78,.86-4.07,3.63-3.89,6.41,.19,2.93,1.72,5.56,4.34,6.97,2.45,1.31,5.26,1.63,7.99,1.86,1.3,.11,2.61,.19,3.91,.33,.56,.06,1.12,.13,1.67,.23,.28,.05,.56,.11,.83,.19,.09,.03,.77,.26,.32,.07,1.19,.51,2.57,.36,3.28-.86,.59-1.01,.34-2.77-.86-3.28-3.76-1.6-8-1.06-11.95-1.81-1.62-.31-3.66-.8-4.41-2.46-.3-.65-.42-1.5-.34-2.13,.04-.29,.11-.49,.22-.72,.04-.08,.25-.29,.1-.13-.19,.2,.29-.09,.06-.01,2.21-.69,2.35-4,0-4.63-1.05-.28-1.76-2.03-2.02-3.31-.03-.13-.05-.39-.03-.11-.01-.19-.02-.39,0-.57,.01-.14,.12-.65,.22-.9,.21-.53,.7-1.32,1.13-1.48,2.31-.83,2.23-3.77,0-4.63-1.58-.61-1.84-3.21-1.55-4.61,.38-1.87,1.96-2.29,3.83-2.24,2.27,.06,2.91-2.58,1.7-4.1-1.74-2.17-1.39-5.44,1.21-6.74,2.13-1.07,4.9-.74,7.22-.69,6.26,.15,13.01,1.96,17.18,6.92s6.09,11.49,8.1,17.72c1.11,3.43,2.51,7.26,1.78,10.91-.64,3.19-2.46,5.79-4.65,8.13-.92,.98-1.94,1.9-3.25,2.33-1.59,.52-3.36,.49-5.01,.37-3.42-.26-6.18-1.89-8.28-4.56-.8-1.02-2.55-.84-3.39,0-1.01,1.01-.8,2.37,0,3.39h0Z"/>
      <path class="cls-5" d="M166.81,227.54c2.24-.05,4.48,.03,6.72,.21,.63,.05,1.26,.11,1.89,.18,.2,.02,1.1,.08,.46,.05,.26,.01,.53,.08,.79,.12,1.01,.17,2.02,.37,2.98,.73,1.18,.44,2.68-.49,2.95-1.68,.31-1.36-.41-2.48-1.68-2.95-2.26-.84-4.81-1.04-7.2-1.24s-4.6-.28-6.91-.23c-1.25,.03-2.46,1.08-2.4,2.4s1.06,2.43,2.4,2.4h0Z"/>
      <path class="cls-5" d="M164.86,239.39c2.43-.22,4.88-.24,7.31-.09,.59,.03,1.18,.08,1.77,.14,.32,.03,.65,.07,.97,.11,.38,.04-.38-.06-.01,0,.14,.02,.27,.04,.41,.06,1.07,.17,2.13,.4,3.15,.75,1.19,.41,2.68-.47,2.95-1.68,.3-1.34-.4-2.51-1.68-2.95-2.34-.81-4.89-1.06-7.35-1.22s-5.03-.14-7.53,.08c-1.25,.11-2.46,1.02-2.4,2.4,.05,1.2,1.06,2.52,2.4,2.4h0Z"/>
      <path class="cls-5" d="M165.92,249.63c1.84,.06,3.67,.1,5.51,.25,.47,.04,.94,.08,1.41,.13,.12,.01,.23,.03,.35,.04,.32,.04,.02,0-.12-.02,.22,.04,.45,.06,.67,.1,.87,.14,1.74,.33,2.58,.62,1.19,.4,2.68-.46,2.95-1.68,.3-1.33-.4-2.52-1.68-2.95-1.91-.65-3.98-.87-5.98-1.03-1.89-.15-3.79-.19-5.69-.26-1.26-.04-2.46,1.14-2.4,2.4,.06,1.34,1.05,2.35,2.4,2.4h0Z"/>
      <path class="cls-5" d="M197.18,178.52c5.25,1.6,10.48,5.22,13.42,9.9,3.3,5.25,5.6,11.44,7.06,17.45,1.55,6.42,2.88,12.88,4.52,19.28,1.55,6.03,3.18,12.04,4.7,18.08,1.63,6.45,3.12,12.94,4.34,19.48s2.5,13.66,1.74,20.59c-.62,5.6-2.51,12.51-8.51,14.48-2.6,.85-5.58,1.19-8.28,.57-2.9-.66-5.7-2.47-8.22-4-6.23-3.77-11.57-8.65-16.2-14.26-1.23-1.49-2.39-3.05-3.46-4.66-.52-.79-1.02-1.6-1.51-2.41-.13-.22-.25-.54-.42-.72-.22-.23,.15-.07-.05,.17,1.81-2.13,4.83-3.66,7.09-5.61s-1.07-5.41-3.39-3.39-5.52,3.41-7.46,6.07c-2.25,3.08,.08,6.06,1.86,8.71,4.14,6.16,9.33,11.69,15.21,16.21,2.79,2.14,5.75,4.06,8.85,5.72s5.9,2.98,9.34,3.21c6.87,.48,14.14-2.57,17.11-9.09s3.59-14.72,2.68-22.08-2.43-14.77-4.1-22.04c-3.12-13.57-7.12-26.93-10.11-40.53-.85-3.87-1.69-7.68-3.02-11.42s-2.93-7.44-4.86-10.92c-3.55-6.41-10.07-11.29-17.04-13.41-2.96-.9-4.23,3.73-1.28,4.63h0Z"/>
      <path class="cls-5" d="M195.78,218.08c.53-12.94,1-25.9,1.73-38.83,.06-1.07,.18-2.14,.2-3.21,.04-2.47-1.24-4.25-3.32-5.44-1.77-1.02-3.68-1.86-5.59-2.57-1.77-.66-4.48-1.69-6.03-.09-1.35,1.4-1.33,3.88-1.43,5.68-.09,1.53-.14,3.07-.21,4.6-.15,3.65-.27,7.29-.38,10.94-.26,8.34-.52,16.68-.63,25.02-.04,3.09,4.76,3.09,4.8,0,.09-6.74,.3-13.49,.49-20.23s.3-13.77,.75-20.63c.06-.89,.11-1.38,.25-2.1,.03-.16,0-.53,.05-.27l-.06,.13c.38-.64-.11-.36-1.48,.83,.03-.13,.52,.25-.01-.01,.17,.09,.53,.11,.72,.16,1.74,.44,3.41,1.18,5.01,1.98,.66,.33,1.28,.73,1.94,1.07,.19,.1,.37,.37-.08-.09,.11,.11,.29,.21,.37,.36,.18,.33,.06,.84,.04,1.2-.06,.89-.12,1.79-.17,2.68-.37,6.51-.64,13.03-.92,19.55s-.55,12.86-.81,19.29c-.13,3.09,4.67,3.08,4.8,0h0Z"/>
      <path class="cls-5" d="M24.59,176.07c-.22-4.87-2.01-9.13-4.07-13.47-1.95-4.1-3.68-8.38-5.29-12.63-.76-2.01-1.51-4.1-1.47-6.28,.04-2.31,.89-4.54,1.95-6.57,2.46-4.68,5.88-8.89,8.93-13.19,1.38-1.94,2.72-3.91,5.13-4.6,2.05-.59,3.28,.9,3.13,2.86-.17,2.08,2.74,3.16,4.1,1.7,.97-1.04,2.72-.75,3.85,.04s1.16,2.86,.86,4.19c-.44,1.95,1.67,3.87,3.53,2.71,1.45-.91,2.79-1.37,4.2-.14,1.09,.96,1.33,2.15,.9,3.5-.6,1.87,1.26,3.27,2.95,2.95,.59-.11,.95-.08,1.34,.45,.44,.59,.67,1.26,.62,1.99-.13,1.78-1.61,3.44-2.59,4.83-1.31,1.86-2.56,3.86-2.99,6.13s-.05,4.4,.79,6.46c.78,1.92,1.87,3.78,2.23,5.84,.34,1.9-.08,3.8-1.1,5.43-1.11,1.78-2.28,3.6-3.48,5.32-.61,.87-1.36,1.62-1.84,2.57-.52,1.03-.82,2.12-1.04,3.24-.24,1.27,.36,2.59,1.68,2.95,1.17,.32,2.71-.4,2.95-1.68,.15-.77,.3-1.56,.65-2.27,.43-.88,1.19-1.59,1.75-2.4,1.05-1.51,1.92-3.12,3-4.61,2.4-3.32,2.93-7.62,1.61-11.48-1.09-3.18-3.57-6.33-2.07-9.79s4.85-6.09,5.22-10.17c.19-2.11-.61-4.18-1.99-5.76-1.6-1.82-3.74-2.11-6.01-1.69l2.95,2.95c.98-3.07,.03-6.34-2.43-8.43-2.96-2.51-6.54-2.35-9.72-.35l3.53,2.71c.77-3.45,.16-7.61-3.07-9.61-2.95-1.83-7.17-1.97-9.66,.71l4.1,1.7c.21-2.66-1.1-5.45-3.41-6.85-2.45-1.47-5.39-1.05-7.84,.18-2.64,1.32-4.28,3.65-5.94,5.99-1.82,2.56-3.65,5.12-5.46,7.69-3.17,4.51-6.45,9.78-6.06,15.53,.37,5.27,3.19,10.26,5.09,15.1,2.1,5.36,5.43,10.32,5.7,16.23,.14,3.08,4.94,3.09,4.8,0h0Z"/>
      <path class="cls-5" d="M25.88,138.54c1.88-3.15,4.06-6.09,6.28-9.01,.54-.71,1.08-1.42,1.61-2.13,.26-.35,.52-.69,.77-1.04,.28-.39-.34,.36,0,0,.11-.11,.21-.23,.31-.34,.49-.52,1.02-.98,1.56-1.44l.19-.15c-.14,.1-.14,.11-.01,.01,.16-.12,.31-.23,.48-.34,.3-.2,.61-.39,.92-.56,1.14-.62,1.5-2.19,.86-3.28-.67-1.15-2.14-1.48-3.28-.86-1.43,.78-2.75,1.87-3.9,3.02-1.26,1.27-2.24,2.83-3.32,4.25-2.33,3.07-4.65,6.14-6.62,9.45-.66,1.11-.25,2.63,.86,3.28s2.62,.26,3.28-.86h0Z"/>
      <path class="cls-5" d="M36.9,141.98c1.22-2.14,2.56-4.21,4.02-6.19,.17-.24,.35-.47,.53-.7,.11-.14,.18-.23,.03-.03,.09-.11,.18-.23,.27-.34,.38-.48,.78-.96,1.18-1.43,.82-.96,1.67-1.88,2.56-2.77s.96-2.52,0-3.39-2.45-.95-3.39,0c-3.67,3.68-6.75,7.95-9.33,12.45-.62,1.09-.29,2.67,.86,3.28s2.62,.3,3.28-.86h0Z"/>
      <path class="cls-5" d="M46.17,145.69c.54-.82,1.08-1.64,1.63-2.45,.27-.39,.54-.79,.82-1.17,.14-.19,.28-.39,.42-.58,.1-.13,.64-.81,.2-.27,1.25-1.52,2.51-2.98,4.03-4.23,.98-.8,.89-2.58,0-3.39-1.04-.95-2.35-.85-3.39,0-3.24,2.65-5.58,6.21-7.86,9.68-.69,1.05-.24,2.7,.86,3.28,1.2,.63,2.55,.26,3.28-.86h0Z"/>
      <path class="cls-5" d="M54.98,133.4c1.36-2.22,2.09-4.68,1.34-7.25-.71-2.41-2.33-4.08-4.5-5.25-4.31-2.33-9.02-3.02-13.83-3.48-1.29-.13-2.4,1.19-2.4,2.4,0,1.4,1.1,2.27,2.4,2.4,1.01,.1,2.02,.2,3.02,.33-.37-.05,.42,.06,.41,.06,.22,.03,.43,.07,.65,.1,.47,.08,.94,.16,1.4,.26,.88,.18,1.75,.4,2.6,.67,.45,.14,.9,.3,1.34,.47,.47,.18,.5,.2,1.01,.44,.45,.22,.9,.45,1.34,.7,.2,.11,.4,.23,.59,.35,.11,.07,.43,.32,.18,.1,.18,.15,.33,.31,.49,.46,.3,.29-.03-.08,.11,.12,.1,.15,.2,.31,.29,.47,.03,.05,.28,.67,.13,.24,.13,.37,.23,.74,.31,1.13-.1-.51,0,.09,0,.22,0,.07-.08,.73,0,.25-.18,1.02-.46,1.48-1.02,2.39-.68,1.1-.24,2.64,.86,3.28s2.6,.25,3.28-.86h0Z"/>
      <path class="cls-5" d="M51.37,193.5c.93-4.04,1.17-8.24,1.91-12.32,.22-1.18-.31-2.71-1.68-2.95-2.99-.53-6.03-.87-9.03-1.28-5.38-.74-10.76-1.47-16.14-2.18-2.41-.32-4.82-.63-7.24-.92-.99-.12-2.1,.83-2.31,1.76-.89,3.91-1.64,7.85-2.57,11.75-.72,3,3.91,4.28,4.63,1.28,.93-3.9,1.68-7.84,2.57-11.75l-2.31,1.76c9.29,1.12,18.42,2.4,27.69,3.7,1.15,.16,2.3,.3,3.44,.5l-1.68-2.95c-.74,4.08-.98,8.27-1.91,12.32-.69,3.01,3.93,4.29,4.63,1.28h0Z"/>
      <path class="cls-5" d="M58.45,247c-5.51,6.73-12.42,12.67-20.6,15.88-3.63,1.43-7.47,2.36-11.37,2.52s-7.6-.69-11.45-1.69c-3.56-.93-6.22-3.73-7.93-6.83-2.17-3.93-2.54-8.09-2.21-12.49,.7-9.35,2.15-18.7,4.13-27.85s4.76-18.6,7.55-27.79l-2.31,1.76c12.18,1.21,24.26,3.31,36.35,5.16l-1.76-2.31c-.98,9.01-2.04,18.11-3.31,26.96-.4,2.81-.82,5.62-1.36,8.4-.25,1.27,.36,2.59,1.68,2.95,1.18,.32,2.7-.4,2.95-1.68,2.13-10.94,3.22-22.13,4.47-33.2,.13-1.15,.26-2.3,.38-3.44,.1-.94-.81-2.17-1.76-2.31-12.52-1.91-25.02-4.08-37.63-5.33-1.05-.11-2.03,.82-2.31,1.76-2.63,8.65-5.21,17.31-7.19,26.14-2.21,9.86-3.73,19.91-4.6,29.98-.41,4.83-.08,9.46,1.91,13.93,1.74,3.91,4.63,7.52,8.46,9.54,1.99,1.05,4.25,1.64,6.43,2.18s4.27,.83,6.43,.95c4.26,.23,8.6-.37,12.68-1.61,10.25-3.11,19.06-9.96,25.78-18.17,.82-1,.98-2.41,0-3.39-.85-.85-2.57-1.01-3.39,0h0Z"/>
      <path class="cls-5" d="M152.98,157.48c4.03,1.97,7.81,4.55,11.32,7.32,3.19,2.52,6.86,5.64,9.09,8.65l.38-2.91c-3.6,4.17-7.41,8.29-10.63,12.77-.79,1.09-.14,2.62,.86,3.28,.62,.41,1.23,.81,1.84,1.24,.88,.62,1.41,1.33,2.34,1.97-.33-.23-.09-.23-.05-.06-.04-.17-.1-.32-.14-.5-.09-.48-.02,0-.02,0-.05-.08,.17-.53-.02-.03-.15,.4-.54,1.14-.89,1.71-.33,.54-.68,1.07-1.02,1.61-1.79,2.82-3.55,5.65-5.31,8.49-5.63,9.01-11.25,18.02-16.95,26.98-2.56,4.02-5.11,8.04-7.78,11.98-1.74,2.56,2.42,4.97,4.14,2.42,5.61-8.29,10.87-16.82,16.18-25.29,4.67-7.45,9.28-14.94,14-22.36,1.37-2.16,3.45-4.99,1.86-7.56-1.27-2.05-3.79-3.43-5.76-4.73l.86,3.28c.06-.08,.13-.24,.21-.29-.46,.29-.08,.1,.1-.13,.3-.37,.59-.74,.89-1.1,.84-1.03,1.7-2.06,2.55-3.08,2.02-2.41,4.06-4.81,6.12-7.19,.64-.74,1.03-2.02,.38-2.91-2.73-3.7-6.24-6.79-9.84-9.62-3.84-3.03-7.88-5.92-12.29-8.07-1.16-.57-2.6-.32-3.28,.86-.62,1.06-.31,2.71,.86,3.28h0Z"/>
      <path class="cls-5" d="M88.57,153.47c-4,1.96-7.62,4.72-10.94,7.67-3.13,2.78-6.01,5.84-8.49,9.22-.66,.89-.27,2.16,.38,2.91,2.06,2.38,4.1,4.78,6.12,7.19,.83,.99,1.65,1.98,2.47,2.97,.31,.37,.61,.75,.91,1.13,.04,.05,.51,.66,.26,.33-.23-.31,.08,.11,.12,.17l.86-3.28c-1.78,1.17-3.73,2.35-5.15,3.96-2.3,2.58-.61,5.42,.96,7.9,1.67,2.63,3.25,5.31,4.86,7.97,5.79,9.59,11.55,19.2,17.43,28.74,2.64,4.28,5.27,8.57,8.09,12.73,1.72,2.54,5.88,.15,4.14-2.42-5.39-7.97-10.3-16.29-15.29-24.52-4.73-7.8-9.38-15.66-14.16-23.44-.28-.46-.57-.93-.86-1.39-.33-.52-.66-1.03-.97-1.56-.18-.31-.45-.8-.53-1.01,.06,.16-.06-.21-.05-.19-.15-.39-.07,.08-.02-.06,.09-.26-.03,.24-.04,.26-.04,.22,0,.39-.03,.19,.02,.18-.25,.27,0,.04,.11-.1,.21-.21,.32-.32,.51-.48,.91-.79,1.35-1.11,.77-.57,1.57-1.09,2.37-1.62,1-.66,1.65-2.18,.86-3.28-3.22-4.47-7.03-8.6-10.63-12.77l.38,2.91c2.23-3.03,4.93-5.75,7.74-8.25,3.03-2.69,6.32-5.13,9.97-6.92,1.16-.57,1.48-2.22,.86-3.28-.69-1.19-2.12-1.43-3.28-.86h0Z"/>
      <g id="face">
        <path class="cls-5" d="M114.6,120.34c2.91,1.54,6.05,2.18,9.35,2.16s6.74-.68,9.43-2.78c1.02-.8,.84-2.56,0-3.39-1.01-1.01-2.37-.8-3.39,0,.73-.57,.16-.13-.03,0s-.38,.23-.58,.34c-.16,.09-.87,.37-.22,.13-.27,.1-.53,.2-.8,.29-.73,.23-1.48,.4-2.24,.51,.35-.05-.09,0-.22,.02-.22,.02-.44,.04-.66,.05-.53,.03-1.06,.05-1.59,.04-.47,0-.95-.02-1.42-.05-.22-.01-.43-.03-.65-.05-.02,0-.8-.11-.32-.04-.71-.11-1.4-.26-2.09-.46-.29-.09-.58-.19-.87-.29-.62-.21,.34,.18-.21-.08-.36-.17-.71-.34-1.06-.53-1.15-.61-2.61-.29-3.28,.86-.63,1.08-.29,2.68,.86,3.28h0Z"/>
        <path class="cls-5" d="M122.74,98.3c.41,1.56,.8,3.14,1.03,4.73l-.09-.64c.03,.22,.04,.43,.02,.65l.09-.64c-.02,.1-.04,.2-.07,.29l.24-.57c-.03,.07-.06,.13-.1,.19l.38-.49c-.05,.06-.09,.1-.15,.15l.49-.38c-.12,.08-.25,.14-.37,.2l.57-.24c-.21,.09-.41,.15-.63,.18l.64-.09c-.2,.02-.39,.02-.59,0l.64,.09c-.22-.03-.44-.09-.67-.12-.32-.1-.64-.11-.96-.04-.32,.01-.62,.11-.89,.28-.5,.29-.97,.86-1.1,1.43-.14,.61-.11,1.3,.24,1.85,.31,.48,.83,1.02,1.43,1.1,.51,.07,1,.2,1.51,.22,.79,.03,1.52-.21,2.23-.53,.87-.4,1.55-1.18,1.78-2.12,.2-.79,.11-1.49-.02-2.28-.26-1.52-.61-3.04-1-4.53-.32-1.21-1.73-2.07-2.95-1.68s-2.02,1.65-1.68,2.95h0Z"/>
        <path class="cls-5" d="M97.69,84.9c-.79,2.57-.28,8.48,4.59,8.98,6.43-.04,6.77-7.18,4.61-10.54-1.77-2.75-6.98-3.89-9.2,1.56Z"/>
        <path class="cls-5" d="M149.19,84.9c.79,2.57,.28,8.48-4.59,8.98-6.43-.04-6.77-7.18-4.61-10.54,1.77-2.75,6.98-3.89,9.2,1.56Z"/>
      </g>
    </g>
  </g>
</svg>