<?xml version="1.0" encoding="UTF-8"?>
<svg id="_レイヤー_2" data-name="レイヤー 2" xmlns="http://www.w3.org/2000/svg" xmlns:xlink="http://www.w3.org/1999/xlink" viewBox="0 0 480.48 521.63">
  <defs>
    <style>
      .cls-1 {
        fill: url(#_バイオレット-2);
      }

      .cls-2 {
        fill: url(#_ステンレススチール);
      }

      .cls-3 {
        fill: url(#_レッドオレンジ-3);
      }

      .cls-4 {
        fill: #004a32;
      }

      .cls-5 {
        fill: url(#_ホワイトゴールド-2);
      }

      .cls-6 {
        fill: url(#_ホワイトゴールド);
      }

      .cls-7 {
        fill: url(#_ゴールド-3);
      }

      .cls-8 {
        fill: url(#_群葉_1-2);
      }

      .cls-9 {
        fill: url(#_ゴールド-18);
      }

      .cls-10 {
        fill: url(#_水_7-2);
      }

      .cls-11 {
        fill: url(#_群葉_1-27);
      }

      .cls-12 {
        fill: url(#_水_7);
      }

      .cls-13 {
        fill: url(#_ホワイトゴールド-4);
      }

      .cls-14 {
        fill: #2f8cbf;
      }

      .cls-15 {
        fill: url(#_ゴールド-16);
      }

      .cls-16 {
        fill: url(#_群葉_1-22);
      }

      .cls-17 {
        fill: url(#_ゴールド-15);
      }

      .cls-18 {
        fill: url(#_ホワイトゴールド-5);
      }

      .cls-19 {
        fill: url(#_群葉_1-6);
      }

      .cls-20 {
        fill: #e10414;
      }

      .cls-21 {
        fill: url(#_群葉_1-17);
      }

      .cls-22 {
        fill: url(#_レッドオレンジ-7);
      }

      .cls-23 {
        fill: url(#_群葉_1-18);
      }

      .cls-24 {
        fill: url(#_レッドオレンジ-4);
      }

      .cls-25 {
        fill: url(#_ゴールド-4);
      }

      .cls-26 {
        fill: url(#_ゴールド-7);
      }

      .cls-27 {
        fill: url(#_水_7-4);
      }

      .cls-28 {
        fill: url(#_レッドオレンジ-16);
      }

      .cls-29 {
        fill: url(#_バイオレット-9);
      }

      .cls-30 {
        fill: url(#_バイオレット-3);
      }

      .cls-31 {
        fill: #3e3a39;
      }

      .cls-32 {
        fill: url(#_レッドオレンジ-13);
      }

      .cls-33 {
        fill: url(#_バイオレット-6);
      }

      .cls-34 {
        fill: #595757;
      }

      .cls-35 {
        fill: url(#_群葉_1-24);
      }

      .cls-36 {
        fill: url(#_バイオレット-4);
      }

      .cls-37 {
        fill: url(#_水_7-6);
      }

      .cls-38 {
        fill: url(#_群葉_1-9);
      }

      .cls-39 {
        fill: url(#_水_7-10);
      }

      .cls-40 {
        fill: url(#_ゴールド-10);
      }

      .cls-41 {
        fill: url(#_レッドオレンジ-5);
      }

      .cls-42 {
        fill: #faf8e4;
      }

      .cls-43 {
        fill: url(#_レッドオレンジ-20);
      }

      .cls-44 {
        fill: #898989;
      }

      .cls-45 {
        fill: url(#_ゴールド-11);
      }

      .cls-46 {
        fill: url(#_レッドオレンジ-9);
      }

      .cls-47 {
        fill: url(#_ゴールド-20);
      }

      .cls-48 {
        fill: url(#_レッドオレンジ-14);
      }

      .cls-49 {
        fill: url(#_バイオレット-7);
      }

      .cls-50 {
        fill: url(#_群葉_1-8);
      }

      .cls-51 {
        fill: url(#_レッドオレンジ-12);
      }

      .cls-52 {
        fill: url(#_レッドオレンジ-17);
      }

      .cls-53 {
        fill: url(#_バイオレット-8);
      }

      .cls-54 {
        fill: url(#_レッドオレンジ-18);
      }

      .cls-55 {
        fill: url(#_レッドオレンジ-8);
      }

      .cls-56 {
        fill: url(#_水_7-3);
      }

      .cls-57 {
        fill: url(#_群葉_1-11);
      }

      .cls-58 {
        fill: url(#_ゴールド-9);
      }

      .cls-59 {
        fill: url(#_群葉_1-13);
      }

      .cls-60 {
        fill: url(#_レッドオレンジ-2);
      }

      .cls-61 {
        fill: url(#_バイオレット);
      }

      .cls-62 {
        fill: #f1a11e;
      }

      .cls-63 {
        fill: url(#_ゴールド);
      }

      .cls-64 {
        fill: url(#_群葉_1-28);
      }

      .cls-65 {
        fill: url(#_群葉_1-16);
      }

      .cls-66 {
        fill: url(#_バイオレット-10);
      }

      .cls-67 {
        fill: url(#_水_7-5);
      }

      .cls-68 {
        fill: url(#_ゴールド-19);
      }

      .cls-69 {
        fill: url(#_ホワイトゴールド-6);
      }

      .cls-70 {
        fill: url(#_ゴールド-17);
      }

      .cls-71 {
        fill: url(#_群葉_1-21);
      }

      .cls-72 {
        fill: url(#_群葉_1-26);
      }

      .cls-73 {
        fill: #00913a;
      }

      .cls-74 {
        fill: url(#_群葉_1-25);
      }

      .cls-75 {
        stroke: #898989;
      }

      .cls-75, .cls-76 {
        stroke-width: 7.24px;
      }

      .cls-75, .cls-76, .cls-77 {
        fill: none;
        stroke-linecap: round;
        stroke-linejoin: round;
      }

      .cls-78 {
        fill: url(#_群葉_1-15);
      }

      .cls-79 {
        fill: url(#_ゴールド-8);
      }

      .cls-80 {
        fill: url(#_群葉_1-23);
      }

      .cls-81 {
        fill: url(#_ゴールド-12);
      }

      .cls-82 {
        fill: url(#_水_7-8);
      }

      .cls-83 {
        fill: url(#_群葉_1-20);
      }

      .cls-84 {
        fill: url(#_群葉_1-3);
      }

      .cls-85 {
        fill: #92181e;
      }

      .cls-86 {
        fill: url(#_群葉_1-4);
      }

      .cls-87 {
        fill: url(#_ゴールド-26);
      }

      .cls-88 {
        fill: url(#_水_7-7);
      }

      .cls-89 {
        fill: url(#_ゴールド-24);
      }

      .cls-90 {
        fill: url(#_ゴールド-2);
      }

      .cls-91 {
        fill: url(#_群葉_1-7);
      }

      .cls-92 {
        fill: url(#_群葉_1-12);
      }

      .cls-93 {
        fill: url(#_ゴールド-23);
      }

      .cls-94 {
        fill: url(#_ゴールド-25);
      }

      .cls-95 {
        fill: url(#_水_7-9);
      }

      .cls-96 {
        fill: url(#_ゴールド-14);
      }

      .cls-97 {
        fill: url(#_群葉_1-14);
      }

      .cls-98 {
        fill: url(#_ホワイトゴールド-7);
      }

      .cls-99 {
        fill: #e8ba41;
      }

      .cls-100 {
        fill: url(#_水_7-11);
      }

      .cls-101 {
        fill: url(#_レッドオレンジ-15);
      }

      .cls-76, .cls-77 {
        stroke: #b5b5b6;
      }

      .cls-102 {
        fill: url(#_ゴールド-6);
      }

      .cls-103 {
        fill: #231815;
      }

      .cls-104 {
        fill: url(#_ゴールド-22);
      }

      .cls-105 {
        fill: url(#_レッドオレンジ-11);
      }

      .cls-106 {
        fill: url(#_レッドオレンジ-19);
      }

      .cls-107 {
        fill: url(#_水_7-12);
      }

      .cls-108 {
        fill: url(#_群葉_1-19);
      }

      .cls-109 {
        fill: url(#_群葉_1);
      }

      .cls-110 {
        fill: url(#_ホワイトゴールド-3);
      }

      .cls-111 {
        fill: url(#_レッドオレンジ-10);
      }

      .cls-112 {
        fill: url(#_レッドオレンジ-6);
      }

      .cls-113 {
        fill: #66508d;
      }

      .cls-77 {
        stroke-width: 5.43px;
      }

      .cls-114 {
        fill: url(#_レッドオレンジ);
      }

      .cls-115 {
        fill: url(#_群葉_1-10);
      }

      .cls-116 {
        fill: url(#_ゴールド-13);
      }

      .cls-117 {
        fill: url(#_ゴールド-5);
      }

      .cls-118 {
        fill: url(#_ゴールド-21);
      }

      .cls-119 {
        fill: url(#_群葉_1-5);
      }

      .cls-120 {
        fill: url(#_バイオレット-5);
      }
    </style>
    <linearGradient id="_ゴールド" data-name="ゴールド" x1="944.22" y1="-41.46" x2="970.14" y2="-41.46" gradientTransform="translate(1039.31 214.21) rotate(170.79)" gradientUnits="userSpaceOnUse">
      <stop offset="0" stop-color="#ffeea7"/>
      <stop offset=".5" stop-color="#fdd000"/>
      <stop offset="1" stop-color="#f8b300"/>
    </linearGradient>
    <linearGradient id="_水_7" data-name="水 7" x1="212.43" y1="370.49" x2="238.34" y2="370.49" gradientUnits="userSpaceOnUse">
      <stop offset="0" stop-color="#73b1e1"/>
      <stop offset=".09" stop-color="#69aedf"/>
      <stop offset=".24" stop-color="#50a6dc"/>
      <stop offset=".43" stop-color="#279ad7"/>
      <stop offset=".58" stop-color="#008fd2"/>
      <stop offset="1" stop-color="#0079c1"/>
    </linearGradient>
    <linearGradient id="_ゴールド-2" data-name="ゴールド" x1="321.98" y1="381.96" x2="347.9" y2="381.96" gradientTransform="matrix(1, 0, 0, 1, 0, 0)" xlink:href="#_ゴールド"/>
    <linearGradient id="_群葉_1" data-name="群葉 1" x1="837.98" y1="170.72" x2="864.1" y2="170.72" gradientTransform="translate(883.57 -216.39) rotate(121.64)" gradientUnits="userSpaceOnUse">
      <stop offset="0" stop-color="#4ab134"/>
      <stop offset=".38" stop-color="#094"/>
      <stop offset="1" stop-color="#00561f"/>
    </linearGradient>
    <linearGradient id="_ホワイトゴールド" data-name="ホワイトゴールド" x1="984.19" y1="18.5" x2="997.98" y2="37.92" gradientTransform="translate(1039.31 214.21) rotate(170.79)" gradientUnits="userSpaceOnUse">
      <stop offset="0" stop-color="#ebeced"/>
      <stop offset=".25" stop-color="#fffeea"/>
      <stop offset=".43" stop-color="#f0ecdd"/>
      <stop offset=".6" stop-color="#e0dacf"/>
      <stop offset=".79" stop-color="#f4f4f4"/>
      <stop offset="1" stop-color="#e1dec6"/>
    </linearGradient>
    <linearGradient id="_レッドオレンジ" data-name="レッドオレンジ" x1="166.39" y1="398.32" x2="192.3" y2="398.32" gradientUnits="userSpaceOnUse">
      <stop offset="0" stop-color="#ee7e55"/>
      <stop offset=".5" stop-color="#e50012"/>
      <stop offset="1" stop-color="#cf131b"/>
    </linearGradient>
    <linearGradient id="_レッドオレンジ-2" data-name="レッドオレンジ" x1="116.25" y1="401.71" x2="142.15" y2="401.71" xlink:href="#_レッドオレンジ"/>
    <linearGradient id="_レッドオレンジ-3" data-name="レッドオレンジ" x1="44.46" y1="391.28" x2="58.28" y2="410.74" xlink:href="#_レッドオレンジ"/>
    <linearGradient id="_水_7-2" data-name="水 7" x1="69.98" y1="400.86" x2="95.89" y2="400.86" xlink:href="#_水_7"/>
    <linearGradient id="_水_7-3" data-name="水 7" x1="576.41" y1="460.52" x2="602.51" y2="460.52" gradientTransform="translate(357.44 -373.12) rotate(55.61)" xlink:href="#_水_7"/>
    <linearGradient id="_水_7-4" data-name="水 7" x1="576.6" y1="520.75" x2="602.71" y2="520.75" gradientTransform="translate(357.44 -373.12) rotate(55.61)" xlink:href="#_水_7"/>
    <linearGradient id="_水_7-5" data-name="水 7" x1="169.95" y1="347" x2="183.76" y2="366.45" xlink:href="#_水_7"/>
    <linearGradient id="_バイオレット" data-name="バイオレット" x1="92.27" y1="386.11" x2="118.17" y2="386.11" gradientUnits="userSpaceOnUse">
      <stop offset="0" stop-color="#8174b4"/>
      <stop offset=".5" stop-color="#6558a4"/>
      <stop offset="1" stop-color="#3e318f"/>
    </linearGradient>
    <linearGradient id="_バイオレット-2" data-name="バイオレット" x1="116.34" y1="360.91" x2="142.25" y2="360.91" xlink:href="#_バイオレット"/>
    <linearGradient id="_ゴールド-3" data-name="ゴールド" x1="76.52" y1="352.44" x2="102.43" y2="352.44" gradientTransform="matrix(1, 0, 0, 1, 0, 0)" xlink:href="#_ゴールド"/>
    <linearGradient id="_ゴールド-4" data-name="ゴールド" x1="270.99" y1="363.27" x2="284.8" y2="382.73" gradientTransform="matrix(1, 0, 0, 1, 0, 0)" xlink:href="#_ゴールド"/>
    <linearGradient id="_群葉_1-2" data-name="群葉 1" x1="46.66" y1="421.91" x2="72.58" y2="421.91" gradientTransform="matrix(1, 0, 0, 1, 0, 0)" xlink:href="#_群葉_1"/>
    <linearGradient id="_群葉_1-3" data-name="群葉 1" x1="21.91" y1="364.24" x2="47.82" y2="364.24" gradientTransform="matrix(1, 0, 0, 1, 0, 0)" xlink:href="#_群葉_1"/>
    <linearGradient id="_群葉_1-4" data-name="群葉 1" x1="77.02" y1="364.55" x2="90.83" y2="384.01" gradientTransform="matrix(1, 0, 0, 1, 0, 0)" xlink:href="#_群葉_1"/>
    <linearGradient id="_レッドオレンジ-4" data-name="レッドオレンジ" x1="338.54" y1="541.83" x2="352.41" y2="561.35" gradientTransform="translate(167.76 -259.93) rotate(33.25)" xlink:href="#_レッドオレンジ"/>
    <linearGradient id="_バイオレット-3" data-name="バイオレット" x1="402.11" y1="510.54" x2="428.1" y2="510.54" gradientTransform="translate(167.76 -259.93) rotate(33.25)" xlink:href="#_バイオレット"/>
    <linearGradient id="_ゴールド-5" data-name="ゴールド" x1="316.5" y1="495.69" x2="342.49" y2="495.69" gradientTransform="translate(167.76 -259.93) rotate(33.25)" xlink:href="#_ゴールド"/>
    <linearGradient id="_ゴールド-6" data-name="ゴールド" x1="474.28" y1="485.12" x2="500.27" y2="485.12" gradientTransform="translate(167.76 -259.93) rotate(33.25)" xlink:href="#_ゴールド"/>
    <linearGradient id="_群葉_1-5" data-name="群葉 1" x1="372.04" y1="466.73" x2="398.04" y2="466.73" gradientTransform="translate(167.76 -259.93) rotate(33.25)" xlink:href="#_群葉_1"/>
    <linearGradient id="_群葉_1-6" data-name="群葉 1" x1="412.8" y1="421.09" x2="426.66" y2="440.62" gradientTransform="translate(167.76 -259.93) rotate(33.25)" xlink:href="#_群葉_1"/>
    <linearGradient id="_ホワイトゴールド-2" data-name="ホワイトゴールド" x1="141.33" y1="419.18" x2="167.23" y2="419.18" gradientTransform="matrix(1, 0, 0, 1, 0, 0)" xlink:href="#_ホワイトゴールド"/>
    <linearGradient id="_ホワイトゴールド-3" data-name="ホワイトゴールド" x1="205.25" y1="350.48" x2="219.06" y2="369.93" gradientTransform="matrix(1, 0, 0, 1, 0, 0)" xlink:href="#_ホワイトゴールド"/>
    <linearGradient id="_バイオレット-4" data-name="バイオレット" x1="919.1" y1="-60.12" x2="932.89" y2="-40.7" gradientTransform="translate(1039.31 214.21) rotate(170.79)" xlink:href="#_バイオレット"/>
    <linearGradient id="_ゴールド-7" data-name="ゴールド" x1="896.42" y1="-6.67" x2="910.22" y2="12.76" xlink:href="#_ゴールド"/>
    <linearGradient id="_ゴールド-8" data-name="ゴールド" x1="638.03" y1="-177.88" x2="663.99" y2="-177.88" gradientTransform="translate(914.98 497.86) rotate(-155.96)" xlink:href="#_ゴールド"/>
    <linearGradient id="_群葉_1-7" data-name="群葉 1" x1="666.78" y1="-197.1" x2="692.74" y2="-197.1" gradientTransform="translate(914.98 497.86) rotate(-155.96)" xlink:href="#_群葉_1"/>
    <linearGradient id="_群葉_1-8" data-name="群葉 1" x1="981" y1="395.28" x2="1007.12" y2="395.28" xlink:href="#_群葉_1"/>
    <linearGradient id="_レッドオレンジ-5" data-name="レッドオレンジ" x1="310.67" y1="387.34" x2="324.49" y2="406.79" xlink:href="#_レッドオレンジ"/>
    <linearGradient id="_群葉_1-9" data-name="群葉 1" x1="312.87" y1="417.96" x2="338.78" y2="417.96" gradientTransform="matrix(1, 0, 0, 1, 0, 0)" xlink:href="#_群葉_1"/>
    <linearGradient id="_群葉_1-10" data-name="群葉 1" x1="157.06" y1="369.67" x2="182.97" y2="369.67" gradientTransform="matrix(1, 0, 0, 1, 0, 0)" xlink:href="#_群葉_1"/>
    <linearGradient id="_群葉_1-11" data-name="群葉 1" x1="544.26" y1="-157.46" x2="558.12" y2="-137.94" gradientTransform="translate(914.98 497.86) rotate(-155.96)" xlink:href="#_群葉_1"/>
    <linearGradient id="_バイオレット-5" data-name="バイオレット" x1="110.76" y1="336.45" x2="124.56" y2="355.89" xlink:href="#_バイオレット"/>
    <linearGradient id="_ホワイトゴールド-4" data-name="ホワイトゴールド" x1="264.91" y1="405.43" x2="290.82" y2="405.43" gradientTransform="matrix(1, 0, 0, 1, 0, 0)" xlink:href="#_ホワイトゴールド"/>
    <linearGradient id="_水_7-6" data-name="水 7" x1="596.71" y1="-265.82" x2="622.78" y2="-265.82" gradientTransform="translate(746.29 640.03) rotate(-133.61)" xlink:href="#_水_7"/>
    <linearGradient id="_ゴールド-9" data-name="ゴールド" x1="1019.67" y1="-16.42" x2="1045.59" y2="-16.42" xlink:href="#_ゴールド"/>
    <linearGradient id="_バイオレット-6" data-name="バイオレット" x1="696.77" y1="-153.25" x2="722.72" y2="-153.25" gradientTransform="translate(914.98 497.86) rotate(-155.96)" xlink:href="#_バイオレット"/>
    <linearGradient id="_水_7-7" data-name="水 7" x1="324.65" y1="377.35" x2="350.56" y2="377.35" xlink:href="#_水_7"/>
    <linearGradient id="_レッドオレンジ-6" data-name="レッドオレンジ" x1="278.62" y1="405.16" x2="304.52" y2="405.16" xlink:href="#_レッドオレンジ"/>
    <linearGradient id="_レッドオレンジ-7" data-name="レッドオレンジ" x1="228.48" y1="408.58" x2="254.38" y2="408.58" xlink:href="#_レッドオレンジ"/>
    <linearGradient id="_水_7-8" data-name="水 7" x1="282.17" y1="353.85" x2="295.99" y2="373.32" xlink:href="#_水_7"/>
    <linearGradient id="_バイオレット-7" data-name="バイオレット" x1="228.56" y1="367.76" x2="254.47" y2="367.76" xlink:href="#_バイオレット"/>
    <linearGradient id="_レッドオレンジ-8" data-name="レッドオレンジ" x1="436.15" y1="486.03" x2="450.01" y2="505.55" gradientTransform="translate(167.76 -259.93) rotate(33.25)" xlink:href="#_レッドオレンジ"/>
    <linearGradient id="_バイオレット-8" data-name="バイオレット" x1="510.48" y1="475.2" x2="536.46" y2="475.2" gradientTransform="translate(167.76 -259.93) rotate(33.25)" xlink:href="#_バイオレット"/>
    <linearGradient id="_ゴールド-10" data-name="ゴールド" x1="414.11" y1="439.89" x2="440.11" y2="439.89" gradientTransform="translate(167.76 -259.93) rotate(33.25)" xlink:href="#_ゴールド"/>
    <linearGradient id="_群葉_1-12" data-name="群葉 1" x1="248.63" y1="593.03" x2="274.64" y2="593.03" gradientTransform="translate(167.76 -259.93) rotate(33.25)" xlink:href="#_群葉_1"/>
    <linearGradient id="_ホワイトゴールド-5" data-name="ホワイトゴールド" x1="42.93" y1="375.68" x2="68.83" y2="375.68" gradientTransform="matrix(1, 0, 0, 1, 0, 0)" xlink:href="#_ホワイトゴールド"/>
    <linearGradient id="_ホワイトゴールド-6" data-name="ホワイトゴールド" x1="317.47" y1="357.33" x2="331.28" y2="376.78" gradientTransform="matrix(1, 0, 0, 1, 0, 0)" xlink:href="#_ホワイトゴールド"/>
    <linearGradient id="_バイオレット-9" data-name="バイオレット" x1="809.41" y1="-84.85" x2="823.2" y2="-65.43" gradientTransform="translate(1039.31 214.21) rotate(170.79)" xlink:href="#_バイオレット"/>
    <linearGradient id="_ゴールド-11" data-name="ゴールド" x1="786.74" y1="-31.4" x2="800.53" y2="-11.98" xlink:href="#_ゴールド"/>
    <linearGradient id="_群葉_1-13" data-name="群葉 1" x1="573.33" y1="-105.7" x2="599.3" y2="-105.7" gradientTransform="translate(914.98 497.86) rotate(-155.96)" xlink:href="#_群葉_1"/>
    <linearGradient id="_群葉_1-14" data-name="群葉 1" x1="269.29" y1="376.53" x2="295.2" y2="376.53" gradientTransform="matrix(1, 0, 0, 1, 0, 0)" xlink:href="#_群葉_1"/>
    <linearGradient id="_ゴールド-12" data-name="ゴールド" x1="194.16" y1="436.9" x2="220.06" y2="436.9" gradientTransform="matrix(1, 0, 0, 1, 0, 0)" xlink:href="#_ゴールド"/>
    <linearGradient id="_水_7-9" data-name="水 7" x1="544.96" y1="583.65" x2="571.06" y2="583.65" gradientTransform="translate(357.44 -373.12) rotate(55.61)" xlink:href="#_水_7"/>
    <linearGradient id="_ゴールド-13" data-name="ゴールド" x1="143.16" y1="418.23" x2="156.97" y2="437.68" gradientTransform="matrix(1, 0, 0, 1, 0, 0)" xlink:href="#_ゴールド"/>
    <linearGradient id="_水_7-10" data-name="水 7" x1="196.83" y1="432.31" x2="222.74" y2="432.31" xlink:href="#_水_7"/>
    <linearGradient id="_水_7-11" data-name="水 7" x1="154.34" y1="408.81" x2="168.16" y2="428.27" xlink:href="#_水_7"/>
    <linearGradient id="_ホワイトゴールド-7" data-name="ホワイトゴールド" x1="191.27" y1="370.26" x2="205.08" y2="389.72" gradientTransform="matrix(1, 0, 0, 1, 0, 0)" xlink:href="#_ホワイトゴールド"/>
    <linearGradient id="_ゴールド-14" data-name="ゴールド" x1="921.72" y1="-65.17" x2="935.51" y2="-45.75" xlink:href="#_ゴールド"/>
    <linearGradient id="_群葉_1-15" data-name="群葉 1" x1="667.69" y1="-207.95" x2="693.65" y2="-207.95" gradientTransform="translate(914.98 497.86) rotate(-155.96)" xlink:href="#_群葉_1"/>
    <linearGradient id="_群葉_1-16" data-name="群葉 1" x1="212.37" y1="426.21" x2="238.28" y2="426.21" gradientTransform="matrix(1, 0, 0, 1, 0, 0)" xlink:href="#_群葉_1"/>
    <linearGradient id="_水_7-12" data-name="水 7" x1="514.35" y1="-189.29" x2="540.41" y2="-189.29" gradientTransform="translate(746.29 640.03) rotate(-133.61)" xlink:href="#_水_7"/>
    <linearGradient id="_バイオレット-10" data-name="バイオレット" x1="784.06" y1="-271.18" x2="810.01" y2="-271.18" gradientTransform="translate(914.98 497.86) rotate(-155.96)" xlink:href="#_バイオレット"/>
    <linearGradient id="_ステンレススチール" data-name="ステンレススチール" x1="98.01" y1="553.97" x2="357.85" y2="553.97" gradientTransform="translate(83.35 -114.89) rotate(14.68)" gradientUnits="userSpaceOnUse">
      <stop offset="0" stop-color="#f0eeeb"/>
      <stop offset="0" stop-color="#e4e0dc"/>
      <stop offset="0" stop-color="#dad5cf"/>
      <stop offset=".07" stop-color="#cbc6c1"/>
      <stop offset=".15" stop-color="#b6b2ad"/>
      <stop offset=".52" stop-color="#e9eaea"/>
      <stop offset=".63" stop-color="#dcdcdb"/>
      <stop offset=".84" stop-color="#bcb8b4"/>
      <stop offset=".88" stop-color="#b6b2ad"/>
      <stop offset="1" stop-color="#dcdddd"/>
      <stop offset="1" stop-color="#b5b5b6"/>
    </linearGradient>
    <linearGradient id="_群葉_1-17" data-name="群葉 1" x1="307.25" y1="129.42" x2="345.61" y2="129.42" gradientTransform="matrix(1, 0, 0, 1, 0, 0)" xlink:href="#_群葉_1"/>
    <linearGradient id="_群葉_1-18" data-name="群葉 1" x1="307.25" y1="164.99" x2="345.61" y2="164.99" gradientTransform="matrix(1, 0, 0, 1, 0, 0)" xlink:href="#_群葉_1"/>
    <linearGradient id="_群葉_1-19" data-name="群葉 1" x1="307.25" y1="200.56" x2="345.61" y2="200.56" gradientTransform="matrix(1, 0, 0, 1, 0, 0)" xlink:href="#_群葉_1"/>
    <linearGradient id="_群葉_1-20" data-name="群葉 1" x1="307.25" y1="236.13" x2="345.61" y2="236.13" gradientTransform="matrix(1, 0, 0, 1, 0, 0)" xlink:href="#_群葉_1"/>
    <linearGradient id="_群葉_1-21" data-name="群葉 1" x1="307.25" y1="271.7" x2="345.61" y2="271.7" gradientTransform="matrix(1, 0, 0, 1, 0, 0)" xlink:href="#_群葉_1"/>
    <linearGradient id="_群葉_1-22" data-name="群葉 1" x1="307.25" y1="307.26" x2="345.61" y2="307.26" gradientTransform="matrix(1, 0, 0, 1, 0, 0)" xlink:href="#_群葉_1"/>
    <linearGradient id="_群葉_1-23" data-name="群葉 1" x1="307.25" y1="342.83" x2="345.61" y2="342.83" gradientTransform="matrix(1, 0, 0, 1, 0, 0)" xlink:href="#_群葉_1"/>
    <linearGradient id="_群葉_1-24" data-name="群葉 1" x1="307.25" y1="378.4" x2="345.61" y2="378.4" gradientTransform="matrix(1, 0, 0, 1, 0, 0)" xlink:href="#_群葉_1"/>
    <linearGradient id="_群葉_1-25" data-name="群葉 1" x1="307.25" y1="413.97" x2="345.61" y2="413.97" gradientTransform="matrix(1, 0, 0, 1, 0, 0)" xlink:href="#_群葉_1"/>
    <linearGradient id="_群葉_1-26" data-name="群葉 1" x1="307.25" y1="449.54" x2="345.61" y2="449.54" gradientTransform="matrix(1, 0, 0, 1, 0, 0)" xlink:href="#_群葉_1"/>
    <linearGradient id="_群葉_1-27" data-name="群葉 1" x1="320.95" y1="505.99" x2="359.31" y2="505.99" gradientTransform="matrix(1, 0, 0, 1, 0, 0)" xlink:href="#_群葉_1"/>
    <linearGradient id="_群葉_1-28" data-name="群葉 1" x1="307.25" y1="485.1" x2="345.61" y2="485.1" gradientTransform="matrix(1, 0, 0, 1, 0, 0)" xlink:href="#_群葉_1"/>
    <linearGradient id="_レッドオレンジ-9" data-name="レッドオレンジ" x1="368.69" y1="129.42" x2="407.05" y2="129.42" xlink:href="#_レッドオレンジ"/>
    <linearGradient id="_レッドオレンジ-10" data-name="レッドオレンジ" x1="368.69" y1="164.99" x2="407.05" y2="164.99" xlink:href="#_レッドオレンジ"/>
    <linearGradient id="_レッドオレンジ-11" data-name="レッドオレンジ" x1="368.69" y1="200.56" x2="407.05" y2="200.56" xlink:href="#_レッドオレンジ"/>
    <linearGradient id="_レッドオレンジ-12" data-name="レッドオレンジ" x1="368.69" y1="236.13" x2="407.05" y2="236.13" xlink:href="#_レッドオレンジ"/>
    <linearGradient id="_レッドオレンジ-13" data-name="レッドオレンジ" x1="368.69" y1="271.7" x2="407.05" y2="271.7" xlink:href="#_レッドオレンジ"/>
    <linearGradient id="_レッドオレンジ-14" data-name="レッドオレンジ" x1="368.69" y1="307.26" x2="407.05" y2="307.26" xlink:href="#_レッドオレンジ"/>
    <linearGradient id="_レッドオレンジ-15" data-name="レッドオレンジ" x1="368.69" y1="342.83" x2="407.05" y2="342.83" xlink:href="#_レッドオレンジ"/>
    <linearGradient id="_レッドオレンジ-16" data-name="レッドオレンジ" x1="368.69" y1="378.4" x2="407.05" y2="378.4" xlink:href="#_レッドオレンジ"/>
    <linearGradient id="_レッドオレンジ-17" data-name="レッドオレンジ" x1="368.69" y1="413.97" x2="407.05" y2="413.97" xlink:href="#_レッドオレンジ"/>
    <linearGradient id="_レッドオレンジ-18" data-name="レッドオレンジ" x1="368.69" y1="449.54" x2="407.05" y2="449.54" xlink:href="#_レッドオレンジ"/>
    <linearGradient id="_レッドオレンジ-19" data-name="レッドオレンジ" x1="382.39" y1="505.99" x2="420.75" y2="505.99" xlink:href="#_レッドオレンジ"/>
    <linearGradient id="_レッドオレンジ-20" data-name="レッドオレンジ" x1="368.69" y1="485.1" x2="407.05" y2="485.1" xlink:href="#_レッドオレンジ"/>
    <linearGradient id="_ゴールド-15" data-name="ゴールド" x1="428.42" y1="129.42" x2="466.78" y2="129.42" gradientTransform="matrix(1, 0, 0, 1, 0, 0)" xlink:href="#_ゴールド"/>
    <linearGradient id="_ゴールド-16" data-name="ゴールド" x1="428.42" y1="164.99" x2="466.78" y2="164.99" gradientTransform="matrix(1, 0, 0, 1, 0, 0)" xlink:href="#_ゴールド"/>
    <linearGradient id="_ゴールド-17" data-name="ゴールド" x1="428.42" y1="200.56" x2="466.78" y2="200.56" gradientTransform="matrix(1, 0, 0, 1, 0, 0)" xlink:href="#_ゴールド"/>
    <linearGradient id="_ゴールド-18" data-name="ゴールド" x1="428.42" y1="236.13" x2="466.78" y2="236.13" gradientTransform="matrix(1, 0, 0, 1, 0, 0)" xlink:href="#_ゴールド"/>
    <linearGradient id="_ゴールド-19" data-name="ゴールド" x1="428.42" y1="271.7" x2="466.78" y2="271.7" gradientTransform="matrix(1, 0, 0, 1, 0, 0)" xlink:href="#_ゴールド"/>
    <linearGradient id="_ゴールド-20" data-name="ゴールド" x1="428.42" y1="307.26" x2="466.78" y2="307.26" gradientTransform="matrix(1, 0, 0, 1, 0, 0)" xlink:href="#_ゴールド"/>
    <linearGradient id="_ゴールド-21" data-name="ゴールド" x1="428.42" y1="342.83" x2="466.78" y2="342.83" gradientTransform="matrix(1, 0, 0, 1, 0, 0)" xlink:href="#_ゴールド"/>
    <linearGradient id="_ゴールド-22" data-name="ゴールド" x1="428.42" y1="378.4" x2="466.78" y2="378.4" gradientTransform="matrix(1, 0, 0, 1, 0, 0)" xlink:href="#_ゴールド"/>
    <linearGradient id="_ゴールド-23" data-name="ゴールド" x1="428.42" y1="413.97" x2="466.78" y2="413.97" gradientTransform="matrix(1, 0, 0, 1, 0, 0)" xlink:href="#_ゴールド"/>
    <linearGradient id="_ゴールド-24" data-name="ゴールド" x1="428.42" y1="449.54" x2="466.78" y2="449.54" gradientTransform="matrix(1, 0, 0, 1, 0, 0)" xlink:href="#_ゴールド"/>
    <linearGradient id="_ゴールド-25" data-name="ゴールド" x1="442.12" y1="505.99" x2="480.48" y2="505.99" gradientTransform="matrix(1, 0, 0, 1, 0, 0)" xlink:href="#_ゴールド"/>
    <linearGradient id="_ゴールド-26" data-name="ゴールド" x1="428.42" y1="485.1" x2="466.78" y2="485.1" gradientTransform="matrix(1, 0, 0, 1, 0, 0)" xlink:href="#_ゴールド"/>
  </defs>
  <g id="_レイヤー_1-2" data-name="レイヤー 1">
    <g>
      <g>
        <polygon class="cls-34" points="349.15 318.94 34.13 318.94 0 437.4 383.29 437.4 349.15 318.94"/>
        <g>
          <g>
            <path class="cls-63" d="M94.23,419.34c.15,.94,4.05,1.08,8.7,.34,4.64-.78,8.29-2.15,8.14-3.09,2.26-3.18,3.33-7.22,2.65-11.41-.62-3.93-2.7-7.23-5.56-9.53l-17.7,2.9c-1.99,3.11-2.94,6.9-2.31,10.82,.67,4.18,2.95,7.68,6.08,9.97Z"/>
            <path class="cls-99" d="M90.46,398.55c-.14-.92,3.7-2.35,8.58-3.13,4.89-.8,8.97-.69,9.12,.23,.15,.96-3.69,2.36-8.57,3.16-4.89,.8-8.97,.69-9.13-.27Z"/>
            <path class="cls-103" d="M99.18,396.31c3.76-.6,6.33-.59,7.53-.41-1.07,.57-3.51,1.4-7.27,2.01-3.75,.62-6.33,.62-7.54,.43,1.09-.57,3.53-1.4,7.28-2.03Z"/>
          </g>
          <path class="cls-12" d="M238.34,370.77c0-4.23-1.69-8.07-4.43-10.84h-17.06c-2.73,2.77-4.43,6.61-4.43,10.84,0,3.98,1.53,7.57,3.98,10.29h17.93c2.45-2.72,4-6.31,4-10.29Z"/>
          <g>
            <path class="cls-90" d="M343.47,372.24c0-.94-3.82-1.71-8.53-1.71s-8.53,.76-8.53,1.71c-2.73,2.79-4.43,6.61-4.43,10.84,0,3.98,1.54,7.57,3.99,10.31h17.93c2.45-2.74,3.99-6.33,3.99-10.31,0-4.23-1.7-8.05-4.43-10.84Z"/>
            <path class="cls-99" d="M343.91,393.39c0,.94-4.02,1.71-8.97,1.71s-8.96-.76-8.96-1.71,4.01-1.72,8.96-1.72,8.97,.76,8.97,1.72Z"/>
            <path class="cls-103" d="M334.94,394.19c-3.81,0-6.35-.43-7.5-.8,1.16-.39,3.7-.82,7.5-.82s6.34,.43,7.51,.82c-1.16,.37-3.7,.8-7.51,.8Z"/>
          </g>
          <g>
            <path class="cls-109" d="M295.51,430.98c.79,.52,3.45-2.38,5.92-6.45,2.47-4.05,3.82-7.73,3.02-8.23-.91-3.82-3.24-7.29-6.8-9.49-3.35-2.1-7.18-2.67-10.77-1.97l-9.41,15.44c1.01,3.54,3.23,6.74,6.58,8.83,3.56,2.2,7.67,2.76,11.45,1.87Z"/>
            <path class="cls-73" d="M277.47,420.28c-.8-.5,.67-4.37,3.27-8.64,2.59-4.25,5.34-7.3,6.14-6.81,.8,.5-.66,4.35-3.25,8.6-2.6,4.28-5.36,7.34-6.16,6.84Z"/>
            <path class="cls-103" d="M281.5,412.13c2-3.27,3.69-5.23,4.62-6.03-.29,1.19-1.25,3.61-3.25,6.88-1.99,3.29-3.69,5.24-4.62,6.04,.29-1.21,1.26-3.61,3.26-6.9Z"/>
          </g>
          <g>
            <path class="cls-6" d="M43.17,346.51c-1.14-7.09,3.63-13.77,10.65-14.93,7.03-1.16,13.64,3.66,14.78,10.75,1.13,7.11-3.64,13.79-10.66,14.95-7.02,1.16-13.64-3.68-14.77-10.77Z"/>
            <path class="cls-103" d="M48.23,345.67c-.68-4.27,2.18-8.26,6.41-8.98,4.22-.69,8.2,2.22,8.88,6.47,.68,4.27-2.18,8.3-6.39,8.99-4.23,.69-8.2-2.2-8.89-6.49Z"/>
          </g>
          <path class="cls-114" d="M192.3,398.56c0-4.21-1.69-8.05-4.43-10.81h-17.06c-2.73,2.75-4.43,6.59-4.43,10.81,0,3.98,1.53,7.59,3.99,10.31h17.93c2.45-2.72,3.99-6.33,3.99-10.31Z"/>
          <g>
            <path class="cls-60" d="M137.73,392.02c0-.96-3.82-1.74-8.53-1.74s-8.53,.78-8.53,1.74c-2.74,2.77-4.43,6.59-4.43,10.82,0,3.98,1.53,7.57,3.99,10.29h17.93c2.46-2.72,3.98-6.31,3.98-10.29,0-4.23-1.69-8.05-4.43-10.82Z"/>
            <path class="cls-20" d="M138.17,413.14c0,.96-4.02,1.72-8.97,1.72s-8.97-.76-8.97-1.72,4.01-1.72,8.97-1.72,8.97,.78,8.97,1.72Z"/>
            <path class="cls-103" d="M129.2,413.96c-3.8,0-6.34-.43-7.51-.82,1.16-.37,3.71-.8,7.51-.8s6.34,.43,7.51,.8c-1.17,.39-3.7,.82-7.51,.82Z"/>
          </g>
          <g>
            <path class="cls-3" d="M64.76,401.73c0,7.18-5.77,13.01-12.88,13.01s-12.88-5.83-12.88-13.01,5.77-13.03,12.88-13.03,12.88,5.83,12.88,13.03Z"/>
            <path class="cls-103" d="M59.62,401.73c0,4.32-3.46,7.82-7.74,7.82s-7.75-3.5-7.75-7.82,3.46-7.84,7.75-7.84,7.74,3.5,7.74,7.84Z"/>
          </g>
          <path class="cls-10" d="M95.89,401.12c0-4.23-1.69-8.05-4.43-10.84h-17.06c-2.74,2.79-4.43,6.61-4.43,10.84,0,3.98,1.53,7.57,3.99,10.31h17.93c2.45-2.74,3.99-6.33,3.99-10.31Z"/>
          <g>
            <path class="cls-56" d="M323.16,375.07c.77-.53-.76-4.16-3.42-8.09-2.66-3.93-5.44-6.66-6.22-6.15-3.81-.69-7.89,.05-11.35,2.44-3.24,2.26-5.3,5.56-6.14,9.15l10.13,14.95c3.6,.52,7.41-.23,10.65-2.49,3.45-2.38,5.62-5.95,6.35-9.81Z"/>
            <path class="cls-14" d="M306.16,387.37c-.78,.53-3.67-2.36-6.47-6.49-2.8-4.14-4.44-7.93-3.66-8.46,.78-.53,3.67,2.36,6.46,6.5,2.79,4.12,4.44,7.91,3.66,8.44Z"/>
            <path class="cls-103" d="M300.42,380.36c-2.15-3.2-3.22-5.56-3.57-6.72,.96,.73,2.76,2.61,4.9,5.79,2.14,3.16,3.23,5.53,3.58,6.72-.96-.76-2.76-2.63-4.91-5.79Z"/>
          </g>
          <g>
            <path class="cls-27" d="M273.56,409.25c.77-.53-.76-4.16-3.41-8.09-2.68-3.93-5.46-6.68-6.23-6.15-3.82-.71-7.88,.05-11.34,2.44-3.24,2.24-5.31,5.54-6.15,9.15l10.12,14.95c3.61,.5,7.42-.23,10.66-2.47,3.46-2.4,5.62-5.97,6.35-9.83Z"/>
            <path class="cls-14" d="M256.56,421.55c-.77,.55-3.66-2.38-6.46-6.5-2.79-4.14-4.43-7.91-3.66-8.44,.78-.55,3.67,2.36,6.47,6.49,2.8,4.14,4.43,7.93,3.66,8.46Z"/>
            <path class="cls-103" d="M250.84,414.53c-2.16-3.18-3.23-5.55-3.58-6.72,.97,.75,2.76,2.63,4.91,5.79,2.15,3.18,3.23,5.54,3.58,6.74-.97-.76-2.76-2.63-4.91-5.81Z"/>
          </g>
          <g>
            <path class="cls-67" d="M190.23,357.44c0,7.18-5.77,13.01-12.88,13.01s-12.87-5.83-12.87-13.01,5.76-13.01,12.87-13.01,12.88,5.81,12.88,13.01Z"/>
            <path class="cls-103" d="M185.1,357.44c0,4.32-3.46,7.84-7.74,7.84s-7.74-3.52-7.74-7.84,3.47-7.82,7.74-7.82,7.74,3.5,7.74,7.82Z"/>
          </g>
          <path class="cls-61" d="M118.17,386.39c0-4.25-1.69-8.07-4.43-10.84h-17.05c-2.74,2.77-4.43,6.59-4.43,10.84,0,3.96,1.53,7.55,3.98,10.27h17.93c2.46-2.72,3.99-6.31,3.99-10.27Z"/>
          <g>
            <path class="cls-1" d="M137.81,351.2c0-.94-3.81-1.71-8.52-1.71s-8.53,.76-8.53,1.71c-2.73,2.77-4.43,6.61-4.43,10.84,0,3.98,1.54,7.57,3.99,10.29h17.93c2.45-2.72,3.99-6.31,3.99-10.29,0-4.23-1.7-8.07-4.43-10.84Z"/>
            <path class="cls-113" d="M138.25,372.33c0,.96-4.01,1.72-8.96,1.72s-8.97-.76-8.97-1.72,4.02-1.71,8.97-1.71,8.96,.75,8.96,1.71Z"/>
            <path class="cls-103" d="M129.29,373.15c-3.81,0-6.34-.44-7.51-.82,1.16-.37,3.7-.82,7.51-.82s6.34,.44,7.51,.82c-1.17,.37-3.7,.82-7.51,.82Z"/>
          </g>
          <path class="cls-7" d="M102.43,352.71c0-4.23-1.69-8.05-4.43-10.84h-17.06c-2.73,2.79-4.42,6.61-4.42,10.84,0,3.98,1.53,7.57,3.99,10.31h17.93c2.46-2.74,3.99-6.33,3.99-10.31Z"/>
          <g>
            <path class="cls-25" d="M291.27,373.72c0,7.18-5.76,13.01-12.88,13.01s-12.88-5.83-12.88-13.01,5.77-13.03,12.88-13.03,12.88,5.83,12.88,13.03Z"/>
            <path class="cls-103" d="M286.14,373.72c0,4.3-3.47,7.82-7.74,7.82s-7.74-3.52-7.74-7.82,3.47-7.82,7.74-7.82,7.74,3.5,7.74,7.82Z"/>
          </g>
          <path class="cls-8" d="M72.58,422.19c0-4.23-1.7-8.07-4.43-10.84h-17.05c-2.73,2.77-4.43,6.61-4.43,10.84,0,3.98,1.54,7.57,3.99,10.29h17.94c2.45-2.72,3.99-6.31,3.99-10.29Z"/>
          <g>
            <path class="cls-84" d="M43.39,354.54c0-.96-3.82-1.72-8.53-1.72s-8.52,.76-8.52,1.72c-2.73,2.77-4.43,6.59-4.43,10.82,0,3.98,1.53,7.57,3.99,10.29h17.93c2.46-2.72,3.99-6.31,3.99-10.29,0-4.23-1.69-8.05-4.43-10.82Z"/>
            <path class="cls-73" d="M43.83,375.65c0,.96-4.02,1.72-8.97,1.72s-8.96-.76-8.96-1.72,4.02-1.71,8.96-1.71,8.97,.78,8.97,1.71Z"/>
            <path class="cls-103" d="M34.86,376.47c-3.8,0-6.33-.43-7.49-.82,1.16-.37,3.69-.8,7.49-.8s6.35,.43,7.51,.8c-1.16,.39-3.71,.82-7.51,.82Z"/>
          </g>
          <g>
            <path class="cls-86" d="M97.3,375c0,7.18-5.76,13.01-12.87,13.01s-12.88-5.83-12.88-13.01,5.77-13.03,12.88-13.03,12.87,5.83,12.87,13.03Z"/>
            <path class="cls-103" d="M92.17,375c0,4.32-3.46,7.82-7.73,7.82s-7.75-3.5-7.75-7.82,3.47-7.84,7.75-7.84,7.73,3.5,7.73,7.84Z"/>
          </g>
          <g>
            <path class="cls-24" d="M165.05,398.8c-3.9,6.01-11.89,7.7-17.83,3.75-5.95-3.95-7.62-12.01-3.71-18.02,3.9-6.01,11.89-7.7,17.83-3.75,5.95,3.93,7.6,12.01,3.71,18.02Z"/>
            <path class="cls-103" d="M160.75,395.95c-2.34,3.61-7.14,4.62-10.71,2.26-3.59-2.36-4.58-7.23-2.24-10.84,2.34-3.61,7.14-4.62,10.72-2.26,3.57,2.36,4.57,7.22,2.22,10.84Z"/>
          </g>
          <path class="cls-30" d="M245.67,402.03c2.3-3.54,2.96-7.68,2.18-11.52l-14.25-9.44c-3.79,.8-7.29,3.06-9.58,6.59-2.16,3.34-2.83,7.2-2.25,10.82l14.99,9.95c3.53-.92,6.76-3.07,8.92-6.42Z"/>
          <path class="cls-117" d="M182.22,342.69c2.29-3.54,2.95-7.68,2.18-11.52l-14.28-9.46c-3.78,.82-7.28,3.09-9.56,6.61-2.16,3.32-2.83,7.18-2.26,10.82l15,9.94c3.53-.91,6.77-3.07,8.93-6.4Z"/>
          <path class="cls-102" d="M319.98,420.34c2.29-3.54,2.94-7.66,2.18-11.5l-14.28-9.45c-3.79,.8-7.29,3.06-9.57,6.59-2.17,3.34-2.83,7.2-2.25,10.82l14.99,9.95c3.54-.94,6.77-3.07,8.93-6.42Z"/>
          <g>
            <path class="cls-119" d="M246.26,338.1c.52-.8-2.26-3.55-6.21-6.17-3.93-2.59-7.55-4.09-8.05-3.29-3.81,.82-7.3,3.07-9.59,6.61-2.16,3.32-2.82,7.18-2.25,10.82l15,9.94c3.53-.92,6.76-3.07,8.93-6.4,2.28-3.54,2.94-7.68,2.17-11.52Z"/>
            <path class="cls-73" d="M235.17,356.02c-.51,.8-4.29-.8-8.44-3.54-4.13-2.74-7.07-5.62-6.55-6.42,.51-.8,4.3,.8,8.43,3.55,4.14,2.74,7.09,5.6,6.57,6.4Z"/>
            <path class="cls-103" d="M227.23,351.71c-3.18-2.1-5.07-3.87-5.83-4.83,1.17,.34,3.53,1.37,6.71,3.48,3.19,2.1,5.07,3.87,5.84,4.85-1.18-.34-3.53-1.39-6.72-3.5Z"/>
          </g>
          <g>
            <path class="cls-19" d="M293.34,338.54c-3.89,6.03-11.87,7.68-17.82,3.75-5.95-3.95-7.6-12.01-3.7-18.02,3.9-6.01,11.87-7.7,17.82-3.75,5.94,3.95,7.6,12,3.7,18.02Z"/>
            <path class="cls-103" d="M289.05,335.7c-2.34,3.61-7.14,4.62-10.71,2.26-3.59-2.36-4.58-7.23-2.24-10.84,2.34-3.61,7.15-4.62,10.73-2.26,3.57,2.36,4.56,7.23,2.22,10.84Z"/>
          </g>
          <path class="cls-5" d="M167.23,419.47c0-4.25-1.69-8.07-4.42-10.84h-17.05c-2.74,2.77-4.43,6.59-4.43,10.84,0,3.96,1.52,7.55,3.98,10.27h17.93c2.46-2.72,3.99-6.31,3.99-10.27Z"/>
          <g>
            <path class="cls-110" d="M225.54,360.92c0,7.18-5.77,13.01-12.88,13.01s-12.88-5.83-12.88-13.01,5.77-13.03,12.88-13.03,12.88,5.83,12.88,13.03Z"/>
            <path class="cls-103" d="M220.4,360.92c0,4.32-3.46,7.82-7.74,7.82s-7.74-3.5-7.74-7.82,3.46-7.86,7.74-7.86,7.74,3.52,7.74,7.86Z"/>
          </g>
          <g>
            <path class="cls-36" d="M120.02,413.69c-1.14-7.11,3.63-13.79,10.65-14.95,7.01-1.14,13.62,3.68,14.76,10.77,1.14,7.09-3.63,13.79-10.64,14.93-7.01,1.15-13.63-3.66-14.77-10.75Z"/>
            <path class="cls-103" d="M125.09,412.85c-.69-4.27,2.17-8.3,6.4-8.99,4.23-.68,8.2,2.22,8.88,6.49,.69,4.27-2.17,8.28-6.4,8.99-4.22,.68-8.2-2.22-8.88-6.49Z"/>
          </g>
          <g>
            <path class="cls-26" d="M133.84,357.28c-1.14-7.09,3.62-13.77,10.65-14.91,7.01-1.17,13.63,3.66,14.77,10.75,1.13,7.09-3.63,13.79-10.65,14.95-7.03,1.15-13.64-3.66-14.77-10.79Z"/>
            <path class="cls-103" d="M138.91,356.46c-.69-4.27,2.18-8.28,6.4-8.98,4.21-.71,8.19,2.2,8.88,6.47,.68,4.28-2.19,8.28-6.41,8.98-4.22,.69-8.2-2.2-8.87-6.47Z"/>
          </g>
          <path class="cls-79" d="M236.24,389.59c-1.69,3.86-1.69,8.05-.32,11.71l15.59,7.02c3.62-1.4,6.71-4.21,8.4-8.07,1.6-3.63,1.65-7.54,.51-11.06l-16.38-7.38c-3.34,1.48-6.2,4.12-7.8,7.77Z"/>
          <g>
            <path class="cls-91" d="M202.18,406.37c-.39,.87,2.8,3.15,7.11,5.1,4.29,1.92,8.09,2.79,8.47,1.94,3.62-1.42,6.71-4.21,8.41-8.09,1.6-3.63,1.64-7.54,.51-11.04l-16.38-7.39c-3.34,1.49-6.19,4.12-7.79,7.77-1.71,3.87-1.7,8.05-.32,11.71Z"/>
            <path class="cls-73" d="M210.29,386.89c.38-.87,4.36,.09,8.89,2.13,4.5,2.04,7.87,4.39,7.48,5.26-.38,.85-4.36-.09-8.86-2.11-4.54-2.04-7.9-4.41-7.51-5.28Z"/>
            <path class="cls-103" d="M218.81,389.84c3.47,1.56,5.62,3,6.52,3.84-1.21-.14-3.7-.78-7.18-2.35-3.48-1.56-5.62-3-6.53-3.84,1.22,.14,3.7,.8,7.19,2.35Z"/>
          </g>
          <g>
            <path class="cls-50" d="M29.29,434.93c.8,.51,3.45-2.38,5.92-6.45,2.47-4.05,3.82-7.73,3.02-8.23-.91-3.82-3.24-7.27-6.79-9.49-3.35-2.1-7.18-2.65-10.77-1.97l-9.41,15.44c1.01,3.54,3.23,6.74,6.58,8.83,3.56,2.2,7.68,2.76,11.45,1.87Z"/>
            <path class="cls-73" d="M11.27,424.23c-.8-.5,.67-4.37,3.27-8.66,2.6-4.23,5.34-7.29,6.15-6.79,.8,.5-.66,4.35-3.25,8.62-2.6,4.27-5.36,7.32-6.16,6.83Z"/>
            <path class="cls-103" d="M15.3,416.07c1.99-3.27,3.68-5.23,4.61-6.03-.29,1.19-1.25,3.61-3.25,6.88s-3.69,5.24-4.62,6.04c.3-1.21,1.26-3.61,3.26-6.9Z"/>
          </g>
          <g>
            <path class="cls-41" d="M330.96,397.77c0,7.2-5.77,13.03-12.88,13.03s-12.88-5.83-12.88-13.03,5.77-13.01,12.88-13.01,12.88,5.83,12.88,13.01Z"/>
            <path class="cls-103" d="M325.82,397.77c0,4.34-3.47,7.84-7.74,7.84s-7.74-3.5-7.74-7.84,3.46-7.82,7.74-7.82,7.74,3.5,7.74,7.82Z"/>
          </g>
          <path class="cls-38" d="M338.78,418.24c0-4.23-1.7-8.07-4.43-10.84h-17.05c-2.73,2.77-4.43,6.61-4.43,10.84,0,3.98,1.53,7.57,3.98,10.29h17.94c2.46-2.72,3.99-6.31,3.99-10.29Z"/>
          <g>
            <path class="cls-115" d="M178.55,359.96c0-.94-3.82-1.72-8.54-1.72s-8.52,.78-8.52,1.72c-2.74,2.79-4.43,6.61-4.43,10.84,0,3.98,1.53,7.57,3.99,10.29h17.94c2.45-2.72,3.98-6.31,3.98-10.29,0-4.23-1.7-8.05-4.43-10.84Z"/>
            <path class="cls-73" d="M178.99,381.09c0,.96-4.02,1.72-8.98,1.72s-8.96-.76-8.96-1.72,4.02-1.71,8.96-1.71,8.98,.76,8.98,1.71Z"/>
            <path class="cls-103" d="M170.01,381.89c-3.8,0-6.33-.43-7.5-.8,1.16-.37,3.7-.8,7.5-.8s6.35,.43,7.52,.8c-1.17,.37-3.71,.8-7.52,.8Z"/>
          </g>
          <g>
            <path class="cls-57" d="M339.49,402.1c2.9-6.56,10.5-9.53,16.99-6.59,6.5,2.93,9.41,10.63,6.51,17.2-2.89,6.56-10.49,9.51-17,6.58-6.49-2.93-9.4-10.61-6.5-17.19Z"/>
            <path class="cls-103" d="M344.18,404.22c1.75-3.95,6.32-5.72,10.22-3.96,3.91,1.76,5.67,6.4,3.93,10.34-1.75,3.95-6.32,5.72-10.23,3.96-3.9-1.78-5.64-6.4-3.91-10.34Z"/>
          </g>
          <g>
            <path class="cls-120" d="M131.04,346.88c0,7.18-5.77,13.01-12.87,13.01s-12.87-5.83-12.87-13.01,5.77-13.01,12.87-13.01,12.87,5.83,12.87,13.01Z"/>
            <path class="cls-103" d="M125.91,346.88c0,4.32-3.47,7.84-7.75,7.84s-7.74-3.52-7.74-7.84,3.46-7.82,7.74-7.82,7.75,3.5,7.75,7.82Z"/>
          </g>
          <g>
            <path class="cls-13" d="M286.39,395.7c0-.94-3.81-1.71-8.52-1.71s-8.53,.76-8.53,1.71c-2.73,2.79-4.43,6.59-4.43,10.84,0,3.96,1.54,7.57,3.99,10.31h17.93c2.45-2.74,3.98-6.35,3.98-10.31,0-4.25-1.69-8.05-4.43-10.84Z"/>
            <path class="cls-42" d="M286.84,416.85c0,.92-4.02,1.71-8.97,1.71s-8.96-.78-8.96-1.71,4.02-1.74,8.96-1.74,8.97,.78,8.97,1.74Z"/>
            <path class="cls-103" d="M277.87,417.65c-3.81,0-6.34-.44-7.51-.8,1.16-.39,3.7-.84,7.51-.84s6.34,.44,7.51,.84c-1.17,.35-3.7,.8-7.51,.8Z"/>
          </g>
          <g>
            <path class="cls-37" d="M120.41,382.32c-.68,.66,1.41,3.98,4.65,7.43,3.26,3.47,6.44,5.72,7.12,5.07,3.88,.09,7.78-1.31,10.81-4.23,2.84-2.74,4.35-6.35,4.62-10.02l-12.37-13.13c-3.64,.09-7.28,1.44-10.12,4.18-3.04,2.91-4.61,6.79-4.72,10.72Z"/>
            <path class="cls-14" d="M135.25,367.43c.68-.64,4,1.76,7.41,5.39,3.41,3.63,5.62,7.09,4.95,7.75-.69,.66-4.01-1.76-7.41-5.39-3.41-3.61-5.63-7.09-4.95-7.75Z"/>
            <path class="cls-103" d="M142.02,373.43c2.63,2.79,4.06,4.94,4.58,6.06-1.07-.59-3.13-2.15-5.75-4.94-2.62-2.77-4.07-4.94-4.6-6.06,1.07,.59,3.14,2.15,5.77,4.94Z"/>
          </g>
          <g>
            <path class="cls-58" d="M15.75,406.7c.15,.94,4.04,1.08,8.69,.32,4.65-.75,8.29-2.15,8.14-3.07,2.25-3.18,3.32-7.25,2.65-11.41-.63-3.93-2.71-7.22-5.57-9.51l-17.69,2.9c-2,3.09-2.94,6.88-2.31,10.82,.66,4.16,2.95,7.66,6.08,9.95Z"/>
            <path class="cls-99" d="M11.97,385.93c-.15-.96,3.69-2.35,8.57-3.15,4.89-.8,8.97-.71,9.12,.25,.15,.92-3.69,2.35-8.57,3.13-4.89,.82-8.96,.69-9.12-.23Z"/>
            <path class="cls-103" d="M20.7,383.67c3.75-.62,6.33-.6,7.52-.41-1.08,.55-3.51,1.39-7.28,2.01-3.74,.62-6.33,.6-7.53,.41,1.09-.55,3.53-1.39,7.29-2.01Z"/>
          </g>
          <path class="cls-33" d="M192.63,343.17c-1.71,3.87-1.71,8.07-.33,11.73l15.57,7.02c3.61-1.42,6.7-4.21,8.41-8.09,1.6-3.63,1.65-7.54,.51-11.04l-16.38-7.39c-3.34,1.49-6.18,4.12-7.78,7.77Z"/>
          <path class="cls-88" d="M350.56,377.61c0-4.23-1.69-8.05-4.43-10.82h-17.05c-2.73,2.77-4.43,6.59-4.43,10.82,0,3.98,1.53,7.59,3.98,10.31h17.93c2.45-2.72,3.99-6.33,3.99-10.31Z"/>
          <path class="cls-112" d="M304.52,405.43c0-4.23-1.69-8.05-4.42-10.82h-17.06c-2.73,2.77-4.42,6.59-4.42,10.82,0,4,1.53,7.57,3.98,10.29h17.93c2.45-2.72,3.98-6.29,3.98-10.29Z"/>
          <g>
            <path class="cls-22" d="M249.96,398.87c0-.96-3.81-1.71-8.53-1.71s-8.53,.75-8.53,1.71c-2.73,2.77-4.43,6.59-4.43,10.84,0,3.98,1.53,7.55,3.99,10.29h17.94c2.46-2.74,3.98-6.31,3.98-10.29,0-4.25-1.7-8.07-4.43-10.84Z"/>
            <path class="cls-20" d="M250.4,420c0,.94-4.02,1.72-8.97,1.72s-8.97-.78-8.97-1.72,4.01-1.72,8.97-1.72,8.97,.78,8.97,1.72Z"/>
            <path class="cls-103" d="M241.43,420.8c-3.8,0-6.34-.43-7.51-.8,1.16-.39,3.7-.82,7.51-.82s6.33,.43,7.5,.82c-1.17,.37-3.7,.8-7.5,.8Z"/>
          </g>
          <g>
            <path class="cls-82" d="M302.45,364.3c0,7.18-5.76,13.03-12.88,13.03s-12.87-5.85-12.87-13.03,5.76-13.03,12.87-13.03,12.88,5.83,12.88,13.03Z"/>
            <path class="cls-103" d="M297.32,364.3c0,4.32-3.46,7.84-7.74,7.84s-7.73-3.52-7.73-7.84,3.47-7.84,7.73-7.84,7.74,3.5,7.74,7.84Z"/>
          </g>
          <g>
            <path class="cls-49" d="M250.04,358.06c0-.96-3.81-1.72-8.53-1.72s-8.53,.76-8.53,1.72c-2.73,2.77-4.43,6.61-4.43,10.82s1.53,7.59,3.98,10.31h17.93c2.45-2.72,3.99-6.31,3.99-10.31,0-4.21-1.7-8.05-4.43-10.82Z"/>
            <path class="cls-113" d="M250.48,379.17c0,.96-4.02,1.72-8.96,1.72s-8.97-.76-8.97-1.72,4.02-1.71,8.97-1.71,8.96,.78,8.96,1.71Z"/>
            <path class="cls-103" d="M241.51,379.99c-3.81,0-6.34-.43-7.51-.82,1.16-.37,3.7-.8,7.51-.8s6.34,.43,7.51,.8c-1.17,.39-3.7,.82-7.51,.82Z"/>
          </g>
          <g>
            <path class="cls-55" d="M277.28,405.66c-3.9,6.01-11.88,7.68-17.83,3.73-5.95-3.93-7.61-12-3.71-18,3.9-6.03,11.89-7.7,17.83-3.75,5.95,3.93,7.6,12.02,3.71,18.02Z"/>
            <path class="cls-103" d="M272.98,402.81c-2.34,3.61-7.14,4.62-10.71,2.24-3.59-2.36-4.58-7.22-2.24-10.84,2.35-3.61,7.14-4.62,10.73-2.24,3.57,2.36,4.57,7.22,2.22,10.84Z"/>
          </g>
          <path class="cls-53" d="M355.67,431.91c2.3-3.54,2.96-7.68,2.17-11.52l-14.26-9.46c-3.79,.82-7.28,3.07-9.57,6.61-2.17,3.32-2.83,7.18-2.26,10.82l14.99,9.94c3.53-.91,6.76-3.07,8.92-6.4Z"/>
          <path class="cls-40" d="M294.45,349.55c2.29-3.54,2.95-7.7,2.17-11.52l-14.27-9.47c-3.78,.82-7.28,3.09-9.57,6.63-2.16,3.32-2.83,7.18-2.25,10.81l14.99,9.95c3.54-.92,6.77-3.07,8.93-6.4Z"/>
          <g>
            <path class="cls-92" d="M73.82,376.05c.52-.78-2.27-3.54-6.21-6.15-3.93-2.61-7.54-4.09-8.05-3.31-3.8,.82-7.3,3.07-9.59,6.61-2.16,3.34-2.82,7.2-2.25,10.84l15,9.94c3.54-.92,6.77-3.07,8.93-6.4,2.29-3.54,2.95-7.68,2.17-11.54Z"/>
            <path class="cls-73" d="M62.72,393.96c-.51,.82-4.29-.78-8.44-3.52-4.13-2.74-7.06-5.62-6.56-6.42,.52-.78,4.3,.8,8.42,3.55,4.14,2.74,7.09,5.6,6.57,6.38Z"/>
            <path class="cls-103" d="M54.79,389.68c-3.18-2.1-5.06-3.87-5.83-4.83,1.17,.32,3.53,1.37,6.71,3.48,3.19,2.1,5.07,3.87,5.84,4.83-1.19-.32-3.53-1.37-6.72-3.48Z"/>
          </g>
          <path class="cls-18" d="M68.83,375.92c0-4.21-1.7-8.03-4.43-10.81h-17.05c-2.74,2.77-4.43,6.59-4.43,10.81,0,3.98,1.52,7.59,3.98,10.33h17.93c2.46-2.74,3.99-6.35,3.99-10.33Z"/>
          <g>
            <path class="cls-69" d="M337.76,367.76c0,7.2-5.76,13.01-12.87,13.01s-12.89-5.81-12.89-13.01,5.77-13.01,12.89-13.01,12.87,5.83,12.87,13.01Z"/>
            <path class="cls-103" d="M332.63,367.76c0,4.32-3.46,7.82-7.74,7.82s-7.74-3.5-7.74-7.82,3.46-7.84,7.74-7.84,7.74,3.5,7.74,7.84Z"/>
          </g>
          <g>
            <path class="cls-29" d="M232.24,420.53c-1.14-7.09,3.63-13.77,10.65-14.93,7.01-1.16,13.62,3.66,14.76,10.77,1.14,7.09-3.63,13.79-10.64,14.93-7.01,1.15-13.63-3.68-14.77-10.77Z"/>
            <path class="cls-103" d="M237.31,419.7c-.69-4.27,2.17-8.28,6.4-8.98,4.22-.69,8.2,2.2,8.88,6.47,.68,4.27-2.17,8.28-6.4,8.99-4.23,.68-8.2-2.22-8.88-6.49Z"/>
          </g>
          <g>
            <path class="cls-45" d="M246.07,364.16c-1.14-7.11,3.62-13.79,10.65-14.95,7.01-1.16,13.63,3.66,14.77,10.77,1.13,7.09-3.63,13.77-10.65,14.93-7.03,1.16-13.64-3.68-14.77-10.75Z"/>
            <path class="cls-103" d="M251.13,363.3c-.69-4.25,2.18-8.28,6.4-8.96,4.22-.69,8.19,2.2,8.89,6.45,.68,4.28-2.19,8.3-6.41,8.99-4.22,.69-8.2-2.2-8.88-6.49Z"/>
          </g>
          <g>
            <path class="cls-59" d="M324.74,360.97c-.38,.85,2.8,3.13,7.11,5.08,4.28,1.92,8.09,2.79,8.46,1.92,3.63-1.4,6.71-4.2,8.41-8.05,1.61-3.64,1.65-7.55,.51-11.05l-16.38-7.39c-3.34,1.49-6.19,4.14-7.79,7.77-1.7,3.86-1.69,8.07-.32,11.73Z"/>
            <path class="cls-73" d="M332.85,341.48c.38-.85,4.37,.11,8.89,2.13,4.5,2.04,7.87,4.41,7.48,5.26-.38,.89-4.36-.07-8.86-2.11-4.53-2.04-7.9-4.39-7.51-5.28Z"/>
            <path class="cls-103" d="M341.38,344.44c3.48,1.56,5.62,2.99,6.52,3.82-1.22-.12-3.7-.76-7.17-2.35-3.49-1.56-5.62-3-6.54-3.82,1.22,.12,3.7,.78,7.19,2.35Z"/>
          </g>
          <g>
            <path class="cls-97" d="M290.77,366.82c0-.96-3.82-1.71-8.53-1.71s-8.52,.75-8.52,1.71c-2.73,2.77-4.43,6.59-4.43,10.84,0,3.96,1.53,7.55,3.99,10.29h17.94c2.45-2.74,3.98-6.33,3.98-10.29,0-4.25-1.69-8.07-4.43-10.84Z"/>
            <path class="cls-73" d="M291.22,387.95c0,.94-4.02,1.72-8.98,1.72s-8.96-.78-8.96-1.72,4.02-1.71,8.96-1.71,8.98,.75,8.98,1.71Z"/>
            <path class="cls-103" d="M282.24,388.77c-3.8,0-6.34-.44-7.5-.82,1.16-.37,3.7-.82,7.5-.82s6.35,.44,7.52,.82c-1.17,.37-3.71,.82-7.52,.82Z"/>
          </g>
          <g>
            <path class="cls-81" d="M215.64,427.22c0-.96-3.82-1.74-8.53-1.74s-8.53,.78-8.53,1.74c-2.73,2.77-4.43,6.59-4.43,10.82,0,3.98,1.53,7.57,3.99,10.29h17.93c2.45-2.72,3.99-6.31,3.99-10.29,0-4.23-1.69-8.05-4.42-10.82Z"/>
            <path class="cls-99" d="M216.07,448.33c0,.96-4.02,1.72-8.96,1.72s-8.96-.76-8.96-1.72,4.01-1.72,8.96-1.72,8.96,.78,8.96,1.72Z"/>
            <path class="cls-103" d="M207.11,449.15c-3.8,0-6.35-.44-7.5-.82,1.15-.37,3.7-.82,7.5-.82s6.34,.44,7.51,.82c-1.16,.37-3.7,.82-7.51,.82Z"/>
          </g>
          <g>
            <path class="cls-95" d="M203.8,418.67c.77-.53-.77-4.16-3.42-8.09-2.67-3.93-5.46-6.68-6.23-6.15-3.81-.71-7.89,.04-11.34,2.44-3.24,2.26-5.3,5.55-6.15,9.14l10.13,14.97c3.61,.52,7.41-.23,10.65-2.49,3.45-2.38,5.62-5.95,6.35-9.81Z"/>
            <path class="cls-14" d="M186.79,430.97c-.77,.53-3.67-2.38-6.46-6.51-2.8-4.12-4.44-7.93-3.66-8.46,.78-.53,3.67,2.38,6.47,6.52,2.8,4.12,4.43,7.91,3.66,8.44Z"/>
            <path class="cls-103" d="M181.06,423.95c-2.15-3.16-3.23-5.53-3.57-6.72,.97,.75,2.75,2.63,4.9,5.81,2.15,3.16,3.23,5.53,3.59,6.72-.97-.76-2.76-2.63-4.91-5.81Z"/>
          </g>
          <g>
            <path class="cls-116" d="M163.45,428.67c0,7.18-5.77,13.01-12.88,13.01s-12.88-5.83-12.88-13.01,5.77-13.03,12.88-13.03,12.88,5.83,12.88,13.03Z"/>
            <path class="cls-103" d="M158.31,428.67c0,4.32-3.47,7.82-7.74,7.82s-7.74-3.5-7.74-7.82,3.46-7.84,7.74-7.84,7.74,3.5,7.74,7.84Z"/>
          </g>
          <path class="cls-39" d="M222.74,432.57c0-4.23-1.7-8.05-4.43-10.82h-17.05c-2.73,2.77-4.43,6.59-4.43,10.82,0,3.98,1.53,7.57,3.99,10.31h17.93c2.46-2.74,4-6.33,4-10.31Z"/>
          <g>
            <path class="cls-100" d="M174.63,419.24c0,7.2-5.76,13.05-12.87,13.05s-12.88-5.85-12.88-13.05,5.76-13.01,12.88-13.01,12.87,5.83,12.87,13.01Z"/>
            <path class="cls-103" d="M169.49,419.24c0,4.34-3.46,7.84-7.74,7.84s-7.74-3.5-7.74-7.84,3.47-7.82,7.74-7.82,7.74,3.5,7.74,7.82Z"/>
          </g>
          <g>
            <path class="cls-98" d="M211.56,380.7c0,7.2-5.77,13.01-12.87,13.01s-12.88-5.81-12.88-13.01,5.77-13.03,12.88-13.03,12.87,5.85,12.87,13.03Z"/>
            <path class="cls-103" d="M206.43,380.7c0,4.32-3.46,7.82-7.74,7.82s-7.74-3.5-7.74-7.82,3.45-7.82,7.74-7.82,7.74,3.48,7.74,7.82Z"/>
          </g>
          <g>
            <path class="cls-96" d="M118.23,419.09c-1.14-7.09,3.63-13.77,10.65-14.93,7.02-1.15,13.63,3.66,14.77,10.75,1.13,7.11-3.63,13.79-10.64,14.95-7.03,1.14-13.64-3.68-14.77-10.77Z"/>
            <path class="cls-103" d="M123.3,418.26c-.68-4.27,2.18-8.28,6.4-8.98,4.21-.69,8.2,2.2,8.89,6.47,.68,4.27-2.19,8.3-6.4,8.99-4.22,.69-8.21-2.22-8.89-6.49Z"/>
          </g>
          <g>
            <path class="cls-78" d="M196.92,415.91c-.39,.87,2.79,3.15,7.11,5.08,4.28,1.95,8.09,2.81,8.46,1.95,3.63-1.42,6.72-4.23,8.42-8.07,1.6-3.64,1.64-7.55,.5-11.07l-16.38-7.38c-3.34,1.48-6.19,4.14-7.79,7.77-1.71,3.86-1.69,8.07-.32,11.71Z"/>
            <path class="cls-73" d="M205.03,396.43c.38-.87,4.37,.09,8.89,2.12,4.5,2.04,7.87,4.41,7.48,5.28-.38,.87-4.36-.09-8.87-2.13-4.53-2.03-7.89-4.39-7.51-5.26Z"/>
            <path class="cls-103" d="M213.55,399.4c3.48,1.56,5.61,2.99,6.52,3.82-1.21-.14-3.7-.78-7.17-2.35-3.48-1.56-5.62-3-6.53-3.84,1.22,.14,3.71,.8,7.19,2.36Z"/>
          </g>
          <g>
            <path class="cls-65" d="M233.86,416.52c0-.96-3.82-1.72-8.53-1.72s-8.53,.76-8.53,1.72c-2.73,2.77-4.43,6.59-4.43,10.84,0,3.96,1.53,7.55,3.99,10.27h17.93c2.46-2.72,3.99-6.31,3.99-10.27,0-4.25-1.7-8.07-4.43-10.84Z"/>
            <path class="cls-73" d="M234.29,437.63c0,.96-4.01,1.72-8.97,1.72s-8.96-.76-8.96-1.72,4.02-1.71,8.96-1.71,8.97,.76,8.97,1.71Z"/>
            <path class="cls-103" d="M225.32,438.47c-3.81,0-6.34-.44-7.5-.84,1.16-.36,3.69-.82,7.5-.82s6.34,.46,7.51,.82c-1.17,.39-3.71,.84-7.51,.84Z"/>
          </g>
          <g>
            <path class="cls-107" d="M232.64,389.18c-.68,.66,1.41,3.98,4.64,7.43,3.27,3.45,6.45,5.7,7.13,5.07,3.88,.09,7.78-1.33,10.81-4.25,2.84-2.74,4.36-6.35,4.62-10.02l-12.37-13.12c-3.64,.09-7.28,1.42-10.12,4.18-3.04,2.91-4.61,6.79-4.72,10.72Z"/>
            <path class="cls-14" d="M247.48,374.29c.68-.68,4,1.76,7.42,5.39,3.41,3.63,5.62,7.07,4.95,7.73-.69,.66-4.01-1.74-7.42-5.37-3.41-3.63-5.63-7.09-4.95-7.75Z"/>
            <path class="cls-103" d="M254.25,380.29c2.63,2.77,4.06,4.94,4.59,6.04-1.07-.57-3.13-2.15-5.75-4.92-2.62-2.79-4.07-4.94-4.6-6.06,1.07,.6,3.14,2.13,5.77,4.94Z"/>
          </g>
          <path class="cls-66" d="M64.88,415.31c-1.72,3.87-1.71,8.07-.33,11.73l15.57,7.02c3.61-1.4,6.7-4.21,8.41-8.07,1.6-3.63,1.65-7.54,.51-11.06l-16.39-7.39c-3.33,1.49-6.18,4.14-7.77,7.77Z"/>
        </g>
        <polygon class="cls-31" points="368.31 473.07 13.65 473.07 0 437.4 381.96 437.4 368.31 473.07"/>
      </g>
      <g>
        <path class="cls-44" d="M286.52,502.9c-3.89-1.78-95.47-43.39-150.6-52.59,0,0-50.12-17.88-64.38-20.65-15.55-3.02-23.55-.99-29.44,3.11-.37,.27-.67,.59-.94,.96h4.54c.38-.21,.74-.37,1.08-.48,4.16-1.16,11.44-1.23,23.41,1.53,0,0,12.35,3.11,27.54,11.25,4.37,2.35,29.6,15.68,34.09,16.65,58.29,12.46,149.38,50.21,150.08,50.53,2.79,1.32,6.13,.02,7.4-2.83,1.27-2.86,.01-6.2-2.79-7.48Z"/>
        <path class="cls-2" d="M35.13,458.12s-.3-4.71,2.11-6.66c5.56-4.57,13.39-7.22,29.11-5.39,14.42,1.69,65.75,15.66,65.75,15.66,55.66,4.96,150.1,39.39,154.12,40.86,2.91,1.07,4.41,4.32,3.35,7.25-1.05,2.93-4.29,4.48-7.17,3.4-.73-.28-94.39-30.93-153.45-38.87-4.54-.62-30.72-11.98-35.25-13.99-15.75-6.95-28.3-9.08-28.3-9.08-12.15-1.85-19.42-1.23-23.46,.27-2.67,.98-6.8,6.56-6.8,6.56Z"/>
      </g>
      <g>
        <g>
          <line class="cls-75" x1="330.91" y1="38.64" x2="337.42" y2="107.33"/>
          <g>
            <path class="cls-4" d="M356.6,115.68c0-6.27-2.5-11.94-6.55-16.05h-25.26c-4.05,4.11-6.55,9.78-6.55,16.05,0,5.88,2.27,11.2,5.91,15.25h26.54c3.64-4.05,5.91-9.37,5.91-15.25Z"/>
            <path class="cls-4" d="M356.6,151.25c0-6.27-2.5-11.93-6.55-16.05h-25.26c-4.05,4.12-6.55,9.78-6.55,16.05,0,5.88,2.27,11.2,5.91,15.25h26.54c3.64-4.05,5.91-9.37,5.91-15.25Z"/>
            <path class="cls-4" d="M356.6,186.81c0-6.26-2.5-11.93-6.55-16.03h-25.26c-4.05,4.1-6.55,9.78-6.55,16.03,0,5.9,2.27,11.21,5.91,15.25h26.54c3.64-4.03,5.91-9.35,5.91-15.25Z"/>
            <path class="cls-4" d="M356.6,222.38c0-6.26-2.5-11.93-6.55-16.03h-25.26c-4.05,4.11-6.55,9.78-6.55,16.03,0,5.9,2.27,11.21,5.91,15.25h26.54c3.64-4.03,5.91-9.35,5.91-15.25Z"/>
            <path class="cls-4" d="M356.6,257.94c0-6.26-2.5-11.93-6.55-16.03h-25.26c-4.05,4.1-6.55,9.78-6.55,16.03,0,5.9,2.27,11.21,5.91,15.27h26.54c3.64-4.05,5.91-9.37,5.91-15.27Z"/>
            <path class="cls-4" d="M356.6,293.52c0-6.27-2.5-11.93-6.55-16.05h-25.26c-4.05,4.12-6.55,9.78-6.55,16.05,0,5.88,2.27,11.2,5.91,15.25h26.54c3.64-4.05,5.91-9.37,5.91-15.25Z"/>
            <path class="cls-4" d="M356.6,329.09c0-6.27-2.5-11.93-6.55-16.03h-25.26c-4.05,4.11-6.55,9.76-6.55,16.03,0,5.9,2.27,11.22,5.91,15.25h26.54c3.64-4.03,5.91-9.35,5.91-15.25Z"/>
            <path class="cls-4" d="M356.6,364.65c0-6.26-2.5-11.93-6.55-16.03h-25.26c-4.05,4.11-6.55,9.78-6.55,16.03,0,5.9,2.27,11.21,5.91,15.25h26.54c3.64-4.03,5.91-9.35,5.91-15.25Z"/>
            <path class="cls-4" d="M356.6,400.22c0-6.26-2.5-11.93-6.55-16.03h-25.26c-4.05,4.11-6.55,9.78-6.55,16.03,0,5.9,2.27,11.21,5.91,15.25h26.54c3.64-4.03,5.91-9.35,5.91-15.25Z"/>
            <path class="cls-4" d="M356.6,435.78c0-6.26-2.5-11.93-6.55-16.03h-25.26c-4.05,4.11-6.55,9.78-6.55,16.03,0,5.9,2.27,11.21,5.91,15.25h26.54c3.64-4.03,5.91-9.35,5.91-15.25Z"/>
            <path class="cls-4" d="M356.6,471.36c0-6.27-2.5-11.93-6.55-16.03h-25.26c-4.05,4.11-6.55,9.76-6.55,16.03,0,5.9,2.27,11.21,5.91,15.23h26.54c3.64-4.02,5.91-9.33,5.91-15.23Z"/>
          </g>
        </g>
        <g>
          <path class="cls-76" d="M324.15,130.93s2.77-66.03,6.76-92.3"/>
          <g>
            <path class="cls-21" d="M345.61,129.83c0-6.27-2.5-11.94-6.55-16.05h-25.25c-4.05,4.11-6.55,9.78-6.55,16.05,0,5.88,2.27,11.2,5.91,15.23h26.54c3.64-4.03,5.91-9.35,5.91-15.23Z"/>
            <path class="cls-23" d="M345.61,165.4c0-6.27-2.5-11.93-6.55-16.05h-25.25c-4.05,4.12-6.55,9.78-6.55,16.05,0,5.88,2.27,11.2,5.91,15.23h26.54c3.64-4.03,5.91-9.35,5.91-15.23Z"/>
            <path class="cls-108" d="M345.61,200.96c0-6.27-2.5-11.93-6.55-16.03h-25.25c-4.05,4.1-6.55,9.76-6.55,16.03,0,5.9,2.27,11.21,5.91,15.23h26.54c3.64-4.02,5.91-9.33,5.91-15.23Z"/>
            <path class="cls-83" d="M345.61,236.52c0-6.26-2.5-11.93-6.55-16.03h-25.25c-4.05,4.1-6.55,9.78-6.55,16.03,0,5.9,2.27,11.21,5.91,15.25h26.54c3.64-4.03,5.91-9.35,5.91-15.25Z"/>
            <path class="cls-71" d="M345.61,272.09c0-6.26-2.5-11.93-6.55-16.03h-25.25c-4.05,4.1-6.55,9.78-6.55,16.03,0,5.9,2.27,11.21,5.91,15.25h26.54c3.64-4.03,5.91-9.35,5.91-15.25Z"/>
            <path class="cls-16" d="M345.61,307.65c0-6.26-2.5-11.93-6.55-16.03h-25.25c-4.05,4.1-6.55,9.78-6.55,16.03,0,5.9,2.27,11.21,5.91,15.25h26.54c3.64-4.03,5.91-9.35,5.91-15.25Z"/>
            <path class="cls-80" d="M345.61,343.24c0-6.27-2.5-11.93-6.55-16.05h-25.25c-4.05,4.12-6.55,9.78-6.55,16.05,0,5.9,2.27,11.2,5.91,15.23h26.54c3.64-4.03,5.91-9.33,5.91-15.23Z"/>
            <path class="cls-35" d="M345.61,378.8c0-6.26-2.5-11.93-6.55-16.05h-25.25c-4.05,4.12-6.55,9.79-6.55,16.05,0,5.9,2.27,11.2,5.91,15.25h26.54c3.64-4.05,5.91-9.35,5.91-15.25Z"/>
            <path class="cls-74" d="M345.61,414.37c0-6.26-2.5-11.93-6.55-16.05h-25.25c-4.05,4.12-6.55,9.79-6.55,16.05,0,5.9,2.27,11.2,5.91,15.25h26.54c3.64-4.05,5.91-9.35,5.91-15.25Z"/>
            <path class="cls-72" d="M345.61,449.93c0-6.26-2.5-11.93-6.55-16.03h-25.25c-4.05,4.11-6.55,9.78-6.55,16.03,0,5.9,2.27,11.22,5.91,15.25h26.54c3.64-4.03,5.91-9.35,5.91-15.25Z"/>
            <path class="cls-11" d="M359.31,506.4c0-6.27-2.5-11.93-6.55-16.05h-25.26c-4.05,4.12-6.55,9.78-6.55,16.05,0,5.88,2.27,11.2,5.91,15.23h26.54c3.64-4.03,5.91-9.35,5.91-15.23Z"/>
            <path class="cls-64" d="M345.61,485.51c0-6.27-2.5-11.93-6.55-16.05h-25.25c-4.05,4.12-6.55,9.78-6.55,16.05,0,5.88,2.27,11.2,5.91,15.23h26.54c3.64-4.03,5.91-9.35,5.91-15.23Z"/>
          </g>
        </g>
        <line class="cls-75" x1="326.43" y1="34.49" x2="334.16" y2="34.49"/>
        <line class="cls-75" x1="326.43" y1="26.92" x2="334.16" y2="26.92"/>
        <polyline class="cls-77" points="337.42 7.46 330.91 24.26 326.43 2.71"/>
      </g>
      <g>
        <g>
          <line class="cls-75" x1="392.35" y1="38.64" x2="398.86" y2="107.33"/>
          <g>
            <path class="cls-85" d="M418.04,115.68c0-6.27-2.5-11.94-6.55-16.05h-25.26c-4.05,4.11-6.55,9.78-6.55,16.05,0,5.88,2.27,11.2,5.91,15.25h26.54c3.64-4.05,5.91-9.37,5.91-15.25Z"/>
            <path class="cls-85" d="M418.04,151.25c0-6.27-2.5-11.93-6.55-16.05h-25.26c-4.05,4.12-6.55,9.78-6.55,16.05,0,5.88,2.27,11.2,5.91,15.25h26.54c3.64-4.05,5.91-9.37,5.91-15.25Z"/>
            <path class="cls-85" d="M418.04,186.81c0-6.26-2.5-11.93-6.55-16.03h-25.26c-4.05,4.1-6.55,9.78-6.55,16.03,0,5.9,2.27,11.21,5.91,15.25h26.54c3.64-4.03,5.91-9.35,5.91-15.25Z"/>
            <path class="cls-85" d="M418.04,222.38c0-6.26-2.5-11.93-6.55-16.03h-25.26c-4.05,4.11-6.55,9.78-6.55,16.03,0,5.9,2.27,11.21,5.91,15.25h26.54c3.64-4.03,5.91-9.35,5.91-15.25Z"/>
            <path class="cls-85" d="M418.04,257.94c0-6.26-2.5-11.93-6.55-16.03h-25.26c-4.05,4.1-6.55,9.78-6.55,16.03,0,5.9,2.27,11.21,5.91,15.27h26.54c3.64-4.05,5.91-9.37,5.91-15.27Z"/>
            <path class="cls-85" d="M418.04,293.52c0-6.27-2.5-11.93-6.55-16.05h-25.26c-4.05,4.12-6.55,9.78-6.55,16.05,0,5.88,2.27,11.2,5.91,15.25h26.54c3.64-4.05,5.91-9.37,5.91-15.25Z"/>
            <path class="cls-85" d="M418.04,329.09c0-6.27-2.5-11.93-6.55-16.03h-25.26c-4.05,4.11-6.55,9.76-6.55,16.03,0,5.9,2.27,11.22,5.91,15.25h26.54c3.64-4.03,5.91-9.35,5.91-15.25Z"/>
            <path class="cls-85" d="M418.04,364.65c0-6.26-2.5-11.93-6.55-16.03h-25.26c-4.05,4.11-6.55,9.78-6.55,16.03,0,5.9,2.27,11.21,5.91,15.25h26.54c3.64-4.03,5.91-9.35,5.91-15.25Z"/>
            <path class="cls-85" d="M418.04,400.22c0-6.26-2.5-11.93-6.55-16.03h-25.26c-4.05,4.11-6.55,9.78-6.55,16.03,0,5.9,2.27,11.21,5.91,15.25h26.54c3.64-4.03,5.91-9.35,5.91-15.25Z"/>
            <path class="cls-85" d="M418.04,435.78c0-6.26-2.5-11.93-6.55-16.03h-25.26c-4.05,4.11-6.55,9.78-6.55,16.03,0,5.9,2.27,11.21,5.91,15.25h26.54c3.64-4.03,5.91-9.35,5.91-15.25Z"/>
            <path class="cls-85" d="M418.04,471.36c0-6.27-2.5-11.93-6.55-16.03h-25.26c-4.05,4.11-6.55,9.76-6.55,16.03,0,5.9,2.27,11.21,5.91,15.23h26.54c3.64-4.02,5.91-9.33,5.91-15.23Z"/>
          </g>
        </g>
        <g>
          <path class="cls-76" d="M385.59,130.93s2.77-66.03,6.76-92.3"/>
          <g>
            <path class="cls-46" d="M407.05,129.83c0-6.27-2.5-11.94-6.55-16.05h-25.26c-4.05,4.11-6.55,9.78-6.55,16.05,0,5.88,2.27,11.2,5.91,15.23h26.54c3.64-4.03,5.91-9.35,5.91-15.23Z"/>
            <path class="cls-111" d="M407.05,165.4c0-6.27-2.5-11.93-6.55-16.05h-25.26c-4.05,4.12-6.55,9.78-6.55,16.05,0,5.88,2.27,11.2,5.91,15.23h26.54c3.64-4.03,5.91-9.35,5.91-15.23Z"/>
            <path class="cls-105" d="M407.05,200.96c0-6.27-2.5-11.93-6.55-16.03h-25.26c-4.05,4.1-6.55,9.76-6.55,16.03,0,5.9,2.27,11.21,5.91,15.23h26.54c3.64-4.02,5.91-9.33,5.91-15.23Z"/>
            <path class="cls-51" d="M407.05,236.52c0-6.26-2.5-11.93-6.55-16.03h-25.26c-4.05,4.1-6.55,9.78-6.55,16.03,0,5.9,2.27,11.21,5.91,15.25h26.54c3.64-4.03,5.91-9.35,5.91-15.25Z"/>
            <path class="cls-32" d="M407.05,272.09c0-6.26-2.5-11.93-6.55-16.03h-25.26c-4.05,4.1-6.55,9.78-6.55,16.03,0,5.9,2.27,11.21,5.91,15.25h26.54c3.64-4.03,5.91-9.35,5.91-15.25Z"/>
            <path class="cls-48" d="M407.05,307.65c0-6.26-2.5-11.93-6.55-16.03h-25.26c-4.05,4.1-6.55,9.78-6.55,16.03,0,5.9,2.27,11.21,5.91,15.25h26.54c3.64-4.03,5.91-9.35,5.91-15.25Z"/>
            <path class="cls-101" d="M407.05,343.24c0-6.27-2.5-11.93-6.55-16.05h-25.26c-4.05,4.12-6.55,9.78-6.55,16.05,0,5.9,2.27,11.2,5.91,15.23h26.54c3.64-4.03,5.91-9.33,5.91-15.23Z"/>
            <path class="cls-28" d="M407.05,378.8c0-6.26-2.5-11.93-6.55-16.05h-25.26c-4.05,4.12-6.55,9.79-6.55,16.05,0,5.9,2.27,11.2,5.91,15.25h26.54c3.64-4.05,5.91-9.35,5.91-15.25Z"/>
            <path class="cls-52" d="M407.05,414.37c0-6.26-2.5-11.93-6.55-16.05h-25.26c-4.05,4.12-6.55,9.79-6.55,16.05,0,5.9,2.27,11.2,5.91,15.25h26.54c3.64-4.05,5.91-9.35,5.91-15.25Z"/>
            <path class="cls-54" d="M407.05,449.93c0-6.26-2.5-11.93-6.55-16.03h-25.26c-4.05,4.11-6.55,9.78-6.55,16.03,0,5.9,2.27,11.22,5.91,15.25h26.54c3.64-4.03,5.91-9.35,5.91-15.25Z"/>
            <path class="cls-106" d="M420.75,506.4c0-6.27-2.51-11.93-6.55-16.05h-25.25c-4.05,4.12-6.55,9.78-6.55,16.05,0,5.88,2.27,11.2,5.91,15.23h26.54c3.64-4.03,5.91-9.35,5.91-15.23Z"/>
            <path class="cls-43" d="M407.05,485.51c0-6.27-2.5-11.93-6.55-16.05h-25.26c-4.05,4.12-6.55,9.78-6.55,16.05,0,5.88,2.27,11.2,5.91,15.23h26.54c3.64-4.03,5.91-9.35,5.91-15.23Z"/>
          </g>
        </g>
        <line class="cls-75" x1="387.86" y1="34.49" x2="395.6" y2="34.49"/>
        <line class="cls-75" x1="387.86" y1="26.92" x2="395.6" y2="26.92"/>
        <polyline class="cls-77" points="398.86 7.46 392.35 24.26 387.86 2.71"/>
      </g>
      <g>
        <g>
          <line class="cls-75" x1="452.09" y1="38.64" x2="458.59" y2="107.33"/>
          <g>
            <path class="cls-62" d="M477.77,115.68c0-6.27-2.5-11.94-6.55-16.05h-25.26c-4.05,4.11-6.55,9.78-6.55,16.05,0,5.88,2.27,11.2,5.91,15.25h26.54c3.64-4.05,5.91-9.37,5.91-15.25Z"/>
            <path class="cls-62" d="M477.77,151.25c0-6.27-2.5-11.93-6.55-16.05h-25.26c-4.05,4.12-6.55,9.78-6.55,16.05,0,5.88,2.27,11.2,5.91,15.25h26.54c3.64-4.05,5.91-9.37,5.91-15.25Z"/>
            <path class="cls-62" d="M477.77,186.81c0-6.26-2.5-11.93-6.55-16.03h-25.26c-4.05,4.1-6.55,9.78-6.55,16.03,0,5.9,2.27,11.21,5.91,15.25h26.54c3.64-4.03,5.91-9.35,5.91-15.25Z"/>
            <path class="cls-62" d="M477.77,222.38c0-6.26-2.5-11.93-6.55-16.03h-25.26c-4.05,4.11-6.55,9.78-6.55,16.03,0,5.9,2.27,11.21,5.91,15.25h26.54c3.64-4.03,5.91-9.35,5.91-15.25Z"/>
            <path class="cls-62" d="M477.77,257.94c0-6.26-2.5-11.93-6.55-16.03h-25.26c-4.05,4.1-6.55,9.78-6.55,16.03,0,5.9,2.27,11.21,5.91,15.27h26.54c3.64-4.05,5.91-9.37,5.91-15.27Z"/>
            <path class="cls-62" d="M477.77,293.52c0-6.27-2.5-11.93-6.55-16.05h-25.26c-4.05,4.12-6.55,9.78-6.55,16.05,0,5.88,2.27,11.2,5.91,15.25h26.54c3.64-4.05,5.91-9.37,5.91-15.25Z"/>
            <path class="cls-62" d="M477.77,329.09c0-6.27-2.5-11.93-6.55-16.03h-25.26c-4.05,4.11-6.55,9.76-6.55,16.03,0,5.9,2.27,11.22,5.91,15.25h26.54c3.64-4.03,5.91-9.35,5.91-15.25Z"/>
            <path class="cls-62" d="M477.77,364.65c0-6.26-2.5-11.93-6.55-16.03h-25.26c-4.05,4.11-6.55,9.78-6.55,16.03,0,5.9,2.27,11.21,5.91,15.25h26.54c3.64-4.03,5.91-9.35,5.91-15.25Z"/>
            <path class="cls-62" d="M477.77,400.22c0-6.26-2.5-11.93-6.55-16.03h-25.26c-4.05,4.11-6.55,9.78-6.55,16.03,0,5.9,2.27,11.21,5.91,15.25h26.54c3.64-4.03,5.91-9.35,5.91-15.25Z"/>
            <path class="cls-62" d="M477.77,435.78c0-6.26-2.5-11.93-6.55-16.03h-25.26c-4.05,4.11-6.55,9.78-6.55,16.03,0,5.9,2.27,11.21,5.91,15.25h26.54c3.64-4.03,5.91-9.35,5.91-15.25Z"/>
            <path class="cls-62" d="M477.77,471.36c0-6.27-2.5-11.93-6.55-16.03h-25.26c-4.05,4.11-6.55,9.76-6.55,16.03,0,5.9,2.27,11.21,5.91,15.23h26.54c3.64-4.02,5.91-9.33,5.91-15.23Z"/>
          </g>
        </g>
        <g>
          <path class="cls-76" d="M445.32,130.93s2.77-66.03,6.76-92.3"/>
          <g>
            <path class="cls-17" d="M466.78,129.83c0-6.27-2.5-11.94-6.55-16.05h-25.26c-4.05,4.11-6.55,9.78-6.55,16.05,0,5.88,2.27,11.2,5.91,15.23h26.54c3.64-4.03,5.91-9.35,5.91-15.23Z"/>
            <path class="cls-15" d="M466.78,165.4c0-6.27-2.5-11.93-6.55-16.05h-25.26c-4.05,4.12-6.55,9.78-6.55,16.05,0,5.88,2.27,11.2,5.91,15.23h26.54c3.64-4.03,5.91-9.35,5.91-15.23Z"/>
            <path class="cls-70" d="M466.78,200.96c0-6.27-2.5-11.93-6.55-16.03h-25.26c-4.05,4.1-6.55,9.76-6.55,16.03,0,5.9,2.27,11.21,5.91,15.23h26.54c3.64-4.02,5.91-9.33,5.91-15.23Z"/>
            <path class="cls-9" d="M466.78,236.52c0-6.26-2.5-11.93-6.55-16.03h-25.26c-4.05,4.1-6.55,9.78-6.55,16.03,0,5.9,2.27,11.21,5.91,15.25h26.54c3.64-4.03,5.91-9.35,5.91-15.25Z"/>
            <path class="cls-68" d="M466.78,272.09c0-6.26-2.5-11.93-6.55-16.03h-25.26c-4.05,4.1-6.55,9.78-6.55,16.03,0,5.9,2.27,11.21,5.91,15.25h26.54c3.64-4.03,5.91-9.35,5.91-15.25Z"/>
            <path class="cls-47" d="M466.78,307.65c0-6.26-2.5-11.93-6.55-16.03h-25.26c-4.05,4.1-6.55,9.78-6.55,16.03,0,5.9,2.27,11.21,5.91,15.25h26.54c3.64-4.03,5.91-9.35,5.91-15.25Z"/>
            <path class="cls-118" d="M466.78,343.24c0-6.27-2.5-11.93-6.55-16.05h-25.26c-4.05,4.12-6.55,9.78-6.55,16.05,0,5.9,2.27,11.2,5.91,15.23h26.54c3.64-4.03,5.91-9.33,5.91-15.23Z"/>
            <path class="cls-104" d="M466.78,378.8c0-6.26-2.5-11.93-6.55-16.05h-25.26c-4.05,4.12-6.55,9.79-6.55,16.05,0,5.9,2.27,11.2,5.91,15.25h26.54c3.64-4.05,5.91-9.35,5.91-15.25Z"/>
            <path class="cls-93" d="M466.78,414.37c0-6.26-2.5-11.93-6.55-16.05h-25.26c-4.05,4.12-6.55,9.79-6.55,16.05,0,5.9,2.27,11.2,5.91,15.25h26.54c3.64-4.05,5.91-9.35,5.91-15.25Z"/>
            <path class="cls-89" d="M466.78,449.93c0-6.26-2.5-11.93-6.55-16.03h-25.26c-4.05,4.11-6.55,9.78-6.55,16.03,0,5.9,2.27,11.22,5.91,15.25h26.54c3.64-4.03,5.91-9.35,5.91-15.25Z"/>
            <path class="cls-94" d="M480.48,506.4c0-6.27-2.51-11.93-6.55-16.05h-25.25c-4.05,4.12-6.55,9.78-6.55,16.05,0,5.88,2.27,11.2,5.91,15.23h26.54c3.64-4.03,5.91-9.35,5.91-15.23Z"/>
            <path class="cls-87" d="M466.78,485.51c0-6.27-2.5-11.93-6.55-16.05h-25.26c-4.05,4.12-6.55,9.78-6.55,16.05,0,5.88,2.27,11.2,5.91,15.23h26.54c3.64-4.03,5.91-9.35,5.91-15.23Z"/>
          </g>
        </g>
        <line class="cls-75" x1="447.6" y1="34.49" x2="455.34" y2="34.49"/>
        <line class="cls-75" x1="447.6" y1="26.92" x2="455.34" y2="26.92"/>
        <polyline class="cls-77" points="458.59 7.46 452.09 24.26 447.6 2.71"/>
      </g>
    </g>
  </g>
</svg>