<?xml version="1.0" encoding="UTF-8"?><svg id="_レイヤー_2" xmlns="http://www.w3.org/2000/svg" viewBox="0 0 655.12 838.45"><defs><style>.cls-1{fill:#fff;}.cls-1,.cls-2,.cls-3,.cls-4{fill-rule:evenodd;}.cls-2{fill:#f7aa39;}.cls-3{fill:#70cee0;}</style></defs><g id="_レイヤー_1-2"><g><path class="cls-2" d="M253.41,279.95c-4.68,.45-9.01,2.82-12.71,6.31-5.13,4.84-9.05,11.83-11.16,17.35-5.25,13.76-10.11,27.42-12.74,42.11-1.58,8.83-2.62,17.94-6.52,26.18-4.71,9.93-10.01,21.15-20.36,26.31-3.56,1.77-7.06,3.97-11.03,4.6-.89,.14-3.16-.12-4.83,0-1.76,.13-3.2,.63-4.04,1.2-1.35,.9-2.12,2.21-2.11,4,0,.67,.18,1.71,.86,2.79,.64,1.01,2.25,2.54,2.49,2.72,8.62,6.54,22.44,8.74,32.61,11.69,8.83,2.56,18.2,3.18,27,5.77,8.23,2.42,17.97,4.73,26.64,2.72,3.82-.89,7.76-3.39,11.31-6.72,4.73-4.43,8.82-10.28,11.16-14.54,12.02-21.87,11.36-45.24,10.28-69.47-.14-3.07,.55-6.35,1.11-9.61,.7-4.12,1.22-8.19,.61-11.88-.3-1.81-1.29-3.47-2.89-4.85-1.76-1.51-4.6-2.62-6.07-3.65-4.8-3.38-10.93-7.3-14.68-11.81-3.61-4.33-5.21-9.01-8.05-13.82-.05-.61-.24-2.74-.44-3.51-.27-1.05-.74-1.83-1.22-2.37-.76-.86-1.67-1.37-2.69-1.6-.71-.16-1.55-.22-2.51,.07h0Zm2.46,8.99h0c.07-.03,.15-.06,.22-.08,.27-.1,.53-.23,.77-.38-.34,.21-.67,.36-.99,.46h0Zm126.93-199.24c20.28,19.69,20.46,47.75,20.46,47.75,0,.14,0,.28,.02,.42,2.84,28.79,12.36,42.13,20.76,48.43,9.51,7.13,18.28,5.92,18.28,5.92,1.18-.14,2.27-.72,3.03-1.64,3.81-4.58,9-5.66,13.81-5.46,8.14,.34,15.4,4.25,15.4,4.25,1.2,.65,2.63,.73,3.9,.23,1.27-.5,2.26-1.54,2.69-2.83,24.67-73.41-2.97-114.51-6.19-118.95C435.1-12.38,361.86-.13,352.51,1.8c-60.74-10.21-107.68,47.65-107.68,47.65-.02,.02-.04,.04-.05,.07-59.84,77.1-27.34,139.06-27.34,139.06,1.14,2.21,3.82,3.12,6.07,2.07,9.82-4.57,17.19,1.74,17.19,1.74,1.07,.94,2.52,1.34,3.92,1.07,10.48-1.98,25.16-8.43,29.89-10.58,20.36,4.89,32.66,.19,33.83-.29,52.99-19.43,69.85-72.51,74.46-92.88h0Z"/><path class="cls-3" d="M322.34,383.8l8.22,47.62,114.93-53.78,9.99,5.01s-81.18,34.28-94.03,117.83c0,0-9.67-.2-19.24,12.37,0,0-9.09-10.02-16.39,3.88,0,0-9.81,14.71,1.76,21.84,0,0-3.32,11.69,4.52,14.04,0,0-1.15,21.76,25.26,22.38-2.81,9.28,51.3,195.37,143.97,194.32,0,0-.71,21.14,6.18,30.96l-8.53,13.52s-69.96,15.39-105.96,24.55c0,0-103.09,5-145.6-48.83,0,0-19.4-8.07,2.8-44.37l5.23-14.16-11.22-19.71,9.81-31.87s-44.76,10.83-77.48-63.59l-28.15-83.94s38.64,.83,62.74-26.93l36.98,43.14s-4.14-94.66,74.2-164.26h0Zm169.77,32.1s-86.06,42.63-94.71,93.73l32.64,61.36,20.66,22.4s-14.49,29.32-44.39,27.39c0,0,48.36,112.8,94.89,124.8l-2.75-15.07-1.36-9.55s17.87-3.53,30.55-8.19c0,0,42.45-31.49,35.69-100.08,0,0-5.72-143.52-56.28-186.91l-14.95-9.87h0Z"/><path class="cls-4" d="M461.54,377.16c.41-10.14,2.52-21.29,7.31-28.48,4.48-6.73,11.05-10.49,20.34-8.54,9.26,1.94,16.57,11.03,21.37,23.11,6.46,16.28,8.75,37.73,7.99,49.1-.09,1.3-.71,2.45-1.63,3.23,9.67,6.26,48.63,33.24,64.24,70.72,0,0,22.04,66.21,22.54,110.37,0,0,34.92,13.23,38.79,45.6,3.88,32.36,16.21,95.51,11.63,136.24,0,0,1.95,6.02-8.72,9.33l-25.83,3.8s-64.71,31.05-103.19,18.57l-11.35-9.51-5.62-24.57c-53.66-15.51-91.04-62.06-114.68-107.99-18.27-35.5-28.26-70.57-31.58-90.4-.17,.02-.35,.03-.52,.03-12.84-.12-25.32-5.11-25.31-19.78,0-1.23,.2-2.99,.64-4.81-.44-.21-.86-.49-1.24-.84-1.24-1.18-2.27-2.97-2.8-5.21-.48-2.02-.59-4.46-.27-6.91-2.76-1.4-4.58-4.18-5.28-7.91-.79-4.18-.1-9.76,1.24-14.12,1.03-3.38,2.53-6.05,3.79-7.3,4-3.97,7.72-4.98,10.84-4.91,3.07,.07,6.57,1.98,8.31,3.05,.77-1.26,1.46-2.28,1.65-2.5,4.06-4.58,6.85-5.8,12.07-6.23,2.34-19.32,11.28-42.34,29.95-65.51,14.01-17.38,40.37-39.19,58.55-50.19,1.81-1.1,3.55-2.09,5.2-2.96-.37-.23-.73-.46-1.1-.69-15.22,7.95-69.46,35.72-82.93,41.71-7.39,3.29-14.23,6.28-21.89,8.96-1.87,.65-4.73,1.76-7.45,2.19-2.67,.42-5.23,.18-7.23-.84-.77-.39-1.64-1.08-2.38-2.26-.59-.95-1.24-2.57-1.78-4.74-2.21-8.89-3.86-29.86-5.51-38.09-.5-2.51,1.12-4.95,3.63-5.46,2.51-.5,4.95,1.12,5.46,3.63,1.73,8.6,3.3,31.58,5.71,38.79,.49-.05,1.02-.24,1.56-.36,1.85-.43,3.68-1.16,4.94-1.6,7.42-2.59,14.03-5.5,21.19-8.68,12.19-5.42,58-28.81,77.49-38.9-5.24-3.21-10.16-6.24-14.24-8.95-2.13-1.42-2.71-4.3-1.29-6.42,1.42-2.13,4.3-2.71,6.43-1.29,8.03,5.35,19.36,11.91,29.98,18.74,.35-.07,.69-.13,1.01-.18h0Zm32.36,42.15c-.44,1.13-1.33,2.09-2.54,2.6-39.24,16.25-64.06,41.3-78.78,69.21-3.54,6.71-8.44,14.51-10.2,23.4-.5,2.51-2.94,4.14-5.45,3.64-.85-.17-1.59-.56-2.19-1.1-.73-.26-1.4-.71-1.94-1.33-3.41-3.95-8.54-5.49-13.97-6.18-6.36-.81-13.17-.39-18.99-.18-3.07,.11-4.87,.18-6.68,1.43,7.14-.46,13.19-.35,21.47,.12,2.55,.14,4.51,2.33,4.36,4.89-.14,2.55-2.33,4.51-4.89,4.37-8.34-.47-14.29-.57-21.62-.04-3.13,.23-6.69,1.08-9.51,2.9-1.17,.76-2.2,1.7-2.95,2.87,9.23-1.52,18.36-2.12,31.35-2.79,2.55-.13,4.73,1.84,4.87,4.39,.13,2.55-1.84,4.74-4.39,4.87-15.32,.79-25.05,1.44-36.23,3.79-.56,.12-.95,.55-1.3,1.03-.67,.94-1.1,2.13-1.35,3.35-.27,1.32-.33,2.68-.16,3.86,.01,.09,.03,.19,.06,.3,.65-.45,1.39-.71,2.13-.8,.44-.25,.93-.43,1.45-.53,12.45-2.33,21.44-2.33,32.01-3.48,2.54-.28,4.83,1.56,5.11,4.1,.28,2.54-1.56,4.83-4.11,5.11-10.34,1.12-19.14,1.1-31.31,3.38-.06,.01-.12,.02-.19,.03-.2,.28-.31,.69-.47,1.08-.61,1.53-.92,3.32-.92,4.39,0,8.51,7.91,10.33,15.4,10.5-.04-.65-.07-1.26-.09-1.83-.93,.02-1.73,.09-2.32,.21-2.51,.49-4.95-1.14-5.44-3.65-.49-2.51,1.14-4.95,3.65-5.44,4.06-.8,15.96,.17,19.95,1.13,2.49,.6,4.02,3.1,3.42,5.59-.57,2.38-2.9,3.89-5.28,3.48,.01,.17,.03,.35,.04,.53,.28-.13,.58-.23,.9-.3,2.49-.56,4.98,1.01,5.54,3.5,.63,2.78,.82,5.82,1.13,8.82,.24,2.31,.55,4.6,1.49,6.64,1.55,3.34,4.76,5.05,8.26,6.18,4.41,1.41,9.35,1.81,13.42,2.11,.53,.04,1.03,.17,1.49,.37,1.93-.77,4.21-.17,5.48,1.59,4.86,6.73,8.9,12.87,13.97,20.18,1.46,2.1,.93,4.99-1.17,6.45-2.1,1.46-4.99,.93-6.45-1.17-.22-.31-.43-.62-.64-.92l5.62,13.99c2.24-.39,4.49,.92,5.2,3.15,12.06,37.68,34.83,68.16,55.69,87.33,8.67,7.97,16.94,13.99,23.9,17.63l-4.3-31.77s60.34,15.75,61.19-77.47c.85-93.22-20.88-178.65-53.32-211.59l-9.41-3.87h0Zm-43.84,172.65c.16,.18,.33,.34,.52,.49,6.87,5.58,42.68,26.86,55.01,34.74,2.16,1.38,5.02,.74,6.4-1.41,1.38-2.16,.74-5.02-1.41-6.4-6.99-4.46-21.64-13.28-34.1-21,0-.02,0-.03,0-.05-.19-11.49-3.58-40.25-8.27-50.74-1.04-2.33-3.79-3.38-6.12-2.34-2.33,1.04-3.38,3.79-2.34,6.12,3.67,8.2,6.33,28.46,7.18,41.01-4.88-3.11-8.7-5.67-10.51-7.13-1.97-1.6-4.87-1.31-6.49,.64-1.64-1.94-6.55-6.3-10.63-10.16-1.99-1.88-4.4-4.56-4.6-4.79-7.86-17.09-17.12-34.38-26.52-50.22-1.3-2.2-4.15-2.92-6.35-1.62-2.2,1.31-2.92,4.15-1.62,6.35,9.27,15.61,18.4,32.65,26.13,49.49,.53,1.15,2.22,3.25,4.58,5.59,4.1,4.04,10.43,9.4,11.9,11.3,1.57,2.02,4.48,2.39,6.5,.83,.28-.21,.52-.45,.74-.71h0ZM80.93,399.31c-15.84-.09-52.86-.92-69.4,3.79-3.88,1.1-6.81,2.58-8.6,4.22-1.99,1.83-2.92,3.95-2.93,6.23-.07,7.73,6.57,12.96,17.66,14.94,8.6,1.54,20.05,1.39,31.09,.75-.61,1.2-1.1,2.47-1.46,3.76-2.05,7.41,.21,15.26,8.14,18.41,3.83,1.52,7.8,2.48,11.8,3.04-1.27,2.23-1.7,4.5-1.55,6.61,.32,4.66,3.64,8.91,8.6,10.8-1.49,3.47-2.27,8.04-.41,11.61,1.51,2.9,4.71,5.69,11.45,6.28,6.62,.58,16.23-1.65,23.02-5.01,.09,.03,.19,.05,.29,.07,7.67,1.55,19.28,1.01,27.22,2.55,4.08,13.07,10.2,27.99,13.46,41.36,.61,2.49,3.12,4.01,5.6,3.4,2.49-.61,4.01-3.11,3.4-5.6-3.35-13.75-9.68-29.14-13.8-42.52-.4-1.31-1.33-2.31-2.48-2.84-.57-1.3-1.73-2.32-3.22-2.66-5.94-1.34-14.27-1.33-21.45-1.91,.26-.51,.5-1.03,.7-1.56,.79-2.08,1.02-4.3,.48-6.36-.57-2.18-1.99-4.5-5.2-6.12,1.65-2.81,2.22-5.98,1.45-8.81-.63-2.3-2.14-4.67-4.93-6.52,3.67-4.03,4.07-9.17,1.56-13.11-1.65-2.59-4.77-5.09-9.76-6.59-4.2-1.26-9.95-1.87-17.37-1.24,1.54-.76,2.6-2.34,2.6-4.17,0-2.56-2.09-4.63-4.64-4.62-10.38,.02-43.84,5.3-62.92,1.89-2.8-.5-5.24-1.18-7.15-2.17-1.49-.77-2.64-1.68-2.84-3.09,.38-.26,1.22-.82,1.92-1.12,2.71-1.16,6.55-1.98,11.05-2.63,23.2-3.34,62.48-1.4,66.92-2,1.22-.17,2.27-.8,2.98-1.69,6.62,4.01,13.04,7.44,17.45,9.58,.78,2.04,3.85,9.89,7.09,15.51,2.93,5.07,6.79,9.77,11.71,12.47,2.24,1.23,5.06,.4,6.29-1.84,1.23-2.24,.4-5.06-1.84-6.29-3.91-2.14-6.69-6.23-8.87-10.3-2.53-4.71-4.21-9.52-5.43-12.37-.63-1.48-1.22-2.57-1.7-3.21-.72-.96-1.5-1.5-2.14-1.8-8.23-3.88-26.19-13.71-36.21-22.84-1.92-1.75-3.52-3.45-4.63-5.08-.66-.97-1.21-1.82-1.2-2.65,0-1.31,.64-3.2,2.74-4.07,.26,.03,1.2,.16,1.84,.33,1.69,.47,3.69,1.29,5.87,2.31,11.46,5.36,27.06,15.85,29.59,16.88,8.66,3.55,15.34,5.25,21.05,7.32,7.61,2.76,13.21,6.32,19.92,17.28,2.11,3.44,9.26,14.28,13.38,22.52,1.38,2.77,2.53,5.08,2.55,6.49,.03,2.56,2.12,4.61,4.68,4.59,2.56-.03,4.61-2.12,4.59-4.68-.02-2.24-1.32-6.12-3.53-10.54-4.24-8.5-11.59-19.67-13.77-23.22-8.27-13.5-15.29-17.76-24.66-21.16-5.61-2.03-12.18-3.69-20.69-7.18-2.49-1.02-17.87-11.42-29.18-16.71-3.95-1.85-7.49-3.09-10.05-3.42-1.83-.24-3.36-.05-4.53,.38-7.01,2.55-9.04,8.67-9.05,12.84-.01,4.11,3.2,9.43,8.86,14.6,2.5,2.28,5.46,4.6,8.64,6.87h0Zm255.78,116.87c-.8-.53-1.79-1.05-2.99-.96-1.15,.08-2.37,.8-3.8,2.21-.45,.45-.78,1.43-1.18,2.58-.87,2.5-1.52,5.76-1.46,8.62,.02,.81,.09,1.58,.25,2.27,.61-.71,1.28-1.35,2-1.9,.41-5.68,3.26-9.89,7.17-12.82h0Zm-128.9-9.29c-3.05-3.61-5.11-9.15-7.5-13.16-6.45-10.79-13.5-22.07-17.47-34.04-.81-2.43-3.43-3.74-5.86-2.94-2.43,.81-3.74,3.43-2.94,5.86,4.18,12.6,11.53,24.51,18.31,35.87,2.63,4.41,5.03,10.43,8.38,14.4,1.65,1.95,4.58,2.2,6.53,.54,1.95-1.65,2.2-4.58,.54-6.53h0Zm-102.92-37.45c-.74,.27-1.52,.49-2.33,.65-4.95,1.02-11.65,3.32-18.83,3.32-.1,.39-.26,.77-.46,1.14-.47,.82-.96,1.88-1.19,2.99-.11,.55-.25,1.14,.01,1.63,.17,.32,.54,.51,1.02,.7,.79,.32,1.79,.52,3.02,.63,6.63,.58,17.36-2.35,21.58-6.27,.56-.52,1.25-1.41,1.65-2.41,.08-.2,.15-.54,.18-.72-.34-.18-1.63-.81-2.98-1.04-.61-.1-1.17-.32-1.67-.63h0Zm-6.44-16.38c-.59,.12-1.2,.23-1.83,.32-5.59,.81-12.06,1.64-18.8,1.7-.17,.94-.63,1.84-1.38,2.55-1,.94-1.58,1.86-1.51,2.79,.1,1.39,1.41,2.38,2.93,2.88,8.55,2.78,17.08-1.09,22.83-2.27,1.81-.37,3.35-1.3,4.32-2.5,.58-.72,1.04-1.53,.82-2.33-.18-.66-.82-1.14-1.71-1.59-1.16-.59-2.66-1-4.55-1.24-.4-.05-.77-.15-1.13-.29h0Zm-19.05-26.22c-3.66,.19-8.74,.67-14.54,1.17-.5,.26-1.06,.42-1.66,.48-3.55,.33-6.04,3.62-6.97,6.97-.79,2.86-.43,6.11,2.63,7.33,12.17,4.84,26.05,2.91,36.43,1.41,3.6-.52,6.28-1.63,7.77-3.21,.43-.46,.79-.91,.72-1.42-.1-.68-.72-1.19-1.53-1.72-4.22-2.78-12.73-3.7-26.13-1.05-2.51,.49-4.95-1.14-5.44-3.65s1.14-4.95,3.65-5.44c1.76-.35,3.44-.63,5.07-.87h0Zm176.22-37.58c-1.04,7.35-5.17,16.99-11.19,24.12-3.69,4.37-8.08,7.83-13.03,8.83-2.51,.5-4.14,2.95-3.63,5.45,.5,2.51,2.95,4.14,5.45,3.63,6.87-1.38,13.16-5.88,18.28-11.93,7.19-8.51,12.05-20.04,13.29-28.81,.36-2.53-1.41-4.88-3.94-5.24-2.53-.36-4.88,1.41-5.24,3.94h0Zm-25.57-1.09c-.85,8.27-6.24,17.91-13.52,24.63-4.63,4.28-10.05,7.42-15.67,7.94-2.55,.24-4.42,2.49-4.18,5.04,.24,2.55,2.49,4.42,5.04,4.18,7.52-.7,14.9-4.63,21.1-10.36,8.97-8.29,15.4-20.3,16.45-30.49,.26-2.54-1.59-4.82-4.14-5.08-2.54-.26-4.82,1.59-5.08,4.14h0Zm11.68-133.1c2.7,12.63,7.22,24.72,13.48,36.87,18.57,36.05,62.83,46.01,75.2,48.14,.51,2.19,1.14,5,1.35,6.41,1.1,7.51,2.01,14.73,2.06,22.38,.02,2.56,2.11,4.62,4.66,4.6s4.62-2.11,4.6-4.66c-.05-8.09-1-15.73-2.16-23.67-.4-2.72-2.24-10.28-2.24-10.28-.46-1.89-2.06-3.29-3.99-3.5,0,0-51.61-5.53-71.25-43.66-9.88-19.18-15.16-38.17-15.42-59.79-.03-2.56-2.13-4.61-4.69-4.58-.03,0-.06,0-.09,0,1.05-1.41,1.25-3.36,.34-5.01-1.78-3.24-5.96-7.81-10.41-11.03-3.35-2.42-6.88-4.02-9.71-4.27-2.55-.22-4.8,1.66-5.02,4.21-.22,2.55,1.66,4.8,4.21,5.02,1.52,.13,3.3,1.25,5.09,2.55,3.26,2.36,6.41,5.61,7.72,7.99,.87,1.58,2.52,2.45,4.21,2.4-.59,.79-.93,1.77-.92,2.83,.08,6.06,.52,11.92,1.32,17.65-3.59-.21-7.35-.34-10.43-1.96-15.38-8.09-23.51-28.63-13.95-43.97,5.09-8.17,18.49-10.65,23.78-1.09,1.24,2.24,4.06,3.05,6.3,1.81,2.24-1.24,3.05-4.06,1.81-6.3-8.84-15.97-31.25-12.98-39.75,.67-12.37,19.86-2.4,46.61,17.5,57.08,4.85,2.55,10.99,2.54,16.4,3.16h0Zm193.28-64.33c-.31,2.52,1.46,4.82,3.98,5.16,2.54,.34,4.87-1.44,5.21-3.98,.11-.83,.76-1.53,1.42-2.18,1.01-1,2.25-1.8,3.35-2.29,7.06-3.14,16.96-1.57,21.61,5.16,2.67,3.86,4.14,10.01,4.15,14.53,.03,11.37-4.2,22.15-14.34,29.48-8.33,6.02-13.61,6.78-16.29,7.49-1.41,.37-2.44,.84-3.17,1.36-2.08,1.48-2.57,4.38-1.08,6.46h0s-.04,0-.07,0c-2.54-.28-4.83,1.56-5.11,4.11-.82,7.55-3.95,16.4-7.7,22.74-7.31,12.34-19.14,22.99-21.62,25.57-1.03,1.07-1.4,1.93-1.51,2.23-.34,.97-.5,3.64,.05,7.42,1.59,10.82,7.49,34.31,10.93,43.05,.93,2.38,3.63,3.55,6.01,2.62,2.38-.94,3.55-3.63,2.62-6.01-2.87-7.29-7.51-25.38-9.65-36.7-.51-2.71-.84-5.56-.99-6.96,3.76-3.73,14.96-14.37,22.14-26.49,4.37-7.37,7.99-17.68,8.94-26.47,.13-1.18-.2-2.31-.84-3.2,1,.12,2.05-.08,2.96-.63,.68-.1,9.39-1.54,19.81-9.08,12.75-9.22,18.21-22.71,18.17-37.01-.02-6.17-2.16-14.51-5.8-19.78-7.13-10.31-22.19-13.16-33-8.35-1.71,.76-3.53,1.95-5.16,3.41-8.4-1.43-14.11-6.89-18.01-13.92-4.33-7.81-6.49-17.51-7.4-26.55-3.96-39.4-19.49-52.53-21.25-55.96-1.17-2.28-3.96-3.17-6.24-2.01-2.28,1.17-3.17,3.96-2.01,6.24,1.66,3.23,16.54,15.51,20.27,52.65,1.03,10.27,3.6,21.26,8.51,30.12,4.72,8.51,11.55,15.1,21.08,17.78h0Zm-118.48,81.02c12.94,12.2,25.39,22.48,43.18,10.19,3.67-2.53,6.44-5.98,9.95-8.65,4.34-3.31,11.08-9.15,13.75-14.31,1.18-2.27,.28-5.07-1.99-6.24-2.27-1.18-5.07-.28-6.24,1.99-2.12,4.1-7.68,8.56-11.14,11.2-3.39,2.59-6.05,5.95-9.59,8.4-13.19,9.11-21.95-.27-31.55-9.31-1.86-1.76-4.8-1.67-6.55,.19-1.75,1.86-1.67,4.8,.19,6.55h0Zm5.23-30.43c-.13-.44-.59-1.99-.81-2.59-.33-.89-.55-1.65-.67-2.31-.05-.29-.06-.66-.06-.84,.21-.14,.77-.5,1.15-.69,.77-.39,1.6-.77,2.42-1.21,2.44-1.3,4.82-3.07,6.5-6.16,1.24-2.28,1.52-5.07,1.24-8.01-.25-2.57-1.13-5.27-.87-7.32,.31-2.54-1.49-4.85-4.03-5.17-2.54-.31-4.85,1.49-5.17,4.03-.28,2.28,.27,5.21,.69,8.11,.21,1.41,.6,2.84,0,3.93-.68,1.26-1.74,1.88-2.72,2.41-1.2,.64-2.39,1.15-3.41,1.75-1.78,1.04-3.17,2.32-4.06,4.04-1.13,2.18-1.65,5.39,.3,10.66,.31,.84,.6,2.21,1.06,3.25,.48,1.09,1.13,1.97,1.82,2.58,1.92,1.69,4.85,1.51,6.54-.41,1.54-1.74,1.53-4.32,.07-6.04h0Zm122.58-17.85c1.74-2.36,4.54-3.79,7.37-5.12,3.78-1.78,7.69-3.3,10.66-5.32,2.12-1.44,2.66-4.32,1.23-6.44-1.44-2.12-4.32-2.67-6.44-1.23-2.6,1.77-6.08,3.04-9.39,4.6-4.26,2-8.26,4.44-10.88,8-1.52,2.06-1.08,4.96,.98,6.48,2.06,1.52,4.96,1.08,6.48-.98h0Zm-147.25-28.58c-.25,.05-.51,.11-.76,.18-6.88,1.98-8.57,11.3-3.11,15.73,.64,.52,1.89,1.21,3.18,1.53,1.19,.29,2.39,.28,3.33,.03l.11-.03c2.32-.12,4-1.11,5.2-2.41,1.73-1.89,2.44-4.82,1.85-7.7-.47-2.3-1.69-4.39-3.42-5.77-.84-.82-1.84-1.38-2.94-1.65-1-.25-2.16-.3-3.44,.09h0Zm75.42,11.33l.37-.07c1.94,0,3.51-.62,4.75-1.54,1.95-1.45,3.17-3.85,3.34-6.54,.26-3.97-1.9-8.28-5.47-9.87-2.52-1.12-4.77-.99-6.66-.22-2.54,1.03-4.54,3.44-5.35,6.36-1.33,4.8,.56,10.39,5.99,12.01,1.03,.31,2.09,.24,3.02-.13h0Zm-40.66-121.37c-1.91,29.57-27.46,56.78-49.17,74.05-4.44,3.53-12.47,9.37-20.31,13.73-4.78,2.66-9.44,4.82-13.03,5.25-2.54,.3-4.35,2.61-4.05,5.15,.3,2.54,2.61,4.35,5.15,4.05,10.73-1.28,29.92-14.5,38.01-20.93,23.53-18.72,50.57-48.65,52.64-80.71,.16-2.55-1.77-4.76-4.33-4.92-2.55-.16-4.76,1.77-4.92,4.33h0Zm43.07-2.84c1.52,9.95-4.53,21.82-8.37,30.6-9.36,21.39-22.69,40.02-43.12,52.03-4.73,2.78-10.55,7.05-16.17,7.7-2.54,.3-4.36,2.6-4.07,5.14,.3,2.54,2.6,4.36,5.14,4.07,6.82-.79,14.06-5.55,19.8-8.92,22.16-13.03,36.76-33.1,46.91-56.3,4.46-10.19,10.8-24.16,9.04-35.71-.39-2.53-2.75-4.27-5.28-3.88-2.53,.38-4.27,2.75-3.88,5.28h0Zm-7.6,82.39c2.27-1.63,6.19-2.08,9.97-1.79,3.63,.27,7.28,1.17,9.08,3.29,1.66,1.95,4.58,2.19,6.53,.53,1.95-1.66,2.19-4.58,.53-6.53-3.13-3.68-9.14-6.05-15.44-6.53-6.14-.46-12.4,.86-16.08,3.51-2.08,1.49-2.55,4.39-1.06,6.47,1.49,2.08,4.39,2.55,6.47,1.05h0Z"/><path class="cls-1" d="M535.14,753.89c-.35-.17-.73-.27-1.14-.28l-21.97-1c-1.38-.06-2.58,.83-2.97,2.1-.71,.51-1.19,1.33-1.23,2.28-.1,2.38-3.92,11.29-4.43,12.89-.53,1.68,.24,2.72,.36,2.89,.23,.32,.49,.57,.78,.77h0c.07,.54,.29,1.06,.64,1.48,.15,.18,.32,.35,.51,.49l21.75,16.39c-1.55,1.96-3.35,3.88-5.44,5.77-1.21,1.1-1.31,2.97-.21,4.18,1.1,1.21,2.97,1.31,4.18,.21,12.34-11.15,15.88-23.33,15.81-37.17-.07-13.1-3.52-27.76-5.42-44.53-.18-1.62-1.65-2.79-3.28-2.61-1.62,.18-2.79,1.65-2.61,3.28,1.36,11.98,3.54,22.87,4.66,32.87h0Zm-21.63,4.71c-.73,3.1-2.99,9.18-3.99,11.81,0,.17-.02,.35-.05,.52l21.29,16.04c3.87-6.84,5.15-14.14,5.11-22.05-.01-1.95-.1-3.94-.24-5.96-.53,.39-1.18,.6-1.88,.57l-20.22-.92h0Zm98.05-121.24c-4.66,2.34-8.43,4.7-13.6,5.27-6.34,.69-8.77,1.18-14.68-2.53-1.38-.87-3.21-.45-4.08,.93-.87,1.39-.45,3.21,.93,4.08,7.46,4.68,10.48,4.28,18.48,3.4,5.42-.59,9.52-2.8,14.3-5.21,6.41,29.01,10.62,58.34,14.82,87.98,1.62,11.4,2.68,22.71,2.68,34.23,0,2.33,.15,4.98-.02,7.57-.14,2.17-.48,4.3-1.51,6.04-.84,1.4-.38,3.22,1.02,4.06,1.4,.84,3.22,.38,4.06-1.02,2.79-4.67,2.37-11.39,2.37-16.65,0-11.8-1.08-23.38-2.74-35.06-5.16-36.46-10.36-72.45-19.58-107.97-.41-1.58-2.03-2.54-3.61-2.12-1.58,.41-2.54,2.03-2.12,3.61,1.16,4.46,2.25,8.92,3.28,13.39h0Zm18.92,37.84c5.05-1.27,7.34-1.12,12.55-1.73,1.9-.22,3.88-.91,5.77-1.02,1.63-.1,2.88-1.5,2.78-3.13-.1-1.63-1.5-2.88-3.14-2.78-1.99,.12-4.08,.82-6.09,1.05-5.53,.64-7.95,.52-13.31,1.87-1.59,.4-2.55,2.01-2.15,3.6,.4,1.59,2.01,2.55,3.59,2.15h0Zm-147.4-312.64s7.92,8.41,9.49,36.5c.08,1.36,1.24,2.4,2.6,2.33,1.36-.08,2.4-1.24,2.33-2.6-1.71-30.65-10.89-39.68-10.89-39.68-.96-.97-2.52-.99-3.49-.03-.97,.95-.99,2.52-.03,3.49h0Z"/></g></g></svg>