<?xml version="1.0" encoding="UTF-8"?>
<svg id="_レイヤー_2" data-name="レイヤー 2" xmlns="http://www.w3.org/2000/svg" viewBox="0 0 478.32 283.93">
  <defs>
    <style>
      .cls-1 {
        fill: #85807f;
      }

      .cls-2 {
        fill: #fff;
      }

      .cls-3 {
        fill: #b3b3b3;
      }

      .cls-4 {
        fill: #211715;
      }
    </style>
  </defs>
  <g id="layer">
    <g id="group">
      <path class="cls-2" d="M239.63,193.66c-.2-.94,.02-1.95,.4-2.75,.78-1.66,2.27-2.23,3.44-2.49,2.93-.64,7.03-1.14,12.75-1.65,8-.72,12.04-1.07,21.96-2.08,0,0,.63-.06,1.25-.13l-.62-1.62c-.42-1.08-2.8-3.28-5.63-5.67-1.29-1.09-3.47-3.13-4.36-4.31s-.6-2.93,.32-4.08c1.27-1.6,3.47-1.42,5.08-.78,7.11,2.83,16.67,8.22,22.7,10.62,3.38,1.34,6.61,5.93,6.39,10.31,0,0,3.12,4.28,5.17,7.08-7.57,5.1-14.08,13.9-16.42,18.82l-6.51-2.77c-2.83-1.17-11.33-1.08-13.61-1.14-4.29-.1-8.78-.21-13.44-.27l-.48-1.93c-3.18,.03-6.18,.02-7.03-.06-1.53-.15-2.61-1.18-2.85-2.47s.89-2.8,2.16-3.24c0,0,.19-.06,.37-.13l-2.8,.27c-3.9,.38-6.36-1.26-6.19-3.81,.09-1.34,1.06-2.4,2.64-3.02l-1.1-.12c-2.34-.26-3.34-1.35-3.6-2.59Z"/>
      <path class="cls-2" d="M393.79,96.46s.07-.08,.1-.12c2.78-3.31,3.3-6.63,3.56-8.98,.37-3.33-.94-8.14-3.54-10.21-.87-.69-2.74-1.76-6.13-.87-1.72,.45-3.61,1.52-4.59,3.23-1.35-2.51-3.27-7.14-6.88-11.59-4.43-3.71-11.06-6.37-18.38-6.95-.36,1.8-.67,3.64-1.02,5.58-.38,2.08-.68,4.19-1.43,6.16-.48,1.25-1.24,2.33-2.06,3.37-1.49,1.89-3.14,3.64-3.51,6.06-.23,1.5,.81,3.91,.96,5.42,.11,1.16,.16,1.53,.27,2.69l.87,4.94c1.03-.03,3.34-.01,4.96-.01,.52,0,.95,.49,.92,1.09-.11,2.33-.93,3.26-1.72,4.92-.45,.94-1.67,2.46-2.11,2.83l-.43,.36c.23,1.33,.77,4.38,.77,4.38,.93,1.87,1.13,2.09,2.53,3.65,1.43,1.59,2.79,2.63,5.17,3.58,4.74,1.9,10.59,3.19,17.53,2.28,1.54,2.1,3.48,6.46,4.23,8.52l1.23,3.37c3.51-2.54,7.4-4.47,11.08-5.68,6.13-2.02,12.5-3.4,18.93-3.73l-1.04-3.26c-11-1.17-19.91-11.87-23.67-17.22,0,0-.27-.38-.7-1,1.82-.71,3.24-1.85,4.1-2.82Z"/>
      <path class="cls-4" d="M351.96,97.2c1.24-.04,2.48-.02,3.71-.02,.31,0,.62,0,.93,0,.08,0,.17,0,.25,0,.23,0,.16,0-.19-.04-.2-.06-.37-.16-.51-.3-.18-.27-.22-.32-.11-.14-.11-.17-.16-.36-.15-.56,0,.1,0,.19,0,.29,0,.06-.07,.42-.04,.47,.04-.29,.05-.32,.01-.1-.02,.09-.03,.18-.05,.27-.03,.17-.08,.33-.12,.5-.04,.15-.09,.31-.15,.46-.03,.07-.05,.15-.08,.22,.13-.3,.15-.36,.07-.16-.11,.24-.23,.48-.35,.71-.27,.52-.53,1.05-.81,1.57-.14,.26-.3,.52-.47,.76-.09,.13-.19,.27-.28,.4-.08,.11-.36,.39,.02-.02-.34,.36-.61,.78-.98,1.11-.79,.69-.76,2.13,0,2.83,.84,.77,1.98,.73,2.83,0s1.46-1.66,2.03-2.55,1.02-1.82,1.44-2.74c.28-.61,.54-1.23,.69-1.89,.2-.87,.38-1.88,.17-2.77-.24-1.03-1.02-1.88-2.03-2.19-.65-.2-1.42-.12-2.1-.12-1.24,0-2.48-.02-3.71,.02-1.04,.04-2.05,.89-2,2s.88,2.04,2,2h0Z"/>
      <path class="cls-1" d="M383.56,32.63c-12.68,3.83-18.9,10.62-23.63,21.27-.94,2.39-1.52,4.7-1.99,7.08,7.32,.56,13.95,3.23,18.38,6.94,3.61,4.46,5.53,9.08,6.88,11.59,.98-1.71,2.87-2.78,4.59-3.23,3.4-.89,5.27,.18,6.13,.87,2.6,2.07,3.91,6.88,3.54,10.21-.26,2.35-.78,5.68-3.56,8.98-.84,1-2.3,2.21-4.2,2.94,.43,.61,.7,1,.7,1,4.25,6.05,15.11,18.97,28.13,17.15,2.45-3.65,6.23-7.2,8.7-9.65,6.19-6.13,13.89-17.11,14.79-31.07,.57-8.78-2.56-17.85-6.4-24.25-9.86-16.48-21.87-19.91-29.31-21.27s-16.08-.56-22.72,1.44c-.01,0-.03,0-.04,.01Z"/>
      <path class="cls-4" d="M352.67,109.77c1.09,2.18,2.64,4.15,4.54,5.69,2.18,1.76,4.82,2.76,7.48,3.56,6.06,1.83,12.42,1.95,18.59,.63,2.52-.54,1.45-4.39-1.06-3.86-5.36,1.15-10.85,1.01-16.12-.53-2.08-.61-4.31-1.31-6.06-2.64s-2.98-3-3.92-4.88c-1.15-2.3-4.6-.28-3.45,2.02h0Z"/>
      <path class="cls-4" d="M357.99,53.37c-1.34,3.49-2.03,7.14-2.68,10.81-.59,3.31-.84,6.99-2.81,9.82-1.63,2.35-3.84,4.35-4.45,7.27-.32,1.53-.01,3,.37,4.48s.57,2.96,.72,4.5c.1,1.08,.84,2,2,2,1,0,2.11-.92,2-2-.15-1.5-.23-3.03-.58-4.49-.29-1.22-.86-2.51-.57-3.77,.6-2.64,3.2-4.59,4.53-6.85,1.77-3.02,2.09-6.74,2.69-10.12,.64-3.6,1.33-7.17,2.64-10.59,.39-1.01-.43-2.19-1.4-2.46-1.13-.31-2.07,.38-2.46,1.4h0Z"/>
      <path class="cls-4" d="M378.43,120.06c.8,1.27,1.47,2.62,2.11,3.98,.16,.34,.31,.68,.47,1.03,.07,.16,.14,.31,.21,.47,.04,.08,.07,.17,.11,.25,.03,.07,.16,.39,.03,.06s.06,.14,.1,.24c.06,.15,.12,.3,.18,.45,.1,.26,.2,.52,.3,.78,.36,.98,1.37,1.75,2.46,1.4,.96-.31,1.78-1.41,1.4-2.46-1.04-2.82-2.3-5.66-3.9-8.21-.55-.89-1.81-1.31-2.74-.72s-1.31,1.79-.72,2.74h0Z"/>
      <path class="cls-4" d="M388.67,101.29c6.02,8.53,14.54,16.96,25.39,18.21,1.07,.12,2-1.01,2-2,0-1.18-.92-1.88-2-2-9.25-1.06-16.87-9.04-21.94-16.23-.62-.88-1.75-1.3-2.74-.72-.87,.51-1.34,1.85-.72,2.74h0Z"/>
      <path class="cls-4" d="M385.21,80.05c1.46-1.89,5.06-2.76,6.98-1.66,.05,.03,.6,.39,.39,.23-.17-.12,.47,.43,.56,.53,.42,.44,.74,.96,1.03,1.49,.68,1.25,1.1,2.71,1.28,4.12,.69,5.66-2.45,12.15-8.42,13.15-1.07,.18-1.66,1.5-1.4,2.46,.31,1.13,1.39,1.58,2.46,1.4,6.96-1.17,10.6-7.68,11.34-14.17,.58-5.04-1.73-12.34-7.37-13.47-3.85-.78-7.93,.82-10.3,3.9-.66,.86-.13,2.24,.72,2.74,1.03,.6,2.07,.14,2.74-.72h0Z"/>
      <path class="cls-4" d="M356.53,74.37c-.68,1.73-.86,5.87,1.98,6.53,3.82,.39,4.61-4.55,3.6-7.02-.82-2.02-3.82-3.15-5.58,.49Z"/>
      <path class="cls-4" d="M361.65,54.91c2.07-4.63,4.63-9.05,8.31-12.59s8.47-5.98,13.41-7.54c10-3.17,21.35-3.24,31.13,.79,10.1,4.15,17.83,13.29,22.1,23.15,2.68,6.2,3.99,12.98,3.28,19.72-.66,6.24-2.89,12.28-6.08,17.66-2.94,4.97-6.72,8.95-10.76,13.02-4.63,4.66-9.68,10.12-8.89,17.19,.12,1.07,.83,2,2,2,.99,0,2.12-.92,2-2-.36-3.21,.56-5.67,2.38-8.27s3.92-4.69,6.08-6.83c3.78-3.75,7.27-7.61,10.08-12.16,3.38-5.46,5.83-11.6,6.83-17.95,1.13-7.18,.31-14.37-2.18-21.19-4.13-11.27-12.37-21.91-23.37-27.13-9.85-4.68-21.28-5.27-31.83-2.88-6.38,1.45-12.61,4.12-17.63,8.37-4.63,3.92-7.86,9.15-10.31,14.63-.44,.99-.29,2.15,.72,2.74,.85,.5,2.29,.27,2.74-.72h0Z"/>
      <path class="cls-4" d="M374.9,69.32c.11,.14,.22,.28,.33,.41,.22,.27-.14-.18,.07,.09,.19,.25,.37,.5,.55,.75,.35,.49,.69,.98,1.02,1.48,.63,.96,1.21,1.94,1.77,2.94,.88,1.58,1.66,3.22,2.48,4.83,.48,.93,1.86,1.28,2.74,.72,.95-.61,1.23-1.74,.72-2.74-.85-1.67-1.66-3.35-2.57-4.98-1.25-2.23-2.67-4.35-4.27-6.34-.66-.82-2.15-.74-2.83,0-.8,.87-.7,1.95,0,2.83h0Z"/>
      <path class="cls-4" d="M359.7,63.14c5.42,.78,11.05,2.75,15.2,6.18,.83,.69,2.01,.81,2.83,0,.71-.71,.84-2.14,0-2.83-4.81-3.98-10.81-6.32-16.96-7.21-1.07-.15-2.15,.26-2.46,1.4-.26,.94,.32,2.31,1.4,2.46h0Z"/>
      <path class="cls-3" d="M403.17,122.49c-2.36,.56-4.7,1.22-7.01,1.98-8.97,2.96-19.19,10.18-22.05,20.01-.97,.41-1.93,.84-2.89,1.27-8.37,3.77-15.71,8.39-21.17,15.97-8.72,12.1-8.57,27.43-11.71,41.48-.75,3.35-1.08,7.41-3.64,11.23-7.44-6.6-12.12-12.03-19.23-19.41-1.06-1.1-2.71-1.36-4.06-.66-9.83,5.1-18.58,17.62-20.04,22.32-.09,.28-.06,.57,.09,.82,6.01,9.79,15.29,22.76,20.45,28.31,9.39,10.09,22.44,18.28,36.17,16,.26-.04,.52-.09,.77-.15,2.08,6.9,4.48,11.08,10.98,14.32,3.93,1.96,9.97,4.44,15.97,4.89,5.69,.42,16.41,.39,21.44-.22,5.22-7.44,19.06-27.82,25.22-36.33,7-9.67,24.78-38.11,27.12-42.03,.56-4.57,1.22-9.74,1.32-13.89,.25-10.25,.79-18.55-2.02-28-2.81-9.45-9.92-21.62-21.1-24.75-1.22-2.69-3.74-10.44-5.37-12.92-.45-.69-.95-1.39-1.69-1.75-.6-.29-1.3-.32-1.96-.32-5.24-.06-10.47,.62-15.58,1.82Z"/>
      <path class="cls-4" d="M255.09,262.87c13.14-3.3,26.13-7.27,39.18-10.92,2.16-.6,4.32-1.23,6.49-1.8,2.49-.65,1.43-4.51-1.06-3.86-12.99,3.39-25.88,7.25-38.82,10.85-2.28,.63-4.56,1.29-6.86,1.87-2.5,.63-1.44,4.49,1.06,3.86h0Z"/>
      <path class="cls-4" d="M116,208.84c5.83,2.95,11.69,5.83,17.55,8.72,3.36,1.66,6.73,3.32,10.09,4.99,.78,.39,1.62,.96,2.46,1.19s1.79-.17,2.59-.36c1.7-.4,3.39-.8,5.09-1.2,14.03-3.3,28.05-6.64,42.07-9.96,7.37-1.75,14.74-3.49,22.12-5.23,.85-.2,1.47-1.08,1.47-1.93,0-.95-.64-1.59-1.47-1.93-11.21-4.66-22.44-9.28-33.66-13.94-5.96-2.48-11.92-4.96-17.87-7.46-2.55-1.07-5.11-2.15-7.66-3.24-1.17-.5-2.33-1-3.5-1.5-1.08-.46-2.65-1.49-3.83-1.49s-2.36,.43-3.46,.64c-1.2,.23-2.4,.47-3.6,.71-2.25,.44-4.51,.89-6.76,1.33-4.37,.86-8.74,1.73-13.11,2.59-2.52,.5-1.46,4.36,1.06,3.86,8.79-1.74,17.59-3.48,26.39-5.2l-1.54-.2c17.59,7.64,35.35,14.89,53.08,22.22,4.46,1.85,8.93,3.69,13.39,5.55v-3.86c-18.56,4.36-37.1,8.79-55.65,13.17-5.05,1.19-10.1,2.38-15.16,3.57l1.54,.2c-9.87-4.91-19.79-9.71-29.62-14.69-2.29-1.16-4.32,2.29-2.02,3.45h0Z"/>
      <path class="cls-4" d="M238.26,179.23c-11.99-4.89-24.29-9.05-36.42-13.6v3.86c16.89-3.36,33.75-6.83,50.62-10.23,4.1-.83,8.19-1.65,12.29-2.46h-1.06c9.72,3.17,19.49,6.23,29.24,9.29,10.65,3.35,21.3,6.68,31.96,9.99,3.23,1.01,6.47,2.01,9.71,3.01v-3.86c-6.97,1.78-13.96,3.45-20.97,5.07-2.51,.58-1.45,4.44,1.06,3.86,7.01-1.62,14-3.29,20.97-5.07,1.96-.5,1.84-3.29,0-3.86-12.92-3.96-25.81-8.02-38.71-12.07-8.01-2.51-16.01-5.03-24.01-7.59-1.58-.5-3.15-1.01-4.72-1.51-1.34-.43-3.12-1.35-4.53-1.12-5.85,.95-11.66,2.33-17.46,3.5-15.15,3.07-30.29,6.17-45.45,9.19-2.11,.42-1.67,3.23,0,3.86,12.13,4.55,24.42,8.71,36.42,13.6,1,.41,2.2-.44,2.46-1.4,.31-1.15-.39-2.05-1.4-2.46h0Z"/>
      <path class="cls-4" d="M204.5,175.2c-5.36,2.11-10.76,4.14-16.11,6.29-1.76,.7-2.03,3.25,0,3.86,13.55,4.03,27,8.39,40.49,12.62,2.46,.77,3.52-3.09,1.06-3.86-13.49-4.23-26.94-8.59-40.49-12.62v3.86c5.35-2.15,10.74-4.18,16.11-6.29,1-.39,1.7-1.34,1.4-2.46-.26-.96-1.45-1.79-2.46-1.4h0Z"/>
      <g>
        <path class="cls-2" d="M64.34,35.42c3.44-6.8,11.74-13.31,31-12.98,29.11,.49,25.95,22.27,25.95,22.27-.33,4.7-.45,9.38-.65,13.7-.36,7.49-2.21,14.36-7.16,18.95-2.52,2.33-5.15,4.05-7.99,5.18,.03,.27,.05,.41,.05,.41,.13,1.12,.69,2.16,.87,2.42,1.23,1.66,2.78,2.29,4.49,2.86-4.38,6.47-10.17,9.25-18.7,9.34-8.54,.08-17.74-2.78-24.55-8.1,1.58-.81,2.52-1.49,3.15-1.95,1.02-.73,1.84-1.84,2.14-2.82,.94-3.2,1.33-5.14,1.7-7.91-2.29-1.97-4.11-4.03-5.81-6.24,0,0-1.47-1.99-2.11-3.14l-.26-.63c-1.83,.22-3.8-.32-4.61-.74-2.73-1.43-4.1-3.62-5.01-5.21-1.29-2.25-2.05-6.11-1.16-8.44,.3-.78,1.07-2.16,3.39-2.66,1.06-.23,2.38-.14,3.46,.54,0,0-1.86-7.58,1.81-14.83Z"/>
        <path class="cls-2" d="M97.2,174.41c.33-.02,.65-.04,.95-.05,14.2-2.71,29.21-5.58,44.54-8.51,.11-15.35,.29-31.34-1.98-45.92-2.82-18.1-11.08-26.73-29.77-31.77-4.39,6.52-10.19,9.32-18.75,9.4-8.68,.08-18.04-2.87-24.88-8.35-13.02,5.59-22.58,10.36-29.78,22.87-4.17,7.26-6.71,19.66-8.93,27.96-2.22,8.3-2.78,17.35-.53,25.55,1.4,5.11,3.88,9.81,7.17,13.56,6.75,7.73,21.1,13.46,31.4,15.06,0,0,8.08,.5,8.08,1-.65-2.86-.05-5.84,.67-8.69,.7-2.78,1.59-5.67,3.68-7.64,1.7-1.59,4.1-2.81,6.39-3.23,2.44-.44,7.95-1.01,11.73-1.25Z"/>
        <path class="cls-1" d="M67.58,7.66c6.78-4.56,13.55-5.67,18.6-5.67,10.78,0,18.55,2.21,25.56,9.84,4.99,4.24,7.35,9.62,8.77,15.72,1.14,4.92,1.52,12.42,.55,18.71l-.17-2.37c-.42-5.5-4.98-11.16-8.15-12.35,0,0-3.47-.98-7.01-1.61-.79,.26-1.25,.42-1.25,.42-4.73,1.59-11.46,5.04-15.22,6.74-.9,.41-1.9-.33-1.74-1.28,.1-.63,.13-1.29-.06-2.17-.21-.91-.97-1.33-1.58-1.06-4.86,2.06-10.31,6.42-14.54,10.23-.65,.58-1.11,1.33-1.35,2.16-.45,1.57-.79,2.87-1.17,4.91l-6.27,.36c-1.08-.68-2.39-.77-3.46-.54-2.32,.5-3.09,1.88-3.39,2.66-.14,.37-.24,.77-.3,1.2-2.07-3.58-2.96-10.13-3.33-13.29-.35-3,.09-8.14,.67-11.11,1.16-5.91,2.83-9.33,6.99-14.43,2.56-2.98,5.21-5.3,7.87-7.08Z"/>
        <path class="cls-4" d="M58.12,141.08c-1.39,5.23-2.32,10.66-3.11,16.01-.32,2.13-.59,4.36,.11,6.44,.58,1.73,1.67,3.24,3.06,4.41,2.94,2.48,6.71,4.05,10.29,5.36s7.09,1.95,10.7,2.7c2.51,.52,3.59-3.34,1.06-3.86-6.26-1.29-12.54-2.68-18.01-6.17-1.2-.76-2.38-1.72-3.03-3.01-.77-1.53-.54-3.36-.3-4.99,.37-2.46,.83-4.91,1.29-7.35,.54-2.83,1.06-5.68,1.8-8.47,.66-2.49-3.2-3.55-3.86-1.06h0Z"/>
        <path class="cls-4" d="M65.47,87.85c-8.02,3.47-16.06,7.28-22.32,13.54-3.23,3.23-6.05,7.05-8.11,11.13s-3.53,8.71-4.79,13.2-2.36,9.2-3.57,13.8c-1.47,5.61-2.27,11.46-1.98,17.27,.52,10.3,4.62,20.75,12.86,27.29s18.45,10.46,28.55,12.07c1.07,.17,2.15-.27,2.46-1.4,.26-.95-.32-2.29-1.4-2.46-8.59-1.37-17.21-4.54-24.46-9.37-7.91-5.26-12.62-13.77-13.76-23.15-1.25-10.25,1.75-20.11,4.32-29.91,1.16-4.4,2.39-8.83,4.16-13.04,1.64-3.89,3.98-7.55,6.78-10.72,6.24-7.08,14.76-11.12,23.27-14.8,.99-.43,1.22-1.88,.72-2.74-.6-1.02-1.74-1.15-2.74-.72h0Z"/>
        <path class="cls-4" d="M116.09,91.85c4.15,1.49,8.27,3.45,11.68,6.28,3.16,2.62,5.61,5.85,7.38,9.55,2.05,4.29,3.08,9.02,3.77,13.69,.99,6.65,1.42,13.38,1.64,20.09,.26,7.85,.2,15.7,.14,23.55-.02,2.57,3.98,2.58,4,0,.11-14.45,.26-28.98-1.72-43.33-1.32-9.54-4.19-19.12-11.62-25.72-4.12-3.66-9.06-6.11-14.21-7.96-2.43-.87-3.47,2.99-1.06,3.86h0Z"/>
        <path class="cls-4" d="M120.84,119.84c-1.24,14.53-1.73,29.11-1.48,43.69,.05,2.57,4.05,2.58,4,0-.26-14.58,.24-29.16,1.48-43.69,.22-2.56-3.78-2.55-4,0h0Z"/>
        <path class="cls-4" d="M65.64,90.41c5.94,4.81,13.16,7.76,20.72,8.77,6.44,.86,13.57,.51,19.25-2.99,3.06-1.89,5.47-4.56,7.42-7.56,1.41-2.16-2.05-4.17-3.45-2.02-1.84,2.83-4.17,5.25-7.2,6.81s-6.7,2.11-10.18,2.14c-8.41,.08-17.16-2.66-23.73-7.98-.84-.68-2.01-.82-2.83,0-.7,.7-.84,2.15,0,2.83h0Z"/>
        <path class="cls-4" d="M67.86,91.59c2.43-1.17,5.27-2.73,6.54-5.22,.71-1.39,1.03-3.04,1.38-4.56,.32-1.39,.56-2.79,.75-4.2,.14-1.03-.25-2.2-1.4-2.46-.94-.21-2.31,.29-2.46,1.4-.18,1.28-.39,2.56-.67,3.82-.15,.66-.31,1.33-.48,1.98-.1,.37-.2,.73-.3,1.1-.06,.2-.11,.39-.17,.59-.02,.07-.18,.49-.03,.14-.44,.98-1,1.46-1.84,2.04-1.06,.73-2.19,1.35-3.35,1.91-.94,.46-1.27,1.88-.72,2.74,.63,.97,1.73,1.21,2.74,.72h0Z"/>
        <path class="cls-4" d="M103.54,82.95c.07,.58,.15,1.13,.34,1.68,.15,.45,.34,.89,.55,1.31,.34,.68,.87,1.3,1.43,1.81,1.29,1.18,2.86,1.86,4.5,2.41,.99,.33,2.23-.38,2.46-1.4,.25-1.1-.33-2.1-1.4-2.46-.48-.16-.95-.33-1.42-.52l.48,.2c-.63-.27-1.22-.59-1.77-1l.4,.31c-.45-.35-.85-.75-1.2-1.19l.31,.4c-.23-.29-.39-.62-.53-.96l.2,.48c-.2-.49-.36-.99-.44-1.51l.07,.53v-.09c-.08-.55-.19-1.01-.6-1.41-.35-.35-.92-.61-1.41-.59s-1.05,.19-1.41,.59c-.33,.36-.65,.9-.59,1.41h0Z"/>
        <path class="cls-4" d="M77.83,76.8c-.17-.12-.33-.25-.5-.38,.24,.19-.24-.2-.24-.19-.29-.23-.57-.46-.85-.7-.56-.48-1.11-.97-1.64-1.48-1.02-.97-1.97-2.01-2.88-3.08-.43-.5-.85-1.02-1.25-1.54,.2,.26,.04,.06,0,0-.1-.14-.2-.27-.3-.41-.61-.85-1.21-1.7-1.73-2.61s-1.84-1.3-2.74-.72-1.27,1.76-.72,2.74c1.08,1.91,2.48,3.7,3.89,5.37,2.05,2.43,4.37,4.56,6.91,6.46,.84,.63,2.27,.16,2.74-.72,.55-1.05,.18-2.07-.72-2.74h0Z"/>
        <path class="cls-4" d="M112.31,15.13c3.6,3.91,5.52,8.97,6.52,14.13s1.1,11.1,.3,16.48c-.16,1.07,.27,2.15,1.4,2.46,.94,.26,2.3-.32,2.46-1.4,1.73-11.61,.45-25.49-7.85-34.49-1.75-1.9-4.57,.94-2.83,2.83h0Z"/>
        <path class="cls-4" d="M57.11,52.56c-1.4-2.5-1.98-5.45-2.47-8.25-.44-2.5-.76-4.99-.7-7.53,.15-5.93,1.24-11.96,4.51-17,3.63-5.6,8.8-10.27,14.87-13.07,4.52-2.08,9.41-2.82,14.35-2.71,7.09,.15,14.02,1.64,19.58,6.28,1.96,1.64,4.81-1.18,2.83-2.83C104.63,2.91,98.18,.74,91.15,.18c-5.81-.47-11.69-.08-17.19,1.98-6.97,2.61-12.83,7.35-17.3,13.25-4.16,5.49-6,11.74-6.56,18.54-.28,3.43-.06,6.7,.46,10.09,.56,3.59,1.3,7.34,3.1,10.54,1.26,2.25,4.71,.23,3.45-2.02h0Z"/>
        <path class="cls-4" d="M82.63,83.36c8.4,3.23,17.89,4.2,26.1-.13,3.77-1.99,7.25-4.94,9.54-8.56s3.52-8.18,4.06-12.58c.71-5.75,.57-11.61,.96-17.39,.17-2.57-3.83-2.56-4,0-.33,4.84-.39,9.69-.7,14.53-.25,3.91-.94,7.95-2.69,11.49-3.39,6.83-10.81,11.13-18.33,11.44-4.81,.2-9.42-.94-13.88-2.66-1.01-.39-2.19,.43-2.46,1.4-.31,1.13,.38,2.07,1.4,2.46h0Z"/>
        <path class="cls-4" d="M63.54,48.53c-2.56-1.48-6-1.12-8.2,.88-1.66,1.51-2.15,3.86-2.02,6.02,.27,4.86,3.11,10.22,7.64,12.39,2.57,1.23,5.89,1.46,8.44,.09,2.27-1.22,.25-4.68-2.02-3.45-.32,.17-.89,.33-1.23,.36-.31,.03-.63,.02-.95,.01-.16,0-.31-.02-.47-.03-.26-.03-.3-.03-.14-.02-.52-.08-1.04-.22-1.54-.39-.1-.03-.2-.07-.3-.11,.26,.11,.29,.12,.11,.03-.2-.17-.5-.28-.73-.42-1.82-1.15-3.12-2.94-3.94-4.8-.38-.86-.75-2.28-.84-3.18-.06-.62-.08-1.26-.02-1.88,.03-.27,0-.14,.1-.54,.02-.07,.26-.83,.12-.44-.13,.36,.07-.12,.1-.19,.06-.1,.42-.56,.1-.2,.15-.17,.31-.34,.48-.49-.27,.22,.35-.2,.43-.24,.85-.42,1.9-.5,2.85,.05,2.23,1.29,4.25-2.16,2.02-3.45h0Z"/>
        <path class="cls-4" d="M122.9,43.9c-.27-3.2-1.51-6.27-3.37-8.88-1.61-2.26-3.61-4.38-6.25-5.4-.98-.38-2.24,.42-2.46,1.4-.26,1.15,.35,2.05,1.4,2.46,.39,.15-.42-.22-.04-.01,.09,.05,.19,.09,.28,.14,.2,.11,.39,.22,.57,.34,.1,.06,.2,.13,.29,.2,.08,.05,.43,.37,.07,.04,.2,.17,.4,.33,.59,.51,.44,.4,.85,.82,1.23,1.26,.2,.22,.38,.45,.57,.68,.14,.17-.14-.19,.08,.1,.11,.15,.22,.3,.32,.45,.36,.52,.7,1.05,1,1.6,.17,.31,.34,.62,.49,.93,.07,.14,.14,.29,.21,.44,0-.01,.2,.48,.13,.29-.08-.2,.1,.26,.11,.3,.07,.18,.13,.36,.19,.54,.1,.3,.19,.61,.27,.91s.15,.61,.21,.92c0,.03,.11,.64,.05,.21,.03,.18,.04,.37,.06,.56,.09,1.04,.86,2.05,2,2,1.01-.05,2.09-.88,2-2h0Z"/>
        <path class="cls-4" d="M103.95,28.43c-3.2,1.09-6.29,2.51-9.34,3.94-1.44,.67-2.87,1.36-4.3,2.04-.39,.18-1.42,.45-1.68,.78l-.13,.06c.45-.13,.72,0,.8,.42l.18,.36,.07-.53c.04-.42,.04-.82,0-1.24-.17-1.74-1.02-3.5-2.94-3.72-1.66-.19-3.56,1.13-4.94,1.93-3.29,1.91-6.32,4.26-9.22,6.71-1.57,1.33-3.35,2.61-4.14,4.57-.72,1.77-1.08,3.74-1.43,5.6-.48,2.52,3.38,3.59,3.86,1.06,.2-1.06,.43-2.12,.69-3.16,.22-.85,.35-1.89,.9-2.6,.61-.79,1.54-1.44,2.3-2.09,.88-.76,1.78-1.5,2.69-2.23,1.81-1.44,3.69-2.79,5.66-3.99,.93-.56,1.88-1.1,2.86-1.57,.23-.11,.47-.22,.7-.33-.41,.06-.75-.03-1.01-.28-.06,.09,.08,.89,.07,1.05-.07,1.08-.07,1.99,.7,2.85,.68,.77,1.65,1.18,2.67,1.11,1.68-.1,3.6-1.43,5.1-2.15,3.59-1.71,7.19-3.47,10.96-4.76,2.42-.83,1.38-4.69-1.06-3.86h0Z"/>
        <path class="cls-4" d="M101.47,68.06c-.12,.07-.25,.14-.37,.2-.06,.03-.15,.05-.2,.09,.31-.24,.31-.12,.11-.05-.3,.12-.61,.21-.92,.29-.35,.09-.71,.13-1.06,.21,.09-.02,.42-.05,.15-.02-.09,0-.17,.02-.26,.02-.19,.02-.38,.03-.58,.03-.33,0-.67,0-1-.02-.08,0-.16-.02-.24-.02-.26-.02,.43,.07,.18,.02-.17-.03-.34-.06-.51-.1-.15-.04-.3-.08-.45-.13-.13-.04-.39-.21-.52-.2l.21,.09c-.07-.03-.14-.06-.21-.09-.09-.04-.18-.08-.28-.12-.32-.14-.64-.27-.97-.4-.98-.38-2.24,.42-2.46,1.4-.26,1.15,.35,2.05,1.4,2.46,.06,.02,.45,.19,.18,.07-.25-.11,.06,.03,.11,.05,.32,.14,.63,.27,.95,.41,.35,.14,.71,.27,1.08,.35,.87,.19,1.77,.27,2.66,.23,1.72-.07,3.53-.44,5.02-1.33,.9-.53,1.31-1.82,.72-2.74s-1.77-1.29-2.74-.72h0Z"/>
        <path class="cls-4" d="M84.24,51.43c-.36,1.53,.17,4.97,3.03,5.08,3.76-.27,3.69-4.46,2.29-6.35-1.14-1.54-4.24-2.01-5.32,1.27Z"/>
        <path class="cls-4" d="M106.84,49.28c-.33,1.49,.16,4.82,2.79,4.93,3.45-.26,3.37-4.32,2.09-6.15-1.05-1.5-3.89-1.96-4.88,1.22Z"/>
        <path class="cls-4" d="M98.71,58.57c.29,.43,.58,.86,.85,1.3,.3,.47,.62,.95,.85,1.46l-.2-.48c.04,.1,.07,.19,.09,.29l-.07-.53c0,.06,0,.11,0,.17l.07-.53c0,.06-.02,.1-.04,.16l.2-.48s-.04,.07-.06,.1l.31-.4c-.08,.09-.17,.18-.26,.25l.4-.31c-.11,.08-.22,.15-.34,.2l.48-.2c-.22,.08-.44,.1-.67,.15-.47,.1-.96,.51-1.2,.92-.25,.43-.36,1.06-.2,1.54s.46,.95,.92,1.2c.49,.26,.99,.32,1.54,.2,.19-.04,.39-.05,.57-.11,.55-.18,.99-.44,1.42-.84,.55-.51,.9-1.25,.85-2-.05-.61-.25-1.13-.54-1.66-.46-.83-.98-1.63-1.51-2.41-.3-.43-.68-.78-1.2-.92-.48-.13-1.12-.07-1.54,.2s-.8,.69-.92,1.2-.1,1.1,.2,1.54h0Z"/>
        <path class="cls-4" d="M23.63,134.11c-4.13,1.33-7.73,3.99-9.93,7.77s-2.58,7.98-1.94,12.25c1.25,8.32,2.46,16.64,3.68,24.96,.53,3.64,1.06,7.28,1.61,10.92,.16,1.07,1.51,1.66,2.46,1.4,1.15-.31,1.56-1.39,1.4-2.46-1.02-6.82-2-13.65-3.01-20.47-.58-3.97-1.17-7.94-1.76-11.91-.53-3.54-1.2-6.95-.02-10.45,1.34-3.96,4.64-6.89,8.56-8.16,2.44-.79,1.4-4.65-1.06-3.86h0Z"/>
        <g>
          <path class="cls-2" d="M74.73,195.21c-.65-2.86-.05-5.84,.67-8.69,.7-2.78,1.59-5.67,3.68-7.64,1.7-1.59,4.1-2.81,6.39-3.23,3.46-.62,13.07-1.51,15.19-1.34,5.19,.42,10.13,3.26,13.11,7.52,1.17,1.67,2.06,3.63,1.93,5.66,0,0-2.17,2.48-6.78,7.7-3.84,4.35-6.71,8.96-6.71,8.96-.46,1.12-1.96,1.54-3.4,1.03-1.22-.43-2.56-2.03-3.81-2.37-2.29-.62-5.83-.04-8.22-.53-3.17-.65-6.8-1.45-8.18-4.37l-3.89-2.71Z"/>
          <path class="cls-4" d="M76.66,194.68c-.48-2.32-.05-4.68,.5-6.95,.47-1.95,.96-3.96,1.98-5.71,1.84-3.14,5.37-4.27,8.73-4.72,3.14-.42,6.31-.71,9.47-.9,2.92-.18,5.62,.01,8.34,1.27,3.64,1.68,8.16,5.43,8.02,9.84-.08,2.57,3.92,2.57,4,0,.15-4.99-3.75-9.4-7.68-11.99-3.29-2.17-7.24-3.34-11.17-3.19-3.62,.14-7.25,.5-10.84,.96-4.31,.55-8.56,1.76-11.37,5.35-1.68,2.14-2.51,4.76-3.17,7.36-.81,3.22-1.35,6.46-.67,9.75,.52,2.52,4.37,1.45,3.86-1.06h0Z"/>
          <path class="cls-4" d="M100.58,185.25c1.21,.2,2.4,.48,3.55,.89,.24,.08,.47,.17,.7,.26,.19,.08,.29,.13,.04,.01,.12,.05,.24,.11,.36,.16,.45,.21,.89,.44,1.32,.69,.37,.22,.73,.45,1.08,.71,.05,.04,.38,.21,.1,.07s.02,.02,.09,.08c.15,.13,.3,.26,.45,.39,.35,.33,.67,.68,.97,1.04,.08,.09,.15,.18,.22,.27,.36,.44-.12-.17,.07,.09,.18,.25,.36,.49,.53,.75,.58,.87,1.79,1.33,2.74,.72,.86-.56,1.34-1.81,.72-2.74-1.3-1.93-2.83-3.56-4.83-4.77-2.14-1.29-4.59-2.09-7.04-2.49-1.03-.17-2.2,.27-2.46,1.4-.22,.96,.29,2.28,1.4,2.46h0Z"/>
          <path class="cls-4" d="M100.82,192.75c.15,.01,.29,.03,.43,.04l-.53-.07c.62,.09,1.2,.28,1.79,.49,.21,.08-.5-.22-.15-.06,.06,.03,.12,.06,.19,.08,.16,.07,.31,.15,.46,.23,.31,.16,.61,.34,.91,.53,.13,.09,.26,.18,.39,.27,.07,.05,.15,.1,.21,.16-.09-.09-.36-.29-.11-.08s.51,.43,.74,.67c.12,.12,.24,.25,.36,.37,.04,.05,.27,.38,.33,.39-.03,0-.29-.4-.13-.17,.05,.07,.1,.13,.14,.2,.1,.15,.19,.3,.28,.45,.52,.91,1.83,1.3,2.74,.72s1.28-1.77,.72-2.74c-.91-1.57-2.3-2.85-3.83-3.81s-3.18-1.56-4.94-1.68c-1.05-.07-2.05,.97-2,2,.05,1.15,.88,1.92,2,2h0Z"/>
          <path class="cls-4" d="M98.08,199.34c.45,.07,.88,.21,1.29,.38l-.48-.2c.51,.22,1,.5,1.44,.84l-.4-.31c.43,.33,.81,.71,1.14,1.13l-.31-.4c.28,.36,.51,.75,.69,1.17s.76,.8,1.2,.92c.48,.13,1.12,.07,1.54-.2s.8-.69,.92-1.2l.07-.53c0-.36-.09-.7-.27-1.01-.58-1.31-1.6-2.35-2.75-3.17-.54-.38-1.11-.64-1.72-.9-.42-.17-.85-.31-1.29-.38-.55-.09-1.05-.09-1.54,.2-.41,.24-.81,.72-.92,1.2-.12,.51-.09,1.09,.2,1.54,.26,.41,.69,.84,1.2,.92h0Z"/>
          <path class="cls-4" d="M76.89,198.93c2.3,4.52,8.71,5.59,13.29,5.58,1.22,0,2.48-.09,3.68,.1s1.95,1.06,2.88,1.7c2.23,1.56,5.83,1.55,7.21-1.15,1.17-2.29-2.28-4.32-3.45-2.02-.1,.2-.23,.24-.05,.16-.14,.06-.21,.11-.38,.09-.41-.05-.68-.13-1.04-.35-.81-.5-1.49-1.2-2.33-1.66-1.94-1.07-4.38-.88-6.53-.88-1.99,0-3.84-.27-5.75-.83-1.67-.48-3.26-1.16-4.08-2.78-1.17-2.3-4.62-.27-3.45,2.02h0Z"/>
        </g>
      </g>
      <g>
        <path class="cls-4" d="M2.51,194.67c13.44-2.57,26.89-5.15,40.33-7.71,2.53-.48,1.46-4.34-1.06-3.86-13.44,2.56-26.89,5.14-40.33,7.71-2.53,.48-1.46,4.34,1.06,3.86h0Z"/>
        <path class="cls-4" d="M345.26,145.18c-6.94-1.94-13.89-3.86-20.84-5.78-4.1-1.13-8.21-2.27-12.31-3.4-1.88-.52-3.77-1.04-5.65-1.56-.86-.24-1.72-.47-2.58-.71-1.12-.31-1.94-.3-3.07-.08-14.02,2.67-28.03,5.34-42.05,8.02-16.64,3.17-33.28,6.35-49.91,9.52-17.63,3.37-35.27,6.73-52.9,10.1s-34.54,6.59-51.8,9.89c-2.01,.38-4.03,.77-6.04,1.15-2.53,.48-1.46,4.34,1.06,3.86,13.7-2.62,27.4-5.23,41.1-7.85,14.36-2.74,28.73-5.49,43.09-8.23,14.09-2.69,28.19-5.38,42.28-8.07,13.16-2.51,26.33-5.02,39.49-7.53,11.31-2.16,22.62-4.31,33.93-6.47,1.27-.24,2.55-.49,3.82-.73h-1.06c14.13,3.89,28.26,7.77,42.37,11.72,2.48,.7,3.54-3.16,1.06-3.86h0Z"/>
      </g>
      <path class="cls-4" d="M427.24,137.59c8.68,2.51,14.56,10.58,17.97,18.53,4.32,10.08,3.97,20.84,3.7,31.57-.16,6.11-1.08,12.15-1.77,18.22-.12,1.07,1.01,2,2,2,1.18,0,1.88-.92,2-2,1.32-11.66,2.73-23.43,1.67-35.19-.91-10.1-4.45-20.01-11.03-27.83-3.56-4.23-8.14-7.61-13.48-9.16-2.48-.72-3.54,3.14-1.06,3.86h0Z"/>
      <path class="cls-4" d="M429.5,134.65c-.55-1.24-1.22-3.12-1.8-4.64-.75-1.99-1.5-3.98-2.37-5.93-.74-1.66-1.63-3.47-3.17-4.54-2.16-1.49-5.64-.91-8.1-.74-10.44,.72-21.59,3.48-30.15,9.73-4.38,3.2-8.25,7.24-10.53,12.22-.45,.98-.28,2.15,.72,2.74,.86,.5,2.28,.27,2.74-.72,3.52-7.69,11.06-13.22,18.87-16.04,4.91-1.77,10.12-3.04,15.31-3.65,2.63-.31,5.48-.66,8.13-.41,1.45,.13,2.07,1.98,2.61,3.16,1.6,3.54,2.69,7.29,4.28,10.83,.44,.99,1.88,1.22,2.74,.72,1.02-.59,1.16-1.75,.72-2.74h0Z"/>
      <path class="cls-4" d="M415.91,132.98c-8.95,.09-17.87,1.47-26.48,3.91-8.32,2.36-16.61,5.53-24.25,9.6-6.89,3.67-13.05,8.59-17.46,15.09s-6.71,14.73-8.12,22.65c-.8,4.47-1.4,8.96-2.19,13.43-.39,2.2-.88,4.37-1.31,6.55-.47,2.41-.9,4.86-1.93,7.1-.45,.98-.28,2.15,.72,2.74,.86,.5,2.29,.27,2.74-.72,1.73-3.78,2.35-7.95,3.15-11.99,.76-3.84,1.32-7.71,1.94-11.57,1.2-7.59,2.57-15.37,6.14-22.26s9.06-12.12,15.61-16.02c7.07-4.22,14.96-7.3,22.8-9.77,9.29-2.93,18.9-4.64,28.65-4.74,2.57-.03,2.58-4.03,0-4h0Z"/>
      <path class="cls-4" d="M337.58,214.32c-5.92-5.14-11.3-10.78-16.68-16.47-2.52-2.67-5.43-7.08-9.7-5.56-3.16,1.13-6.12,3.69-8.58,5.89-4.59,4.12-8.76,9.13-11.7,14.57-.51,.94-1,1.93-1.35,2.95-.62,1.81,.27,3.06,1.2,4.54,1.97,3.13,4.01,6.21,6.11,9.25,7.92,11.49,16.45,23.22,29.03,29.97,6.61,3.55,14.1,5.47,21.61,4.45s13.97-5.59,18.21-11.55,6.08-13.41,8.02-20.26c2.34-8.29,4.17-16.73,5.29-25.28,.27-2.07,.49-4.14,.67-6.22,.21-2.57-3.79-2.55-4,0-.66,7.87-2.08,15.66-3.95,23.33-1.69,6.97-3.54,14.15-6.36,20.76-2.52,5.9-6.72,10.61-12.51,13.44-6.19,3.03-13.47,2.44-19.81,.18-12.28-4.39-20.99-14.57-28.44-24.78-2.06-2.82-4.06-5.68-6.01-8.58-.93-1.38-1.84-2.76-2.75-4.15-.45-.7-.9-1.4-1.34-2.1-.2-.32-.4-.63-.6-.95-.11-.17-.63-1.01-.6-.8,.04,.23,.09-.18,.16-.35,.12-.33-.06,.12,.09-.23,.19-.44,.41-.86,.63-1.28,.54-1.03,1.14-2.02,1.77-3,1.55-2.39,3.29-4.64,5.18-6.77,2.09-2.34,4.36-4.58,6.88-6.46,1.24-.93,2.54-1.78,3.9-2.52,1.64-.89,2.46,.48,3.55,1.61,4.91,5.14,9.69,10.41,14.89,15.26,1.43,1.34,2.89,2.65,4.37,3.93,1.94,1.68,4.78-1.14,2.83-2.83h0Z"/>
      <path class="cls-4" d="M280.54,181.93c-.61-1.39-1.98-2.54-3.07-3.55-1.47-1.37-3.05-2.62-4.52-3.99-.89-.83-3.03-2.25-2.57-3.67,.49-1.51,2.17-1.12,3.31-.69,7.27,2.75,13.95,6.9,21.09,9.95,1.83,.78,3.33,1.57,4.57,3.2s2.02,3.73,1.96,5.85c-.07,2.57,3.93,2.57,4,0,.12-4.54-2.52-9.38-6.52-11.62-1.72-.96-3.67-1.6-5.45-2.45-2.13-1.01-4.24-2.06-6.36-3.11s-4.38-2.17-6.6-3.21c-2.01-.94-4.09-2.04-6.23-2.67s-4.6-.4-6.2,1.23c-1.7,1.74-2.28,4.69-.86,6.77,1.31,1.93,3.27,3.52,5.04,5.02,1.14,.97,2.28,1.96,3.35,3.01,.6,.59,1.26,1.17,1.6,1.94,.44,.99,1.88,1.22,2.74,.72,1.02-.6,1.16-1.74,.72-2.74h0Z"/>
      <path class="cls-4" d="M278.18,182.69c-7.18,.73-14.37,1.4-21.56,2.04-3.84,.34-7.68,.7-11.48,1.34-3.21,.54-6.23,1.53-7.29,4.98s1.25,6.65,4.86,7.14c1.07,.14,2.15-.26,2.46-1.4,.26-.93-.32-2.32-1.4-2.46-.57-.08-1.21-.14-1.71-.46-.18-.11-.24-.16-.36-.32,.02,.03-.06-.16-.07-.18-.18-.51-.01-1.31,.31-1.79,.63-.96,1.65-1.15,2.72-1.37,1.26-.25,2.53-.45,3.8-.62,6.14-.82,12.35-1.22,18.52-1.8,3.74-.35,7.47-.72,11.21-1.1,1.07-.11,2-.84,2-2,0-1-.92-2.11-2-2h0Z"/>
      <path class="cls-4" d="M266.36,192.39c-4.49,.13-8.98,.35-13.46,.77-2.13,.2-4.26,.42-6.38,.69-2,.25-4.07,.82-5.48,2.36-2.6,2.85-1.15,7.03,2.21,8.41,1.84,.76,3.76,.67,5.7,.49s3.76-.33,5.65-.48c4.1-.32,8.2-.63,12.3-.84,2.56-.13,2.58-4.13,0-4-6.25,.32-12.49,.82-18.72,1.39-1.23,.11-2.85,.27-3.92-.51-.59-.42-.81-1.12-.31-1.73,.84-1.03,2.63-1.1,3.82-1.24,1.84-.21,3.68-.41,5.52-.58,4.35-.4,8.71-.61,13.08-.73,2.57-.07,2.58-4.07,0-4h0Z"/>
      <path class="cls-4" d="M249.78,201.14c-2.38,.94-4.33,3.48-3.44,6.14,.74,2.23,2.78,3.39,5.04,3.52,3.14,.17,6.32,.05,9.46,0,1.71-.03,3.42-.06,5.13-.12,2.57-.09,2.58-4.09,0-4-3.53,.12-7.07,.16-10.6,.17-1.36,0-2.72-.03-4.08-.06-.08,0-.15,0-.23-.02,.6,.06-.31-.09-.28-.08-.41-.17-.43-.3-.6-.55-.06-.08-.09-.24,.02-.44,.14-.28,.46-.64,.65-.71,1-.4,1.71-1.34,1.4-2.46-.26-.95-1.45-1.8-2.46-1.4h0Z"/>
      <path class="cls-4" d="M258.51,212.76c5.21,.06,10.41,.22,15.61,.29,1.96,.03,3.91,.07,5.86,.2,1.68,.11,3.46,.22,5.05,.83,1.01,.39,2.19-.43,2.46-1.4,.31-1.13-.39-2.07-1.4-2.46-1.71-.67-3.67-.79-5.48-.93-2.07-.16-4.16-.22-6.23-.25-5.29-.08-10.58-.24-15.87-.3-2.57-.03-2.58,3.97,0,4h0Z"/>
      <path class="cls-2" d="M475.73,249.33c0-14.75,.39-18.44,.53-43.74,.04-6.69-6.37-11.54-12.79-9.67-16.46,4.78-40.28,11.74-56.64,16.46-5.51,1.59-9.31,6.63-9.34,12.37-.11,24.86-.38,34.88-.38,57.25l78.61-32.67Z"/>
      <path class="cls-4" d="M399.12,281.99c0-12.84,.14-25.68,.26-38.52,.03-3.53,.06-7.06,.08-10.6,.01-1.98,.02-3.96,.03-5.94,0-1.74-.05-3.44,.43-5.13,.78-2.77,2.66-5.13,5.17-6.54,1.29-.73,2.7-1.08,4.12-1.48,1.58-.46,3.17-.92,4.75-1.37,13.87-4.01,27.73-8.06,41.59-12.09,3.07-.89,6.19-2.08,9.32-2.67,2.64-.5,5.37,.47,7.21,2.39,2.36,2.46,2.19,5.5,2.16,8.69-.02,3.54-.06,7.08-.1,10.63-.11,8.81-.36,17.61-.41,26.42,0,1.19,0,2.37,0,3.56,0,2.57,4,2.58,4,0,0-9.06,.24-18.12,.38-27.18,.05-3.43,.09-6.87,.12-10.3,.03-3.75,.53-7.74-1.03-11.26-1.29-2.92-3.79-5.16-6.75-6.3-3.3-1.27-6.42-.6-9.69,.35-14.34,4.17-28.68,8.35-43.02,12.51-3.31,.96-6.62,1.92-9.92,2.87s-6.18,2.21-8.46,4.78-3.62,5.8-3.82,9.22c-.24,4.06-.06,8.18-.09,12.24-.1,13.26-.28,26.51-.31,39.77,0,1.99,0,3.98,0,5.96,0,2.57,4,2.58,4,0h0Z"/>
    </g>
  </g>
</svg>