<?xml version="1.0" encoding="UTF-8"?><svg id="_レイヤー_2" xmlns="http://www.w3.org/2000/svg" viewBox="0 0 704.04 508.09"><g id="_レイヤー_1-2"><g><path d="M183.02,89.01c.02-.53,.06-1.05,.05-1.58,0-.17-.07-.48-.16-.5-1.9-.38-1.21-2.04-1.15-2.96,.14-2.16,.72-4.17,.25-6.48-.49-2.42,.18-5.05,.19-7.6,.01-1.5-.2-3.02-.43-4.51-.08-.52-.49-.98-.89-1.74-2.2,3.26-4.2,6.12-6.1,9.05-4.02,6.19-9.05,11.54-13.95,17-.53,.59-1.43,.93-2.22,1.17-1.66,.51-3.34,.99-5.05,1.28-.96,.16-2-.1-3.42-.2,.71-.84,1.04-1.38,1.51-1.76,2.44-1.99,4.33-4.44,6.15-6.97,.69-.97,1.47-1.9,2.33-2.72,2.09-1.96,2.83-4.74,4.39-7.02,1.43-2.09,2.66-4.33,4.01-6.48,.38-.6,.88-1.13,1.29-1.72,.32-.45,.9-1,.81-1.39-.36-1.65,.65-2.69,1.45-3.84,4.37-6.3,7.98-13.03,11.53-19.81,1.14-2.17,2.48-4.23,3.69-6.36,1.03-1.8,2.06-3.59,3-5.43,2.6-5.11,5.22-10.22,7.71-15.39,1.66-3.43,3.12-6.96,4.68-10.45,.16-.36,.28-.77,.53-1.06,1.13-1.31,5.81-2.06,7.83-1.13-.74,1.72-1.53,3.43-2.21,5.19-.68,1.76-1.24,3.57-2.01,5.85,.67-.52,.94-.72,1.49-1.15-.05,.79,.08,1.41-.13,1.88-1.14,2.54-2.29,5.08-3.57,7.55-.7,1.34-1.48,2.58-1.68,4.14-.1,.76-.53,1.51-.96,2.18-2.35,3.7-4.62,7.41-6.24,11.52-1.25,3.16-3,6.12-4.6,9.3,1.83,1.33,1.57,3.57,2.08,5.52,.3,1.15,.38,2.36,.66,3.51,.97,3.96,1.4,7.97,1.33,12.05-.02,1.32,.33,2.65,.48,3.98,.05,.39,.17,.91-.02,1.15-.95,1.2-.76,2.34-.22,3.66,.27,.66-.02,1.55-.07,2.33-.33,5.08-.66,10.16-.98,15.24-.02,.36,.06,.72,.13,1.59,1.11-1.03,1.95-1.71,2.67-2.51,2.22-2.46,4.44-4.93,6.56-7.47,1.72-2.06,3.29-4.25,4.96-6.36,.83-1.05,1.77-2,2.59-3.05,1.39-1.8,2.71-3.66,4.08-5.48,.48-.63,.98-1.28,1.58-1.79,.88-.75,1.68-1.47,1.57-2.76-.02-.21,.12-.48,.27-.66,1.11-1.3,1.82-2.74,2.49-4.35,1.11-2.67,2.96-5.03,4.53-7.5,1.98-3.12,3.54-6.51,4.37-10.04,.76-3.2,.59-6.61,.85-10.29-2.28,.51-4.2,.85-6.07,1.37-6.69,1.83-13.37,3.71-20.05,5.57-.38,.11-.78,.43-1.12,.36-.5-.1-1.14-.34-1.36-.72-.2-.35-.11-1.25,.17-1.44,1.36-.9,2.74-1.96,4.28-2.37,7.22-1.93,14.49-3.68,21.75-5.47,2.65-.66,2.69-.74,2.48-3.34-.09-1.17,.12-2.36,.1-3.54-.08-3.98-.26-7.97-.27-11.95,0-2.07,.18-4.15,.42-6.2,.07-.62,.52-1.6,.97-1.71,2.92-.69,5.89-1.21,8.85-1.72,.41-.07,.87,.23,1.35,.37-.26,1.35-.64,2.57-.71,3.81-.08,1.37-.55,2.87,.72,4.05,.18,.17,.12,.6,.15,.92,.23,2.44,.47,4.88,.68,7.32,.06,.69,.04,1.4,.01,2.09-.08,2.01-.19,4.02-.3,6.35,1.72-.35,3.18-.57,4.6-.95,4.7-1.25,9.37-2.63,14.09-3.8,3.61-.89,7.26-1.67,11.02-.92,.3,.06,.58,.22,.86,.36,.05,.03,.07,.13,.25,.51-1.79,.56-3.54,1.11-5.29,1.66-.15,.05-.32,.05-.47,.12-6.66,2.83-13.97,2.97-20.82,5.05-4.35,1.32-4.41,1.14-4.47,5.74,0,.24,.02,.48,.04,.86,.25,.18,.54,.44,.87,.62,1.06,.55,1.26,1.36,.81,2.4-.5,1.17-1.03,2.34-1.51,3.52-.27,.66-.54,1.34-.67,2.03-.17,.93-.2,1.89-.3,3,1.77,.29,2.18,1.74,2.98,3,1.88,2.94,4.07,5.68,6.12,8.52,1.19,1.65,2.85,2.9,3.65,4.9,.38,.95,1.51,1.59,2.23,2.43,1.65,1.9,3.15,3.94,4.92,5.73,2.84,2.88,6.01,5.45,8.74,8.43,2.67,2.91,5.88,5.05,9.02,7.33,3.54,2.57,7.42,4.3,11.8,4.91,1.92,.27,3.99,.29,5.54,1.7,.05,1.11-.77,1.34-1.42,1.42-5.02,.61-10,2.38-15.11,1.2-2.27-.52-4.58-.83-6.8-1.92-2.54-1.24-5.11-2.39-7.44-3.99-1.24-.85-2.48-1.72-3.66-2.65-2.31-1.81-4.33-3.96-6.9-5.44-.39-.23-.55-.83-.87-1.21-.44-.54-.85-1.18-1.42-1.55-2.44-1.59-2.31-1.66-4.04-4.41-.89-1.41-2.36-2.5-3.72-3.55-.94-.73-1.88-1.31-1.78-2.83-1.21,.65-1.11,1.63-1.05,2.55,.28,4.93,.31,9.89,1,14.76,.32,2.24,.66,4.58,1.35,6.93,.54,.12,1.06,.34,1.59,.35,4.85,.06,9.71,.08,14.57,.13,1.25,.01,2.59-.06,3.2,1.54-1.16,1.3-2.75,1.62-4.24,2.02-1.75,.47-3.58,.63-5.34,1.09-2.41,.63-4.78,1.22-7.3,.74-.68-.13-1.41-.02-2.35-.02,.58,8.41,.89,16.62,.8,24.96-1.34,1.13-3.17,1.19-4.83,1.63-1.46,.39-3,.51-4.45,.95-1.44,.43-2.5,.16-3.37-1.19,1.45-2.16,.62-4.54,.34-6.93-.16,.33-.32,.65-.67,1.37-.17-3.83-.27-7.29-.49-10.74-.22-3.42-.58-6.83-.9-10.58-3.07,.2-6.18,.19-9.22,.64-4.16,.62-8.16,1.94-12.16,3.25-.39,.13-1.13,.11-1.27-.11-.25-.4-.38-1.13-.17-1.49,.33-.58,.92-1.1,1.51-1.45,2.9-1.69,6.01-2.91,9.31-3.57,3.82-.76,7.64-1.5,11.8-2.31-.17-2.01-.38-4.01-.51-6.02-.06-.93,.06-1.87,.02-2.81-.05-1.21,.31-2.48-.64-3.58-1.19-1.37,.26-2.7,.32-4.06,.03-.6,.15-1.2,.08-1.89-.18-1.85-.12-3.71-.17-5.57-.03-.99-.93-2.04,.32-2.93,.13-.09,0-.97-.21-1.06-1.33-.58-.35-1.36-.49-2.26-.77,.96-1.52,1.93-2.3,2.87-3.4,4.1-6.81,8.2-10.22,12.29-1.63,1.96-3.29,3.89-4.9,5.86-3.59,4.37-7.39,8.54-11.6,12.32-2.07,1.87-4.13,3.76-6.27,5.55-1.16,.97-1.9,2.07-2.12,3.58-.33,2.36-.69,4.73-1.16,7.07-.1,.49-.63,1.13-1.09,1.27-2.97,.91-6.03,1.38-9.23,1.38-.14-.29-.44-.61-.38-.83,.63-2.31,.17-4.68,.44-7,.16-1.45,.71-2.86,.93-4.3,.49-3.2,1.01-6.39,.56-9.68-.24-1.74,0-3.55,.03-5.33v.02Zm51.03,21.66c-.4,.79-1.41,1.56,0,2.42v-2.42Z"/><path d="M390.22,107.35c-.93,1.91-1.67,3.4-2.38,4.9-1.8,3.8-3.59,7.61-5.37,11.42-.32,.69-.73,1.15-1.56,1.28-2.9,.47-5.79,1.01-8.98,1.58,.2-.72,.19-1.15,.4-1.39,2.8-3.27,4.18-7.29,5.81-11.16,.43-1.03,.19-2.34,.32-3.52,.08-.69,.08-1.49,.44-2.03,2.07-3.19,2.45-7,3.89-10.42,.14-.34,.25-.96,.07-1.13-1.36-1.26-.52-2.56-.29-3.93,.38-2.23,1.17-4.44,.83-6.97-2.92,.51-5.72,1.03-8.53,1.47-.86,.14-2.07,.92-2.51-.39-.44-1.32,.82-1.66,1.78-2.02,2.01-.75,4.04-1.47,6.04-2.25,1.24-.48,2.44-1.06,3.73-1.62,0-1.37-.03-2.56,0-3.75,.03-1.17,.36-2.39,.12-3.5-.21-1-.52-1.91-.13-2.91-1.65-.45-.19-2.25-1.49-3.07-1.11,.22-2.4,.48-3.93,.78,.68,3.57,2.02,6.55,5.04,8.75-1.07,.86-2.09,1.38-3.41,1.56-1.94,.27-3.82,.95-5.76,1.33-1.39,.27-2.82,.45-4.23,.43-.49,0-1.15-.6-1.44-1.09-1.7-2.89-3.32-5.82-5-8.82-.07,.57-.36,1.28-.21,1.89,1.05,4.22,.37,8.53,.77,12.77,.36,3.81-.98,7.36-1.23,11.06-.11,1.59,.16,3.42-1.48,4.59-.15,.11,0,.6-.04,.9-.09,.71-.02,1.51-.33,2.1-1.93,3.61-2.91,7.63-5,11.18-2.06,3.51-3.99,7.09-5.93,10.66-.62,1.15-1.42,1.66-2.78,1.86-3.03,.43-6.02,1.16-9.03,1.75-.22,.04-.46-.07-.68-.1-.7-.82-.47-1.55,.27-2.07,1.86-1.3,2.76-3.27,3.71-5.19,1.59-3.2,3.18-6.4,4.73-9.62,.42-.87,1.28-1.73,.31-2.82-.16-.18,.03-.74,.15-1.1,.67-1.88,1.36-3.75,2.08-5.7h1.24c.03-.25,.11-.49,.05-.54-1.13-.94-.63-2.16-.52-3.27,.14-1.34,.53-2.66,.6-4,.31-5.88,.56-11.75-.02-17.65-.27-2.69-1.19-5.22-1.36-7.9-.08-1.22-.87-1.97-1.93-2.15-1.47-.25-3.05-.52-4.48-.24-4.57,.9-8.87,2.64-12.87,5.03-1.49,.89-2.88,2.06-4.02,3.37-1.59,1.82-3.64,2.54-5.83,3.05-2.23,.52-4.49,.9-6.75,1.28-.34,.06-.73-.22-1.23-.39,.25-.66,.46-1.22,.75-1.99-2.86,.72-5.53,1.39-8.44,2.12-.12-.6-.34-1.18-.35-1.77-.08-3.67,0-7.35-.19-11.01-.31-6.05,.5-12.08,.17-18.12-.29-5.48-.78-10.95-1.34-16.41-.24-2.35-.86-4.67-1.39-6.98-.27-1.17,.18-1.95,1.21-2.23,2.07-.56,4.17-.97,6.27-1.41,1.31-.27,2.68-.33,3.93-.77,5.85-2.07,11.64-4.3,17.5-6.34,4.22-1.47,8.55-2.59,13.08-2.65,1.21-.02,2.53-.31,3.73,1.27-4.15,1.13-8,2.19-11.93,3.26,.08,4.95-.26,9.69,.51,14.64,2.39-.36,4.57-.72,6.75-1.01,1.02-.14,2.07-.27,3.09-.21,.93,.06,1.91,.29,2.17,1.54-3.32,3.06-8.04,1.59-11.63,3.61-.07,4.43,1.52,8.77,.19,13.54,1.81-.43,3.38-.86,4.98-1.17,3.52-.67,7.03-1.39,10.57-1.87,2.04-.28,2.24,0,3.54,1.56-.32,.29-.61,.72-.99,.86-2.17,.75-4.29,1.51-6.64,1.76-3.46,.36-6.95,.9-10.51,2.42,.3,4.2,.61,8.44,.93,12.87,2.6-.48,5.08-.89,7.54-1.4,3.46-.71,6.94-1.08,10.46-.82,1.41,.11,2.85,.39,4.19,.84,1.92,.63,2.28,1.08,3.91,3.57,2.47-2.6,5.86-3.15,9.06-4.14,1.6-.49,3.19-.45,4.67,.32,1.83,.95,3.28-.19,4.64-.94,.52-.28,.57-1.72,.54-2.63-.06-2.2,.58-3.19,2.66-3.74,2.15-.56,4.27-1.24,6.45-1.64,1.38-.25,2.85-.18,4.26-.06,.77,.06,.75,.69,.54,1.42-.32,1.09-.39,2.25-.61,3.64,2.18-.13,3.99-.38,5.79-.31,3.1,.11,6.2,.31,9.27,.68,1.05,.12,2.07,.78,3.03,1.33,1.38,.8,1.9,2.07,1.7,3.66-.43,3.36-.7,6.74-2.32,9.85-.29,.57,.22,1.55,.31,2.07-1.77,1.39-3.41,2.72-5.1,3.97-.56,.42-1.25,.71-1.92,.93-1.49,.5-2.99,1.12-4.53,1.31-1.81,.23-3.68,.05-5.87,.05-.34,2.46-.71,5.14-1.09,7.91,.73,.18,1.28,.26,1.78,.46,1.04,.43,1.81,.97,2.22,2.23,1.08,3.3,2.2,6.62,3.74,9.72,3.93,7.9,10.64,12.55,18.91,15,4.06,1.2,8.2,.54,12.27-.41,1.32-.31,2.65-.53,3.99-.75,.46-.08,.99-.17,1.41-.03,.83,.28,1.86,.73,1.67,1.72-.11,.56-1,1.25-1.65,1.39-2.42,.5-4.87,.93-7.33,1.13-4.61,.36-9.22,.59-13.84,.76-1.83,.07-3.69,0-5.49-.29-4.38-.72-8.39-2.49-11.98-5.04-2.95-2.09-5.68-4.5-8.46-6.83-.84-.7-1.49-1.62-2.49-2.71Zm-76.44-69.95c3.2-.41,5.97-1.19,8.89-2.46-.37-4.25-.73-8.4-1.11-12.74-2.02,.52-3.71,.92-5.37,1.4-1.19,.34-2.84,.46-3.38,1.28-.55,.83-.03,2.4,.09,3.64,.26,2.84,.56,5.68,.89,8.89Zm2.01,2.94v16.7c2.24-1.12,4.3-2.16,6.36-3.18,1.11-.55,1.53-1.23,1.39-2.63-.3-2.89-.16-5.82-.32-8.72-.07-1.28-.45-2.55-.7-3.91-2.43,.63-4.56,1.18-6.73,1.74Zm8.09,28.08v-9.61c-3.06-.28-5.62,.33-8.16,1.05,0,2.28-.03,4.35,.02,6.41,.01,.53,.26,1.05,.42,1.57,.22,.72,.44,1.44,.68,2.15,.38,1.15-.26,2.55,.82,3.53,4.07-2.05,8.08-4.08,12.1-6.1l-.03-.17c-1.77,.35-3.53,.7-5.84,1.16Zm73.59,9.16c1.72,.04,2.69-.53,3.12-2.14,.78-2.95,1.38-5.88,1.06-8.96-.27-2.64-2.13-3.9-4.98-3.01,.37,4.62-.34,9.33,.79,14.11Zm-85.78-52.3c-.22,.05-.44,.1-.66,.16,.32,3.27,.64,6.54,.96,9.81,.16,0,.32-.01,.48-.02,.55-2.54-.17-5.1-.1-7.65,.02-.76-.44-1.53-.68-2.3Zm3.31,15.45q-1.09,1-.33,4.47c.73-1.49,.61-2.81,.33-4.47Z"/><path d="M564.79,286.95c-2.98,.5-5.92,1.02-8.87,1.48-.9,.14-1.97,.45-2.72,.12-1.13-.49-.19-1.72-.37-2.61-.3-1.49-.5-3-.65-4.51-.16-1.57-.13-3.17-.35-4.74-.1-.72-.52-1.46-.96-2.06-.5-.67-.85-1.26-.74-2.15,.31-2.47,.09-3.9-.76-6.82-.09-.32,.05-.73,.14-1.08,.07-.28,.4-.66,.32-.78-1.45-1.9-.48-3.94-.36-5.91,.18-3,.37-6,.61-8.99,.11-1.34,.4-2.67,.54-4.01,.07-.68,.01-1.38,.01-2.26-1.31,.18-2.32,.27-3.33,.46-8.42,1.55-16.62,3.87-24.44,7.39-.94,.42-1.81,.99-2.75,1.43-2.16,1.01-4.34,1.97-6.51,2.96-1.08,.49-2.16,1-3.26,1.51,1.54,2.32,2.45,3,7.01,5.35-.3,.93-1.05,1.23-1.9,1.52-3.24,1.08-6.47,2.21-9.92,3.4,.2,1.83,.5,3.73,.6,5.65,.11,1.88,.02,3.77,.02,6.07-3.09,2.02-7.11,2.66-10.91,3.84-.83,.26-1.83-.03-3.06-.07,1.77-7,.56-13.77,.67-20.65-4.55,7.55-11.18,12.07-19.6,14.06-.86,.2-1.8,.03-2.77-.41,.7-.5,1.37-1.07,2.12-1.49,3.74-2.08,6.35-5.21,8.42-8.86,2.91-5.14,4.96-10.67,7.02-16.18,.63-1.69,1.35-3.02,3.21-3.48,.83-.21,1.48-.73,1.51-1.62,.06-1.96,.02-3.91,.02-6.2-1.32,.71-2.53,1.18-3.5,1.93-2.19,1.71-4.41,3.43-6.35,5.42-1.51,1.55-3.42,2.27-5.17,3.32-1.49,.9-3.1,1.59-4.61,2.47-.92,.54-1.85,.91-2.5-.15-.52-.85-.34-1.73,.5-2.54,4.21-4.07,8.86-7.54,13.99-10.36,2.31-1.27,4.64-2.5,6.98-3.7,.84-.43,1.34-.94,1.42-1.99,.16-2.12,.49-4.24,.82-6.88-1.13,.56-2.01,.76-2.56,1.3-1.27,1.28-2.44,.75-3.68,.1-2.37-1.26-3.38-3.5-4.12-5.88-.45-1.44-.68-2.95-.95-4.43-.21-1.18,.13-1.95,1.48-2.23,2.17-.47,4.29-1.16,6.45-1.65,.8-.18,1.68-.03,2.7-.03-.14,1.43-.45,2.55-.28,3.59,.13,.81,.87,1.53,1.61,2.72,.44-2.61,.83-4.7,1.14-6.8,.94-6.38,1.87-12.76,2.76-19.15,.29-2.05,.43-4.11,.67-6.16,.22-1.93,.93-2.64,2.93-2.75,1.39-.08,2.89-.53,4.34,1.03-.35,3.1-.76,6.48-1.11,9.86-.2,1.88-.27,3.77-.48,5.65-.21,1.89-.52,3.77-.75,5.66-.2,1.56-.32,3.12-.53,4.67-.17,1.24-.39,2.48-.63,3.71-.26,1.31-.16,2.6-.12,3.92,.05,2.09-.55,4.2-.82,6.31-.17,1.38-.23,2.78-.37,4.64,2.98-1.37,5.56-2.55,8.13-3.77,.22-.11,.34-.46,.47-.72,.75-1.41,1.43-2.85,2.23-4.22,2.63-4.5,4.62-9.22,5.38-14.41,.14-.93,.54-1.52,1.6-1.8,3.07-.81,6.13-1.49,9.57-.73-2.79,1.79-3.33,4.72-4.36,7.37-.14,.37-.28,.75-.47,1.1-1.63,2.98-3.28,5.95-4.98,9.04,3.08,.06,6.12-1.5,9.79-.3-9.37,4.61-19.04,7.4-27.89,12.49v6.05c.11,.03,.23,.06,.34,.08,.1-.61,.21-1.23,.42-2.47,.3,.63,.46,.82,.47,1.02,.06,1.19,.14,2.39,.13,3.58-.05,3.58,.51,6.93,3.17,9.62,.33,.33,.51,.8,.77,1.2,1.07,1.67,1.66,1.9,3.3,.9,5.2-3.19,10.93-5.14,16.64-7.12,7.24-2.5,14.66-4.35,22.2-5.73,.62-.11,1.23-.29,2.07-.5,1.11-10.04,2.27-20.05,1.94-30.47-1.26,.45-2.26,.85-3.3,1.15-.99,.28-2.02,.45-3.26,.72-3.46-3.37-8.2-5.12-12.71-7.29-.6-.29-1.19-.8-1.57-1.35-.66-.99-.35-1.78,.76-2.27,2.64-1.17,5.43-1.75,8.27-2.19,1.84-.28,3.41,.14,4.94,1.23,2.07,1.48,4.25,2.79,6.86,4.47-.31-2.16-.45-3.9-.83-5.6-.56-2.56-.28-3.04,2.23-3.59,2.43-.54,4.82-.97,7.45,.23,.14,3.41,.28,6.88,.43,10.47,.34-.64,.62-1.16,1.15-2.15,.14,3.05,.3,5.62,.35,8.19,.03,1.56,.19,3.03,.55,4.58,.48,2.1,.03,4.43-.09,6.65-.2,3.81-.45,7.63-.67,11.44-.07,1.17-.13,2.34-.2,3.7,2.26-.2,4.4-.28,6.51-.61,4.6-.72,9.18-1.02,13.82-.26,1.31,.21,2,.81,2.37,2.16-.51,.25-.96,.59-1.45,.69-3.82,.79-7.64,1.53-11.47,2.28-.97,.19-1.82,.23-2.59-.68-.39-.46-1.24-.72-1.89-.74-1.43-.06-2.87,.03-4.29,.16-.99,.09-1.46,.62-1.43,1.77,.03,1.04-.37,2.09-.56,3.14-.03,.19-.02,.54,.08,.59,1.13,.51,.46,1.43,.41,2.11-.15,2.3-.55,4.58-.66,6.88-.07,1.48,.26,2.98,.32,4.47,.09,2.13,0,4.26,.16,6.38,.32,3.96,.75,7.92,1.19,11.87,.26,2.37,.65,4.73,.95,7.09,.08,.61,.01,1.23,.01,2.13Z"/><path d="M396.13,212.34c.73-1.18,1.07-2.43,1.83-2.79,1.59-.75,3.13-1.9,5.14-1.52,1.47,.28,1.64,.3,1.49,1.73-.17,1.66-.38,3.31-.54,4.97-.03,.3,.08,.61,.17,1.21,2.13-.76,4.15-1.42,6.1-2.24,.42-.18,.72-.94,.82-1.48,.1-.59-.17-1.24-.15-1.86,.04-1.28,.49-2.37,1.84-2.78,2.34-.73,4.58-1.88,7.14-1.75,.44,.02,.95-.15,1.35-.37,2.27-1.27,4.75-1.76,7.27-2.13,3.11-.45,3.28-.34,3.47,2.97,1.68-.52,3.29-1.01,5.1-1.56-.36-1.67-.66-3.13-.98-4.59-.41-1.88-.27-2.3,1.33-3.04,2.94-1.35,6.11-1.65,9.29-1.77,.9-.03,1.41,.49,1.55,1.47,.19,1.4,.53,2.79,.84,4.36,5.29-.87,10.15-3.59,15.81-2.85-.57,1.9-2.12,2.45-3.35,3.05-1.73,.85-3.46,1.69-5.63,1.65-2.07-.04-4.16,.92-6.45,1.49,.24,2.49,.55,4.85,.66,7.22,.15,2.99,.24,5.98,.15,8.97-.07,2.6-.21,5.22-.69,7.77-.73,3.85-2,7.51-5.32,10.03-.18,.14-.44,.39-.59,.34-2.04-.66-3.67,.72-5.51,1.04-.39,.07-.79,.06-1.25,.09-.4-.82-.78-1.61-1.14-2.35,.56-1.63,1.41-3.23,1.61-4.91,.6-5.01,1.5-10,.85-15.11-.4-3.14-.35-6.34-.5-9.49-2.22,.04-3.96,.62-5.74,1.85,.15,2.02,.21,4.08,.48,6.1,.12,.88,.71,1.68,1.01,2.55,.31,.89,.69,1.81,.74,2.74,.25,3.97,.4,7.95,.6,12.09-3.51,1-6.79,2.64-10.64,2.7v1.49c-2.64,1.29-5.25,2.55-7.83,3.84-1.18,.59-1.63,.58-1.93-.65-.53-2.15-.9-4.35-1.19-6.55-.5-3.71-.89-7.43-1.34-11.14-.18-1.5-.39-2.99-.63-4.48-.08-.53-.29-1.03-.51-1.82-2.28,.91-4.4,1.76-6.68,2.67v6.35c.06,0,.12,0,.19,.01,.1-.58,.2-1.16,.33-1.97,.18,.37,.26,.48,.28,.6,.46,3.46,.58,7.01,1.47,10.36,.59,2.2,1.61,4.3,2.04,6.6,.24,1.28,1.48,.38,2.18,.67,.43,.97,.38,1.69-.71,2.16-2.48,1.08-4.94,2.23-7.41,3.35-.43,.19-.91,.29-1.33,.5-2.14,1.07-3.01,.69-3.38-1.73-.43-2.83-.74-5.68-1.01-8.53-.44-4.66-.81-9.32-1.22-14.16-.5,.2-1.02,.33-1.46,.59-3.53,2.12-7.37,3.77-10.19,6.98-.76,.86-1.97,1.33-2.97,1.97-.82,.52-1.59,.73-2.28-.24-.86-1.2-.94-2.14,.07-2.92,1.44-1.12,2.94-2.17,4.51-3.11,3.76-2.25,7.57-4.43,11.36-6.62,1.62-.94,2.18-2.83,1.55-5.52-2.33,1.29-4.63,2.57-7.18,3.99-1.01-.17-1.29-1.02-1.07-2.21,.78-4.15,1.53-8.3,2.33-12.44,1.27-6.57,2.51-13.14,3.9-19.68,.69-3.26,1.69-6.46,2.49-9.7,.36-1.46,.55-2.96,.85-4.44,.24-1.15,.29-2.39,1.61-3.02,1.25-.59,2.22-.57,4.08,.34-.15,2.86-1.23,5.54-1.95,8.3-1.15,4.39-2.35,8.77-3.38,13.2-.39,1.65-.36,3.4-.53,5.28,2.65-1.46,5-2.96,7.51-4.1,4.71-2.14,9.44-4.29,14.31-6.04,5.17-1.85,10.46-3.42,15.79-4.78,5.39-1.37,10.82-2.73,16.44-2.83,.56-.01,1.12,0,1.67,.07,.21,.03,.4,.22,.88,.49-2.05,3.03-4.53,5.33-8.23,6.37-.07-.4-.16-.85-.23-1.29-.06-.38-.08-.77-.16-1.47-1.8,.25-3.54,.39-5.23,.73-9.72,1.98-19.16,4.86-28.25,8.85-3.51,1.54-6.79,3.41-9.7,5.93-1.66,1.43-3.58,1.71-5.42,.96-.18,1.54-.97,2.84-.49,4.55,.35,1.23-.09,2.67-.11,4.02-.03,2.04,0,4.07,0,6.4Z"/><path d="M122.4,281.6c.6-.61,1.22-1.2,1.78-1.83,1.22-1.36,2.45-2.71,3.59-4.14,.4-.51,.52-1.23,.82-1.84,.27-.56,.59-1.1,.92-1.63,.41-.65,1.03-1.22,1.24-1.92,.4-1.37,.91-2.6,1.76-3.79,.62-.87,.68-2.17,.9-3.29,.54-2.67,2.43-5.02,1.85-7.96-.05-.23,.13-.68,.31-.76,1.16-.48,1.17-1.64,1.49-2.56,.62-1.8,1.08-3.66,1.67-5.48,.56-1.75,1.02-3.45,.32-5.32-.24-.64-.02-1.56,.26-2.25,.48-1.19,.59-2.38,.7-3.64,.32-3.68,.9-7.34,1.32-11.01,.17-1.47,.22-2.95,.27-4.42,.14-4.45,.47-8.91,.31-13.35-.1-2.91-.87-5.81-1.44-8.7-.35-1.76-.32-2.18,1.17-2.89,2.43-1.17,4.86-2.32,7.64-2.47,1.78-.1,1.79-.2,2.08,1.62,.09,.55,.1,1.11,.19,1.66,.1,.6-.23,1.57,1.04,1.3,.04,0,.36,.8,.37,1.23,.03,3.67,.02,7.33,.03,11,0,1.11,0,2.22,0,3.57,1.87-.76,3.66-1.23,5.15-2.16,2.03-1.28,4.28-1.64,6.51-2.17,2.53-.6,2.98-1.14,2.86-3.74-.02-.47-.18-.94-.22-1.42-.1-1.05,.22-1.95,1.25-2.33,2.16-.79,4.32-1.62,6.55-2.17,.99-.25,2.14,.14,3.57,.26-1.25,1.85-.5,3.14,.55,4.65,.41-.32,1.09-.6,1.1-.9,.01-2.12,1.5-2.89,3.1-3.49,2.46-.92,4.91-1.92,7.46-2.51,1.19-.27,2.76,.02,3.82,.63,1.04,.59,1.9,.62,2.91,.42,.47-.09,.92-.26,1.39-.36,1.68-.36,3.36-.62,5.01,.13-.62,1.7-2.15,2.05-3.64,2.52-1.25,.39-2.45,.91-3.85,1.44,1.67,3.61,2.02,7.44,5.04,10.05,.72,.63,1.14,1.69,1.51,2.62,.91,2.25,3.03,3.51,4.34,5.43,.93,1.36,1.89,2.71,3,4.27-.88,.59-1.51,1.25-2.27,1.48-3.25,.98-6.58,1.71-9.8,2.78-1.43,.47-2.12,.01-2.72-1.07-1.18-2.17-2.35-4.35-3.49-6.54-1.09-2.08-1.08-2.11-3.2-1.27-6,2.4-12.07,4.58-18.38,6.08-1.32,.31-2.64,.6-3.98,.84-1.55,.28-2.42-.32-2.26-1.87,.2-1.88,.75-3.73,1.18-5.58,.44-1.86,.96-3.7,1.38-5.57,.09-.41-.09-.89-.17-1.53-4.33,1.48-8.51,2.9-12.98,4.43-.87,1.09-.39,2.73-.45,4.23-.16,3.71-.68,7.36-1.49,10.98-.87,3.87-1.48,7.81-2.45,11.65-.91,3.61-2.05,7.16-3.27,10.68-1.35,3.9-2.83,7.77-4.39,11.59-1.98,4.85-5.04,9.02-8.49,12.93-.26,.3-.51,.66-.85,.83-3.06,1.52-6.23,2.68-9.6,3.23l-.29-.58Zm65.56-67.95c-1.74-2.61-3.29-5-4.92-7.33-.21-.29-.88-.52-1.23-.41-.97,.31-1.9,.77-2.79,1.27-.25,.14-.33,.64-.41,1-.22,.97-.38,1.96-.59,2.93-.15,.69-.7,1.61-.44,2.03,.79,1.27,.07,2.27-.2,3.38-.15,.62-.35,1.24-.38,1.86-.05,1.24,.61,1.78,1.81,1.4,.82-.26,1.64-.66,2.34-1.16,2.19-1.55,4.33-3.17,6.79-4.98Z"/><path d="M50.44,174.44c-.21,1.01-.36,1.7-.49,2.39-.29,1.55-.77,3.05-.5,4.7,.14,.89-.16,1.9-.46,2.79-.73,2.19-1.69,4.31-2.33,6.52-.4,1.4-.39,2.93-.57,4.47,.2,.05,.48,.22,.61,.15,2.24-1.33,4.74-1.7,7.26-2.18,3.04-.59,5.98-1.68,9-2.4,6.35-1.52,12.69-3.13,19.1-4.36,8.77-1.68,17.59-3.12,26.41-4.5,4.01-.63,8.09-.9,12.13-1.31,1.23-.13,2.17,.29,2.63,1.79-1.33,.56-2.58,1.23-3.91,1.62-3.11,.92-6.25,1.72-9.39,2.56-.46,.12-.95,.32-1.39,.26-5.37-.8-10.59,.31-15.82,1.2-4.56,.77-9.13,1.51-13.65,2.46-9.3,1.95-18.55,4.08-27.51,7.32-2.1,.76-4.2,1.56-6.35,2.12-1.32,.34-2.1,1.05-2.6,2.21-2.08,4.84-4.09,9.7-6.63,14.33-.21,.39-.18,.91-.3,1.54,2.07,.37,2.44,1.74,2.63,3.59,.26,2.52,1.14,4.97,1.55,7.48,.57,3.45,1.21,6.92,1.36,10.4,.2,4.78,.14,9.59-.15,14.36-.37,6.2-1.07,12.37-2.39,18.46-.32,1.49-.93,2.45-2.54,3.05-2.15,.8-4.19,1.9-6.48,2.3-.37,.06-.76,.05-1.37,.08,.2-.7,.34-1.2,.5-1.69,.47-1.48,1.24-2.85,.46-4.54-.32-.7,.02-1.73,.1-2.6,.28-2.93,.87-5.86,.82-8.78-.1-5.19,.35-10.39-.21-15.8-.41,.26-.75,.47-1.31,.82-.23-1.65-.32-3.28-.71-4.83-.37-1.49-1.04-2.9-1.7-4.7-.91,1.52-1.79,2.8-2.48,4.17-2.83,5.62-6.36,10.74-10.7,15.29-.59,.62-1.34,1.13-2.1,1.55-2.3,1.28-4.61,2.55-6.98,3.7-1.18,.57-2.5,.87-3.99,.92,.73-.79,1.41-1.62,2.18-2.37,4.63-4.48,8.18-9.76,11.25-15.37,1.99-3.63,3.97-7.26,5.91-10.92,2.26-4.26,4.67-8.46,6.63-12.85,1.9-4.25,4.3-8.25,6.08-12.54,1.97-4.74,3.94-9.49,5.67-14.32,1.39-3.89,2.43-7.91,3.61-11.87,.14-.46,.4-.98,.29-1.38-.64-2.39,.76-3.62,2.61-4.37,1.86-.75,3.8-1.52,6.2-.89Z"/><path d="M98.61,423.47c-3.38,1.35-6.5,2.53-9.56,3.85-3.59,1.54-7.11,3.24-10.69,4.81-.92,.4-1.93,.9-2.91,.04-1.39-1.22-1.39-2.68,.12-3.79,1.09-.8,2.23-1.59,3.47-2.08,4.45-1.74,8.95-3.34,13.43-5,1.33-.49,2.66-1,4.26-1.6-1.44-3.28-2.99-6.28-4.75-9.15,1.52-2.24,3.51-3.09,6.25-3.13,1.47,2.83,3.01,5.68,4.44,8.58,.74,1.5,.87,1.63,2.47,1.12,4.16-1.33,8.32-2.66,12.5-3.92,1.09-.33,2.27-.68,3.6,.17-.85,.86-1.58,1.67-2.38,2.39-1.64,1.49-3.29,2.98-5.01,4.38-.43,.35-1.14,.38-1.74,.48-1.93,.32-3.87,.6-6.13,.94,1.33,4.32,2.55,8.29,3.82,12.43,4.36-1.35,8.52-2.44,13.08-.84,1.11,1.22,2.08,3.07,4.35,3.57,.71,.15,1.39,1.07,1.8,1.79,1.89,3.34,3.68,6.75,5.56,10.22,.09-.13,.23-.33,.46-.68,.19,.3,.48,.57,.56,.89,1.28,5.16,2.54,10.33,3.78,15.51,.17,.69,.16,1.43,.3,2.13,.3,1.46-.36,2.51-1.49,3.24-2.79,1.8-5.63,3.53-8.45,5.27-.11,.07-.31,0-.64,0-.13-.57-.51-1.24-.36-1.76,.56-1.9-.14-3.62-.52-5.39-1.19-5.67-2.28-11.37-3.63-17.01-.86-3.59-2.23-7.01-5.38-9.34-2.57-1.91-5.48-2.37-8.7-2.01,.32,2.65,.56,5.16,.93,7.66,.4,2.75,.95,5.48,1.38,8.22,.64,4.05-.02,8.03-.65,12.02-.38,2.42-1.52,4.28-3.3,5.88-1.54,1.39-2.99,2.89-4.45,4.36-1.89,1.9-3.37,2.02-5.75,.75-3.96-2.11-5.72-5.6-7.09-9.69-3.2-9.62,1.83-22.35,8.72-28.23,1.03-.87,2.06-1.73,3.18-2.67-.93-4.87-2.94-9.36-4.89-14.41Zm5.45,18.87c-.2-.08-.4-.15-.61-.23-.67,1.03-1.47,2-1.99,3.11-.94,2-1.58,4.15-2.59,6.11-1.22,2.39-1.05,4.93-1.13,7.44-.02,.83,.37,1.71,.72,2.5,.16,.37,.65,.59,.99,.88,.76-.94,1.16,.08,1.05,.38-.51,1.35,.71,2.21,.82,3.41,.08,.86,.95,1.78,1.69,2.4,.38,.32,1.26,.06,2.02,.06,1.07-8.9,.19-17.49-.98-26.07Z"/><path d="M678.83,222.8c-.7-1.1-1.15-1.66-1.44-2.29-.56-1.21-.2-2.35,1.11-2.64,2.15-.47,4.36-.77,6.55-.87,1.28-.06,1.9,.91,2.04,2.36,.08,.87,.21,1.74,.34,2.76,2.79,.15,5.54,.3,8.3,.45,2.66,.15,5.42-.36,8.31,1.39-1.39,.57-2.4,1.02-3.44,1.39-1.79,.64-3.66,1.1-5.37,1.91-.87,.41-1.44,.42-2.17-.07-1.24-.83-2.64-.95-4.25-.98,0,.5-.1,.91,.02,1.24,1.22,3.31,.75,6.75,.8,10.15,.04,2.44-.37,4.93,.62,7.28,.27,.65,.66,1.27,1.11,1.82,1.1,1.36,2.17,2.76,3.42,3.98,1.19,1.17,2.34,2.11,1.87,4.14-.19,.8,.68,1.89,1.17,2.8,.77,1.44,1.25,2.9,1.05,4.56-.25,2.11-.26,4.27-.69,6.34-1.33,6.44-1.39,6.43-5.46,11.89-.28,.38-.44,.86-.73,1.23-1.48,1.94-3.08,3.47-5.85,3.53-3.01,.06-6,.61-9.01,.93-.37,.04-.76-.05-1.16-.08-.21-1.15,.39-1.67,1.19-2.16,3.32-2.03,5.37-5.08,6.88-8.58,1.07-2.49,2.39-4.92,2.56-7.67,.18-2.86,.12-5.73,.11-8.59,0-.42-.36-.84-.65-1.48-.68,1.36-1.19,2.53-1.83,3.62-1.83,3.09-4.56,5.02-7.99,6.04-2.52,.75-5,1.63-7.54,2.28-.78,.2-1.95,.16-2.5-.3-1.84-1.53-3.73-3.06-4.41-5.57-1.32-4.86-1.3-9.78-.18-14.59,.77-3.33,3.04-5.63,6.46-6.78,4.29-1.45,8.68-2.01,13.49-1.94,.14-1.17,.5-2.34,.36-3.45-.33-2.76-.81-5.51-1.37-8.24-.37-1.8-.79-2.05-2.6-2.22-.39-.04-.8-.03-1.19,.03-3.3,.51-6.59,1.05-9.88,1.54-2.29,.35-4.58,.68-6.88,.94-1.39,.16-1.98-.43-2.36-2.07-.3-1.29-.13-1.77,1.49-2.15,2-.47,4.06-.73,6.11-.91,4.36-.38,8.73-.64,13.59-.99Zm-5.95,22.43c-1.04,2.41-1.86,4.64-1.75,7.13,.13,3.12,.74,6.14,1.89,9.03,.58,1.47,1.46,1.55,2.35,.22,1.06-1.57,2.06-3.22,2.84-4.95,.91-2.02,1.57-4.15,2.31-6.25,.33-.94,.11-1.74-.82-2.22-2.11-1.07-4.09-2.44-6.81-2.97Z"/><path d="M232.24,455.1c-2.7,1.16-4.33,3.1-5.96,5.05-.41,.49-.71,1.08-1.18,1.49-1.46,1.29-3.3,.97-4.21-.75-.2-.37-.24-1.02-.04-1.36,.47-.8,1.01-1.66,1.74-2.2,2.94-2.18,5.98-4.23,8.95-6.36,.35-.25,.74-.76,.72-1.13-.07-1.82,.78-3.61,.04-5.46-.28-.69-.16-1.54-.25-2.64-1.3,.86-2.41,1.54-3.48,2.3-1.41,1-2.25,1.06-3.24-.21-.48-.62-1.01-.83-1.63-1.17-2.3-1.25-4.08-3.16-5.24-5.45-1.72-3.41-3.12-6.98-4.7-10.45-.42-.91-.21-1.65,.58-2.04,1.05-.51,2.2-.82,3.32-1.17,.66-.21,1.43-.19,2.03-.49,2.9-1.49,5.73-3.15,8.67-4.56,1.3-.62,1.79-1.29,1.59-2.74-.45-3.22-.74-6.47-1.14-10.05-1.33,.4-2.48,.63-3.53,1.07-3.24,1.34-6.45,2.74-9.66,4.16-3.03,1.34-3.12,1.33-5.34-1.61,.81-1.67,2.28-2.37,4.03-2.93,4.55-1.46,9.04-3.08,13.62-4.66-.39-2.51-.72-4.77-1.09-7.03-.22-1.33-.51-2.65-.73-3.98-.27-1.69,.46-2.55,2.36-2.82,1.69-.24,2.65,.42,2.87,2.02,.34,2.52,.62,5.05,1.01,7.56,.12,.75,.53,1.45,.82,2.21,4.74-1.18,9.05-3.31,14.38-3.81-.57,1.27-.88,2.12-1.33,2.88-.32,.54-.86,.94-1.24,1.45-1.05,1.41-2.22,2.05-4.18,2.02-2.08-.03-4.2,.86-6.25,1.5-.38,.12-.8,1.03-.74,1.53,.43,3.62,.98,7.23,1.54,11.14,1.4-.3,2.64-.49,3.83-.85,2.55-.75,5.05-.58,7.54,.2,2.61,.82,4.19,2.72,4.3,5.42,.2,5.11-.75,10.05-3.16,14.56-1.06,1.97-2.79,3.58-4.11,5.22-1.91-.47-1.85-1.7-1.71-3.17-1.57,.27-2.94,.5-4.48,.77,.19,2.82,.36,5.41,.54,8.24,.79-.24,1.32-.33,1.78-.55,4.24-2.02,8.45-4.11,12.72-6.07,1.32-.6,2.65-1.51,4.35-1.11,.17,1.09-.42,1.75-1.04,2.33-1.33,1.27-2.69,2.51-4.09,3.69-.47,.39-1.09,.62-1.66,.87-3.12,1.41-6.25,2.82-9.39,4.19-1.61,.7-2.52,1.69-2.4,3.61,.28,4.13,.18,8.3,.68,12.4,.18,1.48,.16,3.27,1.4,4.6,.27,.29,.18,1.34-.13,1.69-1.66,1.81-3.44,3.5-5.18,5.24-.54,.54-1.08,1.08-1.62,1.62-1.9-.42-2.25-.78-2.11-2.42,.24-2.85,.69-5.69,.78-8.54,.13-4.29,.03-8.59,.03-13.25Zm-5.95-14.74c1.34-.85,2.65-1.75,4.01-2.55,1.33-.78,1.93-1.84,1.59-3.36-.18-.82-.41-1.64-.61-2.44-.37,.05-.54,.04-.67,.1-.94,.44-1.86,.9-2.8,1.35-1.32,.63-2.84,.09-3.59-1.26-.51-.93-.18-1.85,1.09-2.79,.44-.33,.94-.6,1.44-.82,1.01-.45,2.04-.89,3.08-1.26,1.09-.39,1.48-1.18,1.34-2.24-.12-.92-.36-1.82-.55-2.72-4.16,.5-6.79,3.56-10.22,5.33,.69,1.49,1.3,3.04,2.11,4.47,.86,1.51,1.87,2.96,2.92,4.35,.86,1.14,1.64,2.19,.84,3.83Zm10.9-10.15v3.67c2.08-.59,3.93-1.05,5.73-1.67,.5-.17,1.07-.75,1.2-1.25,.66-2.41,.82-4.88,.16-7.31-.2-.73-.65-1.51-1.22-1.98-1.48-1.21-5.15-1.12-6.99,.04,.07,1.08,.14,2.18,.21,3.22,1.87,.51,4.09-1.44,5.49,1.08-1.12,1.43-2.17,2.77-3.34,4.27-.3-.02-.81-.04-1.25-.07Z"/><path d="M333.74,226.91c-.09,2.62-.81,5.19-1.31,7.81-.48,2.55-.1,5.26-.1,8.11,1.42-.37,2.98-.83,4.56-1.19,2.72-.62,5.45-1.17,8.17-1.77,1.44-.32,2.45,.18,3.32,1.76-5.61,1.96-11.48,2.81-16.81,5.47-.28,5.51,.04,10.98,1.78,16.24,.69,2.08,1.9,4.06,3.23,5.82,2.3,3.04,5.74,3.02,8.34,0,1.85-2.16,3.15-4.71,4.07-7.43,.43-1.28,.95-2.53,1.42-3.81,1.12-3.07,2.24-6.13,2-9.41,1.01-.45,1.87-.83,2.85-1.26,.16,.31,.44,.85,.77,1.5,.62-.76,1.18-1.45,1.67-2.06,1.92,.55,2.3,2.11,2.59,3.39,.36,1.57,.53,3.39,.1,4.9-1.53,5.39-3.57,10.58-7.7,14.64-1.97,1.94-4.21,3.58-6.94,4.04-3.84,.65-7.73,1.08-11.62,1.3-2.43,.14-4.68-.83-6.54-2.53-.4-.37-.62-1.06-1.55-.68-.29,.12-1.17-.85-1.59-1.45-2.14-3.01-3.29-6.42-3.9-10.4-.53,.8-.9,1.35-1.26,1.89l-.43-.08c-.04-.9-.08-1.8-.13-2.92,.65,.1,1.14,.18,1.72,.27-.18-2.28-.35-4.47-.54-6.87-.86,0-1.72-.13-2.53,.03-1.8,.34-3.57,.83-5.35,1.26-1.32,.32-2.62,.48-3.97-.38,.6-1.2,1.62-1.61,2.66-1.99,2.08-.77,4.15-1.58,6.26-2.28,1.23-.41,1.73-1.1,1.8-2.42,.09-1.78,.46-3.55,.72-5.32,.24-1.72,.46-3.45,.74-5.16,.08-.52,.28-1.03,.5-1.52,.58-1.27,.64-2.52,.01-3.84-4.75,.95-9.25,2.85-14.6,2.55,1.44-1.73,3.07-2.11,4.53-2.68,3.27-1.26,6.58-2.4,9.9-3.52,.99-.33,1.68-.85,2.01-1.83,.1-.29,.29-.67,.19-.89-1.06-2.32-.15-4.62,0-6.93,.11-1.74,.27-3.5,.17-5.24-.12-2.08-.12-2.48,1.9-3.19,1.94-.69,3.99-1.09,6-1.55,.77-.18,1.57-.25,2.36-.25,.75,0,1.5,.13,2.42,.22-.32,5.34-.62,10.41-.94,15.76,1.45-.18,2.62-.28,3.77-.46,2.2-.35,4.41-.7,6.6-1.12,1.42-.28,2.59,.26,4.19,.73-2.19,2.08-4.5,2.97-7,3.41-2.79,.5-5.59,.9-8.49,1.35Z"/><path d="M471.69,107.4c.46-.2,.71-.31,.94-.41-.98-2.83-1.96-5.65-2.98-8.59-.23,.3-.4,.52-.59,.77-.56-.68-1.13-1.37-1.86-2.25,1.09-2.21,3.49-3.29,5.98-4.07,3.4-1.07,6.87-1.93,10.41-2.9,.54-2.21-2.65-18.57-4.31-21.23-1.43,.55-2.99,.94-4.35,1.72-1.65,.94-3.38,1.4-5.21,1.59-2.13,.21-4.28,.36-6.42,.42-.7,.02-1.42-.29-2.14-.74,5.28-3.61,11.21-5.25,17.58-6.68-.64-2.18-1.2-4.22-1.85-6.23-.98-3.04-.69-3.66,2.39-4.25,2.58-.5,5.17-1.01,7.78-1.2,1.04-.07,2.14,.72,3.45,1.2-2.4,2.85-.68,5.32,.04,8.14,2.61-.24,5.2-.53,7.79-.69,3.18-.19,6.37-.32,9.55-.34,1,0,2.03,.35,2.99,.68,.35,.12,.56,.65,.91,1.09-3,1.47-6.06,1.06-9.03,1.09-3.44,.03-6.8,.55-10.13,1.31-.9,.21-1.67,1-2.55,1.55,.88,3.44,1.74,6.82,2.6,10.21,.25,1-.16,2.38,1.52,2.5,.33,1.12,.67,2.25,1.06,3.56-.56,.06-.92,.1-1.49,.15,.19,.82,.35,2.31,.57,2.32,1.77,.08,1.1,1.65,1.76,2.67,.77,0,1.63,.03,2.48,0,6.5-.27,12.92,.37,19.28,1.62,1.02,.2,2.08,.39,2.44,1.99-1.35,.34-2.68,.83-4.05,.99-2.91,.35-5.83,.54-8.75,.77-.38,.03-.98,.05-1.13-.17-1.17-1.63-2.95-1.34-4.56-1.53-1.79-.2-3.59-.29-5.29-.42-.28,3.45-.41,6.62-.82,9.75-.39,3.05-1.59,5.84-3.76,8.07-1.46,1.5-3.58,1.63-5.49,2.04-2.4,.53-4.9,.65-7.28,1.26-1.6,.42-2.77-.19-3.69-1.09-1.39-1.37-2.49-3.03-3.8-4.68Zm12.61-14.32c-1.42,.62-2.63,1-3.68,1.64-1.68,1.01-1.65,1.09-1.17,3.04,.32,1.31,.64,2.62,1.07,3.89,.47,1.39,1.12,2.7,2.46,3.88,1.72-4.09,1.38-8.09,1.32-12.45Z"/><path d="M544.92,472.76c.01-7.14,2.45-13.01,7.71-17.95,3.09-2.9,6.02-5.94,9.61-8.21,6.91-4.37,14.48-6.82,22.67-6.49,5.47,.22,10.98,.81,16.05,3.36,3,1.51,5.25,3.88,7.52,6.21,1.38,1.42,2.34,3.26,3.76,4.62,1.58,1.51,2.73,3.24,3.9,5.04,1.31,2.01,2.55,4,2.85,6.43,.04,.31,0,.64,.1,.93,.76,2.3,1.62,4.57,2.29,6.89,1.46,5.05,.38,9.77-2.17,14.2-2.02,3.52-4.37,6.81-7.34,9.61-1.84,1.73-3.77,3.38-5.58,5.14-1.44,1.4-3.23,1.97-5.07,2.52-1.98,.59-3.92,1.36-5.92,1.88-1.76,.45-3.58,.86-5.38,.94-4.21,.18-8.43,.17-12.64,.2-1.58,.01-2.92-.48-3.93-1.86-.72-.97-.49-1.56,.37-2.16,1.67-1.18,3.58-1.21,5.49-1.07,4.95,.34,9.91,.32,14.77-.66,2.8-.56,5.55-1.51,8.24-2.5,1.07-.39,2.09-1.22,2.84-2.1,2.61-3.11,5.29-6.19,7.57-9.53,2.75-4.01,4.02-8.47,2.51-13.38-.28-.91-.57-1.84-.7-2.78-.86-5.99-3.88-10.89-7.65-15.43-1.02-1.23-1.99-2.49-3.01-3.72-4.21-5.09-9.8-7.35-16.21-8.1-6.01-.71-11.76,.08-17.31,2.45-3.78,1.61-7.14,3.89-10.29,6.49-1.41,1.17-2.72,2.45-4.09,3.68-3.25,2.91-4.76,6.61-5.42,10.87-.99,6.37,.39,12.16,3.57,17.64,.28,.48,.64,.93,.85,1.45,1.68,4.07,4.7,6.51,8.98,7.49,2.24,.52,4.45,1.19,6.69,1.72,1.7,.4,2.8,2.69,1.87,4.12-.7,1.09-1.81,.88-2.82,.65-1.86-.44-3.72-.89-5.52-1.49-2.34-.79-4.65-1.66-6.92-2.63-1.8-.77-3.14-2.2-4.19-3.82-2.77-4.29-5.22-8.77-6.82-13.62-.74-2.23-.82-4.67-1.2-7.02Z"/><path d="M192.66,261.03c2.92,2.13,5.88,3.65,8.99,4.88,5.22,2.05,10.61,3.44,16.18,4.08,3.85,.44,7.63,.05,11.37-.91,1.99-.51,4.03-1.1,5.91,.43,.04,1.21-.94,1.37-1.76,1.56-3.34,.78-6.68,1.51-10.03,2.24-1.4,.3-2.82,.56-4.23,.82-4.83,.9-9.67,.5-14.54,.35-5.74-.18-10.91-2.09-16.11-4.06-1.2-.45-1.86-.18-2.63,.78-1.68,2.12-3.39,4.28-6.09,5.23-2.77,.98-5.55,1.94-8.33,2.88-.28,.09-.61,.01-1.41,.01,1.82-2.35,4.23-3.66,5.36-6.19,1.09-2.44,2.84-4.58,4.36-6.95-2.75-2-5.32-3.93-7.96-5.75-.94-.65-2.05-1.05-3.21-1.63,.44-.38,.9-.94,1.49-1.25,2.84-1.49,5.46-3.61,8.86-3.64,1.3-.01,2.63,.42,3.91,.79,.83,.23,1.58,.71,2.49,1.14,1.3-1.67,2.35-3.38,2.92-5.4,.63-2.21,1.6-4.33,2.07-6.57,.79-3.74,.02-4.53-3.74-3.96-1.55,.24-3.06,.87-4.55,1.43-3.48,1.34-6.93,2.73-10.38,4.13-.75,.3-1.38,.37-1.86-.42-.52-.87,.1-1.46,.65-1.81,1.99-1.29,3.95-2.72,6.12-3.62,3.52-1.45,7.16-2.64,10.81-3.74,3.96-1.19,7.97-2.32,12.17-2.26,1.03,.02,2.07,.15,3.08,.38,1.77,.4,2.43,1.66,1.4,3.15-1.21,1.75-1.18,3.7-1.53,5.6-.14,.77-.25,1.59-.62,2.26-1.95,3.56-3.97,7.08-5.99,10.61-1.01,1.77-2.07,3.52-3.17,5.4Z"/><path d="M389.3,6.61c-2.09,4.58-4.01,8.77-6.05,13.23,.96-.04,1.65-.07,2.34-.11,1.81-.09,2.73,.53,3.53,2.17,.41,.84,.91,1.7,1.57,2.35,2.24,2.17,4.74,3.83,7.8,4.86,5,1.68,10.13,2.74,15.24,3.88,2.33,.52,4.73,.74,7.05,1.29,1.77,.42,3.54,1.02,4.43,3.04-1.01,1.13-2.26,1.55-3.72,1.63-2.3,.13-4.6,.52-6.89,.45-1.73-.05-3.44-.21-5.12-1.29-1.73-1.11-3.96-1.77-6.03-1.96-3.41-.31-6.77-.83-10.1-1.51-2.42-.49-4.82-1.15-7.14-2-2.36-.86-4.6-2.03-7.15-3.18-1.18,2.76-3.16,5.06-3.61,8.11-.04,.3-.24,.58-.41,.84-4.26,6.9-8.49,13.82-12.8,20.7-1.16,1.85-3.2,2.14-5.15,2.38-1.1,.14-2.22,.11-3.34,.12-1.45,.02-2.05-.83-1.36-2.15,1.35-2.59,2.61-5.27,4.29-7.64,3.86-5.46,6.59-11.53,9.81-17.34,.42-.76,1.03-1.47,1.22-2.28,.19-.8,1.71-1.75-.01-2.59-.07-.04-.01-.47,.07-.68,1.68-4.24,3.41-8.46,5.04-12.72,.82-2.15,1.3-4.43,2.23-6.53,.4-.9,1.43-1.9,2.35-2.13,3.07-.76,6.22-1.25,9.36-1.68,.76-.1,1.61,.45,2.52,.73Z"/><path d="M97.71,279.58c1.31-2.28,.65-5.3,3.07-6.9-.21-.64-1.5-.8-.89-1.77,.33-.53-.06-1.77,1.3-1.4,.04,.01,.48-1.12,.42-1.15-1.68-.91-.46-2.19-.41-3.27,.14-3.06,.42-6.12,.61-9.18,.17-2.67,.3-5.34,.47-8.32-.64,.5-.98,.77-1.56,1.22-.08-3.07,.03-5.99-.3-8.85-.23-2.03-.27-4.19-1.51-6.01-.18-.26-.41-.64-.34-.88,.74-2.45-1.28-4.02-1.93-6.01-.66-2.03-1.58-3.99-2.51-5.92-1.76-3.65-3.58-7.28-5.46-10.88-.5-.96-.46-1.69,.33-2.31,.8-.63,1.65-1.25,2.57-1.68,2.74-1.27,5.45-2.7,8.9-2.12,.4,.98,.77,2.1,1.28,3.15,2.05,4.2,4.17,8.36,6.21,12.56,.29,.6,.3,1.34,.48,2.01,.62,2.33,1.72,4.45,2.72,6.64,1.73,3.8,1.93,8,2.03,12.11,.24,10.76-.7,21.41-3.33,31.88-.12,.46-.32,.9-.42,1.37-.41,1.86-1.32,2.96-3.41,3.35-2.82,.53-5.56,1.55-8.33,2.36Z"/><path d="M277.27,228.37c-3.48,.78-6.99,1.45-10.43,2.38-5.23,1.42-10.41,3.03-15.61,4.55-.84,.25-1.7,.6-2.55,.59-.59,0-1.48-.41-1.69-.88-.22-.49,.02-1.48,.43-1.87,.66-.63,1.58-1.04,2.46-1.39,2.36-.93,4.67-1.89,7.29-2.06,2.2-.15,4.38-.79,6.55-1.3,6.19-1.45,12.37-2.95,18.82-4.5-1.58-2.02-3.36-3.75-3.92-6.16,1.48-1.93,3.53-2.76,5.71-3.3,3.75-.94,7.5-1.86,11.28-2.68,.99-.22,2.08-.15,3.1-.05,1.15,.11,1.81,.87,2.06,2.01,.23,1.01,.28,2.18,.85,2.95,.98,1.32,.87,2.56,.42,3.93-3.23,.91-6.48,1.82-9.83,2.76-.03,1.4-.57,2.44-2,2.85-.28,.08-.52,.37-.73,.6-2.86,3.15-6.07,6.05-8.48,9.51-2.9,4.16-5.06,8.87-5.89,13.94-.36,2.19-.05,4.55,.31,6.77,.48,2.93,2.6,4.41,5.39,5.06,3.03,.7,6.04,.27,9.01-.27,2.42-.44,4.8-1.12,7.2-1.67,.54-.12,1.11-.22,1.65-.17,.92,.09,2.04,0,2.2,1.33,.16,1.25-.73,1.66-1.7,1.93-1,.28-2,.6-3.02,.75-6.2,.93-12.4,1.91-18.62,2.69-3.27,.41-6.51-.24-9.7-.99-1.42-.33-2.23-2.03-3.93-1.92-.15,0-.39-.48-.5-.77-.33-.89-.83-1.79-.88-2.71-.24-4.29,.04-8.47,1.84-12.53,1.63-3.65,3.62-7.08,5.86-10.33,1.71-2.47,3.89-4.62,5.86-6.92,.46-.53,.92-1.05,1.38-1.58-.08-.2-.15-.39-.23-.59Z"/><path d="M527.86,460.31c-.75,.79-1.14,1.37-1.68,1.75-3.8,2.68-7.93,4.75-12.27,6.4-2.46,.93-4.94,1.79-7.36,2.8-4.57,1.91-9.3,2.13-14.12,1.55-2.51-.3-4.77-1.44-6.76-2.85-1.32-.93-1.43-2.83-1.24-4.42,.31-2.58,1.45-4.75,3.23-6.76,2.49-2.8,5.85-4.42,8.58-6.85,.8-.71,1.64-1.38,2.46-2.07-.08-.16-.16-.32-.25-.47-1.5,.33-3,.69-4.5,.98-4.54,.88-9.09,1.71-13.62,2.63-1.34,.27-2.33,.02-3.12-1.13-.81-1.18-.45-2.33,.12-3.38,1.93-3.59,4.24-6.9,7.12-9.83,4.57-4.66,9.05-9.42,13.46-14.03,.08,0-.33-.1-.73-.04-4.51,.62-9.02,1.21-13.4,2.49-3.01,.88-3.18,.73-4.3-2.38,.85-1.22,2.12-1.85,3.56-2.1,3.76-.66,7.53-1.32,11.31-1.88,4.34-.65,8.69-1.19,13.03-1.81,2.32-.33,4.03-.27,5.58,.37-.53,.56-.9,1.25-1.47,1.53-3.7,1.85-6.5,4.83-9.52,7.52-2.92,2.59-5.81,5.23-8.5,8.05-1.92,2-3.49,4.33-5.2,6.54-.29,.37-.51,.82-.68,1.26-.67,1.68-.21,2.48,1.55,2.54,1.27,.04,2.56-.03,3.82-.2,6.09-.85,12.07-2.16,17.95-3.96,2.13-.65,4.33-1.06,6.49-1.57,.76-.18,1.6-.13,1.74,.72,.07,.4-.51,1.17-.97,1.37-5.91,2.55-10.93,6.53-16.27,10-1.8,1.17-3.45,2.51-4.68,4.36-2.97,4.47-.54,9.59,4.84,10.04,.31,.03,.64,.06,.94,.14,3.73,1.04,6.9-.28,9.86-2.36,.64-.45,1.4-1,1.66-1.68,.66-1.72,2.09-2.31,3.61-2.75,2.06-.59,4.13-1.22,6.24-1.49,.98-.13,2.06,.55,3.51,.98Z"/><path d="M159.84,440.14c5.59-3.79,11.12-7.68,16.79-11.35,3.4-2.2,7-4.09,10.53-6.07,1.11-.62,2.31-1.1,3.77-.54-1.32,2.8-.68,5.55,.09,8.29,.56,1.98,1.13,3.97,1.74,5.93,.84,2.73,2.6,4.9,4.42,7.03,.57,.67,1.04,1.43,1.69,2,.98,.87,1.53,2.47,3.37,2.04,.28-.07,.75,.52,1.09,.84,1.31,1.21,2.73,2.06,4.57,2.36,1.45,.23,2.82,.95,4.31,1.49-.38,1.72-1.68,2.56-2.83,3.49-1.71,1.39-3.41,2.79-5.21,4.06-.5,.36-1.34,.46-1.96,.35-.67-.12-1.34-.55-1.89-.99-4.39-3.44-8.72-6.94-12.11-11.45-3.15-4.19-4.55-9.07-5.82-14.03-.23-.91-.46-1.83-.76-3.03-.89,.42-1.6,.7-2.27,1.07-6.64,3.68-12.9,7.91-18.64,12.87-1.5,1.3-2.84,2.8-4.09,4.34-2.03,2.5-2.22,2.55-4.39-.1,.2-1.9,2.01-2.7,2.95-4.1-1.72-2.31-2.08-5.08-2.48-7.77-1.01-6.84-1.87-13.7-2.77-20.55-.06-.46,0-.94,.03-1.41,.04-.95,.13-1.91,.14-2.86,.04-3.42,0-6.84,.09-10.25,.07-2.86,.32-5.72,.4-8.59,.09-3.31,1.33-4.37,4.82-3.77,0,.81,.04,1.66,0,2.51-.27,5.25-.74,10.5-.79,15.76-.04,4.29,.29,8.58,1.22,12.81,.99,4.49,1.89,9,2.87,13.49,.22,1.01,.52,2.02,.97,2.94,.54,1.11,.93,2.14,.16,3.17Z"/><path d="M67.48,207.18c.45,2.13,.83,3.96,1.25,5.94,1.09,0,2.15,.15,3.14-.02,5.89-1.01,11.04,.54,15.53,4.39,1.34,1.15,2.1,2.69,1.83,4.47-.25,1.64-.63,3.28-1.17,4.85-.67,1.94-1.25,4.03-2.43,5.65-1.28,1.76-3.01,3.37-4.88,4.47-2.22,1.3-4.77,2.07-7.23,2.9-2.69,.91-5.45,1.66-8.19,2.42-.96,.27-1.99,.54-2.95,.44-.5-.06-1.11-.87-1.3-1.46-.47-1.43-.73-2.92-1.07-4.39-1.49-6.58-2.96-13.17-4.45-19.75-1-4.41-.67-5.15,3.32-7.11,1.71-.84,3.42-1.72,5.2-2.39,.91-.34,1.98-.25,3.39-.4Zm3.11,14.53c1.17,3.61,1.5,7.31,3.55,10.53,2.52-3.72,1.43-9.36-3.55-10.53Z"/><path d="M459.25,51.23c-.2,1.86-.38,3.5-.56,5.14-.12,0-.24,.01-.37,.02v-4.71c-1.09,1.89-1.38,6.9-.64,9.07,.16-.91,.27-1.54,.4-2.22,.09,.14,.21,.24,.2,.34-.09,4.51-.2,9.01-.27,13.52-.03,2.02,.08,4.04,.07,6.06,0,1.65-.39,3.36-.08,4.94,.45,2.34-.61,4.66,.3,7,.47,1.21,.28,2.67,.4,4.01,.37,4.03,.96,8.01,2.41,11.82,.45,1.18,.96,1.94,2.46,1.46,.57-.18,1.32,.24,2.04,.4-.22,1.98-1.57,2.28-2.92,2.46-2.52,.35-5.12,.38-7.57,.99-2.2,.55-3.68-.18-5.07-1.63-.28-.3-.52-.65-.72-1.01-.18-.32-.24-.97-.42-.99-2.23-.28-1.5-2.32-2.13-3.53-.2-.38,.12-1.09-.12-1.39-1.07-1.36-1.64-2.68-.46-4.28,.09-.12-.36-.57-.47-.89-.46-1.46-1.21-2.91-.18-4.45,.17-.25,.16-.69,.11-1.02-.54-3.1-.78-6.18-.23-9.34,.34-2,.01-4.11,.15-6.16,.32-4.99,.76-9.97,1.11-14.96,.16-2.22,.24-4.44,.33-6.66,.09-2.32,.38-2.62,2.58-3.37,2.55-.86,5.12-1.04,7.77-.65,.54,.08,1.09,.01,1.88,.01Z"/><path d="M404.57,438.35c-.38,.46-.62,.87-.97,1.12-2.67,1.94-5.02,4.32-8.22,5.51-2.69,1-4.61,3.1-6.51,5.15-1.08,1.17-2.11,2.39-3.11,3.63-1.95,2.45-.99,6.76,1.89,8.14,4.07,1.95,8.31,1.87,12.57,.66,.48-.14,.9-.6,1.28-.98,2.54-2.46,5.79-3.62,9-4.77,.91-.33,2.12,.18,3.1,.29,.28,1.55-.69,2.07-1.43,2.54-2.28,1.44-4.59,2.88-6.99,4.1-4.7,2.37-9.5,4.53-14.75,5.43-1.88,.32-3.74,.86-5.62,.97-2.03,.12-4.14,.09-6.12-.32-3.2-.68-5.39-5.53-4.06-8.78,.97-2.35,2.63-4.25,4.41-6.08,1.76-1.81,3.38-3.77,5.02-5.69,.77-.91,1.46-1.89,2.25-2.92-.36-.29-.68-.69-1.09-.85-3.8-1.43-5.39-4.5-5.92-8.19-.75-5.2-1.02-10.43-.29-15.68,.12-.84-.12-1.74-.21-2.6-.27-2.41,.73-3.69,3.13-4.02,1.16-.16,2.31-.36,3.8-.6,0,1.23,0,2.16,0,3.09,0,2.45-.02,4.91-.02,7.36,0,1.12,.12,2.24,.03,3.35-.32,3.7,1.02,6.86,3.25,9.65,.83,1.03,1.71,2.63,3.59,1.63,3.05,1.46,5.69-.36,8.45-1.09,1.15-.31,2.24-.66,3.55-.06Z"/><path d="M436.09,472.75c1.24-.82,2.1-1.51,3.05-1.99,3.8-1.92,6.63-4.73,8.9-8.38,3.26-5.27,4.55-11,4.93-17.03,.07-1.17-.2-2.37-.43-3.54-1.11-5.41-7.53-7.52-11.67-3.79-1.17,1.05-2.04,2.42-3.15,3.54-.87,.87-1.81,1.73-2.88,2.3-2.44,1.3-4.98,2.41-7.58,3.65-.71-.69-.76-1.36-.1-2.37,3.01-4.68,7.14-8.08,11.9-10.8,1.03-.59,2.2-.95,3.32-1.35,2.1-.74,4.23-1.44,6.34-2.15,2.57-.86,5.18-.61,7.81-.4,2.53,.21,3.78,1.83,4.61,3.87,.48,1.18,1.16,1.82,2.61,1.75-.13,.89-.17,1.6-.33,2.27-.33,1.43-.36,2.8,.22,4.2,.26,.63,.46,1.44,.3,2.07-1.28,5.38-2.64,10.77-5.63,15.5-3.87,6.09-9.3,10.19-16.36,12.02-1.75,.45-3.4,1.5-5.86,.64Z"/><path d="M637.88,237.26c-.52,.61-.97,1.31-1.58,1.82-4.69,3.97-9.91,7.18-14.98,10.62-2.43,1.65-4.71,3.58-6.23,6.19-.51,.88-.98,1.82-1.26,2.79-.48,1.67,.66,3.94,2.23,4.7,.27,.13,.66,.05,.89,.22,4.57,3.5,9.74,3.4,15.03,2.45,3.19-.57,6.35-1.32,9.55-1.89,1.72-.31,3.47-.52,5.21-.54,.76,0,1.52,.57,2.85,1.12-1.02,.71-1.5,1.26-2.08,1.42-3.21,.89-6.44,1.74-9.69,2.47-1.21,.27-2.52,.09-3.76,.26-2.61,.35-5.2,.84-7.81,1.2-4.58,.64-9.19,1.25-13.8,.38-1.54-.29-3.09-.77-4.5-1.43-2.27-1.07-3.45-4.07-3.19-7.23,.19-2.32,1.18-4.37,2.89-5.89,2.62-2.31,5.33-4.54,8.12-6.63,3.12-2.34,6.38-4.5,9.59-6.73,.45-.31,.94-.55,1.41-.83-.13-.24-.25-.48-.38-.72-1.62-.07-3.25-.3-4.84-.16-5.16,.45-10.31,1-15.45,1.6-1.41,.17-2.79,.68-4.19,.99-.69,.15-1.4,.27-2.09,.26-1.05,0-1.6-.79-1.78-1.67-.18-.89,.1-1.83,1.1-2.14,2.04-.64,4.09-1.51,6.18-1.68,7.77-.63,15.52-1.79,23.35-1.56,2.94,.09,5.89,.01,8.83,.01,.12,.2,.24,.39,.36,.59Z"/><path d="M274.94,440.07c2.39-.7,4.65-1.36,7.31-2.13-.52,3.44-3.46,4.4-5.12,6.77,.3,.93,.57,2.17,1.09,3.31,1.84,4.07,1.57,8.22,.5,12.36-.35,1.35-1.21,2.57-1.91,4.01,2.56-.42,5.03-.86,7.51-1.22,4.81-.69,9.62-1.35,14.44-1.97,.48-.06,1.32,.15,1.44,.45,.18,.47,.06,1.26-.26,1.66-.58,.74-1.36,1.36-2.13,1.9-1.95,1.37-3.91,2.72-5.94,3.96-.6,.37-1.55,.68-2.13,.47-2.43-.92-4.91-.8-7.32-.32-3.9,.77-7.94,.89-11.7,2.32-1.85,.7-3.67,1.48-5.5,2.24-2.2,.9-4.39,1.82-6.9,2.85-.73-.69-1.41-1.33-1.89-1.78,.59-3.04,2.87-3.73,4.64-4.71,2.28-1.26,4.81-2.07,7.24-3.05,3.36-1.35,5.09-4.27,4.75-7.88-.34-3.67-.98-7.24-2.95-10.46-.88-1.43-1-1.52-2.38-.74-1.93,1.11-3.89,2.19-5.74,3.42-2.53,1.69-3.09,1.65-5.15-.95,.32-1.42,1.41-2.14,2.67-2.74,1.87-.89,3.77-1.75,5.58-2.74,.54-.29,1.27-1.08,1.19-1.5-.39-2.03,.85-2.85,2.32-3.54,1.07-.5,2.17-.95,3.29-1.31,1.9-.6,1.91-.56,3.06,1.31Z"/><path d="M272.77,403.41c-1.78-.8-3.15-.28-4.52,.09-4.67,1.29-8.89,3.47-12.65,6.58-.47-.21-1.03-.29-1.3-.62-.64-.76-1.49-1.59-1.6-2.47-.13-1.04,.86-1.8,1.89-2.21,4.89-1.95,9.75-3.95,14.67-5.81,1.55-.58,3.24-.88,4.89-1.08,1-.13,2.06,.08,3.07,.29,1.14,.24,1.67,.98,1.69,2.24,.06,3.77-1.07,7.23-2.66,10.57-.93,1.94-2.05,3.79-3.08,5.68-.42,.76-.84,1.51-1.4,2.53,1.39,.57,2.58,1.13,3.81,1.55,3.16,1.08,6.33,2.12,9.5,3.14,2.54,.81,5.16,.73,7.9,.35,.12,1.94-1.36,2.68-2.31,3.73-.56,.62-1.23,1.15-1.8,1.76-.83,.89-1.9,.71-2.92,.65-3.54-.19-6.9-1.12-10.19-2.41-2.66-1.05-5.34-2.02-8.05-3.04-2.89,2.07-4.54,5.6-8.17,6.8-.33-.67-.59-1.2-.9-1.84,1.9-2.13,3.84-4.3,5.86-6.57-3.36-2.36-7.46-3.03-9.7-6.59,1.21-2.74,3.87-3.03,6.27-3.66,.36-.1,.92,.46,1.36,.75,1.79,1.18,3.57,2.37,5.57,3.7,.55-.87,.97-1.51,1.35-2.17,1.66-2.84,2.85-5.87,3.39-9.12,.16-.96,.02-1.97,.02-2.82Z"/><path d="M325.59,469.33c-.63,.73-1.16,1.57-1.9,2.17-1.85,1.49-3.78,2.88-5.7,4.27-1.12,.81-2.22,.72-3.11-.52-.92-1.28-1.83-2.68-2.28-4.17-1.82-6.01-3.31-12.11-3.56-18.44-.04-1.11-.37-2.2-.44-3.31-.39-5.7-.94-11.37,.28-17.07,.56-2.63,.5-5.39,.87-8.07,.37-2.63,1.54-3.53,4.34-3.67,.63-.03,1.25-.11,2.21-.19-.13,.94-.14,1.71-.36,2.42-1.31,4.39-1.66,8.84-1.65,13.43,.02,5.85,1.04,11.54,1.97,17.25,.33,2,1.05,3.98,1.82,5.87,.94,2.32,1.47,4.81,2.91,6.94,1.07,1.57,2.01,3.23,4.58,3.1Z"/><path d="M177.41,441.53v20.7c3.27,1.59,8.05,2.67,15.5,3.41-.49,.83-.89,1.55-1.33,2.24-.63,.97-1.18,2.06-2.01,2.84-.71,.66-1.74,1.2-2.69,1.33-1.14,.15-2.39-.05-3.52-.34-2.61-.67-5.19-1.49-7.97-2.31-2.13,5.44-4,10.82-8,15.21-.8-.61-1.54-1.18-2.46-1.87,1.22-2.34,2.57-4.58,3.58-6.97,1.01-2.4,1.68-4.94,2.53-7.54-2.67-1.64-6.21-1.22-7.76-4.39,.62-1.52,1.77-2.57,3.34-3.32,1.54-.74,3-1.49,4.67-.24,1.11-.94,1.06-2.2,1.04-3.31-.06-3.57-.2-7.15-.44-10.72-.21-3.09,2.13-5.18,5.51-4.71Z"/><path d="M378.15,268.88c-.14-.55-.34-1.3-.54-2.1,5.05-3.93,10.4-7.2,16.13-9.83,9.36-4.3,19-7.9,28.78-11.1,7.72-2.53,15.56-4.69,23.4-6.82,5.77-1.57,11.6-2.95,17.45-4.18,3.1-.66,6.3-.92,9.48-1.17,1.28-.1,2.78-.22,3.73,1.46-4.94,1.05-8.77,4.78-14.09,5.4,.09-.72,.16-1.3,.24-1.98-1.42-.53-2.75-.09-4.01,.23-9.88,2.54-19.76,5.05-29.59,7.76-3.91,1.08-7.75,2.5-11.53,3.99-7.56,2.98-15.09,6.05-22.57,9.23-1.72,.73-3.26,1.97-4.75,3.15-2.62,2.08-5.49,3.73-8.52,5.08-1.07,.47-1.88,1.98-3.61,.89Z"/><path d="M642.07,231.15c-2.67-3.98-5.09-7.59-7.51-11.21-.13,.06-.25,.11-.38,.16,.47,1.31,.86,2.65,1.42,3.92,.83,1.9,1.79,3.74,2.67,5.61,.86,1.81,.16,3.34-1.71,4.06-.99,.38-1.91,.94-3.19,1.59-.24-.25-.84-.66-1.17-1.23-2.62-4.56-5.08-9.2-6.5-14.31-.15-.53-.28-1.09-.24-1.63,.07-.92,.42-1.68,1.53-1.81,1.11-.13,2.2-.37,3.3-.56,1.13-.19,2.4,0,2.99-1.44,.14-.34,.77-.58,1.21-.67,3.1-.58,6.2-1.45,9.53-.13-1.47,1.32-.9,2.68-.11,4.03,.56,.96,1.15,1.92,1.68,2.9,.34,.63,.81,1.28,.84,1.95,.05,1.01,.38,1.78,.92,2.62,1.09,1.72,.12,3.85-1.92,4.03-1.4,.12-2.35,.62-3.35,2.13Z"/><path d="M333.98,99.87c1.09,1.98,2.19,3.97,3.46,6.29-.38,.24-.94,.79-1.59,.96-2.38,.61-4.78,1.18-7.21,1.61-2.02,.36-3.91-.18-5.56-1.43-.43-.33-.87-.66-1.63-1.24,.6,3.82,2.43,6.37,5.77,8.42-1.31,.63-2.27,1.27-3.33,1.57-2.51,.71-5.09,1.19-7.6,1.92-1.74,.5-3.02-.3-4.09-1.33-2.01-1.94-3.61-4.22-4.66-6.8,1.98-2.51,9.63-5.24,13.09-4.68,.25-1.37,1.12-2.25,2.4-2.74,1.78-.68,3.53-1.51,5.37-1.92,1.84-.41,3.77-.38,5.66-.54l-.09-.09Z"/><path d="M184.31,183.43c.06-.7,.11-1.21,.18-2.07-2.59,.42-5.05,.65-7.41,1.23-7.2,1.78-14.4,3.54-21.52,5.6-7.36,2.13-14.48,4.93-21.37,8.31-.5,.25-1,.5-1.51,.73-.83,.38-1.63,.34-2.06-.54-.44-.91-.15-1.74,.75-2.21,1.69-.88,3.38-1.79,5.13-2.53,6.53-2.77,13.11-5.38,20-7.2,10.39-2.75,20.74-5.69,31.39-7.33,2.28-.35,4.58-.5,6.88-.69,1.03-.09,2.05,.02,2.84,.85-1.82,1.81-10.08,5.47-13.32,5.84Z"/><path d="M315.58,122c-1.94,.67-3.34,1.18-4.76,1.62-2.19,.68-4.38,1.37-6.59,1.96-2.55,.68-4.94,.37-6.8-1.65-1.87-2.04-3.65-4.18-5.4-6.33-.78-.95-.65-1.98,.4-2.67,1.17-.77,2.39-1.5,3.66-2.06,1.49-.66,3.06-1.13,4.61-1.65,.82-.27,1.65-.58,2.5-.65,1.71-.15,1.97,.1,2.57,1.74,1.04,2.88,3.08,4.95,5.46,6.73,1.24,.93,2.57,1.75,4.36,2.96Z"/><path d="M598.49,484.8c-.62,2.42-2.14,3.64-3.7,4.82-2.95,2.23-6.51,2.6-9.98,2.81-3.71,.23-7.49,.2-11.18-.27-3.2-.41-6.03-2.22-7.97-4.79-1.66-2.19-2.95-4.73-4.03-7.27-1.23-2.93-1.07-3.85,2.88-4.55,1.01,1.6,2.2,3.26,3.16,5.05,2.1,3.93,5.38,6.05,9.66,7.04,4.06,.94,8.05,.78,12.04-.16,.74-.17,1.51-.57,2.08-1.08,1.96-1.73,4.24-1.79,7.02-1.6Z"/><path d="M394.07,425.38c3.07-2.16,6.16-3.56,9.82-3.68,1.44-.05,2.86-.81,4.28-1.29,1.35-.45,2.67-1.04,4.04-1.42,1.24-.34,2.37-.15,3.05,1.17,.21,.42,.54,.78,.85,1.13,.93,1.04,.92,2.2,.14,3.21-.71,.91-1.56,1.97-2.57,2.31-1.68,.58-3.07,2.1-5.08,1.72-.13-.03-.36,.05-.44,.16-1.5,2.2-4.16,2.7-6.15,4.18-.42,.31-1.23,.47-1.71,.29-2.84-1.05-4.52-3.41-6.04-5.84-.33-.52-.15-1.36-.19-1.96Z"/><path d="M136.76,434.92c-1.83-1.02-3.59-1.94-5.29-2.95-2.12-1.25-4.18-2.6-6.3-3.86-1.22-.73-2.07-1.68-2.26-3.16,.34-1.66,1.86-2.22,3.1-2.93,1.7-.98,3.54-1.73,5.38-2.45,1.24-.49,2.52-.42,3.55,.6,.98,.97,2.52,1.43,2.77,3.1,.05,.31,.47,.61,.78,.84,1.92,1.39,3.86,2.76,6.01,4.28-2.51,2.11-4.98,4.19-7.74,6.52Z"/><path d="M359.49,450.76c.09,2.41-1.11,3.58-2.42,4.33-4.08,2.33-8.19,4.62-12.46,6.57-2.12,.97-4.53,1.4-7.01,.91-1.22-.24-2.55,.11-3.8-.06-1.64-.22-3.28-.57-4.84-1.13-.61-.22-1.38-1.16-1.34-1.72,.05-.7,.7-1.61,1.35-1.99,1.71-.99,3.54-1.76,5.35-2.58,2.24-1.01,4.51-1.19,6.86-.34,1.12,.4,2.29,.7,3.47,.89,2.68,.42,5.16-.25,7.56-1.49,2.24-1.17,4.58-2.15,7.27-3.39Z"/><path d="M402.89,279.04c-.46,.57-.64,.95-.94,1.13-2.11,1.27-4.16,2.68-6.4,3.68-1.85,.83-3.9,.61-5.84-.17-3.13-1.26-5.5-3.45-7.38-6.15-1.25-1.8-.71-3.09,1.4-3.79,1.72-.57,3.46-1.07,5.21-1.55,2.07-.57,2.77-.28,3.89,1.53,2.12,3.42,4.72,4.84,10.05,5.31Z"/><path d="M156.44,181.84c0-3.59-2.28-5.24-4.13-7.16-.72-.74-1.6-1.33-2.31-2.07-1.14-1.18-.88-2.85,.61-3.53,2.25-1.02,4.6-1.82,7.12-1.73,.81,.03,1.86,.23,2.37,.77,1.92,2,3.67,4.17,5.63,6.44-1.57,1.32-2.16,3.2-3.69,4.58-1.61,1.45-3.63,1.26-5.59,2.7Z"/><path d="M320.78,440.2c1.21-1.78,3.09-2.73,5.05-3.37,4.54-1.49,9.1-2.92,13.94-3.18,3.17-.18,4.94-.09,6.82,.61-.19,3.01-2.78,4.17-4.64,5.84-.91,.82-2.15,1.27-3.38,1.97-.38-.67-.75-1.32-1.14-2.01-3.42-.74-6.63,.34-9.87,1.09-1,.23-1.95,.69-2.92,1.06-2.28,.88-2.91,.57-3.87-2.01Z"/><path d="M441.26,263c4.01-1.7,7.6-2.64,11.28-3.24,1.65-.27,1.99,.11,2.46,1.75,.39,1.37,.96,2.68,1.42,4.02,.32,.95,.58,1.92,.86,2.85-2.78,.9-5.27,1.87-7.84,2.47-1.25,.29-2.66-.11-4.3-.22-1.64-2.14-2.74-4.77-3.88-7.63Z"/><path d="M419.58,273.69c-3.57,2.12-6.64,3.73-10.02,4.66-.73,.2-1.57,.16-2.33,.05-2.35-.35-4.3-1.64-6.12-3.03-1.74-1.34-1.48-2.92,.51-3.89,2.79-1.35,5.75-2.19,8.8-2.76,.87-.16,1.53-.12,2.01,.73,1.07,1.84,2.72,2.82,4.77,3.28,.65,.15,1.26,.5,2.38,.97Z"/><path d="M408.66,43.88c-2.69,1.49-5.06,1.71-7.45,1.74-3.22,.05-6.33,.79-9.33,1.83-4.08,1.41-8.28,2.28-12.5,3.04-1.32,.24-2.66,.38-4,.43-.47,.02-.95-.39-1.4-.6,.11-1.31,.98-1.48,1.83-1.74,4.34-1.29,8.65-2.69,13.01-3.89,4.6-1.27,9.27-2.25,14.06-2.49,1.41-.07,2.85,.06,4.24,.31,.53,.1,.95,.81,1.55,1.36Z"/><path d="M178.98,402.26c-.26,.91-.28,1.41-.52,1.74-1.09,1.46-2.23,2.88-3.4,4.28-.22,.27-.65,.4-1.01,.52-2.08,.74-4.2,1.38-6.25,2.19-2.66,1.05-5.27,2.22-7.91,3.34-.36,.15-.74,.3-1.13,.37-1.14,.21-2.51-.48-2.93-1.58-.39-1.03,.1-1.95,.97-2.4,1.82-.94,3.69-1.8,5.6-2.54,4.28-1.66,8.6-3.24,12.91-4.82,1.07-.39,2.18-.66,3.66-1.1Z"/><path d="M433.37,263.88c1.61,1.85,2.78,3.19,4.17,4.78-.1,.14-.3,.73-.68,.9-2.89,1.27-5.78,2.53-8.74,3.62-.72,.26-1.84,.08-2.51-.33-1.33-.82-2.5-1.91-3.67-2.96-1.17-1.05-.79-2.55,.72-3.23,1.08-.49,2.17-1,3.31-1.26,2.59-.58,5.08-1.86,7.4-1.52Z"/><path d="M551.54,223.69c-.35,.29-.6,.63-.93,.74-2.32,.74-4.72,1.28-6.98,2.18-2.6,1.04-5.09,.32-7.64,.07-1.56-.15-3.15-.17-4.7,0-.84,.1-1.49,.04-1.8-.69-.34-.8-.09-1.64,.71-2.06,1.26-.65,2.57-1.2,3.89-1.72,.65-.26,1.38-.28,2.04-.52,5.16-1.9,10.01-.66,14.77,1.44,.19,.09,.34,.28,.64,.55Z"/><path d="M181.88,411.08c-1.91,2.23-3.65,4.28-5.41,6.31-.15,.17-.4,.33-.61,.34-3.85,.12-6.39,2.88-9.41,4.66-1.16,.68-2.31,1.41-3.38,2.23-.98,.75-1.74,.54-2.53-.21-.92-.87-1.14-1.84-.47-2.76,.46-.63,1.05-1.25,1.72-1.63,3.94-2.21,7.92-4.34,11.9-6.49,1.54-.83,3.07-1.68,4.66-2.42,.98-.46,2.04-.94,3.54-.03Z"/><path d="M334.07,99.96c-1.01-.97-2.03-1.93-3.14-2.99,1.07-1.01,2.06-1.67,3.32-2,1.99-.52,3.93-1.23,5.92-1.73,2.76-.69,4.1-.12,5.38,1.79,.44,.65,.96,1.26,1.37,1.92,.57,.92,.33,1.67-.74,2-1.23,.38-2.52,.6-3.79,.87-1.51,.32-3.01,.85-4.53,.88-1.29,.03-2.59-.52-3.89-.82,0,0,.09,.08,.09,.08Z"/><path d="M453.59,415.94c-1.62,1.12-2.86,2.35-4.36,2.94-1.99,.78-3.65,2.83-6.33,1.6-1.13-.52-2.69-.23-4.03-.08-1.36,.15-1.91-.63-2.33-1.6-.46-1.08,.14-1.96,1.02-2.41,4.34-2.21,8.87-3.66,13.78-2.25,.85,.24,1.5,1.18,2.25,1.8Z"/><path d="M514.98,412.3c-1.11,.72-2.06,1.28-2.94,1.92-.86,.62-1.79,.55-2.39-.1-1.82-1.97-4.03-3.6-5.29-6.08-1.03-2.03-.56-3.38,1.63-3.94,1.29-.33,2.66-.38,3.98-.6,1.11-.19,1.75,.22,2.23,1.25,.7,1.5,1.41,3.05,2.42,4.34,.95,1.22-.56,2.35,.35,3.21Z"/><path d="M527.96,409.62c-1.3,1.01-2.42,1.88-3.63,2.81-3.26-1.78-6.07-4-7.44-7.72,2.28-2.04,4.95-2.09,7.51-2.36,.44-.05,1.08,.6,1.41,1.07,.57,.84,.95,1.8,1.45,2.69,.38,.68,.91,1.25,.27,2.12-.16,.21,.25,.85,.44,1.38Z"/><path d="M590.24,474.34c-1.35-1.32-1.96-2.62-1.69-4.51,.39-2.72,.35-5.51,.56-8.26,.16-2.04,1.65-3.15,3.53-2.74,1.18,.26,1.99,1.19,1.89,2.32-.39,4.3-1.46,8.42-3.47,12.27-.17,.33-.51,.57-.83,.92Z"/><path d="M569.27,469.72c-1.85-1.76-2.6-3.43-2.29-5.46,.37-2.43,.85-4.84,1.24-7.27,.19-1.22,.78-2.08,1.99-2.4,1.56-.4,2.9,.81,2.55,2.38-.8,3.63-1.68,7.24-2.57,10.85-.14,.56-.51,1.06-.92,1.9Z"/><path d="M319.67,254.94c-1.27-.15-1.39-.68-.89-1.62,.25,.45,.5,.91,.89,1.62Z"/><path d="M183.03,88.99c-.3,.31-.6,.63-1.06,1.11-.05-.76-.1-1.5-.15-2.24l.35-.11c.28,.42,.56,.83,.84,1.25,0,0,0-.01,0-.01Z"/><path d="M563.34,200.04v2.14c-.08,0-.16,0-.25,0v-2.14c.08,0,.16,0,.25-.01Z"/></g></g></svg>