<?xml version="1.0" encoding="UTF-8"?>
<svg id="_レイヤー_2" data-name="レイヤー 2" xmlns="http://www.w3.org/2000/svg" viewBox="0 0 352.89 304.77">
  <defs>
    <style>
      .cls-1 {
        fill: #fff;
      }

      .cls-2 {
        fill: #b6b2b2;
      }

      .cls-3 {
        fill: #79c6e0;
      }

      .cls-4 {
        fill: #65a0d4;
      }

      .cls-5 {
        fill: #f2635f;
      }

      .cls-6 {
        fill: #957f6e;
      }

      .cls-7 {
        fill: #3f88c9;
      }

      .cls-8 {
        fill: #211715;
      }

      .cls-9 {
        fill: #e2e1e1;
      }
    </style>
  </defs>
  <g id="layer">
    <g id="group">
      <path class="cls-9" d="M121.85,21.65c-38.62,0-80.94-.01-101.2-.02-10.26,0-18.57,8.33-18.55,18.59,.09,45.66,.39,148.55,.48,191.77,.02,10.2,8.27,18.47,18.48,18.51,59.38,.23,243.41-.14,304.17-.25,10.24-.02,18.52-8.31,18.52-18.55-.02-44.27-.09-149.63-.12-191.49,0-10.24-8.3-18.53-18.54-18.53-20.03,0-170.24,0-206.5-.01"/>
      <path class="cls-1" d="M135.12,302.69c29.68,0,87.97,.02,92.26,.02,2.96,0,2.83-7.7,1.95-9.6-.88-1.9-2.62-3.13-5.64-3.7-10.44-1.99-13.03-7.63-13.9-17.62-.37-4.28-.76-6.94-.97-11.21-.12-2.5-.33-5.26-.67-8.86l-.06-1.26c-23.2,.03-47.29,.06-70.45,.09l-.05,1.17c-.34,3.61-.55,6.37-.67,8.86-.21,4.27-.6,6.93-.97,11.21-.87,9.99-3.45,15.63-13.9,17.62-3.02,.57-4.76,1.8-5.64,3.7-.88,1.9-.62,9.58,2.28,9.58,1.97,0,8.06,0,16.43,0Z"/>
      <path class="cls-8" d="M206.15,251.72c.63,6.68,1.04,13.38,1.64,20.07,.41,4.52,1.07,9.37,3.85,13.12,1.3,1.75,2.96,3.18,4.89,4.21,2.37,1.26,4.86,1.75,7.42,2.4,1.03,.26,2.09,.63,2.85,1.4,.34,.35,.6,.75,.8,1.21-.23-.52-.03-.02,0,.08,.05,.25,.12,.49,.16,.74,.23,1.35,.2,3.52-.27,5.1-.13,.44-.28,.37-.41,.85,.02-.07,.14-.2,.3-.17-.15-.02-.32,0-.47,0-.54-.01-1.08,0-1.61,0-1.84,0-3.68,0-5.51,0-6.09,0-12.19,0-18.28,0-16.35,0-32.71,0-49.06-.01-11.04,0-22.09,0-33.13,0-.2,0-.42-.03-.62,0,.21-.03,.13,.16,.22,.06,.05-.06,.11,.24-.12-.14,.22,.35-.12-.24-.12-.25-.1-.21-.11-.21-.22-.56-.25-.83-.39-1.65-.45-2.5-.03-.51-.04-1.02-.03-1.53,0-.16,.01-.32,.02-.48,0-.08,.1-.88,.05-.55,.03-.18,.32-1.16,.1-.62,.17-.41,.41-.78,.71-1.1,.85-.95,2.14-1.33,3.33-1.59,2.48-.56,4.9-1.15,7.16-2.37,3.99-2.16,6.41-5.93,7.53-10.24,.64-2.45,.9-4.99,1.13-7.5,.31-3.41,.71-6.81,.9-10.24,.17-3.12,.41-6.24,.7-9.35,.1-1.08-.99-2-2-2-1.17,0-1.9,.92-2,2-.64,6.8-1.04,13.61-1.67,20.41-.38,4.07-1.1,8.69-4.09,11.65-1.47,1.45-3.36,2.36-5.31,2.97-2.85,.88-5.87,1.04-8.19,3.14-3.13,2.84-2.92,8.53-1.29,12.1,.76,1.67,2.09,2.65,3.92,2.7,.59,.02,1.18,0,1.77,0,2.03,0,4.05,0,6.08,0,6.5,0,13.01,0,19.51,0,16.72,0,33.45,0,50.17,.01,6.82,0,13.65,0,20.47,0,3.43,0,6.88,.13,10.3,0,4.48-.17,4.88-6.03,4.55-9.42-.21-2.18-.87-4.13-2.6-5.6-2.34-1.98-5.33-2.11-8.13-3-4.02-1.28-6.78-3.88-8.03-7.89-.71-2.28-1.03-4.65-1.25-7.02-.31-3.42-.71-6.83-.92-10.25s-.42-6.55-.73-9.82c-.1-1.08-.85-2-2-2-1,0-2.1,.92-2,2h0Z"/>
      <path class="cls-8" d="M141.76,288.95h62.33c2.57,0,2.58-4,0-4h-62.33c-2.57,0-2.58,4,0,4h0Z"/>
      <g id="board">
        <path class="cls-2" d="M29.63,166.16c0,3.73,0,11.15,0,12.92,5.39,0,132.59-.04,182.67-.06,0-3.1,0-7.53,0-12.92-42.29,.01-182.61,.06-182.67,.06Z"/>
        <path class="cls-1" d="M212.3,166.1c0-32.71,0-100.5,0-117.52-42.93,0-182.42,.01-182.67,.01,0,11.18,0,108.54,0,117.56,.05,0,142.83-.04,182.67-.06Z"/>
        <path class="cls-8" d="M212.37,46.58c-6.02,0-12.04,0-18.07,0-13.09,0-26.18,0-39.27,0-16.1,0-32.21,0-48.31,0-15.06,0-30.12,0-45.18,0-9.96,0-19.92,0-29.88,0-.68,0-1.36,0-2.03,0-1.08,0-2,.92-2,2,0,5.02,0,10.04,0,15.06,0,9.03,0,18.06,0,27.08,0,10.36,0,20.73,0,31.09,0,9.15,0,18.3,0,27.45,0,5.36,0,10.72,0,16.09,0,.27,0,.53,0,.8,0,1.08,.92,2,2,2,4.85,0,9.7,0,14.56,0,9.62,0,19.23,0,28.85-.01,11.25,0,22.49-.01,33.74-.02,9.75,0,19.49-.01,29.24-.02,5.11,0,10.23,.09,15.34,0,.16,0,.31,0,.47,0,2.57,0,2.58-4,0-4-4.33,0-8.65,0-12.98,0-9.34,0-18.69,0-28.03,.01-11.23,0-22.46,.01-33.69,.02-9.99,0-19.97,.01-29.96,.02-5.61,0-11.22,0-16.82,0-.23,0-.47,0-.7,0l2,2c0-4.68,0-9.37,0-14.05,0-8.85,0-17.71,0-26.56,0-10.35,0-20.71,0-31.06,0-9.3,0-18.6,0-27.91,0-5.68,0-11.36,0-17.04,0-.32,0-.63,0-.95l-2,2c9.05,0,18.1,0,27.15,0,14.65,0,29.3,0,43.95,0,16.19,0,32.39,0,48.58,0,13.68,0,27.37,0,41.05,0,7.12,0,14.23,0,21.35,0,.22,0,.45,0,.67,0,2.57,0,2.58-4,0-4h0Z"/>
        <path class="cls-8" d="M27.63,166.16c0,4.31,0,8.61,0,12.92,0,1.08,.92,2,2,2,4.87,0,9.75,0,14.62,0,9.86,0,19.73-.01,29.59-.02,11.6,0,23.2-.01,34.8-.02,10.08,0,20.17-.01,30.25-.02,5.31,0,10.63,.07,15.94,0,.17,0,.33,0,.5,0,2.57,0,2.58-4,0-4-4.51,0-9.01,0-13.52,0-9.67,0-19.35,.01-29.02,.02-11.59,0-23.18,.01-34.77,.02-10.25,0-20.5,.01-30.75,.02-5.66,0-11.32,0-16.98,0-.22,0-.44,0-.66,0l2,2c0-4.31,0-8.61,0-12.92,0-2.57-4-2.58-4,0h0Z"/>
        <path class="cls-4" d="M44.49,164.67c0-9.1,.05-7.58,.05-13.01,7.29,0,19.28-.02,29.38-.02,0,7.04,.03,8.05,.03,13-6,0-20.1,.02-29.47,.02Z"/>
        <path class="cls-1" d="M83.9,164.67c0-3.93,.03-4.17,.03-6.52,5.03,0,13.31,0,20.29,0,0,3.04,.02,4.38,.02,6.51-4.15,0-13.88,.01-20.35,.01Z"/>
        <path class="cls-8" d="M46.49,164.67c0-4.34,.05-8.67,.05-13.01l-2,2c9.79,0,19.59-.01,29.38-.02l-2-2c0,4.33,.03,8.67,.03,13l2-2c-9.82,0-19.64,.02-29.47,.02-2.57,0-2.58,4,0,4,9.82,0,19.64-.02,29.47-.02,1.08,0,2-.92,2-2,0-4.33-.03-8.67-.03-13,0-1.08-.92-2-2-2-9.79,0-19.59,.01-29.38,.02-1.08,0-2,.92-2,2,0,4.34-.05,8.67-.05,13.01,0,2.57,4,2.58,4,0Z"/>
        <path class="cls-1" d="M55.44,164.88c0-10.53,.01-8.77,.01-15.06,1.87,0,4.96-.02,7.55-.02,0,8.15,0,9.32,0,15.05-1.54,0-5.17,.03-7.58,.03Z"/>
        <path class="cls-8" d="M57.44,164.88c0-5.02,.01-10.04,.01-15.06l-2,2c2.52,0,5.04-.02,7.55-.02l-2-2c0,5.02,0,10.03,0,15.05l2-2c-2.53,0-5.05,.03-7.58,.03s-2.58,4,0,4,5.05-.03,7.58-.03c1.08,0,2-.92,2-2,0-5.02,0-10.03,0-15.05,0-1.08-.92-2-2-2-2.52,0-5.04,.02-7.55,.02-1.08,0-2,.92-2,2,0,5.02-.01,10.04-.01,15.06,0,2.57,4,2.58,4,0Z"/>
        <path class="cls-8" d="M85.9,164.67c0-2.17,.03-4.34,.03-6.52l-2,2c6.76,0,13.53,0,20.29,0l-2-2c0,2.17,.02,4.34,.02,6.51l2-2c-6.78,0-13.57,.01-20.35,.01-2.57,0-2.58,4,0,4,6.78,0,13.57-.01,20.35-.01,1.08,0,2-.92,2-2,0-2.17-.02-4.34-.02-6.51,0-1.08-.92-2-2-2-6.76,0-13.53,0-20.29,0-1.08,0-2,.92-2,2,0,2.17-.03,4.34-.03,6.52,0,2.57,4,2.58,4,0Z"/>
      </g>
      <g id="woman">
        <path class="cls-1" d="M167.83,130.01c-1.62-1.82-3.15-3.36-3.66-5.91-.54-2.63-1.88-6.09-4.66-6.29-1.84-.13-2.43,1.27-2.69,2.09,0,0-.19,.6-.48,1.58-.59-.23-1.26-.43-2.02-.58-4.82-.95-10.1,.04-10.31,2.54-.24,1.24,.07,2.34,1.02,4.31-.87,.85-1.53,3.3-.88,3.84l.59,1.32c-1.43-.38-2.58,.05-3.36,.88-1.01,1.07-1.79,3.4-.61,4.27,.97,.71,1.73,1.43,2.56,2.07-1.74-2.46-6.05-.36-5.88,1.9,.12,1.51,1.37,2.93,2.59,3.86,2.02,3.88,4.85,7.33,8.26,10.08,.86,.69,1.75,1.34,2.58,2.06,1.79,1.57,3.26,3.5,4.29,5.64,5.43-1.7,12.12-4.64,17.6-7.34-.67-10.24-.83-20.51-2.61-23.35-.72-1.15-1.53-2.1-2.31-2.98Z"/>
        <path class="cls-8" d="M136.79,77.36c4,11.33,7.88,22.7,11.96,34,1.21,3.35,2.43,6.69,3.69,10.01,.38,1.01,1.35,1.7,2.46,1.4,.97-.27,1.78-1.44,1.4-2.46-4.56-12.08-8.76-24.29-13.01-36.48-.87-2.51-1.75-5.02-2.63-7.53s-4.72-1.37-3.86,1.06h0Z"/>
        <path class="cls-5" d="M132.43,71.72c.11,.29,.69,1.78,1.65,4.22,.5,1.29,1.96,1.94,3.25,1.44,.95-.36,1.91-.74,2.86-1.1,1.29-.5,1.94-1.95,1.45-3.25-.93-2.45-1.23-3.24-1.61-4.22-.85-2.19-3.71-4.17-5.59-3.58-1.62,.51-3,3.93-2.01,6.48Z"/>
        <path class="cls-8" d="M130.5,72.25c.32,.81,.63,1.63,.95,2.44,.65,1.67,1.16,3.46,2.88,4.34,.92,.47,1.89,.6,2.91,.44,.82-.13,1.61-.53,2.39-.83s1.6-.53,2.27-1.03c.84-.62,1.47-1.46,1.75-2.48,.46-1.68-.29-3.19-.88-4.73-.35-.91-.68-1.84-1.07-2.74-1.2-2.71-4.62-5.13-7.66-4.39-1.75,.43-2.83,2.1-3.42,3.68s-.72,3.63-.11,5.3c.36,.98,1.37,1.75,2.46,1.4,.96-.31,1.78-1.41,1.4-2.46-.1-.28-.18-.55-.24-.84-.08-.38,0-.07,0,.01,0-.15-.02-.29-.02-.44,0-.26,.01-.52,.04-.79-.04,.4-.02,.1,0,.02,.05-.19,.08-.39,.14-.58,.04-.13,.3-.79,.11-.38,.11-.24,.23-.47,.36-.69,.05-.08,.11-.16,.16-.24-.22,.36-.14,.16-.05,.08,.07-.06,.19-.15,.23-.23,.09-.14-.37,.24-.01,.02,.33-.2-.05,.11-.12,.04-.02-.02,.26-.05,.26-.06,0,.07-.49,.01-.06,.03,.2,0,.36-.11-.04-.03,.19-.04,.48,.11,.65,.16,.12,.03,.42,.19,.04,0,.15,.07,.29,.14,.44,.22,.2,.11,.38,.24,.57,.36,.44,.3-.25-.27,.13,.11,.08,.08,.17,.15,.25,.23,.19,.18,.35,.37,.52,.56,.21,.23-.23-.38,.04,.07,.09,.14,.18,.28,.26,.42,.05,.09,.09,.19,.15,.29-.18-.33-.07-.17-.03-.05,.05,.13,.1,.26,.15,.39,.13,.32,.25,.65,.37,.97,.39,1.01,.79,2.01,1.13,3.03,.17,.49-.1-.28,0,.02,.05,.15-.11,.45,.02,.01-.03,.1-.06,.2-.08,.3,.11-.43,.09-.08-.03,.01-.2,.17,.39-.18-.01,.03-.05,.03-.32,.27,.05,0-.09,.06-.18,.11-.27,.17-.18,.09-.19,.1-.04,.02-.11,.04-.22,.08-.33,.13-.66,.25-1.32,.51-1.98,.76-.26,.1-.52,.2-.8,.26,.45-.08,.12-.03-.02-.04-.15,0-.1,0,.15,.02-.08-.01-.15-.03-.22-.06-.26-.13,.44,.13-.02,0-.16-.1-.18-.11-.06-.01,.12,.1,.1,.09-.04-.04-.07-.08-.15-.15-.22-.23,.29,.35,.02-.04-.03-.14,.15,.3-.04-.14-.07-.21-.09-.23-.18-.47-.27-.7-.11-.29-.23-.59-.34-.88-.27-.7-.55-1.4-.82-2.1-.38-.97-1.36-1.75-2.46-1.4-.94,.31-1.8,1.42-1.4,2.46Z"/>
        <path class="cls-8" d="M145.65,144.24s.05,.09,.08,.13c.15,.18-.11-.43-.07-.19,.01,.08,.09,.46,.05,.11-.05-.37,0,.12-.01,.21,0,.06-.01,.12-.01,.18,0,.24,.1-.45,0-.1-.03,.12-.06,.25-.09,.37,0-.02-.08,.24-.08,.24-.01,0,.18-.37,.08-.19-.07,.12-.12,.25-.2,.37-.03,.05-.07,.1-.09,.15-.08,.18,.25-.26,.11-.14-.38,.31,.04,0,.04,0-.01,0-.39,.22-.41,.23-.19,.11,.14-.07,.16-.06-.02-.01-.18,.06-.2,.07-.19,.06-.38,.09-.57,.14-.23,.06,.17-.02,.16-.02-.06,.03-.24,.02-.3,.02-.15,0-.29,0-.44,0-.22,0-.15-.11,.1,.03-.05-.03-.15-.03-.21-.04-.2-.04-.38-.11-.58-.18-.22-.07,.05,.02,.08,.03-.08-.04-.16-.08-.23-.11-.18-.09-.36-.19-.53-.3-.35-.21-.68-.45-1.01-.7,.3,.22-.13-.11-.22-.18-.15-.12-.29-.24-.43-.37-.28-.26-.54-.53-.8-.82s.12,.2-.08-.11c-.1-.16-.21-.31-.3-.48-.04-.07-.07-.14-.11-.21-.2-.39,.02,.05,.02,.05-.09-.01-.11-.59-.16-.59,0,0,.04,.36,.03,.18,0-.03,.02-.14,0-.16,0,.02-.1,.44-.04,.27,.02-.06,.05-.15,.05-.21,0-.17-.08,.19-.1,.22,.03-.03,.05-.11,.08-.15,.04-.06,.09-.13,.12-.2,.08-.19-.26,.26-.1,.12,.12-.1,.23-.24,.34-.35,.01-.01,.14-.11,.14-.12,.02,.06-.41,.27-.05,.05,.13-.08,.26-.16,.39-.23,.03-.02,.23-.12,.24-.11,.01,.02-.43,.14-.11,.06,.17-.05,.34-.09,.5-.14,.06-.02,.29-.04-.01,0-.35,.04,.07,0,.12,0,.1,0,.56,.04,.24-.01s.25,.07,.34,.11c.99,.33,2.23-.38,2.46-1.4,.25-1.11-.33-2.1-1.4-2.46-1.98-.66-4.25,.09-5.74,1.47-.68,.63-1.25,1.52-1.39,2.45-.19,1.27,.14,2.51,.81,3.6,.57,.94,1.33,1.75,2.18,2.44s1.78,1.42,2.82,1.89,2.17,.77,3.35,.64,2.4-.5,3.35-1.32c1.57-1.36,2.33-4.42,1.08-6.2-.6-.85-1.78-1.34-2.74-.72-.85,.55-1.36,1.82-.72,2.74h0Z"/>
        <path class="cls-8" d="M147.01,131.7c-1.42-.75-2.96-1.14-4.55-.79-1.34,.3-2.41,1.2-3.17,2.3-.71,1.03-1.17,2.4-1.12,3.65,.03,.68,.21,1.35,.58,1.92,.49,.74,1.12,1.07,1.72,1.57,.99,.82,2,1.57,3.04,2.31,.12,.08,.23,.18,.35,.26,.33,.25-.38-.3-.03-.03,.07,.05,.14,.11,.2,.16,.49,.38,.97,.76,1.47,1.14,.69,.52,1.4,1.07,2.18,1.45,1.22,.58,2.58,.61,3.88,.26,1.45-.39,2.7-1.32,3.33-2.71,.79-1.76,.62-3.73-.49-5.33-.59-.86-1.78-1.33-2.74-.72-.85,.55-1.35,1.82-.72,2.74,.09,.13,.16,.26,.25,.38,.02,.03,.18,.35,.07,.09,.05,.12,.08,.25,.12,.37,.03,.11,.02,.36,.02,0,0,.09,0,.17,0,.26,0,.07-.05,.42,0,.15s-.03,.07-.04,.13c-.03,.12-.19,.42,.02,.03-.07,.14-.21,.3-.25,.45-.08,.25,.2-.3,.06-.08-.03,.05-.27,.28-.07,.09s-.05,.02-.11,.06c-.07,.04-.14,.07-.21,.11,.26-.18,.17-.06,.03-.01-.13,.04-.26,.08-.4,.12-.11,.03-.22,.04-.33,.07-.29,.07,.33,0,.04-.01-.18,0-.37,0-.56,0-.42,0,.32,.08-.06-.02-.21-.05,.49,.25,0,0-.6-.32-1.16-.73-1.71-1.13-.16-.12-.31-.24-.47-.35-.08-.06-.3-.23,.06,.05-.07-.06-.15-.12-.22-.17-.37-.29-.75-.58-1.12-.87-.51-.39-1.05-.72-1.57-1.1-.27-.2,.19,.15-.08-.06-.11-.09-.21-.17-.32-.26-.19-.15-.37-.31-.56-.47-.22-.18-.44-.37-.66-.55-.12-.09-.23-.19-.35-.28l-.4-.31c-.2-.15-.24-.18-.12-.09l.06,.05c-.12-.12-.12-.12-.01,.01,.08,0,.12,.17,.02,0,.22,.4,.1,.25,.07,.11,.09,.51,.01,.25,.02,.13,0-.09,0-.19,0-.29,0-.16,.11-.26-.01,.09,.07-.19,.1-.4,.16-.6,.1-.34,0-.04-.03,.04,.05-.12,.11-.24,.17-.35,.11-.2,.23-.39,.36-.57-.28,.38,.11-.04,.22-.17,.16-.18-.29,.11-.06,.05,.08-.02,.24-.14,.31-.18-.06,.04-.41,.13-.07,.03,.1-.03,.19-.05,.29-.08,.34-.1,.01,0-.07,0,.12,0,.29,.01,.41,0,.28-.04-.3-.08-.01-.01,.15,.04,.3,.06,.45,.11,.13,.04,.25,.08,.38,.13-.3-.12,.31,.17,.31,.17,.92,.49,2.22,.26,2.74-.72,.49-.92,.27-2.21-.72-2.74h0Z"/>
        <path class="cls-8" d="M152.52,136.18c-1.86-1.55-3.67-3.17-5.49-4.75-.36-.32-.73-.63-1.1-.94-.08-.07-.16-.15-.25-.21-.32-.21,.02,.07,.08,.17l.12,.31c-.04-.15-.04-.13,0,.05,0,.38,.01-.09,.01-.17s.05-.37,0-.09c-.06,.34,.04-.16,.05-.19,.05-.21,.12-.41,.18-.62,.14-.48-.14,.21,.01-.04,.05-.09,.09-.19,.14-.27,.06-.11,.13-.21,.19-.31-.15,.26-.14,.18,.06-.03-.05,.06-.32,.19,.02-.01,.1-.06,.2-.12,.31-.17-.46,.23,.54-.12,.27-.07-.29,.06,.27,0,.27,0,.12,0,.24,.01,.36,.01-.35,0-.1-.02,0,0,.18,.05,.35,.09,.52,.15-.37-.14,.06,.04,.15,.09,.13,.07,.26,.14,.38,.21,.28,.16,.55,.32,.82,.49s.51,.33,.76,.5c.11,.08,.22,.15,.32,.23,.08,.06,.16,.12,.24,.17-.12-.1-.13-.1-.02-.02,.93,.74,1.78,1.57,2.56,2.47,.05,.05,.51,.64,.29,.34,.18,.24,.35,.49,.5,.75,.12,.21,.23,.43,.34,.64,.27,.52-.07-.2,.06,.14,.06,.16,.13,.32,.18,.48,.01,.03,.09,.51,.07,.2-.03-.41-.02,.51,0,.12,.01-.3-.05,.2-.06,.23-.01,.05-.18,.48-.07,.25,.12-.27-.14,.23-.13,.23-.05,.09-.37,.46-.09,.16-.08,.09-.16,.17-.24,.25-.32,.34,.27-.12-.12,.1-.09,.05-.19,.12-.28,.16,.18-.07,.2-.09,.06-.05-.15,.04-.12,.03,.08-.01-.07-.06-.27-.06,0,0-.09-.03-.52-.2-.22-.05-.29-.14-.54-.31-.8-.49-.49-.32,.17,.14-.09-.07-.14-.12-.29-.23-.43-.35-.8-.67-2.05-.85-2.83,0-.68,.74-.86,2.11,0,2.83,1.37,1.14,2.93,2.34,4.83,2.08s3.24-1.6,3.94-3.25c1.41-3.33-1.05-6.56-3.34-8.79-1.15-1.12-2.44-2.11-3.82-2.93-1.61-.96-3.26-1.55-5.16-1.15-1.61,.34-2.9,1.44-3.56,2.93-.6,1.37-1.09,3.18-.27,4.57,.38,.64,1.09,1.09,1.65,1.57s1.09,.95,1.63,1.43c1.36,1.19,2.72,2.38,4.11,3.54,.8,.67,2.05,.84,2.83,0,.68-.74,.86-2.11,0-2.83Z"/>
        <path class="cls-8" d="M158.74,120.43c.26-.81,.95-.78,1.67-.07,1.03,1,1.45,2.63,1.76,3.97,.44,1.91,1.25,3.5,2.47,5.04,1.1,1.4,2.42,2.62,3.43,4.09,.42,.62,.55,.83,.68,1.27,.17,.56,.32,1.13,.43,1.71,.33,1.61,.49,3.25,.63,4.88,.4,4.53,.57,9.08,.85,13.61,.16,2.56,4.16,2.58,4,0-.26-4.2-.43-8.41-.77-12.61-.23-2.91-.37-6.08-1.36-8.85-1.08-3.02-3.8-4.88-5.47-7.51-.84-1.31-.98-2.77-1.46-4.21-.51-1.52-1.22-3.05-2.37-4.2-1.29-1.29-3.17-2.01-4.99-1.62s-2.83,1.82-3.37,3.46c-.8,2.45,3.06,3.5,3.86,1.06h0Z"/>
        <path class="cls-8" d="M153.59,127.87c.27,2.56,1.11,4.92,1.87,7.36,.68,2.17,1.21,4.4,.53,6.6-.32,1.03,.38,2.18,1.4,2.46,1.07,.29,2.14-.36,2.46-1.4,.8-2.62,.44-5.37-.3-7.95-.67-2.33-1.71-4.67-1.96-7.06-.11-1.07-.84-2-2-2-.99,0-2.11,.92-2,2h0Z"/>
        <path class="cls-8" d="M151.96,129.15c2.4,.41,5.53,.73,7.58-.89,2.24-1.77,2.2-5.16,.14-7.05s-5.36-2.52-8.19-2.65c-2.43-.11-5.36,.12-7.44,1.54-.58,.4-1.08,.85-1.45,1.44-.18,.28-.33,.6-.43,.93-.06,.21-.21,1.23-.12,.61-.26,1.85,.22,3.38,.96,5.06,.44,.99,1.88,1.22,2.74,.72,1.02-.6,1.16-1.75,.72-2.74-.18-.41-.33-.83-.44-1.26-.03-.1-.11-.58-.09-.42,.02,.22,0-.09,0-.11,0-.12,0-.24,0-.36,0-.03,.03-.33,0-.1-.04,.4,.24-.8,.05-.31-.16,.41,.24-.33,0,.03s.28-.3,.01,0,.43-.34,.14-.12c-.21,.16,.18-.1,.24-.14,.14-.08,.29-.16,.44-.23,.2-.1-.04,.02-.07,.03,.12-.04,.23-.08,.35-.12,.22-.07,.43-.13,.65-.19,.98-.24,1.47-.28,2.52-.3,.97-.02,2.04,.03,2.88,.17,.55,.09,1.1,.2,1.64,.35s.85,.26,1.22,.45c.18,.09,.35,.19,.52,.29,.11,.07,.43,.33,.18,.11,.14,.13,.27,.26,.41,.39,.16,.15-.07-.09-.08-.11,.05,.07,.09,.17,.15,.24,.19,.21-.06-.24,.03,.1,0,.03,.07,.32,.03,.08s0,.04,0,.08c-.09,.37,0,.06,.03-.02-.02,.08-.04,.17-.06,.25-.06,.22,.03-.05,.05-.08-.05,.1-.11,.21-.18,.3,.03-.05,.19-.19,.03-.06-.26,.21,.39-.26-.11,.09,0,0-.28,.14-.12,.07,.15-.06-.16,.05-.19,.05-.1,.02-.2,.04-.3,.06-.48,.11,.22,0-.15,.02-1.08,.07-2.15,.08-3.23-.1s-2.15,.28-2.46,1.4c-.26,.96,.33,2.28,1.4,2.46h0Z"/>
        <path class="cls-8" d="M139.03,148.21c1.73,2.93,3.89,5.64,6.41,7.94,1.28,1.17,2.71,2.15,4.01,3.3s2.3,2.34,3.17,3.75c1.35,2.19,4.81,.18,3.45-2.02-.95-1.54-2.09-2.98-3.41-4.21s-2.72-2.16-4.02-3.31c-2.45-2.16-4.5-4.65-6.16-7.46-1.31-2.22-4.76-.21-3.45,2.02h0Z"/>
        <path class="cls-6" d="M289.66,119.85c9.69,3.74,17.55-4.95,17.49-12.24-.04-4.46-.71-7.9-2.09-12.2-1.72-5.37-5.06-16.27-5.31-35.75,.48-5.48-.02-13.4-.24-16.45-.75-10.55-5.47-22.34-12.26-28.89-2.94-2.83-7.62-7.04-14.65-9.63-4.72-1.82-9.11-2.69-17.39-2.69-13.58,0-25.67,7-31.03,12.13-8.9,8.52-14.54,24.08-13.83,45.53,0,15.64-1.19,26.91-2.86,33.32-1.14,4.39-2.11,11.69-2.15,16.15-.06,7.29,7.29,15.29,18.12,12.82l66.19-2.09Z"/>
        <path class="cls-1" d="M298.81,62.16c-.09-.95-.24-1.93-.72-2.78-.68-1.22-2.03-2.12-3.52-2.34-1.48-.22-3.07,.25-4.14,1.21,0,0-.89,.81-2.12,1.91-2.03-6.66-5.39-13.91-10.75-20.08-3.93-4.52-10.18-6.28-15.92-4.56-.44,.13-.69,.21-.69,.21-4,1.4-8.08,2.95-12.05,4.65-11.42,4.89-21.88,10.96-26.55,17.86h-1.44c-1.07-.97-2.66-1.43-4.14-1.21-1.48,.22-2.84,1.12-3.52,2.34-.48,.86-.64,1.83-.72,2.78-.33,3.75,.41,7.57,2.11,10.98,.83,1.66,1.91,3.26,3.41,4.47,1.15,.92,2.56,1.6,4.06,1.83,0,0,.5,.08,1.32,.2,1.17,4.15,3.17,8.87,6.72,13.11,3.17,3.8,6.73,6.67,10.61,8.39,.01,2.4,.08,5.17-.76,7.26-.48,1.18-2.44,2.79-4.84,4.42-.41,5.04-.45,9.76-.29,14.42,.96,.32,1.67,.56,1.67,.56,5.52,1.48,13.28,2.73,19.09,2.74,6.09,.02,14.75-.95,20.69-3.31,0,0,.22-.12,.5-.27,0-4.63-.16-9.25-.56-13.87-1.83-1.42-4.05-3.66-4.46-4.68-.86-2.12-.78-4.98-.77-7.41,8.56-3.85,15.41-15.32,16.61-18.59,.18-.56,.56-1.61,.89-2.86,.44-.07,.7-.11,.7-.11,1.5-.23,2.91-.91,4.06-1.83,1.5-1.21,2.58-2.81,3.41-4.47,1.7-3.42,2.44-7.24,2.11-10.98Z"/>
        <path class="cls-8" d="M269.03,101.23c0,1.54-.03,3.08,.15,4.61,.17,1.44,.42,3.03,1.26,4.25,1.75,2.53,4.56,4.35,7.06,6.05,.89,.61,2.22,.17,2.74-.72,.58-.99,.18-2.13-.72-2.74-1.19-.8-2.37-1.63-3.39-2.47-.48-.39-.95-.8-1.4-1.23-.19-.19-.39-.38-.57-.58-.09-.1-.17-.22-.27-.31-.19-.18,.22,.36,0-.01-.1-.17-.21-.33-.3-.5-.1-.18,.1,.35,.02,.03-.04-.17-.11-.33-.16-.49-.09-.31-.16-.62-.22-.93-.03-.18-.07-.36-.09-.54,.03,.21,0-.07,0-.13-.13-1.42-.12-2.85-.11-4.28,0-1.05-.92-2.05-2-2s-1.99,.88-2,2h0Z"/>
        <path class="cls-8" d="M238.77,101.38c0,1.4,0,2.79-.12,4.19l-.02,.22c.02-.14,.02-.14,0,0-.02,.14-.05,.28-.07,.42-.06,.34-.14,.68-.24,1.01-.05,.16-.12,.32-.16,.48,.02-.1,.16-.27,.04-.09-.08,.12-.46,.64-.11,.23-1.72,2.02-3.81,3.26-6.11,4.69-.92,.57-1.27,1.79-.72,2.74s1.82,1.29,2.74,.72c1.41-.88,2.8-1.79,4.12-2.8,1.18-.9,2.32-1.83,3.2-3.03,.82-1.11,1.08-2.55,1.26-3.88,.22-1.62,.22-3.25,.21-4.88,0-1.05-.92-2.05-2-2s-2.01,.88-2,2h0Z"/>
        <path class="cls-8" d="M291.84,59.67c1.3-1.08,3.5-.86,4.44,.58,.57,.88,.58,2.11,.6,3.12,.03,1.23-.04,2.47-.26,3.68-.8,4.38-3.06,9.6-7.92,10.47-1.06,.19-1.66,1.49-1.4,2.46,.31,1.12,1.39,1.59,2.46,1.4,7.12-1.28,10.52-9.34,11.05-15.79,.27-3.26,.05-7.05-2.77-9.17s-6.45-1.73-9.03,.43c-.83,.69-.72,2.11,0,2.83,.82,.82,2,.7,2.83,0h0Z"/>
        <path class="cls-8" d="M287.18,75.59c-.07,1.86-.59,3.65-1.17,5.41-.14,.41-.27,.82-.43,1.22,.22-.54-.05,.11-.1,.21-.08,.16-.15,.31-.23,.47-1.09,2.19-2.44,4.27-3.88,6.25-3.38,4.63-7.96,9.54-13.75,10.89-2.51,.59-1.44,4.44,1.06,3.86,6.75-1.58,11.99-7.11,15.96-12.49,3.43-4.64,6.3-9.92,6.53-15.82,.1-2.57-3.9-2.57-4,0h0Z"/>
        <path class="cls-8" d="M222.33,56.84c-2.59-2.17-6.27-2.51-9.03-.43s-3.04,5.92-2.77,9.17c.54,6.46,3.93,14.52,11.05,15.79,1.06,.19,2.16-.29,2.46-1.4,.27-.97-.33-2.27-1.4-2.46-4.86-.87-7.12-6.09-7.92-10.47-.21-1.15-.28-2.31-.26-3.48,.02-1.03,.01-2.25,.52-3.18,.86-1.57,3.19-1.83,4.52-.72,.83,.69,2.02,.81,2.83,0,.71-.71,.83-2.13,0-2.83h0Z"/>
        <path class="cls-8" d="M220.39,75.21c1.22,6.99,3.88,13.67,8.48,19.13s11.1,9.8,18.56,10.59c1.08,.11,2-1,2-2,0-1.18-.92-1.88-2-2-6.51-.7-11.96-4.84-16.01-9.76s-6.11-10.91-7.17-17.03c-.19-1.06-1.49-1.66-2.46-1.4-1.12,.31-1.58,1.39-1.4,2.46h0Z"/>
        <path class="cls-8" d="M222.93,120.01c-4.65,1.01-9.47-.09-12.72-3.68-1.28-1.42-2.19-3.16-2.63-5.02-.5-2.13-.19-4.46,0-6.62,.43-4.72,1.5-9.22,2.44-13.84s1.37-8.93,1.71-13.43c.47-6.2,.74-12.47,.58-18.68s.15-11.91,1.2-17.75c1.59-8.85,4.79-17.92,11.13-24.51,3.01-3.13,6.72-5.53,10.58-7.49,5.11-2.58,10.75-4.35,16.47-4.85,10.57-.91,21.2,1.17,29.73,7.72,3.87,2.97,7.2,6.51,9.67,10.73,2.89,4.94,4.81,10.44,5.83,16.06,.87,4.77,.97,9.75,1.01,14.59,.02,2.87-.23,5.73-.16,8.59,.08,3.14,.24,6.27,.51,9.4,.69,8.01,2.07,15.95,4.48,23.63,.72,2.28,1.43,4.56,1.86,6.92,.45,2.48,.86,5.34,.3,7.82-.9,4-3.97,7.62-7.97,8.76-2.29,.66-4.57,.37-6.78-.45-2.42-.9-3.46,2.97-1.06,3.86,5.22,1.93,10.86,.76,14.93-3.01,1.83-1.69,3.22-3.82,4.13-6.14,.97-2.48,1.05-5.05,.85-7.67-.35-4.71-1.83-9.06-3.12-13.55-1.08-3.75-1.92-7.56-2.54-11.4-.97-5.93-1.42-11.94-1.58-17.94-.08-3.08,.18-6.14,.15-9.22-.03-2.67-.15-5.35-.32-8.02-.71-11.32-4.47-23.51-12.71-31.68-3.75-3.72-8.04-7-12.87-9.19s-9.75-3.4-14.99-3.78c-6.56-.47-13.08-.02-19.39,1.93-5.37,1.66-10.57,4.17-15.11,7.49-7.57,5.54-12.31,13.7-15.02,22.57-1.73,5.64-2.64,11.52-3.03,17.4-.46,6.88-.08,13.79-.35,20.68-.21,5.3-.55,10.62-1.34,15.86-.68,4.51-1.95,8.89-2.6,13.42-.73,5.08-1.71,10.6,.42,15.46,1.97,4.49,6.2,7.89,10.97,8.98,2.79,.63,5.61,.52,8.39-.08,2.51-.55,1.45-4.4-1.06-3.86h0Z"/>
        <path class="cls-8" d="M263.32,33.2c-6.81,1.48-13.41,3.92-19.69,6.91s-11.82,6.29-16.92,10.59c-2.29,1.93-4.39,4.07-6.08,6.55-1.46,2.13,2,4.13,3.45,2.02,3.96-5.76,10.54-9.83,16.55-13.14,7.44-4.09,15.45-7.26,23.76-9.07,2.51-.55,1.45-4.4-1.06-3.86h0Z"/>
        <path class="cls-8" d="M259.75,30.07c13.76,5.14,22.64,17.33,26.75,31.04,.74,2.46,4.6,1.41,3.86-1.06-3.37-11.22-9.63-21.65-19.3-28.51-3.16-2.24-6.62-3.97-10.24-5.33-2.41-.9-3.46,2.96-1.06,3.86h0Z"/>
        <path class="cls-1" d="M181.72,166.43c.46,1.11,.92,2.23,1.39,3.35,5.74-14.26,6.38-21.64,11.54-35.13,.91-2.39,2.07-4.35,3.81-6.22,1.64-1.75,4.17-2.24,6.34-3.29,7.03-3.39,18.31-6.43,25.15-10.09,0,0,.24-.13,.68-.37,1.6-1.68,3.23-3.26,4.8-4.62-1.54,14.5,.11,26.21,.93,40.38,.4,6.79,1.32,22.34,1.32,38.19,0,16.93-1.65,29.32-3.37,39.94-.51,2.44-1.23,5.33-2.27,8.22-10.01,0-24.7,0-24.7,0,1.9-14.05,4.12-33.14,4.12-36.17,0-.76-.02-1.52-.05-2.29-2.98,3.64-8.42,11.26-13.32,14.84-4.84,3.53-11.16,5.21-18.23,3.35-8.26-2.17-12.96-9.46-16.4-17.27-4.95-11.25-8.47-23.34-11.97-34.57,7.04-1.53,18.26-6.66,25.3-10.37,1.73,4.23,3.32,8.18,4.96,12.13Z"/>
        <path class="cls-3" d="M241.78,129c4.6,.9,9.73,1.54,13.86,1.55,6.09,.02,14.75-.95,20.69-3.31l.52-.2c0,7.8-.45,15.61-.9,23.4-.4,6.79-1.32,22.34-1.32,38.19,0,11.18,.72,20.38,1.7,28.4-.11,0-.17,0-.17,0-7.33,0-33.61,.57-39.43,.57,0,0-.33,0-.84,0,1.02-8.15,1.78-17.52,1.78-28.97,0-15.84-.92-31.4-1.32-38.19-.44-7.67-.98-15.3-1.14-22.97l1.33,.34c1.59,.43,3.37,.83,5.23,1.2Z"/>
        <path class="cls-1" d="M305,236.41c-1.86-13.93-4.14-32.8-4.14-35.79,0-5.59,.91-11.52,2.42-17.96,.94-4.03,1.9-9.03,2.82-14.47,9.98,0,24.47,0,24.47,0-4.88-12.73-5.73-20.03-10.61-32.76-.92-2.39-2.07-4.36-3.82-6.23-1.64-1.76-4.19-2.25-6.35-3.3-7.04-3.4-20.14-7.07-27-10.74,0,0-.04-.02-.12-.07-2.13-2.06-4.39-4.01-6.77-5.76,1.62,13.64,.83,27.41,.05,41.11-.4,6.79-1.32,22.34-1.32,38.19,0,16.93,1.65,29.32,3.36,39.94,.3,1.41,1.19,6.24,1.65,7.86l25.36-.02Z"/>
        <path class="cls-8" d="M236.02,129.73c6.67,1.76,13.74,2.91,20.65,2.81s13.87-.91,20.19-3.38c1.01-.39,1.7-1.34,1.4-2.46-.26-.96-1.45-1.79-2.46-1.4-6.01,2.35-12.7,3.14-19.12,3.23s-13.24-.99-19.59-2.66c-2.49-.66-3.55,3.2-1.06,3.86h0Z"/>
        <path class="cls-8" d="M228.94,113.32c-4.19,2.22-8.71,3.75-13.16,5.36-2.34,.84-4.68,1.68-6.99,2.59-2.12,.84-4.16,1.86-6.28,2.69-2.37,.93-4.48,1.85-6.15,3.85-1.76,2.11-2.93,4.45-3.9,7.01-1.85,4.9-3.38,9.89-4.82,14.92-1.65,5.76-3.37,11.47-5.5,17.07-.38,1.01,.43,2.19,1.4,2.46,1.13,.31,2.07-.38,2.46-1.4,3.61-9.46,5.83-19.35,9.19-28.89,.88-2.51,1.72-5.06,3.21-7.28,.58-.87,1.27-1.79,2.12-2.42,.9-.67,2.01-1.05,3.05-1.45,2.01-.78,3.93-1.75,5.93-2.55,2.24-.89,4.5-1.71,6.77-2.52,4.96-1.78,10.02-3.49,14.69-5.96,2.28-1.2,.26-4.66-2.02-3.45h0Z"/>
        <path class="cls-8" d="M190.91,182.75c-4.32-9.56-8.26-19.27-12.22-28.98-.5-1.22-1.69-1.85-2.94-1.2-4.07,2.14-8.23,4.13-12.47,5.93-3.99,1.7-8.11,3.3-12.35,4.24-1.03,.23-1.71,1.47-1.4,2.46,2.29,7.33,4.49,14.68,7.03,21.93,2.31,6.57,4.72,13.37,8.32,19.36,3.12,5.2,7.48,9.71,13.36,11.64,6.37,2.09,13.54,1.29,19.27-2.2s10.17-9.73,14.43-15.12c.67-.85,.83-2,0-2.83-.69-.69-2.16-.85-2.83,0-3.59,4.55-7.08,9.51-11.66,13.14s-10.85,4.98-16.65,3.57c-5.33-1.3-9.24-5.06-12.09-9.61-3.5-5.59-5.78-11.96-7.98-18.14-2.68-7.53-4.97-15.18-7.35-22.81l-1.4,2.46c4.46-.99,8.75-2.71,12.94-4.49s8.64-3.88,12.83-6.08l-2.94-1.2c4.09,10.03,8.17,20.06,12.62,29.94,.44,.98,1.87,1.22,2.74,.72,1.01-.59,1.16-1.75,.72-2.74h0Z"/>
        <path class="cls-8" d="M282.7,117.35c8.22,4.06,17.25,6.15,25.55,10.02,1.99,.93,4.56,1.48,6.21,2.97,1.9,1.71,3.05,4.18,3.93,6.53,1.84,4.9,3.36,9.89,4.79,14.92,1.63,5.71,3.34,11.38,5.46,16.93,.38,1.01,1.35,1.7,2.46,1.4,.97-.27,1.78-1.45,1.4-2.46-3.86-10.14-6.17-20.76-9.92-30.94-.95-2.57-1.95-5.07-3.63-7.26s-3.69-3.51-6.33-4.53c-2.07-.81-4.07-1.79-6.14-2.62-2.2-.88-4.43-1.7-6.67-2.5-5.07-1.83-10.26-3.51-15.1-5.9-2.3-1.14-4.33,2.31-2.02,3.45h0Z"/>
        <path class="cls-8" d="M198.9,127.94c1.4,14.78,3.36,29.55,5.96,44.17,1.34,7.5,3.49,14.92,4.26,22.51,.56,5.44,0,10.62-.59,16.03-.94,8.55-1.99,17.09-3.14,25.61-.14,1.07,.26,2.15,1.4,2.46,.93,.26,2.31-.32,2.46-1.4,1.05-7.81,2.03-15.63,2.92-23.46,.58-5.07,1.43-10.24,1.23-15.36-.32-8.13-2.51-15.94-4.03-23.9-1.42-7.46-2.57-14.98-3.61-22.5-1.11-8.03-2.09-16.09-2.86-24.17-.1-1.08-.85-2-2-2-1,0-2.1,.92-2,2h0Z"/>
        <path class="cls-8" d="M233.28,111.49c-.8,8.77-.45,17.53,.19,26.29,.52,7.17,1.01,14.33,1.38,21.51,.86,16.81,1.42,33.73-.11,50.52-.7,7.68-1.46,15.61-3.55,23.05-.7,2.48,3.16,3.54,3.86,1.06,1.89-6.7,2.62-13.8,3.35-20.7,.87-8.17,1.27-16.38,1.27-24.59,0-15.74-.77-31.49-1.94-47.18-.74-9.98-1.37-19.95-.46-29.95,.1-1.08-.99-2-2-2-1.16,0-1.9,.92-2,2h0Z"/>
        <path class="cls-8" d="M230.76,178.48c-2.66-7.84-5.07-15.77-7.6-23.66-.56-1.73-1.13-3.45-1.69-5.18-.26-.8-.51-1.61-.7-2.43-.09-.36-.18-.73-.22-1.1-.01-.11,.07-.95-.04-.44,.23-1.08,1.27-2.37,1.99-3.33,1.02-1.37,2.16-2.66,3.34-3.89,.73-.76,.8-2.07,0-2.83-1.16-1.1-2.28-2.25-3.32-3.47-.55-.65-1.08-1.31-1.58-1.99-.39-.52-.21-.27,.2-.86,1.48-2.09,3.05-4.12,4.67-6.1,3.65-4.48,7.54-8.87,12.02-12.55,1.99-1.64-.85-4.45-2.83-2.83-5.06,4.16-9.41,9.21-13.45,14.34-.94,1.19-1.87,2.39-2.77,3.62s-2.07,2.46-2.11,3.99c-.05,1.79,1.4,3.24,2.47,4.54,1.2,1.47,2.5,2.84,3.88,4.14v-2.83c-1.34,1.39-2.58,2.86-3.75,4.4-.97,1.28-1.97,2.66-2.49,4.19s-.1,3.25,.32,4.78c.48,1.76,1.1,3.49,1.66,5.22,2.73,8.44,5.29,16.93,8.14,25.33,.82,2.42,4.69,1.38,3.86-1.06h0Z"/>
        <path class="cls-8" d="M236.73,219.6c10.73,0,21.47-.35,32.2-.5,2.41-.03,4.82-.07,7.23-.07,2.57,0,2.58-4,0-4-10.99,0-21.99,.33-32.98,.5-2.15,.03-4.3,.07-6.45,.07-2.57,0-2.58,4,0,4h0Z"/>
        <path class="cls-8" d="M307,236.41c-1.03-7.74-2.01-15.48-2.91-23.23-.59-5.06-1.41-10.2-1.16-15.31,.4-7.88,2.6-15.47,4.05-23.19s2.53-14.96,3.56-22.47c1.11-8.07,2.1-16.16,2.87-24.27,.1-1.08-.99-2-2-2-1.17,0-1.9,.92-2,2-1.39,14.66-3.33,29.31-5.94,43.8-1.38,7.63-3.49,15.15-4.28,22.88-.56,5.45,0,10.63,.62,16.04,.97,8.59,2.06,17.18,3.2,25.75,.14,1.07,.82,2,2,2,.97,0,2.14-.92,2-2h0Z"/>
        <path class="cls-8" d="M280.74,115.55c2.94,2.79,5.65,5.71,8.02,9,.62,.86,1.22,1.72,1.83,2.58,.35,.5,.7,1,1.06,1.5,.15,.21,.97,1.33,.97,1.12,0,.32-.86,1.14-1.05,1.39-.41,.51-.83,1.01-1.26,1.5-.91,1.04-1.88,2.03-2.89,2.98-.79,.75-.74,2.07,0,2.83,1.47,1.52,3.02,3.02,4.31,4.71,.28,.37,.55,.76,.77,1.16,.1,.17,.25,.5,.25,.47,.06,.36-.24,1.49-.37,2.07-.91,4.06-2.37,8.01-3.6,11.98-.76,2.46,3.1,3.52,3.86,1.06,1.35-4.37,3.04-8.76,3.86-13.27,.38-2.11,.06-3.61-1.22-5.36-1.48-2.04-3.27-3.84-5.03-5.65v2.83c1.16-1.1,2.28-2.25,3.32-3.47,.94-1.1,2.07-2.29,2.68-3.61,.72-1.54,.14-2.92-.77-4.22-.83-1.18-1.66-2.36-2.49-3.53-2.81-3.97-5.89-7.55-9.42-10.9-1.87-1.77-4.7,1.05-2.83,2.83h0Z"/>
        <path class="cls-8" d="M273.9,109.33c1.95,16.67,.4,33.45-.45,50.14-.86,16.95-1.41,34,.17,50.92,.37,3.95,.85,7.88,1.4,11.8s1.1,7.72,2.16,11.49c.7,2.47,4.56,1.42,3.86-1.06-1.81-6.46-2.51-13.3-3.2-19.96-.85-8.23-1.22-16.5-1.21-24.78,.03-15.7,1.09-31.33,1.84-47,.5-10.52,.66-21.08-.57-31.56-.13-1.07-.83-2-2-2-.98,0-2.13,.92-2,2h0Z"/>
        <g id="book">
          <path class="cls-7" d="M329.96,196.36c3.82-3.41,17.7-16.29,20.94-19.54-2.66-2.75-7.75-5.43-13.85-6-5.24-.49-10.57-.44-15.69,.83-5.19,1.3-11.91,4.5-15.51,8.63-4.4-4.2-10.92-6.06-16.83-6.25-5.95-.2-11.9,.91-17.48,3.14-4.51,1.8-8.16,4.39-10.67,9.19,3.46,3.03,18.99,14.16,22.59,17.02l46.49-7.03Z"/>
          <path class="cls-1" d="M260.09,177.19c-.92,.88-1.77,1.8-2.46,2.71,.41,.55,3.38,3.28,4.22,3.9l.41,.31c2.39-3.4,5.54-5.43,9.29-6.93,5.58-2.23,11.53-3.33,17.48-3.14,5.91,.19,12.43,2.05,16.83,6.25,3.6-4.13,10.32-7.33,15.51-8.63,5.12-1.28,10.45-1.32,15.69-.83,3.42,.32,6.52,1.3,9.05,2.58,.08-.07,.12-.12,.12-.12,.92-.87,2.75-2.71,4.31-4.36-5.64-4.27-8.81-4.9-15.46-5.55-5.06-.49-10.82-.66-15.77,.58-4.95,1.24-11.3,3.3-14.82,7.22-3.96-2.79-9.5-4.37-15.46-4.57s-11.9,.91-17.48,3.14c-2.45,.98-5.08,2.23-7.18,3.83-1.34,1.02-2.89,2.28-4.28,3.62Z"/>
          <path class="cls-1" d="M314.94,187.69c-.21-.17-.42-.34-.63-.5-2.71-2.1-4.68-2.42-7.47-.87,0,0-.73,.63-1.5,1.3-1.14-1.21-2.11-2.21-2.52-2.57-1.29-1.12-3.11-1.51-4.47-1-1.76,.66-2.5,1.62-2.5,3.1,0,0-.07,.53-.17,1.25-.94-.99-1.78-1.84-2.42-2.42-.54-.49-3.19-1.79-4.96-.47-1.56,1.17-1.8,2.73-.89,4.11,.1,.16,.17,.33,.26,.49l-.39-.21c-3.04-1.59-5.38,.88-5.68,2.05-.23,.88-.23,2.45,.45,3.77,1.14,2.21,6.13,7.75,8.83,10.59,6.17,4.37,16.02,1.33,23.91-.51,.83-.19,2.33-.76,3.13-1.35,2.95-2.05,4.47-4.57,6.88-7.23,.83-.92,2.14-2.18,2.71-3.28,.79-1.53,1.43-3.2,.99-4.87-.22-.85-.64-1.7-1.38-2.19-1.17-.77-2.74-.41-4.05,.13-1.94,.79-3.76,1.89-5.36,3.24-.85-.93-1.79-1.78-2.77-2.58Z"/>
          <path class="cls-8" d="M316.9,202.74c-1.68,1.13-3.78,1.41-5.71,1.88-2.26,.54-4.52,1.08-6.81,1.47-3.97,.67-8.45,1-12.03-1.16-2.21-1.33-4.22,2.12-2.02,3.45,4.32,2.61,9.49,2.43,14.3,1.69,2.5-.38,4.96-.96,7.42-1.55s4.83-.96,6.86-2.33,.12-4.9-2.02-3.45h0Z"/>
          <path class="cls-8" d="M320.59,190.66c-1.78-2.37-4.05-4.59-6.61-6.11-1.19-.71-2.55-1.19-3.95-1.2-1.5,0-2.91,.54-4.21,1.25-.92,.5-1.29,1.85-.72,2.74s1.75,1.26,2.74,.72c.12-.07,.25-.14,.38-.2,.04-.02,.5-.24,.31-.15-.16,.07,.17-.06,.2-.08,.11-.04,.23-.08,.35-.11,.25-.07,.5-.13,.76-.17-.43,.07,.13,.01,.28,.02,.06,0,.52,.03,.22,0-.27-.02,.08,.02,.14,.03,.22,.05,.43,.11,.65,.18,.15,.05,.35,.15,.1,.03,.11,.05,.22,.11,.33,.16,.26,.14,.52,.29,.77,.45,.91,.59,1.67,1.23,2.57,2.05,.43,.39,.85,.8,1.25,1.23,.19,.2,.37,.41,.55,.61,.11,.13,.22,.26,.33,.4,.24,.29-.27-.36,.13,.17,.63,.83,1.76,1.35,2.74,.72,.82-.53,1.39-1.84,.72-2.74h0Z"/>
          <path class="cls-8" d="M312.6,192.42c-1.89-1.78-3.58-3.79-5.35-5.68-.88-.94-1.75-1.89-2.68-2.78-1.62-1.56-3.79-2.39-6.04-2.01-2.63,.44-4.63,2.52-4.68,5.2s3.94,2.57,4,0c0-.12,0-.25,.02-.37-.03,.24-.03,.24,.02,.01,.07-.22,.06-.22-.03,0,.05-.1,.1-.2,.16-.29-.21,.36,.15-.15,.27-.23-.29,.22,.37-.19,.44-.22,.69-.33,1.36-.3,2.09,.06,1.06,.52,1.97,1.72,2.81,2.61,2.05,2.16,3.98,4.49,6.15,6.53,.79,.74,2.05,.78,2.83,0s.79-2.09,0-2.83h0Z"/>
          <path class="cls-8" d="M284.89,201.98c-3.75-2.97-7.66-5.74-11.51-8.58s-7.63-5.44-11.09-8.44l.31,2.42c1.7-3.2,4.14-5.61,7.35-7.29,3.71-1.94,7.96-3.09,12.08-3.69,7.63-1.11,16.54-.18,22.41,5.3,.76,.71,2.09,.83,2.83,0,4.93-5.52,13-8.45,20.22-9.02s16.43-.07,21.99,5.56v-2.83c-6.74,6.73-13.83,13.19-20.94,19.54-1.93,1.72,.91,4.54,2.83,2.83,7.11-6.34,14.2-12.81,20.94-19.54,.77-.77,.76-2.06,0-2.83-6.33-6.4-16.31-7.4-24.82-6.73s-17.41,3.87-23.05,10.19h2.83c-5.14-4.79-12.26-6.78-19.16-6.86-7.26-.08-15.3,1.55-21.54,5.4-3.16,1.95-5.67,4.67-7.41,7.95-.39,.74-.37,1.83,.31,2.42,3.6,3.13,7.57,5.87,11.4,8.7,2.26,1.67,4.52,3.33,6.77,5,.9,.67,1.8,1.33,2.7,2.01,.36,.27,.72,.54,1.08,.81,.08,.06,.65,.5,.23,.17,.14,.11,.28,.22,.42,.33,.85,.67,2,.83,2.83,0,.7-.7,.85-2.15,0-2.83h0Z"/>
          <path class="cls-8" d="M262.86,182.07c.41,.31-.06-.06-.14-.13-.18-.16-.37-.32-.56-.48-.43-.38-.85-.76-1.27-1.15-.63-.58-1.3-1.16-1.84-1.82v2.83c5.2-6.67,13.02-10.47,21.19-12.04,7.7-1.48,16.62-.95,23.25,3.63,.7,.48,1.86,.3,2.42-.31,2.58-2.79,6.2-4.36,9.76-5.52,4.07-1.32,8.1-2.05,12.39-2.06,4.04,0,8.25,.24,12.21,1.08,3.5,.73,6.43,2.44,9.27,4.57l-.4-3.14c-1.41,1.48-2.84,2.95-4.31,4.36-1.86,1.78,.97,4.61,2.83,2.83,1.48-1.41,2.91-2.88,4.31-4.36,.97-1.02,.63-2.36-.4-3.14-2.49-1.87-5.14-3.49-8.12-4.43s-6.13-1.2-9.2-1.47c-7.43-.65-14.61-.04-21.61,2.61-3.51,1.32-6.96,3.06-9.54,5.85l2.42-.31c-7.39-5.1-17.3-5.67-25.88-4.11s-17.75,5.9-23.41,13.15c-.72,.93-.75,1.9,0,2.83,1.28,1.58,3.02,2.98,4.63,4.21,.86,.66,2.24,.13,2.74-.72,.6-1.03,.14-2.08-.72-2.74h0Z"/>
          <path class="cls-8" d="M288.28,188.18c-2.17-1.06-4.59-1.05-6.56,.46-1.56,1.19-2.34,2.81-2.26,4.79s.9,3.57,2.05,5.11,2.42,3.06,3.71,4.53c1.37,1.57,2.78,3.12,4.22,4.64,1.77,1.88,4.6-.96,2.83-2.83-1.33-1.4-2.63-2.83-3.91-4.28-.72-.81-1.42-1.63-2.11-2.47-.32-.38-.63-.77-.94-1.16-.25-.32,.09,.12-.17-.22-.13-.17-.26-.34-.38-.51-.35-.48-.75-1-1-1.54-.23-.49-.29-1.01-.29-1.5,0-.07,.03-.69,0-.34,0-.07,.17-.69,.05-.33s.11-.15,.14-.22c.17-.35-.24,.21,.07-.09,.17-.16,.32-.33,.5-.48-.28,.21,.14-.06,.21-.11,.35-.22-.14,0,.24-.12,.13-.04,.26-.08,.39-.11-.19,.01-.16,0,.1,0,.46,0,.65,.01,1.12,.24,.97,.47,2.16,.26,2.74-.72,.51-.88,.26-2.26-.72-2.74h0Z"/>
          <path class="cls-8" d="M304.2,194.79c-1.78-1.92-3.51-3.89-5.27-5.82-.87-.95-1.75-1.91-2.65-2.83-.71-.73-1.43-1.54-2.3-2.09-2.75-1.75-6.59-1.45-8.39,1.49-.89,1.45-.9,3.22-.13,4.71,.72,1.39,1.77,2.54,2.76,3.76,1.56,1.92,3.23,3.68,4.99,5.41s4.67-1.02,2.83-2.83c-1.39-1.37-2.77-2.74-4.02-4.23-.64-.77-1.26-1.55-1.9-2.32-.39-.47-.69-.9-.98-1.43-.05-.1-.12-.19-.17-.28-.16-.3,.06,.21-.04-.1-.02-.05-.1-.45-.06-.22,.04,.21,.05-.32,0,.02,.02-.12,.06-.27,.11-.38-.11,.26,.06-.06,.08-.08-.15,.16,.11-.13,.11-.13,.11-.12,.24-.24,.36-.34-.11,.09,.39-.19,.18-.09-.08,.04-.28,.12,.12-.03,.05-.02,.38-.06,.09-.03,.17-.02,.35,0,.52,0,.34,.01-.25-.06,.08,0,.1,.02,.2,.04,.3,.07,.25,.06,.49,.14,.73,.24-.36-.14,.15,.09,.26,.15,.07,.04,.15,.1,.22,.13,.31,.15-.28-.3-.12-.09,.55,.7,1.34,1.29,1.96,1.94,.79,.82,1.56,1.66,2.33,2.5,1.74,1.91,3.45,3.84,5.2,5.74,.73,.79,2.09,.74,2.83,0,.79-.79,.73-2.03,0-2.83h0Z"/>
          <path class="cls-8" d="M320,191c1.02-.72,2.09-1.35,3.22-1.88,.7-.32,1.83-.9,2.61-.64,.54,.18,.75,1.02,.8,1.54,.1,1.06-.46,2.24-.97,3.13-.48,.83-1.2,1.52-1.86,2.21-.76,.82-1.48,1.67-2.19,2.53-1.43,1.74-2.85,3.53-4.71,4.84-.88,.62-1.3,1.75-.72,2.74,.51,.87,1.85,1.35,2.74,.72,2.5-1.77,4.32-4.06,6.27-6.38,.85-1.01,1.79-1.94,2.65-2.95,1.07-1.24,1.83-2.6,2.36-4.15,1-2.98,.11-7.14-3.3-8.08-3.04-.83-6.53,1.24-8.92,2.91-.88,.62-1.29,1.75-.72,2.74,.51,.87,1.85,1.34,2.74,.72h0Z"/>
        </g>
        <g id="face">
          <path class="cls-8" d="M249.21,86.45c2.13,1.12,4.42,1.6,6.82,1.58s4.95-.52,6.94-2.07c.83-.65,.73-2.16,0-2.83-.88-.81-1.94-.69-2.83,0,.62-.48,.19-.15,.04-.05-.13,.09-.27,.17-.41,.24-.19,.1-.65,.21-.09,.06-.19,.05-.38,.15-.57,.21-.52,.17-1.06,.28-1.6,.36,.3-.05,.11-.01-.08,0-.16,.02-.31,.03-.47,.04-.38,.02-.76,.03-1.14,.03-.34,0-.68-.01-1.02-.04-.16-.01-.31-.02-.47-.04-.07,0-.64-.11-.16-.01-.5-.1-1-.18-1.49-.33-.21-.06-.41-.14-.62-.21-.49-.17,.36,.18-.08-.03-.26-.12-.51-.25-.76-.38-.92-.49-2.22-.27-2.74,.72-.49,.92-.27,2.21,.72,2.74h0Z"/>
          <path class="cls-8" d="M254.9,70.53c.29,1.11,.57,2.24,.74,3.38l-.07-.53c.02,.16,.03,.31,.01,.47l.07-.53c-.01,.07-.03,.14-.05,.21l.2-.48s-.04,.09-.07,.13l.31-.4s-.07,.07-.11,.11l.4-.31c-.09,.05-.18,.1-.27,.14l.48-.2c-.15,.06-.29,.11-.45,.13l.53-.07c-.14,.02-.28,.02-.42,0l.53,.07c-.16-.02-.32-.06-.48-.08-.27-.08-.53-.1-.8-.04-.27,.01-.51,.09-.74,.24-.41,.24-.81,.72-.92,1.2-.12,.51-.09,1.09,.2,1.54,.26,.4,.7,.85,1.2,.92,.39,.05,.76,.15,1.16,.17,.62,.03,1.19-.16,1.74-.42,.68-.32,1.22-.95,1.4-1.68,.15-.63,.09-1.15-.02-1.78-.18-1.09-.44-2.17-.72-3.24-.13-.48-.49-.94-.92-1.2s-1.06-.36-1.54-.2c-1.04,.34-1.68,1.38-1.4,2.46h0Z"/>
          <path class="cls-8" d="M237.28,60.89c-.56,1.83-.2,6.05,3.28,6.41,4.59-.03,4.84-5.13,3.29-7.53-1.27-1.96-4.99-2.78-6.57,1.11Z"/>
          <path class="cls-8" d="M274.06,60.89c.56,1.83,.2,6.05-3.28,6.41-4.59-.03-4.84-5.13-3.29-7.53,1.27-1.96,4.99-2.78,6.57,1.12Z"/>
        </g>
      </g>
      <path class="cls-1" d="M8.05,245.1c-3.37-3.35-5.45-7.99-5.47-13.11,0-4.64-.02-9.96,.02-15.83,26.14,0,335.58-.3,340.76-.59h.36c.03,5.97,.03,11.41,.03,16.14,0,10.24-8.28,18.53-18.52,18.55-60.77,.1-244.79,.48-304.17,.25-5.08-.02-9.67-2.08-13.01-5.4Z"/>
      <path class="cls-8" d="M2.62,218.15c5.06,0,10.13,0,15.19,0,9.37,0,18.74-.01,28.1-.02,12.58-.01,25.16-.02,37.74-.04,14.7-.02,29.4-.03,44.1-.05,15.79-.02,31.57-.04,47.36-.06s31.32-.04,46.98-.07c14.5-.02,29-.05,43.5-.07,12.25-.02,24.5-.05,36.75-.08,8.91-.02,17.81-.05,26.72-.08,4.47-.02,8.94-.01,13.41-.09,.29,0,.59,0,.88-.02,2.56-.14,2.58-4.14,0-4-3.21,.18-6.45,.07-9.66,.09-7.92,.04-15.85,.06-23.77,.08-11.53,.03-23.07,.06-34.6,.08-14.05,.03-28.1,.05-42.15,.08-15.54,.03-31.08,.05-46.61,.07s-31.62,.04-47.44,.06c-15.05,.02-30.1,.04-45.15,.05-13.2,.01-26.4,.03-39.59,.04-10.25,0-20.51,.02-30.76,.03-6.22,0-12.43,0-18.65,.01-.78,0-1.56,0-2.34,0-2.57,0-2.58,4,0,4h0Z"/>
      <path class="cls-8" d="M179.33,233.47c0,3.49-2.61,6.05-6.34,6.05-4.27,0-6.48-2.92-6.48-6.05,0-2.81,2.06-6.23,6.23-6.23,3.88,0,6.59,3.13,6.59,6.23Z"/>
      <path class="cls-8" d="M217.81,19.68c-28.33,0-56.66,0-84.99,0-4.74,0-9.49,0-14.23,0-2.57,0-2.58,4,0,4,24.08,0,48.16,0,72.24,0,9,0,17.99,0,26.99,0,2.57,0,2.58-4,0-4h0Z"/>
      <path class="cls-8" d="M345.71,164.62c-.02-28.64-.04-57.29-.05-85.93,0-11.19-.01-22.37-.02-33.56,0-2.32,.13-4.69-.12-7-.31-2.81-1.14-5.52-2.53-7.99-2.73-4.86-7.51-8.52-12.93-9.85-4.55-1.12-9.61-.61-14.27-.61-7.51,0-15.02,0-22.53,0-2.57,0-2.58,4,0,4,10.61,0,21.22-.09,31.83,0,5.14,.05,10.08,2.41,13.2,6.54,1.51,1.99,2.52,4.3,3.03,6.74,.48,2.29,.32,4.69,.32,7.02,.01,24.06,.03,48.12,.05,72.18,.01,16.15,.02,32.3,.03,48.44,0,2.57,4,2.58,4,0h0Z"/>
      <path class="cls-8" d="M121.85,19.65c-31.83,0-63.66-.01-95.5-.02-6.05,0-11.86-.1-17.1,3.45C3.72,26.83,.28,33.04,.11,39.74c-.26,10.36,.04,20.76,.06,31.12,.06,26.44,.14,52.88,.21,79.33,.06,24.26,.13,48.52,.19,72.78,.01,4.93-.55,10.3,.93,15.05,1.96,6.28,6.89,11.3,13.11,13.43,4.18,1.43,8.72,1.07,13.07,1.08,3.87,.01,7.74,.02,11.61,.03,20.39,.03,40.79,.03,61.18,.02,24.96-.01,49.92-.04,74.88-.07s49.58-.07,74.37-.11c20.11-.03,40.22-.07,60.33-.11,3.77,0,7.54-.01,11.31-.02,5.43,0,10.58-.3,15.24-3.46,5.39-3.65,8.8-9.63,9.12-16.15,.37-7.46,.02-15.04,.01-22.51,0-8.7,0-17.39-.01-26.09,0-2.57-4-2.58-4,0,0,8.9,.01,17.8,.01,26.69,0,7.13,.2,14.3,0,21.43-.18,6.34-4.09,12.14-9.89,14.7-4.08,1.8-8.63,1.38-12.99,1.39-18.3,.03-36.6,.07-54.9,.1-23.66,.04-47.32,.08-70.99,.11s-49.54,.06-74.31,.08c-21.58,.02-43.15,.02-64.73,0-8.25,0-16.5-.02-24.74-.04-3.75,0-7.88,.42-11.55-.39-6.08-1.34-10.98-6.02-12.54-12.06-.65-2.51-.52-5.09-.53-7.65,0-2.27-.01-4.54-.02-6.81-.01-5.05-.02-10.09-.04-15.14-.03-12.07-.06-24.15-.09-36.22-.07-26.56-.14-53.12-.21-79.67-.03-11.65-.06-23.3-.08-34.95-.01-4.73-.02-9.46-.03-14.18-.01-6.18,2.33-11.9,7.74-15.28,5.02-3.14,10.82-2.54,16.48-2.54,6.42,0,12.83,0,19.25,0,16.37,0,32.74,0,49.11,0,8.39,0,16.78,0,25.17,0,2.57,0,2.58-4,0-4h0Z"/>
    </g>
  </g>
</svg>