<?xml version="1.0" encoding="UTF-8"?>
<svg id="_レイヤー_2" data-name="レイヤー 2" xmlns="http://www.w3.org/2000/svg" xmlns:xlink="http://www.w3.org/1999/xlink" viewBox="0 0 500 352.42">
  <defs>
    <style>
      .cls-1 {
        font-size: 10.39px;
        letter-spacing: .04em;
      }

      .cls-1, .cls-2, .cls-3, .cls-4, .cls-5 {
        font-family: KozGoPr6N-Regular-90ms-RKSJ-H, 'Kozuka Gothic Pr6N';
      }

      .cls-1, .cls-2, .cls-3, .cls-4, .cls-5, .cls-6 {
        fill: #231815;
      }

      .cls-2, .cls-7 {
        letter-spacing: .04em;
      }

      .cls-2, .cls-5 {
        font-size: 8.43px;
      }

      .cls-8 {
        stroke-width: 2.16px;
      }

      .cls-8, .cls-9, .cls-10 {
        fill: #fff;
      }

      .cls-8, .cls-9, .cls-10, .cls-11 {
        stroke: #231815;
        stroke-miterlimit: 10;
      }

      .cls-12 {
        letter-spacing: .05em;
      }

      .cls-3 {
        font-size: 22.86px;
        letter-spacing: .04em;
      }

      .cls-13 {
        fill: #5c5d5d;
      }

      .cls-4 {
        font-size: 10.88px;
        letter-spacing: .05em;
      }

      .cls-14 {
        clip-path: url(#clippath);
      }

      .cls-15, .cls-11 {
        fill: none;
      }

      .cls-16 {
        letter-spacing: -.46em;
      }

      .cls-9 {
        stroke-width: 2.46px;
      }

      .cls-17 {
        letter-spacing: -.21em;
      }

      .cls-10, .cls-11 {
        stroke-width: 1.73px;
      }

      .cls-18 {
        fill: #919191;
      }
    </style>
    <clipPath id="clippath">
      <rect class="cls-15" width="500" height="352.42"/>
    </clipPath>
  </defs>
  <g id="_書類" data-name="書類">
    <g class="cls-14">
      <g id="_記入欄" data-name="記入欄">
        <rect id="_かげ" data-name="かげ" class="cls-13" x="42.7" y="36.3" width="511" height="641.26"/>
        <rect id="_用紙" data-name="用紙" class="cls-8" x="51.7" y="32.3" width="511" height="641.26"/>
        <g id="_書き込み欄" data-name="書き込み欄">
          <g id="_下部" data-name="下部">
            <rect class="cls-9" x="88.72" y="299.62" width="395.02" height="333.75"/>
            <g>
              <g>
                <line class="cls-11" x1="87.8" y1="341.26" x2="482.82" y2="341.26"/>
                <line class="cls-11" x1="89.44" y1="320.03" x2="484.45" y2="320.03"/>
              </g>
              <g>
                <line class="cls-11" x1="152.53" y1="299.62" x2="152.53" y2="633.37"/>
                <line class="cls-11" x1="178.52" y1="299.62" x2="178.52" y2="633.37"/>
              </g>
              <g>
                <text class="cls-4" transform="translate(115.19 314.09) scale(1.18 1)"><tspan x="0" y="0" xml:space="preserve">   年      月</tspan></text>
                <text class="cls-4" transform="translate(280.84 314.09) scale(1.18 1)"><tspan x="0" y="0">学歴・職歴</tspan></text>
                <text class="cls-4" transform="translate(299.37 333.86) scale(1.18 1)"><tspan x="0" y="0">学歴</tspan></text>
              </g>
            </g>
          </g>
          <g id="_上部" data-name="上部">
            <g>
              <rect class="cls-9" x="89.06" y="188.93" width="394.68" height="95.66"/>
              <line class="cls-11" x1="88.72" y1="204.52" x2="483.74" y2="204.52"/>
              <text class="cls-4" transform="translate(96.8 224.3) scale(1.18 1)"><tspan x="0" y="0">現 住 所 〒</tspan></text>
              <text class="cls-1" transform="translate(135.8 277.16) scale(1.18 1)"><tspan x="0" y="0" xml:space="preserve">電話                                    携帯電話  </tspan></text>
              <line class="cls-11" x1="89.06" y1="260.97" x2="483.74" y2="260.97"/>
            </g>
            <g>
              <text class="cls-2" transform="translate(96.8 104.3) scale(1.18 1)"><tspan x="0" y="0">ふりがな</tspan></text>
              <text class="cls-2" transform="translate(96.8 121.64) scale(1.18 1)"><tspan x="0" y="0">氏　　名</tspan></text>
              <g>
                <g id="_文字" data-name="文字">
                  <text class="cls-3" transform="translate(96.8 85.73) scale(1.18 1)"><tspan x="0" y="0" xml:space="preserve">履  歴  書</tspan></text>
                </g>
                <text class="cls-2" transform="translate(238.2 85.73) scale(1.18 1)"><tspan x="0" y="0">平成　年　月　日現在</tspan></text>
              </g>
              <g>
                <rect class="cls-9" x="89.06" y="93.27" width="258.19" height="95.66"/>
                <line class="cls-9" x1="89.06" y1="148.9" x2="347.25" y2="148.9"/>
                <line class="cls-10" x1="89.06" y1="109.28" x2="347.25" y2="109.28"/>
                <line class="cls-9" x1="286.4" y1="148.9" x2="286.4" y2="188.93"/>
              </g>
              <text class="cls-5" transform="translate(115.19 169.73) scale(1.18 1)"><tspan class="cls-7" x="0" y="0" xml:space="preserve">  年     月      日     生（満      歳</tspan><tspan class="cls-16" x="117.85" y="0">）</tspan></text>
              <text class="cls-5" transform="translate(299.37 162.96) scale(1.18 1)"><tspan class="cls-12"><tspan x="0" y="0" xml:space="preserve">  性別</tspan></tspan><tspan class="cls-12" x="0" y="14.75">男</tspan><tspan class="cls-17" x="8.81" y="14.75"> </tspan><tspan class="cls-12" x="9.04" y="14.75">・女</tspan></text>
            </g>
            <rect id="_写真" data-name="写真" class="cls-10" x="371.48" y="62.24" width="89.27" height="113.14"/>
          </g>
        </g>
      </g>
      <g id="_ボールペン" data-name="ボールペン">
        <polygon id="_かげ-2" data-name="かげ" class="cls-18" points="591.96 444.88 576.2 462.16 353.4 258.89 338.8 228.31 369.16 241.61 591.96 444.88"/>
        <polygon id="_ペン" data-name="ペン" class="cls-6" points="588.77 434.21 365.97 230.93 350.2 248.21 573 451.49 577.93 446.09 577.93 446.09 583.84 439.61 583.84 439.61 588.77 434.21"/>
        <g id="_先端" data-name="先端">
          <path id="_芯" data-name="芯" class="cls-6" d="M331.13,216.33l4.12,6.24c.39,.59,1.24,.66,1.71,.13l2.47-2.7c.48-.52,.34-1.36-.29-1.69l-6.59-3.54c-1-.54-2.05,.62-1.42,1.56Z"/>
          <polygon id="_ペン先" data-name="ペン先" class="cls-13" points="365.97 230.93 340.59 217.29 334.29 224.19 350.2 248.21 365.97 230.93"/>
        </g>
      </g>
    </g>
  </g>
</svg>