<?xml version="1.0" encoding="UTF-8"?>
<svg id="_レイヤー_2" data-name="レイヤー 2" xmlns="http://www.w3.org/2000/svg" viewBox="0 0 355.1 425.1">
  <defs>
    <style>
      .cls-1 {
        fill: #fff;
      }

      .cls-2 {
        fill: #f4b3b3;
      }

      .cls-3 {
        fill: #a0a0a0;
      }

      .cls-4 {
        fill: #7a7473;
      }

      .cls-5 {
        fill: #211715;
      }

      .cls-6 {
        fill: #b5886a;
      }
    </style>
  </defs>
  <g id="layer">
    <g id="man">
      <path class="cls-1" d="M245.01,222.25c.16-.68,.29-1.38,.39-2.11,.34-2.27-1.02-4.21-1.98-4.8l-8.86-11.48s-.13-.17-.26-.34c-2.93,.92-5.8,2.03-8.59,3.32l-5.62-3.55c-1.87,2.22-8.97,10.67-11.51,13.68,2.92,2.29,6.09,4.78,6.09,4.78,.84,.78,1.16,1.09,1.99,1.87,1.25,1.48,5.81,6.69,9.16,9.3,1.46,1.18,2.97,2.38,4.77,3,1.8,.62,4.5,1.01,5.93-.2,.62-.52,1.97-2.05,2.51-2.64,.62-.65,1.19-1.31,1.7-1.97,.27-.34,.54-.68,.78-1.02,1.71-2.41,2.83-4.95,3.49-7.84Z"/>
      <path class="cls-3" d="M283.75,218.21c-15.6,4.68-31.38,8.81-41.78,11.25,0,0-2.09,.49-4.17,.98l-.71,5.25c-1.48,10.96-3.85,47.41-4.74,57.85,0,0-6.31,67.24-7.3,89.38-.02,.47,.29,.89,.75,1,4.87,1.18,17.86,2.61,25.59,2.95,.5,.02,.94-.33,1.02-.83,4.8-27.29,9.53-55.61,12.46-78.56,1.95-15.33,7.88-48.6,8.74-52.52,.29-1.33,.68-2.03,1.29-3.25,.42-.85,.94-1.71,1.55-2.55,.48,1.78,.78,2.92,.78,2.92,1.77,6.67,10.24,34.36,14.23,57.78,3.44,20.78,10.7,65.69,12.32,76.88,.07,.5,.51,.87,1.01,.85,6.97-.24,18.43-1.54,25.18-2.96,.48-.1,.81-.52,.79-1.01-.95-25.93-6.54-68.15-8.33-91.75-2.51-33.13-5.57-57.87-9.51-83.36-8.57,3.26-18.83,6.61-29.17,9.71Z"/>
      <path class="cls-1" d="M195.1,2.45c-2.41,.48-5.6,1.68-5.62,5.18-.14,1.77,2,3.15,3.31,3.84,2.05,1.08,4.88,1.54,7.07,2.19,3.15,.93,5.39,1.94,7.84,3.49,.7,.44,.4,1.53-.43,1.54-.42,0-.86,.02-1.34,.06-1.33,.11-2.75,.93-3.15,2.15-.29,.91,.22,2,.99,2.67s1.73,1,2.68,1.29c3.26,1,7.44,2.06,11.31,2.14,1.99,.04,3.87,.92,5.25,2.35,.84,.88,1.34,1.68,2.52,3.07l.54,.64c2.78-2.07,6.27-4.66,9.43-6.84l-3.33-4.86c-1.78-2.52-2.78-3.85-4.93-5.75-2.89-3.08-7.57-7.28-9.71-8.3-4.35-2.07-8.79-4.11-13.42-4.9-2.58-.44-5.2-.5-7.72-.16-.38,.05-.81,.12-1.28,.21Z"/>
      <path class="cls-1" d="M313.63,208.23c-2.94-18.64-8.43-42.02-11.49-53.18-4.9-17.83-13.71-41.79-18.75-53.35-12.55-30.88-30.72-63.13-43.24-77.53-.32-.37-.86-.45-1.27-.19-4.82,3.03-11.74,8.31-15.48,11.06-.43,.31-.53,.89-.25,1.34,2.2,3.42,6.39,9.29,10.22,15.25,5.48,8.53,9.62,17.96,12.39,27.72,2.78,9.75,4.51,20.43,.88,29.9-4.06,10.92-7.51,15.39-18.65,18.16-4.97,1.24-13.37-.17-18.37-1.23-1.96,.85-3.55,1.82-4.83,2.98-7.11,6.47-11.78,12.88-17.11,23.91-2.44,4.63-7.67,18.78-9.37,25.16-.72,2.72-1.53,5.54-.99,8.31,.55,2.83,3.11,6.72,4.95,8.95,8.97,10.84,16.4,16.52,24.03,22.71,.42,.34,1.05,.29,1.4-.13l12.86-15.3c.34-.41,.3-1.01-.09-1.37-5.88-5.46-11.2-11.05-17.67-17.59-.89-.9-1.73-1.99-1.82-3.26-.08-1.11,.46-2.16,.99-3.13,2.62-4.86,7.65-12.92,10.27-17.78,5.44,6.17,12.86,15.71,18,21.93,2.25,2.72,3.19,4.2,4.5,6.09,.91,1.3,1.16,3.77,1.13,5.32-.04,1.79-.07,5.45-.09,8.59-.05,8.23-.09,19.02-.29,24.68l-.16,4.72c.14-.03,.28-.06,.28-.06,14.49-3.04,53.33-13.19,77.85-22.59"/>
      <path class="cls-1" d="M332.75,419.82c-1.27-.64-2.5-1.34-3.68-2.06-3.24-1.98-6.26-3.79-10.12-6.08-5.08-3.02-10.04-4.13-9.74-10.79,.24-5.24,1.52-8.55-.05-13.55,5.8-.42,12.93-1.27,18.3-2.23,.6,4.54,2.97,7.39,6.22,10.44,4.26,4,8.52,8,12.79,11.99,2.83,2.66,7.83,6.37,6.47,10.96-.29,.99-.71,2.11-1.61,2.65-5.78,3.45-12.54,1.71-18.56-1.33Z"/>
      <path class="cls-1" d="M226.49,419.26c-6.27,3.38-13.49,5.54-19.62,1.89-.91-.54-1.32-1.66-1.61-2.65-1.36-4.59,3.63-8.3,6.47-10.96,4.26-4,8.52-8,12.79-11.99,3.32-3.12,5.72-6.02,6.27-10.74v-.11c5.15,.81,12.61,1.61,18.47,2-1.9,5.37-.52,8.74-.27,14.19,.3,6.66-4.66,7.77-9.74,10.79-3.86,2.29-6.88,4.11-10.12,6.08-.85,.52-1.72,1.02-2.62,1.5Z"/>
      <path class="cls-5" d="M247.45,385.78c-1.32,3.67-1.28,7.25-.84,11.06,.32,2.75,1.12,6.3-1,8.55-1.82,1.93-4.53,2.92-6.8,4.21-3.44,1.96-6.81,4.04-10.18,6.1s-6.72,3.86-10.5,4.8c-1.74,.43-3.51,.64-5.3,.5-1.53-.11-3.87-.54-5.03-1.65-.84-.8-.93-2.49-.61-3.53,.42-1.37,1.4-2.53,2.38-3.55,2.47-2.57,5.23-4.89,7.82-7.33,3.47-3.25,7.15-6.38,10.4-9.86,2.76-2.96,4.46-6.27,4.98-10.29,.14-1.07-1.02-2-2-2-1.2,0-1.86,.92-2,2-.45,3.53-2.51,6.25-4.99,8.66-3.37,3.28-6.86,6.44-10.29,9.66-2.67,2.5-5.72,4.88-8,7.75s-3.26,6.47-1.48,9.96c.97,1.9,3.02,2.8,4.95,3.44s4.04,.86,6.06,.73c4.14-.26,8.09-1.76,11.75-3.65s7.35-4.32,10.99-6.5c2.92-1.74,6.16-3.16,8.91-5.15,3.21-2.34,4.5-5.58,4.25-9.51-.14-2.21-.52-4.39-.64-6.6-.13-2.36,.21-4.54,1.01-6.76,.88-2.43-2.99-3.47-3.86-1.06h0Z"/>
      <path class="cls-5" d="M325.51,385.63c1.12,7.6,7.9,12.42,13.14,17.33,2.82,2.64,5.65,5.27,8.48,7.9,1.74,1.61,4.4,3.94,3.98,6.61-.09,.55-.28,1.39-.68,1.83-.51,.57-1.58,.9-2.29,1.13-1.69,.56-3.43,.71-5.2,.57-3.69-.28-7.26-1.84-10.47-3.59s-6.57-3.92-9.85-5.88c-2.72-1.62-5.6-3-8.27-4.7-1.07-.68-2.09-1.52-2.64-2.69-.71-1.51-.53-3.25-.39-4.85,.36-4.28,1.03-8.26-.24-12.48-.74-2.46-4.6-1.41-3.86,1.06,1.2,3.98,.36,7.82,.06,11.86-.25,3.36,.35,6.61,2.95,8.97,2.36,2.14,5.43,3.35,8.14,4.95,3.6,2.14,7.16,4.37,10.78,6.48,6.66,3.88,16.16,7.48,23.31,2.64,3.17-2.15,3.21-6.91,1.54-9.96s-4.43-5.08-6.84-7.35c-3.91-3.66-7.82-7.33-11.72-11-3.02-2.83-5.45-5.68-6.07-9.9-.16-1.07-1.51-1.66-2.46-1.4-1.15,.32-1.55,1.39-1.4,2.46h0Z"/>
      <path class="cls-1" d="M228.77,60.59c-.09,.13-.17,.27-.25,.42,0,0-16.68-26.94-41.27-10.35-25.2,17.01-5.04,42.8-5.04,42.8-1.12-.17-2.22,.21-3,.78-1.71,1.22-1.85,2.62-1.82,3.36,.1,2.21,2.08,5.09,3.92,6.46,1.3,.97,3.35,2.42,6.07,2.62,1.2,.09,2.65-.31,3.58-1.31,5.32,3.87,8.06,4.92,14.36,6.29,2.07,.45,6.05,.27,8.98-.62,.25,.56,.49,1.14,.74,1.76,.79,2.02,1.4,5.2,.63,7.2-.81,2.1-2.59,4.61-5.68,6.29,0,0,12.82,15.62,31.05,3.62,18.22-12,7.38-26.3,7.38-26.3-2.37,.29-5.52,.56-7.41,.56-2.74,0-4.23-.91-5.5-2.41-1.29-1.52-2.47-3.11-3.51-4.81,4.37-6.19,4.5-14.79,1.51-22,1.5-.34,2.26-1.37,2.84-2.34,1.4-2.34,1.42-4.64,1.37-6.26-.06-2.3-1.28-5.57-3.04-6.92-.59-.45-1.81-1.14-3.8-.44-.78,.27-1.58,.81-2.12,1.59Z"/>
      <path class="cls-4" d="M214.91,41.07c-2.62-1.3-5.3-2.06-7.98-2.48l-6.73-.04c-5.67-.01-10.72,1.19-16.56,4.94-6.13,3.94-10.16,9.11-12.36,14.85-2.55,6.66-3.96,16.52,2.18,27.05,1.62,2.78,4.04,5.67,7,8.23,.55-.18,1.15-.25,1.76-.15l.13,.02c.64-3.88,1.29-7.76,1.29-7.76,.76-4.58,2.59-11.91,4.75-15.66,.25-.44,.91-.48,1.47,.06s.83,.99,1.07,1.46c.35,.72,1.31,.79,1.67,.13,1.5-2.75,3.97-7.96,6.11-11.05,3.11-4.52,8.55-3.26,10.92-2.92,3.11,.45,6.25,1.33,9.06,2.75,2.77,1.4,6.89,2.39,9.85,.51,.34-.68,.88-1.22,1.48-1.59-1.5-4.5-1.84-5.31-3.96-8.33-3.52-5-7.27-8.1-11.13-10.02Z"/>
      <path class="cls-5" d="M248.57,109.78c3.85-10.27,1.87-21.61-1.12-31.82s-7.62-20.14-13.53-29.16c-1.68-2.57-3.41-5.1-5.14-7.64-.74-1.08-1.48-2.16-2.21-3.25-.61-.9-1.36-1.82-1.8-2.81l.27,1.01c-.5,.54-.56,.66-.18,.35,.12-.09,.23-.17,.35-.26,.29-.21,.57-.42,.85-.63,.54-.4,1.07-.8,1.61-1.2,1.36-1.01,2.72-2.02,4.09-3.02s2.75-1.99,4.14-2.96c.66-.46,1.33-.92,2-1.37,.29-.2,.59-.39,.88-.59,.19-.12,.38-.25,.57-.37,.37-.16,.38-.23,.01-.19l-.88-.51c1.48,1.19,2.67,3.07,3.82,4.58,1.39,1.82,2.73,3.68,4.03,5.56,3.05,4.41,5.92,8.94,8.68,13.54,6.38,10.66,12.18,21.68,17.51,32.91,3.17,6.68,6.17,13.44,8.96,20.28,.41,1,1.33,1.71,2.46,1.4,.95-.26,1.81-1.45,1.4-2.46-5.28-12.97-11.24-25.68-17.81-38.05-5.68-10.7-11.78-21.25-18.79-31.14-1.41-1.99-2.86-3.94-4.37-5.86-1.34-1.71-3.1-4.84-5.67-4.2-1.2,.3-2.41,1.37-3.42,2.05-1.27,.86-2.53,1.75-3.78,2.65-2.33,1.67-4.63,3.39-6.93,5.1-.9,.67-2.01,1.3-2.78,2.13-1.23,1.33-.74,2.94,.13,4.28,1.68,2.56,3.43,5.07,5.15,7.6,4,5.89,7.83,11.83,10.87,18.28,3.3,7,5.83,14.43,7.46,22s2.08,15.4-.67,22.71c-.38,1.01,.42,2.19,1.4,2.46,1.12,.31,2.08-.38,2.46-1.4h0Z"/>
      <path class="cls-5" d="M281.67,102.71c5.55,12.76,10.19,25.98,14.45,39.21s7.56,26.68,10.51,40.24c1.92,8.82,3.67,17.68,5.08,26.6,.17,1.07,1.5,1.66,2.46,1.4,1.14-.31,1.57-1.39,1.4-2.46-2.42-15.29-5.72-30.46-9.48-45.47-3.5-13.97-7.99-27.67-12.94-41.19-2.51-6.84-5.11-13.66-8.02-20.35-.43-.99-1.88-1.22-2.74-.72-1.02,.6-1.15,1.74-.72,2.74h0Z"/>
      <path class="cls-5" d="M310.99,209.02c3.73,24.14,6.6,48.38,8.63,72.72,.9,10.75,1.77,21.48,2.88,32.21,1.18,11.43,2.44,22.85,3.56,34.28,.62,6.31,1.21,12.62,1.7,18.94,.23,2.91,.44,5.83,.61,8.74,.08,1.31,.15,2.63,.22,3.94,.03,.63,.06,1.27,.09,1.9,.02,.54,.19,1.43,.01,1.86l.51-.88c.1-.12,.33-.07-.07,.02-.25,.05-.5,.1-.76,.15-.48,.09-.96,.18-1.44,.27-.98,.18-1.97,.34-2.95,.49-2.24,.35-4.48,.64-6.73,.9s-4.49,.48-6.74,.67c-1.94,.16-4.1,.53-6.03,.32l1.01,.27c.42,.18,.14,.59,.16,.13,0-.12-.04-.27-.06-.4-.03-.24-.07-.48-.11-.71-.09-.6-.18-1.19-.27-1.79-.22-1.47-.45-2.94-.68-4.42-.6-3.84-1.2-7.69-1.81-11.53-1.5-9.47-3.03-18.94-4.56-28.41-1.43-8.83-2.87-17.66-4.32-26.49-1.88-11.42-4.44-22.7-7.34-33.9-2.32-8.96-4.99-17.82-7.37-26.76-.66-2.49-4.52-1.43-3.86,1.06,2.38,8.94,5.05,17.8,7.37,26.76,3.09,11.97,5.71,24.02,7.72,36.22,3.32,20.17,6.59,40.35,9.76,60.54,.52,3.31,1.04,6.62,1.53,9.93,.1,.67,.14,1.37,.46,1.97,.88,1.64,2.61,1.57,4.21,1.49,2.93-.15,5.85-.4,8.76-.71,3.27-.34,6.53-.76,9.77-1.25,1.26-.19,2.53-.4,3.79-.64,1.56-.29,3.28-.51,3.89-2.23,.41-1.18,.14-2.64,.09-3.86-.06-1.3-.13-2.6-.21-3.9-.16-2.83-.36-5.66-.58-8.48-1.83-24.03-4.98-47.93-7.05-71.94-1.19-13.74-2.22-27.48-3.7-41.2-1.38-12.77-3.02-25.51-4.88-38.22-.45-3.04-.91-6.08-1.37-9.12-.16-1.07-1.51-1.66-2.46-1.4-1.14,.31-1.56,1.39-1.4,2.46h0Z"/>
      <path class="cls-5" d="M211.47,128.58c3.71,.69,7.49,1.25,11.26,1.3,3.35,.05,6.54-.59,9.69-1.7,5.02-1.77,9.14-4.73,11.97-9.28,1.76-2.84,3.01-6,4.17-9.12,.9-2.41-2.96-3.46-3.86-1.06-1.63,4.37-3.49,8.96-7.07,12.12s-9.04,4.93-13.72,5.04c-3.82,.09-7.64-.46-11.39-1.16-2.52-.47-3.59,3.39-1.06,3.86h0Z"/>
      <path class="cls-5" d="M210.81,161.04c3.55,4.03,6.92,8.22,10.29,12.4s6.75,8.01,9.81,12.22c1.24,1.71,2.6,3.31,2.86,5.46,.29,2.4,.04,4.94,.02,7.35-.05,5.66-.06,11.33-.12,16.99-.05,5.17-.18,10.32-.36,15.49-.05,1.37,1.31,2.19,2.53,1.93,.09-.02,.19-.04,.28-.06,2.52-.53,1.45-4.39-1.06-3.86-.09,.02-.19,.04-.28,.06l2.53,1.93c.36-10.38,.38-20.76,.46-31.15,.02-2.59,.19-5.21,.06-7.79-.06-1.3-.23-2.67-.68-3.89-.41-1.11-1.07-2.01-1.73-2.97-3.01-4.34-6.52-8.34-9.83-12.45-3.92-4.88-7.83-9.78-11.96-14.48-1.7-1.94-4.52,.9-2.83,2.83h0Z"/>
      <path class="cls-5" d="M188.52,106.05c2.22,1.67,4.5,3.32,7,4.56,2.22,1.1,4.56,1.86,6.97,2.45,4.79,1.18,10.52,1.35,14.95-1.2,2.23-1.28,.22-4.74-2.02-3.45-3.75,2.16-8.61,1.64-12.57,.62-4.68-1.21-8.47-3.56-12.31-6.44-.86-.65-2.24-.14-2.74,.72-.6,1.02-.15,2.09,.72,2.74h0Z"/>
      <path class="cls-5" d="M231.47,75.26c2.92,6.97,3.13,15.72-2.04,21.74-1.67,1.94,1.15,4.78,2.83,2.83,6.08-7.07,6.58-17.24,3.07-25.63-.42-1-1.32-1.71-2.46-1.4-.94,.26-1.82,1.46-1.4,2.46h0Z"/>
      <path class="cls-5" d="M182.21,91.46c-2.39-.29-4.97,1.18-6.12,3.27-.9,1.63-.87,3.54-.2,5.25,1.49,3.82,4.74,6.77,8.59,8.13,2.65,.94,5.53,.77,7.7-1.13,.81-.71,.73-2.1,0-2.83-.81-.81-2.01-.71-2.83,0-.18,.16-.21,.19-.09,.08-.12,.08-.24,.15-.36,.21-.22,.11-.25,.12-.09,.05-.13,.05-.26,.09-.39,.12-.07,.02-.61,.11-.26,.07-.26,.03-.51,.02-.77,0-.65-.02-1.97-.46-2.47-.71-.74-.37-1.44-.81-2.11-1.29-.16-.11-.32-.23-.48-.35,.34,.27-.23-.22-.29-.27-.34-.31-.64-.66-.95-1-.15-.19-.17-.21-.07-.08-.08-.11-.16-.22-.24-.33-.12-.17-.23-.34-.35-.52-.15-.23-.28-.47-.41-.71-.03-.06-.36-.74-.22-.43-.17-.4-.28-.82-.38-1.25-.04-.24-.04-.23,0,.02,0-.09-.01-.17-.01-.26,0-.1,.01-.21,0-.31,.02-.21,0-.15-.03,.18,.01-.09,.03-.17,.05-.26,.04-.13,.29-.63,.05-.22,.09-.15,.16-.3,.26-.44-.19,.29,.27-.28,.34-.35,.69-.63,1.19-.75,2.14-.64,1.04,.13,2.04-1.01,2-2-.05-1.19-.88-1.86-2-2h0Z"/>
      <path class="cls-5" d="M230.25,62.02c.35-.64,.88-1.05,1.46-1.19-.1,.02,.72-.14,.52-.12,.02,0,.7,0,.35-.03,.19,.02,.37,.09,.55,.14-.39-.11,0,0,.11,.06,.11,.07,.23,.14,.34,.22-.41-.29,.04,.06,.13,.15,.37,.37,.38,.4,.61,.77,.52,.83,.79,1.47,1.06,2.4,.13,.44,.23,.88,.3,1.33,.02,.14,.02,.14,0,0,.01,.1,.02,.21,.03,.31,0,.2,.02,.39,.02,.59,.02,.82-.01,1.74-.15,2.42-.2,1.01-.56,1.93-1.12,2.8-.37,.58-.67,.94-1.42,1.15-2.48,.69-1.43,4.55,1.06,3.86,2.95-.82,4.7-3.78,5.31-6.62,.53-2.48,.45-5.17-.39-7.57s-2.22-4.75-4.66-5.66c-2.77-1.03-6.18,.43-7.56,2.98-.51,.95-.24,2.18,.72,2.74s2.22,.24,2.74-.72h0Z"/>
      <path class="cls-5" d="M212.62,112.19c.51,1.16,.99,2.5,1.23,3.82,.22,1.18,.22,2.37-.12,3.47-.06,.18-.07,.17,0,0-.06,.14-.13,.27-.19,.41-.13,.25-.26,.5-.4,.75-.33,.57-.58,.92-.88,1.27-.97,1.14-2.01,1.96-3.29,2.67-2.25,1.25-.24,4.71,2.02,3.45,2.97-1.65,5.41-4.27,6.6-7.49,1.25-3.37-.16-7.27-1.51-10.37-.43-.99-1.88-1.22-2.74-.72-1.02,.6-1.15,1.74-.72,2.74h0Z"/>
      <path class="cls-5" d="M230.8,98.83c1.84,2.79,3.98,6.11,7.41,7.01,1.57,.42,3.21,.36,4.82,.27,1.72-.1,3.43-.26,5.14-.46,1.07-.13,2-.83,2-2,0-.98-.92-2.13-2-2-1.51,.18-3.02,.32-4.53,.42-1.27,.08-2.88,.22-3.94,.01-.31-.06-.61-.15-.92-.25-.11-.04-.26-.12-.07-.02-.14-.07-.28-.14-.42-.22-.11-.06-.21-.13-.32-.2s-.33-.26-.12-.08c-.21-.19-.42-.38-.62-.59-1.12-1.19-2.08-2.55-2.98-3.91-.59-.9-1.77-1.28-2.74-.72-.9,.52-1.31,1.83-.72,2.74h0Z"/>
      <path class="cls-5" d="M200.42,61.67c2.65-3.67,8.17-2.27,11.77-1.4,1.59,.38,3.17,.88,4.66,1.56,1.3,.59,2.56,1.24,3.94,1.64,2.9,.84,6.08,.84,8.74-.73,2.21-1.31,.2-4.77-2.02-3.45-2.35,1.39-5.35,.68-7.68-.44-3.16-1.53-6.39-2.52-9.86-3.05-1.99-.31-3.96-.61-5.98-.36-2.95,.37-5.3,1.81-7.04,4.22-.63,.88-.15,2.23,.72,2.74,1.01,.59,2.1,.16,2.74-.72h0Z"/>
      <path class="cls-5" d="M185.56,86.26c.45-2.68,1.06-5.34,1.8-7.95,.38-1.34,.8-2.67,1.28-3.98,.2-.54,.41-1.08,.64-1.61,.13-.29,.27-.58,.41-.86l.14-.27c.26-.39,.16-.37-.29,.07h-1.06c-.09-.25,0-.18,.26,.19,.12,.14,.22,.3,.31,.46,.21,.33,.34,.63,.62,.93,.6,.64,1.47,.96,2.33,.92,1.89-.1,2.58-1.89,3.32-3.34,1.6-3.09,3.14-6.26,5.11-9.14,1.45-2.13-2.01-4.13-3.45-2.02-1.27,1.86-2.34,3.84-3.39,5.82-.93,1.76-1.69,3.85-2.88,5.44l.72-.72c.37-.26,1.39,.96,1.08,.09-.07-.2-.25-.4-.38-.57-.38-.52-.8-1.02-1.34-1.38-.93-.62-2.13-.82-3.14-.23-1.55,.89-2.27,3.59-2.85,5.17-1.42,3.85-2.39,7.89-3.07,11.94-.18,1.06,.28,2.15,1.4,2.46,.96,.26,2.28-.33,2.46-1.4h0Z"/>
      <path class="cls-5" d="M200.2,36.55c-10.77,.03-20.98,5.55-27.21,14.33-5.38,7.59-7.2,17.7-4.92,26.7,1.64,6.47,5.27,12.19,10.14,16.71,1.88,1.75,4.72-1.07,2.83-2.83-7.11-6.6-11.15-16.12-9.64-25.87,1.31-8.46,6.05-15.74,13.25-20.38,4.76-3.06,9.89-4.65,15.56-4.67,2.57,0,2.58-4.01,0-4h0Z"/>
      <path class="cls-5" d="M231.53,57.69c-.84-2.46-1.79-4.75-3.26-6.89-1.83-2.67-3.89-5.22-6.33-7.36-3.99-3.48-8.75-5.76-13.96-6.69-1.06-.19-2.16,.29-2.46,1.4-.27,.97,.33,2.27,1.4,2.46,4.52,.81,8.71,2.62,12.2,5.67,2.15,1.88,3.99,4.06,5.61,6.41,1.33,1.92,2.2,3.86,2.95,6.07,.82,2.42,4.69,1.38,3.86-1.06h0Z"/>
      <path class="cls-5" d="M233.89,20.35c-2.22-3.14-4.77-5.81-7.54-8.48-2.31-2.23-4.85-4.77-7.73-6.25-7.49-3.86-16.29-7.08-24.77-4.93-2.93,.74-5.74,2.58-6.25,5.77-.65,4.05,2.85,6.42,6.24,7.63,3.64,1.3,7.43,1.8,10.89,3.64,.42,.22,.87,.58,1.32,.75,.6,.22,.21,.71,.57-.78,.3-1.21,.45-1.02-.44-.95-1.01,.08-1.98,.28-2.88,.78-1.76,.98-3,2.94-2.45,5,.62,2.35,2.74,3.54,4.9,4.23,2.28,.72,4.6,1.32,6.96,1.73,1.3,.23,2.62,.4,3.94,.49,1.09,.07,2.12,.05,3.14,.52,1.91,.87,3.03,2.82,4.33,4.37,1.66,1.97,4.47-.87,2.83-2.83-1.06-1.26-1.97-2.68-3.25-3.73-1.48-1.23-3.23-1.99-5.15-2.21-2.06-.23-4.09-.3-6.13-.72-1.89-.39-3.77-.89-5.61-1.47-.79-.25-3.04-1.13-1.49-1.91,.69-.35,1.49-.23,2.23-.31,.9-.1,1.69-.57,2.15-1.36,2.11-3.61-4.13-5.72-6.53-6.63-3.18-1.22-6.9-1.46-9.85-3.18-.96-.56-2.02-1.19-1.77-2.41,.2-1.01,1-1.62,1.89-2.03,2.67-1.24,6.15-1.18,8.98-.87,4.11,.45,8.06,2.05,11.79,3.77,1.58,.73,3.08,1.43,4.46,2.48s2.74,2.27,4.03,3.48c2.82,2.64,5.52,5.31,7.75,8.47,1.47,2.09,4.94,.09,3.45-2.02h0Z"/>
      <path class="cls-5" d="M235.09,235.68c-1.29,9.65-1.86,19.42-2.59,29.12s-1.3,19.12-2.14,28.66c-.37,4.18-.77,8.36-1.15,12.54-.87,9.58-1.72,19.16-2.55,28.74-.9,10.49-1.77,20.98-2.55,31.47-.31,4.24-.61,8.48-.85,12.72-.11,1.86-.75,4.71,.7,6.14,.9,.88,2.34,1.01,3.53,1.22,1.36,.25,2.73,.46,4.1,.65,3.33,.47,6.67,.86,10.02,1.18,3.14,.31,6.34,.69,9.5,.72,2.27,.02,3.1-1.46,3.45-3.47,.38-2.14,.75-4.27,1.12-6.41,.76-4.36,1.51-8.72,2.25-13.09,2.82-16.61,5.53-33.24,7.82-49.92,1.6-11.65,3.26-23.27,5.24-34.97,1.42-8.44,2.71-16.95,4.52-25.32,.67-3.11,2.71-5.94,5.02-8.06,1.9-1.74-.93-4.57-2.83-2.83-3.05,2.8-5.4,6.54-6.21,10.63-.45,2.25-.85,4.51-1.26,6.77-1.41,7.81-2.76,15.63-4.05,23.46-3.19,19.37-5.53,38.87-8.64,58.26-1.11,6.9-2.25,13.79-3.42,20.69-.61,3.57-1.22,7.14-1.84,10.71-.3,1.74-.61,3.49-.91,5.23-.15,.87-.3,1.74-.46,2.61-.06,.32-.11,.63-.17,.95-.06,.32-.11,.63-.17,.95-.1,.54-.12,.63-.04,.28l.88-.51c-.66,.28-2.06-.04-2.85-.09-1.16-.08-2.32-.16-3.48-.26-2.4-.2-4.8-.43-7.2-.7-2.18-.24-4.35-.51-6.51-.84-.95-.14-1.89-.29-2.83-.47-.36-.07-.72-.13-1.08-.21-.18-.04-.36-.1-.54-.11-.45-.05-.32-.31-.1,.12l.27,1.01c-.25-1.89,.14-4.04,.26-5.94,.14-2.27,.29-4.54,.45-6.81,.39-5.53,.81-11.05,1.26-16.58,.95-11.81,1.97-23.62,3.02-35.42,.69-7.71,1.39-15.42,2.1-23.13,.68-7.27,1.14-14.57,1.67-21.85,.86-11.76,1.61-23.55,2.93-35.27,.1-.86,.2-1.72,.31-2.58,.14-1.07-1.02-2-2-2-1.2,0-1.86,.92-2,2h0Z"/>
      <path class="cls-5" d="M242.5,231.38c18.8-4.42,37.48-9.63,55.84-15.65,5.25-1.72,10.48-3.53,15.64-5.51,1.01-.39,1.7-1.35,1.4-2.46-.27-.97-1.45-1.78-2.46-1.4-18.86,7.21-38.41,12.73-57.94,17.8-4.5,1.17-9.01,2.3-13.54,3.36-2.5,.59-1.44,4.45,1.06,3.86h0Z"/>
      <path class="cls-5" d="M210.5,158.62c-3.07,5.67-6.56,11.1-9.7,16.73-.82,1.48-1.78,3.04-1.84,4.78-.07,1.93,1,3.6,2.28,4.94,2.85,3.01,5.82,5.92,8.73,8.87,1.52,1.54,3.05,3.06,4.59,4.58s3.37,2.87,4.68,4.52l-.51-.88c-.22-.57,.72-1.08,.25-.62-.14,.14-.26,.31-.39,.46l-1.46,1.73-4.5,5.35-4.4,5.23c-.7,.83-1.36,1.81-2.19,2.53l.88-.51c.45-.19,.7,.49,.25,0-.14-.16-.38-.31-.54-.43-.31-.25-.63-.51-.94-.76-.67-.54-1.34-1.09-2.01-1.63-1.41-1.14-2.81-2.29-4.19-3.47-2.96-2.51-5.82-5.14-8.54-7.9-2.96-3.01-5.99-6.15-8.42-9.61-1.07-1.53-2.13-3.17-2.8-4.93-.8-2.09-.62-4.19-.13-6.33,1.47-6.41,3.83-12.66,6.2-18.78s5.22-12.16,8.67-17.81c2.07-3.39,4.42-6.58,7.1-9.52,1.35-1.47,2.76-2.87,4.23-4.23,1.67-1.54,3.63-2.58,5.74-3.39,1.01-.38,1.7-1.35,1.4-2.46-.27-.97-1.45-1.78-2.46-1.4-1.9,.72-3.78,1.54-5.44,2.72-1.45,1.04-2.74,2.29-4.01,3.54-2.43,2.4-4.65,4.98-6.68,7.72-4.02,5.43-7.3,11.54-9.97,17.74-2.52,5.83-4.72,11.82-6.67,17.86-1.03,3.18-2.08,6.45-2.46,9.78-.47,4.09,1.26,7.71,3.5,11.02,2.37,3.49,5.3,6.64,8.21,9.68,2.61,2.73,5.36,5.33,8.21,7.82,2.56,2.23,5.2,4.37,7.84,6.5,1.41,1.14,2.85,2.78,4.84,2.17,.69-.21,1.13-.64,1.57-1.14,2.58-2.95,5.04-6,7.56-8.99l3.86-4.59c1-1.19,2.31-2.42,1.86-4.15-.26-.98-1.04-1.62-1.75-2.28-.83-.78-1.65-1.57-2.47-2.36-1.49-1.44-2.97-2.91-4.43-4.38-3.12-3.13-6.2-6.31-9.31-9.45-.59-.59-1.36-1.23-1.64-2.05-.31-.87,.2-1.68,.61-2.44,.75-1.4,1.54-2.77,2.34-4.14,1.85-3.17,3.74-6.32,5.59-9.49,.8-1.37,1.59-2.75,2.34-4.14,1.23-2.26-2.23-4.29-3.45-2.02h0Z"/>
      <path class="cls-5" d="M226.72,208.57c.7-.32,1.39-.64,2.1-.93-.43,.18,.04-.01,.13-.05,.2-.08,.41-.17,.61-.25,.33-.13,.66-.26,.99-.39,1.41-.54,2.83-1.04,4.27-1.49,1-.31,1.74-1.41,1.4-2.46s-1.39-1.73-2.46-1.4c-3.09,.97-6.12,2.16-9.06,3.52-.95,.44-1.26,1.89-.72,2.74,.63,.98,1.72,1.19,2.74,.72h0Z"/>
      <path class="cls-1" d="M245.08,217.51c.31,.77,.47,1.67,.32,2.63-.56,3.8-1.77,6.97-3.88,9.95-.24,.34-.5,.68-.78,1.02-.51,.66-1.08,1.32-1.7,1.97-.55,.59-1.89,2.12-2.51,2.64-1.43,1.21-4.13,.82-5.93,.2-1.79-.62-3.3-1.82-4.77-3-1.46-1.14-3.15-2.77-4.7-4.37,6.02-8.23,13.43-18.35,13.43-18.35,.68,.37,2.54,1.46,3.13,1.79,2.47,1.38,4.23,2.45,5.73,3.35,.55,.34,1.24,1.13,1.65,2.17Z"/>
      <path class="cls-5" d="M233.56,211.93c1.47,.81,2.92,1.66,4.37,2.5s3.44,1.7,4.55,2.71c1.48,1.33,.89,3.45,.47,5.12-.49,1.95-1.24,3.78-2.28,5.49s-2.38,3.19-3.73,4.68c-1.08,1.19-1.71,2.15-3.42,2.08-3.82-.17-7.03-3.44-9.6-5.98-2.7-2.66-5.06-5.61-7.83-8.18-1.88-1.75-4.72,1.07-2.83,2.83,2.86,2.66,5.29,5.72,8.09,8.44,3.36,3.27,7.26,6.68,12.17,6.89,2.37,.1,4.03-.86,5.6-2.54s3.09-3.32,4.36-5.19c1.35-1.98,2.38-4.19,3.07-6.49,.73-2.45,1.35-5.17,.33-7.61s-3-3.4-5.11-4.65-4.11-2.4-6.19-3.55c-2.25-1.25-4.27,2.21-2.02,3.45h0Z"/>
      <g id="face">
        <path class="cls-5" d="M212.43,97.37c1.7-.23,3.3-.98,4.68-2,1.57-1.15,3.06-2.6,3.62-4.52,.29-1-.36-2.22-1.4-2.46s-2.15,.32-2.46,1.4c-.03,.1-.06,.19-.1,.29-.09,.25,.25-.54,.12-.29-.03,.05-.05,.1-.07,.15-.14,.27-.3,.53-.47,.77-.19,.27,.32-.39,.11-.14-.07,.08-.14,.16-.21,.24-.14,.16-.3,.32-.45,.47-.18,.17-.36,.34-.56,.5-.05,.04-.09,.08-.14,.12-.16,.13-.13,.1,.1-.08-.03,.08-.26,.19-.33,.24-.42,.3-.86,.57-1.33,.81-.18,.09-.36,.17-.54,.25,.65-.32,.02-.02-.16,.04-.48,.16-.98,.26-1.48,.33-.46,.06-.97,.54-1.2,.92-.25,.43-.36,1.06-.2,1.54s.46,.95,.92,1.2c.51,.27,.98,.28,1.54,.2h0Z"/>
        <path class="cls-5" d="M207.27,84.64c.18,.65,.37,1.29,.58,1.92,.05,.14,.1,.28,.15,.42,.11,.31,.22,.64,.41,.92,.13,.19,.27,.39,.44,.55,.15,.13,.3,.27,.48,.36,.02,0,.03,.02,.05,.02,.14,.07,.36,.18,.51,.21,.51,.12,1.02,.09,1.53-.02,.25-.06,.49-.17,.71-.28,.07-.03,.13-.07,.19-.11,.25-.17,.47-.37,.7-.56l-.4,.31h.02c.23-.14,.42-.31,.56-.53,.18-.19,.3-.42,.36-.68,.08-.27,.1-.53,.04-.8-.01-.27-.09-.51-.24-.74-.28-.43-.69-.8-1.2-.92l-.53-.07c-.36,0-.7,.09-1.01,.27-.23,.18-.45,.36-.67,.54l.4-.31c-.09,.07-.18,.12-.27,.16l.48-.2c-.1,.04-.2,.07-.31,.08l.53-.07c-.09,.01-.19,.02-.28,.02l.53,.07s-.07-.01-.11-.03l.48,.2s-.06-.03-.09-.05l.4,.31c-.05-.04-.09-.08-.13-.13l.31,.4c-.06-.09-.11-.18-.16-.29l.2,.48c-.33-.81-.57-1.68-.8-2.52-.13-.48-.49-.94-.92-1.2s-1.06-.36-1.54-.2-.95,.46-1.2,.92-.35,1.01-.2,1.54h0Z"/>
        <path class="cls-5" d="M193.39,86.48c.46,1.38,2.56,3.82,4.85,2.5,2.82-2.05,.71-5.3-1.3-6.09-1.65-.65-4.3,.49-3.55,3.59Z"/>
        <path class="cls-5" d="M216.05,70.23c1.16,.88,2.8,3.64,.82,5.4-2.84,2.01-5.25-1.02-5.35-3.18-.09-1.77,1.84-3.92,4.54-2.22Z"/>
      </g>
    </g>
    <g id="woman">
      <path class="cls-1" d="M74.28,235.29c.09-.34,.18-.68,.26-1.04,.45-1.93-.52-3.69-1.26-4.26l-6.14-10.33c-2.59,.57-5.13,1.31-7.62,2.21l-4.56-2.65c-2.06,2.46-7.04,8.38-9.49,11.28,2.17,2.08,4.42,4.23,4.42,4.23,1.42,1.93,5.39,6.86,7.69,9.11,1.11,1.12,2.25,2.25,3.68,2.91s3.6,1.18,4.86,.25c.55-.4,1.76-1.62,2.26-2.09,3.04-2.82,4.85-5.81,5.9-9.63Z"/>
      <path class="cls-1" d="M20.73,39.88c-1.31-.74-3.09-2.04-2.97-3.66,.02-4.17,4.56-5.08,6.9-5.39,2.53-.34,5.14-.29,7.72,.16,4.63,.8,9.07,2.83,13.42,4.9,2.14,1.02,6.83,5.23,9.71,8.3,2.15,1.9,3.15,3.23,4.93,5.75l3.63,5c-3.28,2.24-6.6,4.74-9.58,6.86-1.71-1.9-2.22-2.82-3.21-3.86-1.38-1.43-3.26-2.31-5.25-2.35-3.86-.08-8.04-1.15-11.31-2.14-.94-.29-1.91-.62-2.68-1.29s-1.28-1.76-.99-2.67c.39-1.22,1.81-2.04,3.15-2.15,.49-.04,.92-.06,1.34-.06,.83-.01,1.13-1.1,.43-1.54-2.45-1.54-4.69-2.56-7.84-3.49-2.19-.64-5.02-1.11-7.07-2.19-.11-.06-.22-.12-.34-.19Z"/>
      <path class="cls-1" d="M172.47,418.98s.02-.08,.03-.11c1.25-4.22-3.34-7.64-5.95-10.08-3.92-3.68-7.84-7.36-11.76-11.04-3.71-3.48-6.17-6.67-5.85-12.89-6.25,1.2-11.71,1.89-17.98,2.23,3.24,6.52,1.58,9.75,1.32,15.56-.28,6.12,4.29,7.15,8.96,9.93,3.56,2.11,6.33,3.78,9.31,5.6,6.26,3.82,14.02,6.96,20.46,3.12,.8-.48,1.18-1.45,1.45-2.33Z"/>
      <path class="cls-1" d="M60.33,419.6c-5.75,3.08-12.37,5.04-17.98,1.7-.84-.5-1.22-1.53-1.48-2.44-1.25-4.22,3.34-7.64,5.95-10.08,3.92-3.68,7.84-7.36,11.76-11.04,3.13-2.94,5.37-5.67,5.8-10.2,6.17,.55,11.54,.7,17.6,.45-2.67,5.93-1.15,9.12-.89,14.67,.28,6.12-4.29,7.15-8.96,9.93-3.56,2.11-6.33,3.78-9.31,5.6-.8,.49-1.63,.97-2.48,1.42Z"/>
      <path class="cls-5" d="M79.53,388.72c-1.2,3.35-1.19,6.62-.79,10.1,.29,2.49,1.05,5.72-.79,7.8-1.61,1.81-4.18,2.72-6.24,3.89-3.11,1.76-6.15,3.65-9.2,5.51s-6.13,3.56-9.58,4.47c-1.68,.44-3.4,.66-5.15,.52-1.29-.1-3.5-.47-4.45-1.45-.78-.8-.81-2.35-.46-3.33,.43-1.18,1.31-2.18,2.17-3.07,2.31-2.37,4.86-4.55,7.28-6.81,3.14-2.95,6.48-5.78,9.41-8.93,2.56-2.75,4.12-5.82,4.6-9.56,.14-1.07-1.02-2-2-2-1.2,0-1.86,.92-2,2-.42,3.24-2.34,5.73-4.62,7.93-3.17,3.07-6.44,6.04-9.65,9.06-4.3,4.03-12.28,9.54-8.41,16.39,1.8,3.18,6.82,3.97,10.13,3.77,3.89-.23,7.6-1.64,11.03-3.42s6.72-3.96,10.06-5.95c2.66-1.59,5.62-2.89,8.14-4.7,2.96-2.13,4.24-5.12,4.04-8.75-.12-2.09-.48-4.15-.6-6.24s.19-4.14,.92-6.18c.87-2.43-2.99-3.47-3.86-1.06h0Z"/>
      <path class="cls-5" d="M129.98,389.78c1.3,3.61,.84,6.94,.47,10.66-.33,3.32-.18,6.56,2.24,9.1,1.95,2.05,4.7,3.12,7.1,4.5,3.41,1.96,6.75,4.06,10.12,6.07,6.34,3.79,14.69,7.09,21.75,3.12,3.22-1.81,3.69-6.21,2.19-9.29-1.34-2.76-3.86-4.71-6.06-6.76-3.63-3.39-7.25-6.8-10.87-10.2-2.74-2.57-5.39-5.23-5.9-9.14-.14-1.07-.82-2-2-2-.97,0-2.14,.92-2,2,.42,3.28,1.64,6.06,3.76,8.61,2.35,2.82,5.27,5.2,7.94,7.7s5.31,5.01,8.01,7.47c1.64,1.49,4.34,3.71,3.96,6.23-.07,.49-.28,1.29-.64,1.66-.45,.47-1.43,.75-2.04,.95-1.58,.51-3.2,.64-4.85,.49-3.52-.3-6.9-1.86-9.94-3.57s-6.08-3.65-9.12-5.47c-2.46-1.46-5.18-2.65-7.51-4.3-2.6-1.85-2.42-4.5-2.12-7.42,.41-3.99,.76-7.65-.63-11.52-.87-2.4-4.73-1.37-3.86,1.06h0Z"/>
      <path class="cls-6" d="M19.18,149.28c.33,2.18,.77,4.4,1.45,5.95,1.5,3.46,6.69,5.84,11.81,4.59,0,0,13.21-2.25,24.78-7.73,16.89-8,19.63-19.26,19.63-19.26,1.11-9.11,.68-17.22-1.91-26.3-2.32-8.14-5.65-16.04-9.99-23.31-1,.81-1.83,1.47-1.83,1.47-1.14-1.88-2.23-3.54-2.84-4.46-4.2-6.31-11.31-11.99-17.86-13.67-2.61-.67-3.39-.79-4.5-.85l-6.22-.12c-4.29,.57-8.46,1.69-13.62,4.62-8.47,4.8-13.53,13.44-15.05,18.54-2.53,8.46-.55,20.16,7.49,33.28l.18,.41c4.57,8.18,7.21,17.88,7.86,22.27,.19,1.29,.38,2.91,.63,4.55Z"/>
      <path class="cls-1" d="M53.48,148.54c-3.07,.16-6.18-.06-8.65-1,2.28-1.53,3.63-3.54,4.3-5.27,.72-1.88,.15-4.86-.59-6.76-.26-.68-.53-1.3-.82-1.89-2.67,.98-6.56,.99-8.69,.53-5.91-1.29-8.48-2.27-13.47-5.9-.87,.94-2.23,1.32-3.36,1.23-2.56-.19-4.47-1.55-5.7-2.46-1.73-1.29-3.58-3.99-3.68-6.07-.03-.7,.1-2.01,1.71-3.15,.77-.55,1.87-.93,2.97-.7,2.64-5.86,4.97-14.31,6.89-21.97,.98,1.78,2.31,6.1,3.38,4.8,4.55-5.47,6.82-13.36,7.48-19.72,8.78,6.22,20.84,6.74,26.01,5.73,.49-.58,1.14-.99,1.77-1.21,1.86-.65,3.01-.01,3.56,.41,1.65,1.27,2.79,4.34,2.85,6.5,.04,1.52,.02,3.68-1.29,5.88-.55,.91-1.26,1.88-2.67,2.2,2.78,6.7,2.69,14.69-1.3,20.49,1.05,1.75,2.24,3.39,3.56,4.96,1.2,1.4,2.59,2.26,5.17,2.26,1.14,0,2.78-.11,4.41-.25-.07,1.33-.17,2.67-.31,4.03-1.22,7.1-4.43,13.38-15.29,16.08-2.31,.57-5.26,1.09-8.25,1.25Z"/>
      <path class="cls-5" d="M8.95,123.48c3.34,6.03,5.77,12.67,7.22,19.41,1.18,5.48,.52,12.79,5.38,16.59,3.22,2.52,7.48,3.16,11.41,2.28,2.51-.57,1.45-4.42-1.06-3.86-3.23,.73-7.84-.09-9.43-3.4-.77-1.61-1.02-3.57-1.3-5.32s-.47-3.6-.77-5.39c-1.26-7.73-4.22-15.5-8-22.33-1.25-2.25-4.7-.24-3.45,2.02h0Z"/>
      <path class="cls-5" d="M23.23,128.99c3.93,2.96,7.91,5.28,12.71,6.49,4.5,1.14,9.83,1.7,14.05-.71,2.23-1.28,.22-4.73-2.02-3.45-3.46,1.98-8.02,1.11-11.63,.13-4.2-1.13-7.64-3.32-11.09-5.92-.86-.65-2.24-.14-2.74,.72-.6,1.02-.15,2.09,.72,2.74h0Z"/>
      <path class="cls-5" d="M63.47,100.02c2.83,6.77,2.9,15.23-2.4,20.84-1.77,1.87,1.06,4.71,2.83,2.83,6.23-6.6,6.82-16.62,3.43-24.74-.42-1-1.32-1.71-2.46-1.4-.94,.26-1.82,1.46-1.4,2.46h0Z"/>
      <path class="cls-5" d="M17.36,115.07c-2.28-.28-4.75,1.13-5.85,3.13-.86,1.56-.84,3.38-.2,5.02,1.42,3.63,4.49,6.42,8.15,7.72,2.53,.9,5.28,.72,7.35-1.09,.79-.69,.76-2.13,0-2.83-.84-.77-1.99-.74-2.83,0-.21,.18-.46,.3-.83,.4-.11,.03-.58,.1-.22,.06-.24,.02-.48,.02-.73,0-.25-.03-.29-.03-.11,0-.14-.02-.28-.05-.41-.07-.2-.04-.4-.09-.6-.15-.25-.07-.5-.16-.75-.25-.22-.09-.24-.09-.05-.02-.11-.05-.22-.1-.34-.16-.7-.34-1.35-.76-1.98-1.21-.15-.11-.3-.21-.45-.33,.38,.29-.18-.17-.25-.23-.32-.29-.6-.62-.89-.94-.15-.18-.16-.2-.05-.05-.08-.1-.15-.21-.23-.31-.11-.16-.22-.32-.32-.49-.14-.22-.27-.44-.39-.67-.03-.06-.35-.75-.2-.37-.16-.38-.26-.77-.36-1.17s-.03,.31,0-.19c0-.1,.01-.2,0-.29,.02-.21,0-.14-.03,.2,.01-.08,.03-.16,.05-.24,.04-.15,.29-.6,.04-.18,.08-.14,.16-.28,.24-.42-.22,.34,.23-.23,.3-.3,.57-.57,1.03-.67,1.92-.56,1.04,.13,2.04-1.01,2-2-.05-1.19-.88-1.86-2-2h0Z"/>
      <path class="cls-5" d="M62.55,87.62s.35-.54,.18-.33c0,0,.46-.45,.23-.27,.16-.13,.35-.23,.53-.33,.22-.11,.24-.12,.07-.04l.27-.09c-.08,.02,.73-.14,.46-.11,.06,0,.66,.01,.29-.03,.18,.02,.34,.08,.52,.13-.41-.11-.04-.03,.08,.05,.11,.07,.21,.13,.32,.2-.43-.29,0,.02,.09,.12,.14,.14,.27,.28,.39,.43-.2-.26,.13,.21,.16,.26,.52,.82,.72,1.31,.98,2.23,.12,.41,.22,.83,.28,1.25,.02,.15,.02,.14,0-.03,.01,.1,.02,.19,.02,.29,0,.18,.02,.37,.02,.55,0,.4,0,.79-.01,1.19-.03,.5-.05,.7-.12,1.04-.19,.94-.52,1.79-1.03,2.6-.04,.06-.32,.46-.23,.35s-.24,.26-.3,.31c-.1,.09-.1,.09,.01,.01-.09,.06-.17,.12-.27,.17-.27,.16-.22,.11-.48,.18-2.48,.69-1.43,4.55,1.06,3.86,2.81-.78,4.48-3.59,5.06-6.3,.5-2.35,.43-4.9-.37-7.17s-2.12-4.53-4.46-5.4c-2.65-.98-5.92,.42-7.24,2.85-.51,.95-.24,2.18,.72,2.74s2.22,.24,2.74-.72h0Z"/>
      <path class="cls-5" d="M44.82,149.9c2.81-1.64,5.11-4.01,6.25-7.1,.6-1.61,.44-3.46,.15-5.12-.31-1.78-.98-3.46-1.76-5.07-.47-.97-1.86-1.23-2.74-.72-.99,.58-1.19,1.76-.72,2.74,.58,1.21,1.04,2.46,1.3,3.78,.22,1.11,.24,2.27-.09,3.33-.06,.19-.07,.15,0-.01-.06,.13-.12,.27-.19,.4-.12,.25-.26,.49-.4,.72-.34,.57-.57,.88-.86,1.21-.91,1.05-1.78,1.69-2.97,2.38-.93,.54-1.26,1.8-.72,2.74s1.8,1.26,2.74,.72h0Z"/>
      <path class="cls-5" d="M63.24,122.46c.91,1.36,1.89,2.68,2.94,3.94,.72,.86,1.6,1.66,2.62,2.15,2.66,1.26,5.68,.87,8.51,.63,1.04-.09,2.05-.86,2-2-.05-1.01-.88-2.1-2-2-1.34,.11-2.69,.22-4.04,.25-.29,0-.58,0-.88,0-.13,0-.26-.03-.39-.03-.24,0,.26,.06-.11-.01-.25-.05-.5-.1-.74-.17-.1-.03-.2-.08-.3-.1-.25-.04,.38,.2-.02,0-.18-.09-.35-.18-.52-.29-.1-.06-.2-.15-.3-.2-.22-.11,.23,.22,.06,.04-.32-.33-.67-.63-.97-.99-.89-1.05-1.6-2.02-2.39-3.22-.58-.87-1.79-1.33-2.74-.72-.87,.56-1.34,1.8-.72,2.74h0Z"/>
      <path class="cls-5" d="M31.16,63.68c-10.76,1.46-20.28,7.42-26.21,16.51-2.1,3.21-3.78,6.8-4.47,10.59-.84,4.64-.52,9.37,.51,13.95,1.46,6.5,4.34,12.65,7.79,18.32,1.34,2.2,4.8,.19,3.45-2.02-5.01-8.24-9.2-18.07-8.08-27.93,.87-7.65,6.14-15.03,12.27-19.44,4.68-3.37,10.12-5.36,15.81-6.13,1.07-.15,1.66-1.52,1.4-2.46-.32-1.16-1.39-1.54-2.46-1.4h0Z"/>
      <path class="cls-5" d="M38.51,67.76c4.79,.72,9.16,2.78,12.92,5.82,4.19,3.39,7.18,7.57,9.96,12.14,1.34,2.19,4.8,.19,3.45-2.02-3.02-4.95-6.31-9.56-10.89-13.19-4.21-3.34-9.02-5.8-14.37-6.6-1.07-.16-2.15,.27-2.46,1.4-.26,.94,.32,2.3,1.4,2.46h0Z"/>
      <path class="cls-5" d="M35.02,82.46c7.16,4.63,16.67,6.72,25.14,5.66,1.07-.13,2-.82,2-2,0-.98-.92-2.14-2-2-7.85,.98-16.48-.81-23.12-5.11-2.17-1.4-4.17,2.06-2.02,3.45h0Z"/>
      <path class="cls-5" d="M33.25,80.4c-.5,4.52-1.71,9.1-3.75,13.18-.51,1.02-1.07,2-1.68,2.96-.32,.5-.66,.99-1.02,1.46-.43,.56-.77,.55,.44,.43-.9,.09,1.11-.28,1.04,.06,.04-.21-.86-1.6-1.04-2-.36-.79-.69-1.6-1.09-2.37-.81-1.52-3.24-1.16-3.66,.48-1.37,5.46-2.82,10.9-4.65,16.23-.84,2.44,3.02,3.49,3.86,1.06,1.83-5.32,3.28-10.77,4.65-16.23l-3.66,.48c.95,1.78,1.48,4.38,3.25,5.56,2.69,1.79,4.73-2.13,5.85-4,3.15-5.23,4.78-11.29,5.45-17.31,.12-1.08-1-2-2-2-1.18,0-1.88,.92-2,2h0Z"/>
      <path class="cls-1" d="M100.84,222.66c-10.84,2.23-21.76,4.17-31.25,5.36-1.11,5.06-2.11,12.06-2.31,15.6-2.86,50.28-4.02,93.06-5.21,142.76-.01,.53,.39,.98,.91,1.03,7.53,.74,13.76,.89,21.23,.47,.49-.03,.89-.41,.95-.89,3.5-30.2,6.13-53.53,8.78-72.15,2.07-15.41,8.62-58.71,9.19-59.85,.36-.72,.93-1.64,1.59-2.58,.56,2.73,.93,4.51,.93,4.51,2.22,10.81,9.23,49.23,10.86,58.82,2.53,14.86,10.27,63,11.51,70.62,.08,.5,.53,.86,1.04,.83,7.55-.33,13.77-1.1,21.23-2.59,.5-.1,.85-.56,.81-1.06-3.7-49.78-8.93-94.3-14.31-144.52-.46-4.26-2.69-16.91-6.12-23.27-8.93,2.32-19.34,4.76-29.83,6.92Z"/>
      <path class="cls-2" d="M109.73,135.29c-11.7-35.96-33.67-72.47-41.31-82.1-.32-.4-.88-.5-1.31-.23-4.92,3.08-10.2,7.24-14.51,10.17-.45,.31-.58,.91-.28,1.37,2.28,3.48,7.54,10.75,11.08,16.26,5.1,7.94,8.95,16.71,11.53,25.79,2.43,8.53,2.96,16.2,2.09,24.66-1.22,7.1-4.43,13.38-15.29,16.08-4.71,1.17-12.1,2.11-16.96,.22-4.79,3.32-8.85,6.91-12.05,11.89-7.43,10.7-15.27,31.78-15.91,35.95-.39,2.58-1.42,5.13-.92,7.69,.51,2.62,2.88,6.22,4.58,8.28,8.28,10.01,15.14,15.27,22.19,20.98,.42,.34,1.04,.29,1.4-.13l11.82-14.06c.34-.41,.3-1.01-.09-1.37-5.42-5.04-10.34-10.2-16.31-16.24-.83-.83-1.6-1.84-1.69-3.01-.08-1.03,.43-2,.92-2.9,2.14-3.97,6.02-10.24,8.57-14.76,5.2,8.34,11.57,17.89,15.86,23.16,2.08,2.54,3.12,2.56,4.34,4.32,.85,1.21,1.08,3.51,1.05,4.94,0,.4-.02,.84-.02,1.33l1.01,14.45c18.89-2.37,43.53-7.69,61.78-12.45-2.19-12.13-4.46-21.27-6.75-29.62-1.61-5.85-3.24-12.24-4.81-18.37-2.96-11.56-7.32-23.63-9.99-32.3"/>
      <path class="cls-5" d="M45.55,180.84c2.91,4.65,5.89,9.26,8.99,13.79,1.38,2.01,2.79,4.01,4.24,5.97,1.34,1.81,2.68,3.74,4.32,5.3,1.27,1.21,2.76,1.97,3.19,3.79,.33,1.38,.16,2.76,.23,4.16,.12,2.44,.34,4.89,.51,7.33,.16,2.28,.32,4.57,.48,6.85,.18,2.55,4.18,2.57,4,0-.32-4.62-.65-9.24-.97-13.86-.09-1.25,.03-2.49-.11-3.74-.26-2.34-1.01-4.34-2.81-5.92-1.52-1.33-2.88-2.64-4.13-4.25-1.45-1.88-2.83-3.81-4.19-5.76-3.58-5.12-6.99-10.37-10.3-15.67-1.36-2.18-4.82-.17-3.45,2.02h0Z"/>
      <path class="cls-5" d="M78.84,132.84c.63-5.28,.79-10.59,.18-15.88s-1.91-10.57-3.63-15.67c-3.26-9.63-8.02-18.39-13.74-26.76-1.42-2.08-2.86-4.14-4.3-6.2-1.13-1.63-2.63-3.32-3.44-5.13l.27,1.01c-.35,.44-.38,.54-.1,.32,.16-.11,.32-.22,.48-.33,.22-.15,.44-.31,.66-.46,.62-.44,1.24-.88,1.86-1.33,1.25-.9,2.48-1.8,3.73-2.7s2.43-1.75,3.66-2.6,2.53-1.93,3.92-2.53l-1.01,.27c-.83,.1-.23-.49-.2,0,.02,.32-.15-.19,.07,.09s.41,.54,.61,.81c.5,.67,.98,1.35,1.46,2.04,1.14,1.63,2.23,3.28,3.31,4.95,2.84,4.4,5.52,8.89,8.11,13.44,6.71,11.77,12.82,23.91,18.19,36.35,3.3,7.64,6.29,15.41,8.87,23.32,.8,2.44,4.66,1.39,3.86-1.06-4.4-13.49-9.98-26.6-16.21-39.34-5.2-10.64-10.87-21.08-17.11-31.16-2.07-3.33-4.19-6.64-6.49-9.82-1.05-1.45-2.16-3.59-4.18-3.64-1.6-.04-3.23,1.48-4.48,2.33-1.48,1.01-2.94,2.05-4.39,3.1s-2.82,2.06-4.24,3.08c-1.21,.87-3.1,1.75-3.92,3.01-1.53,2.38,1.34,5.25,2.64,7.12,3.68,5.31,7.51,10.55,10.73,16.16,4.04,7.03,7.15,14.6,9.26,22.42s2.57,16.45,1.57,24.81c-.13,1.07,1.01,2,2,2,1.19,0,1.87-.92,2-2h0Z"/>
      <path class="cls-5" d="M46.77,150.14c4.06,.72,8.18,.45,12.23-.25,3.64-.62,7.29-1.65,10.5-3.51,5.14-2.99,8.09-7.96,9.27-13.68,.52-2.51-3.34-3.59-3.86-1.06-.98,4.74-3.15,8.79-7.44,11.29-2.75,1.6-5.86,2.43-8.97,3.01-3.47,.64-7.18,.97-10.68,.35-1.06-.19-2.16,.29-2.46,1.4-.27,.97,.33,2.27,1.4,2.46h0Z"/>
      <path class="cls-5" d="M107.8,135.82c3.19,10.33,6.87,20.5,9.64,30.96s5.64,20.79,8.14,31.25c1.45,6.05,2.7,12.14,3.8,18.26,.46,2.53,4.31,1.46,3.86-1.06-1.81-10.04-4.09-19.96-6.78-29.8-3.12-11.38-5.83-22.85-9.44-34.1-1.77-5.53-3.65-11.02-5.37-16.57-.76-2.45-4.62-1.41-3.86,1.06h0Z"/>
      <path class="cls-5" d="M69.51,230.03c16.4-2.07,32.66-5.38,48.75-9.17,4.34-1.02,8.66-2.08,12.97-3.2,2.49-.65,1.43-4.5-1.06-3.86-15.76,4.09-31.69,7.59-47.75,10.3-4.29,.72-8.59,1.38-12.91,1.93-1.07,.14-2,.82-2,2,0,.98,.92,2.14,2,2h0Z"/>
      <path class="cls-5" d="M103.72,257.45c3.34,16.3,6.21,32.71,9.15,49.08,2.6,14.52,4.93,29.09,7.29,43.65,1.39,8.59,2.78,17.19,4.17,25.78,.46,2.85,.92,5.71,1.38,8.56,.14,.87,.2,1.82,.48,2.65,.58,1.72,2.22,2.06,3.83,1.98,1.84-.09,3.67-.21,5.51-.37,3.43-.3,6.84-.75,10.23-1.31,1.66-.28,3.45-.45,5.06-.93,1.89-.57,2.34-2.18,2.2-3.97-.56-7.42-1.15-14.83-1.79-22.25-1.24-14.43-2.62-28.86-4.09-43.27s-3.02-28.77-4.58-43.15c-.79-7.29-1.59-14.57-2.38-21.86-.69-6.37-1.17-12.79-2.32-19.1-.61-3.32-1.35-6.62-2.28-9.87-.71-2.47-4.57-1.42-3.86,1.06,2.66,9.31,3.48,18.81,4.52,28.39,1.17,10.75,2.34,21.5,3.5,32.25,2.26,20.9,4.44,41.8,6.35,62.73,.55,6.03,1.08,12.05,1.58,18.09,.25,3.06,.5,6.11,.74,9.17,.12,1.46,.23,2.92,.34,4.38,.06,.82,.12,1.63,.19,2.45,.02,.33,.05,.65,.07,.98l.04,.49c.05,.56,.05,.65,0,.27l.72-.72c-.52,.38-1.72,.4-2.37,.52-.91,.17-1.81,.33-2.72,.48-1.73,.29-3.46,.54-5.2,.75s-3.54,.39-5.32,.53c-.84,.07-1.68,.12-2.52,.17-.69,.04-2.04,.31-2.63,.06l.88,.51c.12,.09,0,.27,.01,.03,0-.08-.03-.18-.04-.26-.04-.24-.08-.47-.12-.71-.09-.55-.18-1.1-.27-1.65-.24-1.46-.47-2.92-.71-4.38-.67-4.13-1.34-8.27-2-12.4-1.66-10.26-3.32-20.53-5-30.79-1.23-7.51-2.43-15.02-3.74-22.51-1.58-9.06-3.24-18.11-4.91-27.16s-3.35-18.26-5.16-27.36c-.14-.68-.27-1.36-.41-2.04-.52-2.52-4.37-1.45-3.86,1.06h0Z"/>
      <path class="cls-5" d="M64.96,249.38c-1.39,25.46-2.45,50.93-3.26,76.41-.4,12.55-.75,25.1-1.07,37.65-.17,6.49-.33,12.98-.48,19.47-.04,1.45-.44,3.45,.23,4.79,.74,1.49,2.08,1.67,3.58,1.81,3.07,.28,6.14,.48,9.22,.57s6.08,.04,9.12-.09c1.41-.06,3.01,.07,4.06-1.06s.92-2.96,1.09-4.39c.72-6.2,1.43-12.4,2.15-18.6,1.24-10.69,2.49-21.39,3.82-32.07,1.9-15.2,4.09-30.36,6.36-45.51,1.11-7.43,2.24-14.86,3.43-22.28,.4-2.5,.8-4.99,1.23-7.48,.13-.73,.25-1.46,.4-2.18,.04-.2,.11-.41,.13-.62,0-.04,.06-.15,.05-.18,0,0,.01-.04,.02-.05-.2,.91-.09,.25,.07-.04,1.09-1.98,2.51-3.87,4.17-5.4,1.9-1.75-.94-4.57-2.83-2.83-1.99,1.83-3.9,4.26-5.06,6.72-.29,.61-.39,1.26-.52,1.92-.53,2.79-.96,5.6-1.41,8.4-1.51,9.45-2.94,18.91-4.35,28.38-1.29,8.7-2.54,17.41-3.73,26.13-1.69,12.32-3.16,24.67-4.61,37.03-.88,7.47-1.74,14.95-2.6,22.42-.23,2-.46,4.01-.7,6.01-.06,.49-.11,.98-.17,1.47,0,.06-.11,.72-.09,.74l.26-.29c.35-.26,.36-.36,.01-.28-.29-.14-1.1,.05-1.43,.07-.55,.02-1.09,.04-1.64,.06-3.84,.12-7.69,.06-11.53-.17-.93-.06-1.85-.12-2.78-.19-.47-.04-.95-.08-1.42-.12-.23-.02-.49-.07-.72-.07-.65,.03-.33-.28-.12,.17l.27,1.01c-.28-2.16,.06-4.56,.12-6.74s.11-4.57,.17-6.85c.11-4.57,.23-9.15,.35-13.72,.23-8.87,.48-17.73,.74-26.6,.53-17.53,1.16-35.05,1.94-52.56,.46-10.28,.97-20.56,1.53-30.83,.14-2.57-3.86-2.56-4,0h0Z"/>
      <path class="cls-5" d="M67.66,227.49c-1.57,7.24-2.3,14.51-2.7,21.89-.14,2.57,3.86,2.56,4,0,.39-7.04,1.06-13.93,2.56-20.83,.54-2.51-3.31-3.58-3.86-1.06h0Z"/>
      <path class="cls-5" d="M43.86,145.72c-2.97,2.07-5.85,4.31-8.36,6.94-2.31,2.42-4.23,5.17-6,8-3.27,5.24-5.91,10.88-8.34,16.56-2.04,4.78-4,9.64-5.52,14.63-.57,1.88-.9,3.78-1.32,5.7-.45,2.05-.78,4.11-.33,6.19,.34,1.58,1.11,3.11,1.91,4.51,1.89,3.3,4.47,6.18,7.03,8.97s5,5.21,7.68,7.63c2.35,2.12,4.79,4.15,7.25,6.14,2.01,1.63,5.05,5.19,7.63,2.57,2.15-2.18,4-4.75,5.96-7.09s3.93-4.58,5.82-6.92c1.14-1.41,1-3.08-.24-4.36-1.35-1.4-2.84-2.68-4.22-4.04-2.82-2.77-5.59-5.6-8.36-8.42-1.38-1.41-3.17-2.8-4.27-4.43-.93-1.38,.32-2.84,1.02-4.09,1.72-3.07,3.54-6.08,5.33-9.11,.83-1.41,1.66-2.83,2.47-4.26,1.27-2.24-2.18-4.26-3.45-2.02-1.94,3.42-3.98,6.78-5.96,10.18-1.79,3.06-4.96,6.96-3.23,10.63,.94,2,2.93,3.54,4.45,5.08s3.02,3.07,4.53,4.61,3.09,3.12,4.66,4.66c1.48,1.46,3.29,2.81,4.57,4.44l-.51-.88c-.27-.72,.71-1.05,.28-.66-.14,.13-.26,.31-.38,.45l-1.36,1.62-4.11,4.89-4.07,4.84c-.64,.76-1.24,1.64-2,2.3l.88-.51c.19-.08,.88,.61,.25,0-.12-.12-.27-.22-.41-.33-.32-.25-.63-.51-.95-.76-.63-.51-1.26-1.02-1.89-1.53-1.33-1.08-2.64-2.16-3.94-3.27-2.79-2.38-5.49-4.87-8.05-7.49-2.75-2.82-5.58-5.75-7.79-9.01-.99-1.47-1.98-3.05-2.49-4.76-.58-1.95,0-3.9,.41-5.82,.94-4.36,2.31-8.49,3.92-12.67,2.36-6.1,5.01-12.11,8.13-17.86,1.72-3.16,3.58-6.36,5.84-9.17,2.7-3.37,6.02-6.14,9.55-8.6,2.1-1.46,.1-4.93-2.02-3.45h0Z"/>
      <path class="cls-5" d="M62.17,48.94c-2.22-3.14-4.77-5.81-7.54-8.48-2.31-2.23-4.85-4.77-7.73-6.25-7.49-3.86-16.29-7.08-24.77-4.93-2.93,.74-5.74,2.58-6.25,5.77-.65,4.05,2.85,6.42,6.24,7.63,3.64,1.3,7.43,1.8,10.89,3.64,.42,.22,.87,.58,1.32,.75,.6,.22,.21,.71,.57-.78,.3-1.21,.45-1.02-.44-.95-1.01,.08-1.98,.28-2.88,.78-1.76,.98-3,2.94-2.45,5,.62,2.35,2.74,3.54,4.9,4.23,2.28,.72,4.6,1.32,6.96,1.73,1.3,.23,2.62,.4,3.94,.49,1.09,.07,2.12,.05,3.14,.52,1.91,.87,3.03,2.82,4.33,4.37,1.66,1.97,4.47-.87,2.83-2.83-1.06-1.26-1.97-2.68-3.25-3.73-1.48-1.23-3.23-1.99-5.15-2.21-2.06-.23-4.09-.3-6.13-.72-1.89-.39-3.77-.89-5.61-1.47-.79-.25-3.04-1.13-1.49-1.91,.69-.35,1.49-.23,2.23-.31,.9-.1,1.69-.57,2.15-1.36,2.11-3.61-4.13-5.72-6.53-6.63-3.18-1.22-6.9-1.46-9.85-3.18-.96-.56-2.02-1.19-1.77-2.41,.2-1.01,1-1.62,1.89-2.03,2.67-1.24,6.15-1.18,8.98-.87,4.11,.45,8.06,2.05,11.79,3.77,1.58,.73,3.08,1.43,4.46,2.48s2.74,2.27,4.03,3.48c2.82,2.64,5.52,5.31,7.75,8.47,1.47,2.09,4.94,.09,3.45-2.02h0Z"/>
      <path class="cls-1" d="M57.58,243.85c1.11,1.12,2.25,2.25,3.68,2.91s3.6,1.18,4.86,.25c.55-.4,1.76-1.62,2.26-2.09,3.31-3.07,5.17-6.34,6.16-10.67,.45-1.93-.52-3.69-1.26-4.26-1.44-1.1-3.17-2.43-5.91-4.33,0,0-5.98,11.14-9.79,18.18Z"/>
      <path class="cls-5" d="M48.16,235.75c1.94,2.63,4.02,5.17,6.2,7.6,2.55,2.85,5.37,5.76,9.39,6.13,1.99,.19,3.42-.65,4.81-1.97,1.29-1.21,2.57-2.43,3.67-3.82,1.19-1.5,2.16-3.1,2.91-4.87s1.63-3.97,1.48-5.97c-.16-2.24-1.26-3.76-2.98-5.08s-3.48-2.6-5.27-3.84c-2.12-1.47-4.12,1.99-2.02,3.45,1.38,.96,2.75,1.94,4.1,2.95,.81,.61,1.67,1.04,2.02,1.97,.52,1.38-.29,3.18-.79,4.47-.53,1.39-1.28,2.71-2.16,3.91s-1.87,2.14-2.9,3.13c-.84,.81-1.46,1.81-2.7,1.67-2.8-.3-4.87-2.9-6.63-4.86-1.99-2.21-3.91-4.52-5.68-6.91-.64-.87-1.73-1.3-2.74-.72-.86,.5-1.36,1.86-.72,2.74h0Z"/>
      <path class="cls-5" d="M60.64,223.8c2.49-.9,5.04-1.64,7.62-2.21,1.02-.23,1.72-1.47,1.4-2.46-.35-1.07-1.36-1.64-2.46-1.4-2.59,.57-5.13,1.31-7.62,2.21-.98,.35-1.75,1.38-1.4,2.46,.31,.97,1.41,1.78,2.46,1.4h0Z"/>
      <g id="face-2" data-name="face">
        <path class="cls-5" d="M45.76,120.86c1.61-.22,3.12-.93,4.42-1.89,1.5-1.1,2.92-2.48,3.45-4.31,.29-1-.36-2.22-1.4-2.46s-2.15,.32-2.46,1.4c-.04,.12-.08,.24-.13,.36l.2-.48c-.17,.39-.39,.75-.65,1.09l.31-.4c-.45,.58-.99,1.07-1.56,1.52l.4-.31c-.69,.53-1.43,.99-2.23,1.33l.48-.2c-.62,.26-1.25,.41-1.91,.5-.46,.06-.97,.54-1.2,.92-.25,.43-.36,1.06-.2,1.54s.46,.95,.92,1.2c.51,.27,.98,.28,1.54,.2h0Z"/>
        <path class="cls-5" d="M40.76,108.83c.16,.61,.35,1.21,.55,1.8,.04,.13,.09,.26,.14,.39,.11,.3,.21,.62,.39,.89,.12,.19,.26,.39,.43,.54,.15,.13,.3,.27,.47,.36,.01,0,.03,.01,.05,.02,.14,.07,.36,.18,.51,.21,.5,.12,1,.09,1.5-.02,.24-.06,.48-.17,.7-.28,.06-.03,.12-.07,.18-.11,.24-.17,.45-.36,.68-.54l-.4,.31h.02c.23-.14,.42-.31,.56-.53,.18-.19,.3-.42,.36-.68,.08-.27,.1-.53,.04-.8-.01-.27-.09-.51-.24-.74-.28-.43-.69-.8-1.2-.92l-.53-.07c-.36,0-.7,.09-1.01,.27-.22,.17-.43,.35-.65,.52l.4-.31c-.08,.06-.16,.11-.26,.15l.48-.2c-.09,.04-.19,.06-.29,.08l.53-.07c-.09,.01-.18,.02-.27,.02l.53,.07s-.07-.01-.1-.02l.48,.2s-.06-.03-.09-.05l.4,.31s-.09-.08-.12-.12l.31,.4c-.06-.08-.11-.17-.15-.27l.2,.48c-.31-.76-.54-1.57-.75-2.37-.13-.48-.49-.94-.92-1.2-.23-.15-.48-.23-.74-.24-.27-.06-.53-.05-.8,.04-.48,.16-.95,.46-1.2,.92s-.35,1.01-.2,1.54h0Z"/>
        <path class="cls-5" d="M27.86,110.52c.43,1.29,2.4,3.58,4.56,2.35,2.64-1.92,.67-4.97-1.22-5.72-1.55-.61-4.04,.46-3.33,3.37Z"/>
        <path class="cls-5" d="M49.12,95.26c1.09,.83,2.63,3.42,.77,5.07-2.67,1.89-4.92-.96-5.03-2.99-.08-1.66,1.73-3.68,4.26-2.08Z"/>
      </g>
    </g>
  </g>
</svg>