<?xml version="1.0" encoding="utf-8"?>
<!-- Generator: Adobe Illustrator 27.0.0, SVG Export Plug-In . SVG Version: 6.00 Build 0)  -->
<svg version="1.1" id="_レイヤー_2" xmlns="http://www.w3.org/2000/svg" xmlns:xlink="http://www.w3.org/1999/xlink" x="0px"
	 y="0px" viewBox="0 0 273.5 103.2" style="enable-background:new 0 0 273.5 103.2;" xml:space="preserve">
<style type="text/css">
	.st0{fill:none;stroke:#000000;stroke-miterlimit:10;}
</style>
<g id="_レイヤー_1-2">
	<g>
		<path class="st0" d="M13,70.8c6.2-0.2,10.1,3,9.8,8c-0.1,3.2-2.5,5.4-5.6,7.7c-2.2,1.6-3.9,3.2-3.9,5.8c0,4.9,6.9,8.8,21.4,7.6
			c18-1.6,34-10.7,46.7-19.5C75,75.5,67.2,65.9,67.3,53.7c0.2-13.9,11.2-25.8,28-25.7c13.4,0.1,21.6,8.1,26.5,17.9
			c3.3-3.3,6.6-6.2,9.9-9.4c12.4-11.7,23.8-21.4,35.4-27.7c8.8-4.7,21-8.8,30-8.8c7.3,0,10.5,1.7,11.8,2.8c1.5,1.3,2,2.9,1.3,3.2
			c-0.5,0.2-0.8-0.6-2.2-1.6C206.8,3.5,204.7,3,203,3c-2.5,0-5.4,1-7.4,2.5c-5.4,4.2-13.7,14.1-19.1,21.8
			c-14.3,19.9-29.8,43.4-42.9,64.9c3.4-0.1,8.6-1.8,13.4-4.2c4.7-2.5,9.2-6.1,12.9-9.4c1.9-1.8,3.1-2.5,3.7-1.9s-0.2,1.7-2.2,3.5
			c-3.2,3-8.2,7.1-13.7,9.9c-4.9,2.5-10.7,4.2-15.3,4.5c-3.2,3.8-6.8,5.2-14.9,6.1c-6.7,0.9-6.2-1.6-5.4-3.2
			c0.3-0.8,1.5-2.8,1.8-3.5c-4.3-0.5-10.8-2.1-16.1-4C92.8,88,87.5,85,83.7,82.3c-8.5,6.2-28,19.1-49.7,20.7c-18,1.4-34-4.2-34-17
			C0,76.5,6.9,71.1,13,70.8z M79,54.1c-0.5,9.7,3,18,7,22.8c4.7-3.6,10.8-8.6,17-14c5.7-5,11.2-10.1,16.6-15
			c-4.6-8.6-12.3-15-21.8-15C85.6,32.9,79.4,43.3,79,54.1z M99.9,87.2c3.7,1.6,10.4,3.8,15.2,4.4c1.8-3.2,4.9-8.1,5.9-9.7
			c1.6-3.2,2.7-11.7,2.4-18.5c-0.3-5.2-1.2-10-2.6-13.3c-5.5,5-11.2,10.1-16.3,14.8c-6.1,5.4-12,10.3-16.7,14
			C89.8,81.4,95.5,85.1,99.9,87.2L99.9,87.2z M153.2,36.3c15.6-19.6,31.5-29.8,44.2-34V2.1c-9.2,0-20.8,4.1-28.9,8.6
			c-10.9,6.1-22,15.3-31,23.7c-4.9,4.6-10.6,10-14.4,13.8c1.6,4.2,2.5,9.1,2.8,14c0.2,5.2-0.3,10.6-1.2,14.5
			C132.6,64.5,145.1,46.4,153.2,36.3L153.2,36.3z"/>
		<path class="st0" d="M158.2,90.6c0-4.3,2.5-8.9,5.9-12.7l-0.2-0.2c-0.3,0.3-2.7,2.4-3,2.7c-1.9,1.6-3,2.2-3.5,1.7
			c-0.5-0.7,0.1-1.5,1.5-2.8c2.9-2.6,5.2-4.6,7.9-6.5c2.5-1.8,7.8-5.2,11.7-7.1c7.4-3.7,17.1-7.3,24.5-7c7,0.3,10.6,3.9,9.6,9
			c-0.9,4.9-5.2,8.6-8.8,8.6c-4.6,0-5.3-3.9-2.9-7.8c3-5,4.4-7,2.1-7.5c-2.7-0.6-7.9,3-14.3,9.7c-6.4,6.4-12.3,15-13,20.6
			c-0.5,3.6,1.6,5.3,5.3,5.3c3,0,10.9-1.5,21.1-8.3c4.4-3,9.6-7.2,13.4-10.6c1.7-1.6,2.4-1.5,2.9-1.1c0.5,0.5-0.3,1.6-2.3,3.5
			c-2.9,2.6-8.1,7.1-12.9,10.3c-9.2,6.3-20.2,10.7-29.7,10.7C163.3,101.1,158.2,96.9,158.2,90.6L158.2,90.6z"/>
		<path class="st0" d="M257,88.3c4.4-3,9.9-7.3,13.8-10.9c1.4-1.2,2.1-1.2,2.5-0.8c0.5,0.7-0.5,1.8-2.5,3.6
			c-2.9,2.6-8.4,7.2-13.6,10.8c-9.6,6.5-18.9,9.8-28,10.1c-12.9,0.5-16.3-4.5-16.3-10.3c0.1-4.3,2.3-8.6,6-12.8l-0.2-0.2
			c-0.5,0.5-2.9,2.6-3.2,2.9c-1.8,1.5-2.8,1.9-3.2,1.5c-0.5-0.7,0.1-1.5,1.5-2.8c2.7-2.5,5.1-4.4,7.8-6.3c2.5-1.8,7.9-5.2,11.8-7.2
			c8.9-4.4,17.2-7.1,25.4-7.1c7.3,0,10.2,3.2,10,6.9c-0.5,6.2-8.2,10.8-15.3,14.3c-6.9,3.2-16.9,6.2-22.8,7.2
			c-0.8,1.4-1.4,3.5-1.4,5c0,3.5,2,5.2,5.6,5.2S246.8,95.1,257,88.3L257,88.3z M248.1,77.5c5.9-4.4,9.6-9.9,10.1-13
			c0.4-2.1-0.4-3.4-2.5-3.4c-2.4,0-6.5,2.3-12.5,8.7c-4.8,5-8.7,10.2-11.2,14.7C236.2,83.9,242.3,81.7,248.1,77.5L248.1,77.5z"/>
	</g>
</g>
</svg>
