<?xml version="1.0" encoding="UTF-8"?><svg id="_レイヤー_2" xmlns="http://www.w3.org/2000/svg" viewBox="0 0 274.48 104.15"><defs><style>.cls-1{fill:#fff;stroke:#0abab5;}</style></defs><g id="_レイヤー_1-2"><g><path class="cls-1" d="M13.46,71.29c6.25-.23,10.1,3.01,9.79,8.02-.15,3.16-2.54,5.4-5.63,7.71-2.16,1.62-3.86,3.24-3.86,5.78,0,4.86,6.86,8.79,21.44,7.63,18.04-1.62,34.01-10.72,46.73-19.51-6.4-4.93-14.26-14.5-14.11-26.76,.16-13.88,11.18-25.83,27.99-25.68,13.42,.08,21.59,8.1,26.53,17.89,3.32-3.31,6.56-6.25,9.95-9.41,12.42-11.72,23.83-21.44,35.4-27.68,8.79-4.7,20.97-8.79,29.99-8.79,7.32,0,10.48,1.7,11.8,2.78,1.54,1.31,2.01,2.93,1.31,3.24-.46,.23-.77-.62-2.24-1.62-1.23-.85-3.39-1.39-5.09-1.39-2.54,0-5.4,1-7.4,2.54-5.4,4.16-13.73,14.11-19.05,21.75-14.34,19.89-29.77,43.42-42.95,64.93,3.39-.08,8.64-1.77,13.42-4.24,4.7-2.54,9.18-6.09,12.88-9.41,1.93-1.77,3.08-2.54,3.7-1.92,.62,.62-.23,1.7-2.16,3.47-3.24,3.01-8.25,7.1-13.73,9.95-4.86,2.54-10.72,4.24-15.27,4.47-3.24,3.78-6.79,5.24-14.88,6.09-6.71,.93-6.17-1.62-5.4-3.24,.31-.77,1.54-2.85,1.85-3.47-4.32-.46-10.8-2.08-16.12-4.01-5.09-1.93-10.33-4.86-14.11-7.64-8.48,6.25-27.99,19.05-49.74,20.67C16.46,104.83,.5,99.28,.5,86.48c0-9.49,6.94-14.88,12.96-15.19Zm66.01-16.66c-.46,9.72,3.01,17.97,7.02,22.75,4.7-3.62,10.79-8.64,17.04-14.03,5.71-5.01,11.18-10.1,16.58-14.96-4.63-8.56-12.26-15.04-21.82-15.04-12.19,0-18.35,10.41-18.82,21.28Zm20.98,33.08c3.7,1.62,10.41,3.78,15.19,4.4,1.85-3.24,4.94-8.1,5.86-9.72,1.62-3.24,2.7-11.72,2.39-18.5-.31-5.24-1.23-9.95-2.62-13.26-5.48,5.01-11.18,10.1-16.35,14.81-6.09,5.4-12.03,10.33-16.66,14.03,2.08,2.47,7.79,6.17,12.18,8.25Zm53.21-50.89c15.65-19.59,31.53-29.84,44.18-34.01v-.23c-9.17,0-20.81,4.09-28.91,8.56-10.87,6.09-21.98,15.34-31,23.67-4.93,4.63-10.64,9.95-14.42,13.8,1.62,4.16,2.54,9.1,2.85,13.96,.23,5.24-.31,10.64-1.16,14.5,7.94-12.03,20.36-30.15,28.46-40.25Z"/><path class="cls-1" d="M158.74,91.11c0-4.32,2.54-8.87,5.94-12.65l-.23-.23c-.31,.31-2.7,2.39-3.01,2.7-1.85,1.62-3,2.16-3.47,1.7-.46-.69,.15-1.46,1.54-2.85,2.85-2.62,5.24-4.55,7.94-6.48,2.54-1.85,7.79-5.17,11.72-7.09,7.4-3.7,17.12-7.33,24.52-7.02,7.01,.31,10.56,3.93,9.63,8.95-.92,4.86-5.17,8.64-8.79,8.64-4.55,0-5.32-3.86-2.93-7.79,3.01-5.01,4.39-7.02,2.08-7.48-2.7-.62-7.87,3.01-14.34,9.72-6.4,6.4-12.26,15.04-12.96,20.59-.46,3.63,1.62,5.32,5.32,5.32,3.01,0,10.95-1.54,21.13-8.33,4.4-3.01,9.56-7.25,13.42-10.64,1.7-1.62,2.39-1.54,2.85-1.08,.46,.54-.31,1.62-2.31,3.47-2.85,2.62-8.1,7.09-12.88,10.33-9.18,6.32-20.2,10.72-29.69,10.72-10.41,0-15.5-4.24-15.5-10.49Z"/><path class="cls-1" d="M257.51,88.79c4.4-3.01,9.87-7.33,13.8-10.95,1.39-1.16,2.08-1.24,2.54-.77,.46,.69-.46,1.77-2.47,3.62-2.85,2.62-8.41,7.25-13.65,10.8-9.56,6.48-18.89,9.79-27.99,10.1-12.87,.46-16.34-4.47-16.27-10.33,.08-4.32,2.31-8.64,6.02-12.8l-.23-.23c-.46,.46-2.93,2.62-3.24,2.93-1.77,1.54-2.77,1.93-3.24,1.46-.46-.69,.15-1.46,1.54-2.85,2.7-2.47,5.09-4.4,7.79-6.32,2.54-1.85,7.87-5.24,11.8-7.25,8.86-4.4,17.19-7.09,25.44-7.09,7.32,0,10.25,3.24,10.02,6.86-.46,6.17-8.18,10.8-15.27,14.27-6.86,3.24-16.88,6.17-22.82,7.25-.77,1.39-1.39,3.47-1.39,5.01,0,3.47,2.01,5.17,5.63,5.17s11.8-2.08,21.97-8.87Zm-8.94-10.8c5.94-4.4,9.56-9.87,10.1-12.96,.39-2.08-.38-3.39-2.47-3.39-2.39,0-6.48,2.31-12.49,8.71-4.78,5.01-8.71,10.25-11.18,14.73,4.16-.7,10.25-2.93,16.04-7.1Z"/></g></g></svg>