<?xml version="1.0" encoding="UTF-8"?><svg id="_レイヤー_2" xmlns="http://www.w3.org/2000/svg" viewBox="0 0 650.44 226.8"><defs><style>.cls-1{fill:none;stroke:#231815;stroke-width:2px;}</style></defs><g id="_レイヤー_1-2"><g><g><path d="M78.06,45.2c-27.03-.93-50.79,9.55-50.79,32.62,0,7.92,5.59,18.64,17.01,22.37,2.1,.7,3.03,.47,2.8,1.17-.23,.7-2.8,.7-4.43,.23-11.88-3.5-19.57-13.75-20.04-24.23-.7-21.2,17.01-37.98,52.43-37.05,15.84,.47,47.77,4.66,55.22,.47,3.26-1.86,6.06-3.73,7.69-2.8,1.4,.93-.7,1.86-3.03,4.19-5.83,5.59-10.95,10.95-16.78,18.41-6.99,8.62-11.88,15.61-16.31,21.2h33.32c3.73-4.43,8.16-9.79,19.57-20.27,10.95-10.25,21.2-17.71,29.36-22.37,7.46-4.19,15.61-6.99,23.3-6.99,8.62,0,13.51,4.19,14.68,7.46,.7,1.86,.47,3.26-.23,3.5-.47,.23-.47-.7-1.17-2.1-1.86-3.73-5.59-6.52-13.05-6.52s-15.38,3.73-21.2,7.92c-6.06,4.43-11.88,9.79-21.2,19.81-6.06,6.52-13.05,15.15-16.31,19.57,6.29,.23,14.45,.47,18.64,.93,1.86,.23,5.36,.47,5.36,1.17,0,.93-3.5,.7-5.13,.7-8.16,0-15.84,0-21.2,.23-10.49,13.28-25.4,32.62-25.4,41.24,0,2.8,2.1,3.96,4.43,3.96,3.96,0,9.32-2.1,16.54-7.22,3.26-2.33,9.79-7.92,13.28-10.95,1.4-1.17,2.33-1.63,2.8-1.17,.47,.47,0,1.17-1.4,2.56-3.03,2.8-9.79,8.62-13.51,11.42-3.5,2.56-12.58,9.32-21.67,9.32-6.76,0-11.18-3.5-11.18-10.25,0-12.12,16.31-31.92,22.14-38.91l-32.85,.23c-22.6,27.73-43.34,51.73-76.42,51.73-11.18,0-23.3-4.89-23.3-18.17,0-6.29,5.13-12.35,12.12-12.12,4.66,.23,7.92,3.73,7.46,8.62-.23,2.8-1.63,5.13-3.73,6.99-2.1,1.86-3.03,3.73-3.03,5.82,0,4.89,6.76,6.76,11.65,6.76,24.93,0,47.53-32.62,60.81-49.63-3.73,0-9.09,.23-17.24,.47-1.63,0-4.89,.23-4.43-1.17,.23-.93,3.5-1.17,6.76-1.4,4.19-.47,10.48-.7,17.24-.93,12.35-14.91,30.76-32.39,40.31-38.68-8.85,3.26-24.7,2.8-49.86,1.86Z"/><path d="M191.29,122.56c4.43-3.03,9.79-7.22,14.21-11.18,1.4-1.17,2.1-1.4,2.56-.93,.47,.7-.47,1.63-1.86,3.03-3.03,2.8-10.49,8.85-14.68,11.65-9.79,6.52-18.41,9.55-26.33,9.55-8.62,0-12.58-3.26-12.35-9.32,.23-4.66,2.33-8.85,6.99-14.45l-.23-.23-4.66,4.19c-1.17,.93-1.86,1.17-2.33,.7-.47-.7,.47-1.63,1.4-2.56,3.03-2.8,5.13-4.43,8.62-6.99,2.56-1.86,6.99-4.66,11.42-6.99,6.76-3.5,13.75-6.52,20.04-6.52,5.36,0,7.22,3.26,6.99,6.29-.47,6.06-7.92,10.72-14.91,14.21-6.76,3.26-14.68,6.06-20.04,7.46-.93,1.86-1.4,3.96-1.4,5.36,0,3.49,1.86,5.36,5.36,5.36,3.03,0,10.95-1.63,21.2-8.62Zm-7.92-11.65c5.83-3.96,9.32-8.85,9.55-12.12,.23-2.1-.7-3.26-2.8-3.26s-5.59,2.33-10.25,6.76c-3.73,3.49-9.55,10.95-12.35,15.61,4.66-1.17,10.95-3.73,15.84-6.99Z"/><path d="M264.69,92.73c4.89-.23,5.36,.93,3.03,3.73-3.03,3.5-8.15,9.32-13.05,15.38-3.03,3.73-6.06,7.69-8.16,11.42-1.63,2.8-1.63,4.66-.7,5.36,1.17,.93,3.49,0,5.36-.93,2.33-1.17,6.76-4.19,10.49-7.22,4.89-3.96,8.62-7.22,11.18-9.55,1.4-1.17,2.56-2.33,3.26-1.63,.7,.7-.47,1.86-3.03,4.19-3.03,2.8-8.62,7.69-13.05,11.18-4.66,3.73-12.35,9.32-20.04,9.32-4.43,0-6.52-2.1-6.76-4.89-.23-2.56,1.17-5.83,3.26-8.39l-.23-.23c-6.06,5.36-16.78,13.05-25.63,13.51-5.13,.23-10.49-1.86-9.55-9.32,.47-3.5,2.33-7.22,6.52-12.12l-.23-.23-3.03,2.8c-.93,.7-1.63,1.17-2.1,.7-.47-.7,.7-2.1,3.26-4.43,.7-.7,4.66-3.96,6.99-5.59,2.33-1.63,6.29-4.19,10.72-6.52,9.09-4.66,17.24-7.46,23.3-6.52,4.66,.7,6.29,4.89,4.89,8.85,5.59-5.83,9.55-8.85,13.28-8.85Zm-40.54,17.01c-9.55,9.32-13.51,15.38-13.05,18.41,.23,1.63,1.4,2.33,3.03,2.33,4.43,0,13.28-5.13,19.57-10.95,7.46-6.52,15.84-16.54,16.08-20.27,.23-3.03-1.63-4.19-4.19-4.19-4.66,0-13.05,6.29-21.44,14.68Z"/><path d="M284.72,114.17c2.56-3.5,6.76-8.85,9.32-12.12,1.63-2.1,2.1-3.26,1.63-3.96-.7-.93-2.1-.47-3.5,.23-2.8,1.4-6.29,3.96-9.09,6.29-3.03,2.56-6.76,5.82-10.02,8.85-2.33,2.1-3.26,2.8-3.96,2.1-.47-.7,.7-1.86,3.5-4.43,2.8-2.56,7.92-7.46,12.12-10.72,6.29-4.89,10.95-7.69,15.84-7.69,4.43,0,5.83,2.56,5.83,5.13,0,2.8-1.86,5.83-4.89,10.02-1.86,2.56-5.13,6.76-6.99,9.32l.47,.47c2.56-2.56,8.16-8.16,14.21-13.05,3.73-3.03,7.46-6.06,11.42-8.62,3.5-2.33,5.36-3.03,6.76-3.26,1.17-.23,4.19-.23,5.36,.23,.7,.23,.93,1.17-1.63,3.26-3.26,2.8-7.69,6.76-8.85,10.72-1.86,6.29,.93,9.09,4.43,9.09,2.8,0,5.36-2.1,7.92-4.43,1.63-1.4,2.33-1.86,3.03-1.4,.47,.47-.23,1.4-2.33,3.5-2.1,2.1-5.36,4.43-8.62,4.66-4.43,.23-7.92-.93-10.02-4.19-1.63-2.56-1.63-7.46,.47-12.35-3.5,2.56-8.16,6.06-10.02,7.69-6.76,5.83-14.45,13.05-23.53,21.9-1.63,1.63-3.5,2.1-6.06,2.1-3.26,0-4.89-.47-3.03-3.73,1.63-3.03,6.52-10.72,10.25-15.61Z"/><path d="M336.21,112.77c-1.63,1.4-2.33,1.63-2.8,1.17s0-1.4,1.63-2.8l17.01-15.15c-3.03,0-5.59,.23-8.39,.23-1.63,0-2.8,0-2.56-1.17,.23-.93,2.56-1.17,6.29-1.4,3.03-.23,5.59-.23,6.52-.23,7.22-8.85,16.54-19.11,21.9-24.23,4.19-4.19,9.79-9.55,14.68-9.55,2.33,0,3.26,.7,3.5,1.4-2.8,2.56-8.85,9.09-14.21,15.15-5.36,6.06-9.55,11.18-14.21,17.24,5.36-.23,9.55-.23,13.28-.23,1.86,0,3.5,.23,3.26,1.4-.23,1.4-2.33,1.17-4.19,1.17-5.13,0-8.85,0-14.21,.23-4.66,5.59-12.58,17.48-16.78,25.63-1.4,2.56-2.1,5.83-.23,6.76,1.4,.7,3.96,0,5.83-.93,2.8-1.4,6.76-3.96,10.49-6.99,4.19-3.26,8.15-6.76,10.95-9.32,1.17-.93,2.56-2.33,3.26-1.63,.47,.47,0,1.17-1.63,2.8-2.56,2.56-9.32,8.62-14.21,12.35-4.19,3.26-12.58,9.55-21.44,9.55-5.36,0-7.22-3.03-6.99-6.52,.47-5.83,5.83-14.21,12.58-23.07-3.73,3.03-6.52,5.59-9.32,8.15Z"/><path d="M498.61,8.39c-1.86,11.18-24.23,29.59-47.77,49.16-13.98,11.65-32.39,25.63-46.13,37.98-12.12,14.91-19.11,24.23-27.49,36.12,2.33-.47,6.76-1.86,10.02-3.26,3.26-1.4,7.92-3.5,13.05-6.76,5.13-3.26,10.48-7.69,13.28-10.25,.93-.93,3.03-2.8,3.73-2.1,.7,.7-1.4,2.56-2.1,3.26-3.26,3.26-9.32,8.15-15.15,11.88-6.52,3.96-13.98,6.99-18.41,8.62-2.56,.93-4.66,2.1-5.83,3.73-1.63,2.33-2.1,3.73-3.26,7.46-3.73,12.12-11.42,30.29-19.57,44.27-7.46,13.05-17.71,27.5-27.03,34.48-3.5,2.8-6.99,4.19-10.02,3.73-3.03-.47-4.89-3.26-3.73-8.85,2.56-12.58,18.17-39.61,34.72-62.21,11.88-16.31,27.26-36.35,41.01-53.82l-.23-.23c-2.8,2.1-8.15,6.99-12.35,10.95-1.4,1.17-2.1,1.4-2.56,.93-.47-.47,0-1.17,1.4-2.56,5.59-5.36,13.75-12.12,18.87-16.08l25.86-31.92c17.94-20.97,41.94-45.2,53.82-53.82,5.83-4.19,12.58-9.09,19.11-9.09,5.59,0,7.46,3.96,6.76,8.39Zm-155.88,171.02c-7.69,11.65-18.64,28.43-22.37,37.05-1.4,3.03-1.17,4.89,0,5.59,1.4,.7,3.03,0,5.83-2.1,6.06-4.66,15.61-16.54,25.4-33.55,8.85-15.14,17.48-37.98,20.5-48-14.91,19.11-16.54,21.9-29.36,41.01Zm106.25-124.42c22.37-20.04,43.1-37.98,44.04-48.23,.23-2.8-1.17-4.19-3.73-4.19-3.73,0-9.32,4.66-14.45,9.32-7.69,7.22-18.17,18.64-30.29,33.09-17.24,20.27-23.07,27.96-35.65,44.5,21.9-19.11,29.59-25.16,40.08-34.48Z"/><path d="M422.88,106.25c-3.5,2.8-6.06,4.89-8.39,6.99-1.86,1.63-2.8,2.33-3.5,1.86-.47-.47,0-1.4,2.56-3.73,2.56-2.33,10.95-9.32,16.54-13.05,6.06-4.19,9.09-5.13,13.51-5.13,4.89,0,5.36,.7,2.56,3.73-3.03,3.26-7.46,8.62-12.12,14.45-3.73,4.89-7.46,10.02-8.62,12.58-.93,1.86-.93,3.5-.23,4.19,.93,.93,3.03,.7,5.36-.47,5.13-2.8,10.25-6.52,17.48-12.12,11.18-8.62,17.71-14.45,25.16-20.27,1.86-1.4,3.26-2.56,6.76-2.56,3.96,0,6.29,.47,3.5,3.73-4.19,5.13-7.69,8.85-12.35,14.91-3.96,4.89-6.99,9.09-8.62,11.88-1.4,2.33-1.63,4.43-.7,5.13,1.17,.93,3.03,.47,5.36-.7s6.76-3.96,10.49-6.99c4.66-3.73,8.62-7.22,11.18-9.55,1.4-1.4,2.8-2.33,3.26-1.63,.7,.47-1.17,2.33-1.86,3.03-2.8,2.8-8.62,7.69-14.21,12.12-4.19,3.26-12.35,9.32-20.04,9.32-4.66,0-7.22-2.1-7.22-5.59,0-3.26,1.63-6.52,3.73-9.55,2.56-3.73,6.99-8.16,10.95-12.12l-.23-.23-18.64,14.68c-9.55,7.22-17.94,12.81-24.93,12.81-4.89,0-7.92-2.33-7.69-6.52,.23-3.26,2.33-6.76,4.43-9.55,4.66-6.29,9.32-11.88,16.54-18.64-1.63,.7-6.52,4.19-10.02,6.99Z"/><path d="M499.77,103.92c-3.5,3.03-6.99,6.29-9.55,8.62-1.4,1.17-2.1,1.4-2.56,.7-.23-.7,.47-1.4,1.17-2.1,.93-.93,9.09-8.16,15.84-13.75,2.33-2.8,17.01-19.57,20.27-23.07,11.42-12.12,25.4-25.86,31.69-31.69,2.8-2.56,6.06-5.36,8.39-5.36s3.03,1.4,3.03,2.56c0,2.33-3.03,6.52-6.29,10.02-7.22,7.46-14.91,14.21-24.23,22.6-1.86,1.63-4.19,4.19-7.22,7.69-8.62,10.25-24.23,30.99-29.36,41.71-1.17,2.33-1.86,5.13-.47,6.29,1.4,1.17,5.13-.23,7.22-1.4,2.1-1.17,6.06-3.73,9.55-6.52,4.19-3.26,6.99-5.59,11.42-9.55,4.66-4.19,9.32-8.39,14.68-13.28,6.76-8.85,17.71-22.6,27.73-34.25,16.78-19.57,39.38-42.64,52.89-53.82,5.36-4.19,12.58-9.32,19.34-9.32,6.06,0,7.69,4.19,6.99,8.39-1.86,11.18-24,29.82-47.53,49.4-14.21,11.65-28.89,22.83-46.13,37.98-3.96,4.43-14.21,19.57-17.47,26.56-.93,2.1-1.63,4.66-.23,5.82,1.4,1.17,5.13-.23,7.22-1.4,3.03-1.63,6.29-3.96,9.55-6.52,4.19-3.26,7.22-5.83,10.25-8.62,.93-.93,2.8-2.56,3.5-1.86,.47,.47-.23,1.4-1.63,2.8-2.8,2.8-8.62,7.92-14.21,12.12-4.66,3.49-13.28,9.32-20.97,9.32-4.66,0-7.46-2.1-7.22-6.29,.23-5.83,6.76-14.68,13.28-23.3l-.23-.23c-2.33,2.1-7.22,6.76-9.09,8.39-2.8,2.56-9.09,8.15-14.21,12.12-4.66,3.73-13.28,9.32-21.2,9.32-4.43,0-7.22-2.1-6.99-6.29,.23-3.26,1.86-7.22,4.66-11.88,2.1-3.49,5.36-7.92,8.39-11.65l-.23-.23Zm101.12-48.7c22.6-19.57,43.11-37.98,44.04-48.23,.23-3.03-1.4-4.43-3.96-4.43-3.96,0-9.55,4.66-14.45,9.32-7.69,7.69-18.17,18.87-30.29,33.32-17.01,20.27-23.07,27.73-35.65,44.5,22.14-19.34,29.59-25.16,40.31-34.48Z"/></g><g><path class="cls-1" d="M78.06,45.2c-27.03-.93-50.79,9.55-50.79,32.62,0,7.92,5.59,18.64,17.01,22.37,2.1,.7,3.03,.47,2.8,1.17-.23,.7-2.8,.7-4.43,.23-11.88-3.5-19.57-13.75-20.04-24.23-.7-21.2,17.01-37.98,52.43-37.05,15.84,.47,47.77,4.66,55.22,.47,3.26-1.86,6.06-3.73,7.69-2.8,1.4,.93-.7,1.86-3.03,4.19-5.83,5.59-10.95,10.95-16.78,18.41-6.99,8.62-11.88,15.61-16.31,21.2h33.32c3.73-4.43,8.16-9.79,19.57-20.27,10.95-10.25,21.2-17.71,29.36-22.37,7.46-4.19,15.61-6.99,23.3-6.99,8.62,0,13.51,4.19,14.68,7.46,.7,1.86,.47,3.26-.23,3.5-.47,.23-.47-.7-1.17-2.1-1.86-3.73-5.59-6.52-13.05-6.52s-15.38,3.73-21.2,7.92c-6.06,4.43-11.88,9.79-21.2,19.81-6.06,6.52-13.05,15.15-16.31,19.57,6.29,.23,14.45,.47,18.64,.93,1.86,.23,5.36,.47,5.36,1.17,0,.93-3.5,.7-5.13,.7-8.16,0-15.84,0-21.2,.23-10.49,13.28-25.4,32.62-25.4,41.24,0,2.8,2.1,3.96,4.43,3.96,3.96,0,9.32-2.1,16.54-7.22,3.26-2.33,9.79-7.92,13.28-10.95,1.4-1.17,2.33-1.63,2.8-1.17,.47,.47,0,1.17-1.4,2.56-3.03,2.8-9.79,8.62-13.51,11.42-3.5,2.56-12.58,9.32-21.67,9.32-6.76,0-11.18-3.5-11.18-10.25,0-12.12,16.31-31.92,22.14-38.91l-32.85,.23c-22.6,27.73-43.34,51.73-76.42,51.73-11.18,0-23.3-4.89-23.3-18.17,0-6.29,5.13-12.35,12.12-12.12,4.66,.23,7.92,3.73,7.46,8.62-.23,2.8-1.63,5.13-3.73,6.99-2.1,1.86-3.03,3.73-3.03,5.82,0,4.89,6.76,6.76,11.65,6.76,24.93,0,47.53-32.62,60.81-49.63-3.73,0-9.09,.23-17.24,.47-1.63,0-4.89,.23-4.43-1.17,.23-.93,3.5-1.17,6.76-1.4,4.19-.47,10.48-.7,17.24-.93,12.35-14.91,30.76-32.39,40.31-38.68-8.85,3.26-24.7,2.8-49.86,1.86Z"/><path class="cls-1" d="M191.29,122.56c4.43-3.03,9.79-7.22,14.21-11.18,1.4-1.17,2.1-1.4,2.56-.93,.47,.7-.47,1.63-1.86,3.03-3.03,2.8-10.49,8.85-14.68,11.65-9.79,6.52-18.41,9.55-26.33,9.55-8.62,0-12.58-3.26-12.35-9.32,.23-4.66,2.33-8.85,6.99-14.45l-.23-.23-4.66,4.19c-1.17,.93-1.86,1.17-2.33,.7-.47-.7,.47-1.63,1.4-2.56,3.03-2.8,5.13-4.43,8.62-6.99,2.56-1.86,6.99-4.66,11.42-6.99,6.76-3.5,13.75-6.52,20.04-6.52,5.36,0,7.22,3.26,6.99,6.29-.47,6.06-7.92,10.72-14.91,14.21-6.76,3.26-14.68,6.06-20.04,7.46-.93,1.86-1.4,3.96-1.4,5.36,0,3.49,1.86,5.36,5.36,5.36,3.03,0,10.95-1.63,21.2-8.62Zm-7.92-11.65c5.83-3.96,9.32-8.85,9.55-12.12,.23-2.1-.7-3.26-2.8-3.26s-5.59,2.33-10.25,6.76c-3.73,3.49-9.55,10.95-12.35,15.61,4.66-1.17,10.95-3.73,15.84-6.99Z"/><path class="cls-1" d="M264.69,92.73c4.89-.23,5.36,.93,3.03,3.73-3.03,3.5-8.15,9.32-13.05,15.38-3.03,3.73-6.06,7.69-8.16,11.42-1.63,2.8-1.63,4.66-.7,5.36,1.17,.93,3.49,0,5.36-.93,2.33-1.17,6.76-4.19,10.49-7.22,4.89-3.96,8.62-7.22,11.18-9.55,1.4-1.17,2.56-2.33,3.26-1.63,.7,.7-.47,1.86-3.03,4.19-3.03,2.8-8.62,7.69-13.05,11.18-4.66,3.73-12.35,9.32-20.04,9.32-4.43,0-6.52-2.1-6.76-4.89-.23-2.56,1.17-5.83,3.26-8.39l-.23-.23c-6.06,5.36-16.78,13.05-25.63,13.51-5.13,.23-10.49-1.86-9.55-9.32,.47-3.5,2.33-7.22,6.52-12.12l-.23-.23-3.03,2.8c-.93,.7-1.63,1.17-2.1,.7-.47-.7,.7-2.1,3.26-4.43,.7-.7,4.66-3.96,6.99-5.59,2.33-1.63,6.29-4.19,10.72-6.52,9.09-4.66,17.24-7.46,23.3-6.52,4.66,.7,6.29,4.89,4.89,8.85,5.59-5.83,9.55-8.85,13.28-8.85Zm-40.54,17.01c-9.55,9.32-13.51,15.38-13.05,18.41,.23,1.63,1.4,2.33,3.03,2.33,4.43,0,13.28-5.13,19.57-10.95,7.46-6.52,15.84-16.54,16.08-20.27,.23-3.03-1.63-4.19-4.19-4.19-4.66,0-13.05,6.29-21.44,14.68Z"/><path class="cls-1" d="M284.72,114.17c2.56-3.5,6.76-8.85,9.32-12.12,1.63-2.1,2.1-3.26,1.63-3.96-.7-.93-2.1-.47-3.5,.23-2.8,1.4-6.29,3.96-9.09,6.29-3.03,2.56-6.76,5.82-10.02,8.85-2.33,2.1-3.26,2.8-3.96,2.1-.47-.7,.7-1.86,3.5-4.43,2.8-2.56,7.92-7.46,12.12-10.72,6.29-4.89,10.95-7.69,15.84-7.69,4.43,0,5.83,2.56,5.83,5.13,0,2.8-1.86,5.83-4.89,10.02-1.86,2.56-5.13,6.76-6.99,9.32l.47,.47c2.56-2.56,8.16-8.16,14.21-13.05,3.73-3.03,7.46-6.06,11.42-8.62,3.5-2.33,5.36-3.03,6.76-3.26,1.17-.23,4.19-.23,5.36,.23,.7,.23,.93,1.17-1.63,3.26-3.26,2.8-7.69,6.76-8.85,10.72-1.86,6.29,.93,9.09,4.43,9.09,2.8,0,5.36-2.1,7.92-4.43,1.63-1.4,2.33-1.86,3.03-1.4,.47,.47-.23,1.4-2.33,3.5-2.1,2.1-5.36,4.43-8.62,4.66-4.43,.23-7.92-.93-10.02-4.19-1.63-2.56-1.63-7.46,.47-12.35-3.5,2.56-8.16,6.06-10.02,7.69-6.76,5.83-14.45,13.05-23.53,21.9-1.63,1.63-3.5,2.1-6.06,2.1-3.26,0-4.89-.47-3.03-3.73,1.63-3.03,6.52-10.72,10.25-15.61Z"/><path class="cls-1" d="M336.21,112.77c-1.63,1.4-2.33,1.63-2.8,1.17s0-1.4,1.63-2.8l17.01-15.15c-3.03,0-5.59,.23-8.39,.23-1.63,0-2.8,0-2.56-1.17,.23-.93,2.56-1.17,6.29-1.4,3.03-.23,5.59-.23,6.52-.23,7.22-8.85,16.54-19.11,21.9-24.23,4.19-4.19,9.79-9.55,14.68-9.55,2.33,0,3.26,.7,3.5,1.4-2.8,2.56-8.85,9.09-14.21,15.15-5.36,6.06-9.55,11.18-14.21,17.24,5.36-.23,9.55-.23,13.28-.23,1.86,0,3.5,.23,3.26,1.4-.23,1.4-2.33,1.17-4.19,1.17-5.13,0-8.85,0-14.21,.23-4.66,5.59-12.58,17.48-16.78,25.63-1.4,2.56-2.1,5.83-.23,6.76,1.4,.7,3.96,0,5.83-.93,2.8-1.4,6.76-3.96,10.49-6.99,4.19-3.26,8.15-6.76,10.95-9.32,1.17-.93,2.56-2.33,3.26-1.63,.47,.47,0,1.17-1.63,2.8-2.56,2.56-9.32,8.62-14.21,12.35-4.19,3.26-12.58,9.55-21.44,9.55-5.36,0-7.22-3.03-6.99-6.52,.47-5.83,5.83-14.21,12.58-23.07-3.73,3.03-6.52,5.59-9.32,8.15Z"/><path class="cls-1" d="M498.61,8.39c-1.86,11.18-24.23,29.59-47.77,49.16-13.98,11.65-32.39,25.63-46.13,37.98-12.12,14.91-19.11,24.23-27.49,36.12,2.33-.47,6.76-1.86,10.02-3.26,3.26-1.4,7.92-3.5,13.05-6.76,5.13-3.26,10.48-7.69,13.28-10.25,.93-.93,3.03-2.8,3.73-2.1,.7,.7-1.4,2.56-2.1,3.26-3.26,3.26-9.32,8.15-15.15,11.88-6.52,3.96-13.98,6.99-18.41,8.62-2.56,.93-4.66,2.1-5.83,3.73-1.63,2.33-2.1,3.73-3.26,7.46-3.73,12.12-11.42,30.29-19.57,44.27-7.46,13.05-17.71,27.5-27.03,34.48-3.5,2.8-6.99,4.19-10.02,3.73-3.03-.47-4.89-3.26-3.73-8.85,2.56-12.58,18.17-39.61,34.72-62.21,11.88-16.31,27.26-36.35,41.01-53.82l-.23-.23c-2.8,2.1-8.15,6.99-12.35,10.95-1.4,1.17-2.1,1.4-2.56,.93-.47-.47,0-1.17,1.4-2.56,5.59-5.36,13.75-12.12,18.87-16.08l25.86-31.92c17.94-20.97,41.94-45.2,53.82-53.82,5.83-4.19,12.58-9.09,19.11-9.09,5.59,0,7.46,3.96,6.76,8.39Zm-155.88,171.02c-7.69,11.65-18.64,28.43-22.37,37.05-1.4,3.03-1.17,4.89,0,5.59,1.4,.7,3.03,0,5.83-2.1,6.06-4.66,15.61-16.54,25.4-33.55,8.85-15.14,17.48-37.98,20.5-48-14.91,19.11-16.54,21.9-29.36,41.01Zm106.25-124.42c22.37-20.04,43.1-37.98,44.04-48.23,.23-2.8-1.17-4.19-3.73-4.19-3.73,0-9.32,4.66-14.45,9.32-7.69,7.22-18.17,18.64-30.29,33.09-17.24,20.27-23.07,27.96-35.65,44.5,21.9-19.11,29.59-25.16,40.08-34.48Z"/><path class="cls-1" d="M422.88,106.25c-3.5,2.8-6.06,4.89-8.39,6.99-1.86,1.63-2.8,2.33-3.5,1.86-.47-.47,0-1.4,2.56-3.73,2.56-2.33,10.95-9.32,16.54-13.05,6.06-4.19,9.09-5.13,13.51-5.13,4.89,0,5.36,.7,2.56,3.73-3.03,3.26-7.46,8.62-12.12,14.45-3.73,4.89-7.46,10.02-8.62,12.58-.93,1.86-.93,3.5-.23,4.19,.93,.93,3.03,.7,5.36-.47,5.13-2.8,10.25-6.52,17.48-12.12,11.18-8.62,17.71-14.45,25.16-20.27,1.86-1.4,3.26-2.56,6.76-2.56,3.96,0,6.29,.47,3.5,3.73-4.19,5.13-7.69,8.85-12.35,14.91-3.96,4.89-6.99,9.09-8.62,11.88-1.4,2.33-1.63,4.43-.7,5.13,1.17,.93,3.03,.47,5.36-.7s6.76-3.96,10.49-6.99c4.66-3.73,8.62-7.22,11.18-9.55,1.4-1.4,2.8-2.33,3.26-1.63,.7,.47-1.17,2.33-1.86,3.03-2.8,2.8-8.62,7.69-14.21,12.12-4.19,3.26-12.35,9.32-20.04,9.32-4.66,0-7.22-2.1-7.22-5.59,0-3.26,1.63-6.52,3.73-9.55,2.56-3.73,6.99-8.16,10.95-12.12l-.23-.23-18.64,14.68c-9.55,7.22-17.94,12.81-24.93,12.81-4.89,0-7.92-2.33-7.69-6.52,.23-3.26,2.33-6.76,4.43-9.55,4.66-6.29,9.32-11.88,16.54-18.64-1.63,.7-6.52,4.19-10.02,6.99Z"/><path class="cls-1" d="M499.77,103.92c-3.5,3.03-6.99,6.29-9.55,8.62-1.4,1.17-2.1,1.4-2.56,.7-.23-.7,.47-1.4,1.17-2.1,.93-.93,9.09-8.16,15.84-13.75,2.33-2.8,17.01-19.57,20.27-23.07,11.42-12.12,25.4-25.86,31.69-31.69,2.8-2.56,6.06-5.36,8.39-5.36s3.03,1.4,3.03,2.56c0,2.33-3.03,6.52-6.29,10.02-7.22,7.46-14.91,14.21-24.23,22.6-1.86,1.63-4.19,4.19-7.22,7.69-8.62,10.25-24.23,30.99-29.36,41.71-1.17,2.33-1.86,5.13-.47,6.29,1.4,1.17,5.13-.23,7.22-1.4,2.1-1.17,6.06-3.73,9.55-6.52,4.19-3.26,6.99-5.59,11.42-9.55,4.66-4.19,9.32-8.39,14.68-13.28,6.76-8.85,17.71-22.6,27.73-34.25,16.78-19.57,39.38-42.64,52.89-53.82,5.36-4.19,12.58-9.32,19.34-9.32,6.06,0,7.69,4.19,6.99,8.39-1.86,11.18-24,29.82-47.53,49.4-14.21,11.65-28.89,22.83-46.13,37.98-3.96,4.43-14.21,19.57-17.47,26.56-.93,2.1-1.63,4.66-.23,5.82,1.4,1.17,5.13-.23,7.22-1.4,3.03-1.63,6.29-3.96,9.55-6.52,4.19-3.26,7.22-5.83,10.25-8.62,.93-.93,2.8-2.56,3.5-1.86,.47,.47-.23,1.4-1.63,2.8-2.8,2.8-8.62,7.92-14.21,12.12-4.66,3.49-13.28,9.32-20.97,9.32-4.66,0-7.46-2.1-7.22-6.29,.23-5.83,6.76-14.68,13.28-23.3l-.23-.23c-2.33,2.1-7.22,6.76-9.09,8.39-2.8,2.56-9.09,8.15-14.21,12.12-4.66,3.73-13.28,9.32-21.2,9.32-4.43,0-7.22-2.1-6.99-6.29,.23-3.26,1.86-7.22,4.66-11.88,2.1-3.49,5.36-7.92,8.39-11.65l-.23-.23Zm101.12-48.7c22.6-19.57,43.11-37.98,44.04-48.23,.23-3.03-1.4-4.43-3.96-4.43-3.96,0-9.55,4.66-14.45,9.32-7.69,7.69-18.17,18.87-30.29,33.32-17.01,20.27-23.07,27.73-35.65,44.5,22.14-19.34,29.59-25.16,40.31-34.48Z"/></g></g></g></svg>