<?xml version="1.0" encoding="UTF-8"?>
<svg id="_レイヤー_2" data-name="レイヤー 2" xmlns="http://www.w3.org/2000/svg" viewBox="0 0 832.86 449.27">
  <defs>
    <style>
      .cls-1 {
        fill: #fff;
      }

      .cls-2 {
        fill: #7ecef4;
      }

      .cls-3 {
        fill: #ed6c00;
      }

      .cls-4 {
        fill: #e4007f;
      }

      .cls-5 {
        fill: #fff33f;
      }

      .cls-6 {
        fill: #e5004f;
      }

      .cls-7 {
        fill: #35b597;
      }

      .cls-8 {
        fill: #094;
      }

      .cls-9 {
        fill: #b08bbe;
      }

      .cls-10 {
        fill: #541b86;
      }

      .cls-11 {
        fill: #e60012;
      }

      .cls-12 {
        fill: #fff799;
      }

      .cls-13 {
        fill: #004098;
      }

      .cls-14 {
        fill: #0f0e18;
      }

      .cls-15 {
        fill: #f39800;
      }
    </style>
  </defs>
  <g id="_レイヤー_1-2" data-name="レイヤー 1">
    <g>
      <path class="cls-2" d="M145.54,375.28c-.03,.73-.08,1.46-.16,2.2-.08,.74-.17,1.49-.3,2.25-.12,.76-.27,1.52-.44,2.29-.17,.77-.37,1.55-.59,2.33-.97,3.47-2.38,6.88-4.17,10.18-1.8,3.33-4,6.55-6.52,9.63-2.54,3.09-5.41,6.04-8.56,8.78-3.16,2.76-6.6,5.32-10.26,7.62,3.08,.5,6.23,.93,9.44,1.31,3.22,.38,6.5,.69,9.84,.94,3.34,.25,6.75,.44,10.22,.57,3.47,.13,6.99,.19,10.58,.19,1.59,0,3.16,0,4.73,0,1.56,0,3.11,0,4.64,0,1.53,0,3.06,0,4.56-.02s3-.01,4.49-.02c-.82-1.88-1.48-3.84-1.98-5.85-.5-2-.83-4.06-.99-6.17-.16-2.1-.15-4.24,.04-6.42,.19-2.17,.55-4.37,1.1-6.6,.51-2.05,1.15-4.06,1.93-6.02,.77-1.96,1.68-3.87,2.69-5.73,1.02-1.85,2.15-3.65,3.38-5.4,1.23-1.74,2.57-3.42,4-5.03-1.32,0-2.66,.01-4,.02-1.35,0-2.7,0-4.07,.01-1.37,0-2.75,0-4.14,0-1.39,0-2.8,0-4.21,0-1.88,0-3.73-.02-5.56-.07-1.83-.04-3.63-.11-5.4-.2-1.77-.09-3.52-.2-5.24-.33-1.72-.13-3.41-.28-5.07-.46m177.49-5.61c-3.09,.36-6.28,.72-9.61,1.06-3.33,.35-6.8,.69-10.44,1.01-3.64,.33-7.45,.65-11.46,.95-4.01,.3-8.22,.6-12.66,.87,1.1,1.76,2.05,3.61,2.85,5.53,.8,1.93,1.43,3.94,1.9,6.02,.46,2.09,.75,4.25,.86,6.47,.1,2.23,.01,4.52-.28,6.86-.24,1.93-.61,3.85-1.11,5.74-.5,1.9-1.12,3.77-1.87,5.61-.75,1.85-1.61,3.66-2.58,5.44-.98,1.78-2.07,3.52-3.26,5.22,5.35-.34,10.41-.7,15.21-1.08,4.8-.38,9.34-.78,13.68-1.19,4.33-.41,8.45-.84,12.4-1.28,3.95-.44,7.73-.89,11.38-1.34-1.78-2.13-3.35-4.38-4.68-6.74-1.33-2.35-2.42-4.81-3.26-7.35-.83-2.53-1.42-5.13-1.73-7.8-.31-2.65-.35-5.36-.11-8.11,.13-1.42,.33-2.82,.6-4.2,.27-1.38,.61-2.73,1.01-4.06,.4-1.33,.87-2.63,1.41-3.91,.53-1.27,1.12-2.52,1.77-3.74m144.15-12.63c-4.75,.12-9.31,.25-13.69,.39-4.38,.14-8.58,.3-12.61,.47-4.03,.17-7.9,.35-11.62,.55-3.72,.19-7.29,.4-10.73,.62,1.64,1.82,3.13,3.74,4.45,5.77,1.32,2.03,2.47,4.17,3.42,6.39,.96,2.23,1.71,4.55,2.26,6.94,.54,2.4,.87,4.88,.96,7.42,.06,1.62,.01,3.22-.13,4.8-.14,1.59-.37,3.16-.7,4.72-.33,1.56-.74,3.09-1.25,4.6-.51,1.51-1.1,3-1.77,4.45,3.24-.21,6.61-.41,10.11-.59,3.5-.19,7.14-.36,10.93-.53,3.79-.17,7.73-.32,11.83-.46,4.1-.14,8.37-.27,12.82-.38-1.35-1.79-2.58-3.63-3.66-5.54-1.08-1.9-2.02-3.85-2.81-5.84-.79-1.98-1.42-4.01-1.9-6.07-.48-2.05-.79-4.13-.94-6.24-.14-1.99-.13-3.93,.03-5.84,.16-1.89,.46-3.75,.89-5.55,.43-1.79,1-3.54,1.69-5.22,.69-1.68,1.5-3.3,2.42-4.86m118.68-.63h-24.44c1.41,1.6,2.71,3.26,3.9,4.98,1.19,1.73,2.27,3.52,3.22,5.37,.96,1.85,1.78,3.76,2.47,5.72,.69,1.96,1.24,3.98,1.64,6.03,.39,2.04,.62,4.06,.7,6.05,.07,2-.01,3.96-.25,5.89-.24,1.93-.62,3.83-1.16,5.68-.53,1.85-1.22,3.66-2.03,5.4h25.55c-1.71-1.84-3.28-3.71-4.69-5.6-1.4-1.89-2.66-3.8-3.74-5.74-1.08-1.93-2-3.88-2.76-5.85-.75-1.96-1.33-3.94-1.74-5.92-.4-1.98-.63-3.93-.67-5.85-.05-1.91,.08-3.78,.37-5.62,.29-1.83,.74-3.63,1.35-5.39,.61-1.75,1.37-3.46,2.28-5.13m-509.33-32.58c-2.96,1.68-6.07,3.21-9.27,4.55-3.22,1.35-6.54,2.51-9.92,3.46-3.39,.95-6.84,1.69-10.3,2.2-3.46,.5-6.94,.77-10.38,.77-1.3,0-2.57-.04-3.81-.11-1.24-.07-2.46-.18-3.64-.33-1.18-.14-2.34-.32-3.46-.54-1.12-.21-2.22-.46-3.28-.74,.07,3.37,.31,6.73,.74,10.09,.43,3.38,1.06,6.74,1.9,10.08,.85,3.36,1.91,6.69,3.22,9.96,1.31,3.3,2.87,6.55,4.69,9.74,.24,.41,.48,.82,.72,1.23,.24,.41,.49,.82,.74,1.22,.25,.4,.51,.81,.77,1.21,.26,.4,.52,.8,.79,1.2,2.35-4.11,5.26-8.01,8.61-11.63,3.32-3.59,7.08-6.91,11.15-9.9,4.04-2.97,8.4-5.6,12.96-7.85,4.54-2.23,9.28-4.08,14.12-5.47-.84-1.49-1.59-3.02-2.26-4.58-.67-1.55-1.27-3.13-1.79-4.74-.52-1.6-.97-3.22-1.35-4.86-.38-1.64-.69-3.29-.94-4.96m199.01-22.28c-1.46,.36-2.92,.69-4.37,.99-1.45,.3-2.9,.56-4.34,.79-1.44,.23-2.87,.43-4.29,.59-1.42,.16-2.83,.29-4.22,.39,.05,.59,.07,1.18,.08,1.78,0,.6,0,1.21-.03,1.82-.03,.61-.08,1.23-.14,1.85-.07,.62-.15,1.25-.26,1.88-.53,3.12-1.52,6.19-2.91,9.15-1.41,2.98-3.22,5.86-5.4,8.58-2.19,2.74-4.74,5.33-7.58,7.72-2.86,2.4-6.03,4.6-9.43,6.55,1.06,.1,2.14,.19,3.21,.27,1.08,.08,2.16,.14,3.25,.19,1.09,.05,2.19,.09,3.29,.12,1.1,.03,2.21,.04,3.33,.04,4.61,0,9.3-.22,14.05-.66,4.74-.44,9.54-1.1,14.35-1.97,4.8-.87,9.61-1.97,14.39-3.28,4.77-1.3,9.51-2.82,14.19-4.56,.12-.04,.23-.09,.35-.13,.12-.04,.23-.09,.35-.13,.12-.04,.23-.09,.35-.13,.12-.04,.23-.09,.35-.13-4.23-1.32-8.11-3.09-11.56-5.22-3.43-2.12-6.43-4.61-8.92-7.38-2.47-2.75-4.43-5.78-5.81-9.01-1.36-3.2-2.15-6.6-2.28-10.13m199.17-20.08c-1.1,2.8-2.68,5.47-4.66,7.94-2,2.49-4.41,4.78-7.18,6.83-2.78,2.05-5.92,3.85-9.36,5.35-3.45,1.5-7.18,2.69-11.14,3.51-.48,.13-.95,.25-1.44,.37s-.97,.23-1.46,.34c-.49,.11-.98,.21-1.48,.31-.5,.1-1,.19-1.5,.27,3.19,1.86,6.45,3.54,9.77,5.04,3.33,1.51,6.73,2.83,10.19,3.97,3.47,1.15,7,2.11,10.6,2.89,3.6,.78,7.26,1.38,10.99,1.79,1,.11,2,.21,3.01,.29,1,.08,2.01,.15,3.01,.21,1.01,.06,2.01,.1,3.02,.13,1.01,.03,2.02,.04,3.03,.04,1.68,0,3.36-.04,5.05-.12,1.69-.08,3.38-.19,5.07-.35,1.69-.16,3.39-.35,5.09-.58,1.7-.23,3.4-.5,5.11-.81-3.99-1.75-7.7-3.86-11.04-6.25-3.32-2.38-6.27-5.04-8.76-7.91-2.48-2.85-4.5-5.91-5.99-9.11-1.48-3.18-2.43-6.49-2.78-9.88-.03-.25-.05-.49-.07-.74-.02-.25-.03-.49-.05-.74-.01-.24-.02-.49-.03-.73,0-.24,0-.48,0-.73-.02,0-.05,0-.07,0-.02,0-.05,0-.07,0s-.05,0-.07,0c-.02,0-.05,0-.07,0-.56-.06-1.11-.13-1.67-.21-.56-.08-1.11-.18-1.67-.29-.56-.11-1.12-.23-1.67-.36-.56-.13-1.12-.28-1.68-.44m-247.93-16.9c-2.28,1.14-4.68,2.16-7.16,3.06-2.48,.9-5.05,1.67-7.68,2.3-2.63,.63-5.33,1.12-8.06,1.45-2.73,.33-5.5,.5-8.28,.5-1.68,0-3.32-.06-4.92-.18-1.6-.12-3.16-.3-4.68-.54-1.52-.24-2.99-.53-4.41-.88-1.42-.35-2.8-.75-4.12-1.2-.03,.07-.07,.13-.1,.2-.03,.07-.07,.14-.1,.2s-.07,.14-.1,.2c-.03,.07-.07,.14-.1,.2-.85,1.69-1.61,3.36-2.29,5.03-.68,1.68-1.28,3.34-1.8,5-.52,1.66-.95,3.31-1.29,4.95-.35,1.64-.61,3.27-.78,4.89,2.92-2.43,6.15-4.64,9.59-6.59,3.43-1.94,7.09-3.61,10.89-4.98,3.8-1.37,7.75-2.44,11.79-3.16,4.03-.72,8.16-1.11,12.32-1.11,.67,0,1.33,.01,1.99,.03,.66,.02,1.31,.05,1.96,.09,.65,.04,1.29,.09,1.92,.15,.63,.06,1.26,.13,1.89,.2,.36-.84,.7-1.68,1.03-2.51,.33-.83,.64-1.65,.93-2.47,.29-.82,.57-1.63,.83-2.44,.26-.81,.51-1.61,.74-2.4m461.36-9.66c-.26,.09-.52,.18-.79,.27-.27,.08-.54,.17-.81,.24-.27,.08-.55,.15-.83,.21-.28,.07-.57,.13-.85,.19,.38,.58,.75,1.16,1.1,1.76,.35,.59,.68,1.19,.99,1.79,.31,.6,.6,1.21,.87,1.83,.27,.62,.52,1.24,.75,1.86,1,2.72,1.56,5.38,1.69,7.95,.14,2.59-.15,5.09-.82,7.47-.68,2.39-1.76,4.65-3.2,6.74-1.45,2.1-3.27,4.03-5.42,5.75,.94,.1,1.87,.18,2.8,.25,.93,.07,1.85,.13,2.77,.18,.92,.05,1.83,.08,2.74,.11,.91,.02,1.81,.04,2.71,.04,3.71,0,7.32-.2,10.8-.61,3.48-.41,6.82-1.02,10.02-1.84,3.19-.81,6.23-1.83,9.09-3.05,2.85-1.21,5.53-2.62,8-4.23,1.43-.93,2.77-1.91,4.02-2.94,1.25-1.03,2.4-2.11,3.46-3.23,1.06-1.12,2.03-2.28,2.91-3.48,.87-1.19,1.66-2.43,2.35-3.69-.76,.13-1.54,.24-2.33,.34-.79,.1-1.59,.18-2.41,.24-.82,.07-1.65,.12-2.49,.15-.84,.03-1.7,.05-2.57,.05-4.02,0-8.08-.36-12.09-1.04-4.01-.68-7.96-1.67-11.79-2.93-3.82-1.26-7.5-2.79-10.98-4.54-3.46-1.74-6.72-3.71-9.69-5.85m-88.56-15.51c-.19,0-.38,0-.58,0-.19,0-.38,0-.58,.01-.19,0-.38,0-.57,.01-.19,0-.38,.01-.57,.02-4.27,.15-8.41,.56-12.43,1.24-4.02,.68-7.91,1.63-11.68,2.86-3.78,1.22-7.43,2.72-10.96,4.49-3.54,1.78-6.96,3.84-10.26,6.17-.1,.07-.2,.14-.3,.21s-.2,.14-.3,.21c-.1,.07-.2,.14-.3,.21-.1,.07-.2,.14-.3,.21,3.79,1.5,7.37,3.32,10.65,5.42,3.3,2.1,6.32,4.48,8.95,7.09,2.65,2.62,4.92,5.47,6.72,8.5,1.81,3.05,3.14,6.29,3.9,9.66,0,.02,.01,.05,.02,.07l.02,.07s.01,.05,.02,.07c0,.02,.01,.05,.02,.07,.63-.45,1.26-.91,1.89-1.36,.63-.46,1.26-.92,1.9-1.39,.63-.47,1.27-.94,1.91-1.42,.64-.48,1.27-.96,1.91-1.44,.67-.51,1.36-1.01,2.07-1.5,.71-.49,1.45-.97,2.22-1.43,.77-.46,1.57-.89,2.41-1.3,.84-.41,1.72-.79,2.65-1.13-.7-.95-1.35-1.92-1.95-2.9-.6-.98-1.14-1.97-1.63-2.97-.49-1-.92-2.01-1.29-3.03-.37-1.02-.69-2.05-.94-3.08-.58-2.36-.82-4.65-.75-6.86,.07-2.19,.45-4.3,1.1-6.3,.65-1.99,1.59-3.87,2.77-5.63,1.18-1.75,2.61-3.38,4.26-4.87m-255.69-3.94c-2.27,1.81-4.81,3.47-7.57,4.93-2.78,1.47-5.77,2.75-8.95,3.8-3.18,1.05-6.53,1.88-10,2.44-3.48,.56-7.07,.86-10.72,.86-.8,0-1.59-.01-2.38-.04-.79-.03-1.56-.07-2.34-.13s-1.53-.12-2.29-.21c-.76-.08-1.5-.18-2.24-.29,.89,1.13,1.85,2.26,2.86,3.39,1.02,1.14,2.1,2.27,3.24,3.41,1.14,1.14,2.35,2.28,3.62,3.42,1.27,1.15,2.61,2.29,4.01,3.44,.13,.11,.27,.22,.39,.33,.13,.11,.26,.22,.38,.33,.12,.11,.25,.22,.36,.33,.12,.11,.24,.22,.35,.34,1.32-.34,2.66-.64,4.02-.9,1.36-.26,2.73-.48,4.13-.66,1.39-.18,2.8-.31,4.22-.4,1.42-.09,2.85-.14,4.29-.14,3.52,0,6.92,.28,10.19,.8,3.27,.52,6.4,1.3,9.36,2.29,2.96,1,5.76,2.22,8.34,3.64,2.6,1.43,4.98,3.05,7.13,4.85,.11-3.25-.21-6.43-.93-9.51-.72-3.06-1.84-6.02-3.36-8.86-1.5-2.83-3.39-5.54-5.66-8.12-2.25-2.56-4.87-5-7.85-7.28-.23-.17-.45-.35-.68-.52-.22-.17-.44-.35-.66-.52-.22-.17-.43-.34-.64-.52-.21-.17-.42-.34-.62-.51m-280.5-3.18c-.8,.82-1.59,1.66-2.37,2.53-.79,.87-1.57,1.75-2.34,2.66-.78,.91-1.55,1.84-2.31,2.8-.76,.96-1.52,1.94-2.27,2.94-1.04,1.39-2.1,2.88-3.18,4.44-1.08,1.57-2.17,3.23-3.27,4.97-1.1,1.75-2.21,3.57-3.32,5.47-1.11,1.91-2.22,3.89-3.31,5.94,2.23-.84,4.5-1.59,6.8-2.25,2.29-.65,4.61-1.21,6.94-1.66,2.33-.45,4.66-.79,7-1.03,2.34-.23,4.67-.35,7-.35,1.96,0,3.85,.09,5.68,.25,1.83,.17,3.59,.41,5.29,.74,1.69,.32,3.32,.72,4.87,1.19,1.55,.47,3.03,1.01,4.43,1.63,.55-1.09,1.11-2.15,1.67-3.19,.56-1.03,1.13-2.04,1.7-3.02,.57-.98,1.14-1.93,1.71-2.84,.57-.92,1.14-1.8,1.71-2.66-4.41-.13-8.49-.7-12.16-1.66-3.66-.95-6.92-2.28-9.71-3.93-2.78-1.64-5.08-3.58-6.86-5.78-1.77-2.18-3.02-4.6-3.69-7.2m361.49-11.2c-1.76,.81-3.62,1.53-5.56,2.16-1.94,.63-3.97,1.18-6.06,1.62-2.09,.44-4.26,.78-6.47,1.01-2.22,.23-4.49,.35-6.8,.35-1.78,0-3.53-.07-5.26-.21-1.73-.14-3.42-.34-5.08-.61-1.66-.27-3.28-.59-4.86-.98-1.58-.39-3.11-.83-4.6-1.33,.35,2.18,.75,4.34,1.2,6.48,.45,2.15,.95,4.29,1.49,6.4,.55,2.12,1.15,4.22,1.79,6.29,.65,2.08,1.34,4.13,2.08,6.14,1.57-1.39,3.28-2.69,5.12-3.88,1.83-1.19,3.79-2.27,5.86-3.24,2.06-.97,4.23-1.82,6.49-2.55,2.26-.72,4.61-1.33,7.04-1.79,1.2-.3,2.43-.56,3.68-.79,1.25-.23,2.51-.42,3.8-.58,1.28-.16,2.59-.27,3.9-.35,1.32-.08,2.65-.12,4-.12,.21,0,.41,0,.62,0s.41,0,.62,0c.21,0,.41,0,.62,.01,.21,0,.41,.01,.62,.02-.42-1.12-.82-2.26-1.21-3.42-.39-1.15-.76-2.31-1.11-3.49-.35-1.17-.69-2.36-1.01-3.55-.32-1.19-.62-2.39-.91-3.6m-270.86-24.88c-.41,0-.82,0-1.23,0-.41,0-.82,0-1.23,.02-.41,0-.82,.02-1.23,.03-.41,.01-.82,.02-1.23,.04,1.68,1.34,3.12,2.83,4.29,4.45,1.17,1.62,2.08,3.37,2.68,5.23,.61,1.87,.91,3.84,.88,5.91-.03,2.07-.39,4.24-1.12,6.47-.23,.7-.49,1.39-.78,2.08-.29,.69-.62,1.38-.97,2.06-.35,.68-.74,1.36-1.15,2.03-.41,.67-.86,1.34-1.33,1.99,.76,.08,1.52,.17,2.28,.27,.76,.1,1.51,.21,2.27,.34,.75,.12,1.51,.26,2.25,.41,.75,.15,1.49,.31,2.23,.48,.16,.04,.32,.07,.47,.11,.16,.04,.31,.08,.47,.11,.16,.04,.31,.08,.46,.12,.15,.04,.31,.08,.46,.12,2.09-2.83,4.66-5.47,7.6-7.88,2.93-2.39,6.22-4.56,9.79-6.43,3.55-1.87,7.38-3.46,11.37-4.71,3.99-1.25,8.15-2.18,12.41-2.72-1.52-.8-3.1-1.56-4.74-2.27-1.64-.71-3.34-1.38-5.11-2.01-1.76-.62-3.59-1.2-5.48-1.74-1.89-.53-3.84-1.02-5.85-1.46-2.31-.51-4.65-.95-7-1.33-2.35-.38-4.72-.69-7.1-.94-2.38-.25-4.77-.44-7.17-.56-2.4-.12-4.81-.19-7.22-.19m500.7-8.97c.22,.37,.43,.73,.63,1.1,.2,.37,.39,.74,.57,1.12,.18,.38,.35,.76,.51,1.14,.16,.38,.31,.77,.45,1.15,.8,2.23,1.21,4.41,1.25,6.52,.04,2.12-.3,4.17-.99,6.11-.69,1.95-1.73,3.8-3.09,5.52-1.36,1.72-3.05,3.3-5.03,4.72,2.14,.33,4.23,.69,6.25,1.07,2.03,.39,4,.8,5.91,1.24,1.91,.44,3.76,.91,5.55,1.41,1.79,.5,3.51,1.02,5.17,1.57,1.04-2.42,2.59-4.63,4.6-6.59,2-1.94,4.45-3.64,7.3-5.03,2.84-1.39,6.07-2.47,9.64-3.21,3.57-.74,7.48-1.13,11.69-1.13,.18,0,.36,0,.54,0,.18,0,.36,0,.54,0,.18,0,.36,0,.54,.01s.36,0,.54,.01c-.39-.2-.78-.41-1.17-.61-.39-.2-.79-.4-1.18-.6-.4-.2-.8-.4-1.2-.59-.4-.2-.8-.39-1.21-.58-3.44-1.64-7.03-3.16-10.76-4.58-3.71-1.41-7.57-2.72-11.56-3.91-3.98-1.19-8.1-2.28-12.36-3.26-4.24-.98-8.62-1.85-13.13-2.61m-295.33-22.16c-4.95,0-10,.36-15.01,1.14-5.02,.78-10.01,1.98-14.83,3.65-4.84,1.68-9.53,3.85-13.91,6.57-4.42,2.74-8.54,6.05-12.23,9.99,.86-.14,1.73-.26,2.6-.36,.87-.1,1.75-.19,2.64-.26,.89-.07,1.78-.12,2.67-.16s1.8-.05,2.7-.05c3.2,0,6.29,.23,9.24,.66,2.96,.43,5.79,1.07,8.45,1.89,2.67,.82,5.18,1.83,7.49,3,2.32,1.17,4.45,2.51,6.35,4,.51-.28,1.03-.54,1.58-.78,.54-.24,1.11-.46,1.69-.66,.58-.2,1.18-.38,1.81-.53,.62-.15,1.26-.29,1.93-.39,.31-.05,.63-.1,.94-.14,.31-.04,.63-.08,.95-.11s.63-.06,.95-.08c.32-.02,.63-.04,.95-.05,.66-2.87,1.94-5.6,3.74-8.11,1.79-2.5,4.09-4.8,6.8-6.84,2.7-2.03,5.8-3.8,9.23-5.27,3.41-1.46,7.13-2.61,11.09-3.4-2.02-.54-4.09-1.03-6.18-1.46-2.09-.43-4.2-.8-6.33-1.11-2.12-.31-4.26-.56-6.39-.74-2.13-.18-4.27-.3-6.38-.36-.21,0-.42,0-.64-.01-.21,0-.42,0-.64-.01-.21,0-.42,0-.64,0-.21,0-.43,0-.64,0m274.24-13.65c-2.25,.69-4.49,1.4-6.71,2.12-2.23,.72-4.43,1.45-6.6,2.19-2.17,.74-4.29,1.49-6.35,2.26-2.06,.76-4.06,1.54-5.97,2.32-.54,.22-1.13,.46-1.78,.73-.65,.27-1.34,.56-2.07,.88-.73,.32-1.49,.66-2.28,1.03-.79,.37-1.6,.76-2.43,1.18,.43-.04,.86-.07,1.29-.09,.43-.03,.87-.05,1.31-.07,.44-.02,.88-.03,1.33-.04,.45,0,.9-.01,1.35-.01,4.12,0,8.22,.38,12.21,1.08,4,.71,7.89,1.74,11.59,3.06,3.71,1.32,7.24,2.93,10.47,4.78,3.25,1.85,6.21,3.95,8.78,6.23,.97-.34,1.95-.69,2.94-1.03,.99-.34,1.99-.68,3.01-1.02,1.01-.34,2.03-.68,3.06-1.01,1.02-.34,2.06-.67,3.09-1.01-3.2-1.25-6.23-2.7-9.02-4.3-2.78-1.6-5.31-3.36-7.54-5.24-2.22-1.87-4.14-3.86-5.69-5.93-1.54-2.06-2.73-4.2-3.49-6.39-.05-.14-.1-.29-.14-.43-.05-.14-.09-.29-.13-.43-.04-.14-.08-.29-.12-.43-.04-.14-.07-.28-.11-.42m-363.09-.85c-.3,.24-.6,.47-.9,.71-.31,.23-.62,.46-.94,.69-.32,.23-.64,.45-.97,.67-.33,.22-.66,.43-1,.64,1.95,1.19,3.69,2.53,5.17,3.99,1.49,1.47,2.72,3.06,3.66,4.76,.95,1.71,1.61,3.52,1.94,5.42,.34,1.91,.34,3.91-.02,5.97-.1,.58-.23,1.16-.39,1.74-.16,.58-.34,1.15-.55,1.72-.21,.57-.45,1.14-.71,1.7-.26,.56-.55,1.12-.86,1.67,2.85-1.06,5.62-2.22,8.28-3.48,2.65-1.25,5.2-2.6,7.63-4.03,2.42-1.42,4.73-2.93,6.91-4.51,2.17-1.58,4.21-3.23,6.1-4.94,.6-.54,1.18-1.09,1.75-1.64,.57-.55,1.12-1.11,1.65-1.67,.54-.56,1.06-1.13,1.56-1.7,.5-.57,.99-1.15,1.46-1.73-1,.19-2.01,.36-3.03,.5-1.02,.15-2.06,.27-3.1,.37-1.04,.1-2.09,.17-3.15,.22-1.06,.05-2.13,.08-3.2,.08-2.77,0-5.46-.17-8.03-.5-2.57-.33-5.02-.81-7.33-1.43-2.31-.62-4.47-1.37-6.48-2.25-2-.87-3.83-1.86-5.48-2.96m-45.14-7.07c-3.04,.79-6.19,1.52-9.44,2.19-3.26,.67-6.61,1.27-10.05,1.8-3.45,.53-6.97,1-10.57,1.38-3.6,.39-7.26,.7-10.98,.93-.19,2.51-.09,4.86,.23,7.05,.32,2.2,.88,4.24,1.62,6.13,.74,1.9,1.66,3.63,2.71,5.23,1.05,1.6,2.23,3.05,3.49,4.36,.96-2.78,2.52-5.44,4.58-7.92,2.04-2.46,4.57-4.74,7.48-6.8,2.89-2.04,6.15-3.85,9.67-5.39,3.51-1.53,7.29-2.78,11.23-3.7-.06-.4-.1-.82-.12-1.24-.03-.42-.04-.85-.03-1.29,0-.44,.02-.89,.05-1.34,.03-.45,.08-.92,.14-1.39m253.08-23.85c-.2,.48-.39,.97-.56,1.47-.17,.5-.33,1.01-.47,1.53-.14,.52-.27,1.05-.39,1.59-.11,.54-.22,1.09-.3,1.65-.05,.35-.12,.69-.2,1.04-.08,.34-.18,.69-.29,1.03-.11,.34-.23,.68-.37,1.01-.13,.33-.28,.66-.44,.99,2.44,1.11,4.7,2.38,6.74,3.77,2.05,1.4,3.87,2.94,5.42,4.59,1.56,1.66,2.85,3.43,3.82,5.28,.98,1.87,1.63,3.83,1.92,5.85,.13,.91,.18,1.82,.15,2.71-.02,.9-.13,1.78-.3,2.65-.17,.87-.42,1.73-.73,2.58-.32,.85-.7,1.67-1.15,2.48,3.01-1.36,5.77-2.95,8.25-4.71,2.47-1.75,4.68-3.68,6.61-5.71,1.92-2.02,3.56-4.16,4.92-6.35,1.35-2.18,2.42-4.41,3.21-6.64-4.05-.3-7.97-.95-11.67-1.9-3.69-.95-7.14-2.2-10.27-3.68-3.11-1.48-5.89-3.2-8.24-5.09-2.34-1.89-4.25-3.95-5.65-6.13m172.66-11.78c.03,.06,.05,.12,.08,.18s.05,.12,.08,.18c.03,.06,.05,.12,.08,.18,.03,.06,.05,.12,.07,.18,.81,2.03,1.14,4.01,1.04,5.9-.11,1.91-.66,3.73-1.61,5.43-.96,1.71-2.32,3.29-4.05,4.71-1.74,1.43-3.84,2.69-6.26,3.76,.56,.25,1.1,.5,1.63,.75,.53,.25,1.05,.5,1.56,.75,.51,.25,1,.5,1.49,.74,.48,.25,.96,.49,1.42,.74,1.28-.52,2.63-.98,4.06-1.38,1.43-.4,2.92-.74,4.49-1.01,1.56-.27,3.19-.49,4.89-.63,1.69-.14,3.45-.21,5.26-.21,2.65,0,5.3,.16,7.93,.45,2.63,.3,5.24,.74,7.81,1.31,2.57,.57,5.09,1.27,7.53,2.08,2.45,.82,4.82,1.75,7.1,2.78-.39-.44-.8-.88-1.22-1.32-.42-.44-.86-.88-1.32-1.33-.45-.44-.92-.88-1.41-1.33-.49-.44-.99-.88-1.5-1.33-2.32-1.99-4.94-3.96-7.81-5.9-2.85-1.92-5.96-3.81-9.28-5.64-3.3-1.82-6.82-3.59-10.51-5.27-3.67-1.68-7.53-3.28-11.53-4.79m-234.17-.64c-.02,2.09-.53,4.13-1.47,6.07-.95,1.95-2.34,3.81-4.11,5.53-1.78,1.73-3.94,3.31-6.42,4.72-2.49,1.41-5.29,2.63-8.34,3.62,.95,.62,1.87,1.26,2.75,1.91,.88,.65,1.73,1.32,2.54,1.99,.81,.68,1.58,1.36,2.32,2.05,.73,.7,1.42,1.4,2.07,2.11,.53,.57,1.05,1.14,1.58,1.7,.53,.56,1.06,1.11,1.6,1.65,.53,.54,1.07,1.08,1.61,1.6,.54,.53,1.08,1.05,1.62,1.56,1.05-2.1,2.53-4.06,4.37-5.86,1.84-1.79,4.04-3.41,6.53-4.82,2.49-1.41,5.27-2.62,8.3-3.59,3.01-.97,6.27-1.7,9.7-2.16-.12-.12-.24-.24-.36-.35-.12-.12-.24-.24-.36-.36-.12-.12-.24-.24-.36-.37-.12-.12-.24-.25-.37-.37-1.61-1.64-3.32-3.22-5.11-4.74-1.78-1.51-3.66-2.96-5.6-4.35-1.94-1.38-3.96-2.71-6.04-3.96-2.08-1.25-4.22-2.45-6.43-3.58m161.58-12.49c-2.98,.04-5.97,.16-8.95,.36-2.98,.2-5.97,.49-8.94,.87-2.98,.38-5.95,.85-8.9,1.41-2.96,.56-5.91,1.23-8.85,1.99,1.42,.92,2.73,1.9,3.92,2.93,1.19,1.03,2.27,2.12,3.2,3.25,.94,1.13,1.74,2.31,2.38,3.53,.65,1.22,1.13,2.48,1.45,3.77,.19,.78,.31,1.56,.37,2.32,.06,.77,.05,1.53-.03,2.27-.07,.75-.21,1.49-.41,2.21-.2,.73-.46,1.44-.79,2.14,.8-.12,1.6-.24,2.4-.38,.8-.14,1.6-.28,2.39-.45,.8-.16,1.59-.33,2.38-.52,.79-.19,1.57-.39,2.35-.6,1.36-.37,2.74-.71,4.11-1.01,1.37-.3,2.75-.57,4.13-.81,1.38-.24,2.76-.44,4.15-.61,1.39-.17,2.77-.31,4.16-.42-.62-.66-1.2-1.33-1.73-2.01-.53-.68-1-1.37-1.43-2.08-.42-.7-.8-1.41-1.11-2.13-.32-.72-.58-1.44-.78-2.17-.37-1.34-.53-2.64-.5-3.91,.03-1.26,.25-2.48,.65-3.64,.4-1.16,.97-2.28,1.71-3.33,.73-1.05,1.63-2.05,2.67-2.98m-229.67-1.43c-.97,.05-1.93,.11-2.9,.18-.97,.07-1.93,.15-2.9,.24-.96,.09-1.93,.19-2.89,.31-.96,.11-1.92,.24-2.88,.37-3.61,.51-7.11,1.17-10.48,1.97-3.38,.8-6.63,1.75-9.73,2.83-3.11,1.09-6.07,2.31-8.87,3.67-2.81,1.37-5.45,2.87-7.9,4.5-.24,.16-.47,.31-.7,.47-.23,.16-.46,.32-.69,.48-.23,.16-.45,.32-.68,.49-.22,.16-.45,.33-.67,.49,.61-.07,1.22-.13,1.84-.18,.62-.05,1.24-.1,1.86-.13,.62-.03,1.25-.06,1.87-.08,.63-.02,1.26-.03,1.89-.03,3.14,0,6.17,.22,9.04,.63,2.88,.42,5.6,1.03,8.14,1.81,2.54,.79,4.9,1.75,7.04,2.86,2.14,1.11,4.06,2.38,5.71,3.78,.55-.21,1.11-.4,1.69-.59,.58-.18,1.17-.36,1.78-.52,.61-.16,1.23-.32,1.87-.46,.64-.14,1.29-.28,1.95-.4-.48-.72-.89-1.45-1.24-2.2-.35-.75-.63-1.51-.85-2.29-.21-.77-.36-1.56-.43-2.36-.07-.8-.07-1.6,0-2.42,.12-1.29,.42-2.54,.9-3.76,.47-1.21,1.1-2.39,1.89-3.52,.78-1.13,1.71-2.21,2.77-3.23,1.06-1.02,2.25-2,3.56-2.91"/>
      <path class="cls-2" d="M463.21,212.75c-2.6,1.64-5.18,3.34-7.74,5.09-2.57,1.76-5.12,3.58-7.65,5.46-2.54,1.89-5.06,3.84-7.56,5.84-2.51,2.02-5.01,4.1-7.48,6.24,4.1,.38,8.06,1.13,11.81,2.21,3.76,1.08,7.31,2.49,10.59,4.19,3.29,1.7,6.3,3.69,8.97,5.91,2.68,2.24,5,4.72,6.89,7.4,1.66-1.51,3.35-3.01,5.08-4.49,1.72-1.47,3.48-2.93,5.28-4.37,1.79-1.43,3.62-2.85,5.48-4.24,1.86-1.39,3.75-2.75,5.68-4.09-3.78-1.16-7.34-2.63-10.59-4.37-3.24-1.73-6.17-3.71-8.72-5.89-2.54-2.17-4.69-4.54-6.39-7.05-1.69-2.49-2.92-5.13-3.64-7.85m108.78-35.71c-3.83,.32-7.63,.71-11.38,1.18-3.76,.47-7.48,1.02-11.17,1.65-3.69,.63-7.35,1.34-10.97,2.12-3.63,.79-7.23,1.66-10.79,2.6,3.17,1.27,6.15,2.78,8.87,4.49,2.73,1.71,5.2,3.63,7.35,5.71,2.16,2.09,3.98,4.35,5.41,6.74,1.44,2.41,2.47,4.95,3.02,7.59,.02,.11,.05,.22,.07,.33,.02,.11,.04,.22,.06,.33s.04,.22,.06,.33c.02,.11,.03,.22,.05,.33,2.01-.51,4.04-.99,6.1-1.44,2.06-.45,4.15-.87,6.27-1.26,2.12-.39,4.26-.75,6.44-1.08,2.17-.33,4.38-.62,6.61-.89-1.11-1.06-2.14-2.16-3.08-3.29-.93-1.12-1.77-2.28-2.51-3.46-.73-1.17-1.37-2.37-1.89-3.59-.52-1.21-.94-2.45-1.23-3.69-.33-1.37-.5-2.71-.54-4.03-.03-1.31,.07-2.58,.31-3.81,.24-1.23,.61-2.42,1.1-3.57,.49-1.14,1.11-2.25,1.83-3.3"/>
      <path class="cls-12" d="M503.93,185.45c-4.81,0-9.32,.64-13.35,1.81-4.04,1.17-7.62,2.86-10.57,4.97-2.96,2.12-5.28,4.66-6.79,7.5-1.52,2.86-2.21,6.03-1.87,9.39,.34,3.39,1.68,6.64,3.83,9.63,2.17,3.01,5.16,5.75,8.76,8.07,3.62,2.33,7.85,4.23,12.47,5.54,4.63,1.32,9.64,2.05,14.79,2.05s9.93-.73,14.17-2.05c4.22-1.32,7.89-3.21,10.82-5.54,2.91-2.31,5.09-5.05,6.37-8.07,1.27-2.99,1.64-6.25,.97-9.63-.66-3.36-2.29-6.53-4.66-9.39-2.35-2.84-5.43-5.38-9.02-7.5-3.57-2.11-7.65-3.8-12.04-4.97-4.38-1.16-9.07-1.81-13.88-1.81"/>
      <path class="cls-9" d="M511.21,234.41c-5.15,0-10.15-.73-14.79-2.05-4.62-1.32-8.85-3.21-12.47-5.54-3.6-2.31-6.59-5.05-8.76-8.07-2.15-2.99-3.5-6.25-3.83-9.63-.33-3.36,.35-6.53,1.87-9.39,1.51-2.84,3.83-5.38,6.79-7.5,2.94-2.11,6.52-3.8,10.57-4.97,4.03-1.16,8.53-1.81,13.35-1.81s9.51,.64,13.88,1.81c4.39,1.17,8.47,2.86,12.04,4.97,3.59,2.12,6.67,4.66,9.02,7.5,2.37,2.86,4,6.03,4.66,9.39,.67,3.39,.29,6.64-.97,9.63-1.28,3.01-3.45,5.75-6.37,8.07-2.93,2.33-6.6,4.23-10.82,5.54-4.24,1.32-9.03,2.05-14.17,2.05m-8.1-54.48c-5.94,0-11.5,.79-16.48,2.21-5,1.43-9.44,3.51-13.1,6.1-3.69,2.61-6.6,5.73-8.5,9.24-1.92,3.54-2.82,7.47-2.46,11.63,.03,.31,.06,.61,.1,.92,.04,.3,.09,.61,.14,.91,.05,.3,.11,.61,.18,.91,.07,.3,.14,.6,.22,.9,.72,2.72,1.95,5.36,3.64,7.85,1.7,2.51,3.85,4.88,6.39,7.05,2.55,2.18,5.48,4.17,8.72,5.89,3.25,1.73,6.81,3.21,10.59,4.37,1.52,.47,3.08,.88,4.67,1.24,1.59,.36,3.21,.67,4.85,.92,1.64,.25,3.31,.44,4.99,.57,1.69,.13,3.39,.19,5.1,.19,6.28,0,12.13-.88,17.33-2.46,5.18-1.58,9.69-3.86,13.33-6.66,3.61-2.78,6.35-6.06,8.04-9.69,1.67-3.59,2.29-7.5,1.7-11.57-.02-.11-.03-.22-.05-.33-.02-.11-.04-.22-.06-.33s-.04-.22-.06-.33c-.02-.11-.04-.22-.07-.33-.55-2.64-1.59-5.18-3.02-7.59-1.43-2.39-3.25-4.65-5.41-6.74-2.14-2.08-4.62-3.99-7.35-5.71-2.72-1.7-5.7-3.21-8.87-4.49-1.85-.74-3.76-1.4-5.72-1.98-1.96-.58-3.98-1.07-6.04-1.46-2.06-.4-4.16-.7-6.3-.91-2.13-.21-4.3-.31-6.49-.31"/>
      <path class="cls-12" d="M304.4,113.37c-4.32,0-8.53,.52-12.44,1.46-3.92,.94-7.56,2.31-10.73,4.01-3.18,1.71-5.9,3.75-7.95,6.03-2.07,2.3-3.47,4.84-4,7.53-.54,2.71-.14,5.32,1.05,7.71,1.2,2.41,3.19,4.59,5.83,6.44,2.66,1.86,5.96,3.37,9.75,4.42,3.8,1.05,8.09,1.63,12.68,1.63s9.05-.58,13.16-1.63c4.1-1.05,7.86-2.56,11.06-4.42,3.19-1.85,5.83-4.03,7.74-6.44,1.9-2.39,3.07-5,3.33-7.71,.27-2.69-.38-5.23-1.77-7.53-1.38-2.28-3.49-4.32-6.17-6.03-2.66-1.7-5.9-3.06-9.54-4.01-3.63-.94-7.69-1.46-12.01-1.46"/>
      <path class="cls-9" d="M298.59,152.59c-4.59,0-8.87-.58-12.68-1.63-3.79-1.05-7.1-2.56-9.75-4.42-2.64-1.85-4.64-4.03-5.83-6.44-1.19-2.39-1.59-5-1.05-7.71,.53-2.69,1.93-5.23,4-7.53,2.05-2.28,4.77-4.32,7.95-6.03,3.17-1.7,6.81-3.06,10.73-4.01,3.91-.94,8.12-1.46,12.44-1.46s8.38,.52,12.01,1.46c3.64,.94,6.88,2.31,9.54,4.01,2.68,1.71,4.79,3.75,6.17,6.03,1.39,2.3,2.04,4.84,1.77,7.53-.27,2.71-1.44,5.32-3.33,7.71-1.91,2.41-4.55,4.59-7.74,6.44-3.21,1.86-6.96,3.37-11.06,4.42-4.12,1.05-8.57,1.63-13.16,1.63m6.47-43.69c-.63,0-1.26,0-1.89,.03-.63,.02-1.25,.04-1.87,.08-.62,.03-1.24,.08-1.86,.13-.62,.05-1.23,.11-1.84,.18-4.54,.51-8.9,1.47-12.93,2.8-4.04,1.34-7.75,3.05-10.97,5.06-3.24,2.02-6,4.35-8.1,6.9-2.12,2.57-3.57,5.37-4.19,8.32-.37,1.74-.42,3.46-.19,5.11,.23,1.67,.76,3.28,1.54,4.82,.79,1.55,1.85,3.02,3.15,4.4,1.3,1.38,2.85,2.67,4.61,3.84,1.65,1.09,3.48,2.09,5.48,2.96,2,.87,4.17,1.63,6.48,2.25,2.31,.62,4.76,1.1,7.33,1.43,2.57,.33,5.25,.5,8.03,.5,1.07,0,2.14-.03,3.2-.08,1.06-.05,2.11-.13,3.15-.22,1.04-.1,2.08-.22,3.1-.37,1.02-.15,2.03-.31,3.03-.5,4.35-.83,8.44-2.06,12.15-3.63,3.7-1.56,7-3.45,9.79-5.59,2.77-2.12,5.03-4.48,6.65-7.01,1.61-2.5,2.59-5.17,2.83-7.91,.12-1.38,.05-2.73-.2-4.03-.25-1.3-.68-2.56-1.26-3.78-.58-1.21-1.33-2.37-2.22-3.47-.89-1.1-1.92-2.14-3.08-3.12-1.65-1.4-3.57-2.66-5.71-3.78-2.13-1.11-4.49-2.07-7.04-2.86-2.54-.78-5.26-1.4-8.14-1.81-2.87-.42-5.9-.63-9.04-.63"/>
      <path class="cls-12" d="M239.83,151.97c-4.59,0-9.11,.58-13.36,1.64-4.27,1.06-8.27,2.6-11.82,4.51-3.57,1.92-6.68,4.22-9.11,6.8-2.45,2.59-4.22,5.46-5.09,8.5-.87,3.06-.74,6.01,.26,8.71,1,2.72,2.88,5.19,5.49,7.28,2.62,2.1,5.97,3.81,9.89,5,3.93,1.19,8.43,1.85,13.32,1.85s9.7-.66,14.19-1.85c4.48-1.19,8.63-2.9,12.25-5,3.59-2.09,6.63-4.56,8.92-7.28,2.27-2.7,3.79-5.65,4.36-8.71,.56-3.04,.14-5.91-1.09-8.5-1.22-2.57-3.25-4.87-5.91-6.8-2.65-1.91-5.93-3.45-9.7-4.51-3.75-1.06-8-1.64-12.59-1.64"/>
      <path class="cls-9" d="M229.41,196.26c-4.89,0-9.38-.66-13.32-1.85-3.92-1.19-7.27-2.9-9.89-5-2.61-2.09-4.49-4.56-5.49-7.28-1-2.7-1.13-5.65-.26-8.71,.86-3.04,2.63-5.91,5.09-8.5,2.43-2.57,5.54-4.87,9.11-6.8,3.55-1.91,7.56-3.45,11.82-4.51,4.25-1.06,8.77-1.64,13.36-1.64s8.83,.58,12.59,1.64c3.77,1.06,7.05,2.6,9.7,4.51,2.66,1.92,4.69,4.22,5.91,6.8,1.23,2.59,1.65,5.46,1.09,8.5-.57,3.06-2.09,6.01-4.36,8.71-2.28,2.72-5.33,5.19-8.92,7.28-3.61,2.1-7.77,3.81-12.25,5-4.49,1.19-9.3,1.85-14.19,1.85m11.6-49.31c-1.34,0-2.68,.04-4.01,.12-1.33,.08-2.65,.2-3.96,.35-1.31,.15-2.61,.34-3.89,.57-1.29,.22-2.56,.48-3.81,.78-3.94,.92-7.72,2.17-11.23,3.7-3.53,1.53-6.79,3.35-9.67,5.39-2.9,2.05-5.43,4.34-7.48,6.8-2.06,2.48-3.62,5.14-4.58,7.92-.02,.07-.05,.14-.07,.21-.02,.07-.05,.14-.07,.21-.02,.07-.04,.14-.07,.21-.02,.07-.04,.14-.06,.21-1.13,3.81-1.01,7.49,.19,10.86,1.21,3.41,3.52,6.51,6.75,9.14,3.25,2.65,7.43,4.8,12.33,6.3,4.92,1.5,10.55,2.34,16.68,2.34,5.18,0,10.3-.6,15.16-1.69,4.85-1.09,9.43-2.68,13.58-4.65,4.13-1.96,7.82-4.31,10.91-6.93,3.07-2.61,5.54-5.48,7.27-8.53,.31-.55,.6-1.11,.86-1.67,.26-.56,.5-1.13,.71-1.7,.21-.57,.39-1.14,.55-1.72,.16-.58,.29-1.16,.39-1.74,.36-2.06,.35-4.06,.02-5.97-.33-1.9-.99-3.71-1.94-5.42-.94-1.7-2.18-3.29-3.66-4.76-1.48-1.46-3.21-2.8-5.17-3.99-1.62-.99-3.4-1.88-5.32-2.66-1.91-.78-3.96-1.44-6.12-1.99-2.16-.54-4.44-.96-6.83-1.24-2.38-.28-4.87-.43-7.44-.43"/>
      <path class="cls-12" d="M378.92,89.16c-4.16,0-8.15,.48-11.81,1.35-3.67,.87-7.01,2.14-9.86,3.71-2.87,1.58-5.25,3.47-6.96,5.57-1.73,2.12-2.78,4.47-2.98,6.96-.2,2.5,.48,4.91,1.89,7.12,1.42,2.22,3.59,4.23,6.34,5.94,2.76,1.71,6.11,3.1,9.86,4.07,3.77,.97,7.95,1.51,12.35,1.51s8.62-.54,12.45-1.51c3.82-.97,7.25-2.36,10.13-4.07,2.86-1.7,5.15-3.72,6.72-5.94,1.56-2.21,2.39-4.61,2.35-7.12-.04-2.48-.95-4.83-2.54-6.96-1.58-2.11-3.83-4-6.6-5.57-2.75-1.57-6.01-2.83-9.62-3.71-3.6-.87-7.56-1.35-11.72-1.35"/>
      <path class="cls-9" d="M377.76,125.37c-4.41,0-8.58-.54-12.35-1.51-3.76-.97-7.1-2.36-9.86-4.07-2.75-1.7-4.91-3.72-6.34-5.94-1.41-2.21-2.1-4.61-1.89-7.12,.2-2.48,1.26-4.83,2.98-6.96,1.71-2.11,4.09-4,6.96-5.57,2.85-1.57,6.2-2.83,9.86-3.71,3.66-.87,7.64-1.35,11.81-1.35s8.12,.48,11.72,1.35c3.61,.87,6.87,2.14,9.62,3.71,2.77,1.58,5.02,3.47,6.6,5.57,1.59,2.12,2.49,4.47,2.54,6.96,.04,2.5-.79,4.91-2.35,7.12-1.57,2.22-3.86,4.23-6.72,5.94-2.87,1.71-6.31,3.1-10.13,4.07-3.83,.97-8.04,1.51-12.45,1.51m1.3-40.34c-3,0-5.93,.2-8.74,.58-2.82,.38-5.53,.94-8.09,1.65-2.57,.72-4.99,1.59-7.22,2.61-2.24,1.02-4.3,2.17-6.13,3.45-1.31,.91-2.5,1.88-3.56,2.91-1.06,1.03-1.99,2.11-2.77,3.23-.78,1.13-1.42,2.31-1.89,3.52-.47,1.22-.78,2.48-.9,3.76-.08,.81-.08,1.62,0,2.42,.07,.8,.22,1.59,.43,2.36,.21,.78,.5,1.54,.85,2.29,.35,.75,.77,1.49,1.24,2.2,1.35,2.03,3.21,3.92,5.49,5.61,2.29,1.7,5,3.21,8.06,4.46,3.07,1.25,6.47,2.25,10.13,2.93,3.67,.68,7.58,1.05,11.65,1.05,1.72,0,3.41-.07,5.08-.19,1.66-.13,3.3-.32,4.89-.56,1.59-.25,3.15-.55,4.66-.91,1.51-.36,2.97-.77,4.38-1.23,3.05-.99,5.86-2.22,8.34-3.62,2.48-1.4,4.64-2.99,6.42-4.72,1.77-1.72,3.16-3.57,4.11-5.53,.95-1.94,1.46-3.98,1.47-6.07,0-.04,0-.08,0-.12s0-.08,0-.12c0-.04,0-.08,0-.12,0-.04,0-.08,0-.12-.09-3.09-1.25-6-3.25-8.63-1.98-2.61-4.8-4.94-8.24-6.88-3.42-1.93-7.46-3.49-11.93-4.56-4.45-1.07-9.34-1.65-14.48-1.65"/>
      <path class="cls-12" d="M450.54,129.44c-4.43,0-8.63,.54-12.42,1.53-3.8,.99-7.21,2.43-10.06,4.21-2.87,1.79-5.17,3.94-6.74,6.34-1.58,2.42-2.42,5.1-2.34,7.93,.09,2.86,1.11,5.6,2.89,8.12,1.79,2.54,4.35,4.84,7.5,6.78,3.16,1.96,6.91,3.55,11.05,4.65,4.15,1.11,8.69,1.72,13.4,1.72s9.15-.61,13.13-1.72c3.96-1.11,7.46-2.7,10.31-4.65,2.84-1.95,5.03-4.25,6.42-6.78,1.38-2.52,1.96-5.26,1.6-8.12-.36-2.83-1.63-5.51-3.6-7.93-1.95-2.4-4.6-4.55-7.75-6.34-3.13-1.78-6.77-3.22-10.73-4.21-3.95-.99-8.22-1.53-12.66-1.53"/>
      <path class="cls-9" d="M453.82,170.73c-4.71,0-9.25-.61-13.4-1.72-4.14-1.11-7.89-2.7-11.05-4.65-3.15-1.95-5.71-4.25-7.5-6.78-1.78-2.52-2.8-5.26-2.89-8.12-.09-2.83,.76-5.51,2.34-7.93,1.57-2.4,3.88-4.55,6.74-6.34,2.85-1.78,6.26-3.22,10.06-4.21,3.79-.99,7.98-1.53,12.42-1.53s8.71,.54,12.66,1.53c3.96,.99,7.6,2.43,10.73,4.21,3.15,1.79,5.8,3.94,7.75,6.34,1.97,2.42,3.24,5.1,3.6,7.93,.37,2.86-.22,5.6-1.6,8.12-1.39,2.54-3.59,4.84-6.42,6.78-2.85,1.96-6.35,3.55-10.31,4.65-3.98,1.11-8.41,1.72-13.13,1.72m-3.66-45.98c-.74,0-1.47,.01-2.2,.04s-1.45,.06-2.16,.11c-.71,.05-1.42,.11-2.12,.18-.7,.07-1.4,.15-2.08,.24-3.43,.46-6.68,1.19-9.7,2.16-3.02,.97-5.81,2.18-8.3,3.59-2.5,1.42-4.7,3.04-6.53,4.82-1.85,1.8-3.33,3.76-4.37,5.86-.3,.6-.56,1.21-.79,1.84-.23,.62-.42,1.26-.57,1.9-.15,.64-.26,1.3-.33,1.96-.07,.66-.1,1.33-.09,2.01,.06,3.55,1.29,6.98,3.48,10.12,2.2,3.17,5.37,6.06,9.28,8.5,3.94,2.46,8.61,4.47,13.79,5.86,5.2,1.4,10.88,2.18,16.78,2.18,4.38,0,8.58-.43,12.48-1.22,3.9-.79,7.5-1.94,10.72-3.4,3.2-1.45,6.02-3.18,8.37-5.15,2.33-1.96,4.19-4.14,5.5-6.48,.45-.81,.84-1.64,1.15-2.48,.31-.84,.56-1.7,.73-2.58,.17-.87,.27-1.76,.3-2.65,.02-.89-.03-1.8-.15-2.71-.29-2.03-.94-3.98-1.92-5.85-.97-1.86-2.26-3.63-3.82-5.28-1.55-1.65-3.37-3.19-5.42-4.59-2.04-1.4-4.3-2.66-6.74-3.77-1.8-.82-3.7-1.56-5.69-2.2-1.98-.64-4.04-1.19-6.17-1.63-2.13-.45-4.32-.79-6.56-1.02-2.24-.23-4.53-.35-6.86-.35"/>
      <path class="cls-12" d="M511.6,94.93c-4.2,0-8.12,.49-11.62,1.37-3.51,.89-6.61,2.18-9.15,3.78-2.55,1.61-4.54,3.53-5.81,5.68-1.28,2.16-1.83,4.56-1.49,7.09,.34,2.55,1.55,5.01,3.46,7.25,1.92,2.26,4.55,4.32,7.7,6.05,3.16,1.75,6.85,3.16,10.85,4.15,4.02,.99,8.35,1.54,12.8,1.54s8.59-.55,12.24-1.54c3.65-.99,6.81-2.4,9.34-4.15,2.51-1.74,4.39-3.79,5.48-6.05,1.09-2.25,1.4-4.7,.81-7.25-.59-2.53-2.02-4.93-4.09-7.09-2.06-2.15-4.75-4.07-7.89-5.68-3.12-1.6-6.69-2.89-10.53-3.78-3.82-.89-7.92-1.37-12.12-1.37"/>
      <path class="cls-9" d="M518.35,131.85c-4.45,0-8.78-.55-12.8-1.54-4.01-.99-7.69-2.4-10.85-4.15-3.15-1.74-5.77-3.79-7.7-6.05-1.91-2.25-3.12-4.7-3.46-7.25-.34-2.53,.21-4.93,1.49-7.09,1.27-2.15,3.26-4.07,5.81-5.68,2.54-1.6,5.64-2.89,9.15-3.78,3.5-.89,7.42-1.37,11.62-1.37s8.3,.49,12.12,1.37c3.84,.89,7.41,2.18,10.53,3.78,3.14,1.61,5.83,3.53,7.89,5.68,2.07,2.16,3.5,4.56,4.09,7.09,.59,2.55,.28,5.01-.81,7.25-1.1,2.26-2.97,4.32-5.48,6.05-2.53,1.75-5.69,3.16-9.34,4.15-3.66,.99-7.79,1.54-12.24,1.54m-7.52-41.13c-5.18,0-10.03,.6-14.36,1.69-4.35,1.09-8.19,2.67-11.34,4.64-3.18,1.98-5.66,4.35-7.27,7.01-1.62,2.68-2.34,5.65-1.96,8.79,.07,.59,.18,1.17,.32,1.74,.14,.58,.32,1.15,.54,1.72,.21,.57,.46,1.13,.75,1.69,.28,.56,.6,1.11,.95,1.65,1.4,2.18,3.31,4.24,5.65,6.13,2.35,1.9,5.13,3.61,8.24,5.09,3.13,1.49,6.58,2.73,10.27,3.68,3.7,.95,7.62,1.6,11.67,1.9,.41,.03,.81,.06,1.22,.08,.41,.02,.82,.04,1.23,.06s.82,.03,1.23,.03c.41,0,.83,.01,1.24,.01,4.2,0,8.17-.39,11.83-1.12,3.65-.72,6.99-1.78,9.92-3.11,2.92-1.32,5.44-2.91,7.47-4.71,2.02-1.79,3.56-3.78,4.55-5.91,.32-.7,.59-1.41,.79-2.14,.2-.72,.34-1.46,.41-2.21,.07-.75,.08-1.51,.03-2.27-.06-.77-.18-1.54-.37-2.32-.31-1.29-.8-2.55-1.45-3.77-.64-1.22-1.44-2.4-2.38-3.53-.93-1.13-2.01-2.22-3.2-3.25-1.19-1.03-2.5-2.01-3.92-2.93-2.05-1.33-4.31-2.54-6.75-3.6-2.43-1.06-5.04-1.97-7.77-2.72-2.73-.75-5.58-1.33-8.52-1.73-2.94-.4-5.96-.61-9.03-.61"/>
      <path class="cls-12" d="M606.74,90.92c-4.17,0-7.99,.48-11.34,1.36-3.35,.88-6.23,2.15-8.51,3.73-2.29,1.59-3.97,3.49-4.9,5.61-.94,2.14-1.12,4.5-.4,7,.73,2.52,2.31,4.94,4.55,7.16,2.26,2.23,5.18,4.26,8.57,5.97,3.41,1.72,7.28,3.12,11.41,4.09,4.14,.97,8.53,1.51,12.95,1.51s8.44-.54,11.92-1.51c3.47-.97,6.4-2.37,8.64-4.09,2.23-1.71,3.78-3.74,4.52-5.97,.74-2.22,.68-4.64-.3-7.16-.97-2.5-2.75-4.86-5.14-7-2.37-2.12-5.34-4.02-8.7-5.61-3.35-1.58-7.09-2.85-11.04-3.73-3.94-.87-8.08-1.36-12.25-1.36"/>
      <path class="cls-9" d="M619.08,127.35c-4.42,0-8.81-.54-12.95-1.51-4.13-.97-8-2.37-11.41-4.09-3.39-1.71-6.31-3.74-8.57-5.97-2.24-2.22-3.82-4.64-4.55-7.16-.72-2.5-.54-4.86,.4-7,.93-2.12,2.61-4.02,4.9-5.61,2.28-1.58,5.16-2.85,8.51-3.73,3.34-.87,7.16-1.36,11.34-1.36s8.32,.48,12.25,1.36c3.95,.88,7.69,2.15,11.04,3.73,3.36,1.59,6.33,3.49,8.7,5.61,2.39,2.14,4.17,4.5,5.14,7,.98,2.52,1.04,4.94,.3,7.16-.74,2.23-2.29,4.26-4.52,5.97-2.24,1.72-5.17,3.12-8.64,4.09-3.48,.97-7.5,1.51-11.92,1.51m-13.75-40.58c-2.94,0-5.74,.19-8.36,.56-2.63,.36-5.09,.9-7.36,1.59-2.27,.69-4.35,1.53-6.2,2.51-1.86,.98-3.49,2.09-4.86,3.32-1.04,.93-1.93,1.93-2.67,2.98-.74,1.06-1.31,2.17-1.71,3.33-.4,1.17-.62,2.39-.65,3.64-.03,1.26,.13,2.57,.5,3.91,.2,.73,.46,1.46,.78,2.17,.32,.72,.69,1.43,1.11,2.13,.43,.7,.9,1.4,1.43,2.08,.53,.68,1.11,1.35,1.73,2.01,2.05,2.16,4.6,4.18,7.54,5.99,2.96,1.82,6.3,3.44,9.93,4.78,3.64,1.35,7.55,2.42,11.61,3.16,4.07,.74,8.29,1.14,12.53,1.14,1.95,0,3.83-.08,5.65-.25,1.82-.16,3.56-.4,5.23-.72,1.67-.31,3.26-.7,4.76-1.15,1.5-.45,2.91-.97,4.23-1.55,2.42-1.06,4.52-2.33,6.26-3.76,1.73-1.42,3.09-3.01,4.05-4.71,.95-1.7,1.5-3.52,1.61-5.43,.11-1.89-.23-3.87-1.04-5.9-.02-.06-.05-.12-.07-.18-.03-.06-.05-.12-.08-.18-.03-.06-.05-.12-.08-.18s-.05-.12-.08-.18c-1.37-3.01-3.69-5.85-6.7-8.41-2.99-2.54-6.66-4.8-10.79-6.68-4.1-1.87-8.67-3.38-13.46-4.42-4.78-1.03-9.8-1.6-14.85-1.6"/>
      <path class="cls-12" d="M667.28,132.9c-4.46,0-8.49,.55-11.97,1.55-3.49,1-6.44,2.45-8.71,4.26-2.28,1.81-3.88,3.98-4.66,6.41-.78,2.44-.74,5.15,.29,8.01,1.04,2.89,2.98,5.66,5.61,8.21,2.65,2.56,5.99,4.89,9.81,6.86,3.84,1.98,8.14,3.59,12.67,4.71,4.55,1.12,9.31,1.74,14.06,1.74s9-.62,12.63-1.74c3.62-1.12,6.6-2.73,8.81-4.71,2.2-1.97,3.64-4.3,4.19-6.86,.55-2.55,.21-5.32-1.11-8.21-1.31-2.86-3.48-5.57-6.27-8.01-2.77-2.43-6.15-4.6-9.91-6.41-3.75-1.8-7.88-3.26-12.2-4.26-4.3-1-8.78-1.55-13.24-1.55"/>
      <path class="cls-9" d="M684.38,174.65c-4.74,0-9.51-.62-14.06-1.74-4.53-1.12-8.83-2.73-12.67-4.71-3.81-1.97-7.16-4.3-9.81-6.86-2.63-2.55-4.57-5.32-5.61-8.21-1.03-2.86-1.08-5.57-.29-8.01,.78-2.43,2.38-4.6,4.66-6.41,2.27-1.8,5.22-3.26,8.71-4.26,3.48-1,7.51-1.55,11.97-1.55s8.94,.55,13.24,1.55c4.31,1,8.45,2.45,12.2,4.26,3.77,1.81,7.15,3.98,9.91,6.41,2.79,2.44,4.96,5.15,6.27,8.01,1.32,2.89,1.66,5.66,1.11,8.21-.55,2.56-1.99,4.89-4.19,6.86-2.21,1.98-5.2,3.59-8.81,4.71-3.63,1.12-7.89,1.74-12.63,1.74m-19.04-46.49c-1.81,0-3.57,.07-5.26,.21-1.69,.14-3.32,.35-4.89,.63-1.56,.27-3.06,.61-4.49,1.01-1.43,.4-2.78,.86-4.06,1.38-2.45,.99-4.61,2.18-6.45,3.55-1.85,1.38-3.37,2.93-4.51,4.63-1.15,1.71-1.93,3.57-2.3,5.55-.36,1.99-.3,4.1,.23,6.3,.03,.14,.07,.28,.11,.42,.04,.14,.08,.28,.12,.43,.04,.14,.09,.29,.13,.43,.05,.14,.09,.29,.14,.43,.76,2.19,1.95,4.33,3.49,6.39,1.55,2.07,3.47,4.06,5.69,5.93,2.23,1.88,4.77,3.64,7.54,5.24,2.79,1.61,5.82,3.05,9.02,4.3,2.04,.8,4.16,1.51,6.32,2.14,2.17,.63,4.39,1.17,6.64,1.6,2.26,.44,4.54,.78,6.84,1,2.3,.23,4.62,.35,6.93,.35,5.94,0,11.27-.79,15.81-2.2,4.52-1.41,8.23-3.44,10.97-5.93,2.72-2.47,4.48-5.39,5.13-8.6,.64-3.18,.18-6.64-1.51-10.23-.87-1.85-2.03-3.65-3.43-5.37-1.39-1.71-3.03-3.36-4.86-4.91-1.83-1.55-3.85-3-6.04-4.35-2.18-1.35-4.51-2.59-6.97-3.71-2.27-1.04-4.65-1.97-7.1-2.78-2.44-.81-4.96-1.51-7.53-2.08-2.56-.57-5.17-1.01-7.81-1.31-2.63-.3-5.28-.45-7.93-.45"/>
      <path class="cls-12" d="M606.3,169.18c-4.7,0-9.01,.61-12.79,1.72-3.78,1.11-7.04,2.73-9.62,4.74-2.59,2.02-4.5,4.44-5.57,7.15-1.08,2.73-1.3,5.75-.5,8.95,.81,3.23,2.58,6.33,5.11,9.18,2.55,2.87,5.85,5.48,9.69,7.68,3.86,2.22,8.26,4.02,12.95,5.28,4.7,1.26,9.69,1.95,14.71,1.95s9.59-.7,13.54-1.95c3.94-1.25,7.25-3.06,9.78-5.28,2.52-2.2,4.26-4.81,5.08-7.68,.82-2.85,.73-5.95-.4-9.18-1.12-3.2-3.15-6.22-5.86-8.95-2.69-2.71-6.05-5.13-9.86-7.15-3.78-2.01-8.01-3.63-12.46-4.74-4.44-1.11-9.12-1.72-13.82-1.72"/>
      <path class="cls-9" d="M620.3,215.84c-5.02,0-10.01-.7-14.71-1.95-4.69-1.25-9.08-3.06-12.95-5.28-3.84-2.2-7.15-4.81-9.69-7.68-2.53-2.85-4.3-5.95-5.11-9.18-.8-3.2-.58-6.22,.5-8.95,1.07-2.71,2.98-5.13,5.57-7.15,2.58-2.01,5.83-3.63,9.62-4.74,3.77-1.11,8.08-1.72,12.79-1.72s9.38,.61,13.82,1.72c4.45,1.11,8.68,2.73,12.46,4.74,3.8,2.02,7.17,4.44,9.86,7.15,2.71,2.73,4.75,5.75,5.86,8.95,1.13,3.23,1.21,6.33,.4,9.18-.82,2.87-2.57,5.48-5.08,7.68-2.53,2.22-5.84,4.02-9.78,5.28-3.95,1.26-8.52,1.95-13.54,1.95m-15.58-51.93c-.45,0-.9,0-1.35,.01-.45,0-.89,.02-1.33,.04-.44,.02-.88,.04-1.31,.07-.43,.03-.86,.06-1.29,.09-3.17,.26-6.16,.76-8.94,1.47-2.79,.71-5.36,1.63-7.69,2.74-2.34,1.11-4.43,2.41-6.24,3.86-1.82,1.46-3.36,3.09-4.58,4.85-.73,1.05-1.34,2.15-1.83,3.3-.49,1.15-.86,2.34-1.1,3.57-.24,1.23-.35,2.51-.31,3.81,.03,1.31,.21,2.65,.54,4.03,.3,1.25,.71,2.48,1.23,3.69,.52,1.22,1.16,2.42,1.89,3.59,.74,1.18,1.57,2.33,2.51,3.46,.93,1.13,1.96,2.23,3.08,3.29,2.48,2.36,5.38,4.55,8.61,6.5,3.25,1.96,6.82,3.69,10.64,5.12,3.83,1.44,7.88,2.57,12.07,3.35,4.19,.78,8.51,1.2,12.85,1.2,2.79,0,5.48-.17,8.03-.51,2.55-.33,4.97-.82,7.24-1.46,2.27-.63,4.38-1.41,6.32-2.31,1.94-.9,3.71-1.92,5.3-3.06,1.98-1.41,3.66-3,5.03-4.72,1.36-1.71,2.4-3.56,3.09-5.52,.69-1.94,1.02-3.99,.99-6.11-.04-2.11-.44-4.29-1.25-6.52-.14-.39-.29-.77-.45-1.15-.16-.38-.33-.76-.51-1.14-.18-.38-.37-.75-.57-1.12-.2-.37-.41-.74-.63-1.1-.44-.73-.92-1.45-1.43-2.16-.51-.71-1.06-1.4-1.64-2.09-.58-.68-1.19-1.35-1.84-2.01-.64-.65-1.32-1.3-2.02-1.92-2.57-2.29-5.53-4.38-8.78-6.23-3.23-1.84-6.76-3.45-10.47-4.78-3.7-1.32-7.6-2.35-11.59-3.06-3.99-.71-8.09-1.08-12.21-1.08"/>
      <path class="cls-12" d="M707.62,209.86c-4.98,0-9.45,.69-13.27,1.93-3.84,1.25-7.04,3.07-9.46,5.32-2.44,2.27-4.09,4.99-4.81,8.03-.72,3.07-.5,6.46,.84,10.06,1.35,3.63,3.71,7.13,6.83,10.34,3.14,3.24,7.06,6.18,11.48,8.66,4.45,2.5,9.4,4.54,14.58,5.96,5.2,1.42,10.61,2.21,15.94,2.21s10.08-.79,14.08-2.21c3.99-1.42,7.22-3.45,9.56-5.96,2.32-2.49,3.76-5.43,4.17-8.66,.41-3.21-.17-6.7-1.89-10.34-1.69-3.6-4.33-7-7.64-10.06-3.28-3.04-7.23-5.76-11.58-8.03-4.32-2.26-9.05-4.07-13.94-5.32-4.87-1.25-9.92-1.93-14.9-1.93"/>
      <path class="cls-9" d="M729.76,262.37c-5.34,0-10.75-.79-15.94-2.21-5.18-1.42-10.13-3.45-14.58-5.96-4.42-2.49-8.33-5.43-11.48-8.66-3.12-3.21-5.48-6.7-6.83-10.34-1.34-3.6-1.57-7-.84-10.06,.72-3.04,2.37-5.76,4.81-8.03,2.42-2.26,5.62-4.07,9.46-5.32,3.82-1.25,8.29-1.93,13.27-1.93s10.03,.69,14.9,1.93c4.89,1.25,9.62,3.07,13.94,5.32,4.35,2.27,8.29,4.99,11.58,8.03,3.31,3.07,5.95,6.46,7.64,10.06,1.71,3.63,2.3,7.13,1.89,10.34-.42,3.24-1.85,6.18-4.17,8.66-2.34,2.5-5.57,4.54-9.56,5.96-4,1.42-8.75,2.21-14.08,2.21m-24.63-58.42c-4.21,0-8.12,.4-11.69,1.13-3.57,.74-6.81,1.83-9.64,3.21-2.85,1.39-5.3,3.08-7.3,5.03-2.01,1.95-3.56,4.17-4.6,6.59-.48,1.11-.85,2.27-1.1,3.47-.25,1.2-.39,2.45-.41,3.72-.01,1.28,.09,2.6,.33,3.95,.24,1.35,.61,2.74,1.12,4.15,.65,1.8,1.5,3.57,2.52,5.31,1.03,1.74,2.25,3.45,3.63,5.11,1.38,1.66,2.93,3.28,4.62,4.83,1.7,1.56,3.54,3.05,5.51,4.47,2.97,2.14,6.23,4.1,9.69,5.85,3.48,1.75,7.16,3.28,10.98,4.54,3.83,1.26,7.78,2.25,11.79,2.93,4.01,.68,8.07,1.04,12.09,1.04,.87,0,1.72-.02,2.57-.05,.84-.03,1.67-.08,2.49-.15,.82-.07,1.62-.15,2.41-.24,.79-.1,1.56-.21,2.33-.34,5.1-.85,9.55-2.38,13.22-4.45,3.65-2.06,6.53-4.64,8.52-7.63,1.98-2.96,3.07-6.3,3.19-9.9,.12-3.57-.72-7.38-2.62-11.31-2.09-4.34-5.29-8.43-9.26-12.14-3.93-3.67-8.64-6.96-13.83-9.73-5.15-2.75-10.77-5-16.6-6.6-5.8-1.6-11.83-2.56-17.8-2.75-.18,0-.36-.01-.54-.01s-.36,0-.54-.01c-.18,0-.36,0-.54,0-.18,0-.36,0-.54,0"/>
      <path class="cls-12" d="M632,235.86c-5.16,0-9.86,.74-13.95,2.07-4.11,1.34-7.62,3.29-10.37,5.71-2.77,2.44-4.78,5.35-5.85,8.62-1.08,3.29-1.22,6.94-.22,10.81,1.01,3.9,3.07,7.66,5.96,11.11,2.91,3.48,6.65,6.65,10.97,9.32,4.35,2.7,9.27,4.89,14.49,6.42,5.24,1.53,10.78,2.38,16.32,2.38s10.55-.85,14.85-2.38c4.29-1.53,7.85-3.72,10.54-6.42,2.67-2.68,4.47-5.84,5.24-9.32,.77-3.45,.52-7.21-.87-11.11-1.38-3.87-3.76-7.52-6.87-10.81-3.08-3.27-6.88-6.18-11.15-8.62-4.24-2.42-8.95-4.37-13.88-5.71-4.91-1.34-10.07-2.07-15.22-2.07"/>
      <path class="cls-9" d="M649.36,292.31c-5.54,0-11.07-.85-16.32-2.38-5.22-1.53-10.14-3.72-14.49-6.42-4.32-2.68-8.06-5.84-10.97-9.32-2.89-3.45-4.95-7.21-5.96-11.11-1-3.87-.86-7.52,.22-10.81,1.07-3.27,3.08-6.18,5.85-8.62,2.75-2.42,6.26-4.37,10.37-5.71,4.09-1.34,8.79-2.07,13.95-2.07s10.31,.74,15.22,2.07c4.93,1.34,9.64,3.29,13.88,5.71,4.27,2.44,8.07,5.35,11.15,8.62,3.11,3.29,5.49,6.94,6.87,10.81,1.39,3.9,1.64,7.66,.87,11.11-.77,3.48-2.57,6.65-5.24,9.32-2.69,2.7-6.26,4.89-10.54,6.42-4.3,1.53-9.31,2.38-14.85,2.38m-19.3-62.79c-3.24,0-6.34,.23-9.26,.68-2.93,.45-5.69,1.11-8.26,1.95-2.57,.85-4.96,1.9-7.12,3.11-2.17,1.22-4.13,2.61-5.84,4.15-1.65,1.49-3.08,3.12-4.26,4.87-1.18,1.76-2.12,3.64-2.77,5.63-.66,2-1.03,4.1-1.1,6.3-.07,2.2,.17,4.5,.75,6.86,.26,1.04,.57,2.07,.94,3.08,.37,1.02,.81,2.03,1.29,3.03,.49,1,1.03,1.99,1.63,2.97,.6,.98,1.25,1.95,1.95,2.9,2.58,3.5,5.83,6.78,9.6,9.74,3.8,2.98,8.12,5.63,12.81,7.84,4.71,2.22,9.78,4,15.05,5.22,5.28,1.22,10.74,1.89,16.2,1.89,3.06,0,5.98-.21,8.76-.61,2.78-.4,5.4-.98,7.86-1.74,2.45-.76,4.74-1.68,6.83-2.76,2.09-1.07,3.99-2.3,5.69-3.65,2.15-1.72,3.97-3.65,5.42-5.75,1.44-2.09,2.52-4.35,3.2-6.74,.68-2.37,.96-4.88,.82-7.47-.14-2.57-.69-5.24-1.69-7.95-.23-.63-.48-1.25-.75-1.86-.27-.62-.56-1.23-.87-1.83-.31-.6-.64-1.2-.99-1.79-.35-.59-.71-1.18-1.1-1.76-2.56-3.87-5.92-7.46-9.85-10.66-3.9-3.18-8.36-5.98-13.2-8.31-4.8-2.31-9.98-4.15-15.33-5.4-5.34-1.25-10.86-1.94-16.4-1.94"/>
      <path class="cls-12" d="M526.68,256.97c-5.3,0-10.23,.78-14.63,2.19-4.41,1.42-8.3,3.47-11.48,6.03-3.2,2.57-5.68,5.66-7.25,9.11-1.59,3.48-2.25,7.35-1.78,11.44,.47,4.13,2.06,8.11,4.54,11.77,2.5,3.69,5.9,7.04,9.96,9.88,4.09,2.86,8.84,5.19,14,6.8,5.18,1.62,10.76,2.52,16.46,2.52s10.99-.9,15.64-2.52c4.63-1.62,8.62-3.95,11.77-6.8,3.13-2.84,5.42-6.19,6.71-9.88,1.27-3.66,1.55-7.64,.67-11.77-.87-4.09-2.8-7.96-5.53-11.44-2.71-3.45-6.2-6.54-10.24-9.11-4.02-2.56-8.58-4.62-13.46-6.03-4.86-1.41-10.05-2.19-15.35-2.19"/>
      <path class="cls-9" d="M536.49,316.72c-5.7,0-11.28-.9-16.46-2.52-5.16-1.62-9.91-3.95-14-6.8-4.06-2.84-7.46-6.19-9.96-9.88-2.48-3.66-4.06-7.64-4.54-11.77-.47-4.09,.19-7.96,1.78-11.44,1.57-3.45,4.06-6.54,7.25-9.11,3.18-2.56,7.06-4.62,11.48-6.03,4.4-1.41,9.33-2.19,14.63-2.19s10.49,.78,15.35,2.19c4.88,1.42,9.44,3.47,13.46,6.03,4.04,2.57,7.54,5.66,10.24,9.11,2.73,3.48,4.66,7.35,5.53,11.44,.88,4.13,.6,8.11-.67,11.77-1.29,3.69-3.58,7.04-6.71,9.88-3.15,2.86-7.14,5.19-11.77,6.8-4.65,1.62-9.93,2.52-15.64,2.52m-10.91-66.45c-6.22,0-12.03,.86-17.26,2.43-5.25,1.58-9.93,3.88-13.84,6.74-3.94,2.89-7.12,6.37-9.32,10.29-2.22,3.96-3.45,8.37-3.47,13.08,0,.24,0,.48,0,.73,0,.24,.01,.49,.03,.73,.01,.24,.03,.49,.05,.74,.02,.25,.04,.49,.07,.74,.35,3.39,1.3,6.71,2.78,9.88,1.49,3.2,3.51,6.26,5.99,9.11,2.49,2.87,5.44,5.53,8.76,7.91,3.34,2.39,7.05,4.5,11.04,6.25,2.06,.9,4.18,1.71,6.37,2.42,2.19,.71,4.45,1.31,6.74,1.8,2.3,.49,4.65,.87,7.03,1.12,2.38,.25,4.79,.39,7.22,.39,7.13,0,13.72-1.13,19.52-3.17,5.77-2.03,10.73-4.94,14.64-8.51,3.88-3.54,6.72-7.72,8.3-12.31,1.56-4.54,1.89-9.48,.79-14.59,0-.02-.01-.05-.02-.07,0-.02-.01-.05-.02-.07l-.02-.07s-.01-.05-.02-.07c-.76-3.37-2.09-6.61-3.9-9.66-1.8-3.03-4.07-5.88-6.72-8.5-2.63-2.6-5.65-4.98-8.95-7.09-3.29-2.09-6.86-3.91-10.65-5.42-1.93-.77-3.92-1.45-5.95-2.05-2.03-.59-4.11-1.1-6.22-1.51-2.11-.41-4.25-.72-6.42-.93-2.17-.21-4.36-.32-6.58-.32"/>
      <path class="cls-12" d="M399.88,172.87c-4.73,0-9.25,.62-13.37,1.74-4.14,1.13-7.9,2.76-11.09,4.79-3.21,2.04-5.86,4.49-7.74,7.23-1.9,2.76-3.03,5.81-3.18,9.05-.15,3.26,.7,6.4,2.38,9.28,1.7,2.9,4.24,5.54,7.44,7.77,3.22,2.24,7.1,4.07,11.44,5.34,4.35,1.27,9.16,1.98,14.21,1.98s9.85-.71,14.2-1.98c4.34-1.27,8.21-3.09,11.42-5.34,3.19-2.23,5.72-4.86,7.41-7.77,1.68-2.88,2.52-6.02,2.35-9.28-.17-3.23-1.31-6.29-3.22-9.05-1.89-2.74-4.55-5.18-7.77-7.23-3.2-2.03-6.97-3.67-11.11-4.79-4.13-1.12-8.65-1.74-13.38-1.74"/>
      <path class="cls-9" d="M399.97,220.05c-5.05,0-9.86-.71-14.21-1.98-4.34-1.27-8.22-3.09-11.44-5.34-3.2-2.23-5.74-4.86-7.44-7.77-1.69-2.88-2.54-6.02-2.38-9.28,.15-3.23,1.28-6.29,3.18-9.05,1.89-2.74,4.53-5.18,7.74-7.23,3.19-2.03,6.95-3.67,11.09-4.79,4.13-1.12,8.64-1.74,13.37-1.74s9.25,.62,13.38,1.74c4.14,1.13,7.91,2.76,11.11,4.79,3.22,2.04,5.87,4.49,7.77,7.23,1.91,2.76,3.05,5.81,3.22,9.05,.17,3.26-.68,6.4-2.35,9.28-1.69,2.9-4.22,5.54-7.41,7.77-3.21,2.24-7.08,4.07-11.42,5.34-4.35,1.27-9.15,1.98-14.2,1.98m-.09-52.51c-1.1,0-2.19,.03-3.27,.08-1.08,.05-2.15,.13-3.21,.24-1.06,.1-2.1,.23-3.13,.39-1.03,.15-2.05,.33-3.05,.53-3.95,.79-7.68,1.94-11.09,3.4-3.42,1.46-6.53,3.24-9.23,5.27-2.71,2.04-5.01,4.34-6.8,6.84-1.8,2.52-3.08,5.24-3.74,8.11-.06,.27-.12,.54-.17,.81-.05,.27-.1,.54-.14,.82-.04,.27-.07,.55-.1,.83-.03,.28-.05,.56-.07,.83-.17,2.92,.3,5.76,1.34,8.46,1.05,2.72,2.68,5.3,4.8,7.68,2.14,2.39,4.77,4.57,7.82,6.47,3.06,1.91,6.54,3.53,10.33,4.81,1.49,.5,3.02,.94,4.6,1.33,1.58,.39,3.2,.72,4.86,.98,1.66,.27,3.35,.47,5.08,.61,1.73,.14,3.48,.21,5.26,.21,2.31,0,4.58-.12,6.8-.35,2.22-.23,4.38-.57,6.47-1.01,2.09-.44,4.11-.98,6.06-1.62,1.94-.63,3.8-1.36,5.56-2.16,3.06-1.4,5.83-3.05,8.26-4.9,2.42-1.84,4.49-3.88,6.15-6.07,1.66-2.18,2.91-4.5,3.71-6.93,.79-2.41,1.14-4.93,.97-7.5-.25-4.01-1.71-7.8-4.12-11.21-2.38-3.38-5.7-6.4-9.7-8.91-3.98-2.5-8.64-4.51-13.76-5.89-5.1-1.38-10.68-2.14-16.51-2.14"/>
      <path class="cls-12" d="M313.35,191.2c-4.85,0-9.57,.65-13.95,1.84-4.39,1.19-8.46,2.91-12,5.05-3.56,2.15-6.59,4.73-8.88,7.62-2.31,2.91-3.86,6.13-4.44,9.54-.58,3.44-.11,6.76,1.25,9.8,1.37,3.07,3.64,5.85,6.64,8.2,3.02,2.37,6.77,4.3,11.07,5.64,4.31,1.34,9.16,2.09,14.36,2.09s10.22-.75,14.86-2.09c4.62-1.34,8.83-3.27,12.42-5.64,3.56-2.35,6.5-5.14,8.6-8.2,2.09-3.04,3.35-6.35,3.59-9.8,.24-3.41-.55-6.63-2.16-9.54-1.6-2.89-4.02-5.47-7.06-7.62-3.03-2.14-6.68-3.87-10.79-5.05-4.1-1.18-8.65-1.84-13.51-1.84"/>
      <path class="cls-9" d="M307.41,240.98c-5.19,0-10.04-.75-14.36-2.09-4.3-1.34-8.05-3.27-11.07-5.64-3-2.35-5.27-5.14-6.64-8.2-1.36-3.04-1.83-6.35-1.25-9.8,.58-3.41,2.13-6.63,4.44-9.54,2.29-2.89,5.32-5.47,8.88-7.62,3.54-2.14,7.61-3.87,12-5.05,4.38-1.18,9.09-1.84,13.95-1.84s9.41,.65,13.51,1.84c4.11,1.19,7.77,2.91,10.79,5.05,3.05,2.15,5.46,4.73,7.06,7.62,1.61,2.91,2.4,6.13,2.16,9.54-.24,3.44-1.5,6.76-3.59,9.8-2.1,3.07-5.04,5.85-8.6,8.2-3.59,2.37-7.8,4.3-12.42,5.64-4.63,1.34-9.66,2.09-14.86,2.09m6.61-55.39c-.91,0-1.81,.02-2.7,.05s-1.79,.09-2.67,.16c-.89,.07-1.77,.16-2.64,.26-.87,.1-1.74,.23-2.6,.36-4.84,.77-9.46,2.06-13.71,3.77-4.27,1.72-8.18,3.87-11.57,6.37-3.41,2.51-6.3,5.38-8.5,8.5-2.22,3.15-3.74,6.58-4.4,10.18-.68,3.76-.35,7.4,.85,10.8,1.21,3.43,3.32,6.62,6.17,9.43,2.87,2.83,6.5,5.29,10.73,7.22,4.25,1.95,9.1,3.37,14.39,4.14,.74,.11,1.49,.2,2.24,.29,.76,.08,1.52,.15,2.29,.21s1.55,.1,2.34,.13c.79,.03,1.58,.04,2.38,.04,3.65,0,7.25-.3,10.72-.86,3.47-.56,6.82-1.39,10-2.44,3.17-1.05,6.17-2.33,8.95-3.8,2.76-1.47,5.31-3.12,7.57-4.93,1.76-1.41,3.36-2.91,4.78-4.49,1.41-1.57,2.63-3.23,3.64-4.94,1.01-1.7,1.81-3.47,2.39-5.28,.58-1.8,.93-3.64,1.04-5.52,.12-1.98-.05-3.91-.46-5.77-.41-1.85-1.07-3.63-1.96-5.33-.88-1.69-1.98-3.3-3.29-4.81-1.3-1.5-2.79-2.91-4.46-4.21-1.9-1.48-4.03-2.82-6.35-4-2.31-1.17-4.82-2.18-7.49-3-2.66-.82-5.49-1.46-8.45-1.89-2.96-.43-6.05-.66-9.24-.66"/>
      <path class="cls-12" d="M328.65,266.6c-5.37,0-10.56,.8-15.38,2.25-4.83,1.45-9.3,3.56-13.17,6.18-3.9,2.64-7.21,5.8-9.69,9.34-2.5,3.57-4.17,7.53-4.75,11.73-.58,4.24,0,8.33,1.56,12.08,1.58,3.79,4.15,7.23,7.54,10.14,3.41,2.93,7.62,5.32,12.43,6.98,4.83,1.67,10.25,2.59,16.03,2.59s11.37-.92,16.49-2.59c5.11-1.66,9.74-4.05,13.67-6.98,3.9-2.91,7.09-6.35,9.33-10.14,2.23-3.75,3.53-7.84,3.7-12.08,.17-4.2-.8-8.16-2.67-11.73-1.85-3.54-4.6-6.7-8.03-9.34-3.41-2.62-7.5-4.73-12.08-6.18-4.56-1.45-9.62-2.25-14.98-2.25"/>
      <path class="cls-9" d="M323.22,327.89c-5.78,0-11.2-.92-16.03-2.59-4.81-1.66-9.03-4.05-12.43-6.98-3.38-2.91-5.96-6.35-7.54-10.14-1.56-3.75-2.14-7.84-1.56-12.08,.58-4.2,2.25-8.16,4.75-11.73,2.48-3.54,5.79-6.7,9.69-9.34,3.87-2.62,8.34-4.73,13.17-6.18,4.82-1.45,10.01-2.25,15.38-2.25s10.42,.8,14.98,2.25c4.58,1.45,8.67,3.56,12.08,6.18,3.43,2.64,6.18,5.8,8.03,9.34,1.87,3.57,2.84,7.53,2.67,11.73-.17,4.24-1.47,8.33-3.7,12.08-2.25,3.79-5.44,7.23-9.33,10.14-3.93,2.93-8.56,5.32-13.67,6.98-5.13,1.67-10.71,2.59-16.49,2.59m6.04-68.15c-1.44,0-2.87,.05-4.29,.14-1.42,.09-2.82,.23-4.22,.4-1.39,.18-2.77,.4-4.13,.66-1.36,.26-2.7,.56-4.02,.9-4.75,1.23-9.25,2.96-13.36,5.11-4.14,2.16-7.9,4.76-11.14,7.7-3.27,2.96-6.02,6.28-8.11,9.86-2.11,3.62-3.54,7.51-4.16,11.59-.07,.46-.13,.92-.17,1.38-.05,.46-.08,.91-.11,1.37-.03,.46-.04,.91-.04,1.36,0,.45,0,.9,.02,1.35,.14,3.52,.92,6.92,2.28,10.13,1.37,3.23,3.33,6.26,5.81,9.01,2.49,2.77,5.49,5.25,8.92,7.38,3.45,2.13,7.33,3.9,11.56,5.22,1.4,.44,2.84,.83,4.31,1.16,1.47,.34,2.98,.62,4.52,.85,1.54,.23,3.11,.41,4.7,.52,1.6,.12,3.22,.18,4.86,.18,7.26,0,14.26-1.17,20.69-3.28,6.39-2.1,12.18-5.12,17.07-8.82,4.84-3.67,8.79-7.99,11.54-12.74,2.73-4.69,4.29-9.79,4.44-15.07,.07-2.45-.17-4.83-.7-7.12-.52-2.28-1.31-4.48-2.35-6.57-1.04-2.08-2.32-4.06-3.82-5.92-1.49-1.85-3.2-3.58-5.1-5.17-2.14-1.8-4.53-3.43-7.13-4.85-2.59-1.42-5.38-2.64-8.34-3.64-2.96-1-6.09-1.77-9.36-2.29-3.26-.52-6.67-.8-10.19-.8"/>
      <path class="cls-12" d="M213.85,281.04c-5.46,0-10.87,.83-15.99,2.33-5.14,1.51-10,3.69-14.33,6.41-4.36,2.74-8.21,6.02-11.26,9.69-3.08,3.71-5.37,7.82-6.59,12.18-1.23,4.4-1.25,8.65-.21,12.54,1.04,3.93,3.16,7.51,6.17,10.54,3.03,3.05,6.97,5.53,11.63,7.26,4.68,1.73,10.07,2.69,15.96,2.69s11.73-.96,17.2-2.69c5.45-1.73,10.53-4.21,14.97-7.26,4.4-3.03,8.16-6.6,11.01-10.54,2.82-3.9,4.76-8.14,5.55-12.54,.79-4.36,.39-8.47-.99-12.18-1.37-3.67-3.7-6.96-6.81-9.69-3.09-2.72-6.94-4.91-11.39-6.41-4.43-1.5-9.46-2.33-14.92-2.33"/>
      <path class="cls-9" d="M199.22,344.69c-5.9,0-11.28-.96-15.96-2.69-4.66-1.73-8.6-4.21-11.63-7.26-3.01-3.03-5.13-6.6-6.17-10.54-1.03-3.9-1.02-8.14,.21-12.54,1.22-4.36,3.51-8.47,6.59-12.18,3.06-3.67,6.9-6.96,11.26-9.69,4.33-2.72,9.2-4.91,14.33-6.41,5.12-1.5,10.53-2.33,15.99-2.33s10.49,.83,14.92,2.33c4.45,1.51,8.3,3.69,11.39,6.41,3.11,2.74,5.44,6.02,6.81,9.69,1.38,3.71,1.78,7.82,.99,12.18-.79,4.4-2.73,8.65-5.55,12.54-2.85,3.93-6.61,7.51-11.01,10.54-4.44,3.05-9.52,5.53-14.97,7.26-5.47,1.73-11.3,2.69-17.2,2.69m16.26-70.76c-4.16,0-8.28,.38-12.32,1.11-4.04,.73-7.99,1.8-11.79,3.16-3.81,1.37-7.46,3.05-10.89,4.98-3.45,1.95-6.67,4.16-9.59,6.59-1.82,1.52-3.53,3.12-5.1,4.8-1.58,1.69-3.03,3.45-4.32,5.28-1.3,1.84-2.44,3.75-3.42,5.71-.98,1.97-1.78,4.01-2.38,6.09-1.6,5.48-1.68,10.77-.45,15.65,1.24,4.93,3.83,9.43,7.56,13.24,3.76,3.85,8.67,6.98,14.5,9.17,5.86,2.19,12.61,3.41,20.02,3.41,3.17,0,6.33-.22,9.44-.65,3.11-.43,6.18-1.06,9.17-1.88,2.99-.82,5.9-1.82,8.7-2.98,2.8-1.16,5.49-2.48,8.05-3.95,3.4-1.95,6.57-4.15,9.43-6.55,2.85-2.39,5.4-4.98,7.58-7.72,2.17-2.73,3.99-5.6,5.4-8.58,1.4-2.96,2.38-6.02,2.91-9.15,.11-.63,.19-1.26,.26-1.88,.07-.62,.11-1.24,.14-1.85,.03-.61,.04-1.22,.03-1.82,0-.6-.04-1.2-.08-1.78-.31-3.96-1.45-7.68-3.28-11.05-1.82-3.35-4.33-6.37-7.41-8.97-3.07-2.58-6.7-4.76-10.81-6.44-4.09-1.67-8.64-2.86-13.57-3.46-.62-.08-1.25-.14-1.89-.2-.63-.06-1.28-.11-1.92-.15-.65-.04-1.3-.07-1.96-.09-.66-.02-1.32-.03-1.99-.03"/>
      <path class="cls-12" d="M210.85,212.1c-4.99,0-9.94,.69-14.62,1.95-4.7,1.26-9.14,3.09-13.11,5.36-3.99,2.28-7.49,5.02-10.28,8.08-2.81,3.09-4.89,6.5-6,10.12-1.11,3.66-1.12,7.17-.18,10.4,.95,3.26,2.88,6.22,5.62,8.72,2.76,2.52,6.34,4.57,10.57,5.99,4.25,1.43,9.14,2.22,14.49,2.22s10.65-.79,15.63-2.22c4.96-1.42,9.59-3.48,13.64-5.99,4.02-2.5,7.46-5.46,10.08-8.72,2.6-3.23,4.38-6.75,5.14-10.4,.75-3.62,.41-7.04-.82-10.12-1.22-3.06-3.33-5.8-6.15-8.08-2.8-2.27-6.31-4.1-10.37-5.36-4.04-1.25-8.64-1.95-13.63-1.95"/>
      <path class="cls-9" d="M197.36,264.94c-5.35,0-10.24-.79-14.49-2.22-4.23-1.42-7.81-3.48-10.57-5.99-2.74-2.5-4.67-5.46-5.62-8.72-.95-3.23-.94-6.75,.18-10.4,1.1-3.62,3.19-7.04,6-10.12,2.79-3.06,6.3-5.8,10.28-8.08,3.96-2.27,8.41-4.1,13.11-5.36,4.68-1.25,9.63-1.95,14.62-1.95s9.59,.69,13.63,1.95c4.06,1.26,7.57,3.09,10.37,5.36,2.82,2.28,4.93,5.02,6.15,8.08,1.23,3.09,1.57,6.5,.82,10.12-.75,3.66-2.54,7.17-5.14,10.4-2.62,3.26-6.05,6.22-10.08,8.72-4.05,2.52-8.67,4.57-13.64,5.99-4.98,1.43-10.28,2.22-15.63,2.22m15.02-58.79c-.73,0-1.46,.01-2.19,.04s-1.46,.06-2.18,.11-1.45,.1-2.17,.17c-.72,.07-1.44,.15-2.16,.24-4.25,.54-8.42,1.46-12.41,2.72-4,1.26-7.82,2.85-11.37,4.71-3.57,1.88-6.87,4.04-9.79,6.43-2.94,2.41-5.51,5.05-7.6,7.88-.53,.72-1.03,1.45-1.5,2.19-.47,.74-.9,1.49-1.3,2.26-.4,.76-.77,1.54-1.1,2.32-.33,.79-.62,1.58-.88,2.38-1.08,3.41-1.39,6.73-1,9.88,.39,3.18,1.49,6.18,3.23,8.92,1.74,2.76,4.13,5.26,7.06,7.4,2.95,2.15,6.46,3.95,10.44,5.3,1.32,.45,2.7,.85,4.12,1.2,1.42,.35,2.9,.64,4.41,.88,1.52,.24,3.08,.42,4.68,.54,1.6,.12,3.24,.18,4.92,.18,2.78,0,5.55-.17,8.28-.5,2.73-.33,5.43-.82,8.06-1.45,2.63-.63,5.2-1.4,7.68-2.3,2.48-.9,4.87-1.92,7.16-3.06,3.22-1.61,6.23-3.43,8.96-5.44,2.71-2,5.14-4.18,7.24-6.49,2.08-2.3,3.83-4.74,5.18-7.27,1.35-2.51,2.3-5.12,2.82-7.78,.87-4.5,.4-8.73-1.17-12.55-1.56-3.78-4.21-7.15-7.73-9.95-3.49-2.79-7.84-5.03-12.86-6.57-5-1.53-10.67-2.38-16.83-2.38"/>
      <path class="cls-12" d="M119.82,194.09c-4.87,0-9.79,.66-14.5,1.85-4.73,1.2-9.29,2.94-13.43,5.09-4.16,2.17-7.91,4.77-10.99,7.68-3.11,2.93-5.55,6.18-7.05,9.62-1.52,3.47-1.95,6.81-1.41,9.88,.54,3.09,2.07,5.9,4.44,8.28,2.39,2.39,5.63,4.34,9.58,5.69,3.97,1.36,8.64,2.11,13.85,2.11s10.47-.75,15.49-2.11c5-1.35,9.76-3.3,14.01-5.69,4.22-2.38,7.93-5.18,10.87-8.28,2.92-3.07,5.09-6.41,6.27-9.88,1.17-3.44,1.25-6.69,.43-9.62-.82-2.91-2.55-5.51-5.02-7.68-2.46-2.16-5.66-3.9-9.46-5.09-3.79-1.19-8.19-1.85-13.06-1.85"/>
      <path class="cls-9" d="M100.3,244.3c-5.21,0-9.88-.75-13.85-2.11-3.95-1.35-7.2-3.3-9.58-5.69-2.37-2.38-3.9-5.18-4.44-8.28-.54-3.07-.11-6.41,1.41-9.88,1.51-3.44,3.95-6.69,7.05-9.62,3.08-2.91,6.83-5.51,10.99-7.68,4.14-2.16,8.69-3.9,13.43-5.09,4.72-1.19,9.63-1.85,14.5-1.85s9.27,.66,13.06,1.85c3.8,1.2,7.01,2.94,9.46,5.09,2.47,2.17,4.2,4.77,5.02,7.68,.83,2.93,.74,6.18-.43,9.62-1.18,3.47-3.35,6.81-6.27,9.88-2.95,3.09-6.65,5.9-10.87,8.28-4.25,2.39-9,4.34-14.01,5.69-5.02,1.36-10.27,2.11-15.49,2.11m21.72-55.86c-6.01,0-12.07,.81-17.89,2.27-5.85,1.47-11.48,3.6-16.61,6.25-5.16,2.67-9.83,5.88-13.68,9.47-3.89,3.63-6.96,7.65-8.89,11.92-.55,1.23-1,2.45-1.33,3.65-.34,1.2-.57,2.39-.7,3.56-.13,1.17-.15,2.32-.07,3.44,.08,1.13,.26,2.23,.53,3.3,.67,2.6,1.92,5.02,3.69,7.2,1.78,2.19,4.09,4.14,6.86,5.78,2.79,1.64,6.04,2.98,9.71,3.93,3.67,.95,7.75,1.53,12.16,1.66,.16,0,.32,0,.48,.01,.16,0,.32,0,.48,0,.16,0,.32,0,.49,0,.16,0,.33,0,.49,0,5.48,0,10.99-.67,16.33-1.89,5.33-1.22,10.48-2.99,15.24-5.2,4.74-2.19,9.1-4.82,12.88-7.75,3.76-2.91,6.95-6.13,9.39-9.54,.47-.66,.91-1.32,1.33-1.99,.41-.67,.8-1.35,1.15-2.03,.35-.68,.68-1.37,.97-2.06,.29-.69,.55-1.38,.78-2.08,.73-2.23,1.1-4.4,1.12-6.47,.03-2.06-.27-4.04-.88-5.91-.6-1.86-1.51-3.61-2.68-5.23-1.17-1.61-2.61-3.1-4.29-4.45-1.54-1.23-3.29-2.34-5.22-3.3-1.93-.97-4.04-1.79-6.32-2.47-2.28-.67-4.72-1.2-7.32-1.55-2.59-.35-5.34-.54-8.21-.54"/>
      <path class="cls-12" d="M65.85,265.6c-5.36,0-10.82,.8-16.11,2.24-5.31,1.45-10.47,3.55-15.21,6.17-4.77,2.63-9.13,5.79-12.78,9.32-3.69,3.56-6.67,7.51-8.64,11.7-1.99,4.23-2.77,8.3-2.46,12.05,.32,3.78,1.75,7.21,4.16,10.11,2.43,2.93,5.84,5.31,10.09,6.96,4.27,1.66,9.38,2.58,15.15,2.58s11.66-.92,17.33-2.58c5.65-1.66,11.08-4.04,15.97-6.96,4.86-2.91,9.19-6.34,12.69-10.11,3.47-3.74,6.13-7.82,7.71-12.05,1.56-4.19,1.91-8.14,1.23-11.7-.68-3.53-2.37-6.69-4.92-9.32-2.53-2.61-5.92-4.72-10.01-6.17-4.07-1.44-8.86-2.24-14.22-2.24"/>
      <path class="cls-9" d="M40.06,326.73c-5.77,0-10.88-.92-15.15-2.58-4.25-1.66-7.67-4.04-10.09-6.96-2.41-2.91-3.84-6.34-4.16-10.11-.32-3.74,.46-7.82,2.46-12.05,1.97-4.19,4.95-8.14,8.64-11.7,3.66-3.53,8.01-6.69,12.78-9.32,4.74-2.61,9.9-4.72,15.21-6.17,5.29-1.44,10.75-2.24,16.11-2.24s10.14,.8,14.22,2.24c4.09,1.45,7.47,3.55,10.01,6.17,2.55,2.63,4.24,5.79,4.92,9.32,.68,3.56,.33,7.51-1.23,11.7-1.58,4.23-4.24,8.3-7.71,12.05-3.5,3.78-7.83,7.21-12.69,10.11-4.9,2.93-10.32,5.31-15.97,6.96-5.67,1.66-11.56,2.58-17.33,2.58m28.68-67.97c-2.32,0-4.66,.12-7,.35-2.34,.23-4.68,.58-7,1.03-2.33,.45-4.65,1.01-6.94,1.66-2.29,.65-4.56,1.41-6.8,2.25-4.12,1.56-8.12,3.42-11.9,5.55-3.8,2.14-7.37,4.55-10.64,7.18-3.29,2.64-6.26,5.51-8.81,8.56-2.57,3.07-4.73,6.32-6.36,9.69-2.09,4.32-3.16,8.51-3.29,12.46-.13,3.99,.69,7.73,2.37,11.08,1.7,3.38,4.28,6.37,7.65,8.84,3.39,2.48,7.56,4.42,12.41,5.7,1.06,.28,2.15,.53,3.28,.74,1.12,.21,2.28,.39,3.46,.54,1.19,.14,2.4,.25,3.64,.33,1.24,.07,2.51,.11,3.81,.11,3.44,0,6.92-.26,10.38-.77,3.46-.5,6.91-1.24,10.3-2.2,3.38-.95,6.7-2.11,9.92-3.46,3.21-1.34,6.31-2.87,9.27-4.55,3.26-1.85,6.34-3.9,9.19-6.1,2.84-2.19,5.44-4.53,7.76-6.98,2.31-2.44,4.34-5,6.04-7.64,1.69-2.63,3.06-5.33,4.05-8.09,1.32-3.66,1.9-7.18,1.81-10.47-.09-3.27-.83-6.33-2.16-9.11-1.32-2.76-3.21-5.26-5.61-7.43-2.39-2.16-5.28-3.99-8.61-5.45-1.4-.61-2.88-1.15-4.43-1.63-1.55-.47-3.18-.87-4.87-1.19-1.69-.32-3.46-.57-5.29-.74-1.83-.17-3.73-.25-5.68-.25"/>
      <path class="cls-12" d="M100.78,348.29c-5.92,0-11.91,.97-17.69,2.73-5.8,1.77-11.41,4.34-16.54,7.54-5.16,3.22-9.85,7.09-13.74,11.42-3.93,4.37-7.07,9.22-9.09,14.37-2.04,5.2-2.73,10.22-2.23,14.84,.51,4.66,2.24,8.9,5.04,12.5,2.82,3.62,6.72,6.58,11.53,8.63,4.83,2.06,10.56,3.21,16.99,3.21s12.94-1.14,19.18-3.21c6.21-2.05,12.13-5.01,17.43-8.63,5.26-3.59,9.89-7.84,13.59-12.5,3.66-4.62,6.4-9.63,7.92-14.84,1.51-5.15,1.69-10,.74-14.37-.94-4.33-2.98-8.19-5.94-11.42-2.94-3.2-6.79-5.77-11.38-7.54-4.57-1.76-9.9-2.73-15.82-2.73"/>
      <path class="cls-9" d="M75.06,423.52c-6.43,0-12.16-1.14-16.99-3.21-4.81-2.05-8.71-5.01-11.53-8.63-2.8-3.59-4.53-7.84-5.04-12.5-.5-4.62,.19-9.63,2.23-14.84,2.01-5.15,5.15-10,9.09-14.37,3.9-4.33,8.58-8.19,13.74-11.42,5.12-3.2,10.73-5.77,16.54-7.54,5.78-1.76,11.77-2.73,17.69-2.73s11.25,.97,15.82,2.73c4.59,1.77,8.44,4.34,11.38,7.54,2.96,3.22,5,7.09,5.94,11.42,.95,4.37,.77,9.22-.74,14.37-1.52,5.2-4.26,10.22-7.92,14.84-3.7,4.66-8.33,8.9-13.59,12.5-5.3,3.62-11.22,6.58-17.43,8.63-6.24,2.06-12.75,3.21-19.18,3.21m28.57-83.58c-1.74,0-3.48,.07-5.22,.2-1.74,.13-3.48,.33-5.22,.58-1.74,.26-3.47,.58-5.19,.95-1.73,.38-3.44,.81-5.15,1.3-4.84,1.4-9.59,3.24-14.12,5.47-4.56,2.24-8.92,4.88-12.96,7.85-4.07,2.99-7.83,6.31-11.15,9.9-3.35,3.62-6.26,7.52-8.61,11.63-.3,.53-.6,1.06-.88,1.6-.28,.54-.56,1.08-.82,1.62-.27,.54-.52,1.09-.77,1.64-.25,.55-.48,1.11-.71,1.66-2.61,6.48-3.56,12.75-3,18.52,.56,5.85,2.66,11.19,6.12,15.72,3.49,4.57,8.34,8.31,14.35,10.91,6.04,2.61,13.23,4.07,21.31,4.07,3.74,0,7.51-.31,11.25-.91,3.74-.59,7.45-1.47,11.1-2.6,3.64-1.13,7.2-2.5,10.65-4.1,3.44-1.59,6.76-3.4,9.93-5.4,3.65-2.31,7.09-4.86,10.26-7.62,3.15-2.74,6.02-5.68,8.56-8.78,2.52-3.07,4.71-6.3,6.52-9.63,1.79-3.3,3.2-6.71,4.17-10.18,.22-.78,.41-1.56,.59-2.33,.17-.77,.32-1.53,.44-2.29,.12-.76,.22-1.5,.3-2.25,.08-.74,.13-1.47,.16-2.2,.22-5.21-.73-10.04-2.66-14.35-1.91-4.27-4.8-8.04-8.51-11.15-3.68-3.09-8.18-5.56-13.35-7.24-5.15-1.68-10.99-2.59-17.4-2.59"/>
      <path class="cls-12" d="M234.6,361.3c-6.01,0-11.94,1-17.53,2.82-5.61,1.82-10.91,4.47-15.61,7.77-4.74,3.32-8.9,7.3-12.18,11.76-3.32,4.51-5.75,9.51-7,14.82-1.26,5.37-1.19,10.55,.04,15.31,1.24,4.81,3.66,9.19,7.06,12.9,3.43,3.74,7.85,6.79,13.06,8.91,5.23,2.13,11.23,3.31,17.76,3.31s12.97-1.18,18.99-3.31c5.99-2.12,11.55-5.17,16.36-8.91,4.78-3.71,8.82-8.09,11.85-12.9,2.99-4.76,4.99-9.94,5.72-15.31,.72-5.31,.15-10.31-1.5-14.82-1.63-4.46-4.31-8.45-7.81-11.76-3.48-3.29-7.79-5.94-12.73-7.77-4.92-1.82-10.47-2.82-16.48-2.82"/>
      <path class="cls-9" d="M220.2,438.9c-6.54,0-12.53-1.18-17.76-3.31-5.21-2.12-9.63-5.17-13.06-8.91-3.4-3.71-5.82-8.09-7.06-12.9-1.23-4.76-1.3-9.94-.04-15.31,1.25-5.31,3.68-10.31,7-14.82,3.28-4.46,7.44-8.45,12.18-11.76,4.7-3.29,10-5.94,15.61-7.77,5.59-1.82,11.52-2.82,17.53-2.82s11.57,1,16.48,2.82c4.94,1.82,9.25,4.47,12.73,7.77,3.51,3.32,6.19,7.3,7.81,11.76,1.64,4.51,2.22,9.51,1.5,14.82-.73,5.37-2.72,10.55-5.72,15.31-3.03,4.81-7.07,9.19-11.85,12.9-4.82,3.74-10.37,6.79-16.36,8.91-6.02,2.13-12.45,3.31-18.99,3.31m15.99-86.19c-5.11,0-10.17,.58-15.08,1.67-4.92,1.09-9.7,2.69-14.23,4.74-4.55,2.05-8.87,4.55-12.83,7.42-3.99,2.89-7.63,6.17-10.81,9.75-1.43,1.62-2.77,3.29-4,5.03-1.24,1.74-2.37,3.54-3.38,5.4-1.02,1.86-1.92,3.77-2.69,5.73-.78,1.96-1.42,3.97-1.93,6.02-.55,2.23-.92,4.43-1.1,6.6-.19,2.18-.2,4.32-.04,6.42,.16,2.11,.49,4.17,.99,6.17,.5,2.01,1.16,3.96,1.98,5.85,1.64,3.76,3.9,7.25,6.71,10.36,2.83,3.13,6.22,5.88,10.09,8.16,3.89,2.29,8.26,4.1,13.02,5.34,4.78,1.24,9.94,1.91,15.4,1.91,5.83,0,11.59-.76,17.15-2.16,5.54-1.4,10.86-3.44,15.82-6.01,4.94-2.56,9.51-5.64,13.58-9.13,4.04-3.47,7.59-7.33,10.52-11.49,1.19-1.69,2.28-3.44,3.26-5.22,.97-1.78,1.84-3.59,2.58-5.44,.74-1.84,1.37-3.72,1.87-5.61,.5-1.89,.87-3.81,1.11-5.74,.29-2.34,.38-4.63,.28-6.86-.1-2.22-.39-4.38-.86-6.47-.46-2.08-1.1-4.09-1.9-6.02-.79-1.92-1.75-3.77-2.85-5.53-2-3.19-4.48-6.1-7.38-8.66-2.88-2.55-6.18-4.75-9.82-6.56-3.63-1.8-7.61-3.21-11.87-4.17-4.25-.96-8.8-1.47-13.58-1.47"/>
      <path class="cls-12" d="M374.91,349.43c-5.93,0-11.62,.97-16.85,2.74-5.25,1.77-10.06,4.35-14.18,7.56-4.15,3.23-7.63,7.11-10.17,11.45-2.56,4.38-4.18,9.25-4.57,14.41-.4,5.22,.49,10.25,2.44,14.88,1.98,4.68,5.05,8.93,8.99,12.53,3.97,3.63,8.81,6.59,14.27,8.65,5.49,2.07,11.58,3.22,18.02,3.22s12.59-1.15,18.19-3.22c5.57-2.06,10.57-5.02,14.74-8.65,4.13-3.6,7.44-7.86,9.67-12.53,2.21-4.63,3.37-9.66,3.26-14.88-.11-5.16-1.46-10.03-3.79-14.41-2.3-4.34-5.57-8.22-9.54-11.45-3.95-3.21-8.62-5.79-13.77-7.56-5.13-1.77-10.77-2.74-16.7-2.74"/>
      <path class="cls-9" d="M372.86,424.87c-6.44,0-12.54-1.15-18.02-3.22-5.46-2.06-10.3-5.02-14.27-8.65-3.94-3.6-7.01-7.86-8.99-12.53-1.96-4.63-2.84-9.66-2.44-14.88,.39-5.16,2.01-10.03,4.57-14.41,2.54-4.34,6.01-8.22,10.17-11.45,4.12-3.21,8.93-5.79,14.18-7.56,5.23-1.77,10.92-2.74,16.85-2.74s11.56,.97,16.7,2.74c5.16,1.77,9.82,4.35,13.77,7.56,3.98,3.23,7.24,7.11,9.54,11.45,2.32,4.38,3.67,9.25,3.79,14.41,.12,5.22-1.04,10.25-3.26,14.88-2.23,4.68-5.54,8.93-9.67,12.53-4.17,3.63-9.16,6.59-14.74,8.65-5.6,2.07-11.75,3.22-18.19,3.22m2.28-83.81c-5.69,0-11.21,.72-16.41,2.06-5.22,1.34-10.16,3.31-14.66,5.8-4.53,2.5-8.64,5.54-12.18,9.02-3.57,3.5-6.58,7.45-8.86,11.73-.65,1.22-1.24,2.47-1.77,3.74-.53,1.28-1,2.58-1.41,3.91-.41,1.33-.74,2.69-1.01,4.06-.27,1.38-.47,2.78-.6,4.2-.24,2.75-.2,5.46,.11,8.11,.31,2.67,.9,5.27,1.73,7.8,.84,2.54,1.93,4.99,3.26,7.35,1.33,2.36,2.9,4.62,4.68,6.74,2.43,2.9,5.25,5.55,8.41,7.9,3.18,2.36,6.69,4.42,10.49,6.12,3.81,1.7,7.89,3.04,12.19,3.95,4.31,.91,8.82,1.39,13.48,1.39,6.07,0,11.94-.82,17.46-2.34,5.5-1.51,10.64-3.71,15.28-6.48,4.61-2.75,8.71-6.05,12.17-9.77,3.43-3.69,6.23-7.8,8.28-12.19,.68-1.46,1.27-2.94,1.77-4.45,.5-1.51,.92-3.04,1.25-4.6,.32-1.55,.56-3.13,.7-4.72,.14-1.59,.18-3.19,.13-4.8-.09-2.54-.41-5.02-.96-7.42-.54-2.39-1.3-4.71-2.26-6.94-.95-2.22-2.1-4.35-3.42-6.39-1.31-2.03-2.8-3.95-4.45-5.77-2.51-2.77-5.39-5.29-8.56-7.5-3.16-2.2-6.62-4.11-10.31-5.66-3.68-1.55-7.61-2.76-11.71-3.59-4.1-.82-8.39-1.26-12.8-1.26"/>
      <path class="cls-12" d="M512.7,342.9c-5.88,0-11.38,.96-16.3,2.7-4.93,1.75-9.3,4.29-12.89,7.45-3.62,3.18-6.45,7-8.29,11.27-1.85,4.32-2.69,9.11-2.27,14.19,.42,5.14,2.09,10.09,4.76,14.65,2.7,4.6,6.41,8.79,10.88,12.34,4.51,3.57,9.77,6.49,15.51,8.51,5.77,2.03,11.99,3.16,18.38,3.16s12.32-1.13,17.55-3.16c5.21-2.03,9.7-4.94,13.27-8.51,3.54-3.55,6.15-7.73,7.63-12.34,1.47-4.56,1.83-9.51,.9-14.65-.92-5.08-3.02-9.87-6.01-14.19-2.96-4.27-6.81-8.09-11.26-11.27-4.42-3.16-9.46-5.7-14.85-7.45-5.37-1.74-11.12-2.7-17.01-2.7"/>
      <path class="cls-9" d="M522.49,417.17c-6.39,0-12.61-1.13-18.38-3.16-5.74-2.03-11-4.94-15.51-8.51-4.47-3.55-8.19-7.73-10.88-12.34-2.67-4.56-4.34-9.51-4.76-14.65-.42-5.08,.42-9.87,2.27-14.19,1.84-4.27,4.67-8.09,8.29-11.27,3.59-3.16,7.96-5.7,12.89-7.45,4.91-1.74,10.41-2.7,16.3-2.7s11.63,.96,17.01,2.7c5.39,1.75,10.43,4.29,14.85,7.45,4.45,3.18,8.3,7,11.26,11.27,2.99,4.32,5.09,9.11,6.01,14.19,.93,5.14,.57,10.09-.9,14.65-1.48,4.6-4.1,8.79-7.63,12.34-3.56,3.57-8.06,6.49-13.27,8.51-5.23,2.03-11.16,3.16-17.55,3.16m-10.87-82.51c-4.98,0-9.73,.55-14.18,1.59-4.46,1.04-8.63,2.56-12.43,4.5-3.81,1.95-7.26,4.32-10.25,7.05-3.01,2.74-5.57,5.85-7.58,9.26-.92,1.56-1.73,3.18-2.42,4.86-.69,1.69-1.25,3.43-1.69,5.22-.43,1.8-.73,3.65-.89,5.55-.16,1.9-.17,3.85-.03,5.84,.15,2.11,.47,4.19,.94,6.24,.48,2.06,1.11,4.09,1.9,6.07,.79,1.99,1.73,3.94,2.81,5.84,1.08,1.9,2.31,3.75,3.66,5.54,2.75,3.63,6.03,6.99,9.75,10,3.74,3.02,7.91,5.68,12.42,7.88,4.52,2.21,9.37,3.96,14.44,5.16,5.08,1.2,10.36,1.84,15.73,1.84s10.64-.66,15.46-1.9c4.81-1.23,9.25-3.03,13.22-5.31,3.96-2.26,7.45-4.99,10.38-8.1,2.92-3.08,5.29-6.53,7.04-10.25,.82-1.74,1.5-3.55,2.03-5.4,.53-1.85,.92-3.74,1.16-5.68,.24-1.93,.32-3.89,.25-5.89-.07-1.99-.3-4.01-.7-6.05-.4-2.05-.95-4.06-1.64-6.03-.69-1.96-1.52-3.86-2.47-5.72-.95-1.85-2.03-3.64-3.22-5.37-1.19-1.72-2.49-3.39-3.9-4.98-2.92-3.31-6.29-6.34-10-9.01-3.69-2.65-7.72-4.96-11.99-6.85-4.26-1.88-8.76-3.36-13.43-4.37-4.65-1-9.48-1.54-14.38-1.54"/>
      <path class="cls-7" d="M699.12,367.08h-.13c.03,.55,.09,1.17,.15,1.83,.07,.66,.14,1.36,.21,2.05,.07,.69,.15,1.39,.21,2.04,.06,.65,.11,1.26,.14,1.79l.56,6.94h7.62l-4.21-7c-.32-.53-.67-1.14-1.05-1.79-.38-.65-.78-1.33-1.19-2.02-.4-.69-.81-1.38-1.2-2.03-.39-.65-.76-1.27-1.1-1.82m39.84-.5c-.45,0-.85,0-1.21,.01-.36,0-.67,.02-.95,.04-.27,.02-.5,.04-.7,.07-.19,.03-.35,.06-.46,.1l3.45,9.11h2.63c1.05,0,1.93-.13,2.65-.36,.72-.23,1.28-.57,1.67-1,.39-.43,.62-.94,.68-1.52,.06-.58-.04-1.23-.31-1.92-.27-.69-.64-1.32-1.09-1.87-.45-.55-1-1.03-1.63-1.42-.63-.39-1.34-.69-2.13-.91-.79-.21-1.66-.33-2.6-.34m-93.16,1.32l-2.26-8.14h32.22l2.56,8.14h-10.58l9.04,29.93h-11.96l-8.65-29.93h-10.36m43.84,29.93l-.09-38.08h14.92l25.43,38.08h-12.52l-5.54-8.7h-10.55l.53,8.7h-12.17m70.96-29.93l-3.31-8.14h32.23l3.61,8.14h-10.58l12.9,29.93h-11.96l-12.51-29.93h-10.37m-25.04,29.93l-13.75-37.59c.77-.11,1.64-.21,2.59-.3,.95-.09,1.97-.17,3.07-.24,1.09-.07,2.26-.12,3.47-.16,1.21-.04,2.48-.06,3.79-.06,1.58,0,3.08,.04,4.51,.14,1.43,.1,2.79,.25,4.07,.47,1.29,.22,2.51,.51,3.66,.87,1.15,.36,2.24,.8,3.27,1.33,.92,.48,1.76,1,2.52,1.56,.76,.57,1.45,1.18,2.07,1.84,.62,.67,1.16,1.39,1.65,2.16,.48,.78,.9,1.62,1.27,2.52,.43,1.08,.62,2.11,.6,3.07-.02,.96-.24,1.84-.63,2.63-.39,.79-.93,1.49-1.6,2.07-.66,.58-1.45,1.04-2.3,1.37l.09,.23c.87,.27,1.68,.62,2.44,1.05,.76,.43,1.48,.94,2.17,1.52,.69,.58,1.34,1.24,1.98,1.98,.64,.73,1.26,1.54,1.89,2.42,.7,.98,1.46,2.06,2.22,3.17,.77,1.1,1.54,2.23,2.28,3.28,.74,1.05,1.43,2.03,2.04,2.84,.61,.81,1.13,1.45,1.5,1.84h-12.24c-.28-.28-.65-.7-1.09-1.25-.44-.55-.95-1.22-1.51-2.01-.56-.78-1.18-1.67-1.84-2.65-.65-.98-1.35-2.05-2.06-3.19-.72-1.17-1.39-2.1-2.03-2.85-.64-.74-1.26-1.3-1.89-1.71-.63-.41-1.28-.68-1.97-.84-.7-.16-1.44-.22-2.28-.22h-1.69l5.58,14.73h-11.83m-104.97-7.88c1.05,0,1.93-.08,2.67-.24,.74-.16,1.32-.38,1.75-.67,.43-.29,.72-.64,.87-1.04,.15-.4,.15-.85,.03-1.34-.13-.5-.38-.95-.75-1.36-.37-.41-.88-.79-1.53-1.15-.65-.36-1.45-.72-2.42-1.08-.96-.37-2.09-.74-3.4-1.16-2.07-.67-3.93-1.4-5.56-2.2-1.63-.8-3.05-1.67-4.24-2.6-1.19-.93-2.16-1.93-2.9-2.99-.74-1.06-1.25-2.19-1.54-3.39-.39-1.61-.37-3.13,.04-4.5,.41-1.37,1.21-2.6,2.41-3.63,1.19-1.03,2.77-1.86,4.75-2.43,1.97-.57,4.33-.88,7.08-.88,1.18,0,2.29,.05,3.34,.13,1.05,.09,2.04,.21,2.97,.36,.93,.15,1.79,.33,2.6,.53,.8,.2,1.54,.42,2.22,.65l-.11,7.73c-.48-.17-1.04-.35-1.67-.53-.63-.18-1.33-.36-2.1-.52-.77-.16-1.59-.3-2.48-.39-.88-.1-1.82-.16-2.81-.16-.9,0-1.67,.08-2.32,.22-.65,.14-1.17,.34-1.56,.6-.39,.26-.66,.56-.81,.91-.14,.35-.16,.74-.06,1.15,.12,.46,.34,.85,.7,1.22,.36,.37,.86,.7,1.54,1.04,.67,.34,1.52,.69,2.58,1.07,1.06,.38,2.32,.8,3.83,1.29,2.08,.66,3.9,1.39,5.49,2.19,1.59,.8,2.94,1.68,4.07,2.62,1.13,.95,2.05,1.96,2.77,3.05,.72,1.09,1.24,2.25,1.57,3.48,.47,1.73,.53,3.37,.15,4.86-.38,1.49-1.19,2.84-2.46,3.96-1.27,1.13-2.98,2.04-5.16,2.67-2.18,.63-4.82,.98-7.94,.98-1.28,0-2.56-.07-3.81-.19-1.25-.12-2.46-.29-3.59-.49-1.13-.2-2.18-.44-3.11-.68-.93-.25-1.74-.5-2.39-.76l.03-8.44c.7,.27,1.5,.54,2.37,.8,.87,.25,1.82,.49,2.8,.69,.98,.2,2,.36,3.03,.48,1.03,.12,2.06,.18,3.07,.18m57.73-62.89c-7.3,0-14.37,.34-21.14,1.01-6.79,.67-13.29,1.66-19.43,2.97-6.17,1.31-11.99,2.94-17.39,4.88-5.43,1.95-10.45,4.2-14.98,6.76-4.22,2.38-7.87,4.94-10.94,7.65-3.09,2.73-5.59,5.61-7.47,8.62-1.9,3.03-3.17,6.18-3.78,9.42-.62,3.26-.58,6.62,.16,10.03,.74,3.44,2.18,6.87,4.27,10.26,2.11,3.41,4.89,6.78,8.3,10.07,3.44,3.31,7.51,6.52,12.2,9.6,4.71,3.1,10.04,6.07,15.93,8.86,6.41,3.03,13.25,5.74,20.43,8.1,7.21,2.37,14.76,4.39,22.53,6.02,7.8,1.64,15.81,2.89,23.94,3.74,8.14,.85,16.38,1.28,24.62,1.28s16.19-.43,23.75-1.28c7.55-.84,14.72-2.1,21.4-3.74,6.66-1.63,12.83-3.65,18.43-6.02,5.57-2.36,10.57-5.07,14.91-8.1,3.99-2.79,7.29-5.76,9.89-8.86,2.58-3.08,4.46-6.3,5.65-9.6,1.17-3.28,1.65-6.65,1.44-10.07-.22-3.39-1.12-6.82-2.72-10.26-1.59-3.41-3.83-6.77-6.68-10.03-2.82-3.24-6.24-6.39-10.2-9.42-3.93-3.01-8.39-5.89-13.34-8.62-4.92-2.71-10.32-5.27-16.15-7.65-6.27-2.56-12.83-4.81-19.59-6.76-6.73-1.94-13.66-3.57-20.72-4.88-7.04-1.31-14.22-2.3-21.46-2.97-7.23-.67-14.53-1.01-21.83-1.01"/>
      <path class="cls-13" d="M725.55,436.33c-8.24,0-16.48-.43-24.62-1.28-8.13-.84-16.14-2.1-23.94-3.74-7.77-1.63-15.31-3.65-22.53-6.02-7.18-2.36-14.02-5.07-20.43-8.1-5.89-2.79-11.22-5.76-15.93-8.86-4.68-3.08-8.76-6.3-12.2-9.6-3.41-3.28-6.19-6.65-8.3-10.07-2.09-3.39-3.53-6.82-4.27-10.26-.74-3.41-.78-6.77-.16-10.03,.62-3.24,1.89-6.39,3.78-9.42,1.88-3.01,4.38-5.89,7.47-8.62,3.07-2.71,6.73-5.27,10.94-7.65,4.53-2.56,9.55-4.81,14.98-6.76,5.41-1.94,11.23-3.57,17.39-4.88,6.15-1.31,12.65-2.3,19.43-2.97,6.77-.67,13.84-1.01,21.14-1.01s14.6,.34,21.83,1.01c7.24,.67,14.42,1.66,21.46,2.97,7.06,1.31,13.99,2.94,20.72,4.88,6.76,1.95,13.31,4.2,19.59,6.76,5.83,2.38,11.23,4.94,16.15,7.65,4.95,2.73,9.41,5.61,13.34,8.62,3.96,3.03,7.37,6.18,10.2,9.42,2.84,3.26,5.09,6.62,6.68,10.03,1.6,3.44,2.51,6.87,2.72,10.26,.22,3.41-.26,6.78-1.44,10.07-1.18,3.31-3.07,6.52-5.65,9.6-2.6,3.1-5.9,6.07-9.89,8.86-4.34,3.03-9.34,5.74-14.91,8.1-5.6,2.37-11.77,4.39-18.43,6.02-6.68,1.64-13.84,2.89-21.4,3.74-7.57,.85-15.52,1.28-23.75,1.28m-39.93-117.21c-12.3,0-23.86,.93-34.47,2.65-10.65,1.73-20.39,4.27-28.98,7.49-8.65,3.25-16.17,7.2-22.28,11.73-6.18,4.58-10.95,9.76-14.03,15.41-.91,1.67-1.67,3.38-2.28,5.13-.61,1.76-1.06,3.55-1.35,5.39-.29,1.84-.42,3.72-.37,5.62,.05,1.92,.27,3.87,.67,5.85,.41,1.99,.99,3.96,1.74,5.92,.75,1.97,1.67,3.92,2.76,5.85,1.09,1.94,2.34,3.85,3.74,5.74,1.41,1.9,2.98,3.77,4.69,5.6,5.91,6.33,13.57,12.28,22.64,17.67,9.18,5.45,19.77,10.3,31.42,14.35,11.75,4.09,24.52,7.36,37.91,9.62,13.46,2.26,27.48,3.49,41.65,3.49,18.31,0,34.98-2.05,49.36-5.74,14.27-3.66,26.2-8.9,35.22-15.3,8.9-6.32,14.93-13.73,17.62-21.82,2.65-7.96,2.06-16.55-2.16-25.39-4.14-8.68-11.4-16.79-20.91-24.04-9.35-7.13-20.91-13.46-33.9-18.7-12.83-5.18-27.11-9.32-42.12-12.16-14.92-2.82-30.66-4.37-46.56-4.37"/>
      <path class="cls-6" d="M201.34,110.92h-.1c-.19,.28-.4,.6-.62,.93-.22,.33-.44,.69-.66,1.04-.22,.35-.45,.7-.66,1.03-.21,.33-.42,.64-.61,.91l-2.35,3.5h5.39l-.21-3.53c-.01-.27-.02-.57-.04-.9-.01-.33-.03-.67-.04-1.02-.01-.35-.03-.7-.05-1.03-.02-.33-.04-.65-.06-.93m-29.76-.11c-.84,0-1.67,.13-2.45,.39-.78,.26-1.52,.64-2.2,1.14-.68,.5-1.3,1.11-1.83,1.84-.53,.73-.99,1.56-1.33,2.5-.36,.97-.52,1.82-.52,2.56,0,.74,.17,1.36,.5,1.85,.33,.5,.81,.87,1.42,1.13,.62,.25,1.37,.38,2.24,.38s1.75-.15,2.54-.43c.79-.28,1.52-.7,2.18-1.23,.66-.53,1.24-1.17,1.74-1.9,.5-.73,.91-1.56,1.23-2.47,.29-.82,.43-1.59,.44-2.29,0-.69-.14-1.31-.43-1.82-.29-.51-.72-.92-1.31-1.2-.59-.28-1.32-.44-2.21-.44m10.96,15.56l14.9-19.17h10.65l2.84,19.17h-8.83l-.48-4.34h-7.46l-3.04,4.34h-8.58m32.38,0l5.42-19.17h8.19l-4.03,14.95h11.2l-1.07,4.22h-19.71m-77.53,.21c-1.44,0-2.74-.06-3.93-.17-1.18-.11-2.24-.27-3.18-.48-.94-.21-1.76-.47-2.48-.77-.71-.3-1.32-.65-1.83-1.04-.58-.44-1.05-.93-1.4-1.46-.35-.54-.59-1.12-.71-1.74-.12-.62-.13-1.27-.03-1.96,.1-.68,.31-1.39,.64-2.12,.74-1.67,1.87-3.12,3.3-4.35,1.42-1.23,3.14-2.25,5.06-3.06,1.91-.81,4.03-1.42,6.26-1.82,2.22-.4,4.56-.6,6.91-.6,.95,0,1.83,.03,2.64,.07,.81,.05,1.55,.11,2.2,.19,.66,.08,1.24,.17,1.74,.27,.5,.1,.92,.2,1.24,.31l-3.1,3.92c-.36-.1-.73-.19-1.14-.28-.41-.08-.85-.16-1.35-.22s-1.04-.11-1.64-.15c-.61-.03-1.28-.05-2.03-.05-1.26,0-2.5,.1-3.66,.32-1.17,.22-2.27,.55-3.27,1.01-1,.46-1.9,1.05-2.65,1.77-.75,.73-1.36,1.6-1.79,2.62-.38,.93-.5,1.74-.39,2.45,.11,.71,.45,1.3,.99,1.78,.53,.48,1.25,.84,2.12,1.09,.87,.24,1.89,.37,3.02,.37,.23,0,.46,0,.68-.01,.22,0,.43-.02,.63-.03,.2-.01,.38-.03,.53-.05,.16-.02,.29-.04,.4-.06l1.4-3.51h-3.75l1.57-3.87h11.59l-4.11,10.64c-.58,.11-1.29,.23-2.09,.34-.8,.11-1.68,.22-2.62,.32-.93,.1-1.91,.18-2.89,.24-.98,.06-1.96,.09-2.9,.09m28.16,.09c-2.4,0-4.39-.3-5.99-.83-1.6-.53-2.8-1.3-3.64-2.22-.84-.92-1.31-2.01-1.46-3.18-.14-1.17,.05-2.44,.54-3.73,.51-1.33,1.32-2.61,2.41-3.77,1.08-1.16,2.43-2.22,4-3.11,1.57-.89,3.36-1.61,5.33-2.11,1.97-.5,4.12-.78,6.41-.78,2.44,0,4.42,.3,6,.82,1.58,.52,2.77,1.26,3.6,2.15,.83,.89,1.31,1.93,1.49,3.03,.17,1.11,.04,2.29-.35,3.46-.55,1.62-1.39,3.08-2.49,4.34-1.11,1.27-2.47,2.35-4.06,3.23-1.59,.88-3.39,1.56-5.37,2.01-1.98,.46-4.14,.69-6.42,.69m24.06-36.31c-5.27,0-10.51,.18-15.68,.52-5.17,.35-10.27,.86-15.25,1.54-4.98,.68-9.85,1.53-14.53,2.53-4.7,1.01-9.22,2.17-13.5,3.49-3.98,1.22-7.62,2.54-10.9,3.93-3.29,1.4-6.22,2.87-8.75,4.41-2.54,1.54-4.68,3.14-6.39,4.79-1.71,1.65-2.99,3.35-3.79,5.07-.81,1.73-1.12,3.45-.94,5.15,.17,1.71,.84,3.39,1.98,5.02,1.15,1.64,2.78,3.23,4.88,4.76,2.11,1.53,4.7,2.99,7.75,4.36,3.32,1.49,7.05,2.82,11.16,3.97,4.12,1.16,8.6,2.14,13.38,2.94,4.79,.8,9.89,1.41,15.22,1.82,5.34,.41,10.91,.62,16.64,.62s11.45-.21,17.07-.62c5.61-.41,11.12-1.02,16.46-1.82,5.33-.8,10.47-1.78,15.38-2.94,4.89-1.15,9.53-2.48,13.86-3.97,3.99-1.37,7.57-2.83,10.73-4.36,3.14-1.52,5.86-3.12,8.12-4.76,2.25-1.63,4.06-3.31,5.4-5.02,1.33-1.7,2.19-3.42,2.57-5.15,.37-1.72,.25-3.42-.34-5.07-.58-1.64-1.63-3.25-3.12-4.79-1.48-1.53-3.41-3.01-5.75-4.41-2.33-1.39-5.08-2.71-8.22-3.93-3.38-1.32-7.11-2.48-11.12-3.49-4-1-8.28-1.85-12.8-2.53-4.51-.68-9.26-1.2-14.19-1.54-4.93-.35-10.05-.52-15.32-.52"/>
      <path class="cls-15" d="M170.9,145.28c-5.74,0-11.31-.21-16.64-.62-5.33-.41-10.42-1.02-15.22-1.82-4.78-.8-9.26-1.78-13.38-2.94-4.1-1.15-7.84-2.48-11.16-3.97-3.05-1.37-5.64-2.83-7.75-4.36-2.1-1.52-3.73-3.12-4.88-4.76-1.14-1.63-1.8-3.31-1.98-5.02-.17-1.7,.14-3.42,.94-5.15,.8-1.72,2.08-3.42,3.79-5.07,1.7-1.64,3.84-3.25,6.39-4.79,2.53-1.53,5.46-3.01,8.75-4.41,3.28-1.39,6.92-2.71,10.9-3.93,4.28-1.32,8.8-2.48,13.5-3.49,4.68-1,9.54-1.85,14.53-2.53,4.97-.68,10.07-1.2,15.25-1.54,5.17-.35,10.41-.52,15.68-.52s10.39,.18,15.32,.52c4.94,.35,9.68,.86,14.19,1.54,4.52,.68,8.8,1.53,12.8,2.53,4.01,1.01,7.73,2.17,11.12,3.49,3.14,1.22,5.89,2.54,8.22,3.93,2.34,1.4,4.26,2.87,5.75,4.41,1.49,1.54,2.54,3.14,3.12,4.79,.59,1.65,.71,3.35,.34,5.07-.37,1.73-1.24,3.45-2.57,5.15-1.34,1.71-3.14,3.39-5.4,5.02-2.27,1.64-4.98,3.23-8.12,4.76-3.16,1.53-6.74,2.99-10.73,4.36-4.33,1.49-8.97,2.82-13.86,3.97-4.91,1.16-10.05,2.14-15.38,2.94-5.34,.8-10.85,1.41-16.46,1.82-5.62,.41-11.33,.62-17.07,.62m20.13-59.07c-11.51,0-22.77,.81-33.34,2.29-10.61,1.48-20.56,3.64-29.35,6.32-8.86,2.71-16.58,5.97-22.6,9.62-6.1,3.7-10.48,7.82-12.57,12.2-2.12,4.44-1.69,8.73,.96,12.68,2.68,4,7.61,7.64,14.42,10.74,6.88,3.12,15.65,5.67,25.9,7.44,10.3,1.78,22.04,2.77,34.75,2.77,1.28,0,2.55-.01,3.82-.03,1.27-.02,2.54-.05,3.8-.09,1.26-.04,2.52-.09,3.78-.15,1.25-.06,2.5-.13,3.75-.2,3.71-.23,7.38-.54,10.98-.93,3.6-.39,7.12-.85,10.57-1.38,3.44-.53,6.8-1.14,10.05-1.8,3.25-.67,6.4-1.4,9.44-2.19,6.05-1.57,11.63-3.38,16.64-5.38,4.97-1.98,9.37-4.15,13.08-6.46,3.68-2.29,6.68-4.73,8.89-7.25,2.19-2.51,3.61-5.11,4.16-7.77,.89-4.38-.68-8.5-4.26-12.2-3.53-3.66-9.02-6.91-16.04-9.62-6.96-2.69-15.44-4.84-25.04-6.32-9.56-1.47-20.27-2.29-31.78-2.29"/>
      <path class="cls-5" d="M627.84,359.28c-2.75,0-5.11,.31-7.08,.88-1.97,.57-3.55,1.4-4.75,2.43-1.2,1.03-2,2.26-2.41,3.63-.41,1.38-.43,2.9-.04,4.5,.29,1.2,.8,2.33,1.54,3.39,.74,1.07,1.71,2.06,2.9,2.99,1.19,.93,2.61,1.8,4.24,2.6,1.64,.8,3.49,1.54,5.56,2.2,1.31,.41,2.44,.79,3.4,1.16,.97,.37,1.76,.72,2.42,1.08,.65,.36,1.16,.74,1.53,1.15,.37,.41,.62,.86,.75,1.36,.13,.49,.12,.94-.03,1.34-.15,.4-.44,.75-.87,1.04-.44,.29-1.02,.52-1.75,.67-.74,.16-1.62,.24-2.67,.24s-2.05-.07-3.07-.18c-1.03-.12-2.05-.28-3.03-.48-.98-.2-1.93-.43-2.8-.69-.87-.25-1.67-.52-2.37-.8l-.03,8.44c.65,.25,1.46,.51,2.39,.76,.93,.25,1.98,.48,3.11,.68,1.13,.2,2.34,.37,3.59,.49,1.25,.12,2.53,.19,3.81,.19,3.11,0,5.75-.35,7.94-.98,2.18-.63,3.9-1.54,5.16-2.67,1.26-1.13,2.08-2.47,2.46-3.96,.38-1.49,.32-3.13-.15-4.86-.34-1.23-.85-2.39-1.57-3.48-.72-1.09-1.63-2.1-2.77-3.05-1.13-.94-2.48-1.82-4.07-2.62-1.59-.8-3.41-1.53-5.49-2.19-1.51-.49-2.78-.91-3.83-1.29-1.06-.38-1.91-.73-2.58-1.07-.67-.34-1.17-.68-1.54-1.04-.36-.37-.58-.76-.7-1.22-.11-.42-.09-.8,.06-1.15,.14-.35,.41-.65,.81-.91,.39-.26,.91-.46,1.56-.6,.65-.14,1.42-.22,2.32-.22,.99,0,1.93,.06,2.81,.16,.88,.1,1.71,.24,2.48,.39,.77,.16,1.47,.34,2.1,.52,.63,.18,1.19,.36,1.67,.53l.11-7.73c-.68-.23-1.42-.45-2.22-.65-.8-.2-1.67-.38-2.6-.53-.93-.15-1.92-.27-2.97-.36-1.05-.08-2.17-.13-3.34-.13"/>
      <polyline class="cls-5" points="675.77 359.76 643.55 359.76 645.81 367.91 656.17 367.91 664.82 397.84 676.79 397.84 667.75 367.91 678.32 367.91 675.77 359.76"/>
      <path class="cls-5" d="M700.26,381.74l-.56-6.94c-.03-.53-.07-1.14-.14-1.79-.06-.65-.13-1.34-.21-2.04-.07-.69-.15-1.39-.21-2.05-.07-.66-.12-1.28-.15-1.83h.13c.34,.55,.71,1.17,1.1,1.82,.39,.66,.8,1.34,1.2,2.03,.4,.69,.81,1.37,1.19,2.02,.38,.65,.74,1.25,1.05,1.79l4.21,7h-7.62m4.21-21.98h-14.92l.09,38.08h12.17l-.53-8.7h10.55l5.54,8.7h12.52l-25.43-38.08"/>
      <path class="cls-5" d="M739.1,375.92l-3.45-9.11c.12-.04,.27-.08,.46-.1,.19-.03,.42-.05,.7-.07,.27-.02,.59-.03,.95-.04,.36,0,.76-.01,1.21-.01,.94,.01,1.81,.13,2.6,.34,.79,.21,1.5,.52,2.13,.91,.63,.39,1.17,.86,1.63,1.42,.46,.55,.82,1.18,1.09,1.87,.27,.7,.37,1.34,.31,1.92-.06,.58-.29,1.09-.68,1.52-.39,.43-.95,.77-1.67,1-.72,.23-1.6,.36-2.65,.36h-2.63m-4.37-16.42c-1.31,0-2.57,.02-3.79,.06-1.21,.04-2.38,.09-3.47,.16-1.09,.07-2.12,.15-3.07,.24-.95,.09-1.81,.19-2.59,.3l13.75,37.59h11.83l-5.58-14.73h1.69c.84,0,1.58,.06,2.28,.22,.7,.16,1.34,.43,1.97,.84,.63,.41,1.25,.97,1.89,1.71,.64,.75,1.3,1.68,2.03,2.85,.72,1.14,1.41,2.21,2.06,3.19,.66,.98,1.27,1.87,1.84,2.65,.56,.78,1.07,1.46,1.51,2.01,.44,.55,.81,.97,1.09,1.25h12.24c-.38-.38-.9-1.03-1.5-1.84-.61-.81-1.3-1.79-2.04-2.84-.73-1.05-1.51-2.17-2.28-3.28-.76-1.1-1.52-2.19-2.22-3.17-.62-.88-1.25-1.68-1.89-2.42-.64-.73-1.3-1.39-1.98-1.98-.69-.58-1.4-1.09-2.17-1.52-.76-.43-1.57-.78-2.44-1.05l-.09-.23c.85-.33,1.63-.79,2.3-1.37,.66-.58,1.21-1.27,1.6-2.07,.38-.79,.61-1.67,.63-2.63,.02-.96-.17-1.98-.6-3.07-.36-.9-.78-1.74-1.27-2.52-.48-.78-1.03-1.5-1.65-2.16-.62-.67-1.3-1.28-2.07-1.84-.76-.57-1.6-1.08-2.52-1.56-1.02-.53-2.11-.97-3.27-1.33-1.15-.36-2.37-.65-3.66-.87-1.29-.22-2.65-.37-4.07-.47-1.43-.1-2.93-.14-4.51-.14"/>
      <polyline class="cls-5" points="789.53 359.76 757.3 359.76 760.61 367.91 770.98 367.91 783.49 397.84 795.46 397.84 782.56 367.91 793.13 367.91 789.53 359.76"/>
      <path class="cls-1" d="M146.02,107.01c-2.35,0-4.69,.2-6.91,.6-2.23,.4-4.34,1.01-6.26,1.82-1.92,.81-3.64,1.83-5.06,3.06-1.43,1.24-2.56,2.68-3.3,4.35-.32,.73-.54,1.44-.64,2.12-.1,.68-.09,1.34,.03,1.96,.12,.62,.36,1.2,.71,1.74,.35,.54,.82,1.03,1.4,1.46,.51,.39,1.11,.73,1.83,1.04,.71,.3,1.54,.56,2.48,.77,.94,.21,2,.37,3.18,.48,1.18,.11,2.49,.17,3.93,.17,.94,0,1.92-.03,2.9-.09,.98-.06,1.95-.14,2.89-.24,.93-.1,1.82-.21,2.62-.32,.8-.11,1.51-.23,2.09-.34l4.11-10.64h-11.59l-1.57,3.87h3.75l-1.4,3.51c-.1,.02-.24,.04-.4,.06-.16,.02-.34,.03-.53,.05-.2,.01-.41,.02-.63,.03-.22,0-.45,.01-.68,.01-1.13,0-2.15-.12-3.02-.37-.87-.24-1.59-.61-2.12-1.09-.53-.48-.87-1.07-.99-1.78-.11-.71,0-1.52,.39-2.45,.42-1.02,1.03-1.89,1.79-2.62,.75-.73,1.65-1.31,2.65-1.77,1-.46,2.1-.79,3.27-1.01,1.17-.22,2.4-.32,3.66-.32,.75,0,1.42,.02,2.03,.05,.61,.03,1.15,.09,1.64,.15s.94,.14,1.35,.22c.41,.08,.78,.18,1.14,.28l3.1-3.92c-.33-.1-.74-.21-1.24-.31-.5-.1-1.08-.19-1.74-.27-.66-.08-1.4-.14-2.2-.19-.81-.05-1.69-.07-2.64-.07"/>
      <path class="cls-1" d="M167.41,122.59c-.87,0-1.63-.13-2.24-.38-.62-.25-1.1-.63-1.42-1.13-.33-.5-.5-1.12-.5-1.85,0-.74,.17-1.59,.52-2.56,.34-.94,.79-1.77,1.33-2.5,.53-.72,1.15-1.34,1.83-1.84,.68-.5,1.42-.88,2.2-1.14,.78-.26,1.61-.39,2.45-.39,.89,0,1.63,.15,2.21,.44,.59,.28,1.02,.69,1.31,1.2,.29,.51,.43,1.13,.43,1.82,0,.69-.15,1.47-.44,2.29-.32,.9-.73,1.73-1.23,2.47-.5,.74-1.08,1.38-1.74,1.9-.66,.53-1.39,.94-2.18,1.23-.79,.28-1.64,.43-2.54,.43m5.75-15.66c-2.29,0-4.45,.28-6.41,.78-1.97,.5-3.76,1.22-5.33,2.11-1.57,.89-2.92,1.95-4,3.11-1.09,1.17-1.91,2.45-2.41,3.77-.49,1.29-.68,2.55-.54,3.73,.14,1.18,.62,2.26,1.46,3.18,.84,.93,2.05,1.69,3.64,2.22,1.6,.53,3.59,.83,5.99,.83s4.44-.23,6.42-.69c1.98-.46,3.78-1.13,5.37-2.01,1.58-.88,2.95-1.96,4.06-3.23,1.1-1.27,1.95-2.72,2.49-4.34,.39-1.17,.53-2.35,.35-3.46-.17-1.11-.65-2.14-1.49-3.03-.83-.89-2.01-1.63-3.6-2.15-1.58-.52-3.56-.82-6-.82"/>
      <path class="cls-1" d="M196.34,118.33l2.35-3.5c.19-.27,.4-.58,.61-.91,.21-.33,.44-.68,.66-1.03,.22-.35,.45-.7,.66-1.04,.22-.33,.42-.65,.62-.93h.1c.02,.28,.04,.6,.06,.93,.02,.33,.03,.68,.05,1.03,.01,.35,.03,.69,.04,1.02,.01,.33,.03,.63,.04,.9l.21,3.53h-5.39m11.75-11.13h-10.65l-14.9,19.17h8.58l3.04-4.34h7.46l.48,4.34h8.83l-2.84-19.17"/>
      <polyline class="cls-1" points="228.53 107.2 220.34 107.2 214.92 126.37 234.63 126.37 235.69 122.15 224.5 122.15 228.53 107.2"/>
      <g>
        <path class="cls-10" d="M127.65,315.81l-24.81-47.12c-.07-.13-.15-.26-.22-.39-1.82-3.06-5.15-5.11-8.97-5.11h-17.12c-3.81,0-7.15,2.05-8.96,5.11-.08,.12-.15,.25-.22,.38l-24.81,47.12c-1.61,3.06-.44,6.85,2.63,8.47,.93,.49,1.93,.72,2.92,.72,2.25,0,4.43-1.22,5.55-3.35l12.49-23.71v86.52c0,3.46,2.81,6.27,6.27,6.27s6.27-2.81,6.27-6.27v-57.16h12.88v57.16c0,3.46,2.81,6.27,6.27,6.27s6.27-2.81,6.27-6.27v-86.52l12.49,23.71c1.12,2.13,3.3,3.35,5.55,3.35,.98,0,1.98-.23,2.92-.72,3.06-1.61,4.24-5.4,2.63-8.47Z"/>
        <circle class="cls-10" cx="85.09" cy="244.01" r="16.72" transform="translate(-66.43 34.67) rotate(-16.67)"/>
      </g>
      <g>
        <path class="cls-3" d="M562.09,308.31l-24.59-46.7c-.07-.13-.14-.26-.22-.38-1.8-3.03-5.11-5.06-8.89-5.06h-16.96c-3.78,0-7.09,2.03-8.88,5.07-.08,.12-.15,.25-.22,.38l-24.59,46.7c-1.6,3.04-.43,6.79,2.6,8.39,.92,.49,1.91,.72,2.89,.72,2.23,0,4.39-1.21,5.5-3.32l12.38-23.5v85.75c0,3.43,2.78,6.21,6.21,6.21s6.21-2.78,6.21-6.21v-56.65h12.76v56.65c0,3.43,2.78,6.21,6.21,6.21s6.21-2.78,6.21-6.21v-85.75l12.38,23.5c1.11,2.11,3.27,3.32,5.5,3.32,.98,0,1.97-.23,2.89-.72,3.04-1.6,4.2-5.36,2.6-8.39Z"/>
        <circle class="cls-3" cx="519.91" cy="237.14" r="16.58" transform="translate(53.43 567.19) rotate(-59.8)"/>
      </g>
      <g>
        <path class="cls-11" d="M364.51,234.47l-22.41-42.55c-.06-.12-.13-.24-.2-.35-1.64-2.76-4.65-4.61-8.1-4.61h-15.46c-3.44,0-6.46,1.85-8.1,4.62-.07,.11-.14,.23-.2,.35l-22.41,42.55c-1.46,2.77-.39,6.19,2.37,7.65,.84,.44,1.74,.65,2.63,.65,2.03,0,4-1.1,5.01-3.03l11.28-21.41v78.13c0,3.13,2.53,5.66,5.66,5.66s5.66-2.53,5.66-5.66v-51.62h11.63v51.62c0,3.13,2.53,5.66,5.66,5.66s5.66-2.53,5.66-5.66v-78.13l11.28,21.41c1.01,1.93,2.98,3.03,5.01,3.03,.89,0,1.79-.21,2.63-.65,2.77-1.46,3.83-4.88,2.37-7.65Z"/>
        <circle class="cls-11" cx="326.08" cy="169.63" r="15.1" transform="translate(106.18 464.15) rotate(-80.74)"/>
      </g>
      <g>
        <path class="cls-14" d="M678.2,203.14l-21.48-40.79c-.06-.12-.13-.23-.19-.33-1.57-2.65-4.46-4.42-7.76-4.42h-14.82c-3.3,0-6.19,1.78-7.76,4.43-.07,.11-.13,.22-.19,.33l-21.48,40.79c-1.4,2.65-.38,5.93,2.27,7.33,.81,.42,1.67,.63,2.52,.63,1.95,0,3.84-1.05,4.81-2.9l10.81-20.53v74.9c0,3,2.43,5.43,5.43,5.43s5.43-2.43,5.43-5.43v-49.48h11.15v49.48c0,3,2.43,5.43,5.43,5.43s5.43-2.43,5.43-5.43v-74.9l10.81,20.53c.97,1.85,2.86,2.9,4.81,2.9,.85,0,1.72-.2,2.52-.63,2.65-1.4,3.67-4.68,2.27-7.33Z"/>
        <circle class="cls-14" cx="641.36" cy="140.98" r="14.48"/>
      </g>
      <g>
        <path class="cls-4" d="M544.34,61.72l-17.3-32.85c-.05-.09-.1-.18-.16-.27-1.27-2.13-3.59-3.56-6.25-3.56h-11.93c-2.66,0-4.98,1.43-6.25,3.56-.05,.09-.11,.17-.15,.27l-17.3,32.85c-1.12,2.14-.3,4.78,1.83,5.9,.65,.34,1.35,.5,2.03,.5,1.57,0,3.09-.85,3.87-2.34l8.7-16.53v60.32c0,2.41,1.96,4.37,4.37,4.37s4.37-1.96,4.37-4.37v-39.85h8.98v39.85c0,2.41,1.96,4.37,4.37,4.37s4.37-1.96,4.37-4.37V49.26l8.7,16.53c.78,1.49,2.3,2.34,3.87,2.34,.69,0,1.38-.16,2.03-.5,2.14-1.12,2.96-3.77,1.83-5.9Z"/>
        <circle class="cls-4" cx="514.67" cy="11.66" r="11.66"/>
      </g>
      <g>
        <path class="cls-8" d="M331.03,82.68l-17.92-34.02c-.05-.1-.11-.19-.16-.28-1.31-2.21-3.72-3.69-6.47-3.69h-12.36c-2.75,0-5.16,1.48-6.47,3.69-.06,.09-.11,.18-.16,.28l-17.92,34.02c-1.16,2.21-.32,4.95,1.9,6.11,.67,.35,1.39,.52,2.11,.52,1.63,0,3.2-.88,4.01-2.42l9.02-17.12v62.48c0,2.5,2.03,4.53,4.53,4.53s4.53-2.03,4.53-4.53v-41.28h9.3v41.28c0,2.5,2.03,4.53,4.53,4.53s4.53-2.03,4.53-4.53v-62.48l9.02,17.12c.81,1.54,2.38,2.42,4.01,2.42,.71,0,1.43-.17,2.11-.52,2.21-1.16,3.06-3.9,1.9-6.11Z"/>
        <circle class="cls-8" cx="300.3" cy="30.83" r="12.08" transform="translate(66.16 221.37) rotate(-45)"/>
      </g>
    </g>
    <path class="cls-2" d="M470.09,279.66c1.39,.78,3.36,1.48,4.61,1.81,0,0,4.22,12.16-2.96,19.64-7.18,7.48-29.1,8.58-35.26,5.28-6.15-3.31,27.72-15.14,33.61-26.73Z"/>
    <path class="cls-2" d="M471.03,255.1c-1.49,1.34-3.65,3.71-4.47,4.59-10.54-14.07-39.67-18.87-38.73-19.75,.94-.88,1.93-1.99,4.95-4.56,23.52-5.26,39.19,11.97,38.25,19.71Z"/>
    <path class="cls-2" d="M429.11,235.15c.8,2.16,2.03,5.54,2.51,6.42,.48,.88-27.79-2.06-44.88,6.84,2.03-8.99,29.59-21.16,42.36-13.26Z"/>
    <path class="cls-12" d="M423.58,242.26c-5.2,0-10.14,.75-14.64,2.11-4.51,1.36-8.59,3.34-12.04,5.81-3.47,2.48-6.3,5.45-8.29,8.77-2,3.35-3.15,7.06-3.22,11-.07,3.97,.98,7.8,2.93,11.31,1.97,3.54,4.87,6.76,8.48,9.49,3.64,2.74,7.99,4.98,12.84,6.53,4.87,1.56,10.21,2.42,15.8,2.42s10.88-.86,15.65-2.42c4.75-1.55,8.96-3.79,12.41-6.53,3.44-2.73,6.12-5.95,7.86-9.49,1.73-3.51,2.52-7.34,2.19-11.31-.32-3.93-1.71-7.65-3.93-11-2.2-3.32-5.23-6.29-8.86-8.77-3.61-2.46-7.81-4.44-12.42-5.81-4.59-1.36-9.58-2.11-14.78-2.11"/>
    <path class="cls-9" d="M425.45,299.7c-5.59,0-10.94-.86-15.8-2.42-4.85-1.55-9.2-3.79-12.84-6.53-3.61-2.73-6.51-5.95-8.48-9.49-1.95-3.51-3-7.34-2.93-11.31,.07-3.93,1.21-7.65,3.22-11,1.99-3.32,4.82-6.29,8.29-8.77,3.45-2.46,7.52-4.44,12.04-5.81,4.5-1.36,9.44-2.11,14.64-2.11s10.19,.75,14.78,2.11c4.6,1.36,8.81,3.34,12.42,5.81,3.63,2.48,6.66,5.45,8.86,8.77,2.22,3.35,3.61,7.06,3.93,11,.33,3.97-.47,7.8-2.19,11.31-1.74,3.54-4.43,6.76-7.86,9.49-3.46,2.74-7.67,4.98-12.41,6.53-4.76,1.56-10.06,2.42-15.65,2.42m-2.08-63.88c-1.05,0-2.09,.02-3.12,.07-1.03,.05-2.05,.12-3.06,.22-1.01,.1-2.01,.21-3,.35-.99,.14-1.97,.3-2.93,.49-2.43,.46-4.78,1.06-7.04,1.79-2.26,.73-4.43,1.58-6.49,2.55-2.07,.97-4.02,2.05-5.86,3.24-1.84,1.19-3.55,2.49-5.12,3.88-1.63,1.44-3.1,2.99-4.4,4.62-1.31,1.64-2.44,3.37-3.37,5.17-.94,1.81-1.68,3.71-2.2,5.66-.52,1.97-.83,4-.89,6.08-.14,4.95,1.1,9.72,3.49,14.11,2.41,4.44,5.99,8.49,10.48,11.92,4.53,3.46,9.96,6.28,16.03,8.24,6.09,1.97,12.8,3.07,19.81,3.07,.93,0,1.85-.02,2.77-.06,.91-.04,1.82-.09,2.72-.17,.9-.07,1.79-.17,2.67-.28,.88-.11,1.76-.24,2.62-.38,.5-.08,1-.18,1.5-.27,.5-.1,.99-.2,1.48-.31,.49-.11,.98-.22,1.46-.34s.96-.24,1.44-.37c4.87-1.33,9.34-3.21,13.28-5.56,3.92-2.33,7.3-5.1,10.02-8.2,2.7-3.08,4.75-6.49,6.02-10.11,1.26-3.59,1.77-7.39,1.4-11.29-.46-4.89-2.24-9.49-5.04-13.63-2.77-4.1-6.55-7.75-11.06-10.8-4.48-3.02-9.69-5.45-15.37-7.12-5.66-1.66-11.82-2.58-18.23-2.58"/>
  </g>
</svg>