<?xml version="1.0" encoding="UTF-8"?><svg id="_レイヤー_2" xmlns="http://www.w3.org/2000/svg" viewBox="0 0 106 16"><g id="_レイヤー_1-2"><g><g><circle cx="8" cy="8" r="7.5"/><path d="M8,1c3.86,0,7,3.14,7,7s-3.14,7-7,7S1,11.86,1,8,4.14,1,8,1m0-1C3.58,0,0,3.58,0,8s3.58,8,8,8,8-3.58,8-8S12.42,0,8,0h0Z"/></g><g><circle cx="53" cy="8" r="7.5"/><path d="M53,1c3.86,0,7,3.14,7,7s-3.14,7-7,7-7-3.14-7-7,3.14-7,7-7m0-1c-4.42,0-8,3.58-8,8s3.58,8,8,8,8-3.58,8-8S57.42,0,53,0h0Z"/></g><g><circle cx="98" cy="8" r="7.5"/><path d="M98,1c3.86,0,7,3.14,7,7s-3.14,7-7,7-7-3.14-7-7,3.14-7,7-7m0-1c-4.42,0-8,3.58-8,8s3.58,8,8,8,8-3.58,8-8S102.42,0,98,0h0Z"/></g></g></g></svg>