<?xml version="1.0" encoding="UTF-8"?>
<svg id="_レイヤー_2" data-name="レイヤー 2" xmlns="http://www.w3.org/2000/svg" viewBox="0 0 381.66 289.75">
  <defs>
    <style>
      .cls-1 {
        fill: #85807f;
      }

      .cls-2 {
        fill: #fff;
      }

      .cls-3 {
        fill: #a98a75;
      }

      .cls-4 {
        fill: #f8b8b4;
      }

      .cls-5 {
        fill: #b3b3b3;
      }

      .cls-6 {
        fill: #211715;
      }
    </style>
  </defs>
  <g id="layer">
    <g id="group">
      <path class="cls-2" d="M142.97,199.49c-.2-.94,.02-1.95,.4-2.75,.78-1.66,2.27-2.23,3.44-2.49,2.93-.64,7.03-1.14,12.75-1.65,8-.72,12.04-1.07,21.96-2.08,0,0,.63-.06,1.25-.13l-.62-1.62c-.42-1.08-2.8-3.28-5.63-5.67-1.29-1.09-3.47-3.13-4.36-4.31s-.6-2.93,.32-4.08c1.27-1.6,3.47-1.42,5.08-.78,7.11,2.83,16.67,8.22,22.7,10.62,3.38,1.34,6.61,5.93,6.39,10.31,0,0,3.12,4.28,5.17,7.08-7.57,5.1-14.08,13.9-16.42,18.82l-6.51-2.77c-2.83-1.17-11.33-1.08-13.61-1.14-4.29-.1-8.78-.21-13.44-.27l-.48-1.93c-3.18,.03-6.18,.02-7.03-.06-1.53-.15-2.61-1.18-2.85-2.47s.89-2.8,2.16-3.24c0,0,.19-.06,.37-.13l-2.8,.27c-3.9,.38-6.36-1.26-6.19-3.81,.09-1.34,1.06-2.4,2.64-3.02l-1.1-.12c-2.34-.26-3.34-1.35-3.6-2.59Z"/>
      <path class="cls-2" d="M297.13,102.28s.07-.08,.1-.12c2.78-3.31,3.3-6.63,3.56-8.98,.37-3.33-.94-8.14-3.54-10.21-.87-.69-2.74-1.76-6.13-.87-1.72,.45-3.61,1.52-4.59,3.23-1.35-2.51-3.27-7.14-6.88-11.59-4.43-3.71-11.06-6.37-18.38-6.95-.36,1.8-.67,3.64-1.02,5.58-.38,2.08-.68,4.19-1.43,6.16-.48,1.25-1.24,2.33-2.06,3.37-1.49,1.89-3.14,3.64-3.51,6.06-.23,1.5,.81,3.91,.96,5.42,.11,1.16,.16,1.53,.27,2.69l.87,4.94c1.03-.03,3.34-.01,4.96-.01,.52,0,.95,.49,.92,1.09-.11,2.33-.93,3.26-1.72,4.92-.45,.94-1.67,2.46-2.11,2.83l-.43,.36c.23,1.33,.77,4.38,.77,4.38,.93,1.87,1.13,2.09,2.53,3.65,1.43,1.59,2.79,2.63,5.17,3.58,4.74,1.9,10.59,3.19,17.53,2.28,1.54,2.1,3.48,6.46,4.23,8.52l1.23,3.37c3.51-2.54,7.4-4.47,11.08-5.68,6.13-2.02,12.5-3.4,18.93-3.73l-1.04-3.26c-11-1.17-19.91-11.87-23.67-17.22,0,0-.27-.38-.7-1,1.82-.71,3.24-1.85,4.1-2.82Z"/>
      <path class="cls-6" d="M255.3,103.02c1.24-.04,2.48-.02,3.71-.02,.31,0,.62,0,.93,0,.08,0,.17,0,.25,0,.23,0,.16,0-.19-.04-.2-.06-.37-.16-.51-.3-.18-.27-.22-.32-.11-.14-.11-.17-.16-.36-.15-.56,0,.1,0,.19,0,.29,0,.06-.07,.42-.04,.47,.04-.29,.05-.32,.01-.1-.02,.09-.03,.18-.05,.27-.03,.17-.08,.33-.12,.5-.04,.15-.09,.31-.15,.46-.03,.07-.05,.15-.08,.22,.13-.3,.15-.36,.07-.16-.11,.24-.23,.48-.35,.71-.27,.52-.53,1.05-.81,1.57-.14,.26-.3,.52-.47,.76-.09,.13-.19,.27-.28,.4-.08,.11-.36,.39,.02-.02-.34,.36-.61,.78-.98,1.11-.79,.69-.76,2.13,0,2.83,.84,.77,1.98,.73,2.83,0s1.46-1.66,2.03-2.55,1.02-1.82,1.44-2.74c.28-.61,.54-1.23,.69-1.89,.2-.87,.38-1.88,.17-2.77-.24-1.03-1.02-1.88-2.03-2.19-.65-.2-1.42-.12-2.1-.12-1.24,0-2.48-.02-3.71,.02-1.04,.04-2.05,.89-2,2s.88,2.04,2,2h0Z"/>
      <path class="cls-1" d="M286.9,38.45c-12.68,3.83-18.9,10.62-23.63,21.27-.94,2.39-1.52,4.7-1.99,7.08,7.32,.56,13.95,3.23,18.38,6.94,3.61,4.46,5.53,9.08,6.88,11.59,.98-1.71,2.87-2.78,4.59-3.23,3.4-.89,5.27,.18,6.13,.87,2.6,2.07,3.91,6.88,3.54,10.21-.26,2.35-.78,5.68-3.56,8.98-.84,1-2.3,2.21-4.2,2.94,.43,.61,.7,1,.7,1,4.25,6.05,15.11,18.97,28.13,17.15,2.45-3.65,6.23-7.2,8.7-9.65,6.19-6.13,13.89-17.11,14.79-31.07,.57-8.78-2.56-17.85-6.4-24.25-9.86-16.48-21.87-19.91-29.31-21.27s-16.08-.56-22.72,1.44c-.01,0-.03,0-.04,.01Z"/>
      <path class="cls-6" d="M256.01,115.59c1.09,2.18,2.64,4.15,4.54,5.69,2.18,1.76,4.82,2.76,7.48,3.56,6.06,1.83,12.42,1.95,18.59,.63,2.52-.54,1.45-4.39-1.06-3.86-5.36,1.15-10.85,1.01-16.12-.53-2.08-.61-4.31-1.31-6.06-2.64s-2.98-3-3.92-4.88c-1.15-2.3-4.6-.28-3.45,2.02h0Z"/>
      <path class="cls-6" d="M261.33,59.19c-1.34,3.49-2.03,7.14-2.68,10.81-.59,3.31-.84,6.99-2.81,9.82-1.63,2.35-3.84,4.35-4.45,7.27-.32,1.53-.01,3,.37,4.48s.57,2.96,.72,4.5c.1,1.08,.84,2,2,2,1,0,2.11-.92,2-2-.15-1.5-.23-3.03-.58-4.49-.29-1.22-.86-2.51-.57-3.77,.6-2.64,3.2-4.59,4.53-6.85,1.77-3.02,2.09-6.74,2.69-10.12,.64-3.6,1.33-7.17,2.64-10.59,.39-1.01-.43-2.19-1.4-2.46-1.13-.31-2.07,.38-2.46,1.4h0Z"/>
      <path class="cls-6" d="M281.77,125.89c.8,1.27,1.47,2.62,2.11,3.98,.16,.34,.31,.68,.47,1.03,.07,.16,.14,.31,.21,.47,.04,.08,.07,.17,.11,.25,.03,.07,.16,.39,.03,.06s.06,.14,.1,.24c.06,.15,.12,.3,.18,.45,.1,.26,.2,.52,.3,.78,.36,.98,1.37,1.75,2.46,1.4,.96-.31,1.78-1.41,1.4-2.46-1.04-2.82-2.3-5.66-3.9-8.21-.55-.89-1.81-1.31-2.74-.72s-1.31,1.79-.72,2.74h0Z"/>
      <path class="cls-6" d="M292.01,107.11c6.02,8.53,14.54,16.96,25.39,18.21,1.07,.12,2-1.01,2-2,0-1.18-.92-1.88-2-2-9.25-1.06-16.87-9.04-21.94-16.23-.62-.88-1.75-1.3-2.74-.72-.87,.51-1.34,1.85-.72,2.74h0Z"/>
      <path class="cls-6" d="M288.55,85.87c1.46-1.89,5.06-2.76,6.98-1.66,.05,.03,.6,.39,.39,.23-.17-.12,.47,.43,.56,.53,.42,.44,.74,.96,1.03,1.49,.68,1.25,1.1,2.71,1.28,4.12,.69,5.66-2.45,12.15-8.42,13.15-1.07,.18-1.66,1.5-1.4,2.46,.31,1.13,1.39,1.58,2.46,1.4,6.96-1.17,10.6-7.68,11.34-14.17,.58-5.04-1.73-12.34-7.37-13.47-3.85-.78-7.93,.82-10.3,3.9-.66,.86-.13,2.24,.72,2.74,1.03,.6,2.07,.14,2.74-.72h0Z"/>
      <path class="cls-6" d="M259.87,80.19c-.68,1.73-.86,5.87,1.98,6.53,3.82,.39,4.61-4.55,3.6-7.02-.82-2.02-3.82-3.15-5.58,.49Z"/>
      <path class="cls-6" d="M264.99,60.73c2.07-4.63,4.63-9.05,8.31-12.59s8.47-5.98,13.41-7.54c10-3.17,21.35-3.24,31.13,.79,10.1,4.15,17.83,13.29,22.1,23.15,2.68,6.2,3.99,12.98,3.28,19.72-.66,6.24-2.89,12.28-6.08,17.66-2.94,4.97-6.72,8.95-10.76,13.02-4.63,4.66-9.68,10.12-8.89,17.19,.12,1.07,.83,2,2,2,.99,0,2.12-.92,2-2-.36-3.21,.56-5.67,2.38-8.27s3.92-4.69,6.08-6.83c3.78-3.75,7.27-7.61,10.08-12.16,3.38-5.46,5.83-11.6,6.83-17.95,1.13-7.18,.31-14.37-2.18-21.19-4.13-11.27-12.37-21.91-23.37-27.13-9.85-4.68-21.28-5.27-31.83-2.88-6.38,1.45-12.61,4.12-17.63,8.37-4.63,3.92-7.86,9.15-10.31,14.63-.44,.99-.29,2.15,.72,2.74,.85,.5,2.29,.27,2.74-.72h0Z"/>
      <path class="cls-6" d="M278.24,75.15c.11,.14,.22,.28,.33,.41,.22,.27-.14-.18,.07,.09,.19,.25,.37,.5,.55,.75,.35,.49,.69,.98,1.02,1.48,.63,.96,1.21,1.94,1.77,2.94,.88,1.58,1.66,3.22,2.48,4.83,.48,.93,1.86,1.28,2.74,.72,.95-.61,1.23-1.74,.72-2.74-.85-1.67-1.66-3.35-2.57-4.98-1.25-2.23-2.67-4.35-4.27-6.34-.66-.82-2.15-.74-2.83,0-.8,.87-.7,1.95,0,2.83h0Z"/>
      <path class="cls-6" d="M263.04,68.97c5.42,.78,11.05,2.75,15.2,6.18,.83,.69,2.01,.81,2.83,0,.71-.71,.84-2.14,0-2.83-4.81-3.98-10.81-6.32-16.96-7.21-1.07-.15-2.15,.26-2.46,1.4-.26,.94,.32,2.31,1.4,2.46h0Z"/>
      <path class="cls-5" d="M306.51,128.31c-2.36,.56-4.7,1.22-7.01,1.98-8.97,2.96-19.19,10.18-22.05,20.01-.97,.41-1.93,.84-2.89,1.27-8.37,3.77-15.71,8.39-21.17,15.97-8.72,12.1-8.57,27.43-11.71,41.48-.75,3.35-1.08,7.41-3.64,11.23-7.44-6.6-12.12-12.03-19.23-19.41-1.06-1.1-2.71-1.36-4.06-.66-9.83,5.1-18.58,17.62-20.04,22.32-.09,.28-.06,.57,.09,.82,6.01,9.79,15.29,22.76,20.45,28.31,9.39,10.09,22.44,18.28,36.17,16,.26-.04,.52-.09,.77-.15,2.08,6.9,4.48,11.08,10.98,14.32,3.93,1.96,9.97,4.44,15.97,4.89,5.69,.42,16.41,.39,21.44-.22,5.22-7.44,19.06-27.82,25.22-36.33,7-9.67,24.78-38.11,27.12-42.03,.56-4.57,1.22-9.74,1.32-13.89,.25-10.25,.79-18.55-2.02-28-2.81-9.45-9.92-21.62-21.1-24.75-1.22-2.69-3.74-10.44-5.37-12.92-.45-.69-.95-1.39-1.69-1.75-.6-.29-1.3-.32-1.96-.32-5.24-.06-10.47,.62-15.58,1.82Z"/>
      <path class="cls-6" d="M158.43,268.69c13.14-3.3,26.13-7.27,39.18-10.92,2.16-.6,4.32-1.23,6.49-1.8,2.49-.65,1.43-4.51-1.06-3.86-12.99,3.39-25.88,7.25-38.82,10.85-2.28,.63-4.56,1.29-6.86,1.87-2.5,.63-1.44,4.49,1.06,3.86h0Z"/>
      <path class="cls-6" d="M19.34,214.66c5.83,2.95,11.69,5.83,17.55,8.72,3.36,1.66,6.73,3.32,10.09,4.99,.78,.39,1.62,.96,2.46,1.19s1.79-.17,2.59-.36c1.7-.4,3.39-.8,5.09-1.2,14.03-3.3,28.05-6.64,42.07-9.96,7.37-1.75,14.74-3.49,22.12-5.23,.85-.2,1.47-1.08,1.47-1.93,0-.95-.64-1.59-1.47-1.93-11.21-4.66-22.44-9.28-33.66-13.94-5.96-2.48-11.92-4.96-17.87-7.46-2.55-1.07-5.11-2.15-7.66-3.24-1.17-.5-2.33-1-3.5-1.5-1.08-.46-2.65-1.49-3.83-1.49s-2.36,.43-3.46,.64c-1.2,.23-2.4,.47-3.6,.71-2.25,.44-4.51,.89-6.76,1.33-4.37,.86-8.74,1.73-13.11,2.59-2.52,.5-1.46,4.36,1.06,3.86,8.79-1.74,17.59-3.48,26.39-5.2l-1.54-.2c17.59,7.64,35.35,14.89,53.08,22.22,4.46,1.85,8.93,3.69,13.39,5.55v-3.86c-18.56,4.36-37.1,8.79-55.65,13.17-5.05,1.19-10.1,2.38-15.16,3.57l1.54,.2c-9.87-4.91-19.79-9.71-29.62-14.69-2.29-1.16-4.32,2.29-2.02,3.45h0Z"/>
      <path class="cls-6" d="M141.6,185.05c-11.99-4.89-24.29-9.05-36.42-13.6v3.86c16.89-3.36,33.75-6.83,50.62-10.23,4.1-.83,8.19-1.65,12.29-2.46h-1.06c9.72,3.17,19.49,6.23,29.24,9.29,10.65,3.35,21.3,6.68,31.96,9.99,3.23,1.01,6.47,2.01,9.71,3.01v-3.86c-6.97,1.78-13.96,3.45-20.97,5.07-2.51,.58-1.45,4.44,1.06,3.86,7.01-1.62,14-3.29,20.97-5.07,1.96-.5,1.84-3.29,0-3.86-12.92-3.96-25.81-8.02-38.71-12.07-8.01-2.51-16.01-5.03-24.01-7.59-1.58-.5-3.15-1.01-4.72-1.51-1.34-.43-3.12-1.35-4.53-1.12-5.85,.95-11.66,2.33-17.46,3.5-15.15,3.07-30.29,6.17-45.45,9.19-2.11,.42-1.67,3.23,0,3.86,12.13,4.55,24.42,8.71,36.42,13.6,1,.41,2.2-.44,2.46-1.4,.31-1.15-.39-2.05-1.4-2.46h0Z"/>
      <path class="cls-6" d="M107.84,181.02c-5.36,2.11-10.76,4.14-16.11,6.29-1.76,.7-2.03,3.25,0,3.86,13.55,4.03,27,8.39,40.49,12.62,2.46,.77,3.52-3.09,1.06-3.86-13.49-4.23-26.94-8.59-40.49-12.62v3.86c5.35-2.15,10.74-4.18,16.11-6.29,1-.39,1.7-1.34,1.4-2.46-.26-.96-1.45-1.79-2.46-1.4h0Z"/>
      <g>
        <path class="cls-3" d="M103.35,88.7c-12.22,0-23.95-1.78-23.95-1.78-9.77-3.13-8.8-16.41-7.3-22.02,1.3-4.85,1.49-17.17,.19-24.12-.19-1.4-.36-2.65-.45-3.59-.26-2.83,.26-7.64,.87-10.42,1.22-5.52,2.86-8.69,6.88-13.4C88.34,3.62,98.1,1.83,104.71,1.99c9.8,.23,16.91,2.35,23.19,9.14,4.63,3.87,7.25,9.73,8.48,15.62,.86,4.14,1.1,10.2,.4,15.64-.44,4.56-.66,9.13-.96,13.33-.25,3.49-.84,6.82-1.95,9.81,.2,2.98,.93,6.05,.64,9.08-.19,2-.87,4-2.25,5.46,0,0-.6,8.03-6.94,8.42s-21.97,.22-21.97,.22Z"/>
        <path class="cls-2" d="M81.44,46.78c-.65-.13-1.55-.91-3.23-.58-2.19,.42-2.94,1.7-3.24,2.42-.89,2.17-.26,5.82,.9,7.95,.82,1.51,2.06,3.6,4.59,5,.8,.44,2.8,1.03,4.61,.77-1.33-.89,1.85,3.63,1.85,3.63,1.61,2.2,3.35,4.25,5.59,6.23-.34,3-.69,4.97-1.62,8.34-.27,.99-1.09,2.11-2.09,2.86-.7,.52-1.87,1.26-3.76,2.26,9.18,5.88,18.58,6.83,25.98,6.22,5.68-.47,10.99-2.29,14.65-6.91-2.02-.65-3.92-1.74-5.63-3.22-.23-.19-.46-.41-.61-.71-.14-.27-.19-.6-.24-.92,0,0-.09-.62-.22-1.44,3.51-.9,6.69-2.66,9.71-5.34,4.75-4.2,6.64-10.61,7.13-17.63,.23-3.22,.41-6.67,.69-10.16-.34-.05-.58-.08-.58-.08,.13-4.38-.99-9.03-2.14-11.37-1.86-3.81-3.31-6.19-5.17-7.39-3.36,3.46-7.46,6.16-11.8,8.22-2.29,1.09-4.66,2-7.08,2.74-1.5,.46-5.61,1.38-6.71-.54,0,0-.27-.48-.74-1.3-3.49,2.93-7.49,5.48-11.72,8.13-.55,.35-1.89,1.56-2.56,3.22l-6.58-.43Z"/>
        <path class="cls-4" d="M63.56,110.32c-.27,1.05-.54,2.24-.78,3.52-1.41,7.37-2.29,18.02-2.19,24.71,.12,8,.4,20.96,.98,30.15,33.03-6.31,66.73-12.74,96.24-18.37-1.35-7.11-3.46-17.04-4.93-25.93-1.63-9.83-4.13-22.47-9.87-29.78-3.26-4.15-6.76-6.36-11.5-8.4-.88-.38-3.61-1.28-3.61-1.28,0,0-.76-.25-1.78-.59-3.67,5.08-9.19,7.04-15.11,7.53-7.43,.61-16.9-.34-26.12-6.31-11.16,7.47-17.03,11.89-20.78,22.93-.19,.55-.37,1.16-.54,1.83Z"/>
        <path class="cls-6" d="M90.42,72.91c-.2,1.63-.58,3.68-1.03,5.47-.26,1.04-.36,1.79-.93,2.57-.21,.29-.57,.61-.88,.88,.31-.27-.17,.11-.26,.18-2.6,1.78-5.54,3.11-8.39,4.42-.98,.45-1.22,1.87-.72,2.74,.59,1.01,1.75,1.17,2.74,.72,2.95-1.36,6.04-2.73,8.69-4.63,.96-.69,1.77-1.48,2.41-2.48s.91-2.18,1.2-3.32c.54-2.15,.9-4.33,1.18-6.53,.13-1.07-1.01-2-2-2-1.19,0-1.87,.92-2,2h0Z"/>
        <path class="cls-6" d="M127.78,28.57c.08,.05,.23,.18,.07,.05,.11,.09,.21,.18,.31,.27,.24,.22,.46,.46,.68,.71,.37,.42,.74,.98,1.08,1.53,.82,1.32,1.78,3.09,2.29,4.3,1.32,3.11,1.79,6.69,1.71,10.05-.06,2.58,3.94,2.57,4,0,.09-3.97-.56-8.14-2.15-11.8-1.36-3.13-3.14-6.54-5.98-8.57-.88-.63-2.23-.15-2.74,.72-.59,1.01-.16,2.11,.72,2.74h0Z"/>
        <path class="cls-6" d="M70.91,45.88c.31,4.12,.34,8.28,.07,12.41-.18,2.79-.78,5.38-1.27,8.1-.96,5.32-.94,11.27,1.62,16.16,1.6,3.05,4.28,5.21,7.53,6.3,2.45,.82,3.5-3.04,1.06-3.86-4.87-1.63-6.56-6.68-6.75-11.39-.21-5,1.38-9.5,1.76-14.56,.33-4.38,.31-8.79-.02-13.17-.19-2.55-4.19-2.57-4,0h0Z"/>
        <path class="cls-6" d="M95.64,72.22c-2.18-1.71-4.15-3.66-5.9-5.82-.09-.11-.18-.22-.27-.34-.03-.03-.38-.49-.11-.14-.19-.25-.38-.5-.57-.76-.16-.22-.31-.44-.46-.66-.57-.83-1.13-1.66-1.6-2.55s-1.85-1.29-2.74-.72c-.94,.6-1.25,1.75-.72,2.74,.97,1.82,2.25,3.5,3.54,5.11,1.77,2.21,3.78,4.2,6.01,5.95,.82,.64,2.04,.86,2.83,0,.66-.72,.88-2.14,0-2.83h0Z"/>
        <path class="cls-6" d="M128.57,14.55c3.82,4.35,5.79,10.23,6.36,15.92,.66,6.5-.32,12.94-.74,19.43-.37,5.7-.43,11.68-3.05,16.9-2.35,4.7-6.91,8.25-11.92,9.73-6.23,1.85-12.7,.45-18.56-1.96-1-.41-2.2,.45-2.46,1.4-.32,1.15,.39,2.05,1.4,2.46,5.98,2.46,12.46,3.73,18.88,2.42,5.73-1.17,11.24-4.72,14.62-9.5,3.69-5.23,4.47-11.7,4.87-17.91,.24-3.68,.42-7.38,.81-11.05,.37-3.42,.52-6.82,.29-10.25-.49-7.39-2.72-14.77-7.67-20.41-1.7-1.94-4.52,.9-2.83,2.83h0Z"/>
        <path class="cls-6" d="M126.59,7.07c-4.79-4.18-10.4-6.15-16.67-6.78-5.41-.54-10.88-.42-16.09,1.26-6.45,2.08-12.23,6.19-16.51,11.43-2.08,2.55-3.85,5.22-5.07,8.28-1.15,2.89-1.74,5.94-2.13,9.01-.41,3.3-.39,6.46,.06,9.75,.47,3.46,1.04,6.97,.85,10.47-.14,2.57,3.86,2.56,4,0,.3-5.59-1.5-11.05-1.23-16.63s1.44-11.02,4.54-15.63c3.5-5.2,8.55-9.58,14.36-12.01,4.39-1.84,8.98-2.36,13.69-2.16,6.39,.27,12.45,1.55,17.38,5.85,1.93,1.69,4.77-1.13,2.83-2.83h0Z"/>
        <path class="cls-6" d="M82.45,45.05c-2.42-1.48-5.73-1.15-7.86,.72-1.63,1.43-2.12,3.7-2.03,5.79,.19,4.6,2.8,9.72,7.05,11.83,2.43,1.2,5.54,1.44,7.99,.2,.96-.49,1.24-1.84,.72-2.74-.57-.98-1.77-1.21-2.74-.72-.24,.12-.85,.27-1.11,.27-.3,0-.59,0-.89-.01-.15-.01-.29-.02-.44-.04,.18,.02,.14,.01-.1-.03-.49-.11-.96-.24-1.44-.4-.39-.13,.27,.19-.04-.02-.25-.17-.53-.3-.78-.47-.84-.56-1.72-1.52-2.17-2.16-.25-.36-.48-.74-.7-1.12-.11-.2-.22-.39-.33-.59-.04-.07-.33-.68-.24-.46-.42-.98-.7-2.2-.77-3.08-.05-.6-.07-1.22,0-1.82-.04,.29,.09-.42,.12-.5,.03-.13,.07-.25,.12-.38-.11,.24-.13,.28-.05,.11,.08-.14,.15-.28,.23-.41s.33-.34,.02-.04c.06-.06,.54-.51,.2-.24,.2-.15,.43-.29,.66-.39-.15,.06-.11,.05,.14-.04,.16-.05,.31-.09,.47-.13,.29-.05,.34-.07,.17-.05,.15-.01,.31-.02,.46-.02,.52,0,.83,.09,1.32,.39,2.2,1.35,4.21-2.11,2.02-3.45h0Z"/>
        <path class="cls-6" d="M105.39,30.03c-2.84,3.24-6.22,5.9-9.78,8.32-1.89,1.28-3.83,2.5-5.76,3.72-1.56,.98-2.84,2.42-3.56,4.12-.42,.99-.3,2.14,.72,2.74,.84,.49,2.31,.28,2.74-.72,.33-.77,.74-1.45,1.33-2.05,.14-.15,.3-.28,.45-.42,.18-.17,.12-.07-.04,.02,.42-.27,.84-.53,1.26-.79,1.92-1.21,3.84-2.44,5.7-3.73,3.54-2.45,6.94-5.14,9.78-8.39,.71-.81,.8-2.03,0-2.83-.73-.73-2.11-.82-2.83,0h0Z"/>
        <path class="cls-6" d="M127.09,25.43c-3.59,3.61-7.93,6.34-12.58,8.39-2.03,.89-4.17,1.72-6.33,2.22-.74,.17-1.48,.28-2.24,.28-.28,0-.56,0-.83-.07-.17-.04-.43-.23-.35-.11-1.41-2.14-4.88-.14-3.45,2.02,2.75,4.17,9.44,1.46,13,.05,5.79-2.3,11.21-5.51,15.62-9.95,1.82-1.83-1.01-4.66-2.83-2.83h0Z"/>
        <path class="cls-6" d="M80.13,128.43c0,5.16,.08,10.32,.22,15.48,.15,5.86,.26,11.79,1.04,17.61,.14,1.07,1.52,1.66,2.46,1.4,1.16-.32,1.54-1.39,1.4-2.46,.06,.46-.04-.33-.05-.41-.03-.28-.06-.56-.09-.84-.06-.63-.11-1.26-.16-1.88-.1-1.37-.19-2.75-.26-4.12-.16-3.2-.27-6.41-.35-9.61-.13-5.05-.22-10.11-.21-15.16,0-2.57-4-2.58-4,0h0Z"/>
        <path class="cls-6" d="M137.58,112.43c.51,6.83,1.66,13.64,1.18,20.5-.25,3.69-.86,7.36-1.74,10.95-.43,1.75-.91,3.46-1.07,5.26-.15,1.66,0,3.32,.12,4.97,.17,2.55,4.18,2.57,4,0-.11-1.59-.25-3.19-.13-4.78,.14-1.8,.76-3.53,1.16-5.28,.84-3.65,1.41-7.39,1.67-11.12,.47-6.86-.68-13.67-1.18-20.5-.19-2.55-4.19-2.57-4,0h0Z"/>
        <path class="cls-6" d="M132.19,68.61c.26,2.05,.5,4.11,.29,6.18,.04-.42-.02,.13-.04,.22-.04,.25-.09,.5-.16,.74-.11,.43-.24,.84-.4,1.26,.13-.36-.09,.18-.1,.21-.11,.22-.23,.44-.36,.65-.1,.16-.2,.31-.31,.47,.22-.31-.23,.26-.28,.31-.71,.77-.82,2.08,0,2.83,.77,.71,2.07,.82,2.83,0,1.48-1.6,2.38-3.63,2.7-5.78,.36-2.38,.13-4.71-.17-7.08-.13-1.03-.83-2.05-2-2-.97,.04-2.14,.89-2,2h0Z"/>
        <path class="cls-6" d="M117.98,64.27c-.12,.07-.24,.12-.35,.18-.24,.12,.14-.06,.19-.08-.09,.03-.17,.07-.25,.1-.29,.1-.58,.18-.87,.25-.17,.04-.35,.07-.52,.1-.08,.01-.16,.02-.24,.04,.08-.02,.45-.05,.17-.03-.34,.03-.68,.06-1.03,.06-.31,0-.63-.01-.94-.04-.45-.05,.41,.07-.03,0-.16-.03-.32-.06-.47-.1-.14-.04-.28-.08-.42-.13-.08-.03-.16-.07-.24-.09,.11,.03,.35,.15,.11,.04-.5-.24-1-.45-1.51-.66-.44-.19-1.15-.03-1.54,.2-.41,.24-.81,.72-.92,1.2-.12,.51-.09,1.09,.2,1.54s.69,.71,1.2,.92c-.21-.09-.26-.11-.02,0,.09,.04,.17,.08,.26,.12,.19,.09,.38,.17,.57,.26,.44,.19,.89,.39,1.36,.5,.82,.2,1.69,.29,2.53,.27,1.64-.03,3.36-.36,4.8-1.17,.91-.51,1.3-1.84,.72-2.74s-1.76-1.27-2.74-.72h0Z"/>
        <path class="cls-6" d="M101.8,48.44c-.34,1.44,.16,4.67,2.85,4.77,3.53-.26,3.46-4.19,2.15-5.96-1.07-1.45-3.98-1.89-5,1.19Z"/>
        <path class="cls-6" d="M123.02,46.4c-.31,1.42,.16,4.62,2.64,4.73,3.26-.24,3.18-4.14,1.97-5.89-.99-1.43-3.68-1.88-4.61,1.17Z"/>
        <path class="cls-6" d="M115.3,55.48c.26,.4,.51,.81,.76,1.22,.26,.44,.54,.89,.75,1.36l-.2-.48c.05,.11,.08,.22,.1,.33l-.07-.53c0,.06,0,.1,0,.16l.07-.53s-.01,.07-.02,.1l.2-.48s-.03,.06-.05,.09l.31-.4c-.08,.1-.18,.19-.28,.28l.4-.31c-.09,.06-.18,.12-.28,.16l.48-.2c-.14,.05-.27,.09-.42,.1l.53-.07c-.26,.03-.53,.06-.79,.11-.47,.09-.96,.52-1.2,.92-.25,.43-.36,1.06-.2,1.54s.46,.95,.92,1.2l.48,.2c.35,.1,.71,.1,1.06,0,.03,0,.07-.01,.1-.02l-.53,.07c.35-.05,.72-.06,1.06-.18,.53-.19,1.01-.46,1.41-.87,.29-.31,.55-.68,.66-1.1,.12-.49,.11-.82,.02-1.3-.07-.4-.27-.77-.46-1.13-.41-.77-.87-1.52-1.35-2.26-.28-.43-.69-.78-1.2-.92-.48-.13-1.12-.07-1.54,.2s-.8,.69-.92,1.2-.09,1.09,.2,1.54h0Z"/>
        <path class="cls-6" d="M84.93,87.96c6.99,4.17,15,6.23,23.13,6.07,7.21-.14,14.59-1.98,19.21-7.92,.66-.85,.83-2,0-2.83-.69-.69-2.16-.86-2.83,0-4.09,5.26-10.37,6.68-16.74,6.76-7.33,.09-14.45-1.77-20.76-5.53-2.22-1.32-4.23,2.13-2.02,3.45h0Z"/>
        <path class="cls-6" d="M63.57,168.71c-.42-6.67-.62-13.34-.78-20.02-.14-5.74-.34-11.48-.02-17.21s.89-11.77,2.03-17.54c.98-4.97,2.77-9.73,5.77-13.84,3.68-5.03,9.09-8.59,14.18-12.03,2.12-1.43,.12-4.9-2.02-3.45-4.92,3.32-10.01,6.73-13.89,11.28-3.53,4.13-6.04,9.16-7.34,14.43-2.83,11.45-3.03,23.5-2.78,35.23,.16,7.72,.37,15.45,.85,23.17,.16,2.56,4.16,2.57,4,0h0Z"/>
        <path class="cls-6" d="M127.37,86.87c3.58,1.19,7.11,2.65,10.11,4.99,3.65,2.85,6.17,6.8,7.93,11.03,3.95,9.48,5.05,19.86,6.93,29.87,1.14,6.05,2.39,12.07,3.54,18.11,.48,2.53,4.34,1.46,3.86-1.06-1.05-5.52-2.19-11.02-3.24-16.54s-1.86-10.95-2.96-16.4c-1.94-9.69-4.75-20.61-12.59-27.3-3.66-3.12-8-5.05-12.53-6.55-2.45-.81-3.5,3.05-1.06,3.86h0Z"/>
        <path class="cls-6" d="M117.25,80.66c.14,.91,.53,1.76,1.22,2.39,.61,.55,1.28,1.06,1.95,1.53,1.22,.85,2.54,1.51,3.92,2.04,.45,.18,1.14,.03,1.54-.2s.81-.72,.92-1.2c.12-.51,.09-1.09-.2-1.54s-.68-.72-1.2-.92c-.15-.06-.3-.12-.45-.18l.48,.2c-1.29-.55-2.49-1.26-3.6-2.11l.4,.31c-.43-.34-.91-.68-1.25-1.11l.31,.4c-.07-.11-.14-.21-.19-.33l.2,.48c-.11-.27-.16-.55-.2-.83-.07-.46-.53-.97-.92-1.2-.43-.25-1.06-.36-1.54-.2s-.95,.46-1.2,.92l-.2,.48c-.1,.35-.1,.71,0,1.06h0Z"/>
      </g>
      <path class="cls-6" d="M248.6,151c-6.94-1.94-13.89-3.86-20.84-5.78-4.1-1.13-8.21-2.27-12.31-3.4-1.88-.52-3.77-1.04-5.65-1.56-.86-.24-1.72-.47-2.58-.71-1.12-.31-1.94-.3-3.07-.08-14.02,2.67-28.03,5.34-42.05,8.02-16.64,3.17-33.28,6.35-49.91,9.52-17.63,3.37-35.27,6.73-52.9,10.1s-34.54,6.59-51.8,9.89c-2.01,.38-4.03,.77-6.04,1.15-2.53,.48-1.46,4.34,1.06,3.86,13.7-2.62,27.4-5.23,41.1-7.85,14.36-2.74,28.73-5.49,43.09-8.23,14.09-2.69,28.19-5.38,42.28-8.07,13.16-2.51,26.33-5.02,39.49-7.53,11.31-2.16,22.62-4.31,33.93-6.47,1.27-.24,2.55-.49,3.82-.73h-1.06c14.13,3.89,28.26,7.77,42.37,11.72,2.48,.7,3.54-3.16,1.06-3.86h0Z"/>
      <path class="cls-6" d="M330.58,143.41c8.68,2.51,14.56,10.58,17.97,18.53,4.32,10.08,3.97,20.84,3.7,31.57-.16,6.11-1.08,12.15-1.77,18.22-.12,1.07,1.01,2,2,2,1.18,0,1.88-.92,2-2,1.32-11.66,2.73-23.43,1.67-35.19-.91-10.1-4.45-20.01-11.03-27.83-3.56-4.23-8.14-7.61-13.48-9.16-2.48-.72-3.54,3.14-1.06,3.86h0Z"/>
      <path class="cls-6" d="M332.84,140.48c-.55-1.24-1.22-3.12-1.8-4.64-.75-1.99-1.5-3.98-2.37-5.93-.74-1.66-1.63-3.47-3.17-4.54-2.16-1.49-5.64-.91-8.1-.74-10.44,.72-21.59,3.48-30.15,9.73-4.38,3.2-8.25,7.24-10.53,12.22-.45,.98-.28,2.15,.72,2.74,.86,.5,2.28,.27,2.74-.72,3.52-7.69,11.06-13.22,18.87-16.04,4.91-1.77,10.12-3.04,15.31-3.65,2.63-.31,5.48-.66,8.13-.41,1.45,.13,2.07,1.98,2.61,3.16,1.6,3.54,2.69,7.29,4.28,10.83,.44,.99,1.88,1.22,2.74,.72,1.02-.59,1.16-1.75,.72-2.74h0Z"/>
      <path class="cls-6" d="M319.25,138.8c-8.95,.09-17.87,1.47-26.48,3.91-8.32,2.36-16.61,5.53-24.25,9.6-6.89,3.67-13.05,8.59-17.46,15.09s-6.71,14.73-8.12,22.65c-.8,4.47-1.4,8.96-2.19,13.43-.39,2.2-.88,4.37-1.31,6.55-.47,2.41-.9,4.86-1.93,7.1-.45,.98-.28,2.15,.72,2.74,.86,.5,2.29,.27,2.74-.72,1.73-3.78,2.35-7.95,3.15-11.99,.76-3.84,1.32-7.71,1.94-11.57,1.2-7.59,2.57-15.37,6.14-22.26s9.06-12.12,15.61-16.02c7.07-4.22,14.96-7.3,22.8-9.77,9.29-2.93,18.9-4.64,28.65-4.74,2.57-.03,2.58-4.03,0-4h0Z"/>
      <path class="cls-6" d="M240.92,220.14c-5.92-5.14-11.3-10.78-16.68-16.47-2.52-2.67-5.43-7.08-9.7-5.56-3.16,1.13-6.12,3.69-8.58,5.89-4.59,4.12-8.76,9.13-11.7,14.57-.51,.94-1,1.93-1.35,2.95-.62,1.81,.27,3.06,1.2,4.54,1.97,3.13,4.01,6.21,6.11,9.25,7.92,11.49,16.45,23.22,29.03,29.97,6.61,3.55,14.1,5.47,21.61,4.45s13.97-5.59,18.21-11.55,6.08-13.41,8.02-20.26c2.34-8.29,4.17-16.73,5.29-25.28,.27-2.07,.49-4.14,.67-6.22,.21-2.57-3.79-2.55-4,0-.66,7.87-2.08,15.66-3.95,23.33-1.69,6.97-3.54,14.15-6.36,20.76-2.52,5.9-6.72,10.61-12.51,13.44-6.19,3.03-13.47,2.44-19.81,.18-12.28-4.39-20.99-14.57-28.44-24.78-2.06-2.82-4.06-5.68-6.01-8.58-.93-1.38-1.84-2.76-2.75-4.15-.45-.7-.9-1.4-1.34-2.1-.2-.32-.4-.63-.6-.95-.11-.17-.63-1.01-.6-.8,.04,.23,.09-.18,.16-.35,.12-.33-.06,.12,.09-.23,.19-.44,.41-.86,.63-1.28,.54-1.03,1.14-2.02,1.77-3,1.55-2.39,3.29-4.64,5.18-6.77,2.09-2.34,4.36-4.58,6.88-6.46,1.24-.93,2.54-1.78,3.9-2.52,1.64-.89,2.46,.48,3.55,1.61,4.91,5.14,9.69,10.41,14.89,15.26,1.43,1.34,2.89,2.65,4.37,3.93,1.94,1.68,4.78-1.14,2.83-2.83h0Z"/>
      <path class="cls-6" d="M183.88,187.75c-.61-1.39-1.98-2.54-3.07-3.55-1.47-1.37-3.05-2.62-4.52-3.99-.89-.83-3.03-2.25-2.57-3.67,.49-1.51,2.17-1.12,3.31-.69,7.27,2.75,13.95,6.9,21.09,9.95,1.83,.78,3.33,1.57,4.57,3.2s2.02,3.73,1.96,5.85c-.07,2.57,3.93,2.57,4,0,.12-4.54-2.52-9.38-6.52-11.62-1.72-.96-3.67-1.6-5.45-2.45-2.13-1.01-4.24-2.06-6.36-3.11s-4.38-2.17-6.6-3.21c-2.01-.94-4.09-2.04-6.23-2.67s-4.6-.4-6.2,1.23c-1.7,1.74-2.28,4.69-.86,6.77,1.31,1.93,3.27,3.52,5.04,5.02,1.14,.97,2.28,1.96,3.35,3.01,.6,.59,1.26,1.17,1.6,1.94,.44,.99,1.88,1.22,2.74,.72,1.02-.6,1.16-1.74,.72-2.74h0Z"/>
      <path class="cls-6" d="M181.52,188.51c-7.18,.73-14.37,1.4-21.56,2.04-3.84,.34-7.68,.7-11.48,1.34-3.21,.54-6.23,1.53-7.29,4.98s1.25,6.65,4.86,7.14c1.07,.14,2.15-.26,2.46-1.4,.26-.93-.32-2.32-1.4-2.46-.57-.08-1.21-.14-1.71-.46-.18-.11-.24-.16-.36-.32,.02,.03-.06-.16-.07-.18-.18-.51-.01-1.31,.31-1.79,.63-.96,1.65-1.15,2.72-1.37,1.26-.25,2.53-.45,3.8-.62,6.14-.82,12.35-1.22,18.52-1.8,3.74-.35,7.47-.72,11.21-1.1,1.07-.11,2-.84,2-2,0-1-.92-2.11-2-2h0Z"/>
      <path class="cls-6" d="M169.7,198.21c-4.49,.13-8.98,.35-13.46,.77-2.13,.2-4.26,.42-6.38,.69-2,.25-4.07,.82-5.48,2.36-2.6,2.85-1.15,7.03,2.21,8.41,1.84,.76,3.76,.67,5.7,.49s3.76-.33,5.65-.48c4.1-.32,8.2-.63,12.3-.84,2.56-.13,2.58-4.13,0-4-6.25,.32-12.49,.82-18.72,1.39-1.23,.11-2.85,.27-3.92-.51-.59-.42-.81-1.12-.31-1.73,.84-1.03,2.63-1.1,3.82-1.24,1.84-.21,3.68-.41,5.52-.58,4.35-.4,8.71-.61,13.08-.73,2.57-.07,2.58-4.07,0-4h0Z"/>
      <path class="cls-6" d="M153.12,206.96c-2.38,.94-4.33,3.48-3.44,6.14,.74,2.23,2.78,3.39,5.04,3.52,3.14,.17,6.32,.05,9.46,0,1.71-.03,3.42-.06,5.13-.12,2.57-.09,2.58-4.09,0-4-3.53,.12-7.07,.16-10.6,.17-1.36,0-2.72-.03-4.08-.06-.08,0-.15,0-.23-.02,.6,.06-.31-.09-.28-.08-.41-.17-.43-.3-.6-.55-.06-.08-.09-.24,.02-.44,.14-.28,.46-.64,.65-.71,1-.4,1.71-1.34,1.4-2.46-.26-.95-1.45-1.8-2.46-1.4h0Z"/>
      <path class="cls-6" d="M161.85,218.58c5.21,.06,10.41,.22,15.61,.29,1.96,.03,3.91,.07,5.86,.2,1.68,.11,3.46,.22,5.05,.83,1.01,.39,2.19-.43,2.46-1.4,.31-1.13-.39-2.07-1.4-2.46-1.71-.67-3.67-.79-5.48-.93-2.07-.16-4.16-.22-6.23-.25-5.29-.08-10.58-.24-15.87-.3-2.57-.03-2.58,3.97,0,4h0Z"/>
      <path class="cls-2" d="M379.07,255.15c0-14.75,.39-18.44,.53-43.74,.04-6.69-6.37-11.54-12.79-9.67-16.46,4.78-40.28,11.74-56.64,16.46-5.51,1.59-9.31,6.63-9.34,12.37-.11,24.86-.38,34.88-.38,57.25l78.61-32.67Z"/>
      <path class="cls-6" d="M302.46,287.82c0-12.84,.14-25.68,.26-38.52,.03-3.53,.06-7.06,.08-10.6,.01-1.98,.02-3.96,.03-5.94,0-1.74-.05-3.44,.43-5.13,.78-2.77,2.66-5.13,5.17-6.54,1.29-.73,2.7-1.08,4.12-1.48,1.58-.46,3.17-.92,4.75-1.37,13.87-4.01,27.73-8.06,41.59-12.09,3.07-.89,6.19-2.08,9.32-2.67,2.64-.5,5.37,.47,7.21,2.39,2.36,2.46,2.19,5.5,2.16,8.69-.02,3.54-.06,7.08-.1,10.63-.11,8.81-.36,17.61-.41,26.42,0,1.19,0,2.37,0,3.56,0,2.57,4,2.58,4,0,0-9.06,.24-18.12,.38-27.18,.05-3.43,.09-6.87,.12-10.3,.03-3.75,.53-7.74-1.03-11.26-1.29-2.92-3.79-5.16-6.75-6.3-3.3-1.27-6.42-.6-9.69,.35-14.34,4.17-28.68,8.35-43.02,12.51-3.31,.96-6.62,1.92-9.92,2.87s-6.18,2.21-8.46,4.78-3.62,5.8-3.82,9.22c-.24,4.06-.06,8.18-.09,12.24-.1,13.26-.28,26.51-.31,39.77,0,1.99,0,3.98,0,5.96,0,2.57,4,2.58,4,0h0Z"/>
    </g>
  </g>
</svg>