<?xml version="1.0" encoding="UTF-8"?>
<svg id="_レイヤー_2" data-name="レイヤー 2" xmlns="http://www.w3.org/2000/svg" viewBox="0 0 604.19 769.86">
  <defs>
    <style>
      .cls-1 {
        fill: #fff;
      }

      .cls-2 {
        fill: #2c2321;
      }

      .cls-3 {
        fill: #bdccd4;
      }

      .cls-4 {
        fill: #0071bc;
      }

      .cls-5 {
        fill: #fdeee0;
      }

      .cls-6 {
        fill: #71b9d1;
      }

      .cls-7 {
        fill: #666;
      }
    </style>
  </defs>
  <g id="_レイヤー_1-2" data-name="レイヤー 1">
    <g>
      <g>
        <path class="cls-5" d="M165.65,670.57c5.94-42.2,13.79-90.96,18.05-131.95-17.66,1.26-35.59,1.89-53.53,1.88,.67,45.85,1.29,104.55,.78,138.9-.08,5.39-.64,17.68-1.03,25.77-.39-8.09-.95-20.39-1.03-25.77-.51-34.35,.12-93.05,.78-138.9-17.93-.02-35.86-.69-53.55-2.01,4.26,41.02,12.12,89.84,18.07,132.09,2.24,15.87-9.35,65.88-9.35,65.88l27.98,2.73c9.1,0,15.33-8.91,17.09-18.35,1.76,9.44,7.99,18.35,17.09,18.35l27.98-2.73s-11.59-50.01-9.35-65.88Z"/>
        <path class="cls-1" d="M109.86,182.5c7.96,35.58,19.91,79.44,19.91,79.44,0,0,12.1-44.42,20.06-80.12-15.15,4.12-25.16,4.6-39.97,.67Z"/>
        <path class="cls-6" d="M245.96,241.9c-3.16-15.1-7.45-32.8-12.56-47.08h0c-4.37-12.21-9.35-21.91-14.74-25.34-9.76-6.21-39.86-17.43-44.29-19.06-1.41,2.98-2.99,5.52-4.79,7.45-1.93,2.13-4.31,4.28-7.01,6.31-3.04,2.29-6.5,4.43-10.28,6.22-.76,3.66-1.58,7.49-2.46,11.44-7.96,35.7-20.06,80.12-20.06,80.12,0,0-11.95-43.86-19.91-79.44-1.01-4.5-1.95-8.86-2.79-12.99-3.5-1.68-6.74-3.6-9.58-5.64-2.72-1.95-5.07-3.99-6.91-6.02-1.84-1.96-3.45-4.58-4.89-7.64-.84,.31-34.4,12.63-44.81,19.26-10.05,6.4-18.65,34.58-24.59,60.16-7.57,29.59-17.37,73.14-12.44,83.68,5.13,10.97,29.17,28.71,48.89,41.94l-3.11,10.26s1.57,1.18,4.25,2.9c-19.84,59.4,6.57,168.71,6.57,168.71,5.2,.51,10.44,.95,15.69,1.35,17.69,1.33,35.62,1.99,53.55,2.01,.16,0,.32,0,.49,0,17.94,.01,35.87-.62,53.53-1.88,5.97-.43,11.9-.92,17.8-1.49,0,0,19.45-109.3,3.2-167.51,3.28-2.39,5.22-4.1,5.22-4.1l-3.05-10.07c19.9-13.5,43.76-31.31,48.83-42.14,4.1-8.77-2.62-42.26-9.73-71.41Zm-196.11,51.65l5.24-24.85,.02-.02,6.77,35.9-12.03-11.03Zm147.75,11.34l6.83-36.21h.02s5.13,24.98,5.13,24.98l-11.97,11.23Z"/>
        <path class="cls-5" d="M160.83,346.67l-.12,.08s-2.19,.2-10.31-.13c-7.69-.31-16.2,2.9-21.33,6.41-.06,.04-.14,.09-.2,.14-1.58-1.08-2.94-1.95-3.76-2.51-4.95-3.38-13.17-6.49-20.6-6.19-1.28,.05-2.4,.09-3.39,.12-3.35,8.77-9.99,18.57-17.29,25.02,1.94,3.2,4.5,6.91,7.43,9.94,2.74,2.83,6.87,6.84,11.34,10.76-2.61,4.95,.45,6.77,3.57,6.01-3.57,5.08,.91,9.6,7.58,6.3-1.95,2.4,3.59,6.39,9.3,3.53l4.32-2.44c1.02,2.49,4.23,4.74,9.11,2.17,2.94-1.55,6.37-3.99,9.87-6.75,.58-.28,1.06-.66,1.41-1.13,6.3-5.13,12.59-11.16,16.36-15.05,4.35-4.5,7.9-10.44,9.93-14.21-4.19-5.58-9.33-13.84-13.22-22.06Z"/>
      </g>
      <g>
        <path class="cls-5" d="M194.93,116.37c-.49-.92-1.1-1.73-1.8-2.42-2.47-2.41-6.13-3.26-9.95-1.4,.19-1.7,.36-3.38,.51-5.04-3.97-2.09-10.21-6.61-19.11-16.34-7.53-8.23-11.88-13.98-14.39-17.97-7.9,8-16.7,15.2-26.45,19.83-11.36,5.4-23.55,8.95-35.59,12.54-.62,.18-6.88,2.11-11.83,2.98,.15,1.39,.31,2.8,.48,4.22-4-2.16-7.88-1.31-10.44,1.24-.68,.68-1.28,1.47-1.75,2.37-3.16,5.98-1.61,12.94,3.35,18.22,2.79,2.98,9.27,7.95,14.59,7.44,.93,2.97,1.97,5.73,3.13,8.19,1.44,3.06,3.05,5.68,4.89,7.64,2.79,3.07,6.74,6.19,11.39,8.93,.02,.01,.04,.03,.06,.04,.71,.42,1.44,.82,2.18,1.22,.1,.05,.19,.11,.3,.16,.84,.45,1.69,.88,2.56,1.3,.85,4.13,1.79,8.49,2.79,12.99,14.81,3.93,24.82,3.44,39.97-.67,.88-3.95,1.71-7.78,2.46-11.44,1.1-.52,2.17-1.08,3.21-1.66,.68-.38,1.36-.76,2.02-1.16,.23-.14,.45-.28,.68-.42,.61-.38,1.21-.76,1.79-1.15,.17-.11,.33-.22,.49-.34,.67-.46,1.32-.92,1.95-1.39,.05-.03,.1-.07,.14-.1,0,0,0,0,0,0,2.71-2.03,5.08-4.18,7.02-6.31,1.8-1.92,3.38-4.47,4.79-7.45,1.19-2.51,2.25-5.31,3.19-8.35,.28,0,.57,0,.86-.03,5-.37,10.6-4.73,13.14-7.45,4.96-5.28,6.51-12.24,3.35-18.22Z"/>
        <path class="cls-7" d="M174.38,150.42c-1.41,2.98-2.99,5.52-4.79,7.45-3.54,3.9-8.54,7.89-14.44,11.07-1.84,7.01-4.93,13.8-7.82,20.46-2.5,5.75-4.52,11.94-3.98,18.19,.6,6.95,4.86,12.62,10.94,15.71,.22,.11-1.11-11.82,3.31-20.38,4.43-8.59,14.26-12.55,19.5-20.48,5.63-8.51,8.26-19.74,5.83-29.72-.29-1.2-1.47-5.76-4.5-10.68-.29,.02-.58,.04-.86,.03-.94,3.04-2.01,5.84-3.19,8.35Z"/>
        <path class="cls-7" d="M76.81,112.77c-.17-1.42-.33-2.83-.48-4.22,4.94-.86,11.21-2.79,11.83-2.98,12.04-3.6,24.22-7.14,35.59-12.54,9.75-4.63,18.55-11.83,26.45-19.83,2.51,4,6.86,9.75,14.39,17.97,8.9,9.73,15.14,14.25,19.11,16.34-.15,1.66-.32,3.34-.51,5.04,3.81-1.85,7.48-1.01,9.95,1.4,13.59-53.01-22.65-95.13-51.65-86.9C95.27,10.14,51.7,58.28,66.37,114.01c2.56-2.55,6.44-3.4,10.44-1.24Z"/>
      </g>
      <g>
        <path class="cls-2" d="M130.17,277.82c-3.8,0-6.9,3.1-6.9,6.9s3.1,6.9,6.9,6.9,6.9-3.1,6.9-6.9-3.1-6.9-6.9-6.9Zm0,9c-1.16,0-2.1-.94-2.1-2.1s.94-2.1,2.1-2.1,2.1,.94,2.1,2.1-.94,2.1-2.1,2.1Z"/>
        <path class="cls-2" d="M130.17,313.61c-3.8,0-6.9,3.1-6.9,6.9s3.1,6.9,6.9,6.9,6.9-3.1,6.9-6.9-3.1-6.9-6.9-6.9Zm0,9c-1.16,0-2.1-.94-2.1-2.1s.94-2.1,2.1-2.1,2.1,.94,2.1,2.1-.94,2.1-2.1,2.1Z"/>
        <path class="cls-2" d="M248.71,242.05c-5.91-28.62-15.94-66.65-28.66-74.75-6.97-4.44-23.6-11.19-34.68-15.48-.42-1.64-1.32-4.61-3.02-8.01,4.64-1.59,8.9-5.11,11.1-7.45,5.9-6.28,7.34-14.4,3.75-21.19-.37-.7-.8-1.32-1.27-1.91,8.15-33.69-3.71-61.37-17.23-75.45-11.09-11.56-24.91-16.54-37.13-13.46-20.51-7.19-42.3-2.35-58.42,13.05-19.45,18.57-26.74,47.24-19.64,75.92-.44,.57-.84,1.18-1.19,1.84-3.58,6.79-2.14,14.91,3.75,21.19,2.62,2.79,8.68,7.66,14.59,8.23,.05,.16,.11,.3,.16,.46,.07,.2,.14,.42,.21,.63,0,.03,.03,.05,.04,.07,.37,1.05,.75,2.05,1.14,3.01-8.29,3.1-33.67,12.78-42.73,18.55-11.1,7.06-20.14,36.91-26.2,63.42-7.65,30.01-17,72.52-11.78,83.68,5.24,11.21,28.54,28.65,48.2,41.94l-2.55,8.42c-.31,1.04,.05,2.16,.92,2.81,.24,.18,1.19,.89,2.72,1.92-18.68,59.42,5.84,162.83,7.14,168.24,.26,1.07,1.16,1.85,2.26,1.96,4.5,.44,9.03,.83,13.59,1.18,3.07,28.89,7.87,61.56,12.59,93.63,1.87,12.69,3.63,24.68,5.28,36.41,1.06,7.55-1.19,23.45-3.74,37.64-.89,2.43-8.1,22.54-7.71,33.2,.87,23.51,14.53,27.4,20.36,27.98,.8,.08,1.61,.12,2.43,.12,10.64,0,21.94-6.67,26.94-15.41,5,8.74,16.3,15.41,26.94,15.41,.81,0,1.62-.04,2.43-.12,5.83-.58,19.49-4.47,20.36-27.98,.4-10.66-6.82-30.76-7.71-33.2-2.55-14.18-4.81-30.09-3.74-37.64,1.65-11.73,3.41-23.72,5.28-36.41,4.71-32.02,9.5-64.63,12.57-93.49,5.25-.39,10.49-.83,15.69-1.33,1.15-.11,2.09-.98,2.29-2.12,.98-5.53,18.97-108.7,3.56-166.89,2.35-1.78,3.8-3.04,4.02-3.24,.76-.67,1.05-1.72,.76-2.68l-2.5-8.24c19.82-13.55,42.97-31.06,48.14-42.12,4.4-9.41-2.17-42.93-9.32-72.35Zm-73.76-61.04c-2.21,3.33-5.35,5.94-8.68,8.71-4.1,3.4-8.33,6.91-10.96,12.01-2.88,5.57-3.51,12.29-3.61,16.77-3.35-2.86-5.4-6.75-5.78-11.14-.52-6.1,1.74-12.26,3.77-16.94l.88-2.02c2.52-5.78,5.08-11.64,6.79-17.7,5.87-3.32,10.72-7.34,14.11-11.07,1.32-1.41,2.56-3.16,3.73-5.22,.03-.05,.07-.08,.1-.13,.13-.22,.25-.47,.37-.71,.08-.15,.16-.3,.24-.45,.25-.49,.51-.99,.75-1.51,.08-.18,.17-.36,.25-.54,.23-.5,.46-1,.68-1.53,.11-.25,.21-.51,.32-.77,.17-.41,.33-.82,.5-1.25,1.12,2.52,1.73,4.65,2.01,5.8,2.13,8.75,.03,19.36-5.48,27.68Zm-29.99,7.36c-2.28,5.24-4.81,12.18-4.18,19.44,.02,.27,.06,.53,.09,.79-4.24,17.29-8.51,33.62-11.1,43.38-3.72-14-10.88-41.47-16.46-65.94,11.61,2.61,20.72,2.28,32.95-.66-.14,.32-.28,.64-.42,.95l-.88,2.03Zm2.68-8.59c-13.14,3.46-22.41,3.91-35.6,.61-.49-2.2-.96-4.37-1.41-6.49,6.45,2.51,13.49,4.12,20.47,4.12,6.26,0,12.21-1.28,17.65-3.3-.36,1.67-.72,3.35-1.1,5.07Zm-77.79-46.95c-4.34-4.63-5.47-10.47-2.95-15.25,.85-1.61,2.17-2.76,3.71-3.23,1.2-.37,2.5-.29,3.82,.18,.14,1.15,.29,2.28,.45,3.38,.18,1.29,1.28,2.22,2.55,2.22,.12,0,.24,0,.36-.03,1.41-.2,2.4-1.5,2.2-2.91-.28-2.03-.54-4.17-.8-6.35,21.92-4.24,58.81-17.02,77.62-40.98,.88-1.12,.68-2.74-.44-3.62-1.12-.88-2.74-.68-3.62,.44-13.77,17.55-37.9,28.82-57.89,34.94,11.55-7.18,20.71-15.87,27.32-26.01,.78-1.19,.44-2.79-.75-3.57-1.19-.78-2.79-.44-3.57,.75-9.35,14.34-24.21,25.68-44.18,33.72-.06,.02-.11,.06-.17,.09-1.44,.21-2.79,.38-4.01,.5-.77,.07-1.41,.48-1.83,1.06-5.1-25.55,1.84-50.6,19.06-67.04,15.1-14.41,34.73-18.66,53.86-11.65,.51,.19,1.07,.21,1.59,.06,10.55-2.99,22.82,1.43,32.82,11.85,12.29,12.81,23.07,37.78,16.43,68.43-1.11-.46-2.29-.74-3.5-.81,.06-.97-.43-1.94-1.35-2.43-4.01-2.15-10.91-7.04-21.04-18.11-2.46-2.68-5.78-6.97-9.01-11.21-.86-1.13-2.48-1.35-3.62-.49-1.13,.86-1.35,2.48-.49,3.62,3.3,4.33,6.71,8.73,9.31,11.56,7.13,7.79,13.57,13.57,19.2,17.25-.09,.91-.18,1.82-.28,2.76-.2,1.79-.41,3.55-.63,5.26-.19,1.41,.81,2.71,2.22,2.89,.11,.01,.23,.02,.34,.02,1.28,0,2.38-.95,2.55-2.25,.15-1.14,.29-2.32,.42-3.5,3.42-1.01,5.92,.97,7.09,3.19,2.52,4.78,1.39,10.62-2.95,15.25-1.79,1.91-5.2,4.62-8.5,5.91,.43-1.61,.84-3.27,1.22-5.03,.31-1.39-.57-2.77-1.96-3.07-1.4-.31-2.77,.57-3.07,1.96-.72,3.28-1.51,6.26-2.36,8.97-.23,.75-.47,1.48-.71,2.18-.03,.1-.07,.19-.11,.29-.24,.69-.49,1.36-.74,2-.05,.12-.1,.23-.14,.35-.24,.61-.48,1.2-.73,1.77-.06,.14-.13,.27-.19,.41-.24,.53-.48,1.05-.72,1.53-.08,.15-.15,.29-.23,.43-1.18,2.29-2.44,4.17-3.77,5.6-7.55,8.32-21.79,16.73-36.58,16.73s-31.24-8.62-38.63-16.75c-2.44-2.61-4.66-6.76-6.62-12.34-.02-.06-.04-.12-.06-.18-.26-.75-.52-1.52-.77-2.32,0,0,0,0,0,0-.82-2.63-1.59-5.53-2.3-8.67-.31-1.39-1.69-2.26-3.08-1.95-1.39,.31-2.26,1.69-1.95,3.08,.41,1.83,.85,3.57,1.3,5.25-3.38-1.13-7.06-3.93-9.14-6.14Zm8.83,242.02c.41,.24,.87,.37,1.32,.37,.51,0,1.03-.15,1.47-.46,.58-.41,1.17-.84,1.76-1.3,1.26,1.91,2.67,3.87,4.24,5.73-14.96-1.76-30.16-11.48-34.85-14.7l1.56-5.14c12.95,8.59,23.42,14.86,24.49,15.51Zm24.21-27.74c.54-.02,1.11-.04,1.72-.06,6.93-.3,14.56,2.68,19.04,5.74,.17,.11,.36,.25,.57,.38-8.7,5.9-14.41,10.86-14.58,15.48-.06,1.79,.73,3.42,2.24,4.59,.78,.6,1.62,.98,2.48,1.17-1.99,1.89-4.16,3.87-5.68,5.04-.05,.04-.09,.07-.13,.11-2.77,2.45-4.92,4.72-6.49,6.81-3.61-3.27-6.83-6.42-8.95-8.62-2.25-2.33-4.28-5.11-5.96-7.72,6.39-6.16,12.3-14.74,15.74-22.92Zm56.38,2.27c3.49,7.09,7.84,14.2,11.71,19.55-2.02,3.6-5.09,8.47-8.72,12.22-5.6,5.79-18.44,17.93-26.99,22.45-1.54,.81-2.9,1.04-3.93,.67-.02,0-.04-.02-.06-.03,6.92-4.78,16.83-13.21,17.3-13.61,1.08-.92,1.21-2.55,.29-3.64-.93-1.09-2.55-1.22-3.64-.29-.13,.11-12.83,10.92-19.18,14.8l-4.2,2.37c-2.38,1.17-4.39,.63-5.36,.06,10.26-6.71,26.56-20.19,27.28-20.78,1.1-.91,1.25-2.54,.34-3.63-.91-1.1-2.54-1.25-3.63-.34-.18,.15-18.1,14.96-27.95,21.17-2.31,1.12-4.15,.97-4.78,.24-.42-.49-.27-1.41,.32-2.41,11.01-6.89,28.44-22.62,29.18-23.29,1.06-.96,1.14-2.59,.18-3.64-.96-1.06-2.59-1.14-3.64-.18-.18,.16-17.95,16.2-28.56,22.81-.58,.08-.95-.02-1.01-.06-.24-.53,.38-3.84,7.69-10.33,3.19-2.48,8.52-7.73,10.67-9.88,2.08-2.08,5.37-5.52,6.55-6.77,.18-.19,.34-.35,.46-.48,.97-1.04,.91-2.66-.12-3.64-1.04-.98-2.66-.93-3.64,.1,0,0-.16,.17-.42,.44-3.72,3.83-8.8,7.09-10.37,5.88-.24-.19-.24-.26-.24-.32,.05-1.52,2.57-4.95,14.24-12.68,.59-.39,1.09-.73,1.48-.99,4.64-3.18,12.56-6.25,19.77-5.96,4.7,.19,7.46,.21,8.98,.18Zm-67.81,284.38c-4.66-31.69-9.4-63.94-12.46-92.49,15.81,1.11,31.9,1.7,48.06,1.78-.65,45.56-1.25,102.83-.75,136.38,.08,5.44,.63,17.64,1.02,25.74,0,.11-.01,.22-.02,.33-.1,.92-.51,4.72-.84,9.89-.86,3.93-2.53,8.34-5.71,11.73-3.65,3.89-8.79,5.87-15.29,5.87-5.45,0-9.33-1.54-11.55-4.58-2.33-3.2-2.65-7.62-2.36-11.33,3.1-15.97,6.55-37.22,5.19-46.88-1.65-11.74-3.42-23.74-5.29-36.44Zm76.91,0c-1.87,12.7-3.63,24.7-5.29,36.44-1.36,9.66,2.09,30.91,5.19,46.88,.27,3.84-.12,8.23-2.36,11.31-2.22,3.05-6.1,4.59-11.56,4.59-6.5,0-11.64-1.97-15.29-5.87-3.18-3.4-4.85-7.81-5.71-11.73-.34-5.17-.74-8.97-.84-9.89,0-.11-.01-.22-.02-.33,.39-8.1,.94-20.31,1.02-25.74,.5-33.55-.1-90.81-.75-136.37,16.04-.05,32.12-.61,48.05-1.67-3.06,28.52-7.8,60.73-12.45,92.37Zm30.91-99.01c-45.23,4.22-92.42,4.22-136.75,0-3.21-14.11-23.42-108-7.25-162.37,8.39,5.1,22.83,12.39,36.74,12.39,.26,0,.51-.02,.77-.03,1.95,1.9,4.23,4.05,6.69,6.25-.67,1.97-.62,3.72,.17,5.22,.6,1.15,1.57,1.98,2.77,2.44-.33,1.95,.14,3.82,1.4,5.3,1.74,2.03,4.55,2.78,7.66,2.17,.13,.21,.27,.41,.43,.61,1.42,1.78,4.08,2.99,7.09,2.99,1.68,0,3.47-.38,5.21-1.25,.04-.02,.08-.04,.11-.06l2.24-1.26c.83,.88,1.86,1.56,3.02,1.98,1.7,.62,4.49,.95,8.1-.96,8.4-4.44,20.4-15.49,26.77-21.89,.38,.05,.77,.1,1.16,.14,1.05,.1,2.1,.14,3.15,.14,13.14,0,26.27-7.17,34.47-12.73,13.06,53.25-1.53,146.35-3.95,160.93Zm7.67-170.12c-4.7,3.81-21.79,16.67-38.05,16.74,2.15-2.69,4.01-5.53,5.49-8.03,.75,.89,1.47,1.68,2.12,2.33,.5,.49,1.15,.75,1.82,.75,.46,0,.92-.12,1.33-.37,1.12-.67,12.2-7.39,25.74-16.49l1.54,5.07Zm46.4-52.41c-7.77,16.62-63.79,51.68-74.57,58.31-4.65-5.35-12.39-17.18-17.17-28.37l49.48-46.4c1.57-.63,4.18,.04,7.4,1.92,.41,.24,.86,.35,1.3,.35,.98,0,1.92-.55,2.36-1.54,.55-1.24-.02-2.67-1.19-3.35-3.59-2.07-6.74-2.97-9.43-2.73l-4.31-21.01c3.02-14.87,5.03-29.76,.96-59.54-.18-1.34-1.31-2.43-2.66-2.38-1.55,.06-2.68,1.43-2.47,2.93,3.84,28.01,2.28,42-.54,56.25l-.14,.59c-.77,3.06-7.16,36.32-7.16,36.32l-38.43,36.04c-.77,.72-1.03,1.84-.64,2.81,.24,.59,.49,1.19,.75,1.78-1.51-.02-3.58-.06-6.4-.18-7.77-.32-16.16,2.69-21.61,6.04-.32-.21-.62-.42-.95-.64-.54-.36-1.01-.67-1.37-.92-5.11-3.49-13.8-6.86-21.85-6.64,.13-.84-.15-1.7-.78-2.28l-39.67-36.35s-6.89-35.87-7.16-36.2c-2.86-14.37-4.48-28.34-.63-56.53,.16-1.16-.42-2.36-1.5-2.82-1.63-.7-3.37,.37-3.6,2.01-4.1,29.87-2.09,44.79,.93,59.67l-4.43,21.02c-2.64-.2-5.73,.69-9.24,2.7-1.21,.7-1.83,2.19-1.22,3.45,.45,.94,1.38,1.47,2.33,1.47,.44,0,.89-.11,1.3-.35,3.23-1.89,5.84-2.55,7.42-1.92l50.77,46.52c-3.4,9.92-11.36,21.12-19.36,27.25-9.8-5.96-65.84-40.55-73.69-57.32-4.16-8.9,3.86-48.21,12.85-83.13,.02-.03,.04-.05,.06-.08,.15-.62,.29-1.23,.44-1.85,2.24-8.62,4.52-16.93,6.68-24.4,4.8-15.18,10.3-27.44,16.05-31.11,8.68-5.52,34.46-15.33,42.14-18.2,.42,.79,.86,1.52,1.3,2.22l-6.53,12.63c-.55,1.07-.29,2.38,.63,3.16l9.65,8.15-8.65,8.79c-.65,.66-.9,1.62-.64,2.51,11.06,38.63,37.28,73.48,37.54,73.82,.51,.67,1.28,1.02,2.06,1.02,.54,0,1.09-.17,1.56-.52,1.14-.86,1.36-2.48,.5-3.61-.25-.34-25.25-33.57-36.27-70.67l9.54-9.7c.5-.51,.77-1.21,.74-1.93-.03-.72-.36-1.39-.91-1.85l-10.2-8.62,4.5-8.7c3.79,4,9.25,7.98,15.61,11.18,7.45,36.01,21.68,88.37,22.48,91.31,0,.02,.02,.04,.03,.07,.03,.09,.06,.18,.1,.26,.03,.07,.06,.15,.1,.21,.04,.07,.09,.14,.13,.21,.05,.07,.09,.14,.15,.21,.05,.06,.11,.12,.17,.18,.06,.06,.12,.12,.18,.17,.06,.05,.13,.1,.2,.14,.07,.05,.14,.09,.21,.13,.07,.04,.14,.07,.21,.1,.09,.04,.17,.07,.26,.1,.02,0,.05,.02,.07,.03,.05,.01,.1,.01,.15,.02,.09,.02,.19,.04,.28,.05,.08,0,.16,0,.23,0,.09,0,.18,0,.27,0,.09,0,.17-.03,.25-.04,.06-.01,.11-.01,.17-.03,.03,0,.05-.02,.08-.03,.08-.02,.15-.06,.23-.09,.08-.03,.17-.07,.25-.11,.06-.03,.12-.08,.18-.11,.08-.05,.16-.1,.23-.16,.06-.05,.11-.1,.16-.15,.06-.06,.13-.13,.19-.2,.05-.06,.09-.13,.14-.19,.05-.07,.1-.14,.14-.22,.04-.07,.06-.14,.09-.21,.04-.09,.07-.17,.1-.27,0-.02,.02-.04,.03-.07,.49-1.78,5.91-21.76,11.77-45.23,2.15,3.4,5.25,6.25,9.08,8.2,.37,.19,.77,.28,1.17,.28,.48,0,.96-.13,1.38-.4,1.27-.8,1.24-1.99,1.21-3.24-.08-2.89-.32-11.68,3.01-18.14,2.15-4.17,5.8-7.2,9.67-10.41,1.19-.98,2.39-1.98,3.56-3.03l.27,.28c-12.12,41.82-35.12,70.31-35.35,70.59-.9,1.1-.74,2.73,.37,3.63,.48,.39,1.06,.58,1.63,.58,.75,0,1.49-.32,2-.95,.99-1.21,24.42-30.21,36.73-73.9,.25-.89,0-1.85-.65-2.51l-1.34-1.36c.88-.99,1.72-2.04,2.47-3.17,5.23-7.91,7.72-17.32,7.06-26.12,10.73,4.21,24.95,10.09,30.96,13.92,4.84,3.08,9.49,12.24,13.71,24.1,11.91,40.7,27.66,105.14,22.37,116.46Zm-46.6-19.45l-5.16,4.84,2.94-15.59m-149.57-.21l2.95,15.63-5.23-4.79,2.28-10.83Z"/>
        <g>
          <path class="cls-2" d="M105.4,130.26h0c3.02,0,5.84-1.32,7.94-3.72,.94-1.07,.83-2.7-.24-3.64-1.07-.94-2.7-.83-3.64,.24-1.11,1.26-2.55,1.96-4.06,1.96s-2.95-.7-4.06-1.96c-.94-1.07-2.57-1.18-3.64-.24-1.07,.94-1.18,2.57-.24,3.64,2.1,2.4,4.92,3.72,7.94,3.72Z"/>
          <path class="cls-2" d="M154.19,130.26c3.02,0,5.84-1.32,7.94-3.72,.94-1.07,.83-2.7-.24-3.64-1.07-.94-2.7-.83-3.64,.24-1.1,1.26-2.55,1.96-4.06,1.96s-2.95-.7-4.06-1.96c-.94-1.07-2.57-1.18-3.64-.24-1.07,.94-1.18,2.57-.24,3.64,2.1,2.4,4.92,3.72,7.94,3.72Z"/>
          <path class="cls-2" d="M129.77,147.05c1.71-.06,3.7-.59,3.68-1.85,0-1.01-1.67-2.65-3.67-2.7h-.03c-1.98,.05-3.66,1.7-3.67,2.7-.02,1.27,1.96,1.79,3.68,1.85Z"/>
          <path class="cls-2" d="M152.73,105.85c3.19-.96,6.72-.45,9.94,1.45,.41,.24,.86,.36,1.31,.36,.88,0,1.74-.45,2.22-1.27,.72-1.23,.32-2.81-.91-3.53-4.48-2.64-9.47-3.34-14.06-1.95-1.36,.41-2.14,1.85-1.72,3.22,.41,1.36,1.85,2.13,3.22,1.72Z"/>
          <path class="cls-2" d="M118.41,158.53c3.61,1.82,7.49,2.73,11.36,2.73s7.75-.91,11.36-2.73c1.27-.64,1.78-2.19,1.14-3.47-.64-1.27-2.19-1.78-3.47-1.14-5.74,2.9-12.33,2.9-18.08,0-1.27-.64-2.82-.13-3.47,1.14-.64,1.27-.13,2.82,1.14,3.47Z"/>
        </g>
      </g>
    </g>
    <g>
      <g>
        <path class="cls-1" d="M420.42,142.95c2.75,13.13,6.07,28.81,7.95,37.27,2.26,10.13,6.91,27.42,11.55,44.04,6.36,22.81,12.68,44.34,12.68,44.34,0,0,6.4-21.81,12.8-44.77,4.6-16.49,9.2-33.57,11.43-43.61,1.84-8.28,5.06-23.5,7.78-36.46-8.11,5.9-19.07,10.67-30.69,10.67s-24.74-5.22-33.51-11.48Z"/>
        <path class="cls-4" d="M465.4,223.83l-4.61-50.4,4.84-16.9-4.6-3.4c-.17,0-14.46-.36-16.04-.44l-5.14,3.83,4.84,16.9-4.78,50.82c6.36,22.81,12.68,44.34,12.68,44.34,0,0,6.4-21.81,12.8-44.77Z"/>
        <path class="cls-3" d="M601.31,300.07c-1.16-12.55-10.35-50.23-17.62-78.74,.05-.33,.07-.51,.07-.51,0,0-15.49-60.32-18.38-64.76-8.98-13.78-55.88-27.31-55.88-27.31l-10.33-4.1c-1.85,5.06-4.07,9.32-6.77,12.2-2.12,2.33-4.77,4.69-7.8,6.9-2.72,12.96-5.94,28.18-7.78,36.46-2.24,10.04-6.84,27.13-11.43,43.61-6.4,22.97-12.8,44.77-12.8,44.77,0,0-6.32-21.54-12.68-44.34-4.64-16.62-9.3-33.91-11.55-44.04-1.88-8.46-5.2-24.14-7.95-37.27-2.76-1.97-5.15-4.04-7.01-6.09-2.73-2.92-4.98-7.26-6.86-12.41l-10.87,4.31s-46.9,13.53-55.88,27.31c-2.89,4.43-18.38,64.76-18.38,64.76,0,0,.03,.18,.07,.51-7.27,28.5-16.46,66.19-17.62,78.74-.67,7.22-1.15,13.04,11.38,25.84,8.57,8.75,30.29,23.89,48.23,35.82l-8.59,32.82s3.73,5.2,9.93,11.23c-.06,3.73,.07,7.91,.48,12.7l30.05,286.76,.06,.56c17.89,3.52,32.8,3.24,53.21,.61,1.48-.19,2.98-.39,4.52-.61,1.16,.2,2.3,.38,3.42,.56,19.23,2.99,33.48,2.62,53.83-.49,.15-.02,.29-.04,.44-.07l28.8-285.31c.37-5.42,.45-10.12,.3-14.31,6.45-6.21,10.35-11.64,10.35-11.64l-8.59-32.82c17.94-11.93,39.66-27.07,48.23-35.82,12.53-12.8,12.05-18.61,11.38-25.84Zm-60.6-8.3l-7.58,6.96,1.89-26.97,5.68,20.01Zm-168.65,6.96l-7.58-6.96,5.68-20.01,1.89,26.97Z"/>
        <g>
          <polygon class="cls-1" points="393.69 374.36 401.14 379.01 404.61 373.4 419.58 349.18 422.06 345.17 414.47 340.42 393.69 374.36"/>
          <polygon class="cls-1" points="483.14 345.17 485.26 348.6 499.13 371.05 504.05 379.01 511.51 374.36 490.73 340.42 483.14 345.17"/>
        </g>
        <path class="cls-5" d="M485.26,348.6l-1.05,.66s-2.32,.21-10.92-.14c-8.14-.33-17.16,3.07-22.58,6.78-.14,.1-.3,.21-.48,.32-.7-.46-1.29-.85-1.73-1.15-5.06-3.46-13.5-6.59-21.15-6.18-3.73,.2-6.19,.27-7.77,.28l-14.97,24.22c2.04,3.67,5.05,8.44,8.64,12.19,2.4,2.51,5.85,5.91,9.67,9.37-3.16,5.56,.16,7.62,3.55,6.79-3.79,5.38,.97,10.17,8.03,6.68-2.07,2.54,3.8,6.76,9.84,3.74l4.57-2.58c1.08,2.64,4.48,5.02,9.65,2.29,2.72-1.44,5.83-3.58,9.04-6.05,2.43-.1,4.06-1.51,4.33-3.48,6.18-5.16,12.2-10.94,15.9-14.77,5.24-5.42,9.38-12.82,11.3-16.55l-13.87-22.44Z"/>
      </g>
      <g>
        <path class="cls-5" d="M517.76,94.23c-.64-1.29-1.5-2.38-2.51-3.23-2.4-2.01-5.67-2.59-9.08-.91,.15-1.42,.29-2.83,.41-4.23-.84-.16-1.75-.49-2.75-1.07-7.09-4.11-6.82-14.87-10.83-22.16-3.18-5.77-9.17-10.13-15.13-14.24-.04,.06-.06,.14-.11,.19-1.85,1.82-9.52-5-18.86-5.74-17.01-1.35-30.42,13.79-40.24,24.87-3.49,3.94-12.43,14.44-19.87,16.07,.21,2.13,.43,4.31,.69,6.52-3.59-1.97-7.06-1.4-9.57,.73-.99,.84-1.83,1.91-2.46,3.18-3.16,6.34-1.61,13.73,3.35,19.33,2.82,3.18,9.38,8.52,14.72,7.88,.33,1.03,.68,2.03,1.03,3.01,1.87,5.15,4.13,9.49,6.86,12.41,1.86,2.05,4.25,4.12,7.01,6.09,8.77,6.26,21.36,11.48,33.51,11.48s22.58-4.77,30.69-10.67c3.04-2.21,5.68-4.57,7.8-6.9,2.69-2.88,4.92-7.14,6.77-12.2,.38-1.03,.74-2.08,1.09-3.18,5.22,.21,11.42-4.86,14.13-7.92,4.96-5.6,6.51-12.98,3.35-19.33Z"/>
        <path class="cls-7" d="M399.47,90.32c-.26-2.22-.48-4.39-.69-6.52,7.44-1.63,16.38-12.13,19.87-16.07,9.82-11.09,23.24-26.22,40.24-24.87,9.34,.74,17.01,7.57,18.86,5.74,.05-.05,.07-.13,.11-.19,5.96,4.11,11.95,8.47,15.13,14.24,4.01,7.29,3.74,18.05,10.83,22.16,1,.58,1.91,.91,2.75,1.07-.13,1.39-.26,2.8-.41,4.23,3.41-1.69,6.68-1.1,9.08,.91,12.34-52.08-22.3-93.08-50.94-84.95-45.67-16.72-87.64,30.11-74.4,85,2.5-2.13,5.98-2.71,9.57-.73Z"/>
      </g>
      <g>
        <path class="cls-2" d="M603.88,299.84c-1.18-12.72-17.56-78.66-17.56-78.66,0,0-2.36-9.92-4.3-17.28-4.95-18.79-12.34-45.95-14.47-49.23-9.25-14.2-53.97-27.4-57.2-28.35l-6.7-2.66c5.24-1.32,10.23-5.62,12.68-8.39,5.83-6.59,7.26-15.09,3.73-22.19-.55-1.11-1.23-2.09-1.99-2.93,7.35-33.14-4.18-60.05-17.36-73.79-10.78-11.22-24.28-16.05-36.3-13.01-20.57-7.23-41.49-2.64-57.52,12.66-18.61,17.77-26.02,46.22-19.83,74.2-.75,.84-1.4,1.8-1.94,2.87-3.53,7.1-2.1,15.6,3.73,22.19,2.35,2.65,7.42,7.03,12.7,8.38l-6.71,2.66c-3.24,.94-47.95,14.15-57.2,28.35-2.97,4.56-18.71,65.52-18.71,65.52,0,0-16.44,66.93-17.61,79.65-.7,7.61-1.31,14.18,12.11,27.88,8.53,8.7,29.4,23.34,47.11,35.16l-8.12,31.03c-.19,.74-.05,1.53,.4,2.16,.33,.46,3.79,5.21,9.44,10.84-.02,3.53,.13,7.43,.5,11.86l30.02,286.5c-5.68,6.27-11.94,13.02-15.38,16.22-4,3.72-19.71,15-19.95,15.17-4.34,3.45-6.66,8.44-6.37,13.67,.32,5.68,3.57,10.88,8.92,14.25,4.9,3.09,10.75,4.62,16.53,4.62,5.96,0,11.83-1.64,16.47-4.89l16.41-10.66c7.38-4.81,20.83-11.54,25.5-9.12,2.29,1.18,7.27-.92,14.83-6.25,.51-.36,.81-.95,.81-1.57v-27.92c.85-.11,1.69-.22,2.56-.34,.52,.09,1.03,.17,1.54,.25v28.02c0,.62,.3,1.21,.81,1.57,7.56,5.33,12.55,7.44,14.83,6.25,4.68-2.42,18.12,4.31,25.5,9.12l16.35,10.62c4.68,3.28,10.57,4.93,16.55,4.93s11.62-1.54,16.51-4.61c5.36-3.37,8.61-8.57,8.92-14.25,.29-5.23-2.03-10.21-6.44-13.73-.16-.11-15.87-11.4-19.87-15.11-3.25-3.03-9.02-9.22-14.44-15.19,.01-.07,.03-.14,.04-.22l28.81-285.39c.34-5,.43-9.41,.33-13.38,5.89-5.8,9.51-10.77,9.84-11.24,.45-.62,.59-1.41,.4-2.16l-8.12-31.03c17.71-11.82,38.58-26.45,47.11-35.16,13.42-13.7,12.81-20.27,12.11-27.88ZM392.73,111.85c-4.41-4.98-5.55-11.29-2.97-16.47,.87-1.75,2.21-2.98,3.76-3.47,1.12-.35,2.33-.29,3.57,.15,.21,1.73,.43,3.43,.66,5.06,.18,1.29,1.29,2.22,2.55,2.22,.12,0,.24,0,.36-.03,1.41-.2,2.39-1.5,2.2-2.91-.45-3.19-.86-6.6-1.23-10.17,7.23-3.18,13.85-10.87,17.72-15.38,.47-.55,.89-1.03,1.24-1.43,9.16-10.34,19.03-19.97,29.9-23.11,4.1,.77,6.34,2.61,8.13,4.34,.5,.48,1.15,.72,1.79,.72s1.35-.26,1.86-.79c.99-1.02,.96-2.66-.06-3.65-.53-.51-1.1-1.02-1.72-1.53,3.62,.46,5.76,2.01,8.1,3.98,1.09,.92,2.72,.78,3.64-.31,.92-1.09,.78-2.72-.31-3.64-2.88-2.42-6.16-4.82-11.76-5.27-19.2-1.53-34.96,16.26-43.42,25.82-.37,.42-.8,.92-1.29,1.49-3.96,4.61-12.21,14.19-19.21,14.99-1.42,.16-2.43,1.44-2.27,2.85,.05,.45,.22,.86,.47,1.21-.82,.05-1.64,.19-2.44,.44-.09,.03-.18,.07-.28,.1-5.04-25.58,1.89-51.25,18.76-67.35,14.75-14.08,34.05-18.19,52.95-11.27,.51,.19,1.07,.21,1.59,.06,10.51-2.98,22.17,1.18,31.99,11.4,12.02,12.52,22.52,36.9,16.45,67.17-.17-.06-.34-.11-.51-.16,.2-.59,.19-1.26-.08-1.87-.58-1.3-2.1-1.89-3.41-1.31-1.12,.5-2.49,.15-4.07-1.03-3.9-2.94-5.26-7.49-6.69-12.31-.9-3.02-1.83-6.14-3.43-9.03-3.03-5.5-8.98-12.39-16.6-15.22-1.33-.5-2.82,.18-3.32,1.52-.5,1.34,.18,2.82,1.52,3.32,6.3,2.34,11.42,8.4,13.88,12.88,1.33,2.41,2.14,5.14,3,8.02,1.61,5.41,3.28,11,8.53,14.95,.52,.39,1.02,.71,1.52,.99-.03,.31-.06,.62-.09,.93-.27,2.63-.56,5.19-.88,7.65-.19,1.41,.81,2.71,2.22,2.89,.11,.02,.23,.02,.34,.02,1.27,0,2.38-.95,2.55-2.24,.22-1.69,.43-3.42,.63-5.18,3.3-.95,5.74,1.14,6.89,3.46,2.57,5.18,1.43,11.49-2.98,16.47-1.93,2.18-5.34,4.96-8.55,6.29,.45-1.67,.88-3.39,1.29-5.21,.31-1.39-.57-2.77-1.96-3.08-1.39-.3-2.77,.57-3.08,1.96-.76,3.43-1.61,6.56-2.52,9.38-.13,.4-.26,.79-.39,1.18-.17,.5-.34,.99-.52,1.46-1.84,5.03-3.92,8.82-6.23,11.29-7.55,8.32-21.79,16.73-36.58,16.73s-31.24-8.62-38.63-16.76c-2.31-2.47-4.42-6.33-6.3-11.48-.14-.38-.28-.77-.41-1.16-.16-.47-.32-.94-.48-1.43-.9-2.77-1.74-5.85-2.5-9.22-.31-1.39-1.7-2.26-3.09-1.95-1.39,.31-2.26,1.7-1.95,3.09,.43,1.92,.9,3.72,1.38,5.47-3.38-1.17-7.1-4.17-9.22-6.56Zm68.43,44.58l1.5,1.11-3.81,13.31h-12.2l-3.81-13.32,1.9-1.42c3.05,.57,6.14,.9,9.19,.9,2.46,0,4.87-.21,7.23-.58Zm-34,5.96c-.96-4.53-1.98-9.32-2.96-13.99,4.19,2.4,8.89,4.5,13.81,6.03l-10.85,7.96Zm11.18-1.81l3.75,13.09-3.42,36.33c-3.25-11.92-6.15-23.05-7.78-30.35-.69-3.09-1.57-7.16-2.55-11.73l10-7.34Zm8.71,15.42h11.39l4.35,47.57c-3.89,13.95-7.77,27.43-10.19,35.79-2.39-8.27-6.22-21.56-10.07-35.36l4.52-48Zm19.63,33.46l-3.27-35.8,3.83-13.38,9.78,6.93c-1.04,4.85-1.98,9.19-2.7,12.43-1.6,7.19-4.45,18.1-7.64,29.82Zm11.51-47.74l-9.81-6.95c4.49-1.37,8.68-3.26,12.43-5.45-.87,4.15-1.76,8.37-2.62,12.4Zm-120.47,232.26l7.36-28.11c12.89,8.52,23.2,14.99,24.21,15.62,.41,.26,.89,.39,1.37,.39,.2,0,.39-.02,.59-.07,.67-.16,1.25-.58,1.61-1.16l1.68-2.75,5.24,3.28c.41,.26,.89,.39,1.37,.39,.2,0,.39-.02,.59-.07,.67-.16,1.25-.57,1.61-1.16l1.22-1.98c1.88,3,4.19,6.23,6.82,8.98,2.03,2.12,5.01,5.07,8.4,8.2-1.07,2.67-.81,4.62-.09,5.98,.64,1.22,1.68,2.09,2.98,2.56-.38,2.07,.09,4.05,1.43,5.61,.25,.29,.53,.55,.82,.8-.86,1.04-1.7,1.93-2.5,2.61-7.65,6.48-16,9.22-24.83,8.13-19.56-2.4-36.27-22.62-39.87-27.27Zm57.59-50.01l3.21,2-18.2,29.46-3.08-1.93,18.08-29.53Zm68.93,7.86l11.93,19.3c-2.06,3.84-5.73,10.05-10.19,14.65-5.94,6.14-19.56,19.01-28.62,23.81-1.67,.88-3.15,1.13-4.29,.71-.12-.04-.2-.11-.3-.16,7.33-5.03,18.01-14.12,18.52-14.55,1.09-.92,1.21-2.55,.29-3.64-.92-1.09-2.55-1.22-3.64-.29-.14,.11-13.6,11.58-20.34,15.69l-4.45,2.51c-2.35,1.15-4.29,.69-5.02,.44-.45-.16-.77-.34-1.01-.51,10.85-7.06,28.31-21.49,29.07-22.12,1.1-.91,1.25-2.54,.34-3.63-.91-1.1-2.53-1.25-3.63-.34-.19,.16-19.18,15.86-29.62,22.43-2.64,1.28-4.57,1.02-5.25,.22-.5-.58-.37-1.61,.31-2.74,11.64-7.26,30.16-23.98,30.95-24.69,1.06-.96,1.14-2.59,.18-3.64-.96-1.05-2.59-1.14-3.64-.18-.19,.17-19.03,17.18-30.28,24.18-.78,.12-1.24-.07-1.27-.13-.29-.56,.24-4.08,8.18-11.13,3.48-2.71,9.51-8.67,11.29-10.45,2.2-2.2,5.67-5.83,6.93-7.15,.2-.2,.36-.38,.49-.52,.97-1.04,.91-2.66-.12-3.64-1.03-.97-2.66-.93-3.64,.1,0,0-.16,.17-.41,.43-3.52,3.63-9.29,7.77-11.23,6.28-.32-.25-.32-.36-.31-.46,.06-1.64,2.74-5.33,15.15-13.55,.62-.41,1.15-.77,1.57-1.05,4.94-3.38,13.35-6.66,21.02-6.34,7.44,.3,10.27,.19,11.04,.14Zm5.65-7.86l18.08,29.53-3.08,1.93-18.21-29.46,3.21-2Zm-59.6,28.47c-.05,1.31,.32,3.19,2.32,4.73,.89,.69,1.85,1.09,2.85,1.27-2.16,2.06-4.56,4.26-6.24,5.55-.05,.04-.09,.07-.13,.11-2.95,2.61-5.08,4.9-6.61,6.92-2.96-2.76-5.55-5.34-7.36-7.24-2.99-3.13-5.58-7.05-7.5-10.35l13.42-21.72c1.57-.04,3.65-.11,6.45-.26,6.43-.34,13.4,2.04,18.06,4.79-9.11,6.19-15.09,11.38-15.26,16.19Zm106.79,47.79l-28.6,283.31c-20.67,3.06-34.58,3.04-53.3-.03V424.77c0-1.42-1.16-2.58-2.58-2.58s-2.58,1.16-2.58,2.58v278.86c-19.12,2.55-34.27,3.3-52.23,0l-29.9-285.37c-.19-2.31-.32-4.48-.4-6.52,7.76,6.66,18.03,13.23,29.46,14.63,1.49,.18,2.97,.28,4.44,.28,8.67,0,16.85-3.22,24.37-9.59,1.39-1.18,2.86-2.87,4.37-4.89,.66-.01,1.34-.08,2.04-.22,.14,.24,.31,.49,.49,.72,1.48,1.85,4.25,3.11,7.38,3.11,1.76,0,3.63-.4,5.45-1.31,.04-.02,.08-.04,.11-.06l2.47-1.4c.88,.96,1.98,1.7,3.22,2.15,1.78,.65,4.68,.99,8.46-1,3.41-1.8,7.39-4.65,11.38-7.84,2.87,4.69,5.72,8.56,8.3,10.75,8.79,7.45,18.48,10.59,28.81,9.32,11.29-1.39,21.45-7.81,29.17-14.39-.03,2.56-.14,5.28-.35,8.25Zm10.4-26.25c-3.6,4.65-20.31,24.87-39.87,27.27-8.83,1.09-17.18-1.65-24.83-8.13-2.33-1.97-4.96-5.62-7.66-10.11,5.86-5,11.33-10.3,14.56-13.64,3.97-4.11,7.3-9.22,9.59-13.21l2.59,4.19c.36,.58,.94,1,1.61,1.16,.19,.05,.39,.07,.59,.07,.48,0,.95-.13,1.37-.39l5.24-3.28,1.68,2.75c.36,.59,.94,1.01,1.61,1.16,.2,.05,.39,.07,.59,.07,.48,0,.96-.13,1.37-.39,1-.63,11.31-7.1,24.21-15.62l7.36,28.11Zm-32.1-18.25l-22.41-36.6s39.06-35.49,40.11-36.85l9.38-8.62s.03-.04,.05-.06c.03-.03,.06-.05,.09-.08,3-3.2,5.8-2.63,10.45-1.27,1.3,.38,2.77-.21,3.27-1.46,.57-1.44-.22-3.02-1.67-3.44-3.71-1.09-8.15-2.37-12.5,.03l-4.46-15.7c1.25-5.66,10.14-46.95,11.08-82.1,.04-1.42-1.09-2.61-2.51-2.65-1.4-.02-2.61,1.09-2.65,2.51-.82,30.66-7.88,66.63-10.31,78.19-.55,2.62-.92,5.26-1.11,7.93l-1.56,21.96-42.71,39.25c-.78,.71-1.02,1.81-.68,2.77l-5.47,3.42c-1.2,.75-1.57,2.34-.83,3.54l.14,.22c-1.65,0-4.11-.05-7.68-.2-8.36-.32-17.42,2.97-23.16,6.59-.09-.06-.2-.13-.28-.19-5.29-3.62-14.37-7.09-22.75-6.63-1.09,.06-2.05,.1-2.93,.14,.7-1.2,.33-2.74-.86-3.48l-5.47-3.42c.35-.96,.1-2.06-.68-2.77l-42.72-39.25s-.95-13.43-1.26-17.9c0,0,0-.02,0-.05-.38-5.17-1.08-10.3-2.11-15.37-2.86-14.1-8.85-46.62-9.6-74.75-.04-1.42-1.22-2.53-2.65-2.51-1.42,.04-2.55,1.22-2.51,2.65,.94,35.14,9.83,76.44,11.08,82.1l-4.46,15.71c-4.36-2.36-8.85-1.11-12.35-.08-1.3,.38-2.2,1.65-1.96,2.98,.28,1.53,1.81,2.44,3.26,2.01,4.74-1.39,7.57-2.01,10.6,1.23,.03,.03,.06,.05,.09,.08,.02,.02,.03,.04,.05,.06l49.48,45.47-22.41,36.6c-10.92-6.92-59.11-37.75-72.71-51.64-11.75-11.99-11.29-16.94-10.66-23.79,1.91-20.65,26.31-112.01,26.56-112.93,.05-.18,.07-.36,.08-.54,4.06-14.85,7.75-27.55,8.87-29.37,6.88-10.56,41.14-22.38,54.15-26.16l-4.68,15.93c-.33,1.13,.15,2.35,1.17,2.95l7.48,4.41-8.49,8.9c-.63,.66-.87,1.61-.61,2.49,13.36,46.39,47.98,104.61,48.33,105.19,.48,.81,1.34,1.26,2.22,1.26,.45,0,.91-.12,1.32-.37,1.22-.73,1.62-2.31,.89-3.54-.34-.57-33.92-57.05-47.38-102.56l9.71-10.18c.54-.57,.8-1.36,.69-2.14-.11-.78-.57-1.47-1.25-1.87l-8.55-5.04,4.81-16.39c.13-.43,.12-.87,.03-1.28l3.28-1.3c1.9,4.65,4.02,8.22,6.42,10.78,1.77,1.95,4.02,3.92,6.59,5.82,2.72,12.97,5.93,28.14,7.76,36.37,5.31,23.84,24.09,87.91,24.27,88.55,.32,1.1,1.33,1.85,2.48,1.85s2.15-.75,2.48-1.85c.19-.64,18.97-64.71,24.28-88.55,1.79-8.04,4.9-22.73,7.58-35.51,2.89-2.18,5.38-4.46,7.37-6.65,2.35-2.51,4.48-6.07,6.35-10.6l3.23,1.28,4.3,12.73-8.48,5c-.68,.4-1.14,1.09-1.25,1.87-.11,.78,.15,1.57,.69,2.14l9.71,10.18c-11.41,39.18-22.5,58.86-40.72,91.19-2.83,5.02-5.84,10.35-9.04,16.11-.59,1.06-.47,2.44,.43,3.26,.52,.47,1.15,.69,1.76,.69,.91,0,1.78-.48,2.26-1.33,3.23-5.8,6.25-11.16,9.09-16.21,18.63-33.05,29.87-53,41.59-93.72,.25-.88,.02-1.83-.61-2.49l-8.5-8.9,7.48-4.41c1.05-.62,1.52-1.89,1.13-3.05l-3.62-10.74c13.69,4.08,46.42,15.56,53.12,25.85,1.13,1.82,4.81,14.51,8.87,29.37,0,.18,.03,.36,.08,.54,.25,.92,24.65,92.28,26.56,112.93,.63,6.85,1.09,11.8-10.66,23.79-13.6,13.89-61.79,44.72-72.71,51.64Zm21.19-89.1l1.22,4.31-1.63,1.5,.41-5.81Zm-167.95,0l.41,5.81-1.63-1.5,1.22-4.31Z"/>
        <path class="cls-2" d="M452.6,283.8c-4.4,0-7.98,3.58-7.98,7.98s3.58,7.98,7.98,7.98,7.98-3.58,7.98-7.98-3.58-7.98-7.98-7.98Zm0,10.8c-1.56,0-2.82-1.27-2.82-2.82s1.26-2.82,2.82-2.82,2.82,1.27,2.82,2.82-1.26,2.82-2.82,2.82Z"/>
        <path class="cls-2" d="M452.6,321.43c-4.4,0-7.98,3.58-7.98,7.98s3.58,7.98,7.98,7.98,7.98-3.58,7.98-7.98-3.58-7.98-7.98-7.98Zm0,10.8c-1.56,0-2.82-1.26-2.82-2.82s1.26-2.82,2.82-2.82,2.82,1.27,2.82,2.82-1.26,2.82-2.82,2.82Z"/>
        <g>
          <path class="cls-2" d="M452.6,124.85c1.71-.06,3.7-.59,3.68-1.85,0-1.01-1.67-2.65-3.67-2.7h-.03c-1.98,.05-3.66,1.7-3.67,2.7-.02,1.27,1.96,1.79,3.68,1.85Z"/>
          <path class="cls-2" d="M475.21,82.79c3.51-.56,7.35-.27,10.83,.81,.26,.08,.51,.12,.77,.12,1.1,0,2.12-.71,2.46-1.82,.42-1.36-.34-2.81-1.7-3.23-4.22-1.31-8.9-1.66-13.17-.98-1.41,.22-2.37,1.55-2.14,2.95,.22,1.41,1.55,2.37,2.95,2.14Z"/>
          <path class="cls-2" d="M419.19,83.71c.25,0,.51-.04,.77-.12,3.43-1.06,7.37-1.36,10.83-.81,1.41,.23,2.73-.74,2.95-2.14,.22-1.41-.74-2.73-2.14-2.95-4.27-.68-8.95-.33-13.17,.98-1.36,.42-2.12,1.87-1.7,3.23,.34,1.11,1.36,1.82,2.46,1.82Z"/>
          <path class="cls-2" d="M441.44,137.61c3.6,1.45,7.38,2.17,11.16,2.17s7.56-.72,11.16-2.17c1.32-.53,1.96-2.03,1.43-3.36-.53-1.32-2.03-1.96-3.36-1.43-5.96,2.4-12.52,2.4-18.48,0-1.32-.53-2.82,.11-3.36,1.43-.53,1.32,.11,2.82,1.43,3.36Z"/>
          <path class="cls-2" d="M428.22,101.99h0c-1.51,0-2.95-.7-4.06-1.96-.94-1.07-2.57-1.18-3.64-.24-1.07,.94-1.18,2.57-.24,3.64,2.1,2.4,4.92,3.72,7.94,3.72h0c3.02,0,5.84-1.32,7.94-3.72,.94-1.07,.83-2.7-.24-3.64-1.07-.94-2.7-.83-3.64,.24-1.11,1.26-2.55,1.96-4.06,1.96Z"/>
          <path class="cls-2" d="M477.01,107.15c3.02,0,5.84-1.32,7.94-3.72,.94-1.07,.83-2.7-.24-3.64-1.07-.94-2.7-.83-3.64,.24-1.1,1.26-2.55,1.96-4.06,1.96s-2.95-.7-4.06-1.96c-.94-1.07-2.57-1.18-3.64-.24-1.07,.94-1.18,2.57-.24,3.64,2.1,2.4,4.92,3.72,7.94,3.72Z"/>
        </g>
        <path class="cls-2" d="M439.52,32.89c-14.69,1.29-24.79,15.69-32.91,27.26-2.02,2.88-3.92,5.59-5.73,7.86-.89,1.12-.7,2.74,.41,3.63,.47,.38,1.04,.56,1.6,.56,.76,0,1.51-.33,2.02-.97,1.9-2.39,3.85-5.16,5.91-8.11,7.51-10.7,16.85-24.01,29.14-25.09,1.42-.12,2.47-1.38,2.34-2.8-.12-1.42-1.4-2.48-2.79-2.34Z"/>
      </g>
    </g>
  </g>
</svg>