<?xml version="1.0" encoding="utf-8"?>
<!-- Generator: Adobe Illustrator 27.0.0, SVG Export Plug-In . SVG Version: 6.00 Build 0)  -->
<svg version="1.1" id="_レイヤー_2" xmlns="http://www.w3.org/2000/svg" xmlns:xlink="http://www.w3.org/1999/xlink" x="0px"
	 y="0px" viewBox="0 0 650.4 226.8" style="enable-background:new 0 0 650.4 226.8;" xml:space="preserve">
<style type="text/css">
	.st0{fill:#FFFFFF;stroke:#231815;stroke-width:2;}
</style>
<g>
	<path class="st0" d="M78.1,45.2c-27-0.9-50.8,9.5-50.8,32.6c0,7.9,5.6,18.6,17,22.4c2.1,0.7,3,0.5,2.8,1.2s-2.8,0.7-4.4,0.2
		c-11.9-3.5-19.6-13.8-20-24.2c-0.7-21.2,17-38,52.4-37c15.8,0.5,47.8,4.7,55.2,0.5c3.3-1.9,6.1-3.7,7.7-2.8c1.4,0.9-0.7,1.9-3,4.2
		c-5.8,5.6-10.9,11-16.8,18.4c-7,8.6-11.9,15.6-16.3,21.2h33.3c3.7-4.4,8.2-9.8,19.6-20.3c10.9-10.2,21.2-17.7,29.4-22.4
		c7.5-4.2,15.6-7,23.3-7c8.6,0,13.5,4.2,14.7,7.5c0.7,1.9,0.5,3.3-0.2,3.5c-0.5,0.2-0.5-0.7-1.2-2.1c-1.9-3.7-5.6-6.5-13.1-6.5
		s-15.4,3.7-21.2,7.9c-6.1,4.4-11.9,9.8-21.2,19.8c-6.1,6.5-13.1,15.2-16.3,19.6c6.3,0.2,14.4,0.5,18.6,0.9c1.9,0.2,5.4,0.5,5.4,1.2
		c0,0.9-3.5,0.7-5.1,0.7c-8.2,0-15.8,0-21.2,0.2c-10.5,13.3-25.4,32.6-25.4,41.2c0,2.8,2.1,4,4.4,4c4,0,9.3-2.1,16.5-7.2
		c3.3-2.3,9.8-7.9,13.3-10.9c1.4-1.2,2.3-1.6,2.8-1.2c0.5,0.5,0,1.2-1.4,2.6c-3,2.8-9.8,8.6-13.5,11.4c-3.5,2.6-12.6,9.3-21.7,9.3
		c-6.8,0-11.2-3.5-11.2-10.2c0-12.1,16.3-31.9,22.1-38.9l-32.8,0.2c-22.6,27.7-43.3,51.7-76.4,51.7c-11.2,0-23.3-4.9-23.3-18.2
		c0-6.3,5.1-12.3,12.1-12.1c4.7,0.2,7.9,3.7,7.5,8.6c-0.2,2.8-1.6,5.1-3.7,7s-3,3.7-3,5.8c0,4.9,6.8,6.8,11.7,6.8
		c24.9,0,47.5-32.6,60.8-49.6c-3.7,0-9.1,0.2-17.2,0.5c-1.6,0-4.9,0.2-4.4-1.2c0.2-0.9,3.5-1.2,6.8-1.4c4.2-0.5,10.5-0.7,17.2-0.9
		C100,67.1,118.4,49.6,128,43.3C119.1,46.6,103.3,46.1,78.1,45.2L78.1,45.2z"/>
	<path class="st0" d="M191.3,122.6c4.4-3,9.8-7.2,14.2-11.2c1.4-1.2,2.1-1.4,2.6-0.9c0.5,0.7-0.5,1.6-1.9,3
		c-3,2.8-10.5,8.8-14.7,11.7c-9.8,6.5-18.4,9.5-26.3,9.5c-8.6,0-12.6-3.3-12.4-9.3c0.2-4.7,2.3-8.8,7-14.4l-0.2-0.2l-4.7,4.2
		c-1.2,0.9-1.9,1.2-2.3,0.7c-0.5-0.7,0.5-1.6,1.4-2.6c3-2.8,5.1-4.4,8.6-7c2.6-1.9,7-4.7,11.4-7c6.8-3.5,13.8-6.5,20-6.5
		c5.4,0,7.2,3.3,7,6.3c-0.5,6.1-7.9,10.7-14.9,14.2c-6.8,3.3-14.7,6.1-20,7.5c-0.9,1.9-1.4,4-1.4,5.4c0,3.5,1.9,5.4,5.4,5.4
		C173.1,131.2,181,129.6,191.3,122.6L191.3,122.6z M183.4,110.9c5.8-4,9.3-8.8,9.6-12.1c0.2-2.1-0.7-3.3-2.8-3.3s-5.6,2.3-10.2,6.8
		c-3.7,3.5-9.6,10.9-12.4,15.6C172.2,116.7,178.5,114.2,183.4,110.9L183.4,110.9z"/>
	<path class="st0" d="M264.7,92.7c4.9-0.2,5.4,0.9,3,3.7c-3,3.5-8.1,9.3-13.1,15.4c-3,3.7-6.1,7.7-8.2,11.4
		c-1.6,2.8-1.6,4.7-0.7,5.4c1.2,0.9,3.5,0,5.4-0.9c2.3-1.2,6.8-4.2,10.5-7.2c4.9-4,8.6-7.2,11.2-9.6c1.4-1.2,2.6-2.3,3.3-1.6
		c0.7,0.7-0.5,1.9-3,4.2c-3,2.8-8.6,7.7-13,11.2c-4.7,3.7-12.4,9.3-20,9.3c-4.4,0-6.5-2.1-6.8-4.9c-0.2-2.6,1.2-5.8,3.3-8.4
		l-0.2-0.2c-6.1,5.4-16.8,13-25.6,13.5c-5.1,0.2-10.5-1.9-9.6-9.3c0.5-3.5,2.3-7.2,6.5-12.1l-0.2-0.2l-3,2.8
		c-0.9,0.7-1.6,1.2-2.1,0.7c-0.5-0.7,0.7-2.1,3.3-4.4c0.7-0.7,4.7-4,7-5.6s6.3-4.2,10.7-6.5c9.1-4.7,17.2-7.5,23.3-6.5
		c4.7,0.7,6.3,4.9,4.9,8.8C257,95.8,260.9,92.8,264.7,92.7L264.7,92.7z M224.1,109.7c-9.6,9.3-13.5,15.4-13.1,18.4
		c0.2,1.6,1.4,2.3,3,2.3c4.4,0,13.3-5.1,19.6-10.9c7.5-6.5,15.8-16.5,16.1-20.3c0.2-3-1.6-4.2-4.2-4.2
		C240.9,95.1,232.5,101.4,224.1,109.7L224.1,109.7z"/>
	<path class="st0" d="M284.7,114.2c2.6-3.5,6.8-8.8,9.3-12.1c1.6-2.1,2.1-3.3,1.6-4c-0.7-0.9-2.1-0.5-3.5,0.2
		c-2.8,1.4-6.3,4-9.1,6.3c-3,2.6-6.8,5.8-10,8.8c-2.3,2.1-3.3,2.8-4,2.1c-0.5-0.7,0.7-1.9,3.5-4.4c2.8-2.6,7.9-7.5,12.1-10.7
		c6.3-4.9,11-7.7,15.8-7.7c4.4,0,5.8,2.6,5.8,5.1c0,2.8-1.9,5.8-4.9,10c-1.9,2.6-5.1,6.8-7,9.3l0.5,0.5c2.6-2.6,8.2-8.2,14.2-13.1
		c3.7-3,7.5-6.1,11.4-8.6c3.5-2.3,5.4-3,6.8-3.3c1.2-0.2,4.2-0.2,5.4,0.2c0.7,0.2,0.9,1.2-1.6,3.3c-3.3,2.8-7.7,6.8-8.9,10.7
		c-1.9,6.3,0.9,9.1,4.4,9.1c2.8,0,5.4-2.1,7.9-4.4c1.6-1.4,2.3-1.9,3-1.4c0.5,0.5-0.2,1.4-2.3,3.5c-2.1,2.1-5.4,4.4-8.6,4.7
		c-4.4,0.2-7.9-0.9-10-4.2c-1.6-2.6-1.6-7.5,0.5-12.3c-3.5,2.6-8.2,6.1-10,7.7c-6.8,5.8-14.5,13.1-23.5,21.9
		c-1.6,1.6-3.5,2.1-6.1,2.1c-3.3,0-4.9-0.5-3-3.7C276.1,126.8,281,119.1,284.7,114.2L284.7,114.2z"/>
	<path class="st0" d="M336.2,112.8c-1.6,1.4-2.3,1.6-2.8,1.2s0-1.4,1.6-2.8l17-15.2c-3,0-5.6,0.2-8.4,0.2c-1.6,0-2.8,0-2.6-1.2
		c0.2-0.9,2.6-1.2,6.3-1.4c3-0.2,5.6-0.2,6.5-0.2c7.2-8.8,16.5-19.1,21.9-24.2c4.2-4.2,9.8-9.5,14.7-9.5c2.3,0,3.3,0.7,3.5,1.4
		c-2.8,2.6-8.9,9.1-14.2,15.1s-9.5,11.2-14.2,17.2c5.4-0.2,9.5-0.2,13.3-0.2c1.9,0,3.5,0.2,3.3,1.4c-0.2,1.4-2.3,1.2-4.2,1.2
		c-5.1,0-8.9,0-14.2,0.2c-4.7,5.6-12.6,17.5-16.8,25.6c-1.4,2.6-2.1,5.8-0.2,6.8c1.4,0.7,4,0,5.8-0.9c2.8-1.4,6.8-4,10.5-7
		c4.2-3.3,8.1-6.8,11-9.3c1.2-0.9,2.6-2.3,3.3-1.6c0.5,0.5,0,1.2-1.6,2.8c-2.6,2.6-9.3,8.6-14.2,12.3c-4.2,3.3-12.6,9.5-21.4,9.5
		c-5.4,0-7.2-3-7-6.5c0.5-5.8,5.8-14.2,12.6-23.1C341.8,107.7,339,110.2,336.2,112.8L336.2,112.8z"/>
	<path class="st0" d="M498.6,8.4c-1.9,11.2-24.2,29.6-47.8,49.2c-14,11.6-32.4,25.6-46.1,38c-12.1,14.9-19.1,24.2-27.5,36.1
		c2.3-0.5,6.8-1.9,10-3.3c3.3-1.4,7.9-3.5,13-6.8c5.1-3.3,10.5-7.7,13.3-10.2c0.9-0.9,3-2.8,3.7-2.1c0.7,0.7-1.4,2.6-2.1,3.3
		c-3.3,3.3-9.3,8.2-15.1,11.9c-6.5,4-14,7-18.4,8.6c-2.6,0.9-4.7,2.1-5.8,3.7c-1.6,2.3-2.1,3.7-3.3,7.5
		c-3.7,12.1-11.4,30.3-19.6,44.3c-7.5,13.1-17.7,27.5-27,34.5c-3.5,2.8-7,4.2-10,3.7c-3-0.5-4.9-3.3-3.7-8.9
		c2.6-12.6,18.2-39.6,34.7-62.2c11.9-16.3,27.3-36.3,41-53.8l-0.2-0.2c-2.8,2.1-8.1,7-12.4,10.9c-1.4,1.2-2.1,1.4-2.6,0.9
		c-0.5-0.5,0-1.2,1.4-2.6c5.6-5.4,13.8-12.1,18.9-16.1l25.9-31.9c17.9-21,41.9-45.2,53.8-53.8c5.8-4.2,12.6-9.1,19.1-9.1
		C497.4,0,499.3,4,498.6,8.4L498.6,8.4z M342.7,179.4c-7.7,11.6-18.6,28.4-22.4,37.1c-1.4,3-1.2,4.9,0,5.6c1.4,0.7,3,0,5.8-2.1
		c6.1-4.7,15.6-16.5,25.4-33.6c8.9-15.1,17.5-38,20.5-48C357.2,157.5,355.5,160.3,342.7,179.4L342.7,179.4z M449,55
		c22.4-20,43.1-38,44-48.2c0.2-2.8-1.2-4.2-3.7-4.2c-3.7,0-9.3,4.7-14.5,9.3c-7.7,7.2-18.2,18.6-30.3,33.1
		c-17.2,20.3-23.1,28-35.6,44.5C430.8,70.4,438.5,64.3,449,55L449,55z"/>
	<path class="st0" d="M422.9,106.2c-3.5,2.8-6.1,4.9-8.4,7c-1.9,1.6-2.8,2.3-3.5,1.9c-0.5-0.5,0-1.4,2.6-3.7s11-9.3,16.5-13.1
		c6.1-4.2,9.1-5.1,13.5-5.1c4.9,0,5.4,0.7,2.6,3.7c-3,3.3-7.5,8.6-12.1,14.4c-3.7,4.9-7.5,10-8.6,12.6c-0.9,1.9-0.9,3.5-0.2,4.2
		c0.9,0.9,3,0.7,5.4-0.5c5.1-2.8,10.2-6.5,17.5-12.1c11.2-8.6,17.7-14.4,25.2-20.3c1.9-1.4,3.3-2.6,6.8-2.6c4,0,6.3,0.5,3.5,3.7
		c-4.2,5.1-7.7,8.8-12.4,14.9c-4,4.9-7,9.1-8.6,11.9c-1.4,2.3-1.6,4.4-0.7,5.1c1.2,0.9,3,0.5,5.4-0.7s6.8-4,10.5-7
		c4.7-3.7,8.6-7.2,11.2-9.6c1.4-1.4,2.8-2.3,3.3-1.6c0.7,0.5-1.2,2.3-1.9,3c-2.8,2.8-8.6,7.7-14.2,12.1c-4.2,3.3-12.4,9.3-20,9.3
		c-4.7,0-7.2-2.1-7.2-5.6c0-3.3,1.6-6.5,3.7-9.6c2.6-3.7,7-8.2,11-12.1l-0.2-0.2l-18.6,14.7c-9.5,7.2-17.9,12.8-24.9,12.8
		c-4.9,0-7.9-2.3-7.7-6.5c0.2-3.3,2.3-6.8,4.4-9.6c4.7-6.3,9.3-11.9,16.5-18.6C431.3,100,426.4,103.5,422.9,106.2z"/>
	<path class="st0" d="M499.8,103.9c-3.5,3-7,6.3-9.5,8.6c-1.4,1.2-2.1,1.4-2.6,0.7c-0.2-0.7,0.5-1.4,1.2-2.1
		c0.9-0.9,9.1-8.2,15.8-13.8c2.3-2.8,17-19.6,20.3-23.1c11.4-12.1,25.4-25.9,31.7-31.7c2.8-2.6,6.1-5.4,8.4-5.4s3,1.4,3,2.6
		c0,2.3-3,6.5-6.3,10c-7.2,7.5-14.9,14.2-24.2,22.6c-1.9,1.6-4.2,4.2-7.2,7.7c-8.6,10.2-24.2,31-29.4,41.7c-1.2,2.3-1.9,5.1-0.5,6.3
		c1.4,1.2,5.1-0.2,7.2-1.4c2.1-1.2,6.1-3.7,9.5-6.5c4.2-3.3,7-5.6,11.4-9.6c4.7-4.2,9.3-8.4,14.7-13.3c6.8-8.8,17.7-22.6,27.7-34.2
		c16.8-19.6,39.4-42.6,52.9-53.8c5.4-4.2,12.6-9.3,19.3-9.3c6.1,0,7.7,4.2,7,8.4c-1.9,11.2-24,29.8-47.5,49.4
		c-14.2,11.7-28.9,22.8-46.1,38c-4,4.4-14.2,19.6-17.5,26.6c-0.9,2.1-1.6,4.7-0.2,5.8c1.4,1.2,5.1-0.2,7.2-1.4c3-1.6,6.3-4,9.5-6.5
		c4.2-3.3,7.2-5.8,10.2-8.6c0.9-0.9,2.8-2.6,3.5-1.9c0.5,0.5-0.2,1.4-1.6,2.8c-2.8,2.8-8.6,7.9-14.2,12.1c-4.7,3.5-13.3,9.3-21,9.3
		c-4.7,0-7.5-2.1-7.2-6.3c0.2-5.8,6.8-14.7,13.3-23.3l-0.2-0.2c-2.3,2.1-7.2,6.8-9.1,8.4c-2.8,2.6-9.1,8.2-14.2,12.1
		c-4.7,3.7-13.3,9.3-21.2,9.3c-4.4,0-7.2-2.1-7-6.3c0.2-3.3,1.9-7.2,4.7-11.9c2.1-3.5,5.4-7.9,8.4-11.7L499.8,103.9L499.8,103.9z
		 M600.9,55.2c22.6-19.6,43.1-38,44-48.2c0.2-3-1.4-4.4-4-4.4c-4,0-9.5,4.7-14.5,9.3c-7.7,7.7-18.2,18.9-30.3,33.3
		c-17,20.3-23.1,27.7-35.7,44.5C582.7,70.4,590.2,64.5,600.9,55.2L600.9,55.2z"/>
</g>
</svg>
