<?xml version="1.0" standalone="no"?>
<!DOCTYPE svg PUBLIC "-//W3C//DTD SVG 20010904//EN"
 "http://www.w3.org/TR/2001/REC-SVG-20010904/DTD/svg10.dtd">
<svg version="1.0" xmlns="http://www.w3.org/2000/svg"
 width="240.000000pt" height="240.000000pt" viewBox="0 0 240.000000 240.000000"
 preserveAspectRatio="xMidYMid meet">
<metadata>
Created by potrace 1.15, written by Peter Selinger 2001-2017
</metadata><g><rect x="0" y="0" width="240" height="240" fill="#ffffff" />
<g transform="translate(0.000000,240.000000) scale(0.050000,-0.050000)"
fill="#000000" stroke="none">
<path d="M400 3840 l0 -560 560 0 560 0 0 560 0 560 -560 0 -560 0 0 -560z
m960 0 l0 -400 -400 0 -400 0 0 400 0 400 400 0 400 0 0 -400z"/>
<path d="M720 3840 l0 -240 240 0 240 0 0 240 0 240 -240 0 -240 0 0 -240z"/>
<path d="M2000 4320 l0 -80 -80 0 -80 0 0 -80 0 -80 -80 0 -80 0 0 -80 0 -80
80 0 80 0 0 -160 0 -160 80 0 80 0 0 -160 0 -160 80 0 80 0 0 -80 0 -80 80 0
80 0 0 -80 0 -80 -80 0 -80 0 0 -80 0 -80 -80 0 -80 0 0 80 0 80 -80 0 -80 0
0 240 0 240 -80 0 -80 0 0 -160 0 -160 -320 0 -320 0 0 -80 0 -80 -80 0 -80 0
0 80 0 80 -240 0 -240 0 0 -80 0 -80 80 0 80 0 0 -80 0 -80 -80 0 -80 0 0 -80
0 -80 80 0 80 0 0 -80 0 -80 80 0 80 0 0 80 0 80 -80 0 -80 0 0 80 0 80 80 0
80 0 0 80 0 80 80 0 80 0 0 -240 0 -240 80 0 80 0 0 80 0 80 80 0 80 0 0 -240
0 -240 -160 0 -160 0 0 -80 0 -80 -160 0 -160 0 0 80 0 80 -80 0 -80 0 0 -80
0 -80 80 0 80 0 0 -80 0 -80 -80 0 -80 0 0 -80 0 -80 80 0 80 0 0 80 0 80 160
0 160 0 0 80 0 80 160 0 160 0 0 80 0 80 80 0 80 0 0 -80 0 -80 80 0 80 0 0
-80 0 -80 -160 0 -160 0 0 -80 0 -80 160 0 160 0 0 80 0 80 80 0 80 0 0 -400
0 -400 80 0 80 0 0 -80 0 -80 -80 0 -80 0 0 -240 0 -240 80 0 80 0 0 240 0
240 80 0 80 0 0 -80 0 -80 80 0 80 0 0 -80 0 -80 80 0 80 0 0 -80 0 -80 80 0
80 0 0 80 0 80 -80 0 -80 0 0 80 0 80 -80 0 -80 0 0 80 0 80 80 0 80 0 0 160
0 160 160 0 160 0 0 -80 0 -80 80 0 80 0 0 80 0 80 -80 0 -80 0 0 80 0 80 160
0 160 0 0 -160 0 -160 80 0 80 0 0 -80 0 -80 -160 0 -160 0 0 -240 0 -240 160
0 160 0 0 240 0 240 80 0 80 0 0 80 0 80 80 0 80 0 0 -80 0 -80 80 0 80 0 0
-160 0 -160 -80 0 -80 0 0 80 0 80 -80 0 -80 0 0 -80 0 -80 80 0 80 0 0 -80 0
-80 80 0 80 0 0 80 0 80 160 0 160 0 0 80 0 80 -80 0 -80 0 0 80 0 80 160 0
160 0 0 80 0 80 160 0 160 0 0 320 0 320 -160 0 -160 0 0 -320 0 -320 -80 0
-80 0 0 400 0 400 -80 0 -80 0 0 80 0 80 -80 0 -80 0 0 80 0 80 -80 0 -80 0 0
160 0 160 -160 0 -160 0 0 80 0 80 -80 0 -80 0 0 -80 0 -80 -80 0 -80 0 0 -80
0 -80 160 0 160 0 0 -160 0 -160 -160 0 -160 0 0 80 0 80 -80 0 -80 0 0 -80 0
-80 -80 0 -80 0 0 -80 0 -80 -80 0 -80 0 0 80 0 80 -80 0 -80 0 0 80 0 80 80
0 80 0 0 160 0 160 80 0 80 0 0 -80 0 -80 80 0 80 0 0 160 0 160 -80 0 -80 0
0 240 0 240 80 0 80 0 0 80 0 80 80 0 80 0 0 -160 0 -160 80 0 80 0 0 -80 0
-80 240 0 240 0 0 160 0 160 -160 0 -160 0 0 -80 0 -80 -80 0 -80 0 0 160 0
160 80 0 80 0 0 160 0 160 -160 0 -160 0 0 -80 0 -80 -80 0 -80 0 0 -80 0 -80
-80 0 -80 0 0 160 0 160 80 0 80 0 0 80 0 80 80 0 80 0 0 80 0 80 80 0 80 0 0
-80 0 -80 80 0 80 0 0 160 0 160 -80 0 -80 0 0 160 0 160 -240 0 -240 0 0
-160 0 -160 160 0 160 0 0 -80 0 -80 -240 0 -240 0 0 80 0 80 -80 0 -80 0 0
-80 0 -80 80 0 80 0 0 -160 0 -160 -160 0 -160 0 0 160 0 160 -80 0 -80 0 0
80 0 80 80 0 80 0 0 80 0 80 80 0 80 0 0 80 0 80 -80 0 -80 0 0 -80z m320
-960 l0 -80 80 0 80 0 0 -80 0 -80 -80 0 -80 0 0 80 0 80 -80 0 -80 0 0 80 0
80 80 0 80 0 0 -80z m640 0 l0 -80 -80 0 -80 0 0 80 0 80 80 0 80 0 0 -80z
m-1760 -480 l0 -80 80 0 80 0 0 80 0 80 240 0 240 0 0 -80 0 -80 80 0 80 0 0
-80 0 -80 -80 0 -80 0 0 -80 0 -80 80 0 80 0 0 -160 0 -160 -80 0 -80 0 0 -80
0 -80 80 0 80 0 0 -80 0 -80 -80 0 -80 0 0 80 0 80 -80 0 -80 0 0 80 0 80
-160 0 -160 0 0 80 0 80 80 0 80 0 0 80 0 80 -80 0 -80 0 0 80 0 80 -80 0 -80
0 0 80 0 80 -80 0 -80 0 0 80 0 80 80 0 80 0 0 -80z m1120 -320 l0 -80 -80 0
-80 0 0 80 0 80 80 0 80 0 0 -80z m1120 -480 l0 -80 80 0 80 0 0 -80 0 -80
-80 0 -80 0 0 80 0 80 -80 0 -80 0 0 80 0 80 80 0 80 0 0 -80z m-640 -160 l0
-80 80 0 80 0 0 -80 0 -80 -80 0 -80 0 0 -80 0 -80 -80 0 -80 0 0 240 0 240
80 0 80 0 0 -80z m-480 -160 l0 -80 -80 0 -80 0 0 80 0 80 80 0 80 0 0 -80z
m-320 -160 l0 -80 80 0 80 0 0 -80 0 -80 80 0 80 0 0 -80 0 -80 -80 0 -80 0 0
-160 0 -160 -80 0 -80 0 0 160 0 160 -80 0 -80 0 0 80 0 80 80 0 80 0 0 80 0
80 -80 0 -80 0 0 80 0 80 80 0 80 0 0 -80z m1600 -160 l0 -240 -240 0 -240 0
0 240 0 240 240 0 240 0 0 -240z"/>
<path d="M1360 2720 l0 -80 160 0 160 0 0 80 0 80 -160 0 -160 0 0 -80z"/>
<path d="M1680 2320 l0 -160 80 0 80 0 0 160 0 160 -80 0 -80 0 0 -160z"/>
<path d="M3280 1440 l0 -80 80 0 80 0 0 80 0 80 -80 0 -80 0 0 -80z"/>
<path d="M3280 3840 l0 -560 560 0 560 0 0 560 0 560 -560 0 -560 0 0 -560z
m960 0 l0 -400 -400 0 -400 0 0 400 0 400 400 0 400 0 0 -400z"/>
<path d="M3600 3840 l0 -240 240 0 240 0 0 240 0 240 -240 0 -240 0 0 -240z"/>
<path d="M3920 3040 l0 -80 80 0 80 0 0 80 0 80 -80 0 -80 0 0 -80z"/>
<path d="M4240 2880 l0 -80 -160 0 -160 0 0 -80 0 -80 80 0 80 0 0 -160 0
-160 80 0 80 0 0 -80 0 -80 -160 0 -160 0 0 160 0 160 -80 0 -80 0 0 160 0
160 -80 0 -80 0 0 -160 0 -160 80 0 80 0 0 -160 0 -160 80 0 80 0 0 -80 0 -80
80 0 80 0 0 -80 0 -80 80 0 80 0 0 80 0 80 80 0 80 0 0 240 0 240 -80 0 -80 0
0 80 0 80 80 0 80 0 0 160 0 160 -80 0 -80 0 0 -80z"/>
<path d="M400 960 l0 -560 560 0 560 0 0 560 0 560 -560 0 -560 0 0 -560z
m960 0 l0 -400 -400 0 -400 0 0 400 0 400 400 0 400 0 0 -400z"/>
<path d="M720 960 l0 -240 240 0 240 0 0 240 0 240 -240 0 -240 0 0 -240z"/>
<path d="M2480 800 l0 -80 80 0 80 0 0 80 0 80 -80 0 -80 0 0 -80z"/>
<path d="M4240 800 l0 -80 -80 0 -80 0 0 -160 0 -160 160 0 160 0 0 80 0 80
-80 0 -80 0 0 80 0 80 80 0 80 0 0 80 0 80 -80 0 -80 0 0 -80z"/>
</g>
</g></svg>
