<?xml version="1.0" standalone="no"?>
<!DOCTYPE svg PUBLIC "-//W3C//DTD SVG 20010904//EN"
 "http://www.w3.org/TR/2001/REC-SVG-20010904/DTD/svg10.dtd">
<svg version="1.0" xmlns="http://www.w3.org/2000/svg"
 width="312.000000pt" height="312.000000pt" viewBox="0 0 312.000000 312.000000"
 preserveAspectRatio="xMidYMid meet">
<metadata>
Created by potrace 1.15, written by Peter Selinger 2001-2017
</metadata><g><rect x="0" y="0" width="312" height="312" fill="#ffffff" />
<g transform="translate(0.000000,312.000000) scale(0.050000,-0.050000)"
fill="#000000" stroke="none">
<path d="M480 5200 l0 -560 560 0 560 0 0 560 0 560 -560 0 -560 0 0 -560z
m960 0 l0 -400 -400 0 -400 0 0 400 0 400 400 0 400 0 0 -400z"/>
<path d="M800 5200 l0 -240 240 0 240 0 0 240 0 240 -240 0 -240 0 0 -240z"/>
<path d="M1920 5680 l0 -80 -80 0 -80 0 0 -80 0 -80 80 0 80 0 0 -80 0 -80
-80 0 -80 0 0 -80 0 -80 160 0 160 0 0 -240 0 -240 80 0 80 0 0 240 0 240 80
0 80 0 0 -80 0 -80 80 0 80 0 0 -80 0 -80 -80 0 -80 0 0 -240 0 -240 80 0 80
0 0 80 0 80 80 0 80 0 0 -80 0 -80 80 0 80 0 0 -80 0 -80 400 0 400 0 0 -160
0 -160 160 0 160 0 0 -80 0 -80 80 0 80 0 0 -80 0 -80 -160 0 -160 0 0 80 0
80 -80 0 -80 0 0 -160 0 -160 -80 0 -80 0 0 160 0 160 -80 0 -80 0 0 80 0 80
80 0 80 0 0 80 0 80 -80 0 -80 0 0 -80 0 -80 -80 0 -80 0 0 80 0 80 -80 0 -80
0 0 -80 0 -80 80 0 80 0 0 -80 0 -80 80 0 80 0 0 -80 0 -80 -160 0 -160 0 0
80 0 80 -320 0 -320 0 0 160 0 160 80 0 80 0 0 80 0 80 -160 0 -160 0 0 -80 0
-80 -80 0 -80 0 0 160 0 160 80 0 80 0 0 80 0 80 -400 0 -400 0 0 -80 0 -80
240 0 240 0 0 -80 0 -80 -240 0 -240 0 0 -80 0 -80 160 0 160 0 0 -80 0 -80
-160 0 -160 0 0 -80 0 -80 160 0 160 0 0 -160 0 -160 -80 0 -80 0 0 80 0 80
-160 0 -160 0 0 -80 0 -80 -80 0 -80 0 0 -80 0 -80 -80 0 -80 0 0 -80 0 -80
-80 0 -80 0 0 160 0 160 -160 0 -160 0 0 -160 0 -160 160 0 160 0 0 -160 0
-160 80 0 80 0 0 160 0 160 160 0 160 0 0 160 0 160 160 0 160 0 0 -80 0 -80
-80 0 -80 0 0 -80 0 -80 80 0 80 0 0 -80 0 -80 -240 0 -240 0 0 -160 0 -160
-240 0 -240 0 0 -80 0 -80 -80 0 -80 0 0 -320 0 -320 80 0 80 0 0 240 0 240
80 0 80 0 0 80 0 80 160 0 160 0 0 -160 0 -160 -160 0 -160 0 0 -80 0 -80 160
0 160 0 0 -80 0 -80 240 0 240 0 0 80 0 80 -80 0 -80 0 0 80 0 80 240 0 240 0
0 80 0 80 80 0 80 0 0 -80 0 -80 80 0 80 0 0 80 0 80 -80 0 -80 0 0 80 0 80
160 0 160 0 0 -80 0 -80 80 0 80 0 0 -80 0 -80 -80 0 -80 0 0 -160 0 -160 80
0 80 0 0 80 0 80 80 0 80 0 0 -80 0 -80 80 0 80 0 0 -160 0 -160 -80 0 -80 0
0 -80 0 -80 80 0 80 0 0 80 0 80 240 0 240 0 0 -80 0 -80 -80 0 -80 0 0 -80 0
-80 -80 0 -80 0 0 -80 0 -80 -80 0 -80 0 0 80 0 80 -240 0 -240 0 0 160 0 160
80 0 80 0 0 80 0 80 -320 0 -320 0 0 80 0 80 160 0 160 0 0 80 0 80 -240 0
-240 0 0 -240 0 -240 240 0 240 0 0 -80 0 -80 -240 0 -240 0 0 -400 0 -400 80
0 80 0 0 80 0 80 160 0 160 0 0 160 0 160 -80 0 -80 0 0 80 0 80 160 0 160 0
0 -80 0 -80 80 0 80 0 0 -80 0 -80 -80 0 -80 0 0 -160 0 -160 80 0 80 0 0 80
0 80 80 0 80 0 0 -80 0 -80 80 0 80 0 0 80 0 80 -80 0 -80 0 0 80 0 80 240 0
240 0 0 80 0 80 80 0 80 0 0 -160 0 -160 -80 0 -80 0 0 -80 0 -80 80 0 80 0 0
80 0 80 80 0 80 0 0 -80 0 -80 80 0 80 0 0 80 0 80 80 0 80 0 0 -80 0 -80 320
0 320 0 0 80 0 80 80 0 80 0 0 -80 0 -80 80 0 80 0 0 160 0 160 80 0 80 0 0
-80 0 -80 80 0 80 0 0 -80 0 -80 80 0 80 0 0 80 0 80 80 0 80 0 0 -80 0 -80
80 0 80 0 0 80 0 80 -80 0 -80 0 0 80 0 80 -80 0 -80 0 0 80 0 80 240 0 240 0
0 160 0 160 -80 0 -80 0 0 -80 0 -80 -160 0 -160 0 0 80 0 80 80 0 80 0 0 80
0 80 80 0 80 0 0 80 0 80 80 0 80 0 0 160 0 160 -80 0 -80 0 0 -160 0 -160
-80 0 -80 0 0 80 0 80 -80 0 -80 0 0 80 0 80 80 0 80 0 0 80 0 80 80 0 80 0 0
80 0 80 80 0 80 0 0 80 0 80 -80 0 -80 0 0 80 0 80 -80 0 -80 0 0 80 0 80 80
0 80 0 0 80 0 80 80 0 80 0 0 80 0 80 -80 0 -80 0 0 80 0 80 -80 0 -80 0 0 80
0 80 80 0 80 0 0 80 0 80 80 0 80 0 0 80 0 80 -160 0 -160 0 0 -160 0 -160
-80 0 -80 0 0 -80 0 -80 80 0 80 0 0 -240 0 -240 -80 0 -80 0 0 160 0 160 -80
0 -80 0 0 240 0 240 -80 0 -80 0 0 -160 0 -160 -80 0 -80 0 0 -80 0 -80 -80 0
-80 0 0 240 0 240 80 0 80 0 0 80 0 80 -80 0 -80 0 0 80 0 80 -80 0 -80 0 0
80 0 80 80 0 80 0 0 80 0 80 80 0 80 0 0 80 0 80 80 0 80 0 0 80 0 80 -80 0
-80 0 0 -80 0 -80 -80 0 -80 0 0 80 0 80 -80 0 -80 0 0 240 0 240 -80 0 -80 0
0 80 0 80 80 0 80 0 0 160 0 160 -80 0 -80 0 0 -160 0 -160 -80 0 -80 0 0 80
0 80 -80 0 -80 0 0 80 0 80 80 0 80 0 0 80 0 80 80 0 80 0 0 80 0 80 -80 0
-80 0 0 -80 0 -80 -80 0 -80 0 0 -80 0 -80 -80 0 -80 0 0 160 0 160 -160 0
-160 0 0 -80 0 -80 80 0 80 0 0 -80 0 -80 80 0 80 0 0 -80 0 -80 -320 0 -320
0 0 80 0 80 -80 0 -80 0 0 -160 0 -160 -320 0 -320 0 0 160 0 160 80 0 80 0 0
80 0 80 -160 0 -160 0 0 -80 0 -80 -80 0 -80 0 0 160 0 160 -80 0 -80 0 0 -80z
m320 -480 l0 -80 -80 0 -80 0 0 80 0 80 80 0 80 0 0 -80z m1760 0 l0 -80 80 0
80 0 0 -80 0 -80 80 0 80 0 0 -240 0 -240 -160 0 -160 0 0 -80 0 -80 80 0 80
0 0 -80 0 -80 80 0 80 0 0 80 0 80 80 0 80 0 0 -160 0 -160 -160 0 -160 0 0
80 0 80 -80 0 -80 0 0 80 0 80 -80 0 -80 0 0 80 0 80 -80 0 -80 0 0 -80 0 -80
-320 0 -320 0 0 160 0 160 -80 0 -80 0 0 -80 0 -80 -80 0 -80 0 0 80 0 80 -80
0 -80 0 0 80 0 80 80 0 80 0 0 -80 0 -80 80 0 80 0 0 80 0 80 80 0 80 0 0 -80
0 -80 80 0 80 0 0 160 0 160 -80 0 -80 0 0 80 0 80 80 0 80 0 0 -80 0 -80 160
0 160 0 0 80 0 80 80 0 80 0 0 -240 0 -240 80 0 80 0 0 320 0 320 80 0 80 0 0
-80z m-1760 -1440 l0 -80 80 0 80 0 0 -80 0 -80 80 0 80 0 0 -80 0 -80 -80 0
-80 0 0 -160 0 -160 80 0 80 0 0 80 0 80 80 0 80 0 0 80 0 80 80 0 80 0 0 -80
0 -80 -80 0 -80 0 0 -80 0 -80 80 0 80 0 0 -160 0 -160 80 0 80 0 0 80 0 80
80 0 80 0 0 80 0 80 -80 0 -80 0 0 160 0 160 240 0 240 0 0 -80 0 -80 80 0 80
0 0 -80 0 -80 -80 0 -80 0 0 -80 0 -80 80 0 80 0 0 -160 0 -160 80 0 80 0 0
-80 0 -80 -80 0 -80 0 0 -80 0 -80 80 0 80 0 0 -80 0 -80 -80 0 -80 0 0 -80 0
-80 80 0 80 0 0 -80 0 -80 -480 0 -480 0 0 80 0 80 -80 0 -80 0 0 80 0 80 80
0 80 0 0 -80 0 -80 80 0 80 0 0 80 0 80 240 0 240 0 0 80 0 80 -160 0 -160 0
0 80 0 80 -80 0 -80 0 0 -80 0 -80 -80 0 -80 0 0 80 0 80 -240 0 -240 0 0 160
0 160 80 0 80 0 0 80 0 80 -240 0 -240 0 0 80 0 80 -80 0 -80 0 0 -80 0 -80
-80 0 -80 0 0 80 0 80 -80 0 -80 0 0 80 0 80 80 0 80 0 0 80 0 80 80 0 80 0 0
80 0 80 80 0 80 0 0 -80 0 -80 80 0 80 0 0 160 0 160 -80 0 -80 0 0 80 0 80
80 0 80 0 0 -80z m2080 0 l0 -80 80 0 80 0 0 -240 0 -240 -80 0 -80 0 0 80 0
80 -80 0 -80 0 0 -240 0 -240 160 0 160 0 0 80 0 80 80 0 80 0 0 -80 0 -80 80
0 80 0 0 80 0 80 160 0 160 0 0 -160 0 -160 80 0 80 0 0 -80 0 -80 80 0 80 0
0 -240 0 -240 -80 0 -80 0 0 160 0 160 -80 0 -80 0 0 -80 0 -80 -160 0 -160 0
0 -80 0 -80 80 0 80 0 0 -80 0 -80 -160 0 -160 0 0 160 0 160 -80 0 -80 0 0
-160 0 -160 -80 0 -80 0 0 80 0 80 -80 0 -80 0 0 80 0 80 80 0 80 0 0 80 0 80
160 0 160 0 0 80 0 80 -240 0 -240 0 0 160 0 160 -80 0 -80 0 0 -80 0 -80 -80
0 -80 0 0 240 0 240 80 0 80 0 0 80 0 80 80 0 80 0 0 80 0 80 80 0 80 0 0 80
0 80 -80 0 -80 0 0 80 0 80 80 0 80 0 0 -80z m-2720 -1120 l0 -80 80 0 80 0 0
80 0 80 160 0 160 0 0 -80 0 -80 -160 0 -160 0 0 -80 0 -80 80 0 80 0 0 -80 0
-80 -80 0 -80 0 0 80 0 80 -80 0 -80 0 0 -80 0 -80 -80 0 -80 0 0 -80 0 -80
-80 0 -80 0 0 80 0 80 80 0 80 0 0 80 0 80 80 0 80 0 0 80 0 80 -80 0 -80 0 0
80 0 80 80 0 80 0 0 -80z m-320 -160 l0 -80 -80 0 -80 0 0 80 0 80 80 0 80 0
0 -80z m3040 -800 l0 -80 -80 0 -80 0 0 -80 0 -80 -160 0 -160 0 0 -80 0 -80
-80 0 -80 0 0 -80 0 -80 240 0 240 0 0 80 0 80 80 0 80 0 0 -80 0 -80 240 0
240 0 0 -80 0 -80 -80 0 -80 0 0 -80 0 -80 -80 0 -80 0 0 -80 0 -80 -240 0
-240 0 0 80 0 80 -240 0 -240 0 0 80 0 80 80 0 80 0 0 80 0 80 -160 0 -160 0
0 80 0 80 160 0 160 0 0 80 0 80 -80 0 -80 0 0 80 0 80 240 0 240 0 0 80 0 80
160 0 160 0 0 -80z m640 -160 l0 -240 -240 0 -240 0 0 240 0 240 240 0 240 0
0 -240z m480 0 l0 -80 -80 0 -80 0 0 80 0 80 80 0 80 0 0 -80z m-3360 -640 l0
-80 -80 0 -80 0 0 80 0 80 80 0 80 0 0 -80z m3040 0 l0 -80 -80 0 -80 0 0 80
0 80 80 0 80 0 0 -80z"/>
<path d="M4000 4800 l0 -160 -80 0 -80 0 0 -80 0 -80 80 0 80 0 0 80 0 80 80
0 80 0 0 160 0 160 -80 0 -80 0 0 -160z"/>
<path d="M3360 4720 l0 -80 80 0 80 0 0 80 0 80 -80 0 -80 0 0 -80z"/>
<path d="M1920 3280 l0 -80 -80 0 -80 0 0 -80 0 -80 80 0 80 0 0 80 0 80 80 0
80 0 0 80 0 80 -80 0 -80 0 0 -80z"/>
<path d="M3200 2800 l0 -80 80 0 80 0 0 -80 0 -80 -80 0 -80 0 0 -80 0 -80 80
0 80 0 0 80 0 80 80 0 80 0 0 -80 0 -80 80 0 80 0 0 80 0 80 -80 0 -80 0 0
160 0 160 -160 0 -160 0 0 -80z"/>
<path d="M2720 2640 l0 -80 80 0 80 0 0 80 0 80 -80 0 -80 0 0 -80z"/>
<path d="M4640 2640 l0 -80 160 0 160 0 0 -80 0 -80 80 0 80 0 0 160 0 160
-240 0 -240 0 0 -80z"/>
<path d="M4640 2320 l0 -80 80 0 80 0 0 80 0 80 -80 0 -80 0 0 -80z"/>
<path d="M4160 1040 l0 -80 80 0 80 0 0 -80 0 -80 80 0 80 0 0 80 0 80 -80 0
-80 0 0 80 0 80 -80 0 -80 0 0 -80z"/>
<path d="M4640 1520 l0 -80 80 0 80 0 0 80 0 80 -80 0 -80 0 0 -80z"/>
<path d="M2880 5680 l0 -80 160 0 160 0 0 80 0 80 -160 0 -160 0 0 -80z"/>
<path d="M4640 5200 l0 -560 560 0 560 0 0 560 0 560 -560 0 -560 0 0 -560z
m960 0 l0 -400 -400 0 -400 0 0 400 0 400 400 0 400 0 0 -400z"/>
<path d="M4960 5200 l0 -240 240 0 240 0 0 240 0 240 -240 0 -240 0 0 -240z"/>
<path d="M2720 5360 l0 -80 80 0 80 0 0 80 0 80 -80 0 -80 0 0 -80z"/>
<path d="M1760 4800 l0 -160 80 0 80 0 0 160 0 160 -80 0 -80 0 0 -160z"/>
<path d="M480 4240 l0 -240 80 0 80 0 0 -80 0 -80 -80 0 -80 0 0 -80 0 -80 80
0 80 0 0 -80 0 -80 160 0 160 0 0 80 0 80 80 0 80 0 0 80 0 80 80 0 80 0 0
160 0 160 -80 0 -80 0 0 80 0 80 80 0 80 0 0 80 0 80 -400 0 -400 0 0 -240z
m480 -80 l0 -160 80 0 80 0 0 -80 0 -80 -80 0 -80 0 0 -80 0 -80 -80 0 -80 0
0 160 0 160 -80 0 -80 0 0 160 0 160 160 0 160 0 0 -160z"/>
<path d="M5120 4400 l0 -80 80 0 80 0 0 -80 0 -80 -80 0 -80 0 0 -80 0 -80 80
0 80 0 0 -80 0 -80 -160 0 -160 0 0 -80 0 -80 160 0 160 0 0 80 0 80 80 0 80
0 0 80 0 80 80 0 80 0 0 80 0 80 80 0 80 0 0 80 0 80 -80 0 -80 0 0 80 0 80
-80 0 -80 0 0 -80 0 -80 -80 0 -80 0 0 80 0 80 -80 0 -80 0 0 -80z m320 -320
l0 -80 -80 0 -80 0 0 80 0 80 80 0 80 0 0 -80z"/>
<path d="M2720 3920 l0 -80 80 0 80 0 0 80 0 80 -80 0 -80 0 0 -80z"/>
<path d="M480 1040 l0 -560 560 0 560 0 0 560 0 560 -560 0 -560 0 0 -560z
m960 0 l0 -400 -400 0 -400 0 0 400 0 400 400 0 400 0 0 -400z"/>
<path d="M800 1040 l0 -240 240 0 240 0 0 240 0 240 -240 0 -240 0 0 -240z"/>
</g>
</g></svg>
